<?xml version="1.0" encoding="UTF-8"?>
<svg id="Layer_1" xmlns="http://www.w3.org/2000/svg" version="1.1" viewBox="0 0 595.3 841.9">
  <!-- Generator: Adobe Illustrator 29.1.0, SVG Export Plug-In . SVG Version: 2.1.0 Build 142)  -->
  <defs>
    <style>
      .st0 {
        fill: #82829f;
      }

      .st1 {
        fill: #878bb5;
      }

      .st2 {
        fill: #fcfcf9;
      }

      .st3 {
        fill: #9d99b1;
      }

      .st4 {
        fill: #d3acb7;
      }

      .st5 {
        fill: #dd6f7e;
      }

      .st6 {
        fill: #bdc1d3;
      }

      .st7 {
        fill: #928fa9;
      }

      .st8 {
        fill: #b1b0c5;
      }

      .st9 {
        fill: #dbd9e2;
      }

      .st10 {
        fill: #a884a5;
      }

      .st11 {
        fill: #2a1331;
      }

      .st12 {
        fill: #8c8aa6;
      }

      .st13 {
        fill: #6c335a;
      }

      .st14 {
        fill: #686398;
      }

      .st15 {
        fill: #ebc7c4;
      }

      .st16 {
        fill: #411f46;
      }

      .st17 {
        fill: #8a98c3;
      }

      .st18 {
        fill: #d2b7c6;
      }

      .st19 {
        fill: #797a9b;
      }

      .st20 {
        fill: #1a0f1c;
      }

      .st21 {
        fill: #f8efdc;
      }

      .st22 {
        fill: #a7a3bb;
      }

      .st23 {
        fill: #99abcb;
      }

      .st24 {
        fill: #a25e73;
      }

      .st25 {
        fill: #a29eb5;
      }

      .st26 {
        fill: #c398ab;
      }

      .st27 {
        fill: #f4ded4;
      }

      .st28 {
        fill: #fbf6e5;
      }
    </style>
  </defs>
  <path class="st11" d="M430.5,200.6"/>
  <path class="st24" d="M401.5,204.2l1-2s3.3,2.7,3.2,4.4c-.1,1.6,4.7-11.1,5.9-10.9.9.2,3.2,0,3.2,0h0s1.2-.1,1.2-.1c0,0,0,0,0,0,0,0,1.5.5-2.4,19.6,0,0,5.8-1.1,5.6-.3s3.8.7,2.8,2.1c-1,1.3-6,10.4-7.4,11.2-1.4.8-16.1-3.4-16.1-3.4l3.1-20.6Z"/>
  <path class="st25" d="M195.5,269.2c-.2,2.8,0,6.1,0,9h-2s0,3.4,0,3.4l2,.6c0,3.8.8,6.7,1,10-2.7.3-4.7-1.5-5.8-3.7l-.2-1.8c3.5-1.1-1-9.5-1.9-13.5h3c0-1.7,0-3.3,0-5l4,1Z"/>
  <path class="st0" d="M184.5,205.2c.1,1.3,1.4,3.2,1.1,4.9h1.9c-2.4,18.9.3,23.3,1.8,40.7,0,1.1.2,6.2.5,8.3.5,4.5,9,19,8.8,17-.5-4.2-7.9,10.7-7.9,12.3l-5.2-18.3c-2.3-9.4-1.5-13.1-2-22s0-2.7,0-4c-.4-9-1.4-16.2-1-26,.2-4.5,1.1-8.7,0-13h2Z"/>
  <path class="st11" d="M195.5,391.2c4,2.7,11,6.2,16,7v2c-6.4.8-7.4,7.2-8,13,0,.7,0,1.3,0,2v1c-.4.1-.7.9-1,1-2.7,1.1-4,.7-5.7,4.1-1.6-.4-4.8-.2-4.3-3.1,1.6-.5,3.3-.7,4.9-1.1.6-.7-.3-3.7.1-4.9s1.8-1.2,2.5-3,3.9-10.2,3.4-11c-8.6-1.5-11.5-6.8-16.9-12.1-.5-1.3.9-2.4,1-3,2.4,4.6,4.1,5.4,8,8Z"/>
  <path class="st24" d="M226.5,462.2v5c-1.1-.3-2.8.2-4,0,0-.7,0-1.3,0-2,.7-2.1,3.4-2.4,4-3Z"/>
  <path class="st4" d="M209.5,640.2c0,1.9.7,4.9-1,6,0-1-2-3.9-1-6h2Z"/>
  <path class="st13" d="M202.5,132.2c-2.2,4.6-4.2,13.6-6,19-2.3,6.9-3.4,9-5,17-.6,2.9-2.4,4.8-2,9-1,.8-.9,1.8-1,3-.4,4.7-.8,9.3-1,14-.2,5.1.6,11.2,0,16h-1.9c.3-1.8-.9-3.7-1.1-5-2-16.9,1-40.1,7-56,1.1-2.9,5.5-12.9,7-15s2.6.3,2-2h2Z"/>
  <path class="st24" d="M215.5,114.2c-.2,1.1.1,2.7,0,4h-2c0,1,0,2,0,3s0,1.4,0,2c-1.6.7-.9,2.7-1,4s.2,2.1,0,3c-.5,2.6-2.5,6.5-3,9-2.7-3.9-3.2-8.6-2-13-1.4,1.1-4.3,4.6-5,6h-2c.6,2.3-1.9,1.9-2,2-.8-2.5,1.9-1.9,2-2,3.5-5.1,6.7-15.5,13-18s1.4.1,2,0Z"/>
  <path class="st24" d="M256.5,74.2l-1,3c1.5.4,2-.6,3-1l8.5,10.1c8.4-1.7,16.9-4.3,25.5-5.1s2.7,0,4,0l4,1c1.1.5,2.8.7,4,1v1.9c-2.3,0-1.8.5-2,2s-.2,3.5,0,3.9c5.1.8,10,2.4,14.6,4.8s1.3,1.8,2,2.3c2.7,1.8,5.9,2.2,8.3,6-6.1-2.6-11.2-6.2-17-8.5s-10.8-2.3-14-4.5c3.4-.3,4.5-2.9,4-6-7.2-1.8-14.9-1.4-22,1-2.3.2-3.3.7-5,1-3.3.6-3.8.6-7,2s-12.4,7.3-14,9c-3.5.2-1.6-.5-.6-2.1s9.9-11.9,5.1-12.9c-3.4-.7-16.5,16.2-21,18-3.6,3.9-5.1,7.8-7.5,12-.4.7-1.9,1.6-2.9,3.6-1.7,3.5-2.7,7.7-4.1,11.4-.9-2.7-.9-2.9-1-6,0-3.9.7-6.5,1-10h2c.4-1.1-1-1.8-1-2-.2-.9.1-2,0-3,.3,0,5.4-2.3,5.9-2.6,4.7-3.1,10.4-11.5,15.5-16s5.5-1,4.6-5.4c-.8-.8-7.1,1.8-6-2,3-.3,5-2,8-3l3,1c0-.7,0-1.3,0-2,0-1-.1-2,0-3,.9-.3,2.4.2,3,0Z"/>
  <path class="st27" d="M218.5,108.2c1.6-.3,2.2.8,3,2,0,.7,0,1.3,0,2-.3,3.5-1.1,6.1-1,10-4.1-.5-1,5.6-2.2,7.8s-5.3,3.7-5.8.2c.2-.9,0-2,0-3h2c.8-1.7-.9-3.4-1-4s0-1.3,0-2h2c.1-1,0-2,0-3s-.2-2.9,0-4,2.5-5.3,3-6Z"/>
  <path class="st15" d="M222.5,107.2c.1,1-.2,2.1,0,3h-1c-.8-1.2-1.4-2.3-3-2,2.5-3.7,2.8-1.1,4-1Z"/>
  <path class="st4" d="M275.5,144.2l-1,2c1.9,1.1,4.2,0,5,0s1.3,0,2,0v2c.9.4,1.8-1,2-1,1.1,0,2.8.7,4,1,.4,7.4,4.6,12.9,1,20-.7,0-1.3,0-2,0,0-.1-1.4-1-2-2-2.3-3.6-3.3-3.2-4-4-2.6-3.2-3.1-7.9-8.5-9l-2.5,1.5,2,6.5-7,1c-.6-.1-5.7-1-6-1,.4-4.8-6.6-7-10.3-5.8s-2.7,3.9-4.7,5.3-7.4,1.7-10.2,2.8c-4.1,1.6-12.9,6.9-16.8,7.7-6,1.3-18-5.1-25-3,1.6-8,2.7-10.1,5-17,5.4,1.9,8.1,7.7,14.5,7.8,2.2,0,11.4-2.2,13.8-3.1,6.2-2.3,11.2-4.4,18.3-5.7s20.3,2.9,21.4,2c.6-1.9-.9-1.7-1-2-.3-.7-.7-1.3-1-2l-1-1v-1l1.6-1.8c4.1,2.2,5.7-.7,7.4-1.2s3.6.7,5,1Z"/>
  <path class="st8" d="M216.5,171.2c-.3,2.5.4,5.7,0,8s-1.5,5.4-2,7.3-3.9,1.8-1,6.7c-1.9,2-2.7,4.9-4,7s-1.1,2.5-2.5,2l-6.1-7.9c-1-.6-2.5,1.7-2.5,2l-11-2c.2-4.7.6-9.3,1-14h2c.8-2.5-1-2.8-1-3-.4-4.2,1.4-6.1,2-9,7-2.1,19,4.3,25,3Z"/>
  <path class="st10" d="M198.5,196.2c0,.4,1,1.5,1,2.6-.3,6.2-.4,11.1,1,17.4-1,1-11.8-2.2-12,2.5.2.7,7.9,7.5,9.1,8,1.7.8,2.1-.4,2.9-.5-.1.6.2,1.5,0,2-3.4,11.2-7,26.4-8,38l-4-1c-.2-3.2-1.4-6.5-1.1-9.5s2-3.7,1.9-4.8c-1.5-17.4-4.2-21.8-1.8-40.7.6-4.8-.2-10.9,0-16l11,2Z"/>
  <path class="st18" d="M209.5,139.2c-.4,2.1-1.7,6.5-.6,8.1,3.6,3.5,11-1,12.9-.9s5.1,4,8.1,3.8,6.2-3.4,9.4-3.8,6.9,1.6,9.2-1.2c3.6,3.2,10.4,4.9,15,5,.1.3,1.6.1,1,2-1.1.9-17.6-2.6-21.4-2-7.1,1.3-12.1,3.4-18.3,5.7-2.4.9-11.5,3.1-13.8,3.1-6.4-.1-9.1-5.9-14.5-7.8,1.8-5.4,3.8-14.4,6-19,.6-1.4,3.6-4.9,5-6-1.2,4.4-.7,9.1,2,13Z"/>
  <path class="st10" d="M189.5,177.2c0,.2,1.8.5,1,3h-2c0-1.1,0-2.2,1-3Z"/>
  <path class="st15" d="M220.5,122.2c0,3.1,0,3.3,1,6,3.3,9.7,8.5,2.5,16.1.6,5.1-1.2,14.8-3.1,19.9-3.6s2,0,3,0c-.9,3,5.3,2.5,8,3s2.8-.2,4,0c4.3.7,14.5,2.7,18.2,4.3s8.5,5.3,8.8,5.7,2.2,5.9,3,7l-3,1c-8.7-8.6-27.2-15.6-39-10.5s-4.3,3.1,0,4.5c-.2,0-1,1.2-3.2.9-4.1-.7-2.8-7.2-7.8,1.1-.5.9-.8,2.8-1,3-2.3,2.8-6.3.8-9.2,1.2s-6.9,3.7-9.4,3.8-5.7-3.7-8.1-3.8-9.3,4.4-12.9.9c-1.1-1.5.1-6,.6-8.1s2.5-6.4,3-9c.5,3.5,5.2.8,5.8-.2,1.3-2.2-1.8-8.3,2.2-7.8Z"/>
  <path class="st15" d="M213.5,123.2c0,.6,1.8,2.3,1,4h-2c.1-1.3-.6-3.3,1-4Z"/>
  <path class="st15" d="M215.5,118.2c0,1,.1,2,0,3h-2c0-1,0-2,0-3h2Z"/>
  <path class="st22" d="M271.5,635.2c-.5-.3-1.5-.2-2.5-.9-2.1-1.5-4.6-7.3-7.9-7.1l-6.6,10.1c.4-4,1.8-7.3,3-11,1.7-1.2,3.1-2.4,4.5-4l9.5,13Z"/>
  <path class="st25" d="M193.5,292.2c0,.7,0,1.3,0,2s-1.4.9-1,2h2c.1.3-.1.8,0,1l.5,1,.5-1c2.6,3.8,2.8,4.7,4,9h-1c-3.8-1.2-7.6-4.7-10-7-5.7-5.4-.3-6.5,5-7Z"/>
  <path class="st16" d="M188.5,299.2c2.4,2.3,6.2,5.8,10,7v2c0,1,0,2,0,3-1.1-.6-2.8-.7-4-1s-.3-.8-2-1c-.2-1.2.2-2.7,0-4-2.6-.2-3.7-.3-5,2h-1c.4-.8,1.3-6.4,2-8Z"/>
  <path class="st28" d="M228.5,113.2c2.4-4.2,3.9-8.2,7.5-12,4.5-1.8,17.6-18.7,21-18,4.8,1-3.9,11-5.1,12.9s-2.9,2.3.6,2.1c-.9,1-4,9.3-2.6,11.1,3.3,2.7,7.9-.5,11-.1s2.7,2.1,4.3,2.8,8.6.8,7.2,4.7-5.9-.1-5,3.5c3.3-1,6.9-.6,10.3-1.2s6.1-1.6,8.8-2.2c11.5-2.8,16.7-5.6,26.8-11.3,1.6-.9,2.8.5,2.2-3.3,3.3,2.5,10.4,4.4,16,9,.8,4.2-4.5,3.6-7,6.5s-.7,2.9-1.6,3.6c-1.7,1.2-5.9.3-6.9,1.8l-1.4,5.6-16.1,1.4c.4,3,2.8,4.7,1,8-.3-.4-7.9-5.3-8.8-5.7-3.7-1.6-13.9-3.6-18.2-4.3,0-3.1-1.7-2.8-4-3s-5.6-.1-8,0-2-.1-3,0c-2.5-1.6-7.7-1.3-10.5-1-4.3.5-12.4,5.1-14.5-.5.6-2.7,13.9-9.8,12-11.5-4.2-.2-6.8,3.5-10.4,5-5.3,2.2-6.2,1.6-5.5-4Z"/>
  <path class="st2" d="M278.5,86.2c5.1-.4,10.3.3,15.4,0,1.3.3.2,2.4.6,3.1h-1l-2,1c-1.2,0-3.8.7-5,1s-.9,1-1,1c-.9.3-1.9.7-3,1-2,.5-4.7-1.4-4,2,1.6.8,3.5-1,4-1,5.7-.4,15.4,0,21,1s.4.9,1,1c1.6.4,3.4.4,5,1s.5.8,1,1c4.9,2.3,3.6,2.9,5,4,.7,3.8-.5,2.4-2.2,3.3-10.1,5.7-15.3,8.4-26.8,11.3s-6.4,1.8-8.8,2.2-7,.3-10.3,1.2c-.9-3.6,4.1-.9,5-3.5,1.3-3.9-5.1-3.9-7.2-4.7s-2.4-2.5-4.3-2.8c-3.1-.4-7.8,2.8-11,.1-1.5-1.7,1.7-10.1,2.6-11.1,1.6-1.7,11.4-7.8,14-9,1.9,2.3,5.9.3,7-2,1.7-.3,2.7-.8,5-1Z"/>
  <path class="st27" d="M228.5,113.2c-.7,5.6.3,6.2,5.5,4s6.2-5.3,10.4-5c1.9,1.7-11.4,8.8-12,11.5,2.1,5.6,10.2,1,14.5.5s8.1-.6,10.5,1c-5.1.5-14.8,2.4-19.9,3.6-7.6,1.8-12.9,9.1-16.1-.6,1.4-3.7,2.4-7.9,4.1-11.4s2.5-2.9,2.9-3.6Z"/>
  <path class="st5" d="M296.5,91.2c3.2,2.2,9.9,2.9,14,4.5,5.8,2.3,10.9,5.9,17,8.5s1.9-.1,3.5.9,1.9,3.3,2.5,4.1c2.1,2.6,7.5,6.5,6,9-1.1-1.3-6-5.4-8-7-5.6-4.6-12.7-6.5-16-9s-.1-1.7-5-4l-1-1c-1.6-.6-3.4-.6-5-1l-1-1c-5.6-1.1-15.3-1.4-21-1v-1c1.1-.3,2.1-.7,3-1l1-1c1.2-.3,3.8-.9,5-1s1,1.5,1.9,1v-2h1.1c.2.4,1.5,1.7,2,2Z"/>
  <path class="st28" d="M278.5,86.2c7-2.3,14.8-2.7,22-1,.5,3-.6,5.7-4,6-.5-.3-1.8-1.6-2-2-.3-.6.7-2.7-.6-3.1-5.1.4-10.4-.3-15.4,0Z"/>
  <path class="st28" d="M273.5,87.2c-1.1,2.3-5.1,4.3-7,2,3.2-1.4,3.7-1.4,7-2Z"/>
  <path class="st10" d="M222.5,110.2c0,.2,1.4.9,1,2h-2c0-.7,0-1.3,0-2h1Z"/>
  <path class="st18" d="M302.5,145.2c.4.5,1.3,1.1,2,2-.2,3.5,5.2,8.1,5.8,10.8s-2.7,8.3,2.2,8.2c.1.5.7,2,1,3,.8,2.6,0,4.1,4.8,4.8s3.4-1.5,6.2-1.8l1.6,3.9c8.2-1.3,13.8,3.8,18,10.1,5.3.5,9-9.2,11-13s2.1-.8,2.4-1.8c.7-2.7-.8-6.8-1.1-9.8s-.8-4.1,2-3.5c1,3.6,2.7,7,2,11h2c.8,5.7,1.7,10.1,2,16-7.1-.4-3.9,9.4-4.3,12.3s-1.1,1.6-1.4,2.5c-.4,1.3,0,3.5-.5,4s-3.4,1.4-5.8,4.2c-.7.8-2.3.9-2.8,2.7s0,4.9-.2,7.3c-.3,2.8-1.5,6.8-.8,9.3s5.9,7.4,6.8,12.7c-7.6-3.6-7.5,5.8-11,10-2.8.9-6.7,5.6-10.4,6.1-9.4,1.2-18.6-.1-27.6-3.1-.5-2-1.1-2.1-1-5l2.6-3.1c9.3-.7,16.4,5.2,22.9-4s1.2-3.7,2.6-5.4,9.4-5.3,9.7-5.8,1.9-6.9,1.9-7.4c.2-3-3.3-6.7-.6-10.7-10.6-3.2-10.9-17.6-17.2-24s-8.8-4.7-11.9-7.1-1.9-3-3.1-3.9c-6.2-4.6-12.1-11.8-19.9-7.6-1.1-.9-2.6-.9-4-1,3.6-7.1-.6-12.6-1-20,6.2,1.3,10.8,5.1,17,6,.8-.7-4.1-7.1-5-8l3-1Z"/>
  <path class="st21" d="M299.5,146.2c.9.9,5.8,7.3,5,8-6.2-.9-10.8-4.6-17-6s-2.9-1-4-1c-.3-.9-1.1-1-2-1s-1.3,0-2,0v-2c-1.3-.2-2.8.2-4,0s-2.5-1.7-5-1c-.3-.4-.7-.6-1-1-1.2-1.4-.7-1.6-3-2s-4.2,0-6,0c-4.3-1.4-4.1-2.7,0-4.5,11.8-5.1,30.3,1.9,39,10.5Z"/>
  <path class="st26" d="M216.5,171.2c3.9-.8,12.7-6.1,16.8-7.7,2.8-1.1,7.4-.9,10.2-2.8s2.5-4.6,4.7-5.3c3.7-1.2,10.7,1,10.3,5.8-.7,0-1.3,0-2,0-8,.3-11.5,5.6-17.6,8.9s-9.3,4.4-13.2,5.9-3.5-1.5-5.2,3.3h-4c.4-2.3-.3-5.5,0-8Z"/>
  <path class="st10" d="M288.5,168.2c1.4,0,2.9.1,4,1,3.1,2.4,7.5,10.2,9,14l-4-2c.1,5.7,3.6,10.6,5,16-3.5.4-2-3.6-4.1-5.4-2.9-2.5-6.5-1.9-9.3-2.6s-.6-1.9-.7-2c2.4-.8,1.9-2.2,1.8-4.2-.3-3.3-2.4-11.9-3.8-14.8.7,0,1.3,0,2,0Z"/>
  <path class="st10" d="M284.5,166.2c-1.7,3.6,1.3,7.2,1,11.5-.2,3.9-2.1,5.1-3,7.5-1.1,0-2,.6-3,1,.4-2.3-1.1-4.5-1.1-6.6s1-2.1,1.1-2.4c.5-2,1.9-3.2.8-6.3s-5.2-4.3-5.8-4.7l.6-.8,4.4.8,1-4c.7.8,1.7.4,4,4Z"/>
  <path class="st26" d="M264.5,162.2l7-1-2-6.5,2.5-1.5c5.4,1.1,6,5.8,8.5,9l-1,4-4.4-.8-.6.8c-2.3-1.4-7.4-3.4-10-4Z"/>
  <path class="st13" d="M286.5,168.2c1.4,2.9,3.5,11.5,3.8,14.8s.6,3.4-1.8,4.2c0,0-1.6,0-2,0l-.6-.8-3.4.8c.1-.6-.2-1.5,0-2,.9-2.4,2.8-3.6,3-7.5.2-4.2-2.8-7.9-1-11.5.6,1,1.9,1.9,2,2Z"/>
  <path class="st18" d="M249.5,142.2c4.9-8.4,3.7-1.8,7.8-1.1,2.2.4,3-.9,3.2-.9,1.8,0,4.4-.3,6,0v2s3,0,3,0c.3.4.7.6,1,1-1.7.5-3.4,3.4-7.4,1.2l-1.6,1.8-12-4Z"/>
  <path class="st19" d="M258.5,161.2c.3,0,5.4.9,6,1,2.6.6,7.7,2.6,10,4s5.7,4.3,5.8,4.7c1,3.1-.4,4.4-.8,6.3-2.4-8.3-12-12-20-12v-1.9c-.1,0-2.9-.2-2.9-.2v-1.9c.5,0,1.2,0,1.9,0Z"/>
  <path class="st27" d="M261.5,146.2v1c.1.6.9.8,1,1,.3.7.7,1.3,1,2-4.6,0-11.4-1.8-15-5,.2-.2.5-2.1,1-3l12,4Z"/>
  <path class="st18" d="M275.5,144.2c1.2.2,2.7-.2,4,0v2c-.8,0-3.1,1.1-5,0l1-2Z"/>
  <path class="st18" d="M283.5,147.2c-.2,0-1.1,1.4-2,1v-2c.8,0,1.7,0,2,1Z"/>
  <path class="st18" d="M262.5,148.2c0-.2-.9-.4-1-1l1,1Z"/>
  <path class="st3" d="M240.5,177.2c-3.9,2.4-7.6,4.3-10.4,8.1s-2,4.5-3.5,6.5-4.1,2.7-5.5,4.5c-2.4,3.1-2.8,8.2-2.5,12-1.9-4.7-3.8-7.1-3-13,0-.1,1.4-.8,1-2h-3c-2.9-4.9.8-6,1-6.7.5-1.9,1.8-6.3,2-7.3h4c-1.4,3.8-1.5,5.2,3.4,5,1-3.1,3.3-1.4,5.6-2.6,3.5-1.7,7.6-5.3,11.1-7.5,0,1,0,2,0,3Z"/>
  <path class="st21" d="M331.5,111.2c2,1.6,6.9,5.7,8,7,2.4,2.7,3.2,5.4,5,8,0,3.9-5,4.4-6.7,6.3s-1.1,5-6.9,5.7l-.4,11.1c-5.6,1.1-6.5-6.4-12-7l1.9,10.9c-5.8,3.9-5.6,0-10.9-.9-1-1.3-3.8-3.5-5-5s-1.6-1.5-2-2c-.8-1.1-2.6-6.5-3-7,1.8-3.3-.6-5-1-8l16.1-1.4,1.4-5.6c1-1.5,5.3-.7,6.9-1.8s.7-2.6,1.6-3.6c2.5-2.9,7.9-2.3,7-6.5Z"/>
  <path class="st27" d="M268.5,125.2v3c-2.7-.5-8.9,0-8-3,2.4-.1,5.6-.2,8,0Z"/>
  <path class="st21" d="M272.5,128.2c-1.2-.2-2.8.2-4,0v-3c2.3.2,4-.1,4,3Z"/>
  <path class="st10" d="M192.5,275.2c0,1.3,0,2.7,0,4l-2-.6v-3.4s2,0,2,0Z"/>
  <path class="st10" d="M194.5,296.2h-2c-.4-1.1,1-1.9,1-2,1.1.3.7,1.4,1,2Z"/>
  <path class="st10" d="M194.5,297.2c.1.2.9-.2,1,0l-.5,1-.5-1Z"/>
  <path class="st28" d="M282.5,93.2v1c-.5,0-2.4,1.8-4,1-.7-3.4,2-1.5,4-2Z"/>
  <path class="st28" d="M293.5,89.2v2c-1,.5-1.9-1-2-1l2-1Z"/>
  <path class="st28" d="M285.5,92.2c0,0,.4-.8,1-1l-1,1Z"/>
  <path class="st28" d="M304.5,96.2c-.6-.1-.9-1-1-1l1,1Z"/>
  <path class="st28" d="M310.5,98.2c-.5-.2-.8-.9-1-1l1,1Z"/>
  <path class="st24" d="M337.5,109.2c3.9,7.5,9.8,12.9,14.4,20.1,1.6,2.5.6,3.3,3.6,5.9,0,1,0,2,0,3-.2,4.1,5.9,23.2,7,31h-2c.6-4-1-7.4-2-11s-1.9-6.6-3-10c-3.1-9.2-5.3-13.6-11-22-1.8-2.6-2.6-5.3-5-8,1.5-2.5-3.9-6.4-6-9,1.3-.2,2.8.2,4,0Z"/>
  <path class="st13" d="M365.5,162.2c3.2,14,3.3,27.7,3,42h-2c-.9,1.9.9,4.2,1,5s0,2,0,3h-2s0,2,0,2c-.1-.3-.8-.6-1-1,.8-1.2.2-24.4,0-28-.3-5.9-1.2-10.3-2-16s-7.2-26.9-7-31c5.1,7,8.1,15.6,10,24Z"/>
  <path class="st8" d="M292.5,169.2c7.8-4.2,13.7,3,19.9,7.6s1.7,2.8,3.1,3.9c3.1,2.4,9.3,4.4,11.9,7.1,6.2,6.4,6.6,20.8,17.2,24-2.6,4.1.8,7.7.6,10.7s-1.7,7.1-1.9,7.4c-.3.5-7.9,3.6-9.7,5.8s-1.4,3.7-2.6,5.4c-6.5,9.2-13.6,3.2-22.9,4l-2.6,3.1c0-1,.8-6.7,1-7,2.9-4.5,2-4.3,2-10s0-3.3,0-5c3,.6,1.9-1.5,2-3.5s0-4.1,0-6.1,1-4-2-3.5c0-1,0-2,0-3s.1-2,0-4,.1-2,0-3c-.4-3.1-.6-11.3-4-11-.2-1.2.2-2.8,0-4-.6-3.9-2.5-2.5-3-3s.2-1.5,0-2c-1.5-3.8-5.9-11.6-9-14Z"/>
  <path class="st15" d="M309.5,152.2c2.2,2.9,5.5,6.9,7,10-1.7-.4-3.2-1.1-5-1-.2,1.8.6,3.3,1,5-4.9,0-1.6-5.9-2.2-8.2s-6-7.2-5.8-10.8c1.2,1.5,4,3.7,5,5Z"/>
  <path class="st15" d="M355.5,148.2c1.1,3.4,2.1,6.6,3,10-2.9-.6-2.2,1.7-2,3.5.2,3,1.8,7.1,1.1,9.8s-2,1-2.4,1.8c-2.1,3.8-5.7,13.5-11,13-4.2-6.3-9.8-11.4-18-10.1l-1.6-3.9c-2.9.3-2.9,2.3-6.2,1.8s-4-2.2-4.8-4.8l5,1c.6-3.3-.7-5.3-2-8,1.1.3,2.6-.4,4,.5s1.8,4.9,3.6,5.5c3,.7,3.2-1.5,3.6-3.8,5.5-1.9,5.9,2.7,8.2,4.5,13.6,11,14.2-5.4,16.4-14.5.4-1.7.7-6.9,3.3-6.2Z"/>
  <path class="st22" d="M364.5,185.2c.2,3.6.8,26.8,0,28s-2.3,0-2.8,1.6.7,6,.7,7.8c-.2,5-1.6,10.4-.9,15.6-.6.2-3.2,4.7-6,4,0-.6,0-1.5,0-2-.9-5.3-6-10-6.8-12.7s.5-6.4.8-9.3c4.9-.2,2.5-6.6,3-10,2.5-2.8,5.6-3.9,5.8-4.2.4-.5,0-2.8.5-4s1.3-1.7,1.4-2.5c.4-3-2.8-12.7,4.3-12.3Z"/>
  <path class="st24" d="M303.5,237.2v4s2,0,2,0h1c-.2.3-1,6-1,7-.1,2.9.5,3,1,5s2.3,4.5-.4,3.9l-7.6-4.9c1.5-3.7,3.6-10.8,5-15Z"/>
  <path class="st15" d="M355.5,240.2c0,.5,0,1.4,0,2-.4,3.9-1.7,4.1-5,6s-2.6-1-2,2c-.6,0-1.4-.1-2,0s-1.5-.2-2,0c3.5-4.2,3.4-13.6,11-10Z"/>
  <path class="st27" d="M344.5,126.2c5.7,8.4,7.9,12.8,11,22-2.5-.7-2.9,4.6-3.3,6.2-2.3,9.1-2.8,25.5-16.4,14.5-2.3-1.8-2.6-6.4-8.2-4.5-.4,2.3-.6,4.5-3.6,3.8-1.8-.5-2.1-4.5-3.6-5.5s-2.9-.2-4-.5c-1.5-3.1-4.8-7.1-7-10,5.3.8,5.1,4.7,10.9.9l-1.9-10.9c5.4.6,6.4,8.1,12,7l.4-11.1c5.8-.6,4.7-3.3,6.9-5.7s6.7-2.4,6.7-6.3Z"/>
  <path class="st27" d="M316.5,162.2c1.3,2.7,2.6,4.7,2,8l-5-1c-.3-1-.9-2.5-1-3-.4-1.7-1.2-3.2-1-5,1.8-.2,3.3.6,5,1Z"/>
  <path class="st8" d="M349.5,218.2c.2-2.4-.5-5,.2-7.3s2.1-1.9,2.8-2.7c-.5,3.4,1.9,9.8-3,10Z"/>
  <path class="st15" d="M269.5,142.2h-3s0-2,0-2c2.3.4,1.8.6,3,2Z"/>
  <path class="st10" d="M256.5,161.2v1.9c.1,0,2.9.2,2.9.2v1.9c-9.7,0-8,2.6-13.9,6.5-1.5,1-3.3,1.5-5,2.5-3.4,2.2-7.6,5.8-11.1,7.5s-4.6-.6-5.6,2.6c-4.9.2-4.7-1.2-3.4-5,1.7-4.7,2-2,5.2-3.3s9.7-4,13.2-5.9c6.1-3.2,9.6-8.5,17.6-8.9Z"/>
  <path class="st14" d="M301.5,183.2c.2.5-.2,1.8,0,2,0,2,1,3.1,3,3,.2,1.2-.2,2.8,0,4,.7,3.6,1.9,7.2,2.1,10.9h1.9c.1,1,0,2.1,0,3.1-1.7.7-.7,2.9-1,4s-1.9,4.1-2,5l-3-13c-.2-1.5.3-3.7,0-5-1.3-5.4-4.9-10.3-5-16l4,2Z"/>
  <path class="st17" d="M259.5,165.2c8,0,17.6,3.7,20,12,0,.3-1.1.7-1.1,2.4s1.4,4.3,1.1,6.6c-8,3.6-8.2,2.9-14,9-1.5,1.5-1.5,2.4-2,3s-1.8,0-2.4,1-2.9,4.6-3.6,6-.8.3-1,1v1c-4.6.8-4.4-3.4-6-5.3s-2-.6-2-.7c-1.4-1.8-5.3-7.9-5.6-10s.9-4.4.6-6.4-2.6-3.6-3-7.6,0-2,0-3c1.7-1.1,3.4-1.5,5-2.5,5.9-3.9,4.2-6.5,14-6.5Z"/>
  <path class="st14" d="M282.5,185.2c-.2.5.1,1.4,0,2v1c-5.6,1.7-11.5,4.3-15,9h-1l-1-2c5.8-6.1,6-5.4,14-9,1-.4,1.9-.9,3-1Z"/>
  <path class="st10" d="M286.5,187.2c-.7.1-3.3.8-4,1v-1l3.4-.8.6.8Z"/>
  <path class="st25" d="M248.5,201.2c-4.9,1.8-10.7.2-15.3,1.2s-5.6,4.8-9.7,3.8c.7,4.1-.5,4.9-2,8-1.2-2.3-1.9-3.3-3-6-.2-3.8.2-8.8,2.5-12s3.9-2.6,5.5-4.5,2.1-4.5,3.5-6.5c2.8-3.8,6.5-5.6,10.4-8.1.4,4,2.8,5.4,3,7.6s-1,3.8-.6,6.4,4.2,8.2,5.6,10Z"/>
  <path class="st24" d="M367.5,212.2c0,.7,0,1.3,0,2h-2c.9,2,1.1,4.8,1,7-.1,5.2-2.4,11.6-2,17-.9.2-2.4-.3-3,0-.7-5.3.6-10.6.9-15.6s-1-6.6-.7-7.8,2.7-1.4,2.8-1.6c.2.4.9.7,1,1v-2s2,0,2,0Z"/>
  <path class="st26" d="M192.5,314.2h-1c0-.3,0-.7,0-1l1,1Z"/>
  <path class="st13" d="M308.5,213.2c0,4.3,0,8.7,0,13s0,3.3,0,5h-2s-1,10-1,10h-2s0-4,0-4c1.2-3.7.9-5.4,1-9h2c1-1.9-1-4.7-1-5-.2-2.2-.3-5.9,0-8s1.7-3.5,2-5h1c0,1,0,2,0,3Z"/>
  <path class="st10" d="M308.5,213.2c3-.6,1.9,1.5,2,3.5s0,4.1,0,6.1,1,4-2,3.5c0-4.3,0-8.7,0-13Z"/>
  <path class="st10" d="M308.5,231.2c0,5.7.9,5.5-2,10h-1l1-10h2Z"/>
  <path class="st10" d="M304.5,192.2c3.4-.3,3.6,7.9,4,11h-1.9c-.2-3.8-1.4-7.4-2.1-11Z"/>
  <path class="st10" d="M308.5,210.2h-1c.3-1.1-.7-3.3,1-4,.1,2,0,2.7,0,4Z"/>
  <path class="st10" d="M304.5,188.2c-2,0-3.1-1-3-3,.5.5,2.4-.9,3,3Z"/>
  <path class="st8" d="M248.5,201.2c0,0,1.2-.3,2,.7,1.6,1.9,1.3,6.1,6,5.3.2,3.1-.8,5.9-1,9-.1,1.7,0,3.3,0,5l-2,.6v3.4s2,0,2,0c0,2.7.1,5.4,0,8s-1.9,3.5,0,6c-1,0-2.1.1-3,0,0-.6.1-1.3,0-1.9-1.1-.6-3-.6-3.9-1.1-3.5-1.9-13.7-8.3-17-8-6.3-4.1-7-8.1-10-14,1.5-3.1,2.8-3.8,2-8,4.1,1,6.6-3.1,9.7-3.8,4.6-1,10.4.6,15.3-1.2Z"/>
  <path class="st16" d="M266.5,197.2c.3.8-.9.8-1,1h-2c0,2-.3,4.1-1,6s-1.3,1.1-1.7,2.7c-1.4,4.8-1.5,10.5-3.3,15.3,0-.9-1.4-4.9-2-6,.2-3.1,1.2-5.9,1-9v-1l1-1c.6-1.4,2.7-4.8,3.6-6s2.3-.9,2.4-1c.5-.6.5-1.5,2-3l1,2Z"/>
  <path class="st8" d="M256.5,206.2c.2-.7,1-.9,1-1l-1,1Z"/>
  <path class="st12" d="M257.5,236.2c.6,1.3.9,2.8,1,3-1,0-2,0-3,0-1.9-2.5,0-4.9,0-6,.6,1,1.5,1.9,2,3Z"/>
  <path class="st14" d="M305.5,223.2c0,.3,2,3.1,1,5h-2c0-1.8-.4-3.5,1-5Z"/>
  <path class="st13" d="M257.5,222.2c.5,4.4-.3,9.5,0,14-.5-1.1-1.4-2-2-3,.1-2.6,0-5.3,0-8s0-2.7,0-4c0-1.7-.1-3.3,0-5,.6,1.1,1.9,5.1,2,6Z"/>
  <path class="st8" d="M265.5,198.2c-.7,1.8.6,6.7-3,6,.7-1.9,1-4,1-6h2Z"/>
  <path class="st12" d="M255.5,221.2c0,1.3,0,2.7,0,4h-2s0-3.4,0-3.4l2-.6Z"/>
  <path class="st11" d="M386.5,551.2c-2.7,20-7,40.2-12.5,60-.4,1.5-.2,4.6-.5,5-5.1,10-5.9,19.1-9,30s-2.8,8.6-4,13-.7.8-1,2-.6,2.7-1,4-.7,1-1,2,.2,2.2,0,3c-.6,2-2.4,4.5-3,8s-.7.4-.7.8c0,.8.7,1,.7,1.2.1.8-.4,2.1.2,2.8s1.4,0,1.8.2c3.9,1.5,7.5,0,11.4.3s3.4,2,7.1,1.7,11.7-2.7,12.5-4c.5.1.9.5,1,1s0,1.4,0,2-.8,1.4-1,2c-4.6.6-10.6,3-15.6,3s-11.6-2.1-17.4-1c0,5-3.1,9.2-6,13-18.5,5.5-33.1,1.1-51-1-9.1-8.7-.7-17.6,1-27v-1c.7.1,2.5.2,2.9,0,.9-2.2,1.3-4.6,2.1-6.9,1.9-5.6,3.5-11.3,5-17h2c.6-1.4-1-2.8-1-3,0-2,1-4,1-6h2c.4-1.1-1-1.8-1-2-.2-.9.2-2.1,0-3,2.4.6,2.2-1.3,2.5-2.9,1.6-8.7,2.4-16.6,2.5-25.1,0-1.3,0-2.7,0-4h2c.4-1-1-1.9-1-2-.3-4,1.5-15.2,2-20s-.8-7.4,5-8c.1,1.6-.2,3.4,0,5-1.3.5-.9,1.9-1,3-.4,7-.7,14.3-1,21-.4,8.8-5.1,26.3-7,36-1.2,6-3.5,11.8-4,18-1.9.7-2,2.4-2.5,4-2.3,7.1-3.1,13.1-6.5,20s-2.4,2.7-3.2,4.3c-2.6,5.5-3.4,12.1,4.2,12.7,1-.9.1-12.3,5-12,0,1,.1,2,0,3-.5,3.9-2.7,8,2.7,10.8,10.6,5.4,9.9-3,11.3-9.8.1-.6-.2-1.5,0-2h3c0,.3,0,.7,0,1,0,.7,0,1.3,0,2s-1,1.1-1.1,2.5c-.4,13.9,15.6,9.3,16.1-2.5,0-1-.6-2.1-1-3v-1c.1.2,2.3,0,2.9,1.6s.3,5.6.1,7.4-1.8,2.3-1,4c1.7.6,2.2-.6,3-1,4.5-2,2.9-2.1,4-6,0-.1.8-.3,1-2s0-2,0-3c0-1.8-1-1.9-1-2,0-.7,0-1.3,0-2,0-2.4.8-4.1,1-6s0-.7,0-1,0-.7,0-1c3.3-9.6,6.1-19.3,9-29l2-1c.3-.4-.2-3,0-4h1.9c.6-3.7,1.3-7.4,2.1-11s-.2-2.1,0-3h2s-1-2-1-2c.3-1.6.6-3.4,1-5h2s0-2,0-2c.2-1.6-.3-3.5,0-5h2s-1-2-1-2c.1-.6-.1-1.4,0-2h2s-1-2-1-2c.1-.6-.1-1.4,0-2h2s-1-2-1-2c.4-1.6.6-3.4,1-5,2.7.6,1.9-1.3,2.5-3,2.7-8,4.2-14.1,4.5-22,0-1,0-2,0-3,3.7.6,2-3.5,2-5,0-2.3.2-4.7,0-7,1.4-.6.8-2,1-3s.9-2.5,1-3l1.5-2,1.5,2Z"/>
  <path class="st16" d="M394.5,487.2v1.9c.1,0,5,1.1,5,1.1-.2.3.1,1.4,0,2-1.3,0-2.9.2-4,0s-3.1-2.6-5-2l2,10c-2.9-.6-2.1,1.6-2,3.5.4,12.6,15.5,28.8,18,44.5s.4,20.3,1,30c-.6,1.6-.7,3.3-1,5s.2,2.2,0,3c-.9,3.2-5.2,11.8-7,15-.9,1.6-3.4,6.1-4,7s-.5-.2-2,2-2.2,2-2,4c-2-.4-7.6,3.9-8.7,5.3s-.9,3.8-1.3,5.7c-.7,4-1,6.9-1,11,0,5.8.3,16.1,2.1,21.4s7,7.7,7.9,13.1,1,12.8-3.9,11.4c-.1-.5-.5-.9-1-1,3.8-9.8-1.7-14.1-7-21,.2-1.1,0-2.8,0-4,0-1.8-1-1.9-1-2,0-1.7,0-3.3,0-5-.1-11.3-.8-23,2-34,1.2-.5,2.9,0,4.7-1.3,19.6-14.8,22.4-51.2,16-72.9s-8.5-15.4-11.7-23.8c-1.4-1.4-1.8,0-2,1.5-.9,7.4.9,16.6,0,24s-1.6,5-2,8.5l-1.5-2-1.5,2c0-.7,0-1.3,0-2,0-1,0-2,0-3,0-2,.1-4,0-6,1.6-1.8,1-3.9,1-6s0-3.4,0-5c-.2-4.4,1.3-7.8-5-7,.2-.9-.3-2.4,0-3s2.1-1.4,2.8-2.7c5-9.9,7.1-22.7,3.2-33.3h1c1.8,3.5,4.4,3.9,8,4ZM389,515.2v1c.6-.3.6-.7,0-1Z"/>
  <path class="st16" d="M203.5,413.2h2c.1.6-.1,1.5,0,2-.7,0-1.3,0-2,0,0-.7,0-1.3,0-2Z"/>
  <path class="st16" d="M205.5,415.2c4.3,0,6.1,0,10-2-2.6,9.3,2,3.6,6.3,1.8s2.7-.4,3.7-.8c-.5,1.2-.5,2.9-1,4l-1,2c-.2.4-2.1.4-2.1,3.5,0,10,21.2,1.1,23.1,2.5l-2,4h6c-1.7,2.2-5.4,2.8-.9,5.4,7.2,4.2,24.7,3.4,31.5,10.6l2.1-2c3.2-.6,5.5,1.2,7.9,3,.6.2.4-1.6.7-1.8,1.2-.7,19.1,3.9,23.3,3.8,7.2-.1,17.4-3.4,25.5-4.1-.7,2,1.9,3,3.6,3,2.7,0,1.9-1.8,2.4-3s-.1-.7,0-1c3.2-1.5,4.3,2,4.6,2,.8,0,2.9-.9,4.4-1,.6,2.7-1.3,2-3,2.5-3.3,1.1-6.7,1.7-9.7,3.3-6.7,3.5-12.3,11.3-21.3,12.2v-2c4.5-2.5,11-5.4,14.9-8.6s2.4-1.6,2.1-3.4c-4.4.2-6.7,4.7-11,6.5-2.6,1.1-5.1,1.8-8,1.5v-1c2.5-.5,10.8-4.1,11.5-7-5,1.3-11.6,4.4-16.5,5s-3,.2-4,0c-2.8-.5-7.5-4.4-11-1-1.7-.4-4.1-.3-6-1l3,4.5-2,2.5c-10-4.2-22.8-15.7-33.5-16.1-2.6,0-5.1,1.3-8,1.1-4.6-.2-12.9-.7-16.5-3.1.3-.6-.2-3,0-4l8,1c-.9-7.6-5-4-9.2-4.3-7-.5-19-2.1-16.8-11.7-5.9.7-8.9-.4-11-6-.1-.3,0-.7,0-1Z"/>
  <path class="st1" d="M234.5,441.2c3.6,2.4,11.9,2.9,16.5,3.1s5.4-1.2,8-1.1c10.7.3,23.5,11.8,33.5,16.1,3.3,1.4,10.4,2.9,12.3,4s.5,1.8.7,2c-.2,5.9-8.6,6.3-12,11-6.7.7-10.2-9.4-15.1-12.4s-8.4-1.9-11.7-3.3c-5.1-2.3-3.7-2.4-10.6-4.4s-2.1-2.3-3.4-2.7c-3-.8-17.2,2.8-20,5.1s-.1,1.6-.2,1.7c-.2.2-.9,1-1,1-1,.3-2.8-.2-4,0,2-1.8,6.5-6.7,7-9,.2-.9-.1-2.1,0-3,3.2,1.4,5.9,1.1,8.7-.8s1.8,0,1.3-2.2l-12-3c.1-.1-.1-1.1.4-1.6s1.6-.3,1.6-.4Z"/>
  <path class="st16" d="M192.5,547.2c0,1,0,2,0,3h-2c.2,2.7-.8,5.8,1,8,0,.7,0,1.3,0,2h-2c-.8,3.6.6,7.1,1,10s.8,3,1,4c1,5.9,1,8.9,3,15,4.2,13.1,10.5,19,19.6,28.9,1,9.3.5,18.8-.6,28.1-.4,3.1-1.4,6.7-2,10-.1.6,0,1.4,0,2-.6-.1-1.5.2-2,0s-1.2-1-2-1c.3-1.2,1-6.6,1-8s0-2,0-3c1.7-1.1,1-4.1,1-6s.2-3.4,0-5l.6-16.1-.9-1.7c-.7-.7-2.3-.8-2.7-1.2-20.4-20.3-26-49.9-15-76,2.2,1,0,3.9.1,5.5s.9,1.3.9,1.5Z"/>
  <path class="st24" d="M224.5,489.2c.5.4-1.7,2.1,3,2v2c-9.7,4.7-15.9,22.2-28,29-.9.5-2.9.1-3,2,1.3,0,2.7.1,4,0s3.8-.7,5-1c5.7.7-1.3,3.1-2.2,4s-3.3,3.2-3.8,4v-3c-1.5-.8-3.7,1-4,1-2.2,0-4.7-1.7-6.9-2.1-1.2-7.5,7.7-7,11.9-10.4l-3-3.5c4.5.6,7.4-.2,10.6-3.4,3.9-3.9,9.3-12.7,11.4-17.6.4-1,1.3-2.3,2-4,1,.2,2.3.4,3,1Z"/>
  <path class="st11" d="M209.5,658.2c0,.7,0,1.3,0,2-.3,3.5-2,4.1-2.7,6.8s-1.7,8-1.3,11.2c1.2,9.4,12.1,11.8,9-2,.2-.5-.4-2.2.1-2.9s1.7,0,1.9-.1c-.2.4,0,2.2,0,3s0,1.4,0,2c.8,5.7,1.9,6.5,7,8s2.8,1.7,5,1v-2c3,0,6,0,9,0,0,.9,2.5,2.6,2,3l-15,2c-1.3,0-2.7,0-4,0v-2c-3.6-.2-7.4.3-11,0s-1.4.1-2,0c-.1-2.4-1.7-3.9-4-4-.5-.9-2-2.8-2-3-2-9.9,3.9-16,6-24,.8,0,1.5.9,2,1Z"/>
  <path class="st13" d="M231.5,462.2c.4,0,2.8.8,4,1l-3,5h3c-.4.4-.6,1.5-1,2-.6.1-8.2,6.4-9,7.5-1.4,1.9-1.3,2.8-2,4.5-1.1,2.5-1.3,4.2-2,6s-1.6,3-2,4c-3.3-9.6,4.5-16.8,11-22.5.7-1.5-3.1-2.3-4-2.5v-4c1.6.2,3.6-1,5-1Z"/>
  <path class="st13" d="M195.5,529.2c.3,0,2.5-1.8,4-1v3c-2.1,3.2-2.2,5.8-3,9-1.6.2-2.3,0-2,2,0,.1,0,1.6,0,2l-2,3c0-.1-.8-.6-.9-1.5,0-1.7,2.1-4.5-.1-5.5,1.5-3.7,4.4-6.8,4-11Z"/>
  <path class="st16" d="M232.5,443.2l12,3c.5,2.3-.3,1.6-1.3,2.2-2.9,1.9-5.6,2.2-8.7.8s-5.2-4.1-3.8-5.9c.5-.4,1.7,0,1.8-.1Z"/>
  <path class="st13" d="M234.5,452.2c-.5,2.3-5,7.2-7,9s-.7.7-1,1c-.6.6-3.3.9-4,3-.2-5.6,7.1-11.1,12-13Z"/>
  <path class="st16" d="M209.5,688.2c3.6.3,7.4-.2,11,0v2c-1.3,0-3.3-.5-4,1-2.3-.5-4.5-1.3-7-1v-2Z"/>
  <path class="st22" d="M205.5,415.2c0,.3-.1.7,0,1-.6.1-1.5-.2-2,0v-1c.7,0,1.3,0,2,0Z"/>
  <path class="st22" d="M211.5,400.2c6.3-.7,11.9,2.1,18,0,2,2.5,3.4,4.7,7,5,0,1,0,2,0,3,.1,2.1.3,4,1,6-1.5-.3-7.9-1.7-8.7-1.8-1.5-.1-2.4,1.5-3.3,1.8s-2.3.2-3.7.8c-4.3,1.8-8.9,7.5-6.3-1.8-3.9,2-5.7,2-10,2-.1-.5.1-1.4,0-2h-2c.6-5.8,1.6-12.2,8-13Z"/>
  <path class="st23" d="M384.5,529.2c0,1.6,0,3.4,0,5h-2c-1,2,1,5.5,1,6,.1,2,0,4,0,6h-2s0,2.5,0,2.5l2,.5c0,.7,0,1.3,0,2s-.8,2-1,3l-2.1.6c-.2,1.3,1.1,2.2,1.1,2.4.2,2.3,0,4.7,0,7-1.3,1.2-1.9,3.3-2,5s0,2,0,3c-2.5,8.3-4.8,16.7-7,25s-.6,3.4-1,5-.6.6-1,2,.1,1.4,0,2-.7.5-1,2,.1,1.4,0,2-.7.3-1,2,.2,3.4,0,5h-2c-.2.7.1,1.4,0,2-.4,1.6-.7,3.4-1,5s-.7.4-1,2,.2,2.1,0,3h-2c.1,3.8-1.3,7.3-2,11s.3,3.6,0,4-1.6-.4-2,1c-2.9,9.7-5.7,19.4-9,29-2.1-5.6-.8-3.4-1.3-8.4-.2-2.6-3.9-6.2-4.5-8.4-1.4-5.3,1.8-7-6.6-8.3-1.2,4-3.4,1.1-6,1.3s-4.1,3-6.6,1.2c-6.6-5,2.9-12.5-9-14.5,1.9-9.7,6.6-27.2,7-36,11.4,0,12.8-17.5,14.1-25.9l3-.6c-1.1-5.4,3.4-11,6.5-15.4s8-9.2,11-13,6.2-10.7,9.7-12.3,4-.6,5.8-1.2c3.7-1.3,7.1-3.8,12-3.5Z"/>
  <path class="st17" d="M386.5,551.2c.5-3.4,1.7-5.7,2-8.5.8-7.5-1-16.6,0-24s.5-2.9,2-1.5c3.3,8.4,9.1,14.9,11.7,23.8,6.4,21.7,3.6,58.1-16,72.9-1.8,1.4-3.5.8-4.7,1.3-2.9,1.2-6.7,4.8-8,1,.2-.4,0-3.5.5-5,5.6-19.8,9.9-39.9,12.5-60Z"/>
  <path class="st16" d="M291.5,548.2c.3.3.8.7,1,1,2.5,3.5,6.9,11.9,8,16s0,6,1,8.2,2.4,1.6,3.5,3.7,3.3,9.6,4.4,13.1c2,6.3,3.1,12.7,5,19l2-3c-.1,8.5-.9,16.4-2.5,25.1s-.1,3.5-2.5,2.9c-.9-5.9-2.4.7-3.3,1.7-2.8,3.2-15.3,5.7-19.7,5.3h0c-2.6-1.3-1.6.7-3.2-.8s-3.5-.7-4.8-1.2c-3-1.1-6.1-2.2-9-4l-9.5-13c-1.4,1.5-2.8,2.8-4.5,4s-3.8,1.4-5,3c1.4-5.4,6.5-7.6,6.8-10.6s-3.8-11.4-6.2-14.4c-3.8-4.7-8.2-9.3-12.1-13.9s-6.8-5-8.4-8.1-1.3-7.8-2-11c-.6-2.8-1.5-2.3-2-3s.2-1.7,0-2c1.5-2.8,4,2.4,6,3,0,2.3-.2,4.8,0,7s0,1.3,0,2h2c3,5.7,11.5,15.7,16,21s1.5,3,4,3c2.8,3,5.1,5,7,9,1.5,3,1.8,6.1,4,10,3.1,5.3,8.6,13.3,15,14l.5-6c3.9,4.5,3.6,9.1,10.9,7.9s3.7-2.5,5.6-3.4c3.7-1.7,5,.1,8.4-4.6s3-10.5,2.6-15.9c-.5-5.4-2.7-10.2-4-15-.7-2.6-1.1-5.4-2-8-2-6-2.9-7.8-6-13s.7-2.4-3-5v-2s-2,0-2,0c-.3-.7-.6-1.3-1-2-2.6-4.9-3.4-5.3-8-8s-2.5-1.2-4-2v-3c-.6-.1-1.5.2-2,0,0-.7,0-1.3,0-2,1.3-.1,2.8.2,4,0l9.5,9,3.5,2-7-14c-.6-1.1,1-2.8,1-3,.4.8,1.7.8,2,1Z"/>
  <path class="st17" d="M315.5,637.2c12,2,2.4,9.5,9,14.5,2.5,1.8,4.7-1,6.6-1.2s4.7,2.6,6-1.3c8.4,1.3,5.3,3.1,6.6,8.3s4.2,5.7,4.5,8.4c.4,5-.8,2.7,1.3,8.4s0,.6,0,1l-1,1c-7.2,3.3-13.5-5-19.8-5.9-2.2-.3-3,.8-3.2.9-2.2,0-5.1-.3-7,0-.8-1.7-3.5-.5-4.8-1.2-3.1-1.8-1.5-10.3-1.4-13.3s-.9-1.4-.8-1.5c.5-6.2,2.8-12,4-18Z"/>
  <path class="st17" d="M384.5,529.2c-4.9-.3-8.2,2.2-12,3.5s-3.9.4-5.8,1.2c-3.5,1.5-7.2,8.9-9.7,12.3s-8.1,9-11,13-7.6,10-6.5,15.4l-3,.6c-1.3,8.5-2.7,26-14.1,25.9.3-6.7.6-14,1-21h2c.6-1.5-.9-2.6-1-3-.2-1.6.1-3.4,0-5,.3,0,.7,0,1,0s.8,1.6,2,.6,1.3-2.9,2.2-4c2.4-2.9,4.6-2.8,4-8.5l2.9-.6v-4.5c0,0,8.8.9,8.8.9,1-3.6,5.9-8.6,6.9-11.6s0-2.6.2-3.3c.9-.2,3.8.3,4,0s-.3-3.1,0-4.3,1.6-.8,1.9-1.5c.8-1.9.5-4,2.1-5.7,3-3.2,9.5-1.9,12.3-3.5s.6-1.9.7-2c.6-.3,5.5-1.9,6-2,6.3-.8,4.8,2.6,5,7Z"/>
  <path class="st21" d="M325.5,672.2c.3,0,.7,0,1,0v2c1.3.1,2.7-.1,4,0s1.4,0,2,0v2c.6.2,1.7-.2,2,0,1,.8,1.2,1,2,2s2.8,6.7,3,7v1c-5-.2-9.1,3.3-14,1,0-.3,0-.7,0-1-.6-3.4-2.3-2.5-3,0s.1,1.4,0,2h-1c-2.5-.1-5,.3-7.4,0s-3.3-3-4.6-1h-1c.1-1,0-2,0-3l-3-1,1-4c1.1-.2,1.5-.8,2-1,6.5-2.5,9.2-5.3,17-6Z"/>
  <path class="st0" d="M364.5,646.2c4-1.9,8.4-2.6,12.3,0s-.4,3.8,2.7,3c0,1.7,0,3.3,0,5l-1,2h2c0,1.2.2,2.9,0,4s-1.3,2.5-1.3,3.7c-.8.1-2.2,1.2-2.7,1.3-4.1.7-7.9-1.2-11.4-1s-2.7,2.7-5.6,3l-1-2c.4-1.3.6-2.7,1-4h2s-1-2-1-2c1.2-4.4,2.8-8.7,4-13Z"/>
  <path class="st14" d="M381.5,615.2c-2.8,11-2.1,22.7-2,34-3.1.7-1.2-2.1-2.7-3-4-2.5-8.3-1.9-12.3,0,3.1-10.9,3.9-20,9-30,1.3,3.8,5.1.2,8-1Z"/>
  <path class="st14" d="M380.5,660.2c5.3,6.9,10.8,11.2,7,21-.9,1.3-10.5,3.9-12.5,4-3.7.2-5.2-1.6-7.1-1.7-3.9-.3-7.4,1.1-11.4-.3l8-3c.2-.2.2-4.7,0-5,.3-5.7,3.7,1.8,4.6,2s2.1-1.4,3.2-1.7,3.2,0,4-.4c2.2-1.3,2.1-7.8.2-9.8.5,0,1.9-1.1,2.7-1.3,0-1.2,1.2-2.9,1.3-3.7Z"/>
  <path class="st1" d="M376.5,665.2c1.9,2.1,2,8.5-.2,9.8s-2.7,0-4,.4-2.3,1.9-3.2,1.7-4.3-7.7-4.6-2c-.2-.3-4.8-.9-4.2-4.8l-2.8-.2c.2-.8-.2-2.2,0-3,.7,0,1.3,0,2,0,2.8-.3,2-2.8,5.6-3s7.3,1.7,11.4,1Z"/>
  <path class="st14" d="M319.5,580.2c-.5,4.8-2.3,16-2,20-1,.3-.9,1.2-1,2,0,1.3,0,2.7,0,4l-2,3c-1.9-6.3-3-12.7-5-19,2-1,2.2-3.8,3-5,1.3-1.9,3-2.2,4-5h3Z"/>
  <path class="st0" d="M340.5,689.2c-.5,11.7-16.4,16.4-16.1,2.5,0-1.4,1.1-2.3,1.1-2.5,4.8,2.7,9.9-.5,15,0Z"/>
  <path class="st12" d="M311.5,655.2c0,0,.9.6.8,1.5-.1,3-1.8,11.6,1.4,13.3s3.9-.5,4.8,1.2c-4.4.8-9.4,1.9-10,7-.5.2-.9.8-2,1s-2.7-.2-4,0c3.4-7,4.2-12.9,6.5-20s.6-3.3,2.5-4Z"/>
  <path class="st3" d="M309.5,687.2c2.6,3.6,9.4,5.8,12,1h1c-1.4,6.8-.7,15.2-11.3,9.8s-3.2-6.8-2.7-10.8h1Z"/>
  <path class="st22" d="M348.5,682.2c0,.7,0,1.3,0,2l1,2c0,1,.1,2.1,0,3l-1,2c-1.1,3.9.5,4-4,6l-2-3c.2-1.8.3-6-.1-7.4s-2.7-1.4-2.9-1.6c-.2-.3-2-5.7-3-7l12,4Z"/>
  <path class="st8" d="M306.5,679.2l-1,4,3,1c-4.9-.3-4,11.1-5,12-7.6-.6-6.8-7.2-4.2-12.7s2.4-2.7,3.2-4.3c1.3-.2,2.8.2,4,0Z"/>
  <path class="st0" d="M357.5,670.2l2.8.2c-.6,3.9,4,4.5,4.2,4.8s.1,4.8,0,5l-8,3c-.4-.1-1.3.4-1.8-.2s0-2-.2-2.8l1-1.5-1-.5c.6-3.5,2.4-6,3-8Z"/>
  <path class="st13" d="M325.5,572.2c-.3,0-.7,0-1,0-5.8.6-4.5,3.6-5,8h-3c1.5-4.1,1.3-6.1,4-11-.7,4.3,2.9-.7,3.3-1.3,3.3-4.1,5.3-8.2,7.7-12.7h1c0,.1,1.2.8.8,2.2-.8,3.5-7,10.5-7.8,14.8Z"/>
  <path class="st12" d="M348.5,676.2h1c-.2,1.9-1,3.6-1,6l-12-4c-.8-1-1-1.2-2-2,.3-2.5-.4-1.8-2-2s-1.3,0-2,0v-2c-1.3,0-2.7,0-4,0s-.7,0-1,0v-1c.2,0,1-1.1,3.2-.9,6.3.8,12.7,9.2,19.8,5.9Z"/>
  <path class="st16" d="M379.5,572.2c-.3,7.9-1.8,14-4.5,22-.5,1.6.2,3.5-2.5,3,2.2-8.3,4.5-16.7,7-25Z"/>
  <path class="st22" d="M339.5,686.2c.4.9,1,2,1,3-5.1-.5-10.2,2.7-15,0,0-.7,0-1.3,0-2,4.9,2.3,9-1.2,14-1Z"/>
  <path class="st16" d="M364.5,629.2c-.7,3.6-1.4,7.3-2.1,10.9h-1.9c.7-3.6,2.2-7.1,2-10.9h2Z"/>
  <path class="st12" d="M344.5,697.2c-.8.3-1.3,1.6-3,1-.8-1.7.9-3.4,1-4l2,3Z"/>
  <path class="st16" d="M381.5,564.2c0,1.5,1.7,5.6-2,5,.1-1.7.7-3.8,2-5Z"/>
  <path class="st19" d="M324.5,577.2c0,.4,1.6,1.5,1,3h-2c0-1.1-.3-2.5,1-3Z"/>
  <path class="st19" d="M382.5,554.2c-.2,1,.4,2.4-1,3,0-.2-1.3-1-1.1-2.4l2.1-.6Z"/>
  <path class="st16" d="M309.5,645.2c0,.2,1.6,1.6,1,3h-2c.2-.9-.4-2.4,1-3Z"/>
  <path class="st0" d="M322.5,686.2c.7-2.5,2.4-3.4,3,0h-3Z"/>
  <path class="st16" d="M311.5,637.2c0,.2,1.4.9,1,2h-2s1-2,1-2Z"/>
  <path class="st16" d="M365.5,624.2l1,2h-2c.3-1.6,1-1.9,1-2Z"/>
  <path class="st16" d="M368.5,617.2v2s-2,0-2,0c.1-.6-.2-1.3,0-2h2Z"/>
  <path class="st14" d="M354.5,680.2c0-.2-.8-.4-.7-1.2s.7-.6.7-.8l1,.5-1,1.5Z"/>
  <path class="st14" d="M360.5,659.2l1,2h-2c.3-1.2,1-1.9,1-2Z"/>
  <path class="st16" d="M369.5,610.2l1,2h-2c.3-1.6,1-1.9,1-2Z"/>
  <path class="st14" d="M359.5,667.2c-.7,0-1.3,0-2,0,.3-1,.9-1.7,1-2l1,2Z"/>
  <path class="st16" d="M317.5,600.2c0,.1,1.4,1,1,2h-2c0-.8,0-1.7,1-2Z"/>
  <path class="st16" d="M371.5,602.2l1,2h-2c.4-1.4,1-1.9,1-2Z"/>
  <path class="st16" d="M370.5,606.2l1,2h-2c.3-1.5,1-1.9,1-2Z"/>
  <path class="st12" d="M349.5,686.2l-1-2c0,.1.9.2,1,2Z"/>
  <path class="st12" d="M348.5,691.2l1-2c-.2,1.7-1,1.9-1,2Z"/>
  <path class="st16" d="M360.5,644.2l-2,1c.4-1.4,1.9-.9,2-1Z"/>
  <path class="st23" d="M349.5,676.2h-1l1-1c0,.3,0,.7,0,1Z"/>
  <path class="st17" d="M367.5,444.2c.7,0,1.3,0,2,0,1.7,3.1,6.4,2.3,8,3,4.9,2.2,15.3,9.5,19,13.5,1.4,1.4,2.2,2.4,2,4.5-2.8,0-5.5.2-8.3-.2s-9.1-4.5-7.7-1.3c2.5,5.7,15,9.3,18,20.5,0,3.7-3.2,3.1-6,3s-6.2-.5-8-4,0-2.1-.9-3.5c-1.3-2.1-3.4-3.3-4.6-5.5-1.3,2.7,3.9,7.4,4.5,9,3.8,10.6,1.8,23.4-3.2,33.3s-2.5,2-2.8,2.7h-3c-2.6-.9-3-4.6-4-6l-2-10,4.5,4c1.9-.4,3.3-5.7,3.4-7.5s-.9-1.3-.9-1.5c-.1-4.1-.4-7-1-11s.4-3.7-.2-5.3c-5-4.9-12.2-5.7-18.8-6.7,0,4.7,2.5,8.7,4,13h-5c-2-2.7-6.2-7.7-9.6-8-2.9-.3-10.6,1.6-12.4,4l-2-1c-.4-1.2-4.6-10.6-5-11,10-7.2,22.1-8.7,34-9,0-2,0-3.8.8-5.7,1.3-3.1,5.3-3,5.3-6.2-.4-.5-10.6-1.8-8-4l5-3c1,0,2,0,3,0ZM379.5,471.2c-2.1-3.4-6.9-6.5-11-7-1.7,1.5,9,7.8,11,7Z"/>
  <path class="st11" d="M398.5,465.2v1c-.6.5-.9,1.7-2,2l-1,.5,1,.5c.3.3.8.6,1,1,4.6,7.2,8.2,8.2,8,18,0,1.3,0,2.7,0,4-2,0-4,0-6,0,.1-.6-.2-1.7,0-2s1.8-.5,2.1-2.6-.8-2.6-1.1-3.4c-3-11.2-15.5-14.8-18-20.5s6.5,1,7.7,1.3c2.7.5,5.5.2,8.3.2Z"/>
  <path class="st13" d="M366.5,515.2c5.5-.5,3.5,2.7,7.6,5.9h2.3c0-.1.2-1.9.2-1.9h3c-.3.6.2,2.1,0,3-.5,0-5.4,1.7-6,2-4.6.4-3.4-1.7-4-4.5-1-4.7-2.7,1.5-3.9,3s-3.8,2.2-4,2.5c-.1-3,.1-6,0-9,1.7.1,3.5-.9,5-1Z"/>
  <path class="st14" d="M399.5,490.2l-4.9-1.1v-1.9c2.6,0,5.9.7,5.9-3,.2.9,1.4,1.3,1.1,3.4s-1.8,2.2-2.1,2.6Z"/>
  <path class="st14" d="M385.5,483.2c-.6-1.6-5.8-6.3-4.5-9,1.2,2.2,3.3,3.3,4.6,5.5s.6,3,.9,3.5h-1Z"/>
  <path class="st19" d="M384.5,534.2c0,2.1.6,4.2-1,6,0-.5-2-4-1-6h2Z"/>
  <path class="st19" d="M383.5,546.2c0,1,0,2,0,3l-2-.5v-2.5s2,0,2,0Z"/>
  <path class="st14" d="M380.5,656.2h-2s1-2,1-2c0,.1.9.2,1,2Z"/>
  <path class="st17" d="M389,515.2c.6.3.6.7,0,1v-1Z"/>
  <path class="st23" d="M413.5,407.2c0,.3,0,.7,0,1l-1,.5,1,.5c0,.3,0,.7,0,1-3,5.3-7.7-1.3-9.5-4h-1.5c1.4,2.6-3.7,4.6-5.7,4.8s-2.8-3.4-5.3-2.8c.7,1.6-.3,7.6,3,7,.3,1,.7,2,1,3l-7,10c-2-.3-3.9-1.3-6-1v-2c-1.1-.4-1.9,1-2,1-1.3.1-2.7-.1-4,0v-2s-6,0-6,0v2c1.2.4,3,.5,4,1s.6.8,1,1c.5,5-4.8-1.2-6,0l3,7c-5.2,2.6-16.2,6.5-22,7.6-1.6.3-2.9-.1-4.4-.4-1,.2-1.2,1-1.6,1.8s.1.7,0,1c-2.6-1.3-4.5-.1-6,0-8.1.7-18.3,3.9-25.5,4.1-4.2,0-22.1-4.5-23.3-3.8s0,1.9-.7,1.8c-2.3-1.8-4.7-3.6-7.9-3l-2.1,2c-6.7-7.1-24.2-6.3-31.5-10.6-4.5-2.6-.8-3.2.9-5.4h-6s2-4,2-4c-1.9-1.4-23,7.5-23.1-2.5,0-3.1,1.9-3.1,2.1-3.5.3-.7.7-1.3,1-2,.5-1.1.5-2.8,1-4,1-.3,1.8-2,3.3-1.8s7.2,1.5,8.7,1.8c7.8,1.7,6.3,5.6,10.2,7.3s5.6.2,7.8,1.2,2.9,5.5,5.7,6.3c6.3,1.8,17.2,2.2,24.3,3.7,3.5.7,6.2,2.8,8.7,3.3,12.4,2.5,56.3-7.2,67.9-13.6s5.4-4.5,8-6c6.3-3.8,14.4-2.8,12.3-13.2v-1c.7.3,2.2-.3,3,0s.5,2.1,3.5,2.1c3,0,3.1-2,3.5-2.1s3.6,0,5,0,2,0,3,0v2s1.5,0,1.5,0c3.2-6.6,9-1.9,11.5,3Z"/>
  <path class="st1" d="M364.5,444.2l-5,3c-2.6,2.2,7.6,3.5,8,4,0,3.2-3.9,3.2-5.3,6.2s-.8,3.7-.8,5.7c-11.9.4-24,1.8-34,9-.1-.1-1.9.1-2.9-.6-2.3-1.7-4.2-3.7-7-4.6l-.2-2.2,2-1.6c9-.9,14.6-8.7,21.3-12.2,3.1-1.6,6.5-2.2,9.7-3.3s3.5.2,3-2.5c3.7-.4,7.3-.7,11-1Z"/>
  <path class="st11" d="M297.5,453.2c2.2.5,9.7,4,11,3v-2c1,.2,3,.1,4,0l.7,2c1.3,0,3,.2,4.3,0v1l2,4v2l-2,1.6.2,2.2c2.8.9,4.7,2.9,7,4.6s2.8.5,2.9.6c.4.4,4.6,9.8,5,11s1,2.8,1,3c.4,2.5,0,6.2,0,9-4,8.8-10.4,13-20,14s-2,0-3,0c1.7-1.9,5.3-.1,6-3,3.8-.8,6.6-.9,9.6-4.4,2.8-3.1,2.4-3.4,1.4-6.6s-2.1-5.8-3-7-1.8-1.9-2-2c2.5-.8,1.8,1.9,2,2,1.1.9,4.6,2.1,6,4,1.2-7.8-3.8-18.3-12-20-.3-.5-.9-1.9-1-2-2.5-2.8-3.8-1.2-7-1l4.1-8.5-3.6-3.5c-2.2-.6-1.7,2.3-1.6,3.5.3,2,4,1.7,0,7.4l-2.1-.7c0-1.4-1.4-1.7-1.9-2.3s.5-1.3-.7-2c-2-1.1-9-2.6-12.3-4l2-2.5-3-4.5c1.9.7,4.3.6,6,1ZM304.5,457.2c-2.4,1-9.6-3.5-9,1,2.3-.2,9.6,3.4,9-1Z"/>
  <path class="st11" d="M394.5,415.2c-.3-1-1.9-3.6.5-3,3.6,4.7,4.8,7.2,11.5,6v-4c1.6-.6,2.5.9,3,1l-1,6c-2,.2-4,0-6,0s-1.3,0-2,0c0,1.3,0,2.7,0,4s0,1.3,0,2c-2.5.5-4.5,2.3-4,5-2.5.3-5.4-.2-8,0-10,.6-9.4,4-17,8-1.5.8-4.7-.8-4,4-1,0-2,0-3,0-3.7.3-7.3.6-11,1s-3.6,1.1-4.4,1-1.4-3.5-4.6-2c.4-.8.6-1.6,1.6-1.8,1.5.2,2.8.7,4.4.4,5.8-1.1,16.8-5,22-7.6s4.8-3.8,8-4c-.7-2.1-3.3-2.2-5-3s-.7-.8-1-1c.3-1,1.2-.9,2-1,1.3-.1,2.7.1,4,0l2,1c2.1-.3,4,.7,6,1s.8,1.1,2.4,1c3.3-.2,6.5-4.5,6.6-7.5s-1.7-2.8-1.9-3.5-.7-2-1-3Z"/>
  <path class="st13" d="M317.5,457.2c2.9.3,5.4-.4,8-1.5,4.3-1.8,6.6-6.2,11-6.5.4,1.8-.9,2.5-2.1,3.4-3.9,3.2-10.5,6-14.9,8.6l-2-4Z"/>
  <path class="st13" d="M317.5,456.2c-1.3.2-3,0-4.3,0l-.7-2c4.9-.5,11.5-3.7,16.5-5-.7,2.9-9,6.5-11.5,7Z"/>
  <path class="st19" d="M308.5,454.2v2c-1.3,1-8.8-2.5-11-3,3.5-3.4,8.2.5,11,1Z"/>
  <path class="st11" d="M344.5,445.2c-.6,1.1.2,2.9-2.4,3s-4.3-1-3.6-3c1.5-.1,3.4-1.3,6,0Z"/>
  <path class="st22" d="M223.5,420.2l1-2c-.3.7-.7,1.3-1,2Z"/>
  <path class="st25" d="M232.5,460.2c.1-.1-.3-1.3.2-1.7,2.9-2.4,17-6,20-5.1s2,2.3,3.4,2.7c6.8,2,5.4,2.2,10.6,4.4,3.3,1.5,8.2,1.2,11.7,3.3s8.3,13.1,15.1,12.4c-3.7,5.1-4.4,17.2-2,23h-2c-2.9-5.9-4.5-9.2-9-15s-.2-1.7-1-2.5c-5.2-5.6-3.5-1.9-10-1.5.9-7.3-1.9-6.1-5.6-9s-1.3-2.8-1.5-3c-1.2-.8-2.6.9-2.9.9-1.5.1-3.7-.3-5,0-1.3-.3-1.9-2.8-2.7-3-4.2-1.1-3.1,1.8-3.3,2s-1.4-.1-2,0c-2.3-6.9-6.9-9-14-8Z"/>
  <path class="st16" d="M305.5,465.2c.5.6,1.9.9,1.9,2.3l2.1.7c4-5.7.2-5.4,0-7.4s-.7-4.1,1.6-3.5l3.6,3.5-4.1,8.5c3.2-.2,4.5-1.8,7,1-.7,0-1.3,0-2,0-2.2,0-3.7,1-4,1-5.3.6-5.3-1.3-11,3-3.9,2.9-8,10.1-8,15s-.1,2.9,1.5,4c2-1.7,7.4-6.3,9.5-7s2.8.2,4,0c-.6.3-4.3,2.9-5.1,3.5s-5.5,5.2-6,6c-4.1,6.8,8.9,11.3,14.1,11.6s3.7-.5,6-1c-.7,2.9-4.3,1.1-6,3-7.6.1-15.8-2.3-19-10-2.4-5.8-1.7-17.9,2-23,3.4-4.7,11.8-5.1,12-11Z"/>
  <path class="st26" d="M246.5,468.2c-.4,0-.8.6-1,1-1,0-10.1.8-11,1,.4-.6.6-1.6,1-2,1.2-1.3,3.9-2.1,4-4.5,0-1-3-.3-4-.5s-3.6-1-4-1v-1c0,0,.8-.8,1-1,7.1-1,11.7,1.1,14,8Z"/>
  <path class="st25" d="M231.5,461.2v1c-1.4,0-3.4,1.2-5,1v-1c.3-.3.7-.7,1-1,1.2-.2,3,.3,4,0Z"/>
  <path class="st1" d="M232.5,582.2c1.6,3.1,6.5,5.8,8.4,8.1,3.9,4.6,8.3,9.3,12.1,13.9,2.4,2.9,6.6,10.8,6.2,14.4s-5.3,5.2-6.8,10.6c-.9,3.3-1.1,5.6-1,9-1.8,2.7-1,6.7-1,10,0,5,0,10,0,15-3.4.9-2.9,4.4-8,3-1.9-4.5-3-3.2-4.7-5.3-3.7-4.6-7.8-13.5-14.8-13.8s-5.8,1.8-9.5-.9c1.1-9.2,1.5-18.7.6-28.1-9.1-9.9-15.3-15.8-19.6-28.9,5.1-3.4,6.2,3.3,9.7,3.8s10.6-.7,11.7-.9c6.5-1.2,11.2-6.8,16.6-9.9Z"/>
  <path class="st3" d="M226.5,559.2c-.2,1.3-.3,5.3,0,6.3s1.9.5,2,.7c.2.3-.2,1.6,0,2v3s2,0,2,0c.7,3.2,0,7.4,2,11-5.4,3.1-10,8.8-16.6,9.9-1.1.2-11,1-11.7.9-3.5-.5-4.6-7.3-9.7-3.8-2-6.1-2-9.1-3-15,7.8,1.5,22.7,10.9,29,2.5s3.8-8.2,4-11-1-1.4-1-1.5c0-.9.9-2.9,1-5h2Z"/>
  <path class="st27" d="M242.5,667.2c.7,1.5,1.2,3.5,2,5-3.6-.9-6.2,4.1-6.6,4.1-1.4,0-3.4-2.1-5.9-2.1s-10.3,3.9-15.5,2.1c0-.8-.2-2.6,0-3s.9.1,1,0,.7.1,1-1,0-1.4,0-2,.4-2.8-.5-3c-1.1,0-.2,2.1-.5,3s-.9,2.9-1,3c-.2.2-1.4-.4-1.9.1s.1,2.4-.1,2.9-1.1-.2-1.6.4c-2.8,3.2-2.6,3.3-7.4,1.6-.4-3.2.4-8.1,1.3-11.2s2.4-3.2,2.7-6.8h2c.1-.7,0-1.4,0-2s-.1-1.4,0-2c6,.4,14.7,2.1,20.2,4.3,4.1,1.7,6.8,5.2,10.8,6.7Z"/>
  <path class="st18" d="M194.5,544.2c.8,4.3,5.4,18.4,9.2,20.3s2.9.4,4,.8c1.9.8,1.3,3.2,7,1.7,6.3-1.7,5.6-4.1,6.7-8.8.7-2.7.5-6.9,3-8-.1,1.9.1,6.2,0,9s-1,4.1-1,5l-6.9,10.6c-3.7,3.3-13.1.3-16.8-2.2s-4.3-8.3-8.2-9.4c0-1,0-2,0-3s0-1.3,0-2c.1-1.9.9-4.9,1-8s0-2,0-3l2-3Z"/>
  <path class="st25" d="M213.5,646.2c3.7,2.7,5.9.7,9.5.9,7,.3,11.1,9.2,14.8,13.8s2.8.8,4.7,5.3-.1.7,0,1c-4-1.5-6.7-5-10.8-6.7-5.5-2.2-14.2-3.9-20.2-4.3.6-3.3,1.6-6.9,2-10Z"/>
  <path class="st22" d="M191.5,563.2c4,1,5,7.1,8.2,9.4s13.2,5.5,16.8,2.2l6.9-10.6c0,0,1,0,1,1.5-.1,2.8-2.1,8.5-4,11-6.3,8.4-21.2-1-29-2.5-.2-1-.7-2.2-1-4,1.8-1.4.9-4.8,1-7Z"/>
  <path class="st13" d="M191.5,560.2c0,1,0,2,0,3,0,2.2.8,5.6-1,7-.4-2.9-1.8-6.4-1-10h2Z"/>
  <path class="st13" d="M192.5,550.2c0,3.1-.9,6.1-1,8-1.8-2.2-.8-5.3-1-8h2Z"/>
  <path class="st25" d="M211.5,658.2c0,.6.1,1.3,0,2h-2c0-.7,0-1.3,0-2,.5.2,1.4-.1,2,0Z"/>
  <path class="st16" d="M246.5,684.2c0,0-.4,1.7.7,2h3.3c-.1.2,0,.6,0,1-7.6,2.4-15.6,4.2-23.6,4s-2.2-1-2.4-1l15-2c.5-.4-2-2.1-2-3s2.2-2.6,2-4h1c0,4.5,4.8,2.3,6,3Z"/>
  <path class="st28" d="M227.5,493.2c1.7-.8,3.1-1.2,5-1,.4.4-.3,7.8,0,9.6s1,2.2,1.1,2.4c.3,1.7.7,3.3,1,5-2.4,1.3,0,4,0,5.4s-6.7,6.1-1,6.6v2c-3.8,1.1-5.1,5-7,8-1,1.5-3,3.1-3.6,5s.6,2.7.6,3c0,1,0,2,0,3-3.7.2-5.6-5.4-8,.5h-3.1c-.4-5.6-4.9-12.6-3.7-17.8s2.3-1.9,1.8-3.7c-2-.5-3.6,1.6-5,2s-3.8.9-5,1l-1-2c12.1-6.8,18.3-24.3,28-29Z"/>
  <path class="st21" d="M205.5,523.2c1.4-.4,3-2.5,5-2,.5,1.8-1.5,2.4-1.8,3.7-1.2,5.1,3.3,12.2,3.7,17.8h3.1c2.3-5.9,4.3-.4,8-.5.1,1.3-.6,3.3,1,4-.1,1.3,0,2.7,0,4-2.5,1.1-2.3,5.3-3,8-6.1,1.5-9.1,3.7-14.9-.6-6-4.5-3-11.5-7.2-17.3-.6-.4-2-.3-2.8-.2.8-3.2.9-5.8,3-9s2.9-3.2,3.8-4,7.9-3.3,2.2-4Z"/>
  <path class="st13" d="M240.5,483.2c0,.7,0,1.3,0,2h-1.8c-.2,1.6-1.1,3.6-1.2,5s0,1.3,0,2c-1.4.7-1.1,2.7-1,4,.3,4.7,2.2,8.4,3,12,.2,1,1,3.6,1,4,0,2.1-.9,4.5-1,7-.2,5-1.2,9-1,12s0,1.3,0,2,0,.7,0,1c-.1,1.8-.7,6.1-1,8s-.7,3.5-1,5-1.8,2.9-1,5c-.5.3-.9,1.8-2,2-.1-.2-3.9-.8-4-3,.3-.4-.3-2.7,0-3,.8-1,1.6,2.1,2-3s-.2-3.5,0-5,.7-3.2,1-5,.7-3.8,1-6,.8-3.7,1-6,.9-1.1,1-2c.4-4.7-.2-7.8-1-12-.3-1.7-.7-3.3-1-5l-.5-13c-1-1.6-3.9,0-5.5,0-4.7.1-2.5-1.6-3-2,5-.1,9-3.1,13.1-5.4s2.6-.4,2.9-.6Z"/>
  <path class="st26" d="M247.5,474.2c-.8,3.6-3.4,6.8-7,9s-1.8,0-2.9.6c-4.1,2.3-8.1,5.3-13.1,5.4-.7-.6-2-.8-3-1,.7-1.8.9-3.5,2-6,1.4,3.2,4.3,2,6.8,1.3,6.5-1.8,10.9-7.1,17.2-9.3Z"/>
  <path class="st21" d="M233.5,504.2c0-.2-.9-1-1.1-2.4s.4-9.2,0-9.6c-1.9-.2-3.3.2-5,1v-2c1.7,0,4.5-1.7,5.5,0l.5,13Z"/>
  <path class="st21" d="M199.5,522.2l1,2c-1.3.1-2.7,0-4,0,.1-1.9,2.1-1.5,3-2Z"/>
  <path class="st0" d="M250.5,663.2c0,1.7,0,3.3,0,5s-.5,3.3,1,4c-.4,5.5,1.4,9.5-5,12-1.2-.7-6.1,1.5-6-3h-1c.2,1.4-2,3.3-2,4-3,0-6,0-9,0s-4.2-.6-5,1c-5.1-1.5-6.2-2.3-7-8,6.3,2.1,10.8,1.5,15.5-3,2.3,1.7,1.4,4.6,1.5,7h3.4s3.6-6.6,3.6-6.6l6,.6c1-2.6-1.7-3.4-2-4-.8-1.5-1.3-3.5-2-5s.1-.7,0-1c5.1,1.4,4.6-2.1,8-3Z"/>
  <path class="st25" d="M244.5,672.2c.3.5,3,1.4,2,4l-6-.6-3.6,6.6h-3.4c-.1-2.4.8-5.4-1.5-7-4.8,4.5-9.3,5.1-15.5,3,0-.6,0-1.4,0-2,5.2,1.9,11.9-2.1,15.5-2.1s4.5,2.2,5.9,2.1,3-5,6.6-4.1Z"/>
  <path class="st0" d="M214.5,676.2c3.1,13.8-7.8,11.4-9,2,4.8,1.7,4.5,1.5,7.4-1.6s1.6-.3,1.6-.4Z"/>
  <path class="st16" d="M228.5,685.2v2c-2.2.7-3.5-.6-5-1,.8-1.6,3.4-1,5-1Z"/>
  <path class="st8" d="M200.5,380.2c-.7,2.3,2,2.8,4,3s2,0,3,0l1.5,1,.5-1c.6,0,1.4.1,2,0,2.6,3.5,15.3,4.7,15.9,7.7.4,1.9-1,2.2.1,5.3s-.1.7,0,1c-5.5.9-9.3.5-14.5.2s-1.4.9-1.5.8c-5-.8-12-4.3-16-7-2.2-5.3-7.7-7.1-5-14,.3-.3.7-.8,1-1,3,2.4,5.8,2.9,9,4Z"/>
  <path class="st13" d="M227.5,397.2c0,.2,1.9,2.8,2,3-6.1,2.1-11.7-.7-18,0v-2c.1,0,.8-.9,1.5-.8,5.2.4,9.1.7,14.5-.2Z"/>
  <path class="st19" d="M195.5,391.2c-3.9-2.6-5.6-3.4-8-8,.3-1.2-.3-2.4.5-4s1.8-1.4,2.5-2c-2.7,6.9,2.8,8.7,5,14Z"/>
  <path class="st28" d="M245.5,469.2c.4,0,1.8,1.5,3,1,.3.3-.8,3-1,4-6.3,2.2-10.6,7.5-17.2,9.3-2.5.7-5.4,1.9-6.8-1.3.7-1.7.6-2.6,2-4.5s8.4-7.4,9-7.5c.9-.2,10-1.1,11-1Z"/>
  <path class="st24" d="M235.5,463.2c1,.2,4-.5,4,.5,0,2.3-2.8,3.2-4,4.5h-3s3-5,3-5Z"/>
  <path class="st27" d="M196.5,540.2c.8,0,2.2-.2,2.8.2,4.2,5.7,1.2,12.8,7.2,17.3,5.8,4.3,8.8,2,14.9.6-1.2,4.6-.4,7-6.7,8.8-5.8,1.6-5.2-.9-7-1.7s-2.7-.2-4-.8c-3.8-1.9-8.5-16-9.2-20.3s0-1.9,0-2c.2-.3,1.2,1,2-2Z"/>
  <path class="st18" d="M196.5,540.2c-.8,3-1.8,1.7-2,2-.3-2.1.4-1.8,2-2Z"/>
  <path class="st11" d="M257.5,626.2c-1.2,3.7-2.6,7-3,11-1,10.5,0,24.1,0,35,0,1.7,1,2.8,1,3,.2,7.4-3.3,7.6-5,11h-3.3c-1.1-.3-.6-1.9-.7-2,6.4-2.5,4.6-6.5,5-12,0-.5,1.8-2.4,1-4h-2c0-1.7,0-3.3,0-5,0-5,0-10,0-15h2c0-2.8.1-5.7,0-8.5s-1-1.4-1-1.5c0-3.4.1-5.7,1-9,1.2-1.6,3.8-2.2,5-3Z"/>
  <path class="st28" d="M255.5,546.2c.1.3-.1.7,0,1,.3.7.4.7,1,1,3.2,1.7,9.3,2.9,13,4.5s7.4,3.7,11,5.5,2.1.9,4,2c-.4,3.7,3.8,3.3,4.7,4.3s.2,4.2,3.3,3.7c.4.7.7,1.3,1,2s-.3,1.4.1,1.9,1.6,0,1.9.1c3.7,2.6,2,3.3,3,5-2.4,3.3,1.3,4.7.8,9.2-1.3,11.7-14.1,13.9-24,12.5-14.4-2-24-16.8-28.5-29.5-3.3-9.2-2.2-13.2.8-22.3,3,.3,4.9-1,6-1s1.3,0,2,0Z"/>
  <path class="st17" d="M343.5,529.2v3s10-1,10-1c-2.9,4.8-4.1,6.6-8,11h-2s0-4,0-4h-2c0,1.3-.2,2.7,0,4h-1c-1.3,0-2.3.5-3.1,1.5-1.3,1.5-2.3,6.5-2.9,8.5s-1.9,1.7-2,3h-1c-.3,0-.8-.1-1,0l-2-4-15.5,23-2.5-.7c-.6-5.3-5.2-9.9-7-14.3s.2-2.2,0-3c-1.6-5.3-6.3-5.6-11-7-.2-.3-.7-.7-1-1,0-.7,0-1.3,0-2-.2-2.1-1.3-6.4,1.2-7.9s7.9,1.5,8.8,1.9c2.2.8,3,4.6,9.6,5,4.2.2,5.5-2.4,8.1-2.8s5.2,1.4,7.7.9c1.2-4.6,5.7-8.2,7.6-12.1,2-.2,4.4.4,6.2,0s1.4-1.8,1.8-2,.7.1,1,0Z"/>
  <path class="st27" d="M237.5,542.2h6s.5,4,.5,4c.8,1.3,2.4.8,3.6,1-2.9,9.1-4,13-.8,22.3,4.5,12.6,14.1,27.5,28.5,29.5,9.9,1.3,22.8-.8,24-12.5.5-4.5-3.2-5.9-.8-9.2,3.1,5.2,4,7,6,13-2.3,14.8-17.2,20.2-30.7,16.2s-10-9.9-17.3-13.2c0-.3,0-.7,0-1-1.6-4.8-6-7.8-8.4-12.1s-4.5-10.9-6.5-15.3l-5.1-.6c-.3-.4-.6-.7-1-1v-5s-2,0-2,0c0-1,.2-3.7,0-4,1.1-.2,1.5-1.7,2-2s1.8.6,2-.6l-1-4.4c.3-1.5.8-3.7,1-5Z"/>
  <path class="st1" d="M310.5,613.2c.5,5.4.7,11.4-2.6,15.9s-4.7,2.9-8.4,4.6-2.4,2.9-5.6,3.4c-7.3,1.1-7-3.4-10.9-7.9l-.5,6c-6.4-.7-11.9-8.7-15-14,10.8-1.1,23.7,1.9,33.9-3.6s3.9-5.9,9.1-4.4Z"/>
  <path class="st8" d="M235.5,563.2c.4.3.7.6,1,1,5,6.3,7.6,13.5,12.2,20.3,1.8,2.7,4.4,7.1,7.8,7.7,0,.3,0,.7,0,1,.7,2.6,7.4,11.2,10.1,13.4,7.8,6.6,18,6.8,27.7,5.3l12.2-12.7c1,7.5-5.9,13.9-12.8,15.7-3.6,1-12.8,1.6-16.6,1.2-5.9-.6-8.1-4.8-13.7-4.9-1.9-4-4.2-6-7-9s0-3.9-4-3c-4.5-5.3-13-15.3-16-21-.4-.7,1-2.6-2-2-.2-2.2,0-4.7,0-7,0-3.5-.6-3.6-1-7,.6.4,1.5.6,2,1Z"/>
  <path class="st17" d="M310.5,613.2c-5.2-1.5-6.2,2.9-9.1,4.4-10.2,5.5-23.1,2.4-33.9,3.6-2.2-3.9-2.5-7-4-10,5.5.1,7.8,4.3,13.7,4.9s12.9-.2,16.6-1.2c6.9-1.8,13.7-8.2,12.8-15.7v-1c1.3,4.8,3.5,9.6,4,15Z"/>
  <path class="st15" d="M306.5,598.2v1l-12.2,12.7c-9.7,1.5-19.9,1.3-27.7-5.3-2.7-2.3-9.3-10.8-10.1-13.4,7.3,3.3,8.9,10.8,17.3,13.2,13.5,4,28.4-1.4,30.7-16.2.9,2.6,1.3,5.4,2,8Z"/>
  <path class="st13" d="M264.5,515.2c0,1.1,1.9,2.6,2,3,.3,1.1-.3,2.9,0,4s.6,2.7,1,4c2.3,8.2,7.5,11.4,12,18l4-10c-.5,4.3,5.4,9.4,6,12s0,.7,0,1-1.6,1.9-1,3h-1c.4-3.5,0-2.5-2-3s-.2-1.2-1-.6c-.6.4-.7,1.3-1,1.6s-1.2,2.5-2,2c-.8-4.6-6.2-6.1-9-9-4.8-4.9-9.2-10.9-10-18-.3-2.5.2-5.4,0-8h2Z"/>
  <path class="st7" d="M272.5,541.2c2.8,2.9,8.2,4.4,9,9,.7.5,1.6-1.6,2-2l2-1c2,.5,2.4-.5,2,3-1.4,1.5-2.9,2.7-5,3s-2.7-.1-4,0c-.3-3.1-1.9-2.7-5-3v2c-3.1-1.4-9.1-4.1-12-5,2.1-8.2,11.5,5.3,11-6Z"/>
  <path class="st24" d="M229.5,551.2c.1,2.2,3.9,2.8,4,3,.2.3,0,3,0,4s-.2,2.7,0,4c.4,3.4,1,3.5,1,7-2-.6-4.5-5.8-6-3,0-.1-1.7.4-2-.7s-.2-5.1,0-6.3,3.4-4.2,1-7.4c0-1,1.9-.4,2-.6Z"/>
  <path class="st13" d="M303.5,565.2c1,4,2.8,7.7,3.8,11.7l5.2,8.3c-.8,1.2-1,4-3,5-1.1-3.5-2.9-10.3-4.4-13.1s-3-2.6-3.5-3.7c-1-2.2-.5-6.2-1-8.2h3Z"/>
  <path class="st0" d="M303.5,556.2h-2c-.7,1.7.8,2.4,1,3,.9,2.6.5,4.2,1,6h-3c-1.1-4.1-5.5-12.5-8-16,4.7,1.4,9.4,1.7,11,7Z"/>
  <path class="st14" d="M288.5,550.2l7,14-3.5-2-9.5-9c2.1-.3,3.6-1.5,5-3h1Z"/>
  <path class="st15" d="M261.5,547.2c2.9.9,8.9,3.6,12,5,2.6,1.2,2.6,2.1,5,3s1.4-.1,2,0v3c-3.6-1.8-7.4-3.9-11-5.5s-9.8-2.8-13-4.5l-1-1c-.1-.3.1-.7,0-1,2.1,0,4,.4,6,1Z"/>
  <path class="st14" d="M273.5,552.2v-2c3.1.3,4.7-.1,5,3s0,1.3,0,2c-2.4-.9-2.4-1.8-5-3Z"/>
  <path class="st15" d="M292.5,568.2c-3.1.5-2.4-2.8-3.3-3.7s-5.1-.6-4.7-4.3c4.6,2.7,5.4,3.1,8,8Z"/>
  <path class="st17" d="M256.5,602.2c-2.5,0-2.8-1.6-4-3,4-.9,3.4,2.4,4,3Z"/>
  <path class="st24" d="M230.5,571.2h-2s0-3,0-3c.5.7,1.4.2,2,3Z"/>
  <path class="st15" d="M293.5,570.2h2s0,2,0,2c-.2-.2-1.4.3-1.9-.1s0-1.5-.1-1.9Z"/>
  <path class="st24" d="M234.5,576.2c3-.6,1.6,1.3,2,2h-2c0-.7,0-1.3,0-2Z"/>
  <path class="st0" d="M291.5,546.2c0,.7,0,1.3,0,2-.3-.2-1.6-.2-2-1,0-.3,0-.7,0-1h2Z"/>
  <path class="st10" d="M325.5,671.2v1c-7.8.7-10.5,3.5-17,6,.6-5.1,5.6-6.2,10-7s4.8,0,7,0Z"/>
  <path class="st19" d="M361.5,525.2c.2-.3,2.5-.6,4-2.5s2.9-7.8,3.9-3-.6,4.9,4,4.5c0,0,.4,1.4-.7,2-2.8,1.6-9.2.3-12.3,3.5-1.6,1.7-1.3,3.8-2.1,5.7s-1.7.7-1.9,1.5c-.3,1.2.2,4,0,4.3s-3.1-.2-4,0c-.2.6.2,2-.2,3.3-1,3-5.9,8-6.9,11.6l-8.8-.9v4.5c0,0-2.9.6-2.9.6.6,5.7-1.6,5.6-4,8.5-.9,1.1-1,3.1-2.2,4s-1.9-.6-2-.6c.8-4.3,7-11.3,7.8-14.8.3-1.4-.9-2.1-.8-2.2.1-1.3,1.9-2.5,2-3l7,1c1.5-3.3-2-4.3-2-4.6-.2-1.7,1.6-4.3,1-6.4h1c.1,1,1,1.7,1,2,.2,1.5-.6,3.9.5,5,3.1-2.5,5.6-7.1,9.5-8,1.1-3.4,6.5-13.3,9-16Z"/>
  <path class="st8" d="M321.5,688.2c-2.6,4.8-9.4,2.6-12-1,1.2-2,2.7.7,4.6,1s5,0,7.4,0Z"/>
  <path class="st22" d="M326.5,672.2c1.3,0,2.7,0,4,0v2c-1.3-.1-2.7.1-4,0v-2Z"/>
  <path class="st22" d="M332.5,674.2c1.6.2,2.3-.5,2,2-.3-.2-1.4.2-2,0v-2Z"/>
  <path class="st16" d="M303.5,559.2c1.8,4.4,6.3,9.1,7,14.3l2.5.7,15.5-23,2,4c-2.4,1.9-8.3,10.9-10,14-2.7,4.9-2.5,6.9-4,11s-2.7,3.1-4,5l-5.2-8.3c-1-4-2.8-7.7-3.8-11.7s-.1-3.4-1-6h1Z"/>
  <path class="st19" d="M331.5,555.2c-2.4,4.6-4.4,8.6-7.7,12.7s-4,5.6-3.3,1.3c1.7-3.1,7.6-12.1,10-14s.7,0,1,0Z"/>
  <path class="st8" d="M356.5,488.2c1.3,1.8,3.4,5.7,4,8-1,.1-2-.1-3,0,0,1,0,2,0,3h-2c.2-3.9-1-6-3-9s.3-1.3-.2-1.8-1.5,0-1.8-.2c-2.2-1.2-4.2-2.9-6.6-1.1s-7.1,13.2-8.9,16.2c-.6,1-.4,2.6-.6,2.9s-2.7.3-3,2c0-1.3-1.2-2.6-.8-4.3.8-3.7,2.8-2.1,2.8-8.7s.4-6.5,0-9c.8-.4.7-1.6,1-2,1.8-2.4,9.5-4.3,12.4-4,3.4.3,7.6,5.3,9.6,8Z"/>
  <path class="st9" d="M376.5,487.2c.6,4,.9,6.9,1,11l-2.5,5c-2.3-2.3-4.2-1-4.5-1s-.7,0-1,0c.4-1.9-.6-3.4-1-5s1.2-3.6-2-3c-.1-.6.2-1.5,0-2-1.1-3.7-3-5.9-4.1-9.4,7.7-6.8,8.1,1.6,14.1,4.4Z"/>
  <path class="st16" d="M391.5,444.2c2.6,3.8-3.8,2.6-3,6,3.4,2.3,10.3,6.6,13,9.6s.9,2.2,1,2.4c.3,3-2.7,2.9-4,4v-1c.3-2.2-.6-3.1-2-4.5-3.7-3.9-14.2-11.3-19-13.5l14-3Z"/>
  <path class="st8" d="M376.5,487.2c-5.9-2.8-6.4-11.2-14.1-4.4,1.1,3.5,3,5.7,4.1,9.4h-3c-.2-.4-1.2-1.8-2-4-1.5-4.3-4-8.3-4-13,6.6,1,13.9,1.8,18.8,6.7.6,1.6,0,3.7.2,5.3Z"/>
  <path class="st14" d="M391.5,444.2l-14,3c-1.6-.7-6.3,0-8-3,5.3-.4,11.7-1.7,17-2s3.5-.3,5,2Z"/>
  <path class="st16" d="M367.5,506.2c2,5.1,3.5,4.9,5,7s1.4,5.1,4,6l-.2,1.8h-2.3c-4-3-2.1-6.2-7.6-5.8.8-2.8-.5-4.9-1-7s.2-1.5,0-2h2Z"/>
  <path class="st16" d="M371.5,440.2c1.9,1.9,6.2.3,9,0s2.1.1,3,0l3,1v1c-5.3.3-11.7,1.6-17,2-.7,0-1.3,0-2,0-.7-4.8,2.5-3.2,4-4Z"/>
  <path class="st19" d="M369.5,502.2c.3,0,.7,0,1,0v1l2,10c-1.5-2.1-3-1.9-5-7-.1-.3.1-.7,0-1-1.1-2.9-2.5-5.9-3-9,2.8,1.3,2.5,5.3,5,6Z"/>
  <path class="st19" d="M361.5,488.2c.8,2.2,1.8,3.6,2,4,.3.9-.2,2.9,0,4-.3,0-.7,0-1,0-.6,0-1.4,0-2,0-.6-2.3-2.7-6.2-4-8h5Z"/>
  <path class="st8" d="M370.5,503.2v-1c.3,0,2.1-1.3,4.5,1l2.5-5c0,.1.9.7.9,1.5,0,1.8-1.5,7.1-3.4,7.5l-4.5-4Z"/>
  <path class="st19" d="M379.5,471.2c-1.9.8-12.7-5.4-11-7,4.1.5,8.9,3.6,11,7Z"/>
  <path class="st12" d="M334.5,484.2c-.3.4-.2,1.6-1,2,0-.2-.8-2.3-1-3l2,1Z"/>
  <polygon class="st8" points="396.5 469.2 395.5 468.7 396.5 468.2 396.5 469.2"/>
  <path class="st16" d="M361.5,516.2c.1,3-.1,6,0,9-2.5,2.7-7.9,12.6-9,16-4,.9-6.4,5.5-9.5,8-1.1-1.1-.3-3.5-.5-5,2,.2,2.1-1,3-2,3.9-4.4,5.1-6.2,8-11,3.1-5.1,2.1-3.8,4-9s1.3-2.6,2-5,.8-1.2,1-3h1c0,.6,0,1.3,0,2Z"/>
  <path class="st19" d="M359.5,506.2c1.7,1.1,3.6,2.6,6,2,.5,2.1,1.8,4.2,1,7-1.5.1-3.3,1.1-5,1,0-.7,0-1.4,0-2-.2-1,.3-1.5-1-2s-.7,0-1,0v-6Z"/>
  <path class="st28" d="M289.5,299.2l6-1.6-2-8.4c.5-.5,5.7,1.3,6.4,1.9,1.9,1.6-1.7,5.4,4.6,4.1-.4,2.4-1.4,1.4-2,5s-.9,1.2-.8,2.3c.3,2.6,6.6,8.7,9.3,8.7,4.1-.1,8.4-6.5,7.5-11,0-.5-.9-.7-1-1s-.7-.7-1-1c.3-1.7,3.9-2.8,4-3,.6.9,1.9,3.2,2,4s.2,3.9,0,5c-.6,3.6-5.9,10.4-9.6,11-6.5,1.1-9.1-5.8-14.4-7-.2-.8.1-2.1,0-3-.4-3.2-6.1-3.6-9-6Z"/>
  <path class="st28" d="M336.5,265.2c.4.3.7,1.7,1.5,2,.5-.9,2.1-1.5,2.5-2,1.2,1.1.8,3.7,2,4.5s7.7,2.3,8.6,2.4c5.3.8,11.2-1,16.4-1.9,7.2-1.3,14.4-4,22-4,.1.3.8.6,1,1-.7.4-2.2,3.2-3,4-2,.5-5,1.4-7,2s-20,7.1-20.6,8c-2.4,4,5.9,8.1,8.6,9,.7,2.7,2.4,2.8,3.3,6.2.9,3.5,0,11.1,4.7,11.8,0,.1.8,1.5,1,2s-.3,1.4.1,1.9,1.6,0,1.9.1c.4.3.6.7,1,1-.9,3.9,2.2,3.3,3,4s.7.7,1,1c-4,3-1.1,11.2-3,16-1.3-.4-4.2.3-6.3-.2-3.8-1-10.7-4.9-13.2-4.9s-15.9,2.7-18,5.1c-.5.6-.3,1.7-.5,2-2,2.4-4.8,4.8-6.4,7.1-7.7,10.8-7.1,17.6-6.6,30.9.1,3.6,1.5,1.5,2,2s0,2.5.8,3.7c6.7,11.7,32.4,16.4,42.2,6.3.3,0,.7,0,1,0,4.2.4,8.6-1.9,9,3.5l-4,1.5c-1-.2-4.2-.3-5,.5,2.2,2.5,5.3,3.2,8,4.5-.2,1.7.2,3.5,2,4-.4.5-.6,1.4-1,2-.8-.3-2.3.3-3,0-2.9-1.1-8.8-5.4-10.8-5.9s-1.8.7-2.2.9c-5.4,1.7-14,7-18.7,7.8s-11.4-1-16.3-.8c.8-1,3.3-5.6.5-6s-2.6,3.6-5.4,4.6c-4.3,1.4-9.3.5-13-2.1s-5.1-6.8-6.6-6.4c-3.4,5.3-9.7,11.7-16.6,9.6s-4.2-5.3-8-4.6l2,6c-.1,0,.6,1.4-1.3,2.2-7.6,3.2-18.3-2.5-25.6-4.7-2.5-.8-9.7-.3-11.1-3.4s.2-2.1,0-3c-4.9-1.4-9.4,6.2-13,6s-1.4-.7-2-1c0-1,0-2,0-3,6.1.6,4.6-2.2,6-5s2.8-.9,2-3c-1-.9-7.5,1.3-9,2l-1-.5,2-2.5-4-.5c0-.5,2.2-1.2,3-1.5,1.7-.6,3.2,1.1,4-3,1.2.8,2.5,1,4,1,5.7,6,19.3,6.6,27,6,2.7-.2,4.6-1.8,6.2-2.7s.9.5,3.8-1.3c7.2-4.6,9.6-8.4,11-17,4.7.9,3.4,2.7,4.6,3s3.2-1.7,5-1.9c8.1-.9,16.7.3,24.9-2.9,2.2-10.5-2.5-6.8-7.9-7.1-2.5-.1-11.3-1.6-14-2.1s-3.6-2.7-6.1-3-4.9,1.3-7.4,1c-.9-6.5-7.5-17.2-13-21,.5-5-5-5.3-8.2-7.1s-1.2-2.1-2.5-2.7c-2.1-1-6.1-.5-7.8-2.2s-1.3-5.8-4-7c-2-.4-2.3,2.8-3.5,3.5-3.5,2.3-6.2-2.8-9.1-4s-5.8,1-5-3.5c.3-.3,1.9-3.5,2-4,2.3.7,2.9-2.1,3-4,.9-.2,6.7-2,6-3.5-1.4-2.8-12.2-.7-10-7.5,1.9-.8,2.7-1.3,5-2s8.8-1.4,11-2.5,1.8-3.4,2-3.5c.3-.3,3.5.2,4-1.5l-1.6-3.4c-4.2-.5-25.5-10.9-27.4-10.1l-2-5c4-.2,7.9.8,11.8,1.7,4.5,1.1,7.1,1.7,11.2,2.3s9.9,5.9,15,6c1.2,3.9-3.9,3.7-4,6.4.5,1.9,1.4,3.9,2.6,5.5,4.1,5.7,16.8,12.3,23.4,8.1.2.6-.2,1.8,0,2-4.5-.4-.4,5,.5,6,3.8,4.2,5.6,2.9,9.5,4s.7,0,1,0c1.5,6.5,9.4,9.9,12.5,15,1.4-1,1.1-2.9,2.2-4,2.7-2.7,9-7.5,12.4-10.4s10.4-4.1,8.9-10.6c3.8-2,8.4-2.8,11.1-7.4.4-.8,4-10.4,4-11,0-5.5-2.8-4.6-6-6.1s-1.7-1.9-2.8-2.2c-2.5-.8-6.2.6-8.3-.7l-.9-1.2c-.2-.7,1-1.3,1-1.4h1.9c0-.1.2-2.9.2-2.9h1.9ZM288.5,322.2c1.5-4-4.6-10.5-7.9-11.5-4.5-1.4-15.1,1.3-11.1,6.1s17.6,6.9,19.1,5.4ZM332.5,321.2c3.2,1.4,19.8-2.8,19-6.4-1.5-6.8-21.8-4.7-19,6.4ZM308.5,324.2c-3.1-.7-2.1,2.1-1.5,4,3,9.8,10,3,7.5-4-2.6.4-.5,6.7-4.5,5l-1.5-5ZM307.1,383.3c-3.7,1.2-.9,6.5,2,7.7l6.2-4.5-1.5-3.2h-6.7Z"/>
  <path class="st8" d="M382.5,403.2c2,10.4-6,9.4-12.3,13.2-2.6,1.6-4.8,4.3-8,6-11.7,6.4-55.5,16.1-67.9,13.6-2.5-.5-5.2-2.6-8.7-3.3-7.1-1.4-18.1-1.9-24.3-3.7-2.8-.8-3.9-5.4-5.7-6.3s-5.1,0-7.8-1.2c-4-1.7-2.4-5.5-10.2-7.3-.7-2-.9-3.9-1-6,4.8,4.3,11.5,4.7,16.9,7.6s8,5.7,15.4,7.6c18.9,4.8,39.5,4.6,57.9,1.5,12.7-2.1,26-4.2,38.1-8.9s16.5-6.5,14.7-12.8c.9.2,2.1-.1,3,0Z"/>
  <path class="st17" d="M433.5,380.2c0,.6.1,1.4,0,2-1.4,7.5-10.3,11.4-17,13.5s-6.8-.1-9,3c3.1,2.3,6.1,2.6,6.8,7.2s-.8,1.2-.8,1.3c-2.5-4.9-8.3-9.6-11.5-3h-1.5s0-2,0-2c4-4-6.1-5.8-9-5-.2-.6-1-1.5-1-2,8.9,2.7,8.4-6.2,13.7-8.8,4-1.9,10.9-1,15.9-2.1s9-2.9,11.3-5.2c.6.4,1.4.6,2,1Z"/>
  <path class="st17" d="M394.5,415.2c-3.3.7-2.3-5.3-3-7,2.5-.6,3.1,3.1,5.3,2.8s7.1-2.2,5.7-4.8h1.5c1.8,2.7,6.5,9.3,9.5,4,0,.5,2.1,2.8-1,5-.8-.2-2.1.2-3,0s-1.4-1.7-3-1v4c-6.8,1.2-7.9-1.3-11.5-6-2.4-.6-.8,2-.5,3Z"/>
  <path class="st17" d="M388.5,428.2l7-10c.2.7,2,1.4,1.9,3.5,0,3-3.3,7.3-6.6,7.5s-2.1-1-2.4-1Z"/>
  <path class="st16" d="M400.5,402.2c-1,0-2,0-3,0-1.8-1.3-4.8-2.7-7-3,0-.9-.3-1.8,1-2,2.9-.8,13,1,9,5Z"/>
  <path class="st26" d="M382.5,402.2v1c-.9-.1-2.1.2-3,0s-1.5-1-2-1c-.9,0-4.7-.2-5,0,.3-2.4-.8-4.1-3-5,.4-.1.5-1.3,2.2-.9s7.9,4.7,10.8,5.9Z"/>
  <path class="st17" d="M372.5,435.2l-3-7c1.2-1.2,6.5,5,6,0,1.7.8,4.3.9,5,3-3.2.2-5.5,2.8-8,4Z"/>
  <path class="st8" d="M390.5,399.2c-.1,1.8.5,2.1,2,3-.4,0-.5,2.1-3.5,2.1-3,0-2.9-1.9-3.5-2.1.4-.6.6-1.5,1-2s.9-1,1-1c.5-.2,2.3,0,3,0Z"/>
  <path class="st17" d="M374.5,427.2c-1-.5-2.8-.6-4-1v-2s6,0,6,0v2c-.9,0-1.7,0-2,1Z"/>
  <path class="st17" d="M397.5,402.2c-1.4,0-4.5,0-5,0-1.5-.9-2.1-1.2-2-3,2.2.3,5.2,1.7,7,3Z"/>
  <path class="st17" d="M380.5,426.2c.1,0,.9-1.4,2-1v2s-2-1-2-1Z"/>
  <path class="st17" d="M413.5,409.2l-1-.5,1-.5c0,.3,0,.7,0,1Z"/>
  <path class="st6" d="M379.5,403.2c1.8,6.3-9.8,10.9-14.7,12.8-12.1,4.7-25.4,6.8-38.1,8.9-18.4,3-39,3.3-57.9-1.5-7.5-1.9-9.8-4.5-15.4-7.6s-12.1-3.3-16.9-7.6c0-1,0-2,0-3,.6,0,1.5,0,2,0,1,1.2,1.8,2.4,3.3,3.2,19.2,10.4,36.7,11.7,57.7,11.8,3,0,6.1,0,9.5,0,6.1-.2,15,2.7,20.5-1.9,8.9.8,30.5-3.2,39.3-6.2s10.4-6.1,8.7-9.8c.5,0,1.4.9,2,1Z"/>
  <path class="st4" d="M233.5,392.2c1.5-.7,8-2.9,9-2,.8,2.1-1.7,2.4-2,3l-9,4c-.6,3.6.9,3,3,4,0,.6-.2,1.3,0,1.9l1.9-.9c3.6.2,8.1-7.4,13-6,.2.9-.2,2.4,0,3-1.9,1.4-5.6,1.2-5,4-2.9-.5-4.7,1.8-6,2s-1.4,0-2,0c-3.6-.3-5-2.5-7-5-.1-.2-1.9-2.8-2-3-.1-.3.1-.7,0-1,2.3-.4,4.4-3.3,6-4Z"/>
  <path class="st8" d="M291.5,499.2c3.2,7.7,11.4,10.1,19,10,1,0,2,.1,3,0-1,3.5,2,3.6,4.6,3.9,3.8.4,6.8-.1,10.4-.9-1.8,2.6-3.8,4.7-5.4,7.1s-1.3,4.6-1.6,4.9-1.7-.5-2,.6c-1,3.7,1.2,7.7,3,10.9,5.9,4.2,13.1-10.8,13-15.6s-.8-2.7-1-4c3.7-.4,5.5,2.7,6,6v1c-.6-.1-3.8-.1-4,0,0,2.5-1,5.8-2,8-1.9,3.8-6.4,7.5-7.6,12.1-2.5.6-5.4-1.2-7.7-.9s-3.9,3-8.1,2.8c-6.6-.3-7.4-4.2-9.6-5v-1h4c.9.9,1.9.9,2,1,1.6,1.4,1.6,4.1,5,2.5s3.6-3.4,3.9-4.3c.6-2.1-.8-2.8-.9-3.2-.2-1.7.4-3.1-.5-5s-2.1-1.5-2.5-2c-9.7-11.9-15.6-14.1-23-29h2Z"/>
  <path class="st12" d="M331.5,508.2c0,.3,0,.8,0,1-.4,1.2-2.3,2-3,3-3.6.7-6.6,1.2-10.4.9s-5.6-.4-4.6-3.9c9.6-1,16-5.2,20-14,0,6.6-2,5.1-2.8,8.7s.8,3,.8,4.3Z"/>
  <path class="st24" d="M318.5,494.2c1.9,1.9,6.9,3.3,9,1,1,3.2,1.4,3.5-1.4,6.6-3,3.4-5.8,3.5-9.6,4.4s-3.2,1.1-6,1c-.1-.9.2-2.2,0-3,4.6,0,8-6.1,8-10Z"/>
  <path class="st24" d="M318.5,472.2c8.1,1.7,13.2,12.2,12,20-1.4-1.9-4.9-3.1-6-4s.5-2.8-2-2c-.7-.6-2-.8-3-1,.1-.3-.1-.7,0-1,.6-1.4,2.2-2.1,2-4.4s-2.2-5-3-6.6.1-.7,0-1Z"/>
  <path class="st13" d="M322.5,486.2c.2.1,1.9,1.9,2,2,.9,1.2,2.5,5.3,3,7-2.1,2.3-7.1.9-9-1s-1.1-3.5-2-4v-1.3c2-1.1,2.1-1.9,3-3.7,1,.2,2.3.4,3,1Z"/>
  <path class="st5" d="M311.5,471.2l4-1c.7,0,1.3,0,2,0,0,0,.7,1.5,1,2s-.1.7,0,1c-1.6-.1-3.4.2-5,0-4-.6-3.5-.9-8,0s-3.3,1-5,1c5.7-4.3,5.7-2.4,11-3Z"/>
  <path class="st16" d="M304.5,457.2c.6,4.4-6.7.8-9,1-.6-4.4,6.6,0,9-1Z"/>
  <path class="st14" d="M388.5,432.2v1.9c-3.6,0-8.5,1.9-8,6.1-2.8.3-7.1,1.9-9,0,7.6-4,7-7.4,17-8Z"/>
  <path class="st28" d="M280.5,484.2c4.5,5.8,6.1,9.1,9,15,7.4,14.9,13.3,17.1,23,29-.3,1.4.9,4-.7,5-6.4,4.1-6.6-1.5-8.8-1-1.8,1.1-1.3,2.4-1.5,4s0,.7,0,1c-5.3-2.3-9.5-8.5-11-14s-1.3-11,0-17c-3.6,1-2.4,4.2-3,6-.6,0-1.4-.1-2,0-2.7.5-4.3,0-6.2.3-3.1.4-5.4,4.2-10.2-.4-1.8-1.7-.9-4.4-3.6-3.9.2-2-.1-4,0-6,1.3-1.1,3.7-10.9,6.3-13.7s6.3-3.7,8.7-4.3Z"/>
  <path class="st18" d="M259.5,469.2c.3,0,1.7-1.8,2.9-.9s.5,2.2,1.5,3c3.7,2.9,6.5,1.7,5.6,9,6.5-.4,4.9-4.1,10,1.5s.7,2.1,1,2.5c-2.4.6-7.1,2.6-8.7,4.3-2.6,2.8-5,12.6-6.3,13.7s-1.3-.3-1.8.2c-1.2,1.4.2,5-5.2,3.8.1-.6,0-1.4,0-2l2-.5v-1.5s-2,0-2,0c.8-1.2,2.5-.8,3.1-1.6,1.2-1.8-.3-5.8,2.9-5.4.7-2.1-.9-2.7-2.4-1.9s-9.5,10.9-10.7,12.8c-3.6-.4-9.5-1.6-11.8,2.1-.8-3.6-2.7-7.3-3-12h2c.8-1.6-1-3.5-1-4,0-.7,0-1.3,0-2h1.8c0-1.5.9-2.9,1.2-4,3.6-1,2.4,5.3,3.1,6h3.9c-.3,2.6.2,5.5,0,8l3.5,2.1c.9-.2.4-1.9.5-2.1s1.4.2,2-.7c1-1.4,1.3-3.5,2.6-5.2,2.3-3,14.3-14.3,11.2-17.9s-1.7,0-1.8-.2c-1-1.2.6-3.1-4-3s-.7,0-1,0l-1-4Z"/>
  <path class="st27" d="M248.5,468.2l2.5,3.1c1.9,0,2.9-1.9,3.5-2.1,1.3-.3,3.5.1,5,0l1,4c-6.4,1.8-12.2,12.8-13,19h-3.9c-.6-.7.6-7-3.1-6,0-.3,0-.7,0-1,0-.7,0-1.3,0-2,3.6-2.2,6.2-5.4,7-9,.2-.9,1.3-3.6,1-4-1.2.4-2.6-1-3-1,.2-.4.6-.9,1-1,.6-.1,1.8.2,2,0Z"/>
  <path class="st26" d="M248.5,468.2c.2-.2-.9-3.1,3.3-2s1.4,2.6,2.7,3c-.5.1-1.6,2.1-3.5,2.1l-2.5-3.1Z"/>
  <path class="st5" d="M319.5,484.2c-.1.3.1.7,0,1-.9,1.8-1,2.6-3,3.7v1.3c-.4-.2-1.4,0-2,0-.1-1.5-2.9-1.5-3,0-9.3,1.4-2.2,8.5-1,14s-.1,2.1,0,3c-5.2-.2-18.1-4.7-14.1-11.6.5-.8,5-5.2,6-6s4.4-3.1,5.1-3.5c1.3-.7,3.7-1.8,5-2s.7,0,1,0c1.9-.2,4.1.2,6,0Z"/>
  <path class="st15" d="M305.5,473.2c.5,2.4-2.8,2.6-3,3.7-1.4,5.6,5.4,8.1,10,7.3-1.3.2-3.7,1.3-5,2-1.2.2-3-.3-4,0-.9-4.1-4.2-3.8-7-1.5s-1,5-4,4.5c0-4.9,4.1-12.1,8-15,1.7,0,3.3-.7,5-1Z"/>
  <path class="st5" d="M292.5,489.2c3,.5,2.2-2.9,4-4.5,2.8-2.4,6.1-2.6,7,1.5-2.1.6-7.5,5.3-9.5,7-1.6-1.1-1.5-2.3-1.5-4Z"/>
  <path class="st24" d="M315.5,470.2l-4,1c.3,0,1.8-1,4-1Z"/>
  <path class="st16" d="M251.5,638.2c0,0,.9-.1,1,1.5.1,2.8,0,5.7,0,8.5h-2c0-3.3-.8-7.3,1-10Z"/>
  <path class="st26" d="M231.5,540.2c-.2,1.5.1,3.4,0,5h-2s0,3,0,3c-.3.3.3,2.6,0,3s-1.9-.4-2,.6c2.5,3.3-.7,5.8-1,7.4h-2c.1-2.8-.1-7.1,0-9s-.1-2.7,0-4,1.7-6.4,1.9-6.6l5.1.6Z"/>
  <path class="st0" d="M218.5,670.2c0,.6.1,1.5,0,2l-1,1c0,.1-.9-.1-1,0,.1-.1.8-2.5,1-3h1Z"/>
  <path class="st25" d="M218.5,670.2h-1c.3-.9-.6-3,.5-3,.9.2.5,2.2.5,3Z"/>
  <path class="st25" d="M217.5,673.2l1-1c-.3,1.1-1,.9-1,1Z"/>
  <path class="st18" d="M232.5,535.2c-.3,1.8-.8,3.7-1,5l-5.1-.6c-.3.2-1.9,5.9-1.9,6.6-1.6-.7-.9-2.7-1-4s0-2,0-3c2.2-4.7,3.7-6.2,9-4Z"/>
  <path class="st27" d="M233.5,529.2c-.3,2.2-.7,3.9-1,6-5.3-2.2-6.8-.7-9,4,0-.2-1.3-.7-.6-3s2.6-3.5,3.6-5l7-2Z"/>
  <path class="st21" d="M234.5,523.2c-.2,2.3-.8,4.1-1,6l-7,2c1.9-3,3.2-6.9,7-8h1Z"/>
  <path class="st21" d="M235.5,521.2h-2c-5.7-.5,1-6.1,1-6.6,0-1.4-2.4-4.1,0-5.4.8,4.2,1.4,7.3,1,12Z"/>
  <path class="st18" d="M235.5,521.2c0,.9-1,1.8-1,2h-1v-2h2Z"/>
  <path class="st14" d="M255.5,508.2c-1.1,5.2-1.4,8.1,1,13l1-9,3.5,3c.7,0,1-3.7,3.5-3-.2.8.1,2.1,0,3h-2c.2,2.6-.3,5.5,0,8l-4.3,1.9-4.3-3.8c-5.3,2.8-6.7,3.7-12.4.9-.2-.8.2-2.1,0-3h-2c.1-2.5,1.1-4.9,1-7,.7.7,2.5,1.3,3,2s.5,4,3.5,4c2,0,2.5-1.8,3.5-3,2.2-2.8,2.5-7.3,5-7Z"/>
  <path class="st22" d="M239.5,508.2c2.3-3.7,8.3-2.5,11.8-2.1,1.2-1.9,9.8-12.4,10.7-12.8,1.6-.7,3.1-.2,2.4,1.9-3.2-.4-1.7,3.6-2.9,5.4s-2.3.5-3.1,1.6,0,.6,0,1h-1.9c-.4,1.7-.8,3.4-1.1,5-2.5-.3-2.8,4.2-5,7l-1-4c-2.3.3-4.9.8-6,3-.5-.7-2.3-1.3-3-2,0-.4-.8-3-1-4Z"/>
  <path class="st15" d="M238.5,531.2c2.7-1.2,3.1,2,3.6,2,1.4.2,3-1,4.4-1,3,0,3.8,4.2,3.7,6.7s-3.1,3.7-2.7,6.3l6,1c-1.1,0-3,1.3-6,1s-2.7.3-3.6-1l-.5-4h-6c.3-2,.9-6.2,1-8l2-.5-2-.5c0-.7,0-1.3,0-2Z"/>
  <path class="st8" d="M239.5,519.2h2c.2.9-.2,2.2,0,3,1.3,5.2,2.2,4.4,6,7l-1,3c-1.3,0-3,1.2-4.4,1s-1-3.3-3.6-2c-.2-3,.8-7,1-12Z"/>
  <path class="st15" d="M236.5,547.2l1,4.4c-.3,1.2-1.8.4-2,.6-.8-2.1.7-3.8,1-5Z"/>
  <path class="st26" d="M240.5,485.2c0,.3,0,.7,0,1-.2,1.1-1.1,2.5-1.2,3.9h-1.8c0-1.2,1-3.2,1.2-4.7h1.8Z"/>
  <path class="st26" d="M237.5,492.2c0,.5,1.8,2.4,1,4h-2c0-1.3-.4-3.3,1-4Z"/>
  <path class="st24" d="M231.5,545.2c-.4,5.1-1.2,2-2,3v-3s2,0,2,0Z"/>
  <path class="st8" d="M238.5,533.2l2,.5-2,.5c0-.3,0-.7,0-1Z"/>
  <path class="st16" d="M250.5,668.2h2c.8,1.6-1,3.5-1,4-1.5-.7-1-2.7-1-4Z"/>
  <path class="st28" d="M223.5,371.2l2,3c-2.1,1.1-5.6,2.7-7.3,4s-.6,2-.7,2c-.8.5-5.3,2.8-6,3s-1.4,0-2,0-1.9,0-2,0c-1,0-2,.1-3,0,.6-2.8-2.1-2.3-4-3-3.2-1.1-6-1.6-9-4,.7-.4.9-.6,2-1,4-1.3,8.9-1.4,13-2s4.7-.6,7-1,6.5-.1,10-1Z"/>
  <path class="st9" d="M233.5,387.2c-.8.3-3,1-3,1.5l4,.5-2,2.5,1,.5c-1.6.7-3.7,3.6-6,4-1.2-3.1.2-3.4-.1-5.3-.6-3-13.2-4.2-15.9-7.7.7-.2,5.2-2.5,6-3,2.8,5.7,11,3.8,16,7Z"/>
  <path class="st9" d="M200.5,380.2c1.9.7,4.6.2,4,3-2-.2-4.7-.7-4-3Z"/>
  <path class="st9" d="M209.5,383.2l-.5,1-1.5-1c.1,0,1.9,0,2,0Z"/>
  <path class="st19" d="M215.5,369.2c-.7,0-1.3,0-2,0-3.7-.2-7.6-.9-7,4-4.1.6-9,.7-13,2,0-2.2,2.5-4.4,3-6,2.9.7,6.9-1.8,9-2,3.1-.3,7.4.2,10,2Z"/>
  <path class="st16" d="M200.5,228.2l2,.5c-.4,2.2-1.8,4.2-2,6.5s0,1.3,0,2c-1.5.7-1,2.7-1,4-.2,5.6-1.5,9.6-2,15,0,.7,0,1.3,0,2s0,1.3,0,2c-1.2,13.3-2.3,27.1,2.3,40.2s4.2,5.1,3.7,8.8c-.3,0-.7,0-1,0-.5,0-1.4-.9-2-1,0-.8-.9-1.5-1-2-1.2-4.3-1.4-5.2-4-9-.1-.2-.9.2-1,0s.1-.7,0-1c-.3-.6.1-1.7-1-2,0-.7,0-1.3,0-2,0-1,0-2,0-3-.2-3.3-1-6.2-1-10s0-2.7,0-4c0-2.9-.2-6.2,0-9,1-11.6,4.6-26.8,8-38Z"/>
  <path class="st24" d="M198.5,196.2c0-.3,1.4-2.6,2.5-2l6.1,7.9c1.3.5,1.9-1,2.5-2l2,1c-.7,1.1-.9,4.5-1,6s0,.7,0,1l-9-9c-.8,8.6,1,16.7,7,23-5.3-1.2-9.7-7.7-16-3.5,2.4,4.6,6.6,5.3,11,7.5-1,.1-2.1-.2-3,0s-1.3,1.3-2.9.5-8.9-7.3-9.1-8c.2-4.7,11-1.4,12-2.5-1.4-6.3-1.3-11.2-1-17.4s-1-2.2-1-2.6Z"/>
  <path class="st10" d="M213.5,193.2h3c.4,1.2-1,1.9-1,2-1.7.9-.8,3.4-1,5-1.3-.1-2.2-.3-3,1l-2-1c1.3-2.1,2.1-5,4-7Z"/>
  <path class="st13" d="M203.5,226.2c4.9,2.5,3.9,1.7,10,2s2.3,1.4,4,0c.8,3.4,1,1.5,3,3s.6.7,1,1l4,4c9.4,9.9,14.1,22.8,22,31,.3.3.7.7,1,1,.6.6.9,1.7,2,2-4.1-.6-6.6-1.3-11.2-2.3-3.9-.9-7.8-1.9-11.8-1.7l2,5c-.3,0-1.2,2.5-2,2,.3-3-3.3-2.1-5-3-2.8-1.4-4-4.1-2.5-7,2.3-4.7,14.7,1.5,19.1,2s1.7-.9,1.2-2.2c-1.6-4.4-18.4-27.6-22.2-29.8s-10.3-2.9-11.2-2.9c-2.4-.1-2.3.5-3.4,2-1.1,1.5-.7,3.6-3,3,.2-2.3,1.6-4.3,2-6.5l-2-.5c.2-.5-.1-1.4,0-2,.9-.2,2,.1,3,0Z"/>
  <path class="st18" d="M247.5,529.2c4.7,3.3,2.2,1.6,4.1,6.2s1.8.8,1.9,1.5c.5,2.2-1.2,4.6-.9,5.7s1.8,1.5,2.9,3.6c-.7,0-1.3,0-2,0l-6-1c-.4-2.6,2.6-3.9,2.7-6.3s-.7-6.8-3.7-6.7l1-3Z"/>
  <path class="st27" d="M256.5,548.2c-.6-.3-.7-.3-1-1l1,1Z"/>
  <path class="st22" d="M290.5,523.2c1.5,5.5,5.7,11.7,11,14,0,.7,0,1.3,0,2v1c-.9-.3-8.4-2.1-8.8-1.9-2.5,1.4-1.4,5.7-1.2,7.9h-2c-.6-2.6-6.5-7.7-6-12l-4,10c-4.6-6.6-9.7-9.8-12-18,4,1.1,9.2,3,13.3,2s3-9.8,9.7-5Z"/>
  <path class="st8" d="M357.5,516.2c.4,0,1.4.8,2,1-.7,2.4-1.4,3.5-2,5-3.8-1-3.4,3.2-6,4.5-1.6.7-5.6,1.7-8,2.5s-.7-.1-1,0c0-1.7,0-3.6-1-5,6.8,2.6,12.3-7.5,16-8Z"/>
  <path class="st22" d="M357.5,522.2c-1.9,5.2-.9,3.9-4,9l-10,1v-3c2.4-.8,6.4-1.8,8-2.5,2.6-1.3,2.2-5.5,6-4.5Z"/>
  <path class="st14" d="M340.5,542.2c.5,2.1-1.3,4.7-1,6.4s3.5,1.3,2,4.6l-7-1c.6-2,1.6-7,2.9-8.5s1.8-1.4,3.1-1.5Z"/>
  <path class="st22" d="M340.5,523.2c.6.1.7.6,1,1,1,1.4,1.1,3.3,1,5-.3.1-.7,1.7-1.8,2-1.9.4-4.3-.2-6.2,0,1.1-2.2,2-5.5,2-8,.2-.2,3.4-.2,4,0ZM341,526.2v1c.6-.3.6-.7,0-1Z"/>
  <path class="st14" d="M341.5,542.2c-.2-1.3,0-2.7,0-4h2s0,4,0,4h2c-.9,1-1,2.2-3,2,0-.3-.9-1-1-2Z"/>
  <path class="st13" d="M303.5,556.2c.2.8-.3,2.4,0,3h-1c-.2-.6-1.7-1.3-1-3h2Z"/>
  <path class="st15" d="M236.5,564.2l5.1.6c2,4.4,4.2,11.3,6.5,15.3s6.8,7.3,8.4,12.1c-3.4-.6-6-5-7.8-7.7-4.6-6.8-7.2-14-12.2-20.3Z"/>
  <path class="st15" d="M233.5,558.2h2s0,5,0,5c-.5-.4-1.4-.6-2-1-.2-1.3,0-2.7,0-4Z"/>
  <path class="st25" d="M262.5,523.2c.8,7.1,5.2,13.1,10,18,.5,11.3-8.9-2.2-11,6-2-.6-3.9-1-6-1-1-2-2.8-3.3-2.9-3.6-.3-1.1,1.3-3.6.9-5.7s-1.6-.6-1.9-1.5c-1.9-4.6.6-3-4.1-6.2s-4.7-1.8-6-7c5.7,2.8,7.1,1.9,12.4-.9l4.3,3.8,4.3-1.9Z"/>
  <path class="st21" d="M265.5,508.2c2.7-.5,1.8,2.1,3.6,3.9,4.8,4.6,7.1.8,10.2.4s3.5.2,6.2-.3c-.5,6.4-6.1,5.2-9.7,8.8l-9.3-2.8c-.1-.4-2-1.9-2-3,.1-.9-.2-2.2,0-3,.4-1.6.8-1.7,1-4Z"/>
  <path class="st18" d="M290.5,523.2c-6.6-4.8-8.5,4.8-9.7,5-4.1,1-9.4-.9-13.3-2-.4-1.3-.7-2.7-1-4l11.8,2.9c.7-3.3,4.5-3.5,6.2-5.6s2.3-5.3,3-7.3-.6-5,3-6c-1.3,6-1.6,11,0,17Z"/>
  <path class="st27" d="M287.5,512.2c-.7,2-1.8,5.8-3,7.3s-5.5,2.3-6.2,5.6l-11.8-2.9c-.3-1.1.3-2.9,0-4l9.3,2.8c3.6-3.6,9.2-2.4,9.7-8.8.6-.1,1.4,0,2,0Z"/>
  <path class="st14" d="M285.5,547.2l-2,1c.3-.3.4-1.2,1-1.6.8-.6.9.6,1,.6Z"/>
  <path class="st28" d="M350.5,488.2v2s2,0,2,0c2,3,3.2,5.1,3,9s-1.9,7.6-2.6,8.9-8,9.8-9.1,10c-5-1.6-8.1-7-9.4-11.9.2-.3,0-1.8.6-2.9,1.8-3,7.3-15,8.9-16.2,2.4-1.8,4.3-.1,6.6,1.1Z"/>
  <path class="st9" d="M357.5,499.2c-.1,1.6.2,3.4,0,5-.6,3.9-7.5,15.4-11.2,17.3-1.8.9-3.8.8-5.8.7-.5-3.3-2.3-6.4-6-6-.4-2.4.2-7.3-3-7,0-.2,0-.7,0-1,.3-1.7,2.9-1.8,3-2,1.3,4.9,4.3,10.3,9.4,11.9,1-.2,8.3-8.6,9.1-10s2.5-7.7,2.6-8.9h2Z"/>
  <path class="st10" d="M360.5,496.2c.6,0,1.4,0,2,0,.1,2.3.2,6.3,1,8.3s1.9.6,2,.7-.1.7,0,1c.2.5-.1,1.4,0,2-2.4.6-4.3-.9-6-2s-1.3-1.4-2-2c.2-1.6-.1-3.4,0-5s0-2,0-3c1-.1,2,.1,3,0Z"/>
  <path class="st9" d="M350.5,488.2c.3.2,1.3-.3,1.8.2s0,1.6.2,1.8h-2s0-2,0-2Z"/>
  <path class="st17" d="M366.5,492.2c.2.5-.1,1.4,0,2,.3,1.4.3,2.5,2,3,.4,1.6,1.4,3.1,1,5-2.5-.7-2.2-4.7-5-6s-.6,0-1,0c-.2-1.1.3-3.1,0-4h3Z"/>
  <path class="st8" d="M366.5,494.2c3.2-.6,1.5,1.3,2,3-1.7-.5-1.7-1.6-2-3Z"/>
  <path class="st19" d="M366.5,506.2h-1c-.1-.3.2-.8,0-1h1v1Z"/>
  <path class="st10" d="M367.5,506.2h-1v-1h1c.1.3-.1.7,0,1Z"/>
  <path class="st13" d="M364.5,496.2c.5,3.1,1.9,6.1,3,9h-2c-.1-.1-1.5.5-2-.7-.8-2-.9-6-1-8.3.3,0,.7,0,1,0s.8-.1,1,0Z"/>
  <path class="st19" d="M360.5,514.2c-.2,1.8-.7,2-1,3-.6-.2-1.6-1.1-2-1,0-.7,0-1.3,0-2h3Z"/>
  <path class="st13" d="M361.5,514.2h-1c0-.7,0-1.3,0-2,1.3.5.8,1,1,2Z"/>
  <path class="st6" d="M359.5,506.2v6c-.7,0-1.3,0-2,0,0,.7,0,1.3,0,2s0,1.3,0,2c-3.7.5-9.2,10.6-16,8-.3-.4-.4-.9-1-1v-1c1.9,0,4,.1,5.8-.7,3.8-1.9,10.7-13.4,11.2-17.3.7.6,1.3,1.5,2,2Z"/>
  <path class="st8" d="M359.5,512.2c.3,0,.8,0,1,0,0,.7,0,1.3,0,2h-3c0-.7,0-1.3,0-2,.7,0,1.3,0,2,0Z"/>
  <path class="st2" d="M227.5,228.2c.7.3,1.3.7,2,1,4.7,2.5,19.3,9.1,22,11s8.2,6.2,12,9c7.4,5.5,13.9,10.8,17,20l2-.5v-4.5c1,0,2-.1,3,0s.7,1.5,2,1l-1-6c2-2,14.8,13.1,15-1h1.5c3.1,2.4,6.6.6,8.7,1.1s8.3,6.4,10.4,6.7,2.3-1.3,3.3-1.8,2.6,1,2-2c.3,0,3.5-1.5,5-2v3c0,1.7,0,3.3,0,5s-1.1.7-1,1.4l.9,1.2c2.1,1.2,5.8-.1,8.3.7s1.8,1.7,2.8,2.2c3.2,1.5,6,.6,6,6.1s-3.6,10.3-4,11c-2.6,4.6-7.3,5.4-11.1,7.4s-5.6,2.6-8,4-.8.9-1,1c-.9.5-1.4,1.5-3,1,.2-1.1.2-3.9,0-5,1.7-.5,8.4-7.7,7-9-2.3,0-5.4-.3-7.4,1.1s-1.2,3.3-1.6,3.9-3.7,1.3-4,3c-.3-.3-.7-.6-1-1,.2-.2-.2-1.5,0-2,1.6-4.6,0-2.3-2.4-5.1s.1-3.7-2.6-2.9c-.4-2,1.4-5.8-2-5l-1,9h-3c-.1.6.1,1.4,0,2s.1,1.4,0,2c-6.3,1.2-2.7-2.5-4.6-4.1s-5.9-2.4-6.4-1.9l2,8.4-6,1.6c-.2-.2-1.2,0-2-1s.2-1.4,0-2c-6.6,4.2-19.3-2.3-23.4-8.1-1.1-1.6-2.1-3.6-2.6-5.5,0-2.7,5.2-2.6,4-6.4-5.1-.1-10.7-5.4-15-6-1.1-.3-1.4-1.4-2-2l-1-1c-7.9-8.2-12.6-21.1-22-31s-2.2-2.5-4-4-.7-.7-1-1c-.7-2.5,1.5-3.2,2.6-5.1,1.4.8,3,1.4,4.4,2.1Z"/>
  <path class="st5" d="M381.5,264.2c-.6-3.3,1.7-1.6,3.5-2,3-.6,9.1-.8,10.8-1.2,1.8-.5,3.3-3.9,6.4-4.6,4-.9,11.6,2.3,13.3-3.2,2.5,1.2-.5,9.4,4,9,.4.8.7,1.6,1,2.4,3.3,8.8,1.9,17.5,0,23.5-2,8.3-4.1,16.7-6.1,25-1.9,1.6-3.5,2.7-4.8,3.4-4.4,2.3-8.4,2.1-14.3,4.7-4.7,2.1-2.7-2.2-9.5-5.9-1.3-1.5-.9-9.6-1.5-10.1h1c6.3,3.2,11-3.4,14-8-2,0-4.4-.4-4-3,2.3-.5,7-3.2,7-5.5,0-.8-1-1.4-1-1.5,0-1,.2-2.2,0-3-1.1-5.7-3.9-3.3-4.1-4.5,1.1-3.3,4.6-14.6-1.4-14.5-.3,0-5.3,1.8-5.5,2-.2-.4-.9-.7-1-1-.3-.8,0-2.5-1.4-2.7-2.2.8-4.3.9-6.6.7Z"/>
  <path class="st20" d="M275.5,336.2c5.5,3.8,12.1,14.5,13,21s.4,9.5,0,12-1.5,1.7-1,3l-2-1-4.1-14.9c-7.7,1.4-9.8-2.5-15.9-5.1,0-.6,0-1.3,0-2h2c-.1-2-.7-4.6-3-4-.1-.3.1-.8,0-1-.3-.5-.4-1.2-.9-1.5-4.7-2.4-3.8,1.3-4.1,1.5-1.6,1.2-5.1.8-3.9,5.3.9,3.2,4.4,2.6,6.9,2.7s.5.8,1,0h1c-.3.7.6,2.4-.6,3.1-6.4,1-10.9,1-16.4,4.9.5-4.1.4-7.9,2-12-5.5-.2-9.4,9.8-10,14.5-.2,1.6-1.2,8.1,2,7.5-.8,4.8.9,5.2,3,8s1.5,2.6,2,3c0,2.3-1.1,3.4-3.5,3-.9-1.7-1.5-2.6-3.5-3-1.3-1.8-5.7-6.6-6-7s-1.6-4.9-2-6-.5-2.5-1-4c-1.2-4,.8-5.2-6-6v-3c3.7.2,5.1-3.3,7-5s4.1-4.2,6-6c3.9-3.5,8.2-6.5,12-10,.7-.2,2.6-.9,3-1,1-.2,3.7-1,4-1,7.2-.7,13,0,19,4Z"/>
  <path class="st2" d="M381.5,234.2c4.1-1.1,10.7-5.4,13-1,0,0,.1,1.2-.3,1.6-11.2,10-16.9,24.2-26.7,35.4-5.2.9-11.2,2.7-16.4,1.9-.9-.1-8.2-2.1-8.6-2.4-1.1-.8-.8-3.5-2-4.5,3-4.3,2.8-9.7,10-12s2.4.4,2.9,0,0-1.6,0-1.9c1.2-1.9,4.9-4.3,7-5s2.8.3,4,0v-3c2-1.2,2.6-1.9,5-3s.7-.6,1-1c2.7-1.6,3.9-2.2,7-3,.4-.1.8-.6,1-1,.6,0,2-.7,3-1Z"/>
  <path class="st21" d="M235.5,313.2c-.9,4.6,2.1,2.4,5,3.5s5.5,6.2,9.1,4,1.4-4,3.5-3.5c2.7,1.3,2.5,5.6,4,7s5.7,1.2,7.8,2.2,1.4,2.1,2.5,2.7c3.2,1.7,8.7,2,8.2,7.1-6-4.1-11.8-4.7-19-4l-4,1c-.4,0-2.3.8-3,1s-1.7,0-2.9.5c-2.8,1.3-5.5,5.6-10.1,4.5l1,5c-1.9,1.8-3.7,4-6,6-2.9-2.4-5.8-1.6-9-2,2.7-7.6-1-12.3-8.9-10.1l-1.1-2.9,1-2c5,.3,4-1,6-2,11.2-5.2,5.5-7.1,11-14.5,1.9-2.6,4.2-2.7,5-3.5Z"/>
  <path class="st24" d="M218.5,276.2c.6,1.3,2.1,1.9,3,3s2,3.8,3.7,5.1,2.5.5,3.3.9,1.8,1.6,3.3,2.2c2.8,1.2,9.6,1.1,9.7,4.8-2.3.7-3.1,1.2-5,2s-4.6,2-7,3l3,4c-.1,0-1,1.2-2.4,1s-3.9-3-6.6-2c-.3,6.8,6.1,3.6,9.5,3.9s3.1,1,3.5,1c-5.8,4-8.2,10.5-15,13-.2-.1-3.6-.9-4-1-4.7-2-9.3-3.1-12-8,1.1-.2,2.8-1.3,4-1.5.2-6.1-8.8-15.4-8-17.9,2-2.5,6.6-1.3,8.7-3.9s.7-3.2,1.7-4.4,6.4-5,6.6-5.3ZM232.5,292.2l-12-1v3c3.5-.4,9.6,1.4,12-2Z"/>
  <path class="st20" d="M388.5,350.2c1,2,.5,4,0,6l3.9,1.2c.4.5,0,1.3.1,1.8-.9.8-2.1,1.3-3,2.5s-.6,1.9-1,2.5c-1,2-1.3,3.2-2,5l-4,.6c-1.4-1.1-.4-5.1-3-5.6,0-2,0-4,0-6,.8-.6.1-.7,0-1-1.7-3.9-3.4-5-6-8s-.4-2.3-2.5-4-12.1-5.5-14.9-5-2.4,1.5-4,1.9-2.2-.9-3-.7c-1.6.3-1.3,2.6-1.6,2.9-2.7,2.5-5.1,1.2-4,7-6.2,2.5-7.7,9.2-9,15-.7,3.4-1.4,6.4-1,10h-1s0-2,0-2h-2c-.6-13.3-1.1-20.1,6.6-30.9s4.4-4.7,6.4-7.1c12.4-7.2,25.2-4.1,35.9,4.6s8.2,7.7,9.1,9.4Z"/>
  <path class="st27" d="M404.5,337.2h1c.1,2.6,2.1,5.1-.4,7.1-2.6,2.3-6-1-8.9,0s-3.1,6.2-6.7,5.9h-1c-.9-1.7-7.2-7.9-9.1-9.4-10.7-8.6-23.6-11.8-35.9-4.6.2-.2,0-1.4.5-2,2.1-2.5,14.5-5.1,18-5.1s9.5,3.8,13.2,4.9c2.1.6,5-.2,6.3.2s3.2,4.5,6.9-.7l-2.9-14.3h1c4.1,8,8.1,17.1,18,18Z"/>
  <path class="st21" d="M288.5,357.2c2.5.3,4.9-1.2,7.4-1s3.8,2.5,6.1,3,11.5,2,14,2.1c5.4.2,10.1-3.5,7.9,7.1-8.1,3.2-16.8,2-24.9,2.9-1.8.2-4,2.2-5,1.9s.1-2.1-4.6-3-.6-.8-1-1c.4-2.5.3-9.4,0-12Z"/>
  <path class="st15" d="M388.5,364.2l12,7c0,0-.5.9-1.3.8-4-.7-7.9-6.5-10.7,2.7.5,2.2,9.9,2.5,12,3s16.4,5.8,14.9,0c-.3-1.1-3.8-1-3-3.5,2.6.2,5.4.6,8,1-.3,4,4.3-.1,3,5-6.9.6-13.3,4-20.4,1-2,6.6-10.2,4.2-13.6,6.5s1.9,3.1,2.1,4.2-1.1,2.1-1.1,2.3c-3.1.5-6.8-2.5-9-3l4-1.5c-.4-5.4-4.9-3.1-9-3.5v-1c2.9.5,2.4-2.3,3-3,4.9-5.9,4.3-6.4,7-13,.7-1.8,1-3,2-5ZM399.5,383.2c-1.4-5.3-11.4-4.1-15-1-1,5.6,14.2,2.1,15,1Z"/>
  <path class="st16" d="M374.5,365.2c0,.3,0,.7,0,1-8.5-1.7-19.8-3.1-28.4-1.9-4.7.7-6.1,4.6-10.4,6.2-.6.9-.2,2.6-.2,3.8,0,2.4.4,2.3,1,4s.5,1.2,1,2c2.3,3.2,2.6,2.4,5,4s.7,1.4,1.6,1.8c10.7,5.1,20.2,3.7,28.4-4.8.6-.7,1-1.1,2-1-1,1.9-2.1,2.6-2,4.5.1.5,2.5,1.4,3,1.5-9.9,10.1-35.5,5.4-42.2-6.3-.7-1.2-.6-3.6-.8-3.7-.5-.5-1.9,1.6-2-2h2s0,2,0,2h1c-.4-3.6.3-6.6,1-10,4.8-.9,7.6-4,12.8-4.7,6.5-.9,17.6-1.4,23.5,1s2.4,1.9,3.8,2.7Z"/>
  <path class="st21" d="M249.5,399.2c1.4,3.1,8.5,2.7,11.1,3.4,7.3,2.2,18,7.9,25.6,4.7s1.2-2.1,1.3-2.2c.6-.4,4.5,1.6,6,2-1.2,10.2-15.4,5.2-21.7,4.2s-9.6-.5-12.5-1.5-11.6-6.3-14.7-6.8c-.6-2.8,3.1-2.6,5-4Z"/>
  <path class="st11" d="M334.5,404.2c-2,.1-5.3,1.8-7,3-1.5-.2-3.6.3-5,0-5.9-1.2-7.8-2.3-12.5-6l-7.5,6c-.2-.1-1.5,0-2,0-3,.1-3.1.9-7,0s-5.4-2.4-6-2l-2-6c3.7-.7,4.9,3.6,8,4.6,6.8,2.2,13.2-4.3,16.6-9.6,1.4-.4,4.4,4.9,6.6,6.4,3.7,2.6,8.7,3.6,13,2.1,2.8-.9,3.4-4.8,5.4-4.6s.3,4.9-.5,6Z"/>
  <path class="st21" d="M369.5,397.2c2.2.9,3.3,2.6,3,5-.3.2-.8,2.6-4.8,3.7-16.8,4.7-23.6,3.9-40.2,1.3,1.7-1.2,5-2.9,7-3,4.8-.2,10.1,1.8,16.3.8s13.4-6,18.7-7.8Z"/>
  <path class="st13" d="M413.5,227.2c0,.9,1.5,3.3,2,4h-1c-2.5-.8-1.8,1.8-2,2s-1.6,0-2,0c-3.3-.6-4.9-1.9-9.1-.6-7.7,2.4-20.7,22.7-24.9,30.1,1.2.7,3.7,1.4,5,1.5,2.3.1,4.4,0,6.6-.7,1.4.2,1.1,1.9,1.4,2.7-7.6,0-14.8,2.7-22,4,9.7-11.2,15.5-25.4,26.7-35.4.5-.4.3-1.5.3-1.6.2-.1,3.8-1.9,4-2,1.7-.7,2.7-.6,4-1s4-.4,6-1c.8,1.2,1.6.2,2-1,.8-.4,2.9-.9,3-1Z"/>
  <path class="st21" d="M231.5,368.2c.4,1.1,1.8,5.7,2,6,.9,3.7-4.4.3-3,4.5s6.3,5,7,5.5c-.8,4.1-2.3,2.4-4,3-5-3.2-13.2-1.3-16-7,0,0-.3-1.3.7-2,1.7-1.2,5.3-2.9,7.3-4l-2-3c2-.5,5.3-3.1,8-3Z"/>
  <path class="st5" d="M375.5,234.2c.3,1,1.1,1,2,1v1c-3.1.8-4.3,1.4-7,3-.4.2-.7.7-1,1-2.5,1.1-3,1.8-5,3s-3.4.5-4,3c-2.1.7-5.8,3.1-7,5-1.5,0-2.6.6-3,2-7.2,2.3-7,7.7-10,12s-2,1.1-2.5,2c-.8-.3-1.1-1.7-1.5-2-.9-.7-1.6-1.7-3-2v-3c4.3-1.6,11.4-5.5,13-10,.6-.1,1.4,0,2,0s1.3.1,2,0v-2c3.3-1.9,4.6-2.1,5-6,2.8.7,5.4-3.8,6-4s2.1.2,3,0c4.3-1,6.9-2,11-4Z"/>
  <path class="st4" d="M380.5,273.2c0,3.8-6.6,2-5,8-.6.5-2.3,3.1-3,4,2.9-.5,5.4.6,8,1v1.3c-1.8,1-2.5,1.4-2,3.7-2,0-7.8-.3-10-1s-11-5.1-8.6-9,17.9-7.2,20.6-8Z"/>
  <path class="st26" d="M222.5,270.2c1.7.8,5.3,0,5,3,.8.5,1.7-1.9,2-2,1.9-.7,23.2,9.7,27.4,10.1l1.6,3.4c-.5,1.7-3.7,1.3-4,1.5-3.3-1.9-7.4-3.8-11-5-5.8-1.9-9.7-3.7-16-3l2-1v-1s-9-3-9-3c.4-.5.2-2.6,2-3Z"/>
  <path class="st5" d="M298.5,305.2c.1.9-.2,2.2,0,3-.3,0-.7,0-1,0l-1-3h2Z"/>
  <path class="st5" d="M334.5,298.2c1.5,6.5-5,7.3-8.9,10.6s-9.7,7.7-12.4,10.4-.8,3-2.2,4c-3.1-5.1-11-8.5-12.5-15,5.3,1.2,7.9,8.2,14.4,7s9-7.4,9.6-11c1.6.5,2.1-.5,3-1l1-1c2.4-1.4,5.5-2.7,8-4Z"/>
  <path class="st4" d="M288.5,322.2c-1.5,1.5-17.7-3.7-19.1-5.4-4-4.9,6.6-7.6,11.1-6.1,3.3,1.1,9.5,7.6,7.9,11.5Z"/>
  <path class="st21" d="M378.5,291.2c.7,0,1.3,0,2,0s.7,0,1,0v3c.6.1,1.4-.1,2,0s1.4-.1,2,0c0,1.2,1.1,3.1,1,4s-1.4,1-1,2c-1.2.2-2.9-.3-4,0-6.5,1.5-6.7,1.4-5,8-4.6-.7-3.8-8.3-4.7-11.8-.9-3.3-2.6-3.5-3.3-6.2,2.2.7,8,.9,10,1Z"/>
  <path class="st21" d="M247.5,373.2c4.8,12.8,23.5,11,34,7-.7,1.4-.4,2-1.9,3.6s-4.9,3-4.1,3.4h3c-2.9,1.8-3.4,1.1-3.8,1.3-1.6.9-3.5,2.5-6.2,2.7.3-.7.7-1.3,1-2s1.1-.1,1-1.5c-2.8-3.6-5.1-1.9-8.4-2.6s-9.1-1.8-12.6-2.9-2.1-.3-3-1-1.4-2.2-2-3l1-5c.7,0,1.3,0,2,0Z"/>
  <path class="st26" d="M332.5,321.2c-2.9-11.1,17.4-13.2,19-6.4.8,3.6-15.8,7.9-19,6.4Z"/>
  <path class="st26" d="M237.5,309.2c-.1.5-1.7,3.7-2,4-.8.8-3.1,1-5,3.5-5.5,7.4.2,9.3-11,14.5-.8-.4-2.3-1.9-3-2,2.1-.2,2.9-2.1,4-3s4-1,5-4.5-2.6-.7-3.8-1.7-.1-1.7-.2-1.8c6.8-2.5,9.2-9,15-13,.3,0,.7,0,1,0-.2,1.3.2,2.9,0,4Z"/>
  <path class="st13" d="M390.5,267.2c.2-.2,5.2-2,5.5-2,6-.2,2.6,11.2,1.4,14.5.1,1.2,2.9-1.2,4.1,4.5l-11,1v-2c1.4-1,3.4-4.1,3-6-.6-2.9,6.2-5.4,4.5-8s-6.3,2.4-8.3,2.9-2.1-.9-2.2-.8c.8-.8,2.3-3.6,3-4Z"/>
  <path class="st24" d="M393.5,277.2c-6.2.6-12.6.1-18,4-1.6-6,5-4.2,5-8,2-.6,5-1.5,7-2s.8,1.2,2.2.8c2-.5,6.2-6.1,8.3-2.9s-5.1,5.1-4.5,8Z"/>
  <path class="st11" d="M386.5,369.2c-2.7,6.6-2.1,7.1-7,13-2,0-3.1,1-3,3v1c-.3,0-.7,0-1,0-.5,0-2.9-1-3-1.5,0-1.9,1-2.6,2-4.5s2.3-3.1,3-5-.1-.7,0-1c.2-.5-.2-1.4,0-2,.8-2.9,1.8-2.4,2-8,2.5.5,1.5,4.5,3,5.6l4-.6Z"/>
  <path class="st16" d="M239.5,381.2c2,.4,2.7,1.4,3.5,3,2.3.3,3.4-.7,3.5-3,.9.7,2,.7,3,1,2.9,5.1,7.7,5.6,13,6l6,1h1c-.3.7-.7,1.3-1,2-7.7.6-21.3,0-27-6s-1.2-3-2-4Z"/>
  <path class="st15" d="M254.5,286.2c-.2.1-.2,2.6-2,3.5s-8.2,1.6-11,2.5c-.1-3.7-7-3.6-9.7-4.8s-2.3-1.7-3.3-2.2c2.6-.3,20.4,6.3,19,.5l-4-4.5c3.6,1.2,7.7,3.1,11,5Z"/>
  <path class="st21" d="M385.5,319.2l2.9,14.3c-3.7,5.2-5.5,1.1-6.9.7,1.9-4.8-1-13,3-16,.3.3.8.6,1,1Z"/>
  <path class="st16" d="M289.5,370.2c-1.4,8.6-3.8,12.4-11,17h-3c-.8-.5,3.1-2.4,4.1-3.4,1.5-1.6,1.2-2.1,1.9-3.6s-.1-.7,0-1c.6-1.3.6-1.8,1-3s.8-1.1,1-2,1.1-1,1-3h1l2,1c-.5-1.3.9-2.5,1-3,.4.2.8,1,1,1Z"/>
  <path class="st21" d="M236.5,294.2c-2.2,6.9,8.6,4.7,10,7.5s-5.1,3.3-6,3.5c-.1,1.9-.7,4.7-3,4,.2-1.1-.2-2.7,0-4,.3,0,.7,0,1,0,.7,0,1.4.1,2,0,0-.6.2-1.3-.1-1.9-.4-.4-1.6,0-1.9-.1-2.6-1.6-2.3-2-6-2l-3-4c2.4-1,4.6-2,7-3Z"/>
  <path class="st18" d="M381.5,300.2c0,1.1-.8,2.1-1,3-1.4,5.4,3.2,7.5,5.5,12.1s.3,3.5.5,3.9h-1c-.2-.4-.7-.7-1-1s-.6-.7-1-1c0-2.4-1.5-2.9-3-4s-.6-.7-1-1v-2s-2,0-2,0c-.2-.5-1-1.9-1-2-1.7-6.6-1.5-6.5,5-8Z"/>
  <path class="st26" d="M287.5,298.2c.8,1,1.8.8,2,1,2.9,2.4,8.6,2.8,9,6h-2s1,3,1,3c-3.9-1.1-5.7.3-9.5-4s-5-6.5-.5-6Z"/>
  <path class="st13" d="M307.1,383.3h6.7s1.5,3.2,1.5,3.2l-6.2,4.5c-2.9-1.2-5.7-6.5-2-7.7Z"/>
  <path class="st10" d="M381.5,391.2c2.2.5,5.9,3.5,9,3,0,.3,0,.7,0,1,0,.5.8,1.4,1,2-1.3.2-.9,1.1-1,2-.7,0-2.5-.2-3,0,.2-3-1.6-2.3-3-3-2.7-1.3-5.8-2-8-4.5.8-.8,4-.7,5-.5Z"/>
  <path class="st15" d="M233.5,374.2c.3.4,4.7,5.2,6,7s1.2,3.2,2,4c-1.5,0-2.8-.2-4-1s-6.9-5.1-7-5.5c-1.4-4.2,3.9-.8,3-4.5Z"/>
  <path class="st26" d="M308.5,324.2l1.5,5c4,1.7,1.8-4.6,4.5-5,2.5,7-4.5,13.8-7.5,4-.6-1.9-1.6-4.7,1.5-4Z"/>
  <path class="st21" d="M240.5,393.2c-1.4,2.8,0,5.6-6,5,0,1,0,2,0,3,.6.3,1.9,1,2,1l-1.9.9c-.3-.6,0-1.3,0-1.9-2.1-1-3.6-.4-3-4l9-4Z"/>
  <path class="st4" d="M336.5,265.2h-1.9c0,.1-.2,2.9-.2,2.9h-1.9c0-1.5,0-3.2,0-4.9h1c1.4.3,2.1,1.3,3,2Z"/>
  <path class="st26" d="M387.5,399.2c0,0-.8.8-1,1-1.8-.5-2.2-2.3-2-4,1.4.7,3.2,0,3,3Z"/>
  <path class="st27" d="M383.5,317.2c-.8-.7-3.9,0-3-4,1.5,1.1,3,1.6,3,4Z"/>
  <path class="st27" d="M377.5,310.2h2s0,2,0,2c-.2-.2-1.4.3-1.9-.1s0-1.5-.1-1.9Z"/>
  <path class="st6" d="M431.5,379.2c-2.3,2.3-8.2,4.5-11.3,5.2-5,1.1-11.9.2-15.9,2.1-5.4,2.5-4.9,11.5-13.7,8.8,0-.3,0-.7,0-1s1.3-1.2,1.1-2.3-5.4-1.8-2.1-4.2,11.6,0,13.6-6.5c7.1,3,13.5-.4,20.4-1,1.3-5.1-3.3-1-3-5,6,1,5.7.7,11,4Z"/>
  <path class="st7" d="M392.5,359.2c.6,3.1-.3,3.1,3.8,4.7,3.6,1.4,5.2.8,8.2,1.3s5,1.7,8,1v2c-2.6,3.5,0,1.3,1,1s1.4.1,2,0c4.5,3.1,11.4,4.1,16,6s1.4,2.1,2,3c0,.7,0,1.3,0,2-.6-.4-1.4-.6-2-1-5.3-3.3-5-3-11-4s-5.4-.8-8-1-1.3,0-2,0c-1.7-2-5.4-2.5-8-3s-1.4.1-2,0l-12-7c.3-.7.2-1.6,1-2.5s2.1-1.6,3-2.5Z"/>
  <path class="st9" d="M377.5,402.2c1.7,3.6-6.3,8.9-8.7,9.8-8.8,3-30.4,7.1-39.3,6.2-.4,0-5.7-1.4-6-1.5-1.6-.8-3.1-5-4-5.5l3-4c1.4.3,3.5-.2,5,0,16.6,2.6,23.5,3.4,40.2-1.3s4.5-3.6,4.8-3.7,4.1,0,5,0Z"/>
  <path class="st9" d="M244.5,403.2c3.1.5,11.8,5.9,14.7,6.8s9.1.9,12.5,1.5c6.3.9,20.5,5.9,21.7-4.2,3.9.9,4,.1,7,0-1.2,2.7,1.8,3,2,3.7.9,4-1.3,6.1-3,9.3-21-.1-38.5-1.4-57.7-11.8-1.5-.8-2.2-2-3.3-3.2,1.3-.2,3.1-2.5,6-2Z"/>
  <path class="st18" d="M302.5,407.2c.5.3.5,2.7,1.7,3,3.6.9,11.7-1.1,15.3,1s2.3,4.7,4,5.5,5.6,1.5,6,1.5c-5.5,4.6-14.4,1.7-20.5,1.9s-6.5.1-9.5,0c1.7-3.2,3.9-5.3,3-9.3s-3.1-1-2-3.7c.5,0,1.8-.1,2,0Z"/>
  <path class="st21" d="M331.5,509.2c3.2-.3,2.6,4.6,3,7s1,2.9,1,4c-3.6-.3-2.1,4.3-4.4,6.1-1.7,1.3-5.3,1.2-7.3,2.8h-.8c0,.1-1.5-4.9-1.5-4.9.3-.3.6-3.5,1.6-4.9,1.6-2.4,3.6-4.5,5.4-7.1s2.6-1.8,3-3Z"/>
  <path class="st9" d="M335.5,520.2c0,4.8-7.1,19.7-13,15.6-1.8-3.2-4-7.2-3-10.9s1.9-.5,2-.6l1.5,5h.8c1.9-1.8,5.6-1.6,7.3-2.9,2.3-1.8.9-6.4,4.4-6.1Z"/>
  <path class="st27" d="M315.5,535.2l-.8.7-.2,4.3h-7c-.1-.1-1.1-.1-2-1s0-3.4-4-3c.2-1.6-.3-2.9,1.5-4,2.2-.5,2.4,5.2,8.8,1s.4-3.6.7-5c.4.5,1.9.8,2.5,2,.9,1.9.3,3.4.5,5Z"/>
  <path class="st18" d="M307.5,540.2h7s.2-4.3.2-4.3l.8-.7c0,.5,1.5,1.2.9,3.2s-3.1,3.9-3.9,4.3c-3.4,1.5-3.4-1.1-5-2.5Z"/>
  <path class="st18" d="M301.5,536.2c3.9-.4,3.7,2.7,4,3h-4c0-.7,0-1.3,0-2s0-.7,0-1Z"/>
  <path class="st20" d="M311.5,490.2c.8-.1,2.2,0,3,0s1.6-.2,2,0c.9.5,1.7,3.7,2,4,0,3.9-3.4,10-8,10-1.2-5.5-8.3-12.6,1-14Z"/>
  <path class="st15" d="M318.5,473.2c.8,1.6,3,5.4,3,6.6.1,2.4-1.5,3-2,4.4-1.9.2-4.1-.2-6,0-.4-2.7,3.6-3.2,3.9-4.6.7-3-4.3-3.7-3.9-6.4,1.6.2,3.4-.1,5,0Z"/>
  <path class="st21" d="M313.5,473.2c-.3,2.7,4.7,3.4,3.9,6.4s-4.4,1.8-3.9,4.6c-.3,0-.7,0-1,0-4.6.8-11.5-1.7-10-7.3.3-1.1,3.6-1.3,3-3.7,4.5-.9,4-.6,8,0Z"/>
  <path class="st4" d="M265.5,502.2c-.1,2,.2,4,0,6s-.6,2.4-1,4c-2.5-.7-2.8,3-3.5,3l-3.5-3c.3-2,.6-4,1-6,5.4,1.2,4-2.4,5.2-3.8s1.6,0,1.8-.2ZM260,508.2v1c.6-.3.6-.7,0-1Z"/>
  <path class="st28" d="M261.5,473.2c.8,2.5,1.1,3.6,4,3,.1.1,1.4-.3,1.8.2,3.1,3.6-8.9,14.9-11.2,17.9-1.3,1.7-1.6,3.9-2.6,5.2s-1.9.6-2,.7h-4c.2-2.6-.3-5.5,0-8,.8-6.2,6.6-17.2,13-19s.7,0,1,0Z"/>
  <path class="st11" d="M258.5,503.2c0,.3,0,.7,0,1,0,.6.1,1.4,0,2-.4,2-.7,4-1,6l-1,9c-2.5-4.9-2.1-7.8-1-13,.4-1.6.8-3.3,1.1-4.9h1.9Z"/>
  <path class="st27" d="M265.5,476.2c-2.9.6-3.2-.5-4-3,4.6-.1,3,1.8,4,3Z"/>
  <path class="st27" d="M251.5,500.2c-.1.1.4,1.9-.5,2.1l-3.5-2.1h4Z"/>
  <path class="st4" d="M258.5,502.2h2s0,1.5,0,1.5l-2,.5c0-.3,0-.7,0-1s-.1-.8,0-1Z"/>
  <path class="st13" d="M314.5,490.2c-.8,0-2.2-.1-3,0,.1-1.5,2.9-1.5,3,0Z"/>
  <path class="st12" d="M243.5,514.2c1.1-2.2,3.7-2.7,6-3l1,4c-1,1.3-1.4,2.9-3.5,3-3,0-2.8-3.1-3.5-4Z"/>
  <path class="st15" d="M231.5,368.2c-2.7,0-6,2.5-8,3-3.5.9-6.8.5-10,1v-3c.7,0,1.3,0,2,0s1.6,1.6,3,1v-2c.5.1,1.4,0,2,0s.6.9,1.3.8c1.1-.2,9-3.2,7.7-4.8h1c.5,1.5.7,3,1,4Z"/>
  <path class="st26" d="M213.5,369.2v3c-2.3.4-4.7.7-7,1-.6-4.9,3.3-4.2,7-4Z"/>
  <path class="st11" d="M205.5,367.2c-2.1.2-6.1,2.7-9,2,0-.3,0-.7,0-1,0-.7.2-2.5,0-3l-1-1c-.3-.4-.7-.6-1-1v-1l11,5Z"/>
  <path class="st16" d="M194.5,362.2v1c-.2-.3-1.5-1.4-2-2h1l1,1Z"/>
  <path class="st16" d="M196.5,365.2c0-.2-.7-.6-1-1l1,1Z"/>
  <path class="st26" d="M192.5,354.2c.6,2.5,2.7,2.2,4,3s2.1,2,4,2.5,2.8.2,4,.5c.5.8,2,4.6,2.1,4.8.4.3,7.8,1.7,9.9,2.2s1,.7,2,1v2c-1.4.7-2.7-1-3-1-2.6-1.8-6.9-2.3-10-2l-11-5-1-1-3-7c.6,0,1.3,0,2,0Z"/>
  <path class="st5" d="M203.5,232.2c1.1-1.5.9-2.1,3.4-2s10.5,2.6,11.2,2.9c3.8,2.2,20.6,25.3,22.2,29.8s.9,2.5-1.2,2.2c-4.4-.5-16.7-6.7-19.1-2-1.5,2.9-.3,5.6,2.5,7-1.8.4-1.6,2.5-2,3-1,1.4-.7.9-2,3-.2.4-5.4,3.8-6.6,5.3s-.6,3.1-1.7,4.4c-2.1,2.6-6.7,1.4-8.7,3.9-.8,2.5,8.2,11.8,8,17.9-1.2.2-3,1.4-4,1.5s-1.4,0-2,0c.5-3.6-2.8-6-3.7-8.8-4.6-13.1-3.4-27-2.3-40.2,7.5,7.6,8.4-8.2,9-13,12.3.7,8.3-16-3-15Z"/>
  <path class="st4" d="M203.5,232.2c11.3-1,15.3,15.7,3,15-.6,4.8-1.5,20.5-9,13,0-.7,0-1.3,0-2l1-1.5-1-.5c.5-5.4,1.8-9.4,2-15,3.4-1,1-3.2,1-4s0-1.3,0-2c2.3.6,1.9-1.5,3-3Z"/>
  <path class="st10" d="M200.5,308.2c.6.1,1.5.9,2,1-.7,2.2,1.3,3.7,3,5,1.3,1.8,2,4.3,3,6l-8-3.5c-2-2.8,4.2,1.7,2-3,0-.2-3.3-2.1-4-2.5,0,1.3,0,2.7,0,4l-6-1-1-1c0-1-1.4-3.6-1-4,.7,0,1.3,0,2,0,.2,1.3.3,2.2,1.5,3l.5-2c1.2.3,2.9.4,4,1,0-1,0-2,0-3,.6,0,1.4-.1,2,0Z"/>
  <path class="st13" d="M205.5,309.2c2.7,4.9,7.3,6,12,8-2.1-.3-4.8.2-7,0-1.8-1.5-3.7-2-5-3s-3.7-2.8-3-5c.3,0,.7,0,1,0,.6,0,1.4,0,2,0Z"/>
  <path class="st13" d="M199.5,241.2c0-1.3-.5-3.3,1-4,0,.8,2.4,3-1,4Z"/>
  <path class="st13" d="M200.5,308.2c-.6-.1-1.4,0-2,0v-2h1c.1.5,1,1.2,1,2Z"/>
  <path class="st5" d="M197.5,258.2c0-.7,0-1.3,0-2l1,.5-1,1.5Z"/>
  <path class="st4" d="M346.5,250.2c-1.6,4.5-8.7,8.4-13,10s-.7,0-1,0c-1.5.5-4.7,2-5,2s-1.1-1.3-2-1v3c-1,.5-2.1,2.1-3.3,1.8-2.1-.3-8.9-6.3-10.4-6.7-2.2-.5-5.6,1.3-8.7-1.2h-1.5c-.2,14.1-13-.9-15,1.1l1,6c-1.3.5-1.9-1-2-1-1.3-2.8-.5-5.2,0-8,5-1.8,10.3,2.6,13-4l7.6,4.9c2.8.6.8-2.5.4-3.9,8.9,2.9,18.2,4.3,27.6,3.1,3.7-.5,7.6-5.1,10.4-6.1s1.4.1,2,0Z"/>
  <path class="st13" d="M218.5,208.2c1.1,2.7,1.8,3.7,3,6,3,5.9,3.7,9.9,10,14-.3,0-1.3,1.1-2,1-.7-.3-1.3-.7-2-1-1.2-1.8-3.7-2.1-5-3.7s-8.3-17.2-8.5-18.3c-.7-2.9.3-3.7.6-6s-.7-4.1,1-5c-.8,5.9,1.1,8.3,3,13Z"/>
  <path class="st21" d="M210.5,208.2c0,.7,0,1.4,0,2,.6,5.2,3.2,9.9,4,15l-4.5-3c-2.7,4.5,3.9,2.4,3.5,6-6.1-.3-5.1.5-10-2s-8.5-2.9-11-7.5c6.3-4.2,10.7,2.3,16,3.5-6-6.3-7.8-14.4-7-23l9,9Z"/>
  <path class="st27" d="M214.5,200.2c-.3,2.3-1.3,3.1-.6,6s7.9,17.5,8.5,18.3c1.3,1.6,3.8,1.9,5,3.7-1.4-.7-3-1.2-4.4-2.1-1.1,1.9-3.3,2.6-2.6,5.1-2-1.5-2.2.4-3-3-1.6-7.1-3.5-11.3-6-18s.4-2.4-1-3c0-1.5.3-4.9,1-6s1.7-1.1,3-1Z"/>
  <path class="st10" d="M211.5,210.2h-1c0-.6,0-1.3,0-2s0-.7,0-1c1.4.6.7,2.2,1,3Z"/>
  <path class="st15" d="M217.5,228.2c-1.7,1.4-3.4,0-4,0,.4-3.6-6.2-1.5-3.5-6l4.5,3c-.8-5.1-3.4-9.8-4-15h1c2.5,6.7,4.4,10.9,6,18Z"/>
  <path class="st27" d="M225.5,236.2l-4-4c1.8,1.5,2.5,2.4,4,4Z"/>
  <path class="st28" d="M248.5,268.2c-.3-.3-.7-.7-1-1l1,1Z"/>
  <path class="st17" d="M341,526.2c.6.3.6.7,0,1v-1Z"/>
  <path class="st26" d="M265.5,247.2c7.2-5.9,10.6,8.8,14.3,10.3,3.6,1.5,3.7-.6,5.7-1.3-.5,2.8-1.3,5.2,0,8-1-.1-2,0-3,0v4.5s-2,.5-2,.5c-3.1-9.2-9.6-14.5-17-20,2.5.8,1.8-1.9,2-2Z"/>
  <path class="st24" d="M308.5,298.2c-4.6,2.6-1.2,10.4,4,7s.8-7.5,1.2-7.9,1.7,0,1.8-.1c.3.4.7.7,1,1s.8.7,1,1l1,1c.9,4.5-3.4,10.9-7.5,11s-9-6.1-9.3-8.7.7-1.7.8-2.3c2.2-2.3,3.8-1.8,6-2Z"/>
  <path class="st15" d="M307.5,291.2l1-9c3.4-.8,1.6,3,2,5,.7,3.8,1.3,6,5,8-.2.5.2,1.8,0,2s-1.5-.2-1.8.1,3.1,5.1-1.2,7.9l-.5-7-1.2-.8c-.9-.3-1.9.8-2.4.9-2.2.2-3.8-.3-6,2,.6-3.6,1.6-2.6,2-5s-.1-1.4,0-2c1.5,0,2.5-.6,3-2Z"/>
  <path class="st24" d="M248.5,236.2c2.1,1.5,1.3,2.6,4,3,0,.5-.5.9-1,1-2.7-1.9-17.3-8.5-22-11,.7,0,1.7-1,2-1,3.3-.3,13.5,6.1,17,8Z"/>
  <path class="st5" d="M248.5,236.2c1,.5,2.8.5,3.9,1.1.2.6,0,1.3,0,1.9.9.1,2,0,3,0s2,0,3,0c2,3.6,3.4,5.5,7,8-.2.1.5,2.8-2,2-3.8-2.8-8.7-6.7-12-9,.5-.1,1-.5,1-1-2.7-.4-1.9-1.5-4-3Z"/>
  <path class="st5" d="M320.5,295.2c.4-.6-.6-2.5,1.6-3.9s5.1-1.1,7.4-1.1c1.4,1.3-5.3,8.4-7,9-.1-.8-1.4-3.1-2-4Z"/>
  <path class="st28" d="M310.5,287.2c2.7-.8,1.7,1.8,2.6,2.9,2.4,2.8,4,.6,2.4,5.1-3.7-2-4.3-4.2-5-8Z"/>
  <path class="st28" d="M327.5,262.2c.6,3-1.2,1.6-2,2v-3c.9-.3,1.8,1,2,1Z"/>
  <path class="st28" d="M307.5,291.2c-.5,1.4-1.5,2-3,2,.1-.6-.1-1.4,0-2h3Z"/>
  <path class="st28" d="M333.5,263.2h-1v-3c.3,0,.7.1,1,0v3Z"/>
  <path class="st28" d="M325.5,303.2c.2-.1.5-.7,1-1l-1,1Z"/>
  <path class="st5" d="M410.5,233.2l.2,11.3,5.8,4.7c.3,1,.6,2.2.8,3.5,0,.4.1.7.2,1.1,1.1,2.4,1.8,3.5,2,3.4.1,0,.1-.4,0-1,0,.3,0,.7,0,1,0,2.7.5,5.2,1,7.4-1.8.1-2.8-.4-3.4-.7-2.6-1.6-3.4-6-1.7-10.7-1.7,5.5-9.3,2.3-13.3,3.2-3.1.7-4.6,4.2-6.4,4.6-1.7.4-7.8.7-10.8,1.2-1.8.3-4.1-1.3-3.5,2-1.3,0-3.8-.8-5-1.5,4.2-7.3,17.2-27.7,24.9-30.1,4.2-1.3,5.8,0,9.1.6Z"/>
  <path class="st3" d="M384.5,305.2c.5.4,4.7,6.5,6,8s-.2,1.1.3,1.7c1,1.1,3.5,2.1,4.7,3.3v3s-4-.5-4-.5l1.7,2.4c1.1-.5,1.4-.3,2.3.1,1.4,6.3,10.3,6.8,9,14-9.9-.9-13.9-10-18-18s.2-2.4-.5-3.9c-2.3-4.5-6.9-6.7-5.5-12.1.8,1.2,3.4,1.5,4,2Z"/>
  <path class="st13" d="M401.5,287.2c0,.1,1,.7,1,1.5,0,2.3-4.7,5-7,5.5-.4,2.5,2,3,4,3-3,4.6-7.7,11.1-14,8-1.2-4.7,4.3-2.5,6-5.5-2.4-2.5-2.3-4.7-6-5.5s-1.4.1-2,0v-3c-.6-.1-1.4.1-2,0s-.7,0-1,0l4.5-3,.5,3c3.5-1.3,7.2.1,10.2-.2,4.4-.5.9-4.9,5.7-3.8Z"/>
  <path class="st11" d="M423.1,262s.6,5.1,1.4,10.2c.2,1.6-.2,3.4,0,5-.9,6.3-1,6.4-1,6.4,0,0-12.3,42.4-17,41.6-1.9-.4-2.7-7.8-1.1-13.5,1.4-5.1,4.6-8.3,5.2-8.9,1.7-1.6,3.4-2.7,4.6-3.3,7.1-15.5,7.4-26.7,5.3-34.8,0-.1-.1-.4-.3-1.1-4.9-17.8-6.7-21.4-6.7-28.3,0-3.1.4-7,1-7,1,0,1.8,10.2,6,25,1,3.6,1.9,6.6,2.6,8.8Z"/>
  <path class="st10" d="M390.5,283.2v2s11-1,11-1c.2.8,0,2,0,3-4.8-1.1-1.3,3.3-5.7,3.8s-6.8-1.1-10.2.2l-.5-3-4.5,3c-.7,0-1.3,0-2,0-.5-2.3.2-2.7,2-3.7v-1.3c.7,0,1.4-.1,2,0s.8,1.4,2,1v-2c1.7-.4,4.7-1,6-2Z"/>
  <path class="st10" d="M385.5,294.2c3.7.8,3.6,3,6,5.5-1.7,3-7.1.8-6,5.5h-1c-.6-.5-3.2-.8-4-2,.2-.9,1-1.9,1-3,1.1-.3,2.8.2,4,0h2s-1-2-1-2c0-.9-1-2.8-1-4Z"/>
  <path class="st11" d="M265.5,351.2c6.1,2.6,8.2,6.5,15.9,5.1l4.1,14.9h-1c-.2-4.1-3.3-8.3-7.6-8.9-6.3,1.5-22-3.3-26.4.5s-1,5-4,4.5c-.2-1.1,0-2.8,0-4s.9-1.9,1-3c5.5-3.9,10-3.9,16.4-4.9,1.2-.7.3-2.4.6-3.1s1-.8,1-1Z"/>
  <path class="st28" d="M201.5,354.2c4,0,8,0,12,0s3.3,0,5,0c2.8,0,4.7.9,6,1v9c-1-.1-2.2.2-3,0-5-1.1-11.2-2.8-17-4s-2.4,0-4-.5-2.7-1.8-4-2.5v-3c1.7,0,3.3,0,5,0Z"/>
  <path class="st19" d="M241.5,370.2c-3.2.6-2.2-5.9-2-7.5.6-4.7,4.5-14.7,10-14.5-1.6,4.1-1.5,7.9-2,12s-1,2.5-1,3c-1.8-1.1-4.8,5.8-5,7Z"/>
  <path class="st15" d="M222.5,348.2c3.2.4,6.1-.4,9,2-1.9,1.7-3.3,5.2-7,5s-3.2-1-6-1c.6-1.8-5.1-4.4-7-5s-.7,0-1,0l2-2c2.9.6,6.9.6,10,1Z"/>
  <path class="st28" d="M259.5,344.2h5c.1.2-.1.7,0,1,.5,1.5,1,2.2,1,4s0,1.4,0,2-.9.6-1,1h-2c-2.4-.2-5.9.5-6.9-2.7-1.3-4.5,2.3-4.1,3.9-5.3Z"/>
  <path class="st4" d="M246.5,363.2c0,1.2-.2,2.9,0,4s.8,1.3,1,2c.4,1.3,1.3,2.4,1,4-.3,0-.7,0-1,0-.7,0-1.3,0-2,0l-1,5c-2.1-2.8-3.8-3.2-3-8s3.2-8.1,5-7Z"/>
  <path class="st27" d="M230.5,364.2h-1c-1.6-.1-3.4.2-5,0v-6c6.8.8,4.8,2,6,6Z"/>
  <path class="st15" d="M249.5,334.2c-3.8,3.5-8.1,6.5-12,10l-1-5c4.5,1.1,7.3-3.2,10.1-4.5,1.3-.6,2.3-.3,2.9-.5Z"/>
  <path class="st11" d="M264.5,344.2h-5c.2-.2-.6-3.9,4.1-1.5s.6,1,.9,1.5Z"/>
  <path class="st11" d="M264.5,345.2c2.3-.6,2.9,2,3,4h-2c0-1.8-.5-2.5-1-4Z"/>
  <path class="st15" d="M256.5,332.2c-.3,0-3,.8-4,1l4-1Z"/>
  <path class="st11" d="M262.5,352.2h1c-.5.8-.9,0-1,0Z"/>
  <path class="st28" d="M403.5,204.2c.5,1.8,1.9,3.8,2,4,.8,3.6-2.8,13-5,16s-1.9-.5-2.1.6,1,2.6,1.1,3.4-.5,2.2-1,3c-.2,0-3.8,1.9-4,2-2.3-4.4-8.9-.1-13,1,3.4-3.8,10.2-6,13.5-10,3.8-4.8,6.1-13.9,6.5-20,.5.2,1.4-.1,2,0Z"/>
  <path class="st24" d="M401.5,204.2c-.5,6.1-2.7,15.2-6.5,20-3.2,4-10,6.2-13.5,10-1,.3-2.4.9-3,1-.3,0-.7,0-1,0-.9,0-1.7,0-2-1,6.4-3.1,11.5-6.5,16-12,.3-.4.7-.6,1-1l1-1c3-4.7,7.7-16.3,8-16Z"/>
  <path class="st28" d="M364.5,243.2v3c-1.2.3-3-.3-4,0,.6-2.5,2.9-2.3,4-3Z"/>
  <path class="st28" d="M353.5,251.2c-.2.3.3,1.5,0,1.9s-2.2-.1-2.9,0c.4-1.4,1.5-2,3-2Z"/>
  <path class="st28" d="M369.5,240.2c.3-.3.6-.8,1-1-.3.4-.6.8-1,1Z"/>
  <path class="st28" d="M377.5,236.2v-1c.3,0,.7,0,1,0-.2.4-.6.9-1,1Z"/>
  <path class="st28" d="M212.5,335.2l1.1,2.9c7.9-2.2,11.6,2.5,8.9,10.1-3.1-.4-7.1-.4-10-1s-9.5-2.8-13-4-1.6-1.5-3-1c-1.4-2.3-.8-2-4-4-.6-3,1.5-1.9,3.5-2,5.6-.2,11,0,16.5-1Z"/>
  <path class="st13" d="M193.5,331.2c1.7,1.1,1,2.5,5,2s3.3-1.9,4-2c1.9-.2,8.8,1.9,11,2l-1,2c-5.5.9-11,.8-16.5,1s-4-1-3.5,2c-1-.6-2.5-.5-3.1-1.7-.9-4,2-5,2.1-5.3.6.1,1.7-.2,2,0Z"/>
  <path class="st10" d="M216.5,329.2c.7.1,2.2,1.6,3,2-2,1-1,2.3-6,2-2.2-.1-9.1-2.2-11-2-1-2.4-1-4.6,0-7,8.2,6.5,4.8,3.4,14,5Z"/>
  <path class="st21" d="M243.5,281.2l4,4.5c1.4,5.8-16.4-.9-19-.5-.8-.4-2.2-.2-3.3-.9-1.8-1.2-3-4.1-3.7-5.1,2.2,1,4.8-.9,6-1,6.3-.7,10.2,1.1,16,3Z"/>
  <path class="st10" d="M217.5,317.2c.4,0,3.8.9,4,1s-.3,1.4.2,1.8c1.2,1,4.5-1,3.8,1.7s-3.5,3.4-5,4.5v-1l2-3c-3,.3-7.8-.5-10.3-2.2s-1.5-2.7-1.7-2.8c2.2.2,4.9-.3,7,0Z"/>
  <path class="st13" d="M232.5,301.2c3.7,0,3.4.4,6,2v2c-.3,0-.7,0-1,0s-.7,0-1,0-2.1-.9-3.5-1c-3.4-.3-9.9,2.8-9.5-3.9,2.7-1,4.7,1.8,6.6,2s2.3-1,2.4-1Z"/>
  <path class="st16" d="M220.5,273.2l9,3v1s-2,1-2,1c-1.2.1-3.8,2-6,1-.9-1.1-2.4-1.7-3-3,1.3-2.1,1-1.6,2-3Z"/>
  <path class="st13" d="M232.5,292.2c-2.4,3.4-8.5,1.6-12,2v-3s12,1,12,1Z"/>
  <path class="st11" d="M373.5,349.2l1,16c-1.4-.8-2.2-2.1-3.8-2.7-5.9-2.5-17-1.9-23.5-1-5.2.7-8,3.8-12.8,4.7,1.3-5.8,2.8-12.5,9-15,9.5,7.1,15.1-6.4,4-7,.2-.2,0-2.6,1.6-2.9s2.2.9,3,.7c1.7-.4,2.6-1.6,4-1.9,2.8-.5,12.6,3.1,14.9,5s1.9,3.3,2.5,4Z"/>
  <path class="st5" d="M373.5,349.2c2.6,3,4.3,4.1,6,8v1c0,2,0,4,0,6-.2,5.6-1.2,5.1-2,8-2.5-2.1-3.5,0-5,2-2.6-1.6-4.4.8-6.4.9-4.9.1-11.1-3.8-16.1-.9l-.4-1.9h-2s-1,5-1,5c-.5-.1-1.4,0-2,0-2.9-.2-5.3.7-8,1-.6-1.7-1-1.6-1-4,4.1.8,6.5-3.4,7.7-3.8,9.3-3.4,21.7,1.2,31.3-1.2.1-1,0-2,0-3s0-.7,0-1l-1-16Z"/>
  <path class="st27" d="M343.5,351.2c-1.1-5.8,1.3-4.5,4-7,11.1.6,5.5,14.1-4,7Z"/>
  <path class="st16" d="M389.5,350.2c-.4,3.2,5.4,4,8,4,1.5,1.3-4.2,4.3-5,5,0-.5.3-1.3-.1-1.8l-3.9-1.2c.5-2,1-4,0-6h1Z"/>
  <path class="st11" d="M379.5,358.2v-1c.1.3.8.4,0,1Z"/>
  <path class="st6" d="M419.5,337.2c2.9,3.1-2.3,8.6-5,9.4-4.5,1.4-9.4.2-14,.6,2.4,5.4,2.8,6.1,9,6s2.2.2,3,0l7,1v1c-.3,0-.7,1.4-1.3,1.7-2.7,1.1-3.7-.1-5.7,3.8l-8,4.6c-3.1-.5-4.6.1-8.2-1.3-4-1.6-3.2-1.6-3.8-4.7.8-.7,6.5-3.7,5-5-2.6,0-8.4-.8-8-4,3.6.3,4.7-5.2,6.7-5.9,2.9-1,6.3,2.3,8.9,0,2.5-1.9.5-4.5.4-7.1l1-1c4.4-.8,8.9,1.4,13,1Z"/>
  <path class="st14" d="M406.5,325.2c.6.2,1,3.3,3,2s-.7-2.6,5-3,.7,0,1,0c-.8,1.3-3,7.4-4.2,7.8s-2.4-1.1-3.6-.6-2.8,3.5-1.2,4.8l-1,1h-1c1.3-7.2-7.6-7.7-9-14,1.4.6,5.3,2.7,5.7,2.8,1.7.4,3.9-1.2,5.3-.8Z"/>
  <path class="st21" d="M400.5,371.2c.6.1,1.4-.1,2,0-1.2,1.8,4.4,3.6,5.8,3.9s2.1-.9,2.2-.9c.7,0,1.3,0,2,0-.8,2.5,2.7,2.4,3,3.5,1.5,5.7-13.2.3-14.9,0s-11.6-.7-12-3c2.9-9.2,6.7-3.4,10.7-2.7s1.2-.8,1.3-.8Z"/>
  <path class="st21" d="M399.5,383.2c-.8,1.1-16,4.6-15-1,3.6-3.1,13.6-4.3,15,1Z"/>
  <path class="st16" d="M379.5,382.2c-.6.7,0,3.5-3,3,0-2,1-3.1,3-3Z"/>
  <path class="st13" d="M374.5,366.2c0,1,.1,2,0,3-9.6,2.4-22.1-2.2-31.3,1.2-1.2.4-3.5,4.6-7.7,3.8,0-1.1-.3-2.9.2-3.8,4.3-1.6,5.6-5.5,10.4-6.2,8.6-1.2,19.9.3,28.4,1.9Z"/>
  <path class="st21" d="M372.5,381.2c-8.2,8.6-17.7,10-28.4,4.8-.9-.4-1.3-1.6-1.6-1.8.2-.7.9-1.4,1-2h6v2s5.4,0,5.4,0l.6-2c1,0,2,0,3,0s.5.7,1.3.7c4.1-.1,8.6-1.5,12.7-1.7Z"/>
  <path class="st4" d="M344.5,377.2c0,1.1-.8,2.1-1,3h-6c-.5-.8-.7-1.1-1-2,2.7-.3,5.1-1.2,8-1Z"/>
  <path class="st27" d="M343.5,380.2c-.1.6.1,1.4,0,2s-.8,1.3-1,2c-2.4-1.6-2.7-.8-5-4h6Z"/>
  <path class="st4" d="M322.5,407.2l-3,4c-3.6-2-11.7-.1-15.3-1-1.2-.3-1.1-2.7-1.7-3l7.5-6c4.7,3.7,6.6,4.8,12.5,6Z"/>
  <path class="st21" d="M417.5,219.2c-1.3,1.5-2.1,4.6-3,6s-.9,1.9-1,2-2.2.6-3,1-1.9,1-2,1c-2,.6-4.6.6-6,1,0-1-.1-2.1,0-3,1.8-.6,5-1.7,6.3-2.9s.5-1.8.7-2.1c2.3-1.5,4.7-3.4,7.4-3.9l.6.9Z"/>
  <path class="st4" d="M412.5,233.2c0,.8,1,1.7,1,2,.7,4.9,1.8,9.1,3,14l-5.8-4.7-.2-11.3c.4,0,1.9,0,2,0Z"/>
  <path class="st5" d="M414.5,231.2l-1,4c0-.3-1.1-1.2-1-2,.2-.2-.5-2.8,2-2Z"/>
  <path class="st26" d="M407.5,221.2c1.4-.9,2.3-2.3,4-2,.3.2-1.6,2.3-2,3s.3,1-.7,2.1-4.5,2.3-6.3,2.9c-.1.9,0,2,0,3-1.3.4-2.3.3-4,1,.5-.8,1.1-2,1-3,.9-.6,2-.7,3-1,.6-4,2.4-4.4,5-6Z"/>
  <path class="st26" d="M410.5,228.2c-.4,1.2-1.2,2.2-2,1,.1,0,1.4-.7,2-1Z"/>
  <path class="st4" d="M350.5,248.2v2c-.7.1-1.4,0-2,0-.6-3,1.3-1.6,2-2Z"/>
  <path class="st15" d="M393.5,277.2c.4,1.9-1.6,5-3,6s-4.3,1.6-6,2-1.7,0-2,1c-.6-.1-1.4,0-2,0-2.6-.4-5.1-1.5-8-1,.7-.9,2.4-3.5,3-4,5.4-3.9,11.8-3.4,18-4Z"/>
  <path class="st10" d="M381.5,291.2c.6.1,1.4-.1,2,0v3c-.6-.1-1.4.1-2,0v-3Z"/>
  <path class="st18" d="M386.5,298.2l1,2h-2c-.4-1,1-1.9,1-2Z"/>
  <path class="st15" d="M251.5,374.2c.9.8-.1,3.2,4.6,4s3-1.6,4.1-1.9c3.8-1.1,12.8-2.3,12.8,3h8.5c-.1.2.1.7,0,.9-10.5,4-29.2,5.8-34-7,.3,0,.7,0,1,0s2.9.9,3,1Z"/>
  <path class="st28" d="M249.5,382.2c3.5,1.1,8.8,2,12.6,2.9s5.7-1,8.4,2.6c0,1.3-1,1.3-1,1.5h-1c-1.1-1.8-4.1-.9-6-1-5.3-.4-10.1-.9-13-6Z"/>
  <path class="st13" d="M198.5,311.2c.7.4,4,2.3,4,2.5,2.1,4.7-4,.2-2,3l8,3.5c.1.2-.3,1.1.2,1.8,1.8,2.5,8.7,3.9,11.8,3.2v1c-1.1.9-1.9,2.8-4,3-9.2-1.6-5.8,1.5-14-5s-4.9-4.2-7.3-6.2-.8-2.7-3.7-1.8c0-.7,0-1.3,0-2h1l6,1c0-1.3,0-2.7,0-4Z"/>
  <path class="st27" d="M377.5,372.2c-.2.6.2,1.5,0,2l-1,.5,1,.5c-.7,1.9-2.1,3.3-3,5-1,0-1.4.3-2,1-4.1.1-8.7,1.5-12.7,1.7s-1.2-.7-1.3-.7c2.9-3.7,7.6-.6,11-3s2.3-4,3-5c1.5-2,2.5-4.1,5-2Z"/>
  <path class="st5" d="M377.5,375.2l-1-.5,1-.5c-.1.3.1.7,0,1Z"/>
  <path class="st21" d="M268.5,389.2l-6-1c1.9.1,4.9-.8,6,1Z"/>
  <path class="st13" d="M284.5,371.2c0,2-.8,2.3-1,3-1.5-3.6-5.1-6.3-9-6.6-1.4-.1-2.2.6-2.5.6h-17c-1.3,0-5.1,2-7.5,1-.2-.7-.9-1.4-1-2,3,.5,2.2-2.9,4-4.5,4.4-3.8,20.1,1,26.4-.5,4.3.7,7.4,4.8,7.6,8.9Z"/>
  <path class="st24" d="M283.5,374.2c-.2.9-.9,1.5-1,2-3.1-2.4-6.1-.9-5-6-2.2-.1-3.3,1.7-5.5,2-3.8.5-8.3-.5-12,0-2.9.4-5,3-8.4,2.1-.1-.1-2.7-.9-3-1,.3-1.6-.6-2.7-1-4,2.4,1,6.2-1,7.5-1h17c.3,0,1.1-.7,2.5-.6,3.9.3,7.4,3,9,6.6Z"/>
  <path class="st5" d="M251.5,374.2c3.4.9,5.5-1.7,8.4-2.1,3.7-.5,8.2.5,12,0,2.2-.3,3.4-2.1,5.5-2-1.1,5.1,1.9,3.6,5,6-.4,1.2-.4,1.7-1,3h-8.5c0-5.2-9-4-12.8-3s0,2.6-4.1,1.9-3.7-3.1-4.6-4Z"/>
  <path class="st26" d="M238.5,303.2c.3.2,1.4-.3,1.9.1.3.6.2,1.2.1,1.9-.6.1-1.3,0-2,0v-2Z"/>
  <path class="st23" d="M429.5,357.2c-1.9,1.8-3.6,4.9-6,6.5-3.6,2.3-7.8,1.4-10,4.5h-1v-2c-3,.7-5.5-.6-8-1l8-4.6c2-3.9,3-2.7,5.7-3.8s1-1.6,1.3-1.7c2.9-.8,7.5.3,10,2Z"/>
  <path class="st16" d="M434.5,354.2c-1.4,4.6-3.4,10.4-9,11-.6,2.8,1.2,3.5,3,5-.4,5.3-2.3.2-2.7,0-5.2-2.6-5.3-2-10.3-1-.6.1-1.5-.2-2,0v-1c2.2-3.1,6.3-2.2,10-4.5s4.1-4.7,6-6.5,2.1-.8,3-1v-2s-3.9-.1-3.9-.1v-1.9c2.6.7,3.4,1,5.9,2Z"/>
  <path class="st13" d="M415.5,369.2c5-1,5.2-1.7,10.3,1s2.2,5.3,2.7,0c2.3,2,2.4,2.3,4,4l-1,1c-4.6-1.9-11.5-2.9-16-6Z"/>
  <path class="st15" d="M410.5,374.2c-.1,0-.6,1.1-2.2.9s-7-2.1-5.8-3.9c2.6.5,6.3,1,8,3Z"/>
  <path class="st13" d="M413.5,368.2v1c-1,.3-3.6,2.5-1-1h1Z"/>
  <path class="st18" d="M260,508.2c.6.3.6.7,0,1v-1Z"/>
  <path class="st26" d="M224.5,364.2c1.6.2,3.4-.1,5,0,1.3,1.6-6.6,4.6-7.7,4.8s-1.2-.8-1.3-.8c0-.6-.1-1.4,0-2s.8-1.3,1-2c.8.2,2-.1,3,0Z"/>
  <path class="st19" d="M220.5,366.2c-.1.6,0,1.4,0,2-.6,0-1.5.1-2,0-1-.3-1.8-1-2-1l4-1Z"/>
  <path class="st16" d="M191.5,330.2c0,.3,0,.7,0,1s-3,1.4-2.1,5.3c.5,1.2,2.1,1.1,3.1,1.7,3.2,2,2.6,1.7,4,4,1.3,2.1,1.2,2.1,3,4s-.3,1.3.2,1.8c1.5.5,3.2,1,4.8,1.2l1,3h-4s0,2,0,2c-1.7,0-3.3,0-5,0s-2.7,0-4,0-1.4,0-2,0c-1-.1-2.5-1.4-4-1,.4-.7.7-1.3,1-2l8-2.5-9-10.5c.3-2.6-.2-5.4,1-8,1.3,0,2.7,0,4,0Z"/>
  <path class="st27" d="M221.5,364.2c-.2.7-.9,1.4-1,2l-4,1c-2-.5-9.5-1.9-9.9-2.2s-1.7-4-2.1-4.8c5.8,1.2,12,2.9,17,4Z"/>
  <path class="st27" d="M196.5,354.2v3c-1.3-.8-3.4-.5-4-3,1.3,0,2.7,0,4,0Z"/>
  <path class="st26" d="M210.5,317.2c.1.1-.2,1.5,1.7,2.8s7.3,2.5,10.3,2.2l-2,3c-3.1.6-10-.8-11.8-3.2s0-1.5-.2-1.8c-1-1.7-1.7-4.2-3-6,1.3,1,3.2,1.5,5,3Z"/>
  <path class="st10" d="M420.5,216.2c.9,2.6-2.3,2.2-3,3l-.6-.9c-2.8.6-5.1,2.4-7.4,3.9.4-.7,2.3-2.8,2-3-1.7-.3-2.6,1.1-4,2,.9-1.4,1.7-2.9,3-4s2.2,1.1,3-2c2.6-.9,5.5.8,7,1Z"/>
  <path class="st9" d="M392.5,221.2c.3-.4.8-.7,1-1l-1,1Z"/>
  <path class="st27" d="M406.5,208.2c.4-3,2.8-6.5,4.5-9s-.3-2.6,2.5-2c.8,6.9-1.7,13.3-3,20-1.3,1.1-2.1,2.6-3,4-2.6,1.6-4.4,2-5,6-1,.3-2.1.4-3,1,0-.8-1.3-2.1-1.1-3.4s2-.5,2.1-.6c7.2-2.9,5.2-10.2,6-16Z"/>
  <path class="st15" d="M406.5,208.2c-.8,5.8,1.2,13.1-6,16,2.2-3,5.8-12.4,5-16h1Z"/>
  <path class="st15" d="M318.5,300.2l-1-1c.1.3.9.5,1,1Z"/>
  <path class="st21" d="M312.5,305.2c-5.2,3.4-8.6-4.4-4-7,.5,0,1.5-1.1,2.4-.9l1.2.8.5,7Z"/>
  <path class="st12" d="M418.5,311.2c.2.1.3,2.4,1,3-.2.2,0,1.7-1,2.5-3.4,2.7-9.2,4.5-12,8.5-1.3-.4-3.5,1.2-5.3.8s-4.4-2.2-5.7-2.8-1.3-.6-2.3-.1l-1.7-2.4,4,.5v-3c5.8,2.8,14.7-8.4,17.6-8.9s5.1,1.7,5.4,1.9Z"/>
  <path class="st4" d="M384.5,285.2v2c-1.2.4-1.8-1-2-1,.3-1,1.2-.8,2-1Z"/>
  <path class="st26" d="M210.5,349.2c.3,0,.7,0,1,0-.3,2.4-.3,4,2,5-4,0-8,0-12,0v-2s4,0,4,0l-1-3c1,.1,3.9-.5,6,0Z"/>
  <path class="st18" d="M211.5,349.2c1.9.6,7.6,3.2,7,5-1.7,0-3.3,0-5,0-2.3-1-2.3-2.6-2-5Z"/>
  <path class="st18" d="M212.5,347.2l-2,2c-2.1-.5-5,.1-6,0-1.6-.2-3.3-.8-4.8-1.2-.5-.5,0-1.6-.2-1.8l.8-.5-.8-2.5c3.5,1.2,9.5,3.3,13,4Z"/>
  <path class="st26" d="M199.5,343.2l.8,2.5-.8.5c-1.8-1.9-1.7-1.9-3-4,1.4-.5,2.3.7,3,1Z"/>
  <path class="st4" d="M346.5,377.2l1-5h2s.4,1.9.4,1.9c5-2.9,11.3,1.1,16.1.9s3.8-2.5,6.4-.9c-.7,1-1.4,3.9-3,5-2.3.6-1.5-2.1-3.5-2.1-5.5-.2-11.6,3.6-17.9,1.9-1.2-.3-1.5-1.8-1.7-1.8Z"/>
  <path class="st15" d="M346.5,377.2c.1,0,.5,1.5,1.7,1.8,6.3,1.7,12.4-2.1,17.9-1.9s1.2,2.7,3.5,2.1c-3.4,2.4-8.1-.7-11,3-1,0-2,0-3,0-2,0-4,0-6,0h-6c.1-.6-.1-1.4,0-2,.2-.9,1-1.9,1-3,.6,0,1.5-.1,2,0Z"/>
  <path class="st16" d="M415.5,324.2c.7,0,1.3,0,2,0,1.2,3.2-5.3,8.6-1.3,9.8s11.9-3.6,17.3-3.8l-10,20c-3.2-.2-4.3.7-4,4l-7-1c1.1-.2,6.2-2.4,5-4,.3,0,.7,0,1,0,3.4-.8,1.4-.9,3-3,2.6-3.5,5.2-7.1,8-10.5-1.4-2.1-1.5-.9-2.7-.7-1.9.3-5.9,2.1-7.3,2.2-4.1.4-8.6-1.8-13-1-1.5-1.3.1-4.4,1.2-4.8s2.3,1,3.6.6,3.4-6.5,4.2-7.8Z"/>
  <path class="st25" d="M421.5,346.2c-1.7.7-3.5.7-3,3-.3,0-.7,0-1,0-2.9.6-8.1.2-8,4-6.2.2-6.6-.6-9-6,4.6-.4,9.4.8,14-.6s7.9-6.3,5-9.4c1.4-.1,5.3-1.9,7.3-2.2s1.3-1.4,2.7.7c-2.8,3.4-5.3,7-8,10.5Z"/>
  <path class="st13" d="M423.5,350.2c1.5.1,4,1.7,5,2v1.9c0,0,4,.1,4,.1v2c-.9.2-2.4.4-3,1-2.5-1.7-7.1-2.8-10-2v-1c-.3-3.3.8-4.2,4-4Z"/>
  <path class="st13" d="M417.5,349.2c1.2,1.6-3.9,3.8-5,4s-2,0-3,0c0-3.8,5.1-3.4,8-4Z"/>
  <path class="st16" d="M419.5,314.2c.5-.5,2.6-1.4,3-1,.5,5.8-5.3,7.1-8,11-5.7.4-4.3,2.5-5,3-2,1.3-2.4-1.8-3-2,2.8-4.1,8.6-5.8,12-8.5s.8-2.3,1-2.5Z"/>
  <path class="st27" d="M355.5,382.2l-.6,2h-5.4s0-2,0-2c2,0,4,0,6,0Z"/>
  <path class="st11" d="M421.5,255.2c-.5,0-1.4.9-2,1,0-1.7,1-2.8,1-3l1,2Z"/>
  <path class="st13" d="M421.5,346.2c-1.6,2.1.4,2.2-3,3-.5-2.3,1.3-2.3,3-3Z"/>
  <path class="st11" d="M419.3,232.7"/>
</svg>