<?xml version="1.0" encoding="UTF-8"?>
<svg id="Layer_1" xmlns="http://www.w3.org/2000/svg" version="1.1" viewBox="0 0 595.3 841.9">
  <!-- Generator: Adobe Illustrator 29.1.0, SVG Export Plug-In . SVG Version: 2.1.0 Build 142)  -->
  <defs>
    <style>
      .st0 {
        fill: #82829f;
      }

      .st1 {
        fill: #878bb5;
      }

      .st2 {
        fill: #fcfcf9;
      }

      .st3 {
        fill: #d3acb7;
      }

      .st4 {
        fill: #dd6f7e;
      }

      .st5 {
        fill: #bdc1d3;
      }

      .st6 {
        fill: #928fa9;
      }

      .st7 {
        fill: #b1b0c5;
      }

      .st8 {
        fill: #dbd9e2;
      }

      .st9 {
        fill: #a884a5;
      }

      .st10 {
        fill: #2a1331;
      }

      .st11 {
        fill: #8c8aa6;
      }

      .st12 {
        fill: #6c335a;
      }

      .st13 {
        fill: #686398;
      }

      .st14 {
        fill: #ebc7c4;
      }

      .st15 {
        fill: #411f46;
      }

      .st16 {
        fill: #8a98c3;
      }

      .st17 {
        fill: #d2b7c6;
      }

      .st18 {
        fill: #797a9b;
      }

      .st19 {
        fill: #1a0f1c;
      }

      .st20 {
        fill: #f8efdc;
      }

      .st21 {
        fill: #fff;
        stroke: #231f20;
        stroke-miterlimit: 10;
      }

      .st22 {
        fill: #a7a3bb;
      }

      .st23 {
        fill: #99abcb;
      }

      .st24 {
        fill: #a25e73;
      }

      .st25 {
        fill: #a29eb5;
      }

      .st26 {
        fill: #c398ab;
      }

      .st27 {
        fill: #f4ded4;
      }

      .st28 {
        fill: #9795ae;
      }

      .st29 {
        fill: #fbf6e5;
      }
    </style>
  </defs>
  <path class="st10" d="M428.1,316.8s5.6-12.7,9.3-8.8c3.5,3.7,6.3,22.5,6.8,37.3l.9,9.9c.3,1.2.9,3.8,1.5,7.1,8.3,41.4,5.7,79.5-2.4,82.8-.5.2-2.6,1-3.6.2-1.5-1.3.7-5.8,1-6.6,2-4.6,2.4-18.4-3.7-56.4l-18.7-9.9,8.8-55.6Z"/>
  <path class="st12" d="M176.5,578.9c-22.1-70.2-14.3-109.2-2.5-132.2,5.7-11.1,24-40.9,12.6-59.6-2.3-3.8-5.3-6.3-7.5-7.7-11.4,15.3-16.8,29.2-19.6,38.7-3.2,10.9-4.2,21.7-6.1,43.2-.9,10.4-1.9,21.1-2.2,35.2-.5,20-1.1,43.1,4.4,71.6,4.5,23.6,5,32.4,12.2,46.8s44.1,28.4,48.4,23.3c3.2-3.8-2.8-17.6-39.7-59.3Z"/>
  <path class="st3" d="M271.1,354l-84.8,32.1-13.7,20c-33.9,92.8-2.5,194.4-2.5,194.4l91-21.3,10-225.2Z"/>
  <path class="st4" d="M289.7,149.7l-1.2-1.2c.5.1.9,1.1,1.2,1.2Z"/>
  <path class="st12" d="M185,329.7c2.1.3,2.9,1,3.7,1.2-2.1.7-4,1.2-3.7,3.7-1.1-.4-3.6.2-5,0l-1.2,51.7c-.4,0-.9,0-1.2,0-1,.1-2.7-.4-3.5.2-1.8,6.7-4.9,12.6-7.9,18.7-.6,1.1-2.2,1.9-2.3,2h-2.5c2.3-3.7,12.5-24.9,12.5-27.7v-24.6c0-4.8,2.9-16.8,3.7-22.8h2.5c.1-.8-.1-1.7,0-2.5,1.6,0,3.5-.2,5,0Z"/>
  <path class="st9" d="M244.9,238.3h-2.5c.2-1,0-2.1,1.2-2.5.5.9.8,1.5,1.2,2.5Z"/>
  <path class="st9" d="M180.1,531.5c0-.4-1.7-1-1.1-2.8.1-1.3,2-1.7,2.4-2.1l-1.2,4.9Z"/>
  <path class="st23" d="M187,569.5l8-1.3c1.3,0,.4,2.2.7,2.5l-2.6,2c3.7,4.2,1.6,5.4,1.3,9.1-4.9,5.5-11.4,5.9-17.5,9.3,1.8,2.3,2.2,6.8,3.7,8.7.9,1.2,10.6,12.4,11.3,12.8v2.5c-2-1.8-5-3.2-6.8-4.9-5-4.6-6.5-5.5-6.4-7.1,0-1.4,1.1-2.5,2-3.3h0c-5.4-4-7.9-6.6-7.9-6.6-2-2-2.3-3.7-3.2-5.2-.3-.4,4.5-10.2,4.3-10.6,9.8,3,13.9,7.2,15.6,1.8,1.3-4.2-1.7-8.5-2.5-9.7Z"/>
  <path class="st24" d="M288.5,148.5l1.2,1.2c.9.3,2.6-.2,3.7,0-.2,0-1,1.2-2,1.2-2.3,0-4.8,0-6.7,0-5.3,0-11,.4-16.2,0s-1.2-1.7-2.5-1.2v2.5c-.8,0-1.7,0-2.5,0s-.7-1-1.6-.9c-4.2.4-8.3,2.6-10.8,5.8-1,.4-1.7.9-2.5,1.2s-.9,1-1.2,1.2c-1.6.8-2.6,1.8-3.7,2.5s-4,.9-5.9,2.1-3.9,5.2-7.8,5.3c-1.2,4.3,3.8,1.6,5,2.4s1.5,1.6,2.5,2.5,1.7,1.7,2.5,2.5.3,1.8,2.5,3.7.8.9,1.2,1.2v2.5c-.2,0-1.6,1.4-2.5,1.2-.4-.4-.9-.8-1.2-1.2v-4.9c-4.1,1.8-5.4-2.5-5.7-2.6-.9,0-1.6,1.3-1.7,1.3-2.3,0-3-.4-5-1.2s-4.3-1.6-4.9-3.3c-.6-1.9-.1-3.3,1-4.8,1.9-2.5,19.7-13.1,23.5-14.9,14-6.6,26.1-9.2,41.4-5.3Z"/>
  <path class="st9" d="M354.5,185.4c1.6,2,2.2,2.7,3.7,4.9-1.4,0-2.5.8-3.7,1.2s-1.6-.6-2.6.8c-1.8,2.4-3,10.7-4.9,14-1.9,1.8-2.2-.2-2.4-1.9-.4-2.7-.8-4.3-1.3-6.7-1.1-5.7-1-10-3.7-16l2.5.6c-1.9-2.3-1.5-5.6,0-8,5.7,4,7.3,4.8,12.5,11.1Z"/>
  <path class="st4" d="M293.5,149.7c4,.1,7.1,2.4,10.6,2.5s5.9-1.8,9.6-1.1,10,4.7,11.3,5.9.7,2.4.8,2.5l-1.2.6c.5.6.8,1.2,1.2,1.9h-5c0-1.2,0-2.5,0-3.7l-3.7.6,3.7,5.5c0,.8,0,1.6,0,2.5h-1.2c-8.9-7.8-23.1-13.7-34.9-14.8v-1.2c1.9,0,4.4,0,6.7,0s1.8-1.2,2-1.2Z"/>
  <path class="st24" d="M342.1,174.3c-1.6,2.4-1.9,5.7,0,8l-2.5-.6c-2.1-4.6-6.1-8.4-8.7-12.3s-3.4-5-5-7.4-.7-1.3-1.2-1.9l1.2-.6c4.6,3.8,13.1,12.5,16.2,14.8Z"/>
  <path class="st12" d="M243.6,235.8c-1.3.4-1,1.5-1.2,2.5s.1,1.7,0,2.5-.9.4-1.2,2.5c-.8,5.4-.1,10.7-2.5,16-.8,0-1.7,0-2.5,0-2.3,5.9-5.7,9.6-8.7,16-.8,0-1.7,0-2.5,0,.3-1.2,0-3,.6-4.9,1.8-5.1,5.3-10.6,6.9-16-11.3-1.6-13.8,14.9-18.5,23-4.3,7.4-18.6,22.7-17.7,30.5,5.2,2.9,5.8-8.2,12.5-6.8l3.1,19.7c-4.4-3.6-5.3-9.6-6.9-14.8l-2.5,7.4c-3.5-.9-4.7-2.8-8.6-1.1l3.7,17.1c-.8,0-1.7,0-2.5,0-1.8-7.3-5.9-13.1-3.7-22.2,1.5-2,4.7-12.8,7.2-16.9,3.1-5,8-9.4,11.2-14.8s10.6-26,16.1-27.3c2.5-.6,6.3,2.4,9.2.5,2.8-3.1,3-15.1,7.4-15.4.4.8.8,1.7,1.2,2.5Z"/>
  <path class="st13" d="M246.1,185.4c1.2,4.4,1.5,4.6,5,7.4,0,1,1.1,2,1.2,2.5.5,2.2-1.4,4.4,2.5,3.7,0,.8-.1,1.7,0,2.5.3,2,1.2,2.3,1.2,2.5.3,1.1-.3,3,0,4.3.1.4.8.5,1.2.6l-1.2,4.9c-.7-6.2-8-10.1-13.7-11.1-2.5,2.5,9.4,11.9,11.2,14.2,8.2,10.6,5.4,16.5.7,27.8-.8,1.9.1,4.3-3.2,3.6.6-2.7.7-3.4,0-6.2,6.7-7.4,4.2-22.3-4.3-27.1s-14.9-2.7-11-11.9,9.5-.4,14-4.7c-4.3-3.2-5.7-9.2-8.7-12.9.9.2,2.3-1.2,2.5-1.2.6,0,1.8,1,2.5,1.2Z"/>
  <path class="st15" d="M251.1,242c.7,2.7.6,3.5,0,6.2-.5,2.2-1.3,4.2-2.5,6.2s-2.6,2.2-3.7,3.7l-1.2-1.2c4.9-4.5,3.4-13.2,1.2-18.5s-.8-1.6-1.2-2.5-.8-1.6-1.2-2.5c5.6,1.6,7.3,3,8.7,8.6Z"/>
  <path class="st13" d="M232.4,178c.2,0,.8-1.3,1.7-1.3s1.6,4.3,5.7,2.6v4.9c-1.8-2-5.6-3.9-7.5-6.2Z"/>
  <path class="st15" d="M362,248.1c-.4.6-.8,10.4-1.9,13.5-5,15.1-23.7,34.9-35.5,45.5s-4.6,2.3-6.2,4.9l-2.5,1.2c-5.1,0-25.9,14.7-30.5,18.5-7.5,6.3-14.7,16.7-21.8,22.1-2.6-1.2-.5-3.8.2-5.4,8.7-20.1,42.5-35.6,59.6-48.8,15.3-11.7,32.5-32.3,36.1-51.7h2.5Z"/>
  <path class="st12" d="M358.3,190.3c3.3,4.9,3.5,5.6,4.6,12.1,1.8,10.4,4.2,35.4,1.6,45-.4,1.3-2.4.7-2.5.8h-2.5c.7-3.7,0-10.5,0-14.8,0-3.3.1-6.6,0-9.8-.1-3.2-1.1-5.8-1.2-7.4s.1-2.5,0-3.7c-.2-2,.1-4.1,0-6.2s0-3.3,0-4.9h-2.5c-.2-3.3.2-6.6-1.2-9.8,1.2-.4,2.4-1.1,3.7-1.2Z"/>
  <path class="st20" d="M243.6,162c1,3.1-4.2,1.7-1.9,5,3,4.2,18.3,9,24.4,15.3,5.6,5.7,5.6,11.5,8.6,16.2s6.9,3.9,9.5,6.6,3.3,7.9,5.5,10.6,6.6,2.3,9.5,4.2c5.2,3.4,5.1,11.9,17.7,6.6,2.1-.9,10.1-11.3,11.5-12.1,3-1.7,10.2.7,11.2-4.9s-2-9.5,3.7-11.7c.5,2.4.9,4,1.3,6.7s.5,3.7,2.4,1.9c1.9-3.3,3.1-11.6,4.9-14s1.9-.5,2.6-.8c1.4,3.2,1,6.5,1.2,9.8s-.1,3.3,0,4.9h2.5c.1,2-.2,4.1,0,6.1-4.9-.4-3.1-.2-3.8,3s-1.4,10.2-2.4,14.3c-3.4-.3-3,2.3-4.1,3.9-7.8,11.3-12.2,20.2-24.6,27.3s-22.5,12-36.7,17.9c-16.3,6.8-32.1,14.7-49.6,18.4-5.6-4.2.1-7.5,1.4-10.7,2-4.9,2.9-9.1,6-13.8,8.1-12.3,28.7-16.5,33.5-28.4,2.2-5.5,1-20.3-1.8-25.8s-2.4-2.3-2.5-2.5c-.2-.4.4-2.1-.3-3.3s-8-6.4-9.7-6.5c-3.2-4.9-3.5-6.1-8.7-9.8s-.8-.7-1.2-1.2.4-1.7-.2-2.3-2.1,0-2.3-.2c-3.5-2.8-3.8-3-5-7.4s.5-2.8-.2-3.6-2.1,0-2.3-.1c-.5-.3-.8-.9-1.2-1.2v-3.6c-.1,0-2.5-.1-2.5-.1-.8-.8-1.7-1.7-2.5-2.5v-2.5s-2.5,0-2.5,0c-1.2-.8-6.2,1.9-5-2.4,3.9,0,5.4-3.8,7.8-5.3s4.5-1.3,5.9-2.1Z"/>
  <path class="st29" d="M263.6,153.4c4.2,4.6-4.4,4.9-4.7,9.5-.8,9,10.6,7.4,15.2,10.3s7.8,4.5,12.3,7.2,1.5,3.1,3.6,4.1,5.9.5,7.3,1.5.4,6.6,4.5,7.8c10.4,3.1,8.7-2.9,11.2-4.8,3.3-2.5,12.9-1.5,14.1-7.9s-2.7-10.1,3.8-11.7c2.7,3.9,6.6,7.7,8.7,12.3,2.7,6,2.6,10.3,3.7,16-5.7,2.2-3,7.5-3.7,11.7s-8.2,3.2-11.2,4.9-9.4,11.2-11.5,12.1c-12.6,5.2-12.5-3.2-17.7-6.6s-6.9-1.1-9.5-4.2-2.3-7.3-5.5-10.6-7.8-3.9-9.5-6.6c-2.9-4.7-3-10.5-8.6-16.2-6.2-6.3-21.4-11-24.4-15.3-2.3-3.3,2.9-1.9,1.9-5,1.1-.6,2.1-1.7,3.7-2.5l1.2-1.2c.8-.3,1.5-.8,2.5-1.2,3.3-1.5,8.8-2.9,12.5-3.7Z"/>
  <path class="st2" d="M266.1,152.2c.8,0,1.7,0,2.5,0,5.2,0,11.2-.5,16.2,0,11.8,1.1,26,7,34.9,14.8s-.6,2.2.8,2.5h4.2c0,0,0-2.5,0-2.5h-3.7c0-.8,0-1.6,0-2.5s0-1.6,0-2.5h5c1.6,2.4,3.3,5,5,7.4-6.5,1.6-2.8,6.7-3.8,11.7s-10.8,5.4-14.1,7.9c-2.5,1.9-.8,7.9-11.2,4.8-4.2-1.2-2.7-6.5-4.5-7.8s-5-.4-7.3-1.5-2.4-3.3-3.6-4.1c-4.5-2.7-7.2-3.9-12.3-7.2s-16-1.3-15.2-10.3,9-4.9,4.7-9.5v-1.2c.8,0,1.7,0,2.5,0Z"/>
  <path class="st4" d="M263.6,152.2v1.2c-3.7.8-9.1,2.2-12.5,3.7,2.5-3.2,6.7-5.4,10.8-5.8s1.5.9,1.6.9Z"/>
  <path class="st20" d="M284.8,150.9v1.2c-5-.5-11,0-16.2,0v-1.2c5.2.4,10.9,0,16.2,0Z"/>
  <path class="st14" d="M239.9,176.8h2.4c0,.1.1,3.7.1,3.7-2.2-1.9-2.3-3.5-2.5-3.7Z"/>
  <path class="st4" d="M268.6,150.9v1.2c-.8,0-1.7,0-2.5,0v-2.5c1.3-.5,2.4,1.2,2.5,1.2Z"/>
  <path class="st14" d="M234.9,171.9h2.5s0,2.5,0,2.5c-1-.9-2.3-2.3-2.5-2.5Z"/>
  <path class="st4" d="M247.4,159.5c.4-.2.7-1,1.2-1.2l-1.2,1.2Z"/>
  <path class="st29" d="M320.9,164.5l-3.7-5.5,3.7-.6c0,1.2,0,2.5,0,3.7s0,1.6,0,2.5Z"/>
  <path class="st29" d="M320.9,166.9h3.7s0,2.5,0,2.5h-4.2c-1.4-.2-.6-2.3-.8-2.5h1.2Z"/>
  <path class="st14" d="M254.9,196.5c5.2,3.8,5.5,5,8.7,9.8s3.3,8.9,10,9.8c.1.2.7-1,2.5,2.5-3.8,3.8-.6,9.4-1.5,15.1-.8,4.9-4.9,11.5-9,14.5-9.3,6.6-24,17.9-32.3,26-2.8,2.7-16.2,20.2-17.5,23.3-6.7,16.1,13.6,8.8,22.1,9.8,5-7.2,15.6-6.5,23.2-9.4,7-2.6,24.3-21.9,22.6-2.9-7.2,3.6-15.3,8.9-21.2,11.6-3.1,1.5-7.7.9-11.1,2.6s-5.6,6.2-10.6,8c-7.4,2.6-17.7,2.5-24.4,4.9s-1.7-.3-2.4,0c-2.2,2.7,4.2,13.4,4.9,16-3.7.2-7.5-2.6-10,1.2-.9-1-3.3-1.7-4.5-2.9-2.6-2.6-2.9-6.9-6.7-7l-3.7-17.1c4-1.6,5.1.2,8.6,1.1l2.5-7.4c1.6,5.2,2.4,11.1,6.9,14.8l-3.1-19.7c-6.7-1.4-7.2,9.7-12.5,6.8-.9-7.9,13.4-23.1,17.7-30.5,4.7-8.1,7.2-24.6,18.5-23-1.6,5.4-5.1,10.9-6.9,16s-.2,3.7-.6,4.9-2.1,2-2.5,3.1l1.8,1.8c2.4-1.3,2.3-3.1,3.1-4.9.7,0,1.5.3,2.2-.3,4.7-6.4,10.1-10.4,15.3-17s3.5-3.4,3.7-3.7c4.9.6,6.7-5.1,9.2-8.2s2.9-1.4,3.9-2.9c5.5-8-1.5-25.5-2-34.4-.7-.4-1.9.1-2.4,0s-1.1-.3-1.2-.6c-.3-1.3.3-3.2,0-4.3l1.2-2.5h-2.5c-.1-.8,0-1.7,0-2.5s0-1.6,0-2.5ZM203.1,315.8v1.2c.8-.4.8-.8,0-1.2Z"/>
  <path class="st17" d="M244.9,238.3c2.1,5.3,3.6,14-1.2,18.5s-1.4-.3-2.1.3c-2,1.6.2,2.1-2.9,2.1,2.4-5.3,1.7-10.6,2.5-16h2.5s-1.2-2.5-1.2-2.5c.1-.8-.2-1.7,0-2.5h2.5Z"/>
  <path class="st9" d="M243.6,256.8l1.2,1.2c-5.1,6.5-10.5,10.5-15.3,17-.7.6-1.5.2-2.2.3-.8,1.8-.7,3.6-3.1,4.9l-1.8-1.8c.3-1.1,2.3-2.4,2.5-3.1.8,0,1.7,0,2.5,0,3-6.4,6.4-10.1,8.7-16,.8,0,1.7,0,2.5,0,3.1,0,.9-.5,2.9-2.1s2-.2,2.1-.3Z"/>
  <path class="st9" d="M242.4,240.8l1.2,2.5h-2.5c.3-2.1,1.2-2.3,1.2-2.5Z"/>
  <path class="st3" d="M251.1,248.1c3.3.7,2.4-1.7,3.2-3.6,4.7-11.3,7.5-17.2-.7-27.8s-13.7-11.7-11.2-14.2c5.8,1,13,4.8,13.7,11.1l1.2-4.9c.4.2,1.6-.3,2.4,0,.4,8.9,7.5,26.4,2,34.4s-3.1,1.9-3.9,2.9c-2.5,3.1-4.3,8.8-9.2,8.2,1.2-1.9,2-3.9,2.5-6.2Z"/>
  <path class="st3" d="M254.9,196.5c0,.8,0,1.6,0,2.5-3.9.7-2-1.5-2.5-3.7h1.2c.4.6.6.8,1.2,1.2Z"/>
  <path class="st14" d="M243.6,181.7c.3.2,1.8-.4,2.3.1s0,2.6.2,3.6c-.7-.2-1.9-1.3-2.5-1.2v-2.5Z"/>
  <path class="st3" d="M254.9,201.4h2.5s-1.2,2.5-1.2,2.5c0-.1-.9-.4-1.2-2.5Z"/>
  <path class="st14" d="M251.1,192.8c.2.2,1.7-.4,2.3.2s0,2,.2,2.3h-1.2c-.1-.5-1.3-1.5-1.2-2.5Z"/>
  <path class="st9" d="M181.3,535.2c-.3-.4-1.1-.8-1.2-1.2l1.2,1.2Z"/>
  <path class="st23" d="M317.1,292.5c4.2,0,6.7,3.4,6.2,7.4-17.1,13.1-50.9,28.7-59.6,48.8-.7,1.6-2.7,4.2-.2,5.4-.5.3-.8.9-1.2,1.2-.3-.4-7.3-3.1-8.7-3.7.6-4-3.9-2.8-5-4.6-4.7-7.6.5-15.8,6.2-20.7,13.9-12,30.8-18.7,46.2-28.2,5.7,0,10.8-5.6,16.1-5.6Z"/>
  <path class="st25" d="M359.5,233.4c0,4.3.7,11,0,14.8-3.7,19.4-20.8,40-36.1,51.7.5-4-2-7.4-6.2-7.4,2.6-11.8,22.9-9.9,21.2-24.6.8-.8,2.2-3.9,3.7-5.6,4.4-5.1,3.3,0,5-7.9,0-.4-.1-.8,0-1.2,6.2-1.8,7.1-11.1,8.5-15.6s.7-4.2,4-4.1Z"/>
  <path class="st14" d="M358.3,212.5c.1,1.2,0,2.5,0,3.7-3.7,1.1-2.1,4.8-2.5,7.4-1.9,11.3-6,19.3-8.7,29.5-.1.4,0,.8,0,1.2l-17,14.6c-14.4,7.3-27.2,15.3-41.5,22.3-5.6-11.9,8.2-9.3,14.6-12s24.1-13.8,25.8-15.1c11.9-8.5,19.3-20.4,23.1-34.4,1.1-4.1,1.5-9.8,2.4-14.3s-1.1-3.4,3.8-3Z"/>
  <path class="st17" d="M359.5,223.5c.1,3.3,0,6.6,0,9.8-3.3-.2-3.3,1.7-4,4.1-1.4,4.5-2.2,13.8-8.5,15.6,2.7-10.2,6.8-18.3,8.7-29.5h3.7Z"/>
  <path class="st25" d="M359.5,223.5h-3.7c.4-2.5-1.2-6.3,2.5-7.4.1,1.6,1.1,4.2,1.2,7.4Z"/>
  <path class="st25" d="M355.8,201.4h2.5c.1,1.6,0,3.3,0,4.9h-2.5c-.1-1.6.1-3.3,0-4.9Z"/>
  <path class="st27" d="M276,218.6c2.8,5.5,4.1,20.3,1.8,25.8-4.8,11.9-25.5,16.1-33.5,28.4-3,4.7-3.9,8.9-6,13.8-1.3,3.1-7,6.4-1.4,10.7,17.5-3.7,33.3-11.6,49.6-18.4,14.2-5.9,23.4-10.3,36.7-17.9s16.9-16.1,24.6-27.3c1.1-1.6.7-4.3,4.1-3.9-3.7,14-11.1,25.9-23.1,34.4s-24.5,14.5-25.8,15.1c-6.4,2.7-20.3,0-14.6,12-.5.2-2,2.2-5,3.7,1.7-18.9-15.6.3-22.6,2.9-7.6,2.9-18.2,2.2-23.2,9.4-8.5-1-28.8,6.2-22.1-9.8s14.7-20.5,17.5-23.3c8.3-8.1,23-19.4,32.3-26s8.2-9.5,9-14.5c1-5.7-2.3-11.3,1.5-15.1Z"/>
  <path class="st27" d="M263.6,206.3c1.6.1,9.2,5.8,9.7,6.5.8,1.2.1,3,.3,3.3-6.6-.9-7.3-5.8-10-9.8Z"/>
  <path class="st17" d="M347.1,254.3c-1.7,7.9-.6,2.9-5,7.9-1.5,1.7-2.9,4.9-3.7,5.6-7,6.8-21.8,14.5-30.3,19.3-20.9,11.7-42,21.1-61.1,34.5-5.5,3.9-16.6,9.2-23.3,9l1.3,8.6c-.7-.2-1.7.1-2.5,0l.9-2.2c-4-2.8-5-10.3-7.1-15,6.7-2.4,17-2.3,24.4-4.9s7.3-6.3,10.6-8,7.9-1.1,11.1-2.6c5.9-2.8,14-8.1,21.2-11.6s4.5-3.4,5-3.7c14.3-7.1,27.1-15.1,41.5-22.3l17-14.6Z"/>
  <path class="st24" d="M165.1,465.1c-.8,0-1.7,0-2.5,0-.5-2.4,2.1-3,2.5-3.7-.1,1.2.2,2.6,0,3.7Z"/>
  <path class="st15" d="M188.8,488.5c.6.1,1.2.6,1.2,1.2.2,1.5-.2,3.3,0,4.9-3,1.4-5.8,1.9-6.2,6.2h-5s0-2.5,0-2.5c1.2-1.1,3-4.1,5-6.2,2-2,4.8-3.5,5-3.7Z"/>
  <path class="st7" d="M317.1,292.5c-5.3,0-10.4,5.6-16.1,5.6-15.4,9.5-32.3,16.2-46.2,28.2-5.7,4.9-11,13.1-6.2,20.7,1.1,1.7,5.7.6,5,4.6-2.5-1-6.1-2.5-8.7-2.5-.7.2-1.3-.7-1.2-1.2s1.3-.4,1.3-1.2c-.8-.2-1.8.2-2.5,0-1-.3-3.2-.6-3.7-1.2-.9-1.1,2.1-1.8-2.5-2.5s-2.6.2-3.7,0c-.4-.4-.7-1-1.2-1.2s-1.8-.9-2.5-1.2-1.2-.8-2.5-1.2-.8,0-1.2,0l-1.3-8.6c6.6.2,17.7-5.2,23.3-9,19.1-13.3,40.1-22.7,61.1-34.5,8.5-4.8,23.3-12.5,30.3-19.3,1.7,14.7-18.5,12.8-21.2,24.6Z"/>
  <path class="st9" d="M193,387.1c-.8,8.1-.4,22.8,1.2,30.8-9.8-.3,1,10,2.5,12.3.7,1,2.3,2.8,2.5,3.7.4,1.7-.4,4.5,0,6.2-1.8,1.2-4.6.8-6.2,1.9-1.3.9-1,2.9-1.2,3-2.3,2-17.1,2.5-20.6,2.7-.9,0-2,1-3.2.5-2.2-.8-2.7-4.8-2.9-8,1.9-1.6,3.7-3.4,5.6-5.2,5.2-5.2,9.7-10.3,13.5-15.2.9-2.7-2.2-1.5-2.5-1.8-.2-.2-1.5-4.7-1.3-4.9,5.2-.2,5.6-2.9,6.2-7.4,5.9,2.6,4.1,0,1.1-3l1.4-15.5h3.7Z"/>
  <path class="st12" d="M187.5,439.2c.7,2.8,4.1,5.3,5.6,7.5s.3,3.7.9,4.6,2,0,2.2.2c5.2,4.1,7.2,3.5,13.7,4.3l-13.7,1.9c.5,5.3,4.3,5.3,8.1,6.2,6.5,1.6-2.6,6-2.8,6.4-1.3,2.1-2.2,10-5.3,14.5s-4.9,5.6-6.2,4.9c0-.6-.6-1.1-1.2-1.2.9-1,2.3-5.7,4.9-6.9l-3.7-4.1c.5-1.6-.8-4.6,1.9-6.1l2.5,6.1c7,1.5-2.2-14.2-2.9-15.6-3.1-5.9-7.5-12.3-11.4-17.6.2-.2,0-2.2,1.2-3s4.5-.7,6.2-1.9Z"/>
  <path class="st15" d="M188.8,364.2c-1,3.8-.9,7.3-1.2,11.1s0,5,0,6.2,0,2.5,0,3.7c-.5,11-1.1,16.7,0,28.3.8,8.1-.3,13.4,5,20.9-.3-.1-.8.1-1.2,0-1.1-.3-2.4-1.2-3.7-1.2-.2-.9-1.8-2.7-2.5-3.7l2.4-1.8c-3-3.7-4-6-4.9-10.5-1.7-8-2.1-22.7-1.2-30.8s4.5-16.1,6.2-23.4l1.2,1.2Z"/>
  <path class="st9" d="M191.3,434.3c2.3,2.6,4.1,6,6.2,8.6l-2.5,3.7,2.2-.9,11.4,7c-2.2.2-4.2,0-6.3-.5-3.5-.9-1.2-5.7-6.1-.7-.2-.2-1.7.4-2.2-.2s-.1-3.3-.9-4.6c-1.4-2.2-4.9-4.7-5.6-7.5s.4-4.5,0-6.2c1.4,0,2.6,1,3.7,1.2Z"/>
  <path class="st12" d="M182.5,417.1c.9,4.5,1.9,6.8,4.9,10.5l-2.4,1.8c-1.5-2.3-12.3-12.7-2.5-12.3Z"/>
  <path class="st24" d="M236.2,342.9c4.6.7,1.6,1.4,2.5,2.5-2.4.4-2.9-.1-2.5-2.5Z"/>
  <path class="st4" d="M206.3,345c2.1-.2,4.3.1,6.4,0,1.7,2.1,3.5,4.1,5.1,6.3,7.7,10,16.4,20.5,20.5,32.5l-24.3-3.7c.7,3.2-1.4,6.6-1.4,9.5s1.3,2.6,1.3,3c.3,1.7-.1,5,1.3,6.3l-1.3,5c-1,.4-1.9,1-2.6,1.3-3.4,1.3-5-1.2-8.4,5l-6.9-5c2.6,8.6,0,11.4-9,8.7-1.2-11.8-.5-17.6,0-28.8,3.3.6,3-2.8,5.1-4.4,2.6-1.8,7.8-1.8,8.8-5.3,1.1-3.6-2.5-5.3-2.2-7s2.8-3.1,3.4-5.5,1.5-15.9-4.9-14.1c4.1-2.4,2-3.2,9-3.8Z"/>
  <path class="st4" d="M197.8,348.7c6.4-1.8,5.6,11.2,4.9,14.2s-3.2,4.3-3.4,5.5c-.3,1.8,3.3,3.4,2.2,7.1-1,3.4-6.2,3.4-8.8,5.3-2.1,1.5-1.8,5-5.1,4.4,0-1.3,0-2.5,0-3.8,1.9-1.8,1.9-4.5,0-6.3.3-3.8.2-7.4,1.3-11.3s1.5-1.2,1.9-2.5c2.5-7.9-.3-8.2,7-12.6Z"/>
  <path class="st9" d="M188.8,488.5c-.2.2-3,1.7-5,3.7-5.8.7,3-7.3,3.5-8.2,1.4-2.4,1.9-4.1,2.7-6.6l3.7,4.1c-2.6,1.3-4,5.9-4.9,6.9Z"/>
  <path class="st4" d="M187.5,413.4c8.7,2.6,11.2-.2,8.7-8.6l6.7,4.9c3.4-6,4.9-3.6,8.2-4.9.1,5.7,5.5,5,7.5,6.2s3.6,2.8,3.7,3.7c-2.1,1-11.8,5.8-11.2,8l8.5,5.7-2.4,6.6c0,1.2,2.3.4,2.5.6s-.4,1.7.3,2.1,5.6,1.5,6,1.6c0,1.3-1.1,2.7-1.2,3.7h-1.2c-5.7-1-11.8,2.8-17.8,1-2.8-.9-8.4-7.6-13.3-9.6-5.2-7.5-4.2-12.8-5-20.9Z"/>
  <path class="st9" d="M201.2,445.4c-1.2.1-1.7-.6-2.5-1.2,1.2-.1,1.7.8,2.5,1.2Z"/>
  <path class="st18" d="M450.5,451.2c0,1.2,0,2.5,0,3.7l-18.7,13.5c0-.1-2.3.5-2.6-.8,3.9-9-3.3-5.6-4.9-12.7,5.2.9,9-.9,13.7-2.5-.6,3.6,3.4,3.3,5.4,3.8,2-4.2,3.7-3.6,7.1-5Z"/>
  <path class="st23" d="M187.9,582.1c-.2,2.6,5.4,7.8,7.6,9.1,5.1,3,19.7,6,19.8,12.5,0,2.5-5.5,5.6-2.5,8-1.8,2.8-2.4,10.5-6.9,11.1s-11.8-5.7-16.1-8.8-4-.9-4.4-1.1c-.7-.5-10.3-11.6-11.3-12.8-1.4-1.9-1.9-6.3-3.7-8.7,6.1-3.4,12.5-3.8,17.5-9.3Z"/>
  <path class="st17" d="M221.2,575.5c1.6.6,3.4.7,5,1.2,3,7.6,5.7,8.4,11.2,13.5s4.2,3.2,5,6.2c-2.3.7-6.5,3.4-8.7,4.9s-5.5,4.2-7.5,6.2l-21.4-9.1c-6.5-4.4-11.2-8.8-16-14.3,10.8-5.1-1.2-7.2-2.5-8.6-2.3-2.7,2.3-2.3,2.5-2.4.8,2.6,4,2.1,5.6,3.7s1.6,6.2,6.2,9.8c9.9,7.8,16.1,2.5,24.3-3.7v-2.4c-4.6-.2-3-3-3.7-4.9-2.7-.9-4.6-1.8-6.4-4.3s0-2.3.1-3.1c4.7.3,5,4,6.2,7.4Z"/>
  <path class="st3" d="M191.6,585c4.8,5.6,9.5,9.9,16,14.3l21.4,9.1c-4.2,4-11.9,12.6-15,17.2-3.1-2.4,2.5-5.5,2.5-8,0-6.5-14.7-9.5-19.8-12.5-2.2-1.3-7.8-6.4-7.6-9.1s2.4-4.9-1.3-9.1l2.6-2c.1.2,1.1-.2,1.2,0Z"/>
  <path class="st4" d="M424.3,408.1c.7.1,1.5-.3,2.2.3.7,2.6,0-15.2,1.5-13.8,6.8,6.5-.5-33.4,10.3-31.6,2.8-.7,14.8,60,8.4,66.1-1.7,1.7-4.9,15.8-5,16h0c2.5-3.7,5.3-11.4,5-16-2-1-5.3,4.2-5.5,5-1.4,3.6-.3,9.2-4.8,11.4-8.4,4.2-13.1.6-20.5-2.6s-3.2-3.1-2.9,1c-.6-.2-1.7.1-2.5,0-.3-.9-1.8-2-1.2-3.7,1.2,0,2.5,0,3.7,0,1.5-6.3-3.7-5.5-7.5-8.6.2,0,1.4-1.1,3-1.3,3.1-.3,6.3.4,9.4,0l2.5-11-8.7,1.2c-1.5-1.2-4.6-.5-3.7-3.7,4.4-.3,16.9-2.2,16.2-8.6Z"/>
  <path class="st15" d="M443,392.1c-.6,2-3.7,4.7-3.7,7.4-1.4.4-1.6.7-2.5,1.2s-.8.9-1.2,1.2c-.9.8-2.4,1-3.1,2.5s-.3,3.4-.6,4.9-1.8,2.1-1.2,3.7c-1.5-1.4-3.3-2.1-4-4.7-.7-.6-1.5-.2-2.2-.3s-.9,0-1.2,0v-1.2c.2-.7,1.3-2.1,1.2-2.5,9.1.1,10.4-11.2,18.7-13.5,0,.4,0,.9,0,1.2Z"/>
  <path class="st17" d="M299.7,767.5c-2.9-1.3-4.5-.9-3.7-4.9,1,1.3,3.5,2.4,3.7,4.9Z"/>
  <path class="st14" d="M206.8,608.1c2.9-3.9,5.4-8.2,8.2-12.2,8.1.5,4.1,3.3,6.8,8.5s2.2,3.4,5,3.7c-.1.8.2,1.8,0,2.5s-2,.5-.1,3.1c1.8,2.5,3.7,3.4,6.4,4.3.7,2-.9,4.7,3.7,4.9v2.4c-8.1,6.2-14.4,11.5-24.3,3.7-4.6-3.6-4.1-7.6-6.2-9.8-1.6-1.6-4.8-1.1-5.6-3.7,3.4-2.6,4.2-4.5,6.2-7.4Z"/>
  <path class="st17" d="M210,562.3c-2.7-5.1,1.3-8-6.8-8.5-2.8,4-5.3,8.2-8.2,12.2l-6.2-6.8c6.7.6,9.3-8,6.2-12.9l5-3.7c2.9,1.4,10.6,2.7,11.1,4.4l-1.2,15.2Z"/>
  <path class="st9" d="M196.3,538.9c1,1.2,2.3,3,3.7,3.7l-5,3.7c-1.3-2-6.2-3.7-7.9-4.9s-.8-2.4-.9-2.5c.2-.7,1.3-2,1.2-2.5,3.2,1,5.3,2,8.7,2.5Z"/>
  <path class="st9" d="M223.7,564.8c.3,1.6,1.1,3.3,1.2,4.9.2,2.7-.3,3.5,1.2,7.4-1.6-.5-3.4-.7-5-1.2-1.2-3.4-1.6-7-6.2-7.4.2-.7-.1-1.7,0-2.5,3.5.4,5.9-1,8.7-1.2Z"/>
  <path class="st5" d="M187.5,536.5c0,.5-1,1.8-1.2,2.5-2.6-1.5-1.5,2-5-3.7l-1.2-1.2c-.2-.6.2-1.7,0-2.5l1.2-4.9c3.3-4.3,7.8-7.2,10-12.3h1.2c-1.3,3.8-5.2,12.3-6,17s.9,3.9,1,5.2Z"/>
  <path class="st12" d="M413.1,443.8c-.3-4.1.7-2,2.9-1,7.4,3.2,12,6.8,20.5,2.6,4.5-2.2,3.4-7.8,4.8-11.4.3-.8,3.6-5.9,5.5-5,.3,4.5-2.5,12.2-5,16-4.5,6.7-14.5,7-21.2,3.7-1.6-.8-4.4-3.8-7.5-4.9Z"/>
  <path class="st4" d="M434.3,378.6c.4.4.8.9,1.2,1.2,1.3,1,1.6,1.5,2.5,2.5s2.2,2.1,2.5,2.5.9.8,1.2,1.2,1.2.9,1.2,1.2c.2.7.1,2.8,0,3.7-8.3,2.4-9.6,13.7-18.7,13.5-.1-.5-2.4-1-2.5-2.1-.2-2.3,2.2-6.1,1.3-9h-2.5c.5-.6.9-1.7,1.2-2.5s1.7-1.1,1.4-2.9c-1.2-.4-3.6-3.1-3.8-3.2,6,1.3,2.1-6.5,9.9-5,.4-1.5-.3-3.4,0-4.9,1.7,1.2,3.4,2.4,5,3.7Z"/>
  <path class="st24" d="M423.1,406.9v1.2c-.8,0-1.8-.1-2.5,0v-1.2c.7.2,1.7-.1,2.5,0Z"/>
  <path class="st4" d="M292.2,368.7l1.2,2.5h-1.8c-1.3.1-.3-2.1-.6-2.5h1.2Z"/>
  <path class="st9" d="M185.1,334.1c.6.2,1.1,2.3,1.4,2.4,1.1.4,2.7-1.2,3.4-.9s1.7,3.9,3.9,4.2c-2.9,1-1.9,1.4-2.5,3.1-1.7,4.8-2.4,14.2-3.8,20-1.7,7.4-5.5,16.1-6.3,23.7-.8,0-1.7,0-2.5,0l1.2-52.4c1.4.2,3.9-.4,5,0Z"/>
  <path class="st15" d="M203.5,342.3l4,2.6c-7.2.5-5.1,1.4-9.3,3.9-7.6,4.5-4.7,4.8-7.3,12.9s-1.9,2.2-2,2.5l-1.3-1.3c1.4-5.9,2.2-15.6,4-20.6,4,0,8,.1,12,0Z"/>
  <path class="st10" d="M192.5,499.5v1.2c-.3.2-1.2,4.4-5,4.9-2.1-.1-4.2.1-6.2,0-.5-2.1,1.9-3.7,3.7-4.9,1.8-1.2,5.8-3.1,7.5-1.2Z"/>
  <path class="st4" d="M438,313.4c-1.5,3.2,4.1,50.3,3.7,53.5-.7,6.3-7.7,1.4-3.9,7.4-.3.9-6.9-2.7-7.3-1.9s-.9,1-1.2,2.5,6,16.3,5.6,17.8c-7.8-1.6-9.6-6.7-15.6-8-5.9-2.6-6.9-.4-11.2,0s-5.8,0-8.7,0c-.4-1.2.1-2.5,0-3.6,6.5-7.4,11.6-16,18-23.4,2-2.3,10-8.3,10.3-8.9.9-1.4-3.8-5.9-3.5-7.1,1.1-.2,12.5-28.3,13.7-28.3Z"/>
  <path class="st4" d="M437.9,374.3l5.1,12.9h-1.7c-1.3-1.4-1.6-2.2-3.4-3.7-.6-.6-1.1-1.3-1.7-1.8-2.2-1.9-4.5-3.8-6.9-5.5-1-1.8-2.3-4.6-1.6-5.2.3-.2,1-.3,3.3,1.5,2.5-.7,5.1,1.6,6.9,1.8Z"/>
  <path class="st4" d="M435.5,379.8c-.5-.4-.9-.8-1.2-1.2.5.4.8.8,1.2,1.2Z"/>
  <path class="st27" d="M437.1,318.3c0,0-.2,0-.3,0-.4,0-.8,0-1.2,0-.5.5,1.2,3.7,1.2,4.9,0,.4,0,.8,0,1.2,0,.8,0,1.6,0,2.4-.4,6-1.2,7.7-6.2,11.2-2.2,1.9-1.9,3.9-2.5,6.2-.5,0-3.4,1-3.7,1.2v-3.7c-3.5-.8-5.5,2.9-8.4,3.5-2.9.6-2.7-1.1-2.8-1.1,1.9-2.3,5.1-2.7,7.4-4.4,7.2-5.5,7-16.3,11.3-23.9,1.6-2.9,2.9-2.8,6.2-2.5.1.2,1,1.4.7,2.9-.2.8-.6,1.4-.9,1.7-.3.1-.5.2-.8.4Z"/>
  <path class="st4" d="M430.5,354l11.2,12.9-10,3.1c-3.8-6-1.9-9.7-1.2-16Z"/>
  <path class="st10" d="M390.7,635.8c-.3-.4.6-2.7-.2-3.5s-6.7-.7-3.5-3.9c2.2-2.2,4.3,2,5,2.5,1.6,1.1,3.6,1.1,3.7,1.3s-1.1,2.2-.9,3.9c.9,9.6,1.9,17.8.9,26.8-1.2,11.4-5.6,23.5-7.5,34.5s0,2.5,0,3.7,0,2.5,0,3.7c-3.3,2.8-6.3,10.6-6.2,14.8-1.2.4-1.2,1.4-1.2,2.5s0,1.7,0,2.5c-2,4.5-5.4,10.8-6.1,15.5s-.3,4.2,3.6,3c0,1.1,0,3.5,0,3.7h-5.6c-1.7,3.6-2.7,7.5-4.3,11.1s-.8,2.6-1.2,3.7c-.9,2.2-2.5,4-3.7,7.4-2.2,6.2-5.1,12.4,5,12.3-.3-1.5.5-5.4,0-6.2v-2.5s2.5,0,2.5,0v3.7c0,0,0,1.9,0,2.5.1,1.2.9,1.7,1.2,2.5s-.7,2.2.8,2.5l8.9-1.6,1.5-10.8c6.3-.8,1.6,10.2,2.5,11.1,2.5,1.2,6.7-1.6,7.5-3.7l2.5.6-2.5,5.5c-7.6,3.5-20.9,4.5-29.2,2.6l-6.9,13.4c-2.2-1.2-5.5,1.2-6.2,1.2s-1.7,0-2.5,0c-15.4,0-30.5-1.2-46.1-2.5-2.6-3.3-5.9-7.4-6.1-11.8s3.2-13.5,3.6-14.1,2.1.5,2.5-.9-.3-3.1,0-4.1c.5-1.7,2,1.5,3.7-6.2,1.6-6.9,4.2-12.1,5-19.7s2.8-1.5-.6-3.7l-5.6,4.9c-2.8.4-5.9.8-8.7,1.2-4.8.8-.6,3.6-5,3.7-.2-.7-1.5-3.3-2.2-3.7l-22.1-12.4c-6.6,5.1-14.6,9-16.9,17.3s-1.4,10.5-1.3,16.8c0,2.3,1.3,3.9,1.3,4.2,1,22.5-32.5,16.5-46.1,16,.1-3.3-.2-6.6,0-9.8s-.1-2.5,0-3.7c.8,0,1.7,0,2.5,0,0,.8-.1,1.8,0,2.5,1.1,5,3.9,8.4,9.5,8.6,6.4.2,6.1-3.5,8-7.3l2.4,5.6c2.8,2.1,15.8-2.3,17.6-5.3,3.9-6.4-.9-24.6,1.2-32.4,4.5-1.1,10.4-8.9,13.7-11.7s5.3-2.6,7.5-4.9c.2-2.4-15.4-10.1-18.7-13.5-2.3-2.4-3.6-5.1-4.9-8,1.7,0,3.3,0,5,0,5.4,6.5,15.5,8.8,19.9,13.5s3.5,5.2,11.2,11.1c.2.1,0,2.2,2,3.5,7.8,5.3,13.2,5.7,21.7,2.6,1.2-.4,2.2,0,4.4-1.2,7-4.1,9.3-14.8,9.3-22.2s-.2-5.7-1.2-8.6c.8-.3,1.6-2.1,3.7-1.2-1.9,3.9,2.4,7,2.5,7.4.2,1,0,2.5,0,3.7h-2.5c.4,3.1-1.2,7.7,1.2,9.8-1.8,11.2-7.7,27.8-7.5,38.1-4.2-.6-3.1,6.2-4.1,8.8-3,7.4-12.1,17,.4,21.9l2.5-13.6c.7-.1,1.1,1.3,1.2,1.2.2,3.3-.7,8.6,1.1,11.5s7.5,4.5,8.3,4.5c6,.6,6.5-9.9,8-14.8l2.3,2,.8,10.3c2.3,2.5,4.7.6,6.9,0,5-1.5,6.4-1.8,7.5-7.4,0-.4,0-.8,0-1.2h2.5c.1,2.3.6,3,1.2,4.9s-.2,1.7,0,2.5h1.9c1.3,0,.3-2.1.6-2.5s2.2.5,2.5-.8c1-3.9-.5-11.6.3-16.7,1.3-8.2,7.9-21.8,10.9-30.4.6-1.8.8-3.6,1.2-4.9s.9-1.4,1.2-2.5c3-9,6-17.8,8.7-27.1s.9-1.1,1.2-2.5c2.1-7.4,8.8-26.8,8.7-33.2,1.2-.3,1.1-1.4,1.2-2.5s-.2-2.6,0-3.7c.4-2.5.9-4.3,1.2-7.4h2.5s0-2.5,0-2.5c1.3-6-1.6-13.1-1.2-18.5,0,0,1.1.2,1.2-.6.9-4.3-2.4-2.9-2.5-3.1Z"/>
  <path class="st15" d="M449.2,521.3c0,6,4.1,9-2,15.9-4.3,5-19,9.9-19.9,11.1-2,2.9,1.1,13-3,16.7-2,1.3-7.2.4-10,.6l-5.6-2.5c-1.2,0-.5,1.5-.6,2.5s0,2.5,0,3.7c-4.3,4.6-17.6,5.3-17.5,12.3l-8.7-1.2.7,3.8,11.7,1.1c.2,1,2.3,2.7,1.2,4.9h-3.7c-1.7,5.8,6.3,6.6,7.2,7.7s.1,3.2.9,4.6c1.5,2.5,9.5,7.3,6.7,11.1s-7.6,3.3-8.6,5.6l7.4,12.3-8.8,3.9c2.8,6.4,1.3,15.8,2.9,21.7.6,2.3,4.3,5.9,5.7,9.2,8.4,20.3.9,52.1-12.2,69.3s-11.7,7.6-7.3,16.4,13.5,7.9,12.3,25.4c0,.8.1,1.7,0,2.5-.9,4.4-1.8,3.5-5,4.9l2.5-5.5-2.5-.6c2-5.2.8-13-3.8-16.6-5.3-4.2-6.8-.4-9.9-10.5s-.9-3.3-1.2-4.9,0-2.5,0-3.7,0-.8,0-1.2l10.6-8.5c7.6-9.3,7.9-15.1,10.6-25.9,3.3-13.6,6.3-25.4.8-39.6-.7-1.8-1.8-5.2-4.6-4.7,1-9,0-17.2-.9-26.8-.1-1.7,1-3.7.9-3.9s-2.1-.2-3.7-1.3c.5-2.5,7.7.3,6.2-3.1s-11.6-11.5-10-12.9c4.3.6,6.6-.7,10-2.5.4-.2,1.7.2,2.4,0v-3c-.2-1-2.3-.5-2.4-.6-2.7-3.2-3.7-4.4-7.5-7.4s-1.2-1.5-2.5-2.5c1.2-4.6-8.1-13.4-11.6-13.3-5.9.1-17.1,6.7-24.5,4.7l6.2,7.4c-1.3,1.1,1.2,3.9-6.2,3.7.8-4.8-2.4-9.1-7.5-6.8s-2.1,2.9-2.5,3.1c-3.6,1.8-10.1,2.4-13.7,3.7v-3.7c2.7.6,6.9-1.1,9.2-2.6,3.2-2.2,2.3-3.5,3.3-4.7s3.8.7,2.5-3.7c6.8-.9,13.3-2.5,19.9-3.7s20.9-5.3,30.2-10.2c8.8-4.6,10.7-5.2,8.5-15.6,5-.7,3.9,1.9,8.7,2.5,2,.2,4.2-.2,6.2,0l.7,2.5,4-1.5c.6-.9.4-4.6.2-5.9-.4-3-1.6-4-2.5-6.2s-1-4.3-2.5-6.2v-1.2c8.6.5,25.1-.6,29.3-9.9.8-1.8-2.5-9.9-3.4-10.8s-1.8,0-2.2-.2c1.6-2.2,6.3.6,8.7,1.2Z"/>
  <path class="st12" d="M233.7,601.3c3.3,4.1-3.6,5.3-2.5,9.8l3.7-1.2c.7,5.4,9.3,5,13.7,6.2l-3.8,5.6c-.5,1.1,2.1,2.9,2.5,3-3.7,5-2.8,10.7-3.7,16-1,6-2.7,9.4-2.5,16,0,1.6-.1,3.3,0,4.9-2.7,7.3-3.3,16.9-2.5,24.6h-1.2l-2.5-1.2c-.6-1.9-1.9,1.2-1.2-3.7l2.5,1.2c.9-3,.2-5.1,0-7.4-.2-1.7.3-3.6,0-5.4-.4-2.4-2.3-3.5-2.4-6.9.8,0,1.6.2,2.4,0,.3-.8-.1-1.8,0-2.4.5-1.6.9-3.3,1.2-4.9,0-.1,1-.4,1.2-2.5.1-.8-.1-1.7,0-2.5.4-3.4-.3-7.5,0-11.1,0-.1,1-.3,1.2-2.5.2-1.6-.2-3.3,0-4.9.2-1.6,1.5-3.2,1.2-4.9-2.8.3-2.4,1.2-5,1.2l5-11.1-13.4-2.9c-9.6,7.6-13,18.1-19,27.5-.6.9-.9,1.8-1.2,2.5-.6.9-.9,1.9-1.2,2.5-1.6,2.4-6.5,8.4-8.7,11.1-.4.5-1.7,1.7-2.5,2.5-1.3,1.4-4,1.8-3.7,4.9-.4,0-2.7,1.3-3.7,1.2h-1.2c1.6-6.3,4.3-6.9,8.4-11.7,1.8-1.2,6.3-4.5,7.5-10.1.2-1,.3-1.9.3-2.8-7.6-1.5-13.1-8.7-18.7-13.6v-2.5c.4.3,2.8,0,4.4,1.1,4.3,3.1,10.4,9.6,16.1,8.8,4.5-.7,5.1-8.4,6.9-11.1,3.1-4.7,10.8-13.2,15-17.2,2-1.9,5.2-4.6,7.5-6.2Z"/>
  <path class="st15" d="M187.6,666.6c0,1.2,0,2.5,0,3.7s0,1.6,0,2.5c3,.3,5.9-.4,8.7-1.2v6.2h-2.5c-.5,1.3,1.2,2.3,1.2,2.5.3,3.1-1.2,5.7-1.2,8.6s-.2,6.8,0,9.8c.9,10.7,4,17,8.7,25.8,1.3,2.5,5.1,10.8,6.2,12.3,1.1,3.7-3.7,2.5-4.8,4s0,2.9-.2,3.4c-2.8,5.4-2.3,5.9-3.7,11.1-.5,1.7-.9,3.2-1.2,4.9-.7,3.3-2.7,3.5-2.5,9.8s.3,10.1,7.5,7.4c-.2,3.3.1,6.6,0,9.8-.5,0-2.4,1.2-3.7,0-5.7-3.7-8.8-2.9-9.9-11.8-1.7-14,10-29.7,9.9-40.5s-5.5-11.7-7.2-16.3c-5.2-13.6-7.4-28.4-1.5-42.1-6.6,0-6.2-5-5-9.9h1.2Z"/>
  <path class="st12" d="M445.5,489.3c1.5-.7,4.2,2.5,5,3.7s-.4,2,.4,3.3c1.6,2.2,7.6,3.7,7,5.9-11.5,5.2-5.3,6.7-6.2,13.5s-2.5,3.4-2.5,5.6c-2.4-.6-7.1-3.5-8.7-1.2-1.9-.7-4.2-.3-3.7-3.7,2-.4,6.2-1.8,7.5-3.1,4.6-4.9-4-6.2-5-5.5l-3.7-1.8c1.6-2.5,3.8-1.6,6.2-1.8,17.8-1.6,4.9-4.7,3.7-8.6-.1-.4,0-.8,0-1.2-.3-1.4.2-3.4,0-4.9Z"/>
  <path class="st15" d="M450.5,454.9c-.6,10.6-11.1,11.7-11.2,16.6s10.4,13,12.7,18.2,2.3,3.8-1.5,3.4c-.8-1.2-3.5-4.4-5-3.7-.8-7.7-1.9-4.1-3.7-6.2-.4-.5-.9-2-2.5-3.7-4.5-4.9-5.1-7.9-7.5-11.1l18.7-13.5Z"/>
  <path class="st9" d="M408.1,569.3c0,.2,1.3.9,1.3,1.9l-1.2,2.4-14.9,6.9c-.5.8.8,3.5,1.1,4.7l-11.7-1.1-.7-3.8,8.7,1.2c-.1-7,13.1-7.7,17.5-12.3Z"/>
  <path class="st9" d="M414.3,565.6c-1,0-3.5,2.1-6.2,0,.1-1-.5-2.5.6-2.5l5.6,2.5Z"/>
  <path class="st16" d="M338.3,707.2c5.8-2,9.3-3.1,14.8.1l-3.6,13.4c6.4-.9,7.8,4.5,10,5.6,1.5.8,4.3.3,4.8.7,1,.9-.3,10.2,5.1,9.7-.4,1.1-1,1.9-1.2,2.5h-3.7s0,4.9,0,4.9h2.5c-3,8.7-9.6,22.2-10.9,30.4-.8,5.1.8,12.9-.3,16.7s-2.4.7-2.5.8h-2.5c-.7-1.9-1.1-2.6-1.2-4.9s2.6-1.3-1.2-7.4.4-1.5-.3-2.2-2,0-2.2-.3c-.8-.6-1.9-2.2-2.5-2.5.7-4.9-.6-3-2.5-3.7s-2.8-1-5-1.2-.8,0-1.2,0c-4.1-.3-8.4.2-12.5,0l-9.8-1.4c-.5-1.5-.1-3.1-.2-4.7-.3-10.3,5.6-26.9,7.5-38.1s1.6-5.3,1.2-9.8.2-2.7,0-3.7h1.2c5,2.4,11.5-3.3,16.2-4.9Z"/>
  <path class="st23" d="M389.4,667.8c-.2,1.1.1,2.5,0,3.7h-2.5c-.4,1.2,1.2,2.3,1.2,2.5,0,6.4-6.6,25.8-8.7,33.2l-1.2,2.5c-2.7,9.2-5.7,18.1-8.7,27.1-5.5.5-4.2-8.8-5.1-9.7s-3.3,0-4.8-.7c-2.2-1.1-3.6-6.5-10-5.6l3.6-13.4c-5.5-3.3-9.1-2.1-14.8-.1,1.6-3,4.8-4.8,6.8-7.5s2.9-7.1,3.3-7.3,2.2.8,4.9,0c6.6-2.1,9.9-8.9,12.5-14.8,4.5.7,4.7-3.5,5-3.7.6-.3,2.8.6,3.5-.2s1.5-9.2,2.7-12.1c7.2-3.1,9.4.4,12.5,6.2Z"/>
  <path class="st1" d="M241.1,707.2c.4,0,.8,0,1.2,0,1.4,3,2.6,5.6,4.9,8,3.3,3.4,18.9,11.1,18.7,13.5-2.1,2.2-5.1,2.8-7.5,4.9s-9.2,10.6-13.7,11.7-4.4-.3-6.2,0c-6-4.3-19-.8-24.1-2.6s-1.7-3.4-2.7-4.7-2.9-1.1-3-1.3c-1.1-1.5-4.9-9.8-6.2-12.3-.9-15.9,9-10.9,19.2-12.4,6.6-1,12.4-4.4,19.4-4.8Z"/>
  <path class="st16" d="M388.2,598.9c1.3,1,1.9,2,2.5,2.5-.5,4.5,3.4,6.8,7.5,7.4v3.7c-3.4,1.8-5.7,3.1-10,2.5-1.6,1.4,9.3,11.5,10,12.9,1.4,3.4-5.7.6-6.2,3.1-.7-.4-2.8-4.6-5-2.5-3.2,3.2,3.3,3.7,3.5,3.9.9.8,0,3,.2,3.5l1.2,3.7c-.3,5.3,2.6,12.5,1.2,18.5h-2.5c-.1.8,0,1.7,0,2.5-.3,3.1-.8,4.8-1.2,7.4-3-5.8-5.3-9.3-12.5-6.2,1.8-4.3,2.5-1.7,4.3-3.7s5.9-33.7-4.3-28.3c0-.1-1.8-.8-1.3-2.5h3.6c1.2-16.4-7-12.5-17.7-15-3.9-.9-7.7-6.4-12.8-2.2l-.6,5c-4.3,1.4-4-6-7.5,0-3-3.7-9.3-8-13.7-9.8v-2.5c.5-.2.9-1.1,1.2-1.2,3.6-1.3,10.1-1.9,13.7-3.7,2.4,2.5,6.6,3.6,10,3.7,7.5.2,4.9-2.6,6.2-3.7,2.3-1.8,22.7-4.5,24.9-3.1,1,3.4,3.7,3.4,5,4.3Z"/>
  <path class="st1" d="M379.4,751.5c3.2,10.1,4.6,6.4,9.9,10.5,4.6,3.6,5.7,11.4,3.8,16.6-.8,2.1-4.9,4.9-7.5,3.7-.9-.9,3.8-11.9-2.5-11.1l-1.5,10.8-8.9,1.6c-1.5-.3-.5-2-.8-2.5l1.2-.6v-1.8s-2.5,0-2.5,0c0-.6,0-2.4,0-2.5.4-.4,4.2,1.4,2.3-4.1s-4.5-3.1-5.5-4.5c-1.3-2.2,1.7-4.8-.5-6.1.5-1.1.6-2.4,1.2-3.7,6,1.8,6.3-5.4,11.2-6.2Z"/>
  <path class="st25" d="M241.1,694.9c6.3-1.4,9.9,5.2,14.3,8.7s2.7.9,3.1,1.2c2,1.6,3.1,2.7,6.2,4.9s2.5,1.6,3.7,2.5,0,2,1.3,3c5.7,4,13.3,7.4,20.5,6.9,5.6-.4,22.2-7.5,21.8-14.8.5-.3.8-1.1,1.2-1.2s.9.1,1.2,0c1.1,2.9,1.2,5.6,1.2,8.6-6.5,3.5-11,9.6-18.5,11.9-12.5,3.9-18.2-6.3-30.1-5.7-4.5-4.7-14.5-7-19.9-13.5s-5-8.8-6.2-12.3Z"/>
  <path class="st1" d="M388.2,697.3c4.2.1,3.8-3.2,3.8-6.1h7.4c0,0,0,7.3,0,7.3h-5c-.4,4.1,0,8.2,5,8.6-2.6,10.9-2.9,16.6-10.6,25.9l-10.6,8.5c0-.4-1.1-1.3-.9-2.8,1-7.3,4.5-5.5,3.4-14.4s0-1.7,0-2.5h2.5c.4-1.2-1.2-2.3-1.2-2.5,0-4.1,2.9-12,6.2-14.8s4.3-.3,3.8-3.1l-3.8-.6c0-1.2-.2-2.6,0-3.7Z"/>
  <path class="st15" d="M307.2,678.9c3.8,5.4,7.2,15.8,9.4,22.1,2.4,3.5,4.5-1.8,6.8-2.4v6.2c2.8.4,4.2,0,6.3-1.8s11.1-12,13.6-14.9c1.5-1.8,2.7-5.9,4.4-6.8,2.7-1.3,2.3,4.2,3.2,4.8,6.2,4.2,15.2-18.3,14.8-23.3,3.8-.5,2,.7,2.5,2.5.8,2.7.9,4.4,0,7.4s-1.8,3.3-2.5,4.9c-2.6,5.9-5.9,12.7-12.5,14.8l-5.6-3.7c-2.5,1.5-1.3,5.1-3.1,6.8s-3,0-5,1.2c-3.3,2.1-4.5,5.8-7,8s-8.1,3.8-10.6,7.4h-1.2c0-.4-4.4-3.4-2.5-7.4-2.1-.8-2.9,1-3.7,1.2s-.9-.1-1.2,0c-.5-3.9-3.6-13.4-6.2-16s-.6-1-1.2-1.2c0-1.1.2-2.6,0-3.7-.5-2.9-1.1-4.2-2.5-6.7l1.3-.6c.2.2,1-.2,1.2,0,.4.3,1,.9,1.2,1.2Z"/>
  <path class="st1" d="M315.9,714.5c0,7.4-2.3,18.1-9.3,22.2-2.1,1.2-3.2.7-4.4,1.2.6-2.5-5.9-4.7-7.6-5.4-4.5-1.9-12.3-6.4-16-.8-7.7-5.9-5.5-5-11.2-11.1,11.9-.6,17.6,9.6,30.1,5.7s12-8.4,18.5-11.9Z"/>
  <path class="st16" d="M395.6,662.9c2.8-.6,3.9,2.8,4.6,4.7,5.5,14.2,2.5,26-.8,39.6-5-.5-5.4-4.5-5-8.6h5s0-7.4,0-7.4h-7.4c0,3,.4,6.3-3.8,6.2,1.8-11,6.2-23,7.5-34.5Z"/>
  <path class="st13" d="M244.9,745.3c-2.1,7.8,2.7,26-1.2,32.4-1.8,3-14.8,7.4-17.6,5.3l-2.4-5.6c.2-.3-.2-.9,0-1.2.4-.8.8-1.7,1.2-2.5l3.1,7.3c10.4-.6,6.6-5.3,8.1-12.3,1.4-6.8,8.1-6.7,7.1-15.5l-9.5-4.2c-2-2,4.2-3.5,5-3.7,1.8-.3,4.6.4,6.2,0Z"/>
  <path class="st0" d="M312.2,763.8c0,1.6-.3,3.2.2,4.7l9.8,1.4c-3.3,2.8-6.5,1.1-7.5,6.2s.2,3.4,0,4.9c-.4,0-1.8,1.1-2.5,1.2s-.5-1.4-1.2-1.2l-2.5,13.6c-12.5-4.9-3.4-14.6-.4-21.9s0-9.4,4.1-8.8Z"/>
  <path class="st9" d="M329.6,783.5c.6-1.9-1.5-4.5,2.5-3.7l1.4,4.7,13.5.2c0,.8,0,1.7,0,2.5s0,.8,0,1.2l-8.7,1.2,1.3,6.1c-2.3.7-4.6,2.6-6.9,0l-.8-10.3-2.3-2c-1.5,4.9-2,15.4-8,14.8-.8,0-7.9-4-8.3-4.5-1.9-2.9-1-8.1-1.1-11.5.7-.1,2.1-1.3,2.5-1.2.7.1,2.4,1.9,4.6,2.2,3.4.5,6.9.3,10.3.3Z"/>
  <path class="st13" d="M310.9,742.8c-.8,7.6-3.4,12.7-5,19.7-3.2.1-3.2-1.8-4.3-3.7-2.5-4-6-8.9-5.6-13.5,2.8-.5,5.9-.8,8.7-1.2s3.7,1,6.2-1.2Z"/>
  <path class="st13" d="M278.5,731.8c3.7-5.7,11.5-1.1,16,.8s8.2,2.9,7.6,5.4c-8.5,3.1-13.9,2.7-21.7-2.6-2-1.3-1.8-3.4-2-3.5Z"/>
  <path class="st26" d="M234.9,768.7c-3.4,8.3-3,.8-5.6,1.2-2.6.4-3.1,1.9-4.4,3.7s-.9,1.7-1.2,2.5c-5.9,1.2-11.6,2.2-17.4,0-.1-.7,0-1.7,0-2.5s0-1.6,0-2.5c.3.4,1.8.9,2.5,1.2,8.7,4.3,25.2-3.2,15-11.1v-1.2c.4,0,.9,0,1.2,0,3.9.7,10.8,4,10,8.6Z"/>
  <path class="st15" d="M296,745.3c-.3,4.7,3.2,9.5,5.6,13.5,1.2,1.9,1.1,3.9,4.3,3.7-1.7,7.7-3.2,4.5-3.7,6.2-.8-.4-1.6-.9-2.5-1.2-.2-2.5-2.8-3.6-3.7-4.9s-1-.8-1.2-1.2c-3.2-5.1-2.5-7.7-3.7-12.3,4.4,0,.2-2.9,5-3.7Z"/>
  <path class="st15" d="M237.4,686.2c-.4,2.3.1,2.9,2.5,2.5.4,2.5.3,3.5,1.2,6.2s4,9.6,6.2,12.3c-1.7,0-3.3,0-5,0s-.8,0-1.2,0c-2.3-3.4-5.5-8.4-6.2-12.3s.7-7.5,0-9.8l2.5,1.2Z"/>
  <path class="st9" d="M223.7,776.1c-.2.3.2.9,0,1.2-1.8,3.8-1.6,7.6-8,7.3-5.5-.2-8.4-3.5-9.5-8.6,5.9,2.2,11.5,1.2,17.4,0Z"/>
  <path class="st13" d="M378.2,746.5c.4,1.6.7,3.3,1.2,4.9-4.9.7-5.2,8-11.2,6.2,1.7-3.6,2.7-7.5,4.3-11.1h5.6Z"/>
  <path class="st13" d="M367,761.3c2.2,1.3-.8,4,.5,6.1s4.5,1.7,5.5,4.5c2,5.5-1.9,3.7-2.3,4.1v-3.7s-2.5,0-2.5,0v2.5c0,0-1.8.3-2.1-.3-1-2.1,0-5.2-2.9-5.8,1.2-3.4,2.8-5.2,3.7-7.4Z"/>
  <path class="st1" d="M363.2,768.7c2.9.7,1.9,3.8,2.9,5.8.3.6,2.1.2,2.1.3.4.7-.3,4.7,0,6.2-10.1.1-7.2-6.1-5-12.3Z"/>
  <path class="st13" d="M380.7,724.4c1.1,8.9-2.4,7-3.4,14.4s.9,2.5.9,2.8,0,.8,0,1.2c-4,1.3-4.4,2.4-3.6-3s4.1-11,6.1-15.5Z"/>
  <path class="st18" d="M347.1,788.4c-1.1,5.5-2.5,5.9-7.5,7.4l-1.3-6.1,8.7-1.2Z"/>
  <path class="st14" d="M196.3,769.9l2.4.2.2,3.4c.5.5,3.7.2,4.9.1-.1,1.2,0,2.5,0,3.7-7.2,2.7-7.3-1.5-7.5-7.4Z"/>
  <path class="st15" d="M320.9,715.8c.4,4.6-.7,6.4-1.2,9.8-2.5-2.1-.9-6.8-1.2-9.9h2.5Z"/>
  <path class="st18" d="M349.5,787.2h-2.5c0-.8,0-1.7,0-2.5,0-1.2.1-2.5,0-3.7l1.2-1.2c3.9,6.1,1.1,4.6,1.2,7.4Z"/>
  <path class="st15" d="M310.9,742.8c-2.6,2.2-5.5,1.1-6.2,1.2l5.6-4.9c3.4,2.2.7,3,.6,3.7Z"/>
  <path class="st23" d="M368.2,739.2c-.5,1.4-.6,3.1-1.2,4.9h-2.5s0-4.9,0-4.9h3.7Z"/>
  <path class="st16" d="M388.2,701l3.8.6c.6,2.8-3.1,2.5-3.8,3.1,0-1.2,0-2.5,0-3.7Z"/>
  <path class="st15" d="M206.3,771.2c0,.8,0,1.6,0,2.5-.8,0-1.7,0-2.5,0,.2-1.9-.1-4.5,2.5-4.9.2.7-.2,2.2,0,2.5Z"/>
  <path class="st15" d="M390.7,635.8c.1.2,3.3-1.3,2.5,3.1-.2.8-1.2.6-1.2.6l-1.2-3.7Z"/>
  <path class="st13" d="M381.9,719.5c0,.2,1.7,1.3,1.2,2.5h-2.5c0-1,0-2.1,1.2-2.5Z"/>
  <path class="st18" d="M353.3,792.1c-.3.4.7,2.5-.6,2.5h-1.9c-.2-.8.2-1.9,0-2.5h2.5Z"/>
  <path class="st13" d="M370.7,778.5h2.5s0,1.8,0,1.8l-1.2.6c-.3-.7-1.1-1.3-1.2-2.5Z"/>
  <path class="st15" d="M393.2,657.9v2.5s-2.5,0-2.5,0c0-.8-.1-1.7,0-2.5h2.5Z"/>
  <path class="st16" d="M389.4,671.5c-.1,1,0,2.1-1.2,2.5,0-.2-1.7-1.3-1.2-2.5h2.5Z"/>
  <path class="st16" d="M378.2,709.6l1.2-2.5c-.4,1.4-1.2,2.2-1.2,2.5Z"/>
  <path class="st23" d="M195,528.7c5.2-2.5,8.3,3.8,14.4,3.7s4.7-1.9,7.4-2.5c3.9,10.2,5.6,11,15.6,13.5,4.1,9,2.5,3.9,9.7,7.1,40.2,17.7,103.4,16.4,145,2.4,1.7-.6,6.8-1.8,6-4.5.8-.1,1.7.1,2.5,0,4.5-.8,5.4-3.1,5-7.4,4,.2,8.8-.8,12.5-2.5v2.5c1.2.1,2.5,0,3.7,0v1.2l-1.3,2.9,3.8,3.3c.9,2.2,2.1,3.1,2.5,6.2l-1.3,4.9h-3.7c-2-.1-4.2.3-6.2,0l-.7-6.2h-11.7s1.2,8.6,1.2,8.6c-3.6,1.9-8.3-.3-11.2.5s-5.4,5.2-8.2,6.7c-6.3,3.4-16.1,3.6-16.7,13.7-6.7,1.2-13.1,2.8-19.9,3.7-.8.1-1.7-.1-2.5,0-6.9.9-34.8,5.8-39.9,1.2s.5-2.4-.7-2.5-3.4,1.4-5.5,1.3c-11.4-.6-23-3.8-33.6-7.4,1.6-7.9-7.7-5.3-3.7-12.3-4.6,0-7.2-3.9-11.4-5.3s-8.8-.7-9.8-2.1.7-2.5-.7-2.5l-18,5c-2.9-7.7-1.1-14,2.5-20.9h-13.7s0-2.5,0-2.5c-.8-.1-1.7.1-2.5,0-1.2-.2-2.5,0-3.7,0,.9-3.2-3.1-2.7-4.4-4.9s-.3-3.4-.6-4.9ZM238,553.3v1.2c.8-.4.8-.8,0-1.2Z"/>
  <path class="st10" d="M200,538.6c1.2,0,2.6-.2,3.7,0v2.5s2.5,0,2.5,0h13.7c-3.5,6.9-5.3,13.2-2.5,20.9l18-5c1.4,0,.4,2.1.7,2.5-2.5,3.1,3.5,16.3,5.6,17.2l2.5-3.7c5.3,2.9,11.1,4.2,16.8,6.2,10.7,3.6,22.2,6.8,33.6,7.4-.2,6.2,13.3,12.5,18,12.3.3,0,3.4-4.2,4.5-4.9-5.5,1.4-11.4,1.7-16.5-1.3-1.5-.9-4.4-5.7.3-4.9,5.1,4.5,33-.3,39.9-1.2v3.7c-5.7,1.8-9.7,4.9-16.2,3.7.3,1.3,2.5,3.4,3.7,3.7v3.7c-.4.1-.8,1-1.2,1.2s-4.9-.2-2.5,2.5,1.9-.2,2.5,0c4.4,1.9,10.7,6.2,13.7,9.8s3.2,7.3,5,9.8c3.6,20.7-15.5,34.9-34.9,27.1l.7-.9c1.9,0,3.6.9,5.5.9,6.3,0,17.8-2.7,19.8-9.5,1.2-4.2-1.7-4.1-2.3-5.3-1.3-2.3-2.3-4.4-5-6.2,3.8,1.1,7.3,2.7,10.6,4.9,6.5-9.5-4-24.4-14.3-26.5-3.8-.8-12.3-.3-15.5,1.8s-.7,2.5-.8,2.5c-.6.5-2.3.4-3.8,1.8-7.8,7.6-7.1,10-5,20.4.9,4.5,2.7,7.9,3.7,12.3-9.5-7.7-11.2-24.9-3.7-34.5,1.9-2.5,13.7-8.4,13.7-9.2-2.7-4.3-6.9-2.4-11.1-3.8-2.8-.9-8.5-6.3-10.9-6.5s-5.3,3.4-5.4,4.8c-1.2.1-2.6-.2-3.7,0l2.5-7.4c-8.5-4.2-19.4-1.3-26.8-8.6-.8-.4-2.8,5.9-3.1,6.1s-3.1,1.3-5,2.5-1.5.6-2.5,1.2-1.7-.4-2.3.2,0,2.6-.2,3.5c-1.1.2-2.8-.3-3.7,0-.8-3-3-4.3-5-6.2l1.2-2.5c5.2.9,12.6-1.7,13.7-7.4l-10,1.9c-3.7-7.1-12.9-8.7-11.2-18-2.5.1-5-.2-7.5,0-2.9.2-5.2,1.7-8.7,1.2s-3.8-1.3-5-3.7l1.2-15.2c-.5-1.7-8.3-3-11.1-4.4s-2.7-2.5-3.7-3.7c.2,0,2.5,0,3.7,0Z"/>
  <path class="st16" d="M439.3,507.8c1-.7,9.6.6,5,5.5-1.2,1.3-5.5,2.7-7.5,3.1-.5,3.4,1.9,3,3.7,3.7s1.6-.4,2.2.2,4.2,9,3.4,10.8c-4.2,9.3-20.7,10.4-29.3,9.9-1.2,0-2.5,0-3.7,0v-2.5c.7-.3,1.6-1.9,2.5-2.5s2.4.7,2.5-.6v-3.1s-2.5,0-2.5,0c-.3-1.6-1.3-3.2-1.2-4.9,8.8-.6,18,5.4,22.3-5.4l-7.4-9.4c2.3-.4,5.9-.5,7.9-1.5s1.9-3.3,2.1-3.4Z"/>
  <path class="st16" d="M363.2,582.9c.6-10.1,10.3-10.3,16.7-13.7s5.1-5.9,8.2-6.7,7.6,1.3,11.2-.5l-1.2-8.6h11.7s.7,6.1.7,6.1c-4.8-.6-3.7-3.2-8.7-2.5,2.2,10.4.4,11-8.5,15.6-9.3,4.9-20.9,8.5-30.2,10.2Z"/>
  <path class="st1" d="M388.2,598.9c-1.3-.9-4-.9-5-4.3-2.2-1.4-22.7,1.2-24.9,3.1l-6.2-7.4c7.4,2,18.6-4.5,24.5-4.7,3.6,0,12.8,8.7,11.6,13.3Z"/>
  <path class="st1" d="M352,601.3c-3.4-.1-7.6-1.2-10-3.7.4-.2,1.1-2.5,2.5-3.1,5.1-2.3,8.3,2,7.5,6.8Z"/>
  <path class="st13" d="M343.3,586.6c1.3,4.4-2.3,3.5-2.5,3.7-1,1.3-.1,2.5-3.3,4.7-2.3,1.6-6.4,3.2-9.2,2.6-1.2-.3-3.4-2.3-3.7-3.7,6.5,1.2,10.5-1.9,16.2-3.7v-3.7c.8-.1,1.7.1,2.5,0Z"/>
  <path class="st1" d="M390.7,601.3c3.8,3,4.8,4.2,7.5,7.4s2.2-.4,2.5.6v3c-.8.3-2.1-.2-2.5,0v-3.7c-4.1-.5-8-2.9-7.5-7.4Z"/>
  <path class="st16" d="M421.8,554.6c.2,1.3.3,5.1-.2,5.9l-4,1.5-.7-2.5h3.7c0,0,1.3-4.9,1.3-4.9Z"/>
  <path class="st16" d="M419.3,548.4l-3.8-3.3,1.3-2.9c1.4,1.8,1.7,4.2,2.5,6.2Z"/>
  <path class="st22" d="M256.1,589c-.9,10.6,20.4,11.1,27.4,9.8,1.1-.2,2.5.1,3.7,0,0,.4,2.3,7.8,2.8,8.3,1.4,1.3,9,3.4,10.9,6.5-7.4,9.5-5.7,26.7,3.7,34.5s3.1,2.4,6.2,3.7c19.4,7.8,38.5-6.4,34.9-27.1.1.2,2.2-.6,2.5.8.7,2.9-1.1,20.7-2.8,22.3-6.8.9-12.9,9.5-19.3,11.1-3.6.9-7.3-.1-10.8.4-3.9.5-6.6,3.7-11.9,1.2-2-6.8-3.4-11.5-7.5-17.5s-.7-2.8-2.3-7.7-9.3-16.8-10.8-17.7c-2.9-1.8-14.6-3.2-17.9-1.9s-6,4.5-6.2,5c-.8,2.8,4.5,13.5-5.1,11.5-.2-2.4.1-4.9,0-7.4-1.9-.3-4.4.4-6.2,0s-3-1.9-2.5-3l3.8-5.6c-4.4-1.2-13-.7-13.7-6.2,4-6.3,9.1-5.7,11.2-13.5.2-.9-.5-2.7.2-3.5s2,0,2.3-.2l.6,1.2h1.8s0-2.4,0-2.4c1.9-1.2,4.7-2.3,5-2.5Z"/>
  <path class="st29" d="M208.8,641.9c6.1-9.4,9.4-20,19-27.5l13.4,2.9-5,11.1c-.8,0-1.7,0-2.5,0v2.4s6.2,1.2,6.2,1.2c-.2,1.6.2,3.3,0,4.9h-2.5s1.2,2.5,1.2,2.5c-.3,3.6.4,7.6,0,11.1-.8.1-1.8-.2-2.5,0l-.6-1.2h-3.1s0,2.4,0,2.4c-2.4,1.2-2.4,2.3-3.7,3.7s-1.6-.4-2.2.3c-1.5,1.8-1,9.9-5.9,10.9-13.4,2.7-8.2-11.3-9.4-12.3l-4.8.2-1.3,3.1c-.2.9.9,1.2,1.1,1.6.9,4.1-4.3,2.8-6.2,3.7-3-1.4-.4-3.5.6-5,1.9-2.7,4.7-7.7,7.3-7.4l-1.6-3.6c.4-.6.7-1.6,1.2-2.5l1.2-2.5Z"/>
  <path class="st20" d="M253.6,633.3c.4,4,.1,8.1,2.4,11.8l10-1.9-1.2,20.9c-.4.1-.9-.1-1.2,0-2.9.9-5.6.9-8.1,3.7s-1.3,3-1.8,3.7c-.9,1.4-3.4,4.2-3.5,4.5-1.1,3,.3,8.2-.2,11.5-.1-.3-2-.4-2.5-3-.9-5.2,1.7-10.6.5-15.2s-2.8-2.7-2.9-3.5c-.8-3.6,2.6-10.4-3.8-9-.2-6.6,1.5-10,2.5-16l3.7,2.5c0-5.1,3.1-6.6,6.2-9.8Z"/>
  <path class="st27" d="M241.1,656.7c6.4-1.4,3,5.3,3.8,9s2.3.8,2.9,3.5c1.2,4.7-1.4,10-.5,15.2s2.3,2.7,2.5,3c.3.5,1.1,2.3,1.2,2.5,1.5,2.2,1.6,6.1,6.2,6.2,4.1,3.8,4.9,3.1,8.7,4.9-1.8,5.7,13.8,11.9,16.8,12.2,6.4.5,12.7-4.4,16.9-8.5,1.4-1.4,4-2.1,4.7-4.6-.6-3.3,1.3-7.7,1.5-10.2h1.2c2.7,2.6,5.7,12,6.2,16-.4.2-.8,1-1.2,1.2-3.9,2.3-6.1,5.2-8.8,6.7-12.3,6.8-22.9,3.6-34.8-1.8-1.2-.9-2.5-1.6-3.7-2.5.6-4.4-5.1-4-6.2-4.9s-.3-2.1-1.2-3.1c-2.7-2.7-11.2-11-12.2-13.8s-3.7-21.9-4-26.2,0-3.3,0-4.9Z"/>
  <path class="st22" d="M232.4,678.9c1.3,0,1.4,1.5,1.2,2.5-.6,4.9.7,1.8,1.2,3.7s-.5,7,0,9.8c-3.6-.8-6,6.9-6.5,7.2-1.1.7-11,3.7-12.9,3.9-10.4.6-13.6-2.2-21.8-7.4-.2-3.1,0-6.7,0-9.8,5.8-.6,10.3,10.1,13.7,11.7,4.7,2.1,16.6,2.1,19.3-3s1.9-12.6,1.9-16,.1-1.7,0-2.5h3.7Z"/>
  <path class="st17" d="M258.6,704.7c1.1.9,6.8.5,6.2,4.9-3.1-2.2-4.2-3.4-6.2-4.9-.4-.3-2-.3-3.1-1.2-4.4-3.5-8.1-10.1-14.3-8.7-1-2.7-.8-3.7-1.2-6.2s-1.2-2.2-1.2-2.5c-.8-7.7-.2-17.3,2.5-24.6.4,4.2,2.8,22.7,4,26.2s9.5,11.2,12.2,13.8,1,2.9,1.2,3.1Z"/>
  <path class="st27" d="M247.4,624.7c1.8.4,4.3-.3,6.2,0,.1,2.4-.2,5,0,7.4s0,.8,0,1.2c-3.2,3.3-6.2,4.7-6.2,9.8l-3.7-2.5c.9-5.3,0-11,3.7-16Z"/>
  <path class="st26" d="M236.2,660.4c-.2.6.3,1.6,0,2.4-.8.3-1.7,0-2.4,0,.1,3.4,2,4.5,2.4,6.9s0,3.7,0,5.4c-1.7,1.2-4.1,1.2-3.7,3.7h-3.7c-.2-1,.3-2.3-1.2-2.5,0-1.5,1.3-3.6,1.2-4.9,1.6-1.1,2.1-4.2,0-4.9,0-1.2,0-2.5,0-3.7,1.6-.1,3.4.2,5,0,0-.8,0-1.6,0-2.5h2.5Z"/>
  <path class="st15" d="M246.1,596.4c-2.1,7.8-7.2,7.3-11.2,13.5l-3.7,1.2c-1.1-4.6,5.8-5.7,2.5-9.8,2.2-1.5,6.4-4.2,8.7-4.9s2.6.2,3.7,0Z"/>
  <path class="st20" d="M206.3,646.9l1.6,3.6c-2.6-.4-5.4,4.7-7.3,7.4s-3.6,3.6-.6,5c-2.5,1.2-5,2.8-6.9,4.9-.9.4-.9-2.2-1.9-2.5-.3-3.1,2.4-3.6,3.7-4.9,2.4.4,2.9-.1,2.5-2.5,2.2-2.7,7.1-8.7,8.7-11.1Z"/>
  <path class="st3" d="M238.7,650.6c-.1.8.1,1.7,0,2.5h-2.5s1.2,2.5,1.2,2.5c-.4,1.7-.8,3.3-1.2,4.9h-2.5c0,.8,0,1.6,0,2.5-1.6.2-3.3-.1-5,0,.2-2.4-.1-4.9,0-7.4,1.3-1.4,1.4-2.5,3.7-3.7s3-1,3.7-1.2,1.7.1,2.5,0Z"/>
  <path class="st3" d="M206.3,659.2c.1.3,1.8.2,1.2,1.8s-5.9,2.8-5,6.8c-1.2.1-2.6-.2-3.7,0-3.5.6-6.6,3.9-11.2,2.5,0-1.2,0-2.5,0-3.7,1,0,3.3-1.3,3.7-1.2,1,.2,1,2.8,1.9,2.5,1.8-2.2,4.3-3.7,6.9-4.9s7.2.4,6.2-3.7Z"/>
  <path class="st15" d="M236.2,675.2c.2,2.2.9,4.4,0,7.4l-2.5-1.2c.1-1,0-2.6-1.2-2.5-.4-2.5,2.1-2.5,3.7-3.7Z"/>
  <path class="st3" d="M236.2,628.4c2.6,0,2.1-.9,5-1.2.2,1.8-1.1,3.3-1.2,4.9l-6.2-1.2v-2.4c.8,0,1.7,0,2.5,0Z"/>
  <path class="st3" d="M239.9,637c-.2,2.2-1.2,2.3-1.2,2.5l-1.2-2.5h2.5Z"/>
  <path class="st26" d="M238.7,653c-.3,2.1-1.2,2.3-1.2,2.5l-1.2-2.5h2.5Z"/>
  <path class="st25" d="M239.9,688.7c-2.4.4-2.9-.1-2.5-2.5h1.2c0,.2,1.1,1.3,1.2,2.5Z"/>
  <path class="st3" d="M197.5,657.9c.4,2.3-.1,2.9-2.5,2.5.8-.8,2.1-1.9,2.5-2.5Z"/>
  <path class="st20" d="M207.5,644.4c.4-.6.7-1.5,1.2-2.5l-1.2,2.5Z"/>
  <path class="st11" d="M238.7,745.3c-.8.1-7,1.7-5,3.7l9.5,4.2c1,8.7-5.6,8.6-7.1,15.5h-1.2c.8-4.6-6.1-7.9-10-8.6.4-3.8-4.1-2.5-6.9-4.9-4-3.5-4.9-3.3-7.7-5.4s-3.9-4.8-6.6-5.7c.3-.5-.5-2.5.2-3.4,1.1-1.4,5.9-.3,4.8-4,0,.1,2,0,3,1.3s.6,4,2.7,4.7c5.2,1.8,18.1-1.7,24.1,2.6Z"/>
  <path class="st6" d="M234.9,694.9c.7,4,4,8.9,6.2,12.3-7,.4-12.8,3.8-19.4,4.8-10.2,1.5-20.2-3.5-19.2,12.4-4.7-8.8-7.9-15.1-8.7-25.8,8.2,5.2,11.3,8,21.8,7.4s11.7-3.1,12.9-3.9,2.8-8,6.5-7.2Z"/>
  <path class="st27" d="M216.2,757.6c-.6,4.9,4.1,2.4,5,2.5s1.7,0,2.5,0v1.2c0,9.2-8,9.2-15,11.1-.7-.3-2.2-.9-2.5-1.2s.2-1.7,0-2.5c-2.6.5-2.2,3-2.5,4.9-1.2,0-4.4.3-4.9-.1l-.2-3.4-2.4-.2c-.2-6.3,1.8-6.5,2.5-9.8h14.1s.8-2.5.8-2.5c.8,0,1.7,0,2.5,0ZM207.5,765h-2.5v2.4h2.5v-2.4Z"/>
  <path class="st17" d="M200,680.1c-.3,7.7,7,16,14.6,17s9.9-2.5,11.6-9.6,1.3-4,1.2-6.2h1.2c0,3.4-.5,13.4-1.9,16-2.7,5.2-14.6,5.2-19.3,3-3.5-1.6-8-12.3-13.7-11.7,0-2.9,1.5-5.5,1.2-8.6h5Z"/>
  <path class="st22" d="M203.8,744.1c2.7.9,4.9,4.5,6.6,5.7,2.8,2,3.6,1.9,7.7,5.4s7.3,1.1,6.9,4.9c-.4,0-.8,0-1.2,0-.8,0-1.7,0-2.5,0-1.2-1.7-3-2.3-5-2.5s-1.7,0-2.5,0c-3.2-3.9-9.1-2.1-13.7-2.5,1.5-5.2.9-5.6,3.7-11.1Z"/>
  <path class="st14" d="M213.7,757.6l-.8,2.5h-14.1c.4-1.8.8-3.2,1.2-5,4.6.3,10.5-1.5,13.7,2.5Z"/>
  <path class="st3" d="M198.8,670.2c4-.3,3.1,3.7,3.7,6.2h-2.5c0,1.2,0,2.5,0,3.7h-3.7v-8.6c1-.3,2,0,2.5-1.2Z"/>
  <path class="st12" d="M198.8,667.8v2.5c-.5,1.2-1.5,1-2.5,1.2-2.9.8-5.7,1.5-8.7,1.2,0-.8,0-1.6,0-2.5,4.6,1.4,7.7-1.9,11.2-2.5Z"/>
  <path class="st22" d="M196.3,677.6v2.5h-1.2c0-.2-1.7-1.2-1.2-2.5h2.5Z"/>
  <path class="st16" d="M444.2,445c-.5,1.4.7,5.1-.1,6-2,.5-4.1.7-6.1,1.4-4.7,1.6-8.4,3.3-13.7,2.5,1.6,7.1,8.8,3.7,4.9,12.7.3,1.3,2.5.7,2.6.8,2.4,3.2,2.9,6.2,7.5,11.1l-3.7,4.3,10,10.5c0,.4-.1.9,0,1.2-.5,1.8-1.9,2.4-3.7,2.5-.2-2.4-.2-5.3-2.4-5.9l-13.8-16.3c-1.6-4.1-4.6-5.6-5-11.1,0-.8,0-1.6,0-2.5s1.3-2.8,1-4.1c-.7-2.9-6.7-4-1-9.4,6.6,3.3,16.7,3,21.2-3.7h2.5Z"/>
  <path class="st7" d="M425.5,475.8l13.8,16.3c2.3.6,2.2,3.4,2.4,5.9s-.1,4.1,0,6.2c-2.4.2-4.6-.7-6.2,1.8l3.7,1.8c-.2.1.2,2.3-2.1,3.4s-5.6,1-7.9,1.5l7.4,9.4c-4.3,10.8-13.6,4.8-22.3,5.4,0,1.7,1,3.3,1.2,4.9s-.1,2.5,0,3.7c-.8.6-1.7,2.1-2.5,2.5-3.7,1.7-8.4,2.6-12.5,2.5-.8,0-1.7,0-2.5,0l-2.5-1.2c-.8-1.7-1.6-4.7-2.5-6.2,1.5.9,9.6,6.3,9.9,1.9.2-3.1-5.7-4.2-7.4-5.5.6-1.5,2.4-1.3,3.7-1.2s1.9-.2,2.5,0c1.5.4,11.1,7.5,12.5,6.1l-3.7-9.8h18.1l1.9-3.1c-1.7-6.2-8.9-6.5-13.4-8.9-1.5-.8-2.1,0-1.6-2.7,5.2.1,16.7,1.3,14.7-6.5s-6.8-6.3-12.2-5.9c.7-3.7,5.8-1.6,7.2-2.7s0-2.1.2-2.2c1.2-1,3.6.7,3.9-4.3s-2.8-10.3-3.9-12.9Z"/>
  <path class="st13" d="M441.7,483.2c-.3-.3-1.3.2-1.2.6,0,1.3,1.8,0,1.2-.6,1.9,2.1,2.9-1.5,3.7,6.2.2,1.6-.3,3.5,0,4.9l-10-10.5,3.7-4.3c1.6,1.7,2.1,3.2,2.5,3.7Z"/>
  <path class="st1" d="M445.5,495.5c1.2,3.9,14,7-3.7,8.6-.1-2,.2-4.1,0-6.2,1.8,0,3.2-.7,3.7-2.5Z"/>
  <path class="st24" d="M197.5,329.4c3.8.1,4.1,4.4,6.7,7s3.7,1.9,4.5,2.9c1.7,2,2.8,5,3.7,6.2-2.1.1-4.2-.2-6.2,0l-3.7-2.5c1.8,0,4.9.6,6.2-.6-2.8-4-9.1-8.4-13.7-10.5-.1-.8.2-1.8,0-2.5.8,0,1.7,0,2.5,0Z"/>
  <path class="st15" d="M195,331.8c4.6,2,10.9,6.4,13.7,10.5-1.3,1.2-4.4.6-6.2.6-3.7,0-7.5,0-11.2,0,.6-1.7-.4-2.1,2.5-3.1-2.2-.3-3.6-4-3.9-4.1-.7-.3-2.3,1.3-3.4.9s-.8-2.1-1.4-2.3c-.3-2.5,1.7-3,3.7-3.7,2,.4,4.3.4,6.2,1.2ZM195.7,340.4v1.2c.8-.4.8-.8,0-1.2Z"/>
  <path class="st14" d="M340.8,773.6c.4.1,1.7.9,2.5,1.2s1.7,1.8,2.5,2.5c.7,1.1,1.1,2.4,1.2,3.7s0,2.5,0,3.7l-13.5-.2-1.4-4.7c-4-.8-1.9,1.8-2.5,3.7-3.5,0-6.9.2-10.3-.3-2.2-.3-3.9-2-4.6-2.2.2-1.6-.3-3.5,0-4.9,7.6-3.4,18.1-4.9,26.2-2.5Z"/>
  <path class="st13" d="M353.3,692.4c-2.7.8-4.7-.1-4.9,0-.3.2-1.9,5.4-3.3,7.3-2,2.7-5.1,4.4-6.8,7.5-4.7,1.6-11.2,7.3-16.2,4.9,2.5-3.6,7.3-4.5,10.6-7.4s3.7-5.9,7-8,4.8-1,5-1.2c1.7-1.7.6-5.3,3.1-6.8l5.6,3.7Z"/>
  <path class="st9" d="M334.6,769.9l.6,1.2.6-1.2c2.2.2,3,.5,5,1.2v2.5c-8.1-2.5-18.6-1-26.2,2.5.9-5.1,4.1-3.4,7.5-6.2,4.1.2,8.4-.3,12.5,0Z"/>
  <path class="st0" d="M340.8,771.2c1.9.7,3.1-1.2,2.5,3.7-.8-.4-2.1-1.1-2.5-1.2v-2.5Z"/>
  <path class="st0" d="M345.8,777.3c.2.2,1.6-.4,2.2.3s0,1.9.3,2.2l-1.2,1.2c-.1-1.3-.6-2.6-1.2-3.7Z"/>
  <path class="st0" d="M334.6,769.9c.4,0,.8,0,1.2,0l-.6,1.2-.6-1.2Z"/>
  <path class="st13" d="M377,629.6c10.2-5.4,6.2,26.2,4.3,28.3s-2.6-.6-4.3,3.7-2.3,11.7-2.7,12.1c-.7.8-2.9,0-3.5.2l-2.5-1.2c.9-3,.8-4.7,0-7.4,4,.7,2-1.7,2.5-3.7,1.3-4.8,2-7.1,0-12.3.8-.1,1.9.2,2.5,0,.8,2.4,2.5,2.8,5,2.5,0-1.6,0-3.3,0-4.9s0-4.1,0-6.2.9-6.9-1.2-8.6c0-.8,0-1.7,0-2.5Z"/>
  <path class="st16" d="M370.7,673.9c-.3.2-.5,4.4-5,3.7.7-1.7,2.4-4.6,2.5-4.9l2.5,1.2Z"/>
  <path class="st23" d="M340.8,614.9c3.5-6,3.2,1.4,7.5,0l.6-5c5.1-4.2,9,1.3,12.8,2.2,10.6,2.5,18.9-1.3,17.7,15h-3.6c-.6,1.7,1.2,2.4,1.3,2.5,0,.8,0,1.7,0,2.5,0,1.5-2.6,5.6-1.2,8.6h2.5c0,2,0,4.1,0,6.1-2.6.1-1.9,1.4-5,2.5s-1.7-.1-2.5,0c2,5.2,1.3,7.5,0,12.3-4.7-7.6-8.3,4.1-9,8.3-5.1,1.1-12.2,5.2-16.8,6.2-7.7,1.7-17.8.2-24.6,1.5-4,.7-5.3,6.5-10.6,4.9l-2.5-3.7c-.2-.3-.9-.9-1.2-1.2,2.3-5.2-.9-12-2.5-17.2,5.3,2.6,8-.7,11.9-1.2,3.6-.5,7.3.5,10.8-.4,6.4-1.6,12.5-10.1,19.3-11.1,1.7-1.7,3.5-19.5,2.8-22.3-.4-1.4-2.4-.6-2.5-.8-1.8-2.6-2.2-6.5-5-9.8Z"/>
  <path class="st15" d="M327.1,602.6v2.5c-.6-.3-2.2.3-2.5,0-2.4-2.6,2.2-2.3,2.5-2.5Z"/>
  <path class="st17" d="M312.2,707.2c.4,7.3-16.2,14.4-21.8,14.8-7.2.5-14.8-2.9-20.5-6.9-1.4-1-1.1-2.9-1.3-3,11.9,5.4,22.5,8.5,34.8,1.8,2.7-1.5,4.9-4.4,8.8-6.7Z"/>
  <path class="st7" d="M253.6,632.1c9.6,2,4.3-8.7,5.1-11.5s5.4-4.8,6.2-5c3.3-1.3,15,0,17.9,1.9s10,15.5,10.8,17.7c1.7,4.9-.8,3,2.3,7.7s5.5,10.8,7.5,17.5c1.6,5.2,4.8,12,2.5,17.2-.2-.2-1,.2-1.2,0-1-.9-2.2-1-2.5-1.2-1.2-1.1-2.1-2.3-3.7-3.7-4.2-3.7-10.5-11.4-16.2-12.3v-1.2c13,3.4,13.6-23.5,1.9-21-1.4,0-.4,2-.6,2.5-4.6,7.6-8.1,10.3-6.2,20.9-1.6.1-3.5-.3-5,0s-2.4,1.2-2.5,1.2c-1.4.3-3.7.8-5,1.2l1.2-20.9-10,1.9c-2.3-3.6-2-7.7-2.4-11.8s0-.8,0-1.2ZM273.5,630.9c-4.7-1.4-8.6,5.7-5,8.1l5,.6v-8.6Z"/>
  <path class="st16" d="M307.2,678.9l2.5,3.7c5.3,1.7,6.6-4.1,10.6-4.9,6.8-1.3,16.9.2,24.6-1.5,4.6-1,11.7-5.1,16.8-6.2.7-4.2,4.3-15.9,9-8.3-.5,2,1.5,4.4-2.5,3.7-.5-1.7,1.3-3-2.5-2.5.4,4.9-8.7,27.4-14.8,23.3s-.5-6.1-3.2-4.8c-1.7.8-2.8,5-4.4,6.8-2.5,2.9-11.5,13.2-13.6,14.9s-3.5,2.1-6.3,1.8v-6.2c-2.3.7-4.4,6-6.8,2.4-2.1-6.4-5.5-16.8-9.4-22.1Z"/>
  <path class="st12" d="M282.3,660.4c5.7.9,12,8.6,16.2,12.3-.1,2.5,1.2,3.7,3.7,3.7.3.2,1.5.3,2.5,1.2l-1.3.6c1.4,2.5,2.1,3.8,2.5,6.7-5.4-.7-5.6-8.9-11.2-9.8-5.2-7-21.9-10.9-29.9-8.6l-1.2-2.5c.4-.1.9.1,1.2,0,1.3-.4,3.6-.9,5-1.2l2.5-1.2c1.5-.3,3.4.1,5,0s3.8-1.4,5-1.2Z"/>
  <path class="st27" d="M294.7,675.2c5.6,1,5.8,9.2,11.2,9.8.2,1,0,2.5,0,3.7-.8-.3-2.6.4-3.7,0,1.4-5.7-2.4-4.6-4.4-7.4s-1.9-4.5-3.2-6.1Z"/>
  <path class="st17" d="M307.2,689.9h-1.2c0-.4,0-.8,0-1.2.7.3.9.9,1.2,1.2Z"/>
  <path class="st9" d="M236.2,768.7c-1.4,7,2.3,11.7-8.1,12.3l-3.1-7.3c1.2-1.8,1.8-3.3,4.4-3.7,2.6-.4,2.2,7.1,5.6-1.2h1.2Z"/>
  <path class="st14" d="M223.7,761.3c10.2,7.9-6.3,15.4-15,11.1,7-1.9,14.9-1.9,15-11.1Z"/>
  <path class="st8" d="M398.1,541l-2.5,7.4c-.8.1-1.7-.1-2.5,0-8.8,1.2-16.7,3.5-25.4,5-39.9,7.1-88.4,10.4-125.3-7.5.1-.6.6-1.2,1.2-1.2.9-.1,15.7,1.1,16.6,1.3s.8,2.2,1.7,2.4c15.8,3.6,38.2,2.3,54.6,1.2,11.7-.7,13.3-.8,25,0,14.3.9,35.7-2.7,49.8-6.1,2.6-.6,4.4,0,4.3-3.7l2.5,1.2Z"/>
  <path class="st5" d="M242.4,546c36.9,17.9,85.5,14.6,125.3,7.5,8.7-1.6,16.6-3.9,25.4-5,.8,2.7-4.3,3.9-6,4.5-41.6,14-104.8,15.3-145-2.4-7.2-3.2-5.6,1.9-9.7-7.1,3.5.9,5.6.4,10,2.5Z"/>
  <path class="st7" d="M207.5,504.1c.4.5,1,1.8,1.2,2.5s-.2,2.6,0,3.7c1.8.8,3.4-1.2,3.7-1.2,3.2-.2,5.9,1.4,8.7,1.2v1.2c-4.4,2.1-8.5,1.7-12.5,3.7s-6.8,6.5-6.2,11.1c1.6.2,3.6-.3,5,0,6.3,1.4,4.9.5,10,0,1.2-.1,2.6.2,3.7,0,1.8-.3,4.7-.8,6.2-1.2-.3,1.8-1.3,3.6-2.5,4.9s-4.5-.4-3.1,4.8c1.5,5.4,8.1,3.5,10.3,6.6s.1,1.8.3,2.1c-10-2.5-11.7-3.3-15.6-13.5-2.7.6-4.4,2.5-7.4,2.5-6,0-9.2-6.3-14.4-3.7-.2-.8-1.4-1.1-1.1-3.9s2.2-4,3.6-5.9v2.5c2.7,2.2,3.7-4.1,3.7-6.1s.3-1.9-.1-2.3l-7.3-1.4c2.2-5.3,5.8-2.7,6.2-7.4-3.9-1.4-7.7,2.3-10.6,2.4s-1.7-1.1-1.9-1.1c3.7-.5,4.7-4.7,5-4.9,1.5-1.1,13.2,1.6,15,3.7ZM203.1,511.5v1.2c.8-.4.8-.8,0-1.2Z"/>
  <path class="st16" d="M236.2,559.5c.9,1.4,7.4,1.3,9.8,2.1,4.2,1.4,6.9,5.4,11.4,5.3-4,7,5.3,4.4,3.7,12.3-5.7-1.9-11.4-3.2-16.8-6.2l-2.5,3.7c-2.2-.9-8.1-14.2-5.6-17.2Z"/>
  <path class="st15" d="M193.8,511.5l7.3,1.4c.4.4.1,1.6.1,2.3-3.7-.5-2.9,2.5-3.7,3.7-1.4,1.9-3.1,2.3-3.6,5.9s.9,3.1,1.1,3.9c.3,1.5-.4,3.1.6,4.9s5.2,1.8,4.4,4.9c-1.2,0-3.6,0-3.7,0-3.4-.5-5.5-1.5-8.7-2.5-.1-1.3-1.5-2.3-1-5.2.8-4.7,4.7-13.2,6-17s1-1.8,1.2-2.5Z"/>
  <path class="st13" d="M294.7,586.6c2.1.1,4.4-1.4,5.5-1.3s.6,2.3.7,2.5c-4.7-.8-1.8,4-.3,4.9,5.1,3,11,2.6,16.5,1.3-1.1.7-4.1,4.9-4.5,4.9-4.7.1-18.1-6.1-18-12.3Z"/>
  <path class="st5" d="M400.6,541c.4,4.3-.5,6.6-5,7.4l2.5-7.4c.8,0,1.7,0,2.5,0Z"/>
  <path class="st15" d="M203.8,538.6c.8.1,1.7-.1,2.5,0v2.5s-2.5,0-2.5,0v-2.5Z"/>
  <path class="st16" d="M238,553.3c.8.4.8.8,0,1.2v-1.2Z"/>
  <path class="st4" d="M329.6,630.9c-7.4-2.1-11.5-.6-18.7,1.2-1.7.4-2.2.6-3.7,1.2s-4.1,1.8-6.2,2.5c-2.1-10.4-2.8-12.8,5-20.4,1.4-1.4,3.1-1.3,3.8-1.8-1.5,3.5-.4,8.1,1.9,11,4.4,5.6,8.5-.6,14.3-.6,7.9-10-8.5-14.2-16.2-10.4.1,0-.3-1.7.8-2.5,3.1-2.2,11.6-2.6,15.5-1.8,10.3,2.1,20.8,17,14.3,26.5-3.3-2.2-6.8-3.8-10.6-4.9Z"/>
  <path class="st4" d="M310.9,633.3c2.7,0,4.4,1.2,5,1.2-.5,4.6.8,9,1.2,13.5s0,.8,0,1.2c-9.5,0-15.9-7.4-10-16,1.2,0,2.5,0,3.7,0Z"/>
  <path class="st28" d="M256.1,589c.3-.2,2.3-6.5,3.1-6.1,7.4,7.4,18.3,4.4,26.8,8.6l-2.5,7.4c-7,1.2-28.3.8-27.4-9.8Z"/>
  <path class="st28" d="M301,613.6c-1.9-3-9.5-5.2-10.9-6.5s-2.9-7.9-2.8-8.3c.1-1.4,3.8-4.9,5.4-4.8,2.4.2,8.1,5.7,10.9,6.5,4.2,1.3,8.4-.6,11.1,3.8,0,.8-11.8,6.8-13.7,9.2Z"/>
  <path class="st17" d="M223.7,564.4c2.5-.2,5,.1,7.5,0-1.7,9.3,7.5,10.9,11.2,18l10-1.9c-1.1,5.7-8.5,8.3-13.7,7.4l-13.7-18.5c-.1-1.7-.9-3.3-1.2-4.9Z"/>
  <path class="st24" d="M334.6,637c.7,1.1,3.5,1.1,2.3,5.3-2,6.8-13.5,9.5-19.8,9.5,0-.8,0-1.6,0-2.5s0-.8,0-1.2c5.4.8,9.6-3.3,8.7-8.6.1.2,3.1-.2,2.5,2.4h2.5s0-4.9,0-4.9h3.7Z"/>
  <path class="st12" d="M329.6,630.9c2.7,1.8,3.6,3.8,5,6.2h-3.7s0,4.9,0,4.9h-2.5c.6-2.7-2.4-2.3-2.5-2.5-.8-1.1-.4-5.1-3.3-6-2.4-.7-4.8,1.2-6.6,1.1s-2.3-1.2-5-1.2v-1.2c7.2-1.9,11.3-3.3,18.7-1.2Z"/>
  <path class="st15" d="M238.7,587.8l-1.2,2.5c-5.6-5.2-8.2-5.9-11.2-13.5-1.5-3.9-1-4.7-1.2-7.4l13.7,18.5Z"/>
  <path class="st15" d="M310.9,632.1v1.2c-1.2,0-2.5,0-3.7,0,1.6-.6,2-.8,3.7-1.2Z"/>
  <path class="st15" d="M307.2,633.3c-6,8.6.5,15.9,10,16,0,.8,0,1.6,0,2.5-1.9,0-3.6-.9-5.5-.9l-.7.9c-3.2-1.3-3.6-1.5-6.2-3.7-1.1-4.4-2.8-7.8-3.7-12.3,2.1-.6,4.2-1.6,6.2-2.5Z"/>
  <path class="st28" d="M251.1,591.5v2.5s-1.9,0-1.9,0l-.6-1.2c1-.6,1.9-.9,2.5-1.2Z"/>
  <path class="st23" d="M415.6,532.4h2.5s0,3.1,0,3.1c-.1,1.3-2.1.3-2.5.6-.1-1.2.2-2.5,0-3.7Z"/>
  <path class="st20" d="M206.3,659.2c-.2-.4-1.3-.7-1.1-1.6l1.3-3.1,4.8-.2c1.2,1.1-4,15.1,9.4,12.3,4.9-1,4.4-9.1,5.9-10.9s2.1-.1,2.2-.3c-.1,2.4.2,5,0,7.4s0,2.5,0,3.7c-.1,2.5,0,2.9,0,4.9s-1.2,3.4-1.2,4.9c-.4,0-.8,0-1.2,0-3.3,0-2.1,2-4.1,2.8-12.7,5.5-13-3.1-19.6-11.4-1-4,4.6-5.7,5-6.8.6-1.6-1.1-1.5-1.2-1.8Z"/>
  <path class="st20" d="M236.2,650.6c-.8.2-3.2.9-3.7,1.2v-2.5s3.1,0,3.1,0l.6,1.2Z"/>
  <path class="st29" d="M294.7,675.2c1.2,1.6,1.8,4.3,3.2,6.1,1.9,2.8,5.7,1.7,4.4,7.4,1.1.4,2.9-.3,3.7,0,0,.4,0,.8,0,1.2-.2,2.5-2.1,6.9-1.5,10.2-.7,2.4-3.3,3.2-4.7,4.6-10.1.9-18.7,2.3-28.7-.6-1.9-.6-3.2-2.3-5-3.1-3.9-1.8-4.7-1.1-8.7-4.9s.5-1.6-.3-2.2c-1.1-.9-4.2,1.1-3.6-3.7l-2.3-.2c-.1-.2-1-1.9-1.2-2.5.5-3.4-.9-8.5.2-11.5s2.6-3.1,3.5-4.5c3.9,1.2,9.9-4.5,11.2-4.9,8-2.3,24.7,1.6,29.9,8.6Z"/>
  <path class="st9" d="M263.6,664.1l1.2,2.5c-1.3.4-7.4,6.1-11.2,4.9.5-.7.2-1.9,1.8-3.7,2.6-2.8,5.3-2.8,8.1-3.7Z"/>
  <path class="st20" d="M299.7,704.7c-4.1,4.1-10.5,8.9-16.9,8.5-3-.2-18.5-6.5-16.8-12.2,1.7.8,3.1,2.5,5,3.1,10,2.9,18.6,1.5,28.7.6Z"/>
  <path class="st20" d="M251.1,689.9l2.3.2c-.6,4.8,2.5,2.8,3.6,3.7s.1,2.1.3,2.2c-4.6-.1-4.7-3.9-6.2-6.2Z"/>
  <path class="st3" d="M228.7,678.9c.1.8,0,1.7,0,2.5h-1.2c0-.5-2.3-3.1-1.2-4.9.4,0,.8,0,1.2,0,1.5.2,1.1,1.4,1.2,2.5Z"/>
  <path class="st3" d="M228.7,671.5c0-2-.1-2.4,0-4.9,2.1.7,1.6,3.8,0,4.9Z"/>
  <path class="st27" d="M202.5,667.8c6.6,8.3,6.9,16.9,19.6,11.4,2-.8.7-2.8,4.1-2.8-1,1.8,1.2,4.4,1.2,4.9,0,2.2-.8,4.1-1.2,6.2-9,6-17.8,4.8-22.5-5.5-1.2-2.7-.7-3.8-1.1-5.6s.2-6.5-3.7-6.2v-2.5c1.1-.2,2.5.1,3.7,0Z"/>
  <path class="st14" d="M221.2,760.1c-.8,0-5.6,2.5-5-2.5,2,.1,3.8.7,5,2.5Z"/>
  <rect class="st14" x="205" y="765" width="2.5" height="2.4"/>
  <path class="st14" d="M202.5,676.4c.5,1.8,0,2.9,1.1,5.6,4.7,10.3,13.5,11.5,22.5,5.5-1.6,7.1-3.1,10.7-11.6,9.6s-14.9-9.3-14.6-17c0-1.2,0-2.5,0-3.7h2.5Z"/>
  <path class="st27" d="M409.3,440.1c-.6,1.7.9,2.8,1.2,3.7,1.9,5.5,3.9,10.7,6.2,16,.2.5-.3,1.6.1,2.3h2.4c0,.1,1.2.1,1.2.1,0,.8,0,1.6,0,2.5-4-.5-2.1,1.2-1.7,3.5,1.6,7.7,4.8,14.5-7.1,13.7-5-5.7-12.6-16-18.7-19.7,4.6-3.1,6.4,4,11.9,4.9,17.6,2.8,7.2-9.9,4.3-17.2s-2-8.4-2.5-9.8c.8,0,1.7,0,2.5,0Z"/>
  <path class="st14" d="M403.1,414.3c0,.8,0,1.6,0,2.5,1.4.2,3.5,0,5,0-.9,3.2,2.3,2.5,3.7,3.7s1,2.2,1.2,2.5l-3.7,2.5c-3.9.4-7.4,1.6-11.2,2.5-2,2,4.5,3.6,5,3.7.5,1.5.6,3.5,1.2,4.9-5.6-.4-5.8-3.2-8-6.9s-3-.5-2-4.1l8.1-2.4c1-1.5.6-4.3.6-6.2-3.2-.5-3.9-2.1-5-2.5,1.5-.2,3.7.3,5,0Z"/>
  <path class="st12" d="M411.8,420.4l8.7-1.2-2.5,11c-3.1.4-6.3-.3-9.4,0s-2.8,1.3-3,1.3c-.8,0-1.7,0-2.5,0s-7-1.7-5-3.7c3.8-.8,7.3-2.1,11.2-2.5s4.3,2.2,6.2,0-2.3-2.3-2.5-2.4c-.3-.2-.4-1.8-1.2-2.5Z"/>
  <path class="st12" d="M423.1,408.1c.4,0,.9,0,1.2,0,.7,6.4-11.8,8.3-16.2,8.6s-3.6.2-5,0c0-.8,0-1.6,0-2.5,5-1.3,12.4-5.2,17.4-6.2s1.7,0,2.5,0Z"/>
  <path class="st7" d="M413.1,443.8c3,1.1,5.9,4.1,7.5,4.9-5.7,5.4.2,6.5,1,9.4s-1,3.1-1,4.1h-1.2v-2.5s-2.5,0-2.5,0c-2.4-5.3-4.3-10.5-6.2-16,.8.1,1.9-.2,2.5,0Z"/>
  <path class="st9" d="M405.6,431.5c3.8,3.1,9,2.3,7.5,8.6-1.2,0-2.5,0-3.7,0s-1.7,0-2.5,0c-.4-1.3-2-2.5-2.5-3.7s-.7-3.4-1.2-4.9c.8,0,1.7,0,2.5,0Z"/>
  <path class="st8" d="M420.6,464.7c.4,5.5,3.4,7,5,11.1s4,10.7,3.9,12.9c-.2,5-2.6,3.3-3.9,4.3-2.9-.7-9.3-4.3-11.2-6.2s-1.9-4.3-2.5-4.9c11.9.8,8.6-6,7.1-13.7s-2.4-4,1.7-3.5Z"/>
  <path class="st12" d="M420.6,393.4h2.5c.9,2.9-1.5,6.7-1.3,9s2.4,1.6,2.5,2.1-1.1,1.8-1.2,2.5c-.8-.1-1.8.2-2.5,0s-1.4-.9-2.5-1.2c1-4.4-6-1.7-5-6.2,2.4-1.5,5.6-3.6,7.5-6.2Z"/>
  <path class="st29" d="M343.3,501.7c.3,4.2.8,8.4,2.5,12.3,4.6,10.4,25,19,34.9,14.8.5-.2.9-.8,1.2-1.2.4,0,.8,0,1.2,0,1.6.3,4.2,3.6,3.7-1.2,2-.5,4.2-.6,6.2-1.2-.5,3.1.5,3.4,2.5,4.9s7.7,2.5,7.4,5.5c-.4,4.4-8.4-.9-9.9-1.9-.8-1.2-2.3-3.2-3.7-3.7l2.5,8.6c-4.9,0-10.5.4-15.2,1.6-11.6,2.8-16.7,4.6-30.1,3.2-3-.3-8.5-.2-7-4.8,3.2-2.1,4.3-3.1,3.7-7.4-6.6,4.8-11.9,9.4-19.3,2.5s-2.5-5.5-3.1-6.2c9.3-8.6,2.6-14.5-7.6-9.1-.2,4.8,3.8,6,6.3,9.1-2.7,7.3-6.8,11.5-15.3,9.6-3.5-.8-5.7-4.7-9.6-4.7-1.9,2,4.2,7.7,6.2,8.6-.6,5.8-8.5,5.2-13.2,5-1.6,0-2.8-1.3-3-1.3,8.3-3.3,1.8-3.2.7-4.9s-.4-4.7-1.8-5.6c-2.6-1.8-16.2-1.6-20-1.8-.9-2.8,2.9-3,5-3.7,4.8-1.6,12.6-2.4,16.7-5.1s3.1-4.9,4.5-7.2,3.3-5.6,5-8.6,1.4-3.7,2-3.8l11.1,5c4.9-12.3,24-1.9,28.5-5.1s.8-5.3,7-2.4ZM294.7,541h-2.5s0,3.7,0,3.7l2.5-1.9v-1.8Z"/>
  <path class="st27" d="M393.2,533.6c.9,1.5,1.7,4.4,2.5,6.2,0,3.7-1.8,3.1-4.3,3.7-14.1,3.4-35.6,7-49.8,6.1-11.6-.8-13.3-.7-25,0-16.3,1-38.8,2.3-54.6-1.2-.9-.2-.8-2.2-1.7-2.4s-15.7-1.4-16.6-1.3v-2.5l9.3,1.3c10.9-1.4,21,.4,31.8,1.2.2,0,1.4,1.2,3,1.3,4.7.2,12.6.9,13.2-5,7.5,3.2,13.2.9,18.2-4.8,7,6,11.9,8,20.4,2.4-1.5,4.6,4,4.5,7,4.8,13.4,1.4,18.4-.4,30.1-3.2s10.4-1.6,15.2-1.6l-2.5-8.6c1.4.5,3,2.5,3.7,3.7Z"/>
  <path class="st27" d="M418.1,498c5.5-.5,10.6-.4,12.2,5.9s-9.5,6.6-14.7,6.5c-.5,2.8.1,2,1.6,2.7,4.5,2.4,11.7,2.8,13.4,8.9l-1.9,3.1h-18.1l3.7,9.8c-1.4,1.4-10.9-5.7-12.5-6.1,2.4-1.3,2.9-2.1,2.5-4.9l-7.5-1.2c1.6-1.8,2.4-4.3,3.7-6.2,1.9-2.9,4.2-5.8,6.2-8.6s1.6.3,2.2-.3c3.2-3.7-.9-8.7,9.1-9.6ZM408.1,521.3h-2.5s0,2.4,0,2.4l3.1,1.2-.6-3.7Z"/>
  <path class="st9" d="M425.5,493c-.1.1.4,1.7-.2,2.2-1.4,1.1-6.5-.9-7.2,2.7-9.9.9-5.8,5.9-9.1,9.6s-2.1.2-2.2.3l7.5-20.9c1.9,1.8,8.3,5.5,11.2,6.2Z"/>
  <path class="st29" d="M396.9,522.6l7.5,1.2c.4,2.9,0,3.7-2.5,4.9-.6-.2-1.7,0-2.5,0l-.2-2.2c-1.9-.5-4.2-.5-4.8-2.7.2,0,.4-1.3,2.5-1.2Z"/>
  <path class="st27" d="M394.4,523.8c.6,2.2,2.9,2.1,4.8,2.7l.2,2.2c-1.3-.1-3.2-.2-3.7,1.2-2-1.5-3-1.8-2.5-4.9,0,0,.4-.9,1.2-1.2Z"/>
  <path class="st16" d="M441.7,483.2c.6.6-1.2,2-1.2.6s1-.9,1.2-.6Z"/>
  <path class="st14" d="M386.9,351.5c-7.3,6-16.7,9.2-24.1,14.9-1.3,1-6.4,4.8-6.7,5.1-1.3,1.3-.6,4.6-4.7,5.8l-1.9-6.1c-1.8-.8-3,1-3.7,1.2-2.6.7-5.4.8-7.5,3.1s.1,5.8-6,4c-.2-1.3-.7-2.3-1.5-3.4s.3-1.5-.3-2.1c-1.5-1.6-9.7-4.6-11.6-7.7-3.9-.6-.6,3.8.6,4.9-6.8,3.5-7-4.7-13.5-2.3l-1.4,9.7-9.9-6.1-1.4,6c-4.6-.2-4.4,0-6.1,3.8-4.8-5.4,5.2-3.4,3.7-7.4-3,.8-3.9-1.8-5-2.5h2.5s-1.2-6.2-1.2-6.2c.1-.2,3.3,2,3.7,2.5s-.7,2.6.6,2.5h1.8s-1.2-2.5-1.2-2.5c1.3-3.5,4-1.1,7.1-2.1s5.8-5.3,7.2-5.4c5.7-.2,16.6,5.9,22.6,6.3s5-2.1,7.1-2.2c3.6,0,15.6,4.8,16.4,4.6s1.3-2.8,2.9-3.7c6.3-3.5,25.7-14,31.4-14.8Z"/>
  <path class="st4" d="M398.1,350.3c-16.6,9.6-33.5,16.5-44.2,33.2l-1.9-3.7-5.6,2.5-.6-9.9c.8-.2,1.9-2,3.7-1.2l1.9,6.1c4.2-1.2,3.4-4.5,4.7-5.8s5.4-4.1,6.7-5.1c7.5-5.8,16.8-9,24.1-14.9.4,0,.8,0,1.2,0,.8-.1,1.7.1,2.5,0,2.6-.4,4.7-.5,7.5-1.2Z"/>
  <path class="st10" d="M430.5,315.8h1.2c-4.3,7.6-4.1,18.4-11.3,23.9-2.3,1.7-5.5,2.1-7.4,4.4-5.1,1.3-9.7,4.7-15,6.2s-4.9.8-7.5,1.2c5.6-3.6,11.6-6.5,17.4-9.8s1.6-.7,2.5-1.2c4.5-2.8,3.2-2,6.2-4.9,8.2-8,6.9-9.2,11.3-18.8.6-1.3,2.4-.8,2.4-.9Z"/>
  <path class="st4" d="M286,372.4c1.1.7,1.9,3.3,5,2.5,1.5,3.9-8.5,2-3.7,7.4-.5,1.1,1.2,3.1-1.9,2.5-6.4-6.7-10.7-13.9-18.1-19.7h2.5s0-2.5,0-2.5c-4.4,1.2-3.5-2.3-3.7-2.5,7.4,0,11.1,7.6,15.7,11s3.4.9,4.2,1.3Z"/>
  <path class="st24" d="M253.6,351.5c1.4.6,8.4,3.3,8.7,3.7.9,1-.4,1.3,3.7,4.9s-.6,3.6,3.7,2.5v2.4s-2.5,0-2.5,0c-8.2-6.4-17.7-9-26.2-14.8,2.1,0,3.5-1.2,3.7-1.2,2.6,0,6.2,1.5,8.7,2.5Z"/>
  <path class="st12" d="M216.2,322c2.1,4.7,3.1,12.2,7.1,15l-.9,2.2c.8.1,1.8-.1,2.5,0s.9-.1,1.2,0l2.5,1.2c.7.3,1.8.8,2.5,1.2.2.6.7,1.1,1.2,1.2,1.1.2,2.6-.2,3.7,0-.4,2.3.1,2.9,2.5,2.5.5.6,2.7,1,3.7,1.2l1.2,1.2c0,.5.5,1.5,1.2,1.2-.2,0-1.6,1.2-3.7,1.2s-.9,0-1.2,0-.6-1-1.2-1.2h-1.2c-.3-.4-.7-1.1-1.2-1.2-5.2-1.9-9.1-2.8-13.7-6.2s-.8-.9-1.2-1.2c-.8-.6-1.2-1.4-2.5-1.2-.1-.4.1-.8,0-1.2-.7-2.5-7.1-13.2-4.9-16,.8-.3,1.9.2,2.4,0Z"/>
  <path class="st27" d="M218.7,338c.1.4-.1.9,0,1.2.9,3.1.5,8.1,2.5,12.3h-3.7c-1.6-2.1-3.3-4.1-5-6.2s-2-4.1-3.7-6.2c2.5-3.8,6.3-1,10-1.2Z"/>
  <path class="st12" d="M203.1,315.8c.8.4.8.8,0,1.2v-1.2Z"/>
  <path class="st9" d="M195.7,340.4c.8.4.8.8,0,1.2v-1.2Z"/>
  <path class="st16" d="M378.2,640.7h-2.5c-1.3-3,1.1-7.1,1.2-8.6,2.2,1.7,1.2,5.9,1.2,8.6Z"/>
  <path class="st16" d="M378.2,646.9c0,1.6,0,3.3,0,4.9-2.4.3-4.2,0-5-2.5,3.1-1.1,2.3-2.3,5-2.5Z"/>
  <path class="st27" d="M283.5,640.7l6.3.7c1.7,10.2-5.7,9.5-7.5,17.8v1.2c-1.1-.2-3.5,1.1-5,1.2-1.9-10.6,1.7-13.3,6.2-20.9Z"/>
  <path class="st5" d="M283.5,640.7c.3-.5-.7-2.5.6-2.5,11.7-2.5,11.1,24.4-1.9,21,1.8-8.3,9.2-7.6,7.5-17.8l-6.3-.7Z"/>
  <path class="st8" d="M273.5,630.9v8.6s-5-.6-5-.6c-3.6-2.4.3-9.4,5-8.1Z"/>
  <path class="st15" d="M302.2,676.4c-2.5,0-3.8-1.2-3.7-3.7,1.6,1.4,2.5,2.6,3.7,3.7Z"/>
  <path class="st9" d="M272.3,661.6l-2.5,1.2c.1,0,.4-.9,2.5-1.2Z"/>
  <path class="st17" d="M231.2,528.7c1.6-.4,4.4.3,6.2,0,0,4.8-10.2,5.4-4.2,9.7,5.2,3.7,7.3-4.2,11.7-6l-3.5,9.7,2.3.2v2.5c-.6,0-1.1.6-1.2,1.2-4.3-2.1-6.4-1.6-10-2.5-.2-.4.3-1.3-.3-2.1-2.2-3.1-8.8-1.2-10.3-6.6-1.4-5.2,2.8-4.6,3.1-4.8-.3,6.4,4.5-.8,6.2-1.2Z"/>
  <path class="st20" d="M254.9,527.5c.2,0,.3.9.6,1.2l.6-1.2c.8.1,1.8-.2,2.5,0v1.2c-.9,4,3.7,3.3,2.5,0,1.5,0,7.1.2,7.5,0-2,.7-5.9.9-5,3.7,3.8.1,17.4,0,20,1.8,1.4,1,.8,4.1,1.8,5.6s7.6,1.6-.7,4.9c-10.9-.7-20.9-2.5-31.8-1.2l-9.3-1.3-2.3-.2,3.5-9.7c-4.3,1.8-6.5,9.7-11.7,6-6-4.3,4.2-4.9,4.2-9.7-1.8.3-4.6-.4-6.2,0-2-5.3,3.7-5.2,3.8-8l-1.9-.6c-1,.2-1.6,1.2-1.8,1.3-1.4.3-8.1,1.4-8.7,1.2s-.9-2.6-3.1-2.6c-3.4,0-7.9,2.4-11.9,1.3l1.2-6.1c4-2,8.1-1.6,12.5-3.7s2.1.7,2.5-.6c1.2-3.7-2.3-.6-2.5-.6-2.8.1-5.5-1.4-8.7-1.2-.5-1.8-1.9-2.4-3.7-2.5-.3-.7-.8-2-1.2-2.5.5-1.9-1.7-4.7,1.8-4.9,5.7-.3,11.5,0,16.9-2.4,4.9,19,10.9,24.4,28.7,30.8Z"/>
  <path class="st14" d="M203.8,486.9c0,3.5.3,9.4,4.7,7,4.7-2.6,3.3-1,7.8-2v4.9s10-1.2,10-1.2c0,.4,0,.8,0,1.2-5.4,2.4-11.2,2.1-16.9,2.4s-1.3,3.1-1.8,4.9c-1.8-2.1-13.5-4.8-15-3.7v-1.2c-1.1-4.9,5.1-3.9,3.7-8.6.4-.3.8-.9,1.2-1.2.6-.1,1.1-.6,1.2-1.2.9-.6,4.4-.7,5-1.2ZM213.7,494.3h-2.5s0,1.8,0,1.8l1.9,1.9.6-3.7Z"/>
  <path class="st27" d="M208.8,515.2l-1.2,6.1c4,1.1,8.5-1.3,11.9-1.3s2.5,2.4,3.1,2.6l-1.2,3.7c-1.1.2-2.5-.1-3.7,0-2.5-3.5-7.1-2.6-10,0-1.4-.3-3.4.2-5,0-.6-4.6,2.1-9,6.2-11.1Z"/>
  <path class="st27" d="M231.2,521.3c.3,0,.9-1,1.8-1.3l1.9.6c0,2.8-5.8,2.7-3.8,8-1.7.5-6.5,7.6-6.2,1.2,1.2-1.3,2.2-3.1,2.5-4.9,2.3-.7,3.8-.3,3.7-3.7Z"/>
  <path class="st17" d="M231.2,521.3c0,3.4-1.5,3-3.7,3.7s-4.4.9-6.2,1.2l1.2-3.7c.6.1,7.3-.9,8.7-1.2Z"/>
  <path class="st17" d="M217.5,526.3c-5.1.5-3.6,1.4-10,0,2.9-2.6,7.5-3.5,10,0Z"/>
  <path class="st23" d="M201.3,515.2c0,2.1-1,8.3-3.7,6.1v-2.5c.8-1.1,0-4.2,3.7-3.7Z"/>
  <path class="st14" d="M212.5,509c-.3,0-2,2-3.7,1.2-.2-1.1.3-2.9,0-3.7,1.8,0,3.2.7,3.7,2.5Z"/>
  <path class="st14" d="M221.2,510.3c.2,0,3.7-3.1,2.5.6s-1.8.3-2.5.6v-1.2Z"/>
  <path class="st23" d="M203.1,511.5c.8.4.8.8,0,1.2v-1.2Z"/>
  <path class="st27" d="M309.7,613.6c7.6-3.7,24.1.4,16.2,10.4-5.8,0-9.9,6.2-14.3.6-2.3-2.9-3.4-7.5-1.9-11ZM324.6,617.3c-5.9-1.5-12.5-5.9-11.1,4.1,1.9,5.6,12.8-1.9,11.1-4.1Z"/>
  <path class="st19" d="M325.9,639.5c.8,5.3-3.3,9.4-8.7,8.6-.4-4.5-1.7-8.9-1.2-13.5,1.8.1,4.2-1.8,6.6-1.1,2.9.9,2.5,4.9,3.3,6Z"/>
  <path class="st7" d="M196.3,490.6c1.4,4.7-4.9,3.7-3.7,8.6-1.7-1.8-5.7,0-7.5,1.2h-1.2c.4-4.3,3.2-4.8,6.2-6.2s2,.5,3.4-.3,1.3-2.2,2.8-3.4Z"/>
  <path class="st29" d="M244.9,384.7c.2.2,1.8-.1,2.5.6,1.3,1.3.6,3.6,2.1,4.3s6.7,2.3,7.2,2.4c5,.8,12.9-2.3,14.2,4.4s-5.3,9.4,5.1,17.1c5.3,3.9,11.2,6.6,17.4,8.1-.6,8.9,9.3,11.8,14.3,16,2.2,1.8,3.1,4.1,5.6,6.1s3.5,1.2,3.6,1.3-2.1,3.6.7,4.8c3.9,1,12.4-11.6,15.6-14.8,3.7-3.7,12.5-6.1,11.2-13.5,1.9.1,4.4,2.1,6.3.7,5-7.8,3.3-16.7,14.3-17.9,1.7-16.4,14.5-10.5,24.3-16-.5,4,1.2,2.1,3.5,1.6,5.1-1,9.9-2.6,15.2-2.9,1.7,0,3.3,0,5,0v1.2c-1.5,1-2.7,2.3-3.7,3.7-4.4-.7-5.8,3.7-9.1,5.2s-3.3.5-4.6.9c-2.4.7-14.3,3.1-14.8,3.8-4.8,7.4,12.4,10.5,17.3,12.2s1.8,2,5,2.5c0,1.9.5,4.7-.6,6.2l-8.1,2.4c-1.1,3.6,1.5,3.3,2,4.1,2.2,3.7,2.4,6.5,8,6.9.5,1.2,2.1,2.4,2.5,3.7s1.1,6.5,2.5,9.8c-2.9,13.2-14.8,5.8-23,4.9-11.4-1.2-23.7-.2-33.1,6.8-6.6,4.9-4.5,10.2-6.4,12.7s-4.3,1-5.9,2.1-2.2,5.6-5.1,7.3c-7.2,4.1-16.8,2.3-24.3,3.1-5.8.6-11.4,4-18.1,2.5,0-.8,0-1.7,0-2.5s3.8-4.3-1.2-3.7c-1.2-10.1-8.8-21-18.7-24.6v-2.5s-3.7,1.2-3.7,1.2c-1.7-.3-4.4,0-6.2,0l-1.9-4.9c-3.2.5-7,7.1-13.6,5.9-.7-.1-10.4-6.3-11.3-7.2s-3.8-5.1-3.1-6c6.1-.9,2.7-7.2,3.9-11.5s7.2-4.8,6-9.5c-5.3-.4-9.7,2.1-11.8-3.8s-.5-1.9,1.8-3.6c2.1-.8,4.1-1.8,6.2-2.5s3.8,0,6-.8c4.5-1.6,16.9-5.4,10.2-10.2s-8.6-4.1-12.5-4.9-2.6.2-3.7,0v-2.5c-.8-.2-1.8.1-2.5,0-1.9-.4-2.9-.5-5-1.2s-1.8-.8-2.5-1.2l-1.2-1.2c-.4-.4-.9-.8-1.2-1.2l-1.2-1.2c-.6-1-2.4-3-.6-3.7,8.1,1.2,15.4,2,23,4.9l-3.7-6.1ZM291,443.8c-1.7-2.4-1.6-6.5-3.2-8.5-5.3-7.1-22.2-2.6-16.9,4.3s14.2,4.3,20,4.2ZM344.6,445c5.2.6,22.2-1.6,19.8-9s-21.7,0-19.8,9Z"/>
  <path class="st19" d="M393.2,462.3c6.1,3.7,13.7,14,18.7,19.7s1,3.5,2.5,4.9l-7.5,20.9c-2.1,2.8-4.3,5.8-6.2,8.6l-3.1-3.7,4.4-1.2c-.8-2.4-.9-4.9-1.2-7.4s0-.8,0-1.2c.8,0,1.7,0,2.5,0,.8-1.8-1.2-3.3-1.2-3.7-1.2-9.1-3.1-20.3-12.4-24,1.8,3.6,4.9,11.7,5,15.4-1.3,0-2.7-1-3.7-1.2.6-2.8-1.3-2.9-3.4-3.4-5.5-1.1-14.2-3.4-19-4,3.7-3.6,3.3-9.8-2-10.8-5.9.5-12,6.4-5.4,10.8-6.4,1.2-12.7,8.3-13.7,14.8s.1,3.3,0,4.9,0,2.5,0,3.7,0,.8,0,1.2c0,.8,0,1.6,0,2.5,0,1.6.6,4.1-1.2,4.9-1.7-3.9-2.2-8.1-2.5-12.3-1.9-28.9,19.8-57.8,49.8-39.4Z"/>
  <path class="st20" d="M393.2,462.3c-30-18.5-51.7,10.5-49.8,39.4-6.2-2.9-4.2.4-7,2.4-4.6,3.1-23.7-7.3-28.5,5.1l-11.1-5c-.6.1-1.4,2.7-2,3.8.2-1.3-1.1-2.8-1.2-3.7s0-2.5,0-3.7,0-3.3,0-4.9,0-4.1,0-6.2c6.6,1.5,12.2-1.8,18.1-2.5,7.5-.8,17,1,24.3-3.1s2.9-5.7,5.1-7.3,5.2-1.2,5.9-2.1c1.9-2.5-.2-7.8,6.4-12.7,9.4-6.9,21.7-8,33.1-6.8,8.2.9,20.1,8.4,23-4.9,2.9,7.3,13.4,20-4.3,17.2-5.5-.9-7.3-7.9-11.9-4.9Z"/>
  <path class="st8" d="M416.8,459.8h2.5s0,2.5,0,2.5h-2.4c-.5-.8,0-2-.1-2.5Z"/>
  <path class="st9" d="M413.1,422.9c.2.2,4.8-.3,2.5,2.4s-5.9,0-6.2,0l3.7-2.5Z"/>
  <path class="st3" d="M421.8,390.9c-.4.8-.8,1.8-1.2,2.5-1.9,2.5-5,4.7-7.5,6.2s-2.4,1.2-3.7,1.2v1.8c.8,1.9,6.5,2.5,8.7,3.1s2,1.1,2.5,1.2v1.2c-5,1-12.4,4.8-17.4,6.2s-3.5-.2-5,0c-4.9-1.6-22.1-4.8-17.3-12.2.5-.7,12.4-3.1,14.8-3.8-.8,6.8-9.6,3-12.5,8,5.2,2.3,20.1-5.3,23.7-8.7s.9-2.6,1.2-3l13.7-3.7Z"/>
  <path class="st15" d="M419.3,384.7c.3.1,2.7,2.8,3.8,3.2.4,1.8-1,2.3-1.4,2.9l-13.7,3.7c.5-.7.7-1.7,1.2-2.5,1-1.4,2.3-2.7,3.7-3.7l1.2-.6-1.2-.6c-1.7,0-3.3,0-5,0v-2.5c4.3-.4,5.3-2.6,11.2,0Z"/>
  <path class="st24" d="M413.1,399.5c-1,4.4,6,1.7,5,6.2-2.2-.6-7.9-1.2-8.7-3.1v-1.8c1.3,0,2.6-.6,3.7-1.2Z"/>
  <path class="st10" d="M320.9,527.5c.6.7.6,3.9,3.1,6.2,7.4,6.9,12.7,2.3,19.3-2.5.5,4.3-.6,5.3-3.7,7.4-8.5,5.6-13.4,3.6-20.4-2.4-5,5.7-10.7,8-18.2,4.8s-8.2-6.6-6.2-8.6c3.9,0,6.1,3.9,9.6,4.7,8.5,1.9,12.6-2.3,15.3-9.6.2.2,1.1-.2,1.2,0Z"/>
  <path class="st12" d="M349.5,510.3c1,2.3.2,2.8,2.5,6.2,7,10.2,15.8,8.2,26.2,9.8.3,0,1.3,1,2.5,1.2v1.2c-9.9,4.2-30.3-4.3-34.9-14.8,1.9-.9,1.2-3.3,1.2-4.9.6.4,2.4.9,2.5,1.2Z"/>
  <path class="st10" d="M400.6,504.1c.3,2.5.4,4.9,1.2,7.4l-4.4,1.2,3.1,3.7c-1.3,1.9-2.2,4.4-3.7,6.2-2.1-.1-2.3,1.2-2.5,1.2-.8.3-1.2,1.2-1.2,1.2-2.1.6-4.2.7-6.2,1.2s-2.4,1.2-3.7,1.2c-.4,0-.8,0-1.2,0s-.8,0-1.2,0c-1.2-.2-2.1-1.2-2.5-1.2,10.6-4.3,17.7-11.8,22.4-22.2Z"/>
  <path class="st24" d="M320.9,527.5c-.2-.2-1.1.2-1.2,0-2.5-3.1-6.5-4.3-6.3-9.1,10.2-5.4,16.8.5,7.6,9.1Z"/>
  <path class="st10" d="M293.5,495.5c0,1.6,0,3.3,0,4.9-2.1.3-1.5,2.9,0,3.7.1.9,1.5,2.4,1.2,3.7-1.6,3-3.1,5.7-5,8.6h-1.2c.2-1.6-.3-3.5,0-4.9,1.4-7,1-7.8,0-14.8s.1-1.7,0-2.5l5,1.2Z"/>
  <path class="st24" d="M288.5,516.4h1.2c-1.5,2.3-1.4,5.1-4.5,7.2s-11.9,3.4-16.7,5.1v-2.5c5.1-.9,14.8-5,17.4-9.8.8,0,1.7,0,2.5,0Z"/>
  <polygon class="st20" points="294.7 541 294.7 542.9 292.2 544.7 292.2 541 294.7 541"/>
  <path class="st27" d="M386.9,526.3c.5,4.8-2.1,1.6-3.7,1.2,1.4,0,2.6-1,3.7-1.2Z"/>
  <path class="st27" d="M380.7,528.7v-1.2c.4,0,.8,0,1.2,0-.3.4-.7,1-1.2,1.2Z"/>
  <polygon class="st7" points="408.1 521.3 408.7 525 405.6 523.8 405.6 521.3 408.1 521.3"/>
  <path class="st2" d="M221.2,340.4l1.2,1.2c4.6,3.4,8.5,4.3,13.7,6.2l1.2,1.2h1.2l1.2,1.2c.4,0,.9,0,1.2,0,8.5,5.7,17.9,8.4,26.2,14.8s11.7,13,18.1,19.7c3,.6,1.4-1.3,1.9-2.5,1.6-3.8,1.4-4,6.1-3.8l1.4-6,9.9,6.1,1.4-9.7c6.5-2.4,6.8,5.7,13.5,2.3,2.6,2.4,7.7,4.1,11.2,4.9.7,1.1,1.2,2.1,1.5,3.4,6.2,1.9,3.9-1.5,6-4s4.9-2.4,7.5-3.1l.6,9.9,5.6-2.5,1.9,3.7c10.7-16.7,27.6-23.6,44.2-33.2,5.3-1.5,9.9-4.9,15-6.2s0,1.7,2.8,1.1,4.9-4.4,8.4-3.5v3.7c-5.4,2.9-19.2,22-23.4,27.9s-1.9,5.3-2.7,6.5c-1.5,2.2-6.3,7.3-8.7,8.6-9.8,5.5-22.6-.4-24.3,16-11,1.2-9.3,10.1-14.3,17.9-1.9,1.4-4.4-.6-6.3-.7s-2.3-.1-2.5,0c-.9-2.4-1-4.8-1.2-7.4s0-2.5,0-3.7c-3.8-.5-7.9,1.7-10,4.9s-.1.4,0,1.2,0,1.7,0,2.5c-1.6-.1-3.3,0-5,0l-6.8-16c-.7.2-3.9,8.4-4.8,10.1-1.6,3.1-2.8.5-3.3,5.9-1.2.2-2.7-.2-3.7,0,.7-3.3-5.5-10.8-8.1-7.4-.6.7-.5,1.6-.6,2.5-.5,2.9,1.4,5.8-2.5,7.4-.5-.2-1.7.2-2.5,0-6.2-1.5-12.1-4.2-17.4-8.1-10.4-7.7-3.4-8.5-5.1-17.1s-9.2-3.6-14.2-4.4c-.5,0-6.6-2.1-7.2-2.4-1.6-.7-.9-3-2.1-4.3s-2.3-.4-2.5-.6c-.4-.4-.9-.8-1.2-1.2s-.9-.8-1.2-1.2.2-1,0-1.2c-1-1.2-2.2-2-2.5-2.5s.2-.9,0-1.2c-.3-.5-.7-.9-1.2-1.2-4.9-8.5-10.2-14.4-15-22.2s-.9-.8-1.2-1.2c-.4-.4-1-.8-1.2-1.2-1.9-4.3-1.6-9.2-2.5-12.3,1.3-.1,1.7.6,2.5,1.2Z"/>
  <path class="st26" d="M319.6,371.2c-1.3-1.1-4.6-5.5-.6-4.9,1.9,3,10.1,6.1,11.6,7.7s.1,1.9.3,2.1c-3.5-.8-8.6-2.5-11.2-4.9Z"/>
  <path class="st24" d="M242.4,346.6c.7.2,1.7-.1,2.5,0,0,.8-1.2,1-1.3,1.2l-1.2-1.2Z"/>
  <path class="st24" d="M228.7,340.4l-2.5-1.2c1.3.4,1.7.9,2.5,1.2Z"/>
  <path class="st27" d="M222.5,341.7l-1.2-1.2c.5.4.8.9,1.2,1.2Z"/>
  <path class="st24" d="M232.4,342.9c-.6,0-1.1-.6-1.2-1.2.5.3.9.8,1.2,1.2Z"/>
  <path class="st24" d="M237.4,349.1l-1.2-1.2c.5.2.9.8,1.2,1.2Z"/>
  <path class="st24" d="M239.9,350.3l-1.2-1.2c.7.2,1.1,1.2,1.2,1.2Z"/>
  <path class="st12" d="M221.2,351.5c.2.5.9.8,1.2,1.2s.8.9,1.2,1.2c4.7,7.7,10.1,13.7,15,22.2s.8.9,1.2,1.2c.2.3-.2,1,0,1.2l2.5,2.5c.2.3-.2,1,0,1.2l1.2,1.2c.4.4.8.8,1.2,1.2l3.7,6.1c-7.6-2.9-15-3.7-23-4.9-1.8.7,0,2.7.6,3.7s.9.8,1.2,1.2.8.9,1.2,1.2.8,1,1.2,1.2c.7.4,1.7.9,2.5,1.2l-1.2,1.2c-.4-.5-10.3-5.9-10.9-6-3.4-.6-3.1,1.7-4.1,2.3s-1.8-.2-2.5,0c0-.4-1.3-1.2-1.3-3,0-2.8,2-6.2,1.3-9.3l23.7,3.7c-4-11.8-12.4-22.1-19.9-32h3.7Z"/>
  <path class="st15" d="M229.9,480.7c1,3.6-2.5,7.7-2.4,10.5s3.9,12.2,4.5,13.9,5.7,13.2,6.6,7c.2-1.3.2-4.3,0-5.5h1.2c.3,7.7,13.1,16.4,19.9,18.5,0,0,.3,1.1,1.2,1.2,1.5.3,5.9.3,7.5,0v2.5c-.4.2-6,0-7.5,0-.6-1.7-1.3-1-2.5-1.2s-1.7.1-2.5,0h-1.2c-17.7-6.4-23.8-11.8-28.7-30.8s0-.8,0-1.2c-.6-2.5-.1-5.4-2.5-7.4.4-.3,5.1-6,6.2-7.4Z"/>
  <path class="st29" d="M261.1,528.7c1.2,3.3-3.4,4-2.5,0h2.5Z"/>
  <path class="st24" d="M261.1,528.7h-2.5v-1.2c1.2.3,1.9-.4,2.5,1.2Z"/>
  <path class="st24" d="M254.9,527.5h1.2l-.6,1.2c-.3-.3-.4-1.1-.6-1.2Z"/>
  <path class="st20" d="M233.7,416.7c-2.3,1.7-3,.4-1.8,3.6,2.1,5.9,6.5,3.3,11.8,3.8,1.2,4.6-5,6.3-6,9.5s2.2,10.7-3.9,11.5c-.7.9,2.2,5.1,3.1,6s10.6,7,11.3,7.2c6.6,1.3,10.3-5.3,13.6-5.9l1.9,4.9c-11.8.6-23.4,7.7-29.9,17.2-.5.8-1.3,1.3-1.2,2.5-1.6,1.8-1.9,3-2.5,3.7-1.1,1.4-5.8,7.1-6.2,7.4s-7.1,3.6-7.5,3.7c-4.5,1-3-.6-7.8,2-4.4,2.4-4.6-3.4-4.7-7,3.9-4,12.4-15.8,13.4-21.8s-.4-8.4.3-11.8,6.9-5.6,7.2-6.1c.9-1.3,0-3.3.3-4.6s1.3-2.4,1.2-3.7c1.2,0,9.3-5.9,9.7-6.4.5-.8.5-3.7.3-4.6-1.1-3.7-9-2.8-9.9-5.6-1.5-4.5,5-4.6,7.5-5.5Z"/>
  <path class="st25" d="M197.5,442.6c.3.4.8.9,1.2,1.2.8.7,1.3,1.4,2.5,1.2,9,5.6,14.2,3.1,22.4-2.5h1.2c-.2,1.4.6,3.3-.3,4.6s-7,5.1-7.2,6.1c-.7,3.3.3,7.8-.3,11.8-1,6.1-9.5,17.8-13.4,21.8s-4,.6-5,1.2c.2-1.1,0-2.5,0-3.7h-2.5c3.1-4.5,4-12.4,5.3-14.5s9.3-4.8,2.8-6.4-7.6-.9-8.1-6.2l13.7-1.9c-6.6-.8-8.5-.2-13.7-4.3,4.9-5,2.6-.2,6.1.7s4.2.7,6.3.5l-11.4-7-2.2.9,2.5-3.7Z"/>
  <path class="st9" d="M223.7,488.1c2.4,1.9,1.9,4.8,2.5,7.4l-10,1.2v-4.9c.4,0,7.1-3.4,7.5-3.7Z"/>
  <path class="st9" d="M196.3,484.4h2.5c0,1.2.2,2.6,0,3.7-.5.3-.8,1-1.2,1.2s-.8.9-1.2,1.2c-1.5,1.1-2.5,3.2-2.8,3.4-1.4.8-2.9,0-3.4.3-.2-1.6.2-3.4,0-4.9,1.3.7,5.5-3.9,6.2-4.9Z"/>
  <polygon class="st9" points="213.7 494.3 213.1 498 211.3 496.1 211.2 494.3 213.7 494.3"/>
  <path class="st7" d="M197.5,489.3c.4-.3.7-.9,1.2-1.2,0,.6-.6,1.1-1.2,1.2Z"/>
  <path class="st29" d="M324.6,617.3c1.7,2.3-9.2,9.7-11.1,4.1-1.4-10,5.2-5.6,11.1-4.1Z"/>
  <path class="st19" d="M263.6,457.4c1.8,0,4.6-.3,6.2,0s3.2,1,3.7,1.2c9.9,3.6,17.5,14.5,18.7,24.6s-.5,3.1,1.2,3.7c0,.8,0,1.6,0,2.5,0,2,0,4.1,0,6.2l-5-1.2c-.2-1.3-1.2-2.1-1.2-2.5-1.4-6.2-.6-9.3-4.5-14.7-6.3-8.7-18-11.8-28.2-8.7s-1,1.8-1.9,2.3c-2,1-3.8.8-5.9,2.5s-2,3.5-3.1,5c-5.8,8.3-8.8,11.5-7.4,22.7s2.2,4.6,2.4,5.6.2,4.2,0,5.5c-.9,6.2-5.8-4.8-6.6-7s-4.5-13.2-4.5-13.9c-.1-2.8,3.4-6.9,2.4-10.5.5-.7.9-1.9,2.5-3.7s1.4-1.2,1.2-2.5c6.5-9.5,18.1-16.7,29.9-17.2Z"/>
  <path class="st14" d="M231.2,395.8c5,5.9,4,3.4,11.2,6.2s.8,1.6,2.1,2.2c3.5,1.5,9.9,3.2,11.6-1,6.7,4.8-5.7,8.7-10.2,10.2s-4.6.4-6,.8c-5.1-1.2-15.1-5.7-19.9-4.9l-3.7-5.5,8.7-3.7-8.7-8c1-.6.7-2.9,4.1-2.3s10.5,5.5,10.9,6Z"/>
  <path class="st12" d="M239.9,414.3c-2.1.7-4.2,1.7-6.2,2.5-2.5.9-8.9,1-7.5,5.5s8.9,1.9,9.9,5.6c-6.5-.2-10,6.5-16.2,7.4-.2-.2-2.6.5-2.5-.6l2.4-6.6-8.5-5.7c-.6-2.2,9.1-7,11.2-8-.1-.8-3.3-3.4-3.7-3.7.5-.2,1-1.2,1.2-1.2,4.8-.8,14.9,3.7,19.9,4.9Z"/>
  <path class="st3" d="M291,443.8c-5.8.1-16,.9-20-4.2s11.5-11.4,16.9-4.3,1.5,6.2,3.2,8.5Z"/>
  <path class="st26" d="M344.6,445c-2-9,17-17.5,19.8-9s-14.6,9.7-19.8,9Z"/>
  <path class="st24" d="M296,421.7c1.1.5,15,14.8,17.4,17.2s.8,1.7,1.2,2.5c-.2.1.3,2.6-1.2,2.5-2.5-2-3.4-4.3-5.6-6.1-5.1-4.2-14.9-7.1-14.3-16,.8.2,2-.2,2.5,0Z"/>
  <path class="st4" d="M330.9,435.2c.8-.1,1.7,0,2.5,0-3.2,3.2-11.6,15.8-15.6,14.8-2.9-1.2-.6-4.6-.7-4.8s-2.3-.3-3.6-1.3c1.5.2,1-2.3,1.2-2.5.4-.3,6.8-.5,9-1.6s3.4-4.1,7.2-4.6Z"/>
  <path class="st24" d="M409.3,392.1c-.5.7-.7,1.8-1.2,2.5s0,1.8-1.2,3c-3.6,3.4-18.5,11-23.7,8.7,2.8-5,11.6-1.2,12.5-8,1.3-.4,2.8,0,4.6-.9,3.3-1.6,4.7-6,9.1-5.2Z"/>
  <path class="st12" d="M399.4,381.1c.2,1.1-.3,2.4,0,3.6,2.8,0,5.8.3,8.7,0v2.5c-5.3.2-10.1,1.9-15.2,2.9s-4,2.4-3.5-1.6c2.4-1.3,7.2-6.4,8.7-8.6.2.5,1.2,1,1.2,1.2Z"/>
  <path class="st24" d="M344.6,421.7c1.3,7.5-7.5,9.8-11.2,13.5-.8,0-1.7-.1-2.5,0,.4-1.2,3.4-7,3.7-7.4s5-2.6,6.6-3.7.8-2.4.9-2.4c.2-.1,1.9,0,2.5,0Z"/>
  <path class="st26" d="M256.1,403.2c-1.7,4.2-8.2,2.5-11.6,1s-1.9-2.1-2.1-2.2h3.7s0-1.2,0-1.2l-2.5-.8v-1.7c3.9.8,9.3,2.6,12.5,4.9Z"/>
  <path class="st24" d="M237.4,395.8v2.5c.8.1,1.7-.1,2.5,0,1.2.2,2.7-.2,3.7,0v1.7s2.5.8,2.5.8v1.2s-3.7,0-3.7,0c-7.2-2.7-6.2-.3-11.2-6.2l1.2-1.2c2.1.7,3.1.8,5,1.2Z"/>
  <path class="st20" d="M292.2,483.2c5.1-.6,1.3,2.7,1.2,3.7-1.7-.6-1.1-2.4-1.2-3.7Z"/>
  <path class="st20" d="M269.8,457.4l3.7-1.2v2.5c-.6-.2-3.5-1.2-3.7-1.2Z"/>
  <path class="st26" d="M237.4,395.8c.7.2,1.7-.2,2.5,0v2.5c-.8-.1-1.7.1-2.5,0v-2.5Z"/>
  <path class="st24" d="M229.9,393.4c-.5-.3-.8-.9-1.2-1.2l1.2,1.2Z"/>
  <path class="st24" d="M227.4,390.9c-.4-.4-1-.8-1.2-1.2l1.2,1.2Z"/>
  <polygon class="st24" points="413.1 388.4 413.1 387.2 414.3 387.8 413.1 388.4"/>
  <path class="st24" d="M394.4,490.6c0-3.7-3.2-11.8-5-15.4,9.3,3.8,11.3,14.9,12.4,24h-1.2c-.2-.3-4,.8-2.5-4.9h-1.2c-1.5,2.5-.7,6.6-1.3,8.6s-1.9,2.5-2.5,3.7c-11.9-2.2-24.5-1.2-36.6-2.4-2.7,4.2-1.7,4.7-7,6.1-.1-.3-1.9-.8-2.5-1.2,0-.8,0-1.6,0-2.5l1.2-.6-1.2-.6c0-1.2-.1-2.5,0-3.7,10.9-8.1,22.9-3.9,35.6-4.9,5.6-.4,11.8-.1,11.8-6.2Z"/>
  <path class="st27" d="M400.6,502.9c0,.4,0,.8,0,1.2-4.7,10.4-11.8,17.9-22.4,22.2-10.4-1.6-19.2.3-26.2-9.8,3.9-2.6,8.5,2,13,2.5,6.7.8,23.9-2.7,27.4-8.7.8-1.4.3-2.9.6-3.6.5-1.2,2.2-2.6,2.5-3.7,1.7,0,3.3,0,5,0Z"/>
  <path class="st15" d="M390.7,489.3c1.1.2,2.4,1.3,3.7,1.2,0,6.1-6.2,5.8-11.8,6.2-12.6,1-24.6-3.2-35.6,4.9.1-1.6-.2-3.4,0-4.9,2.4.6,2-1.6,3.5-2.4s9-5,9.6-5h19.9c3.3,0,5.8-1,10.6,0Z"/>
  <path class="st10" d="M368.2,482c4.9.6,13.5,2.9,19,4,2.1.4,4,.6,3.4,3.4-4.8-1-7.3,0-10.6,0h-19.9c-.6,0-8.1,4.3-9.6,5s-1.1,3-3.5,2.4c1-6.4,7.3-13.6,13.7-14.8,1.6-.3,5.7-.2,7.5,0Z"/>
  <path class="st29" d="M360.8,482c-6.6-4.4-.5-10.3,5.4-10.8,5.4.9,5.8,7.1,2,10.8-1.8-.2-5.9-.3-7.5,0Z"/>
  <path class="st10" d="M401.9,499.2c0,.4,2,1.9,1.2,3.7-.8,0-1.7,0-2.5,0-.1-1,.2-3.4,0-3.7h1.2Z"/>
  <path class="st12" d="M347.1,506.6c0-.4,0-.8,0-1.2l1.2.6-1.2.6Z"/>
  <path class="st19" d="M293.5,504.1c-1.5-.8-2.1-3.3,0-3.7,0,1.2-.1,2.5,0,3.7Z"/>
  <path class="st15" d="M428,344.1c-.3,1.2.6,3.3-.3,4.6s-8.3,6.6-10.3,8.9c-6.5,7.4-11.5,16-18,23.4,0-.2-1-.8-1.2-1.2.8-1.2,1.2-4.3,2.7-6.5,4.2-5.9,18-25,23.4-27.9.4-.2,3.3-1.1,3.7-1.2Z"/>
  <path class="st3" d="M393.2,506.6c-.3.7.1,2.3-.6,3.6-3.5,6-20.8,9.5-27.4,8.7s-9.1-5.1-13-2.5c-2.3-3.3-1.5-3.9-2.5-6.2,5.3-1.4,4.3-1.9,7-6.1,12.1,1.2,24.7.2,36.6,2.4Z"/>
  <path class="st12" d="M251.1,490.6c6,4.2,16.5,1.3,24.2,2.5,4.3.7,8,5,13.2,3.6,1,6.9,1.4,7.7,0,14.8.7-3.4-3.7-8-6.9-8.6-3.4-.6-25.3-.7-28.6,0s-3,2.1-4.4,3.7c-.8-1.2-2-1.9-2.5-3.7.5-.4.9-.8,1.2-1.2,2.4-3,.9-6.6,1.2-10.3.3-1.5,1.9-.5,2.5-.8Z"/>
  <path class="st14" d="M257.3,514v-4.9s22.4-1.2,22.4-1.2v4.9s8.7-1.2,8.7-1.2c-.3,1.4.2,3.4,0,4.9-.8,0-1.7,0-2.5,0-14.1,1.4-14.2,5.3-28.7-2.5Z"/>
  <path class="st15" d="M287.2,491.8c0,.3,1,1.1,1.2,2.5s-.1,1.7,0,2.5c-5.2,1.4-8.8-2.9-13.2-3.6-7.7-1.2-18.2,1.7-24.2-2.5,9.4-3.7,25.9,0,36.1,1.2Z"/>
  <path class="st20" d="M246.1,500.4c0,.4,0,.8,0,1.2s-.1.9,0,1.2c.5,1.8,1.6,2.5,2.5,3.7s-.3,1.4.4,2.1c1.7,1.9,6,4,8.4,5.3,14.4,7.8,14.6,3.8,28.7,2.5-2.7,4.8-12.3,9-17.4,9.8-1.5.3-6,.3-7.5,0l-1.2-1.2c-6.8-2.1-19.7-10.7-19.9-18.5-.1-3.3,2.5-6.9,6.2-6.2Z"/>
  <path class="st29" d="M307.2,419.2c1.1-.2,2.6.2,3.7,0-.1,1.6,0,3.3,0,4.9s0,1.7,0,2.5-.5-.2,0,1.2c1.2,3.6,3.4,6.7,7.5,7.4-.3.2-.3,4.3-5,3.7-2.5-2.5-16.3-16.7-17.4-17.2,3.9-1.5,2-4.4,2.5-7.4l3.7,5.6c2.7,1.8,3.9-.4,5-.7Z"/>
  <path class="st27" d="M310.9,419.2c.5-5.4,1.8-2.8,3.3-5.9s4.1-9.9,4.8-10.1l6.8,16c.2.7-.2,1.9,0,2.5-.7-.2-2.2.2-2.5,0-2.5-1.8-.7-4.6-6.2-2.5-3.7,1.4-3.4,2.5-6.2,4.9,0-1.6-.1-3.3,0-4.9Z"/>
  <path class="st29" d="M342.1,421.7c-.1,0,.3,1.6-.9,2.4s-6.2,3.4-6.6,3.7c-3.3,1-5.9-1-7.5-3.7s-.9-1.6-1.2-2.5.2-1.7,0-2.5c1.6,0,3.3-.1,5,0s.5,1.5,2.4.7,4.9-4.7,7.6-5.6c.2,2.5.3,5,1.2,7.4Z"/>
  <path class="st24" d="M330.9,415.5c2.1-3.2,6.1-5.5,10-4.9,0,1.2,0,2.5,0,3.7-2.7.9-5.6,4.7-7.6,5.6s-2.1-.7-2.4-.7c0-.8.1-1.7,0-2.5v-1.2Z"/>
  <path class="st24" d="M307.2,419.2c-1.1.2-2.3,2.5-5,.7l-3.7-5.6c.1-.8,0-1.7.6-2.5,2.7-3.4,8.9,4,8.1,7.4Z"/>
  <path class="st29" d="M330.9,416.7c-.1-.9-1,.3,0-1.2v1.2Z"/>
  <path class="st29" d="M243.6,383.5l-1.2-1.2c.4.4.9.8,1.2,1.2Z"/>
  <path class="st29" d="M242.4,381.1l-2.5-2.5c.3.4,1.5,1.2,2.5,2.5Z"/>
  <path class="st29" d="M239.9,377.4c-.4-.4-1-.8-1.2-1.2.5.3,1,.7,1.2,1.2Z"/>
  <path class="st27" d="M223.7,354c-.5-.3-.8-.8-1.2-1.2.4.4,1,.8,1.2,1.2Z"/>
  <path class="st12" d="M223.7,442.6c-8.2,5.6-13.4,8.1-22.4,2.5s-1.3-1.3-2.5-1.2c-.4-.3-.9-.8-1.2-1.2-2.1-2.6-3.9-6-6.2-8.6.4.1.9-.1,1.2,0,5,2,10.5,8.7,13.3,9.6,6.1,1.8,12.1-2,17.8-1Z"/>
  <path class="st4" d="M187.6,382.3c0-1.4-.3-3.6,0-7.4,1.8,2.1,1.8,5.2,0,7.4Z"/>
  <path class="st15" d="M216.2,392.1l8.7,8-8.7,3.7,3.7,5.5c-.2,0-.8,1-1.2,1.2-2-1.2-7.3-.5-7.5-6.2.7-.2,1.5-.8,2.5-1.2,1.8-.7,3.6-1.5,5-3.1-.6-1.8-3.5-1.6-3.7-1.8-1.4-1.3-1-4.5-1.2-6.2.7-.2,2.1.2,2.5,0Z"/>
  <path class="st12" d="M213.7,403.2l1.2-4.9c.2.2,3.1,0,3.7,1.8-1.3,1.5-3.1,2.3-5,3.1Z"/>
  <path class="st9" d="M243.6,478.3c4.2-.5,2.1,1.5,1.9,3.7-.6,7.4-.7,11.1.6,18.4-3.7-.8-6.3,2.8-6.2,6.2h-1.2c-.2-1-2-2.9-2.4-5.6-1.5-11.2,1.5-14.4,7.4-22.7Z"/>
  <path class="st24" d="M261.1,526.3c-1-.2-1.2-1.2-1.2-1.2l1.2,1.2Z"/>
  <path class="st26" d="M236.2,427.8c.3,1,.3,3.8-.3,4.6s-8.4,6.4-9.7,6.4-5.7-1.4-6-1.6c-.7-.5-.1-2-.3-2.1,6.2-.9,9.7-7.6,16.2-7.4Z"/>
  <path class="st15" d="M232.4,477c0-1.2.7-1.7,1.2-2.5.2,1.3-.6,1.7-1.2,2.5Z"/>
  <path class="st10" d="M287.2,491.8c-10.3-1.2-26.7-4.9-36.1-1.2s-2.2-.7-2.5.8c-.3,3.7,1.2,7.3-1.2,10.3h-1.2c0-.4,0-.8,0-1.2-1.3-7.4-1.2-11-.6-18.4s2.3-4.2-1.9-3.7c1-1.5,1.4-3.6,3.1-5s3.9-1.6,5.9-2.5.9-2,1.9-2.3c10.2-3.1,21.9,0,28.2,8.7,3.9,5.4,3.1,8.5,4.5,14.7ZM258.2,472.3c-7.3,2.1-.8,12.1,5.3,9,5.3-2.6,2.1-11.2-5.3-9Z"/>
  <path class="st27" d="M327.1,424.1c1.6,2.7,4.2,4.6,7.5,3.7-.4.4-3.3,6.1-3.7,7.4-3.7.5-4.2,3.3-7.2,4.6s-8.7,1.3-9,1.6c-.4-.7-.7-1.9-1.2-2.5,4.7.6,4.7-3.5,5-3.7,4.5-3.1,10.3-2.3,8.7-11.1Z"/>
  <path class="st3" d="M395.6,502.9c.6-2-.2-6.1,1.3-8.6h1.2c-1.5,5.7,2.3,4.6,2.5,4.9s-.1,2.7,0,3.7c-1.7,0-3.3,0-5,0Z"/>
  <path class="st4" d="M288.5,511.5l-8.7,1.2v-4.9s-22.4,1.2-22.4,1.2v4.9c-2.4-1.3-6.7-3.4-8.4-5.3s-.2-1.8-.4-2.1c1.4-1.6,2-3.2,4.4-3.7,3.3-.7,25.2-.6,28.6,0,3.2.6,7.6,5.2,6.9,8.6Z"/>
  <path class="st9" d="M246.1,502.9c-.1-.4,0-.8,0-1.2h1.2c-.4.5-.8.9-1.2,1.2Z"/>
  <path class="st24" d="M317.1,419.2c-3.1,6.7-5.1,15.7,5.7,11.2l.5-8.7c.3.2,1.8-.2,2.5,0,.4.8.8,1.7,1.2,2.5,1.6,8.8-4.2,8-8.7,11.1-4.1-.7-6.2-3.8-7.5-7.4v-1.2c0-.8,0-1.7,0-2.5,2.9-2.4,2.5-3.5,6.2-4.9Z"/>
  <path class="st27" d="M310.9,427.8c-.5-1.4,0-1,0-1.2v1.2Z"/>
  <path class="st20" d="M323.4,421.7l-.5,8.7c-10.8,4.5-8.8-4.5-5.7-11.2,5.6-2.1,3.7.6,6.2,2.5Z"/>
  <path class="st27" d="M258.2,472.3c7.4-2.2,10.6,6.4,5.3,9-6.1,3.1-12.6-6.9-5.3-9Z"/>
  <path class="st17" d="M184.3,540c4.8,1.1,9.7,1.8,14.5,2.8,2.6,7.6-1.5,5-5.3,9.4-1.7,2-2.3,3.3-1.5,6-.8.2-1.6.8-2.3.9s-1.2-1.6-2.9,1.1-1.8,4.6-1.6,7.5c-1.6,1.4-4.7,1-3.2,5.3l-2.3.9c-8.9-5-16.3-8.7-12.7-20.7,1.7-5.6,5.6-6.6,6.8-9.5s-.8-4.8,1.3-6.5c3.8,2.1,5.8,2.1,9.3,2.9Z"/>
  <path class="st14" d="M195.5,555c-5.6-2.3-12.1-5.1-17.5-8.2-1.3-.7-16.4-8.4-11.9-10.4l5.4,3.5c.3-2.3-2.4-3.9-3.2-5.4-1.3-2.2-2.2-3.7-3.1-6.1s-1.4-10.7-3.8-7.7c-.4-2.4-1.6-5.4-1.7-6.8-.2-1.9,3-4-1-7.3,2.7-4.2,9.6.5,12.9-1.6,3.1,2.6-.4,3-1.1,5-1.1,3.1,1.9,6.9,4.7,10l-.9-2.3c.2-1.1,1.8-.1,2-.2l.6,1.9h1c-1.6,2.4-.2,6.3,3.3,8.5s1.4,1.3,2.3,1.3c.4,1.5,4.9,10.3,6.4,10.8l1.4-4.5c2.2,6,4.4,11.1,8.4,5.7l-2.1-3,7.5-3.2c.7.4,1.1,1.1,1.6,1.7-1.9,2.3-.4,4.6-2.9,7.2s-8.6,8.4-8.3,11Z"/>
  <path class="st14" d="M198.3,482.5c1.7,6.7,4.1,13.7,5.8,20.5-6.5,3.7-6.3-2.2-13.3-7.6-3.2-2.5-4.9-3.3-7.3-2.2-.7-1.1-1.9-2.3-2.4-3.3s1-1.7-2.9-4.1-6-2.5-8.9-2.3c-2.5-2.2-4-6.7-7.6-4.6l-2.4-3.2c0-12.6-.6-23,14.4-17.9s10.5,7.9,14.3,9.7,4.6-1.1,7.8,1.9c0,5.3,1.4,8.2,2.6,13.1Z"/>
  <path class="st23" d="M181.6,447.5c4,5.4,8.3,11.8,11.4,17.6.7,1.4,9.9,17.1,2.9,15.6l-2.5-6.1c-2.7,1.5-1.3,4.5-1.9,6.1-.8,2.5-1.2,4.2-2.7,6.6-.6.9-9.4,8.9-3.5,8.2-2,2-3.8,5.1-5,6.2-1.8,1.6-7.5,1-6.3,6.1-7.3,1.3-10.3-6.7-16.2-7.3-.9-4,3.5-2,6.3-3,4.4-1.6,4.9-6.4,4.9-10.5l-1.3,2.4c-1.4.7-2.2-1.1-2.4-1.2l1.2-1.9-1.2-.6c4.3-.8,6.7-4.7,5-8.6-.3-.8-.2-1.9-1.2-2.5,1.1-1.3,4.9-11,3.7-12.3l-6.2,2.5c3.6-5.9,6.3-11.2-3.7-9.7l-.7,3.6h0c.4-.8.8-2.1.7-3.6-.2-2.7-2.1-3.8-1.9-4.8.2-1.4,4.3-2.7,20.6-2.7Z"/>
  <path class="st21" d="M428.1,316.8"/>
  <path class="st12" d="M134.9,598.6"/>
  <path class="st22" d="M176.9,623.8"/>
</svg>