<?xml version="1.0" encoding="UTF-8"?>
<svg id="Layer_1" xmlns="http://www.w3.org/2000/svg" version="1.1" viewBox="0 0 595.3 841.9">
  <!-- Generator: Adobe Illustrator 29.1.0, SVG Export Plug-In . SVG Version: 2.1.0 Build 142)  -->
  <defs>
    <style>
      .st0 {
        fill: #93aec4;
      }

      .st1 {
        fill: #ab9dcc;
      }

      .st2 {
        fill: #50245c;
      }

      .st3 {
        fill: #8973b4;
      }

      .st4 {
        fill: #adc5d1;
      }

      .st5 {
        fill: #a0d6cb;
      }

      .st6 {
        fill: #cbc3d1;
      }

      .st7 {
        fill: #b6dec5;
      }

      .st8 {
        fill: #bc97c6;
      }

      .st9 {
        fill: #f6e8de;
      }

      .st10 {
        fill: #b4aad4;
      }

      .st11 {
        fill: #331651;
      }

      .st12 {
        fill: #8ebdca;
      }

      .st13 {
        fill: #e2efcd;
      }

      .st14 {
        fill: #471449;
      }

      .st15 {
        fill: #5e4b9f;
      }

      .st16 {
        fill: #412568;
      }

      .st17 {
        fill: #390e42;
      }

      .st18 {
        fill: #7e65ac;
      }

      .st19 {
        fill: #8cb7cc;
      }

      .st20 {
        fill: #a9b5d1;
      }

      .st21 {
        fill: #b1d2c8;
      }

      .st22 {
        fill: #8ebdd0;
      }

      .st23 {
        fill: #a295c7;
      }

      .st24 {
        fill: #f5edca;
      }

      .st25 {
        fill: #bed5c4;
      }

      .st26 {
        fill: #cee7c7;
      }

      .st27 {
        fill: #98d5c5;
      }

      .st28 {
        fill: #b9ccea;
      }

      .st29 {
        fill: #b3dec9;
      }

      .st30 {
        fill: #b7b8d1;
      }

      .st31 {
        fill: #aba3d0;
      }

      .st32 {
        fill: #e4e9c5;
      }

      .st33 {
        fill: #b1b8cc;
      }

      .st34 {
        fill: #b2ddc8;
      }

      .st35 {
        fill: #8a7fbc;
      }

      .st36 {
        fill: #c3e3c7;
      }

      .st37 {
        fill: #b7cbcd;
      }

      .st38 {
        fill: #b3b2d9;
      }

      .st39 {
        fill: #a9a3d0;
      }

      .st40 {
        fill: #97b3cf;
      }

      .st41 {
        fill: #96b9c8;
      }

      .st42 {
        fill: #d7c7c9;
      }

      .st43 {
        fill: #30154e;
      }

      .st44 {
        fill: #ccb9ba;
      }

      .st45 {
        fill: #fbebdc;
      }

      .st46 {
        fill: #c3d2cb;
      }

      .st47 {
        fill: #581d43;
      }

      .st48 {
        fill: #917fb7;
      }

      .st49 {
        fill: #9499cc;
      }

      .st50 {
        fill: #9c92c7;
      }

      .st51 {
        fill: #a8dac9;
      }

      .st52 {
        fill: #d8bad4;
      }

      .st53 {
        fill: #f0ceda;
      }

      .st54 {
        fill: #bbe0c7;
      }

      .st55 {
        fill: #8b9bc1;
      }

      .st56 {
        fill: #9491c6;
      }

      .st57 {
        fill: #acdbc5;
      }

      .st58 {
        fill: #efdac4;
      }

      .st59 {
        fill: #39103e;
      }

      .st60 {
        fill: #856fb2;
      }

      .st61 {
        fill: #b2dbe5;
      }

      .st62 {
        fill: #b5daf4;
      }

      .st63 {
        fill: #a0b3dc;
      }

      .st64 {
        fill: #98cbc5;
      }

      .st65 {
        fill: #aed8e5;
      }

      .st66 {
        fill: #4e194e;
      }

      .st67 {
        fill: #a2d5ca;
      }

      .st68 {
        fill: #fae0c9;
      }

      .st69 {
        fill: #afdcc7;
      }

      .st70 {
        fill: #97afdb;
      }

      .st71 {
        fill: #aabce1;
      }

      .st72 {
        fill: #9db4ce;
      }

      .st73 {
        fill: #90a6ca;
      }

      .st74 {
        fill: #d0b1d0;
      }

      .st75 {
        fill: #8fa7cb;
      }

      .st76 {
        fill: #faf9e5;
      }

      .st77 {
        fill: #693985;
      }

      .st78 {
        fill: #97bdcd;
      }

      .st79 {
        fill: #c9bec9;
      }

      .st80 {
        fill: #8997cc;
      }

      .st81 {
        fill: #979acc;
      }

      .st82 {
        fill: #f7e7d9;
      }

      .st83 {
        fill: #8b93c2;
      }

      .st84 {
        fill: #381144;
      }

      .st85 {
        fill: #411139;
      }

      .st86 {
        fill: #a8bee2;
      }

      .st87 {
        fill: #a5b8df;
      }

      .st88 {
        fill: #a6cbce;
      }

      .st89 {
        fill: #b4dfd2;
      }

      .st90 {
        fill: #bbcdde;
      }

      .st91 {
        fill: #b9c7e7;
      }

      .st92 {
        fill: #a8aad4;
      }

      .st93 {
        fill: #b7b9cb;
      }

      .st94 {
        fill: #c3b1d6;
      }

      .st95 {
        fill: #96a0d1;
      }

      .st96 {
        fill: #541c37;
      }

      .st97 {
        fill: #9ac9c9;
      }

      .st98 {
        fill: #d8eac5;
      }

      .st99 {
        fill: #97adc8;
      }

      .st100 {
        fill: #b7add5;
      }

      .st101 {
        fill: #21144b;
      }

      .st102 {
        fill: #c8b7da;
      }

      .st103 {
        fill: #48163a;
      }

      .st104 {
        fill: #e5efc7;
      }

      .st105 {
        fill: #a1b0da;
      }

      .st106 {
        fill: #b7c8e7;
      }

      .st107 {
        fill: #98a2d2;
      }

      .st108 {
        fill: #cfe7c8;
      }

      .st109 {
        fill: #90c4c6;
      }

      .st110 {
        fill: #684fa1;
      }

      .st111 {
        fill: #95acd2;
      }

      .st112 {
        fill: #9fd7cb;
      }

      .st113 {
        fill: #908ec5;
      }

      .st114 {
        fill: #52223a;
      }

      .st115 {
        fill: #aacad5;
      }

      .st116 {
        fill: #918dc5;
      }

      .st117 {
        fill: #9d9ccd;
      }

      .st118 {
        fill: #89538a;
      }

      .st119 {
        fill: #2c1852;
      }

      .st120 {
        fill: #d2e7c2;
      }

      .st121 {
        fill: #91b5c8;
      }

      .st122 {
        fill: #8b9ac8;
      }

      .st123 {
        fill: #9798cb;
      }

      .st124 {
        fill: #98b9c4;
      }

      .st125 {
        fill: #b1badf;
      }

      .st126 {
        fill: #762e3e;
      }

      .st127 {
        fill: #b6605f;
      }

      .st128 {
        fill: #c1e2c5;
      }

      .st129 {
        fill: #a9a7bd;
      }

      .st130 {
        fill: #bde1c8;
      }

      .st131 {
        fill: #9bd6c7;
      }

      .st132 {
        fill: #8f7ebb;
      }

      .st133 {
        fill: #c9dbc7;
      }

      .st134 {
        fill: #e2cec3;
      }

      .st135 {
        fill: #a4c6c8;
      }

      .st136 {
        fill: #8a3d42;
      }

      .st137 {
        fill: #8daac7;
      }

      .st138 {
        fill: #6c2d55;
      }

      .st139 {
        fill: #98c7ce;
      }

      .st140 {
        fill: #aaa7d3;
      }

      .st141 {
        fill: #8e8dc5;
      }

      .st142 {
        fill: #431640;
      }

      .st143 {
        fill: #d9ebc8;
      }

      .st144 {
        fill: #eec2d3;
      }

      .st145 {
        fill: #eec3d7;
      }

      .st146 {
        fill: #9db1d1;
      }

      .st147 {
        fill: #ddd9c9;
      }

      .st148 {
        fill: #5c3887;
      }

      .st149 {
        fill: #53266b;
      }

      .st150 {
        fill: #dde1c6;
      }

      .st151 {
        fill: #cce6c9;
      }

      .st152 {
        fill: #8a88c2;
      }

      .st153 {
        fill: #abb2cc;
      }

      .st154 {
        fill: #362061;
      }

      .st155 {
        fill: #622e4b;
      }

      .st156 {
        fill: #95bdce;
      }

      .st157 {
        fill: #a3bdcf;
      }

      .st158 {
        fill: #abdbcc;
      }

      .st159 {
        fill: #2d0d39;
      }

      .st160 {
        fill: #c1e2c6;
      }

      .st161 {
        fill: #9dcdcd;
      }

      .st162 {
        fill: #a1d4c9;
      }

      .st163 {
        fill: #b2ddc7;
      }

      .st164 {
        fill: #b1c7cf;
      }

      .st165 {
        fill: #97c9cd;
      }

      .st166 {
        fill: #b0dfdf;
      }

      .st167 {
        fill: #c0acce;
      }

      .st168 {
        fill: #24144c;
      }

      .st169 {
        fill: #380e3c;
      }

      .st170 {
        fill: #af97c7;
      }

      .st171 {
        fill: #cbe6c7;
      }

      .st172 {
        fill: #90a2cc;
      }

      .st173 {
        fill: #fbfcf4;
      }

      .st174 {
        fill: #430e3a;
      }

      .st175 {
        fill: #b9c0e2;
      }

      .st176 {
        fill: #b4dec7;
      }

      .st177 {
        fill: #94a6cf;
      }

      .st178 {
        fill: #f9eedd;
      }

      .st179 {
        fill: #ac5c63;
      }

      .st180 {
        fill: #abdbc8;
      }

      .st181 {
        fill: #9493c8;
      }

      .st182 {
        fill: #521846;
      }

      .st183 {
        fill: #b4ddc6;
      }

      .st184 {
        fill: #99a1d1;
      }

      .st185 {
        fill: #cde0ca;
      }

      .st186 {
        fill: #aedcca;
      }

      .st187 {
        fill: #9f96c9;
      }

      .st188 {
        fill: #edd4c8;
      }

      .st189 {
        fill: #f5d8d3;
      }

      .st190 {
        fill: #d8b3d4;
      }

      .st191 {
        fill: #dda29b;
      }

      .st192 {
        fill: #542e7c;
      }
    </style>
  </defs>
  <path class="st59" d="M126.1,481.7c10.4,14.9,28.4,27.4,44.4,35.7l10.6,7.2v2.6s-3.5,2.7-3.5,2.7c-4.4-.5-7.1,1.4-8.9,5.4-2,.2-3.6.9-5.3,1.8-6.5,3.3-13.2,11.1-16,17.8-2.7,6.5-6.2,20-5.3,26.8v3.6s-3.5,0-3.5,0c-.1-26.5,6.3-41,26.6-58-18.6-13.2-30.8-25.7-44.3-43.7,1.3-3.3,2.6-4.2,5.3-1.8Z"/>
  <path class="st169" d="M481,508.4v1.8c-2.5,1.4-3.7,5.8-5.3,7.1-4.5,3.7-23.4,10.6-24.6,15.5-1.4,5.7,7.2,13.4,9.7,18.2,1.7,3.3,2.9,7.3,4.3,10.8-.9,4.7,4.2,11.1,0,14.3-1.3-4.2-3.5-6.4-5.3-10.7-1.4-3.4-1.7-8.5-4-12.9-10.2-19.7-22-14.2,3.4-31.4,5.7-3.8,17-8.5,21.9-12.8Z"/>
  <g>
    <path class="st17" d="M106.6,658.2c-1,.6-5.2,2.6-7.1,3.6-4.6,2.4-9.6,3.2-14.1,6.4-13.2,9.4-11.8,21.1,3.4,25.7.8.3,1.8,1.6,3.5,1.8,3.5,2.7,12.9,2.5,16.9,1.8,5.7-1,2.6-8,7.9-3.6,3.9,5.7,6.6,6.3,12.4,8.9,11.7,5.3,37.6,8,50.6,7.1,8.1-.5,14.8-4.2,23-3.6,8.3.6,27.2,6.9,38.2,9s25.2,4.8,39,5.4c1.8,3,6.7,1.8,9.7,1.8,24.1.3,48.5-1,71.9-7.2-5.3,5.1-14.4,5.3-21.3,5.4l10.6,1.8c-4.9,1-12,2.4-16,5.4-4.7.2-9.5,0-14.2,0-18.2.2-37.8,0-55.9-1.8-20.2-2.1-44.4-11.3-62.2-12.5s-23.6,2.3-35.5,1.9c-22.3-.8-36.9-7-57.5-11.7-10.9-2.5-28.7-1.7-37.3-8-13.1-9.5.4-24.4,8.9-32.1,8-2.7,15.4-6.4,23.1-8.9,1.8-.6,3.6-.8,5.3-1.8.7,3.4-1.2,3.8-3.5,5.4Z"/>
    <path class="st96" d="M143.9,604.7c-.7,1-1.1,2.8-1.8,3.6-5.2,5.2-14,10.1-16,17.8-4.9,5.1-8.3,9.2-10.6,16.1-.6,1.7-1.8,3.2-1.8,5.4v3.6c-3.6,4.9-3.6,12-3.6,17.8l-3.5-10.7c2.3-1.5,4.3-2,3.5-5.4-1.7.9-3.5,1.2-5.3,1.8,5.4-13.1,20-44.7,33.7-49.9.2,0,5.1,0,5.3,0Z"/>
    <path class="st84" d="M159.8,613.7c-7,4.8-10-6.7-16-8.9s-5.1,0-5.3,0c3-6.7,0-12.5,0-19.6h3.5s0-3.6,0-3.6c1.5,11.4,10.3,23.8,17.7,32.1Z"/>
    <path class="st140" d="M491.7,692.1v1.8c-17.4,16.3-50.7,19.3-73.7,17.9-8.7-.5-24.2-5.8-30.1-5.6s-18.7,7.2-25.8,9.1c-23.4,6.2-47.8,7.4-71.9,7.2-3,0-7.9,1.1-9.7-1.8,21.7.9,46.3,0,67.5-4.4s13.4-2.1,15.9-6.3c-9-3.9-11.6,1.9-17.3,3.1-55.8,12-87.4-9.4-138.9-10.3-3.9,0-10,1.3-12.4-1.8,5.9,0,5.5-3.4,6.5-3.6,5.3-1.1,19.1,2.9,24.4,3.7,31.4,4.6,63.4,13,96,10.7,22.5-1.6,54.4-17.8,76-10.6,1.5.5,1.1,3.3,2.2,3.4,1.9.1,6.4-2.1,10.4-1.9,29.5.9,37,2.7,65.3-8.9,2.1-.8,1.1-3.4,1.3-3.5,1.8-.9,7-1.3,9.5-3.4l4.7,5.2Z"/>
    <path class="st159" d="M498.8,640.4c.3.7-.4,2.6,0,4.1s7.4,9.9,7.9,10.3c1.4,1.2,17.3,6.9,20.5,8.8,2.1,5,5.7,9.9,8.9,14.3,0,1.2-.1,2.4,0,3.6-5.4,23.7-29.4,19.3-46.6,23.6-23.9,5.9-36,13.7-64.2,14-13.1,0-28.7-4.2-40.8-3.7-6.8.3-24.4,5.4-32.9,7.2l-10.6-1.8c6.9,0,16-.3,21.3-5.4,7.1-1.9,19.6-8.8,25.8-9.1s21.4,5,30.1,5.6c23,1.4,56.3-1.6,73.7-17.9,4.1-1.5,3.6,4.1,6.4,5.1,4.7,1.7,7.1-1.4,7.8-1.6,8.1-1.3,21.2-3.6,23-13.4s-8.2-14.8-17.7-18.7c-6.1-2.5-10.9-.8-14.2-7.1-.6-4.3-1.6-8.1-1.8-12.5,0-2.4,0-4.8,0-7.1l3.5,1.8Z"/>
    <path class="st100" d="M207.7,702.8c51.4.9,83.1,22.3,138.9,10.3,5.7-1.2,8.3-7,17.3-3.1-2.5,4.2-11.2,5.4-15.9,6.3-21.3,4.3-45.9,5.3-67.5,4.4-13.8-.6-25.5-2.8-39-5.4-9.8-2.1-24.7-9.4-33.7-10.7v-1.8Z"/>
    <path class="st39" d="M127.9,693.9c5.6,3.7,20.4,8.6,27.7,8.7,10.5.2,22.5-4.7,33.6,1.6,4.3-8,3.5-3.2,6.1-3.2,2.4,3.1,8.5,1.7,12.4,1.8v1.8c-6.3-.9-11.7,1.8-15.1,1.8h-46.1c-3.5,0-11.9-4.9-16.9-3.6-5.8-2.7-8.5-3.2-12.4-8.9-.2-.3-3.4-6.6-3.5-7.1,6.3-.7,9.6,4.1,14.2,7.1Z"/>
    <path class="st23" d="M103,667.2l1.8,12.5-5.3-1.8v7.1s12.2,2,12.2,2c3.3,11.2-11.6,9.7-19.3,8.8s-2.7-1.5-3.5-1.8c8.5.2-2.3-3.8-3.3-6.5s-.9-6.5,0-7.5c7.3-1.3,13.5-6.6,17.5-12.7Z"/>
    <path class="st8" d="M104.8,663.6c-.7,1.1-1.1,2.5-1.8,3.6-4,6.1-10.1,11.4-17.5,12.7-.9,1-.5,5.9,0,7.5,1,2.7,11.7,6.7,3.3,6.5-15.2-4.7-16.6-16.3-3.4-25.7,4.5-3.2,9.5-4,14.1-6.4,2.5-.3,3.6-.1,5.3,1.8Z"/>
    <path class="st3" d="M104.8,663.6c3.1,3.4,2.8,11.5,3.6,16l5.3-14.3c0,2.9-1.1,7.4,1.8,8.9-.3.3-.2,3.8-3.6,4.7.3,2.6,1,5.3,1.8,7.8s3.3,6.8,3.5,7.1c-5.4-4.4-2.2,2.6-7.9,3.6-4.1.7-13.4.9-16.9-1.8,7.7,1,22.7,2.4,19.3-8.8l-12.2-2v-7.1s5.3,1.8,5.3,1.8l-1.8-12.5c.7-1.1,1.1-2.4,1.8-3.6Z"/>
    <path class="st81" d="M207.7,704.6c9,1.3,23.9,8.6,33.7,10.7-11-2.1-29.9-8.4-38.2-9-8.2-.6-14.9,3-23,3.6-13,.9-38.9-1.7-50.6-7.1,5-1.3,13.4,3.6,16.9,3.6h46.1c3.4,0,8.8-2.7,15.1-1.8Z"/>
    <path class="st118" d="M113.7,665.4l-5.3,14.3c-.7-4.5-.5-12.7-3.6-16-1.8-1.9-2.8-2.1-5.3-1.8,1.9-1,6.1-2.9,7.1-3.6l3.5,10.7c0-5.8,0-12.9,3.6-17.8,0,4.7,0,9.5,0,14.3Z"/>
    <path class="st113" d="M179.4,520.9c2.1.9,3.8,2.3,7.1,3.6,5.6,2.2,5.8,2.7,12.4,3.6,1.7,4.4,7,4.1,10.6,5.4,17.1,5.8,35.7,12.3,53.6,18.3,5.4,1.8,10.9-.4,15.6,5.7-1.6,1.7-3.8,2.7-5.3,4.5-14.7,2.3-31,6.3-37.3,21.4v-5.3c-.7-1.4-6.9,10-8.9,12.5.2-3,.8-6.1,1.8-8.9s3.7-4.3,3.4-8.1-3.3-5.1-4.4-7.9-.5-6.1-1.8-8.9c-2.6-5.7-16.6-13.3-22.1-16.1-6.3-3.3-19.9-9.9-26.6-10.7l3.5-2.7v-2.6s-10.6-7.2-10.6-7.2c2.1,1.1,6.1,2.4,8.9,3.6Z"/>
    <path class="st9" d="M163.4,537c1.5,4,7.3-.8,8.6.2,4.6,3.3,3.2,10.7.3,15-6.7,9.9-14.3,14.5-21.3,27.6s-1.3,5.6-3.5,5.3v-30.3c2.7-6.7,9.5-14.6,16-17.8Z"/>
    <path class="st102" d="M147.4,554.8v30.3c2.3.3,2.4-3.3,3.5-5.3h3.5c-2.1,5.6-.2,10.1,1.8,16.1,1.9,5.6,9.9,13.5,3.5,17.8-7.5-8.3-16.3-20.7-17.7-32.1-.9-6.8,2.7-20.3,5.3-26.8Z"/>
    <path class="st44" d="M168.7,535.2c8.2-.8,6.2,2.3,7.5,3s2.4-1.1,2.8-.8c1.3,1.1,3.3,6.4,3.9,8.5-2.9,1.3-10.6,15.9-10.6,19.6-4.4.4-7.3,2.7-10.6,5.4-3.8,3-5.3,4.1-7.1,8.9h-3.5c7-13.2,14.6-17.7,21.3-27.6s4.4-11.7-.3-15-7.1,3.8-8.6-.2c1.7-.9,3.4-1.6,5.3-1.8Z"/>
    <path class="st129" d="M177.6,529.8c6.7.8,20.3,7.4,26.6,10.7,0,2.6-1,4.6-3.5,5.4-3.1-.6-10.8-.3-14.2,0s-2.9-.3-3.5,0c-.6-2.1-2.6-7.5-3.9-8.5s-2,1.2-2.8.8c-1.3-.7.6-3.8-7.5-3,1.8-3.9,4.5-5.9,8.9-5.4Z"/>
    <path class="st170" d="M152.7,617.2c-5.2,4.4-2.3,11.1-4.5,16s-15.9,14.5-20.4,20.6c-3.1,4.2-6.5,11.9-8.9,16.9-1.3,1-2.4,2.4-3.5,3.6-2.8-1.5-1.7-6.1-1.8-8.9,0-4.7,0-9.5,0-14.3v-3.6c0,.2,1.7,2,1.8,4.3.3,4.5-.3,9,0,13.5,5.4-2.9,8.6-10,8.9-16.1,5.5-11.5,23.1-20.5,21.3-34.8s.4-3.9-2.7-2.7-14.4,11.6-16.9,14.2c2-7.7,10.8-12.6,16-17.8,4.7.5,8.3,5.1,10.6,8.9Z"/>
    <path class="st53" d="M126.1,626.1c2.5-2.7,14.4-13.3,16.9-14.2s2.5.8,2.7,2.7c1.7,14.3-15.8,23.3-21.3,34.8l-7.1,8.9-1.8-16c2.4-6.8,5.8-10.9,10.6-16.1Z"/>
    <path class="st48" d="M159.8,613.7c1.2,1.4,2.6,2.5,3.5,3.6s-.9,2.3,1.2,3.6,8.1,1.3,11.2,1.8,2,1.8,4.4,1.9c6.2.5,13.3-2.9,20.5-.2-.6.3-1.1,1.4-1.8,1.8-8.1-.3-16.3,4.9-24.1,5.2-3.6.1-7.2-1.7-11.3-1.6l-8.1-3.5c.6-5.4-.3-5.4-2.5-9s-5.9-8.4-10.6-8.9c.7-.7,1.1-2.6,1.8-3.6,6,2.2,9,13.7,16,8.9Z"/>
    <path class="st74" d="M115.5,642.2l1.8,16,7.1-8.9c-.2,6-3.5,13.1-8.9,16.1-.2-4.5.3-9,0-13.5s-1.8-4.1-1.8-4.3c0-2.1,1.2-3.6,1.8-5.4Z"/>
    <path class="st81" d="M252.1,690.3c15,4,62.6,4.8,78.5,3.1,4.6-.5,47-12.5,49.2-13.8,11.7,1.8,20.9-1.3,31.5-3.2,7.5-1.3,10.7.5,18.2-4,2.5,3.4,8.5,1.4,12.4,1.8-3.6,4.4-9,7.4-14.4,9.8-2.7,1.2-5.2-.5-7,.2-4,1.5-5.9,7.7-14.2,5.1l-.9,4.6c4.2,7.5,33.2,8.6,40.5,7,1.5-.3,1.8-4.6,4.6-4.5l26.8-6.1c-.2,0,.8,2.7-1.3,3.5-28.3,11.5-35.8,9.8-65.3,8.9-4.1-.1-8.6,2.1-10.4,1.9s-.7-2.9-2.2-3.4c-21.6-7.2-53.4,9-76,10.6-32.6,2.3-64.6-6.1-96-10.7-5.3-.8-19.1-4.8-24.4-3.7-1,.2-.6,3.5-6.5,3.6s-1.8-4.8-6.1,3.2c-11.1-6.3-23.2-1.4-33.6-1.6-7.3-.2-22.1-5-27.7-8.7,7.9-2.1,15.9,4.9,22.2,5.5s19.9.2,23.1,0c7.5-.7,11.4-7.5,20.4-3.7,1.3-10.7-9-6.6-13-7.7-3.1-.8-4.3-5-7.8-6.2-4.4-1.5-12.5-.5-17-3.9-3.4-2.5-5-14.4-11.9-16.2-.5-4.3,1.5-7.3,5.3-8.9,2.2,20.9,30.2,23.7,46.8,24.8s24.5.6,33.5,2.4c6.7,1.4,14.2,8.1,22.6,10.3Z"/>
    <path class="st56" d="M472.2,636.8h-14.1c-3.9,6.6,1.4,13.8,1.3,16.6s-3.4,5.9-2.9,10.6,6.6,19.3,7.7,20.8c6.6,9.1,18-1.5,27-3,3.4-.6,6.6-2.2,5.7,3.1-1.3,3.1-1.2,5.8-5.3,7.1l-4.7-5.2c-2.5,2.1-7.7,2.5-9.5,3.4l-26.8,6.1c-2.8,0-3.1,4.2-4.6,4.5-7.3,1.6-36.3.5-40.5-7l.9-4.6c8.2,2.6,10.1-3.6,14.2-5.1s4.3,1,7-.2c5.4-2.4,10.8-5.4,14.4-9.8,8.2-10.2,12.3-21.7,13.6-34.8.4-4.2-2-9.3-1.1-13.3s6-5.4,6.9-8.4-2.3-8.7-1.5-13c6,8.9,7.2,21.6,12.4,32.1Z"/>
    <path class="st18" d="M511.2,665.4c-7.7.1-5,8.4-5.4,13.3l5.2,1.2.3,6.9c-12-3.1-6.8,5.6-14.2,7.2l8.9,3.5c-.7.1-3,3.2-7.8,1.6s-2.3-6.6-6.4-5.1v-1.8c4.2-1.4,4-4,5.3-7.1,3.5-8.4,2.6-8.4,1.8-16.1s-1.3-7.1-1.8-10.7c3.3,6.3,8.1,4.6,14.2,7.1Z"/>
    <path class="st50" d="M447.3,549.4c4.7,5.6,7.8,8.3,10.6,16.1,7.1,19.1,4,44.9,23.1,57.1,4.8,7.7,10.9,14.1,14.2,23.2.1,4.4,1.2,8.2,1.8,12.5.5,3.6,1.4,7.1,1.8,10.7-2.6,4.8-1.1-2-2.1-3.1-.9-.9-4.5-.9-6.8-3-13.8-12.4-8.3-14.5-14.1-24.7-1.1-1.9-3.5-1.1-3.5-1.3-5.2-10.6-6.4-23.2-12.4-32.1-2.7-4-2.9-8.7-7.1-5.3v-12.5c-5.1-1.3-5.1,5.5-5.3,8.9-.4.7-1.5,1.2-1.8,1.8v-8.9c-2-.3-3.9.5-5.3,1.8v-3.6c3.2-3.2,5-7.3,8.1-10.5-1.8-4.9.6-11.5.3-15.1-.1-1.3-10.8-16.9-1.3-11.8Z"/>
    <path class="st132" d="M511.2,665.4c9.5,3.9,20.3,5.4,17.7,18.7s-15,12.1-23,13.4l-8.9-3.5c7.4-1.6,2.2-10.2,14.2-7.2l-.3-6.9-5.2-1.2c.4-4.9-2.2-13.2,5.4-13.3Z"/>
    <path class="st174" d="M479.3,610.1c8,12.9,11.7,11.6,19.5,30.3l-3.5-1.8c0,2.4,0,4.8,0,7.1-3.3-9.1-9.4-15.5-14.2-23.2s-4.9-7.1-7.1-10.7l5.3-1.8Z"/>
    <path class="st181" d="M143.9,661.8c6.9,1.7,8.4,13.7,11.9,16.2,4.5,3.3,12.6,2.3,17,3.9,3.5,1.2,4.6,5.4,7.8,6.2,4,1.1,14.4-3,13,7.7-9-3.9-12.9,2.9-20.4,3.7-3.2.3-19.9.4-23.1,0-6.2-.6-14.3-7.6-22.2-5.5-4.6-3.1-7.9-7.8-14.2-7.1-.9-2.5-1.5-5.1-1.8-7.8,3.4-.9,3.3-4.4,3.6-4.7,1.1-1.2,2.3-2.5,3.5-3.6,7.2-5.7,15.9-7.6,24.8-8.9Z"/>
    <path class="st0" d="M273.4,561.9c-.7.9-1.1,2.5-1.8,3.6-10.5,1.7-24.8,8.9-32,16.9-5.3,6-2.8,8.8,1.8,14.3.8,1,9.1,9.5,9.6,9.9,6.7,4.8,22.8,2,20.5,16h-17.8c-1.7-.2-3.6.2-5.3,0-9.2-3.5-22.3-4.8-31.9-3.6,4.6-4.7,20.9,1,24.1-3.4,5.1-7.1-5.8-10-7.4-13.4s.4-10.8,1.1-13.5c.7-2.6.8-2.9,1.8-5.4,6.3-15.1,22.5-19.1,37.3-21.4Z"/>
    <path class="st137" d="M229,581.5c-1.5,1.9-3.4,0-3.5,0,1.4-14.9-4.8-25.8-17.7-32.1-1.6-.8-6.7-3.5-7.1-3.6,2.5-.8,3.5-2.7,3.5-5.4,5.5,2.9,19.5,10.4,22.1,16.1s.8,6.1,1.8,8.9,4.2,4.9,4.4,7.9-2.6,5.8-3.4,8.1Z"/>
    <path class="st70" d="M225.5,581.5c.2,0,2,1.9,3.5,0-1,2.8-1.6,5.9-1.8,8.9-2.8,3.5-4.4,4.5-7.1,7.1,1.2-8.4-9.3,1.4-14.2,3.6.7-2.3,1-4.8,1.8-7.1.3-.9,1.9-2.1,1.8-3.6,10.4-2.2,9.8-7.3,16-8.9Z"/>
    <path class="st110" d="M236.1,583.3c-1,2.4-1.1,2.7-1.8,5.4-2.7,3.2-5,7.1-7.1,10.7-1.1.7-2.5,1.1-3.5,1.8l-5.3-1.8c.6-.5,1.2-1.2,1.8-1.8,2.7-2.7,4.3-3.6,7.1-7.1,1.9-2.5,8.1-13.8,8.9-12.5v5.3Z"/>
    <path class="st175" d="M206,601.2c4.9-2.2,15.4-12,14.2-3.6-.6.6-1.2,1.2-1.8,1.8-17.4,15.4-31.1,20.3-55,17.8-1-1.1-2.3-2.2-3.5-3.6,6.4-4.3-1.7-12.3-3.5-17.8,5.8,6.2,8.8,6.6,16,8.9,14.1,4.6,20.4,2.3,33.7-3.6Z"/>
    <path class="st1" d="M172.3,581.5l1.8,5.4c-4.8-.8-11,.5-16,0-.5,9.8,7.8,13.1,14.2,17.8-7.2-2.3-10.1-2.7-16-8.9-2-6-3.9-10.5-1.8-16.1,1.8-4.9,3.3-5.9,7.1-8.9,4.5,3.1,5.4,7.9,10.6,10.7Z"/>
    <path class="st33" d="M172.3,565.5c-.2,6.3,6.4,10.8,10.6,14.3s2.4,2.3,3.5,3.6c-4.4-.4-8.4,1.3-14.2-1.8s-6.2-7.6-10.6-10.7c3.3-2.6,6.2-5,10.6-5.4Z"/>
    <path class="st25" d="M186.5,545.9c.7,1.7,2.2,1.4,3.5,1.8v3.6c-2.7,0-4.5.9-5.3,3.6-.9.3-2.8,1.2-3.5,1.8-6.8,4.9-2.2,6.1-1.8,10.7s-2,1.6-.6,4.8,5.8,3.6,6,7.7h-1.8c-4.2-3.5-10.8-7.9-10.6-14.3s7.7-18.3,10.6-19.6,2.4.1,3.5,0Z"/>
    <path class="st27" d="M200.7,545.9c.4,0,5.5,2.8,7.1,3.6,14.9,17.3,10.1,35.6-14.2,35.7-2,0-4.8-1.6-7.1-1.8-1.1-1.2-2.3-2.5-3.5-3.6h1.8c32,4.8,35.2-24,5.3-32.1s-2.9,0-3.5-1.8c3.4-.3,11.1-.6,14.2,0Z"/>
    <path class="st187" d="M163.4,629.7c-5.5,0-9.1,1.4-13.9,3.9-.8,1.3-.6,16.3-.3,19.3-3.9,1.6-5.8,4.7-5.3,8.9-8.9,1.4-17.6,3.2-24.8,8.9,2.4-5,5.8-12.7,8.9-16.9,4.4-6.1,18.8-16.9,20.4-20.6s-.7-11.6,4.5-16c2.2,3.6,3.1,3.6,2.5,9l8.1,3.5Z"/>
    <path class="st73" d="M198.9,626.1c-1,.6-4.7,3-5.3,3.6-5.8.2-11.1,3.1-16.9,3.5-4.4.3-15.3-1.7-16.8-1-8.5,4.1-1.8,23,6.6,25.6s24,4.4,34.2,5.7c15.9,10.2,38.1,13.4,51.5,26.8-8.4-2.2-15.9-8.9-22.6-10.3-9-1.8-24.6-1.8-33.5-2.4-16.6-1-44.7-3.9-46.8-24.8-.3-3.1-.5-18,.3-19.3,4.8-2.4,8.4-3.8,13.9-3.9,4.2,0,7.7,1.7,11.3,1.6,7.9-.3,16.1-5.4,24.1-5.2Z"/>
    <path class="st109" d="M248.6,622.6c-2.9-.2-11.8-1.3-13.4-1s-11.9,7.3-12.5,8c-6.2,7.4-1.4,11.9,1.1,18s-.2,2.5,0,3.6c-1.4,0-6.1,3-8.9,1.8-5.4-4.1-24.2-8.9-26.2-11.1-4.8-5.5,1.4-9,4.9-12.1s4.4-3,5.3-3.6,1.2-1.5,1.8-1.8c1.1-.5,2.7-1.4,3.5-1.8s11.6-3.5,12.4-3.6c9.6-1.2,22.8.1,31.9,3.6Z"/>
    <path class="st148" d="M223.7,601.2c-4.4,3-7.6,7.2-12.2,10.1-10.3,6.4-23.5,11.1-35.8,11.3-3.1-.4-8.6-.3-11.2-1.8s-1-3.3-1.2-3.6c24,2.5,37.6-2.5,55-17.8l5.3,1.8Z"/>
    <path class="st60" d="M204.2,622.6c-.9.4-2.5,1.2-3.5,1.8-7.2-2.7-14.3.7-20.5.2s-3.9-1.9-4.4-1.9c12.2-.2,25.5-4.9,35.8-11.3,4.6-2.9,7.7-7.1,12.2-10.1s2.4-1.1,3.5-1.8c-7.3,12.9-8.6,16.5-23.1,23.2Z"/>
    <path class="st141" d="M436.7,528c-.4.3-1.5,2.2-2.9,3.4-2.8,2.2-7.4.4-6,5.5,6.5,0,13,3.9,17.7,8.2s1.4,3.8,1.8,4.3c-9.4-5.1,1.2,10.5,1.3,11.8.4,3.6-2.1,10.2-.3,15.1-3.1,3.2-4.9,7.4-8.1,10.5s-4.7,3-6.2,5.3c-7.3-4.8-2.1-12.4-2.6-20.6-.7-12.4-9.8-19.8-19.6-25.8-2.9-9.1-.7-7.9,7.1-12.5.9-.5,2.6-1.4,3.5-1.8,4.6-2,9-4,14.2-3.6Z"/>
    <path class="st149" d="M465.1,576.2c3.6,11.4,3.6,27.1,8.9,35.7,2.2,3.6,4.7,6.9,7.1,10.7-19-12.1-16-38-23.1-57.1h1.8c1.8,4.3,4,6.5,5.3,10.7Z"/>
    <path class="st182" d="M479.3,610.1l-5.3,1.8c-5.3-8.6-5.2-24.2-8.9-35.7,4.2-3.2-.9-9.6,0-14.3,4.6,11.7,9.3,40.3,14.2,48.2Z"/>
    <path class="st111" d="M236.1,670.7c35.1,9.3,82.3,16.3,115.8,6.8,11.2-3.2,20.3-8.8,33.2-10.3,4.5-.5,9.7.5,14.2,0-3.5,4.3-10.5,5.3-15.9,8.2s-3.2,4-3.7,4.3c-2.2,1.3-44.6,13.3-49.2,13.8-16,1.7-63.5.9-78.5-3.1-13.4-13.3-35.5-16.5-51.5-26.8,13.7,1.8,22.7,3.7,35.5,7.1Z"/>
    <path class="st75" d="M429.6,672.5c-7.5,4.5-10.8,2.7-18.2,4-10.5,1.9-19.8,5-31.5,3.2.5-.3,1.4-3,3.7-4.3,5.4-3,12.3-3.9,15.9-8.2,10.9-1.1,33-3.3,32.1-18.7-.5-8.2-6.1-9.3-12.6-9.8,3.9-6.1,17.7-1.2,21.2,2.8,7.7,8.7-2,26-10.5,31.1Z"/>
    <path class="st122" d="M454.4,626.1c-.9,4.1,1.6,9.1,1.1,13.3-1.3,13.1-5.4,24.6-13.6,34.8-3.9-.4-9.9,1.6-12.4-1.8,8.5-5.1,18.2-22.4,10.5-31.1-3.5-3.9-17.2-8.9-21.2-2.8-9.8-.8-18.1.7-28.4-1.8-1.8-.4-2.6-1.4-3.5-1.8,15.5,2.7,26.1,1.6,40.8-3.6,5.7-2,9.3-6,12-6.8s10.9.9,14.6,1.5Z"/>
    <path class="st152" d="M472.2,636.8c0,.2,2.4-.7,3.5,1.3,5.8,10.2.3,12.3,14.1,24.7,2.3,2.1,6,2.1,6.8,3,1,1.1-.5,8,2.1,3.1.9,7.6,1.7,7.7-1.8,16.1.9-5.4-2.3-3.7-5.7-3.1-9,1.5-20.4,12.2-27,3-1.1-1.6-7.5-18.9-7.7-20.8-.6-4.7,2.8-7.6,2.9-10.6s-5.3-10-1.3-16.5h14.1Z"/>
    <path class="st152" d="M447.3,595.8c.3-3.4.2-10.3,5.3-8.9v12.5c4.2-3.4,4.4,1.3,7.1,5.3-.7,4.3,2.6,9,1.5,13s-6.2,5.4-6.9,8.4c-3.7-.6-11.3-2.5-14.6-1.5s-6.3,4.8-12,6.8l1.8-3.5-10.6,1.7v-1.7s3.5-1.8,3.5-1.8c4.7-1.7,10.3-5.6,14.2-8.9,4.4-3.8,12-12.8,12.3-18.7s-1.6-2.5-1.6-2.7Z"/>
    <path class="st80" d="M440.2,586.9v3.6c-3.9,3.3-7.4,11.4-13.3,16.1-16.8,13.2-28.7,9.1-47,1.8-.4-.2-.9-1.3-1.8-1.8-1.3-1.5-2.2-4-3.5-5.4,3.7-7.4,12.6-1.6,18.5-1.7,10.2-.2,15.6-2.3,22.3-9,1.2-1.2,2.5-3.7,3.5-5.4s3.3-1.3,4.9-4.9c7.8-17.4-5.9-20.9-12-32.6-.2-.4.2-1.2,0-1.8,9.8,6,18.9,13.4,19.6,25.8.5,8.1-4.7,15.7,2.6,20.6,1.5-2.3,4.5-3.7,6.2-5.3Z"/>
    <path class="st71" d="M440.2,590.5c1.4-1.2,3.3-2.1,5.3-1.8v8.9c-2,4-2.2,8.9-7.1,10.7,1.5-2.5,3.5-7.6,3.5-10.7-4.2,2-7.3,5.9-7.2,10.7l-3.1-1.3c-12.3,11.8-32.2,13.5-47.8,5.3s-3.5-3.7-4-3.9c18.3,7.4,30.2,11.4,47-1.8,6-4.7,9.4-12.7,13.3-16.1Z"/>
    <path class="st15" d="M436.7,617.2l-3.5-3.6c1.9-1.7,3.9-3.1,5.3-5.4,4.9-1.8,5.1-6.7,7.1-10.7.3-.6,1.4-1.1,1.8-1.8,0,.2,1.7,1.3,1.6,2.7-.2,5.9-7.9,14.9-12.3,18.7Z"/>
    <path class="st99" d="M312.5,560.1c3.3,0,8.7-1.2,10.6,1.8-12.9-1.9-24.2,2-36.4,3.5-4.8.6-10.5-.7-15.1,0,.7-1,1-2.7,1.8-3.6,13.5-2.1,25.4-2,39-1.8Z"/>
    <path class="st41" d="M323.1,561.9v1.8c-7.9-.3-13.6,0-21.3,1.8s-4.4.6-8.9,3.6c-12.3-1.8-26.3-.8-35.6,8.3,2.3,4.9,1,11,2,15.4.3,1.2,2.9,1.8,4.1,3.5,1.2,1.6,2.5,5.9,3.3,6.4,1.9,1.1,6.8,0,10.3,1.2,5.2,1.7,12,7.4,15.1,8,6.8,1.3,35.7-.7,41.6-4.5,3.4-2.2,7.1-10.2,12.2-12.7-.1-5.9,2.2-16-1.5-20.2s-14.6-5-14.2-10.7c5.8,1.1,12.8,5.6,17.7,8.9.5,7.6.6,12.1,1.8,19.6.2,1.2,1.4,3.3,1.8,5.4,1.1,5.6,1.4,11.8,2.1,17.5,5.9,1.9,10.6,5.8,15.7,9.2-1.1-.2-2.6.3-3.5,0-15.3-3.9-34.1-1.3-49.7,1.8-9.6-1-19.9,4-29.2,3.6-9.3-.4-23.4-6.1-32.9-7.2h17.8c2.2-14-13.9-11.2-20.5-16s-8.8-8.9-9.6-9.9c-4.6-5.5-7.1-8.3-1.8-14.3,7.2-8.1,21.4-15.2,32-16.9s10.2.6,15.1,0c12.2-1.6,23.5-5.4,36.4-3.5Z"/>
    <path class="st64" d="M248.6,622.6c1.7.1,3.6-.2,5.3,0,9.5,1.1,23.6,6.8,32.9,7.2,9.3.4,19.6-4.7,29.2-3.6-2,.4-6.9,2.3-8.9,3.6-.6,0-1.2,0-1.8,0-9.4,1.2-22.1,7.9-30.9,7.1-8.3-.8-17.8-14-30-10.4-5.6,1.7-12,17-8.4,22.9-.2,0-1.2,1.7-3.5,1.1-2.7-.7-4.8-4.4-8-4.7l-.9,1.8c-2.5-6.1-7.2-10.7-1.1-18,.6-.7,11.8-7.9,12.5-8,1.5-.2,10.5.8,13.4,1Z"/>
    <path class="st55" d="M216.6,619c-.9.1-11.4,3.1-12.4,3.6,14.5-6.7,15.8-10.3,23.1-23.2s4.4-7.5,7.1-10.7c-.7,2.7-2.1,11.3-1.1,13.5,1.6,3.4,12.5,6.3,7.4,13.4-3.2,4.5-19.5-1.3-24.1,3.4Z"/>
    <path class="st12" d="M225.5,581.5c-6.2,1.6-5.5,6.7-16,8.9-5.9,1.2-15.7,2-16-5.4,24.3,0,29.1-18.4,14.2-35.7,13,6.3,19.2,17.2,17.7,32.1Z"/>
    <path class="st123" d="M174,586.9c5.2.8,8,5.3,13.5,6.9,6.7,2.1,13.5,1.1,20.2.2-.8,2.3-1.1,4.8-1.8,7.1-13.3,5.8-19.6,8.2-33.7,3.6-6.4-4.7-14.7-8.1-14.2-17.8,5,.5,11.2-.8,16,0Z"/>
    <path class="st146" d="M186.5,583.3c2.3.2,5.1,1.8,7.1,1.8.3,7.4,10.1,6.6,16,5.4.1,1.5-1.5,2.7-1.8,3.6-6.8,1-13.5,1.9-20.2-.2-5.5-1.7-8.2-6.1-13.5-6.9l-1.8-5.4c5.8,3.1,9.8,1.4,14.2,1.8Z"/>
    <path class="st7" d="M190,547.7c29.9,8.1,26.6,36.9-5.3,32.1-.1-4.1-4.9-5.3-6-7.7s.7-4.5.6-4.8c5.4,8.8,15.3,11.2,24.6,6.9,2.3-10.5-1.5-23.3-13.9-22.9v-3.6Z"/>
    <path class="st13" d="M181.1,556.6c.8-.6,2.6-1.5,3.5-1.8,15-4.5,20.1,14.7,11.2,17.7-6.2,2-16.6-9-14.8-15.9Z"/>
    <path class="st171" d="M190,551.2c12.5-.3,16.3,12.4,13.9,22.9-9.3,4.3-19.2,1.9-24.6-6.9-.4-4.6-5-5.8,1.8-10.7-1.8,6.9,8.6,17.9,14.8,15.9,8.9-2.9,3.8-22.1-11.2-17.7.8-2.7,2.6-3.5,5.3-3.6Z"/>
    <path class="st121" d="M193.6,629.7c-3.5,3.1-9.7,6.6-4.9,12.1,2,2.2,20.8,7.1,26.2,11.1s11,15.5,21.3,17.8c-12.8-3.4-21.8-5.3-35.5-7.1-10.2-1.4-24.4-2.7-34.2-5.7s-15.1-21.5-6.6-25.6c1.5-.7,12.4,1.3,16.8,1,5.8-.5,11.1-3.4,16.9-3.5Z"/>
    <path class="st165" d="M369.2,624.4c1.4.9,2.6,1.2,3.5,1.8,5.8,3.6,6.4,5.9,14.2,8.9s1.7,1.3,3.5,1.8c1.8,1.7,4.1,3,5.3,5.4l-8.8,15.2c-9.7-.2-14.9,5.6-23.2,8.8-4.1,1.6-25.2,9.3-27.4,9.2s-2.9-2.6-5.2-2.7c-32.2-1.4-40.7.4-73.3-8.7-5.7-1.6-11.1,1.4-15.5-5.6l-4.4,3.3c.8-3.7-12.2-10.6-14.2-10.7-.2-1.1.3-2.8,0-3.6l.9-1.8c3.2.3,5.3,3.9,8,4.7,2.3.7,3.3-1.1,3.5-1.1,20.1,3.9,41.7,12.3,59.9,15.6,7.1,1.3,16.5-1,22.3.4s1.1,3.3,2.4,3.6,24.6-3.4,27.7-4c14-2.8,28.3-14.8,28.9-29.9l-11.6-10.7c1,.3,2.4-.2,3.5,0Z"/>
    <path class="st156" d="M385.2,667.2c-12.9,1.6-22,7.1-33.2,10.3-33.5,9.5-80.7,2.5-115.8-6.8-10.3-2.3-14.8-12.9-21.3-17.8,2.8,1.2,7.5-1.8,8.9-1.8,2,0,15.1,7,14.2,10.7l4.4-3.3c4.4,6.9,9.8,4,15.5,5.6,32.6,9,41.1,7.2,73.3,8.7,2.3.1,3.9,2.6,5.2,2.7,2.2.2,23.3-7.6,27.4-9.2,8.2-3.2,13.5-9.1,23.2-8.8l8.8-15.2c6,11.9-7.1,15.1-10.6,25Z"/>
    <path class="st57" d="M323.1,563.7c1.2,0,2.4-.1,3.5,0-3.5,5.1-.9,2.6,1.8,4.4,2.3,1.5,8.8,4.6,9.8,6.3,3.5,6.3-6.9,22-14.3,23.1s-27.6-1.3-28.8-2-4.8-7.8-5-8.5c-2.5-9.1,6-15.9,11.7-21.4,7.7-1.8,13.4-2.1,21.3-1.8ZM328,573c-.2-.4-7.4-5.2-8-5.4-7.7-2.4-21.1,3.1-19.7,12.6,4.1,16.3,36.5,8.1,27.7-7.2Z"/>
    <path class="st131" d="M330.2,563.7c-.5,5.7,10.1,6.1,14.2,10.7.5,11.8.6,20-10.9,25.7-11.1,5.5-54.8,4.7-54.7-12.4,0-5.3,9.7-15.8,14.1-18.7s3.7-2.4,8.9-3.6c-5.7,5.6-14.2,12.3-11.7,21.4s4.5,8.3,5,8.5c1.2.7,26.7,2.3,28.8,2,7.4-1.1,17.8-16.8,14.3-23.1-1-1.7-7.5-4.8-9.8-6.3-2.7-1.8-5.3.7-1.8-4.4,1.2.1,2.5-.2,3.5,0Z"/>
    <path class="st116" d="M378.1,544.1c-16.8,4.5-25.4,30.8-23.1,46.4-.9,0-3.6-2.3-5.3-1.8v3.6c-1.2-7.5-1.3-12-1.8-19.6s-3.3-7.9-2.8-8.9c1-2,6.9-4.5,9.1-7,5.6-6.3,12.2-23.5,23.9-12.6Z"/>
    <path class="st172" d="M411.8,547.7c6.1,11.7,19.8,15.1,12,32.6-1.6,3.6-4.1,3.8-4.9,4.9-.8-16.4,4.7-23.3-10.6-32.1-8.6-4.9-20.9-7.9-30.7-5s-9.3,5.1-9.7,5.4c-1.8,1.8-5.8,15.7-5.8,19.2,0,23.3,36.8,26.2,53.2,17.8-6.7,6.7-12.1,8.8-22.3,9s-14.8-5.6-18.5,1.7c-2.7-2.8-7.1-5.2-10-7.8s-2.8-5.6-5.1-6.5c-2.9-1.1-3.3,3.4-4.4,3.6-2.3-15.6,6.3-41.8,23.1-46.4,12.7-3.4,21.8.2,33.7,3.6Z"/>
    <path class="st19" d="M418.9,638.6c6.6.6,12.1,1.6,12.6,9.8.9,15.4-21.2,17.6-32.1,18.7-4.5.5-9.7-.5-14.2,0,3.5-9.9,16.7-13.1,10.6-25-1.2-2.3-3.5-3.6-5.3-5.4,10.3,2.5,18.6.9,28.4,1.8Z"/>
    <path class="st35" d="M422.5,626.1l-3.5,1.8v1.7s10.6-1.7,10.6-1.7l-1.8,3.5c-14.7,5.2-25.3,6.2-40.8,3.6-7.8-3.1-8.4-5.3-14.2-8.9v-1.8c11.1,6.1,37.6,6,49.7,1.8Z"/>
    <path class="st192" d="M355,590.5c1.1,7.2,6.4,11.4,10.6,16.1,17.6,19.3,46.5,25.3,67.4,7.1l3.5,3.6c-3.9,3.4-9.5,7.3-14.2,8.9-12.1,4.2-38.6,4.3-49.7-1.8s-12.8-13.3-14.2-15.2c-2.9-3.8-3.6-8.4-7.1-11.6-.4-2.1-1.6-4.2-1.8-5.4v-3.6c1.8-.5,4.4,1.9,5.3,1.8Z"/>
    <path class="st22" d="M418.9,585.1c-1.1,1.6-2.3,4.1-3.5,5.4-16.5,8.4-53.2,5.5-53.2-17.8,2.1-2.2,7.2-3.7,8.9-5.4-2.8,25.8,40.5,26.4,42.6,4.3.8-7.8-5.8-10.1-7.1-15-.1-.6,1.4-2.6,1.8-3.6,15.4,8.8,9.9,15.7,10.6,32.1Z"/>
    <path class="st91" d="M438.5,608.3c-1.4,2.2-3.4,3.7-5.3,5.4-21,18.2-49.9,12.1-67.4-7.1-2.9-6.3,9.4-1.7,12.4,0,.9.5,1.4,1.6,1.8,1.8s1.7,2.7,4,3.9c15.6,8.2,35.5,6.6,47.8-5.3l3.1,1.3c-.1-4.8,2.9-8.7,7.2-10.7,0,3.1-2,8.2-3.5,10.7Z"/>
    <path class="st63" d="M355,590.5c1.1-.1,1.5-4.7,4.4-3.6,2.3.9,3.4,5,5.1,6.5,2.9,2.6,7.3,5,10,7.8,1.3,1.3,2.3,3.8,3.5,5.4-3-1.7-15.3-6.3-12.4,0-4.2-4.7-9.6-8.8-10.6-16.1Z"/>
    <path class="st162" d="M365.7,624.4l11.6,10.7c-.5,15.1-14.9,27-28.9,29.9-3.1.6-26.3,4.3-27.7,4s-1-3.3-2.4-3.6c-5.9-1.4-15.2.9-22.3-.4-18.1-3.3-39.8-11.7-59.9-15.6-3.6-5.9,2.8-21.3,8.4-22.9,12.2-3.6,21.6,9.6,30,10.4,8.8.8,21.5-5.9,30.9-7.1-6.3,6.1-18.2,10.4-13.3,21.4,2.9,6.4,27.6,9.5,34.6,9,14.5.3,30.7-2.1,38-16.2,10.6-20.6-14.8-22.7-29.1-17.7-6.2.3-13.6,1.7-19.5,3.6-2.9.1-5.9-.2-8.9,0,1.9-1.3,6.9-3.2,8.9-3.6,15.6-3,34.3-5.7,49.7-1.8Z"/>
    <path class="st97" d="M292.9,569.1c-4.4,2.9-14.1,13.4-14.1,18.7,0,17.1,43.6,17.9,54.7,12.4,11.5-5.7,11.4-13.9,10.9-25.7,3.7,4.2,1.4,14.4,1.5,20.2-5.1,2.5-8.8,10.5-12.2,12.7-5.9,3.8-34.8,5.8-41.6,4.5s-9.9-6.3-15.1-8c-3.5-1.2-8.4-.1-10.3-1.2s-2.1-4.7-3.3-6.4c-1.2-1.7-3.8-2.2-4.1-3.5-1-4.4.4-10.5-2-15.4,9.4-9.1,23.3-10.1,35.6-8.3Z"/>
    <path class="st83" d="M372.8,624.4v1.8c-.9-.6-2.2-.8-3.5-1.8-5-3.4-9.8-7.3-15.7-9.2-.7-5.7-.9-11.9-2.1-17.5,3.5,3.2,4.2,7.8,7.1,11.6s13.3,14.7,14.2,15.2Z"/>
    <path class="st34" d="M316,629.7c-1.6.5-9.9,3.4-10.3,3.8s.9,2.5.3,3.3c-2.6,3.5-10.7,10.3-4.2,15.2,6.4,4.9,34.2,3.7,42.6.9-5.2,3.4-11.4,6.6-17.7,7.1-7,.6-31.7-2.5-34.6-9-4.9-11,7-15.3,13.3-21.4.6,0,1.2,0,1.8,0,2.9-.2,5.9.1,8.9,0Z"/>
    <path class="st26" d="M328,573c8.8,15.3-23.6,23.5-27.7,7.2-1.4-9.5,12-15,19.7-12.6.5.2,7.7,5,8,5.4Z"/>
    <path class="st124" d="M408.3,553c-.3.9-1.9,3-1.8,3.6-8.3-1.4-16.9-4.5-25.3-1.4s-6.8,8.9-10.1,12.1-6.8,3.1-8.9,5.4c0-3.4,4-17.4,5.8-19.2s9.1-5.3,9.7-5.4c9.8-2.9,22,0,30.7,5Z"/>
    <path class="st112" d="M406.5,556.6c1.3,4.9,7.9,7.2,7.1,15-2.2,22.2-45.4,21.5-42.6-4.3,3.3-3.2,5.8-10.5,10.1-12.1,8.4-3.2,17,0,25.3,1.4ZM402.6,574c10.5-18.1-36.9-25.3-21.4,5.7,3.8-.1,8.1,2.5,11.7,1.5.6-.2,9.4-6.7,9.8-7.3Z"/>
    <path class="st128" d="M335.5,626.1c11.2-.6,30.2-.7,22.2,16.1-.4.9-11.3,9.3-13.3,10.7-8.4,2.8-36.2,4-42.6-.9-6.5-4.9,1.6-11.7,4.2-15.2s-.6-3-.3-3.3c.4-.4,8.7-3.3,10.3-3.8,5.9-1.8,13.3-3.2,19.5-3.6ZM349.2,632c-7.9-9.5-45.1,2.8-43.4,14.7,7.2,6.5,19.7,7.1,28.7,4.3,1.9-.6,15.7-9.7,16.2-10.6,1.5-2.7.3-6.2-1.6-8.4Z"/>
    <path class="st69" d="M335.5,626.1c14.3-5,39.8-2.9,29.1,17.7-7.3,14.1-23.5,16.5-38,16.2,6.4-.5,12.6-3.7,17.7-7.1,2-1.3,12.9-9.8,13.3-10.7,8-16.7-11-16.7-22.2-16.1Z"/>
    <path class="st108" d="M402.6,574c-.3.5-9.2,7.1-9.8,7.3-3.6,1-7.9-1.6-11.7-1.5-15.5-31,32-23.8,21.4-5.7Z"/>
    <path class="st120" d="M349.2,632c1.8,2.2,3,5.7,1.6,8.4s-14.3,10-16.2,10.6c-9.1,2.9-21.5,2.2-28.7-4.3-1.7-11.9,35.4-24.2,43.4-14.7Z"/>
  </g>
  <g>
    <path class="st142" d="M518.3,305.1l10.2,40.6c-1.2,11,3.2,21.5,4,31.7,1,13-1.6,26.1-3.5,38.3.1-1.5-1.4-2.7-1.8-3.6-.7-1.9-1.6-5.2-1.8-7.1-.4-4.1,0-9.1,0-13.4v-33.9c0-4.1-5.6-21.7-7.1-27.6-1.7-6.6-3.8-18.8-5.7-24.2s-2.7-.5-3.2-.8l2.4-1.7,1.1-5.4c1.1,2.2,4.3,5.1,5.3,7.1Z"/>
    <path class="st138" d="M371,180.2c3.1.3,19.1,2.7,21.3,3.6,8.6,3.5,25.8,13.6,31.9,19.6,8.7,8.6,16.6,11.8,24.9,18.6,7.3,6,13.2,15.3,21.2,20.6,2.6,3.6,4.7,7.1,7.1,10.7-12-7.6-19.9-24.8-33.7-28.5-22.1-18.6-51.3-35.4-79.9-41v-1.8c.4,0,3.1-2.1,7.1-1.8Z"/>
    <path class="st103" d="M463.3,228.4c21.2,19.6,30.4,34.4,44.4,58.9l-.9,3.6c-3.3-1.7-5.6-4.5-8-7.1-6.9-7.4-15.1-21.1-21.3-30.3-2.4-3.6-4.5-7.1-7.1-10.7s-5.2-9.9-10.6-13.4l3.5-.9Z"/>
    <path class="st126" d="M147.4,246.2c-12.1,13.1-25.4,33.9-33.7,49.9l-3.5-1.8c6.5-13.5,13.8-27.3,23.1-39.2s7-6.9,10.6-10.7l3.5,1.8Z"/>
    <path class="st136" d="M198.9,201.6c2.7.2,6-.8,1.4,2.3-6.4,4.4-11,6.6-17.4,12s-11.1,9-16,14.3c-6.5,3.1-14.7,10.9-19.5,16.1l-3.5-1.8c6.5-6.8,14-15.6,21.3-21.4s20.7-15,28.4-19.6,4.2-1.1,5.3-1.8Z"/>
    <path class="st47" d="M463.3,228.4l-3.5.9c5.4,3.5,7.6,9.2,10.6,13.4-8.1-5.3-13.9-14.6-21.2-20.6-8.3-6.8-16.3-10.1-24.9-18.6,14.4,3.3,28.4,15.1,39,25Z"/>
    <path class="st66" d="M498.8,283.7c2.4,2.6,4.7,5.4,8,7.1l.9-3.6c2.3,4.1,3.4,7,5.3,10.7l-1.1,5.4-2.4,1.7c.5.4,2.7-.6,3.2.8,1.9,5.4,4,17.6,5.7,24.2h-1.8c-1.3-5.3-3.9-13.8-7.1-17.8-2.7-10.9-6.5-18.3-10.6-28.5Z"/>
    <path class="st114" d="M113.7,296.2c-6.6,12.6-8.1,20.3-10.6,33.9-5.5,7.7-6.3,19.4-8.9,28.5l-1.8-8.9c3.1-15.5,6.4-31.5,12.4-46.4,1.2-3,4.1-6.4,5.3-8.9l3.5,1.8Z"/>
    <path class="st14" d="M97.7,415.7c.8,10.6,5.7,22.5,10.6,32.1,1,4.6,2.8,10.1,7.1,12.5,1.3,4.2,8.3,18,10.6,21.4-2.7-2.4-4.1-1.6-5.3,1.8-3.7-4.9-7.3-8.9-10.6-14.3-6.8-11.1-13.2-22.8-16-35.7-2.4-11.1-3.7-24.6-1.8-35.7l5.3,17.8Z"/>
    <path class="st155" d="M99.5,356.8c-.9,9.5-2.2,16.8-1.8,26.8-4.8,9.6,2.2,21.5,0,32.1l-5.3-17.8c-1.9,11.1-.6,24.6,1.8,35.7-11.9-26.3-7.2-56.4-1.8-83.8l1.8,8.9c2.6-9.1,3.4-20.8,8.9-28.5-1.7,8.8-2.7,17.8-3.5,26.8Z"/>
    <path class="st85" d="M529,415.7c-1.8,11.1-3.5,23.3-7.1,33.9-4.8,14.1-14.5,31.4-23.4,43.4-4.4,6-10.3,15.1-17.4,17.2v-1.8c3.8-3.4,10.9-13.2,14.2-17.8,11-15.3,19-32,24.8-49.9,3.1-9.6,6.2-18.2,7.1-28.5.3.9,1.9,2.1,1.8,3.6Z"/>
    <path class="st77" d="M525.4,405h-1.8c1.8-23.7-1.4-51.9-7.1-74.9h1.8c1.5,5.9,7.1,23.6,7.1,27.6v33.9c0,4.3-.4,9.3,0,13.4Z"/>
    <path class="st2" d="M527.2,412.1c-.9,10.3-4,18.9-7.1,28.5l-.9-3.6c-.8,0-2.2,2.8-2.7,3.6,1.6-7.2,2.8-14,3.5-21.4,1.5-3.1,3.3-11.1,3.5-14.3h1.8c.2,1.9,1.1,5.3,1.8,7.1Z"/>
    <path class="st167" d="M477.5,253.4c6.2,9.2,14.4,23,21.3,30.3,4.2,10.2,7.9,17.7,10.6,28.5.8,3.2,4.3,18.4,3.5,19.6-1.4.2-2.6-1.7-3.5-1.8-1.8-7.5-6.6-13.4-10.6-19.6-3.2-5-1.6-8.9-9-9.9,4.3-19.2-6.8-15.1-12.3-21.3s-1.6-6.2-3.5-9c-1.9-2.8-9.5-11.2-12.5-11.5l-3.5-6.1,3.5-2.8c3.5,2.4,8.6,2.9,8.9,8.9,3.2.5,1.6-3.9,1-5.4-2.9-6.7-19.5-21.2-25.8-26.6-.6-.5-1.1-1.3-1.8-1.8,13.8,3.7,21.8,20.9,33.7,28.5Z"/>
    <path class="st144" d="M363.9,183.8c28.5,5.6,57.7,22.4,79.9,41,.6.5,1.1,1.2,1.8,1.8-6.3,7.4-18.4-2.3-26.6-5.4-5.7-2.1-23.1-6.8-24.8-8.9s-1.1-2.5-1.8-3.6c8.2-1.9,18.4,7.5,24.8.9-7.5-7-17.2-10-26.6-13.4-11-3.9-25.9-8.6-37.3-10.7v-1.8c3.2.5,7.5-.6,10.6,0Z"/>
    <path class="st179" d="M296.5,173.1c11.5-.6,26.2-1.1,37.3,1.8-2.3,0-9-1.5-8.9,1.8,13.2,0,26,4,39,5.4v1.8c-3.1-.6-7.4.5-10.6,0-35.3-5.8-79.3-8.9-113.6,3.6l-7.1-1.8c21.8-7.6,40.5-11.3,63.9-12.5Z"/>
    <path class="st191" d="M166.9,230.2c-1.9,2.1-3.4,5.1-5.3,7.1-5.9,6.4-12.1,14.5-17.7,21.4-20.8,25.4-26.7,34.5-35.5,67.8-3,11.5-5.6,17.4-7.1,30.3h-1.8c.8-9,1.9-17.9,3.5-26.8,2.6-13.6,4.1-21.3,10.6-33.9,8.4-16,21.6-36.8,33.7-49.9s13.1-13,19.5-16.1Z"/>
    <path class="st127" d="M239.7,187.4c-7.4,2.7-19.2,7.4-24.8,12.5-10.6,1.9-21.1,13.5-31.9,16.1,6.5-5.3,11-7.5,17.4-12,4.6-3.1,1.3-2.1-1.4-2.3,13-7.5,19.1-11,33.7-16.1l7.1,1.8Z"/>
    <path class="st82" d="M214.8,199.9c1.1-.2,2.4.1,3.5,0-11.7,5.7-28.2,16.9-39.4,25-5.1,3.7-10.5,11.8-17.4,12.5,1.9-2.1,3.4-5.1,5.3-7.1,4.9-5.3,10.5-9.7,16-14.3,10.8-2.6,21.3-14.2,31.9-16.1Z"/>
    <path class="st92" d="M516.5,330.1c5.7,23,8.9,51.2,7.1,74.9-.2,3.2-2.1,11.2-3.5,14.3.3-2.9-.2-6,0-8.9s-.1-3.6,0-5.4c.6-9.7,3.3-20.8,1.8-31.2l-5.3-27.7c0,12,4.4,26.1,1.7,38s-3.6,1.2-4.5,4.6c-1.9,7.1-1.8,13.1-4.3,21.6h-1.8c-.3-9.6,1.3-19.3-1.8-28.6l-6.1,1.9-4.6-3.6c2.6-8.4-.8-15,0-19.6,1.2-6.8,10.7-19.2,9.7-28.6,1.1-1.9,2.5-1.9,4.5-1.8s2.2,2,3.5,1.8c.8-1.2-2.7-16.5-3.5-19.6,3.2,4.1,5.8,12.5,7.1,17.8Z"/>
    <path class="st28" d="M115.5,460.3c-.7-2.3-1.9-4.6-1.8-7.1,9.1,1.6,12.6,11.7,18.6,17.9,4.3,4.4,8.9,8.3,13.3,12.5,12.2,11.5,25.4,19.7,34.8,33.7s4.9,4.1-1.1,3.8c-2.7-1.2-6.8-2.5-8.9-3.6-15.9-8.3-33.9-20.8-44.4-35.7-2.4-3.4-9.3-17.2-10.6-21.4Z"/>
    <path class="st94" d="M110.1,374.7c0,7.7-3.6,15-3.6,22.2s5.2,29.4,3.6,34.9-3.4,1.6-3.5,2.9,1.5,11.9,1.7,13.1c-5-9.6-9.9-21.5-10.6-32.1,2.2-10.6-4.8-22.5,0-32.1.2,5.2.2,10.2,1.7,15.2.8,2.5-1,3.1,3.6,2.6,1.2-10.3,2.3-20.3,5.3-30.3,1.6.5,1.8,2.1,1.8,3.6Z"/>
    <path class="st125" d="M113.7,433.5c2.9,4.4,6,9.7,8.9,14.3,7.1,11.5,14.6,23.7,24.8,33.9l-1.8,1.8c-4.4-4.2-9-8-13.3-12.5-6-6.1-9.5-16.2-18.6-17.9-.2,2.6,1,4.8,1.8,7.1-4.3-2.3-6.1-7.9-7.1-12.5-.3-1.2-1.8-12.5-1.7-13.1,0-1.3,3.3-2.2,3.5-2.9.8.7,3.2,1.2,3.5,1.8Z"/>
    <path class="st190" d="M115.5,339c-2.2,8.8-5.6,17.4-5.3,26.8-.8,1.9-1.2,3.4-1.8,5.4-3,10-4.2,20-5.3,30.3-4.6.5-2.8,0-3.6-2.6-1.5-5-1.5-10-1.7-15.2-.4-9.9.9-17.3,1.8-26.8h1.8c-.7,5.7-1.5,13.1-1.8,18.7s-1.1,6.8,1.8,6.3c1.3-13.5,4.2-25.5,9.4-38s.4-5.8,4.9-4.8Z"/>
    <path class="st154" d="M495.2,490.6c-3.3,4.6-10.4,14.5-14.2,17.8-4.9,4.3-16.2,8.9-21.9,12.8-25.5,17.2-13.6,11.7-3.4,31.4,2.3,4.4,2.6,9.5,4,12.9h-1.8c-2.9-7.7-6-10.5-10.6-16.1s-.1-2.7-1.8-4.3c-4.7-4.3-11.1-8.1-17.7-8.2-1.4-5.1,3.3-3.3,6-5.5s2.5-3.1,2.9-3.4c.7-.5,1.2-1.5,1.8-1.8,15.5-8.9,25.6-11.4,40.8-24.1s7.4-9.3,10.6-11.6,3.4-1.5,5.3,0Z"/>
    <path class="st16" d="M520.1,440.6c-5.9,18-13.8,34.6-24.8,49.9-1.9-1.5-3.4-1.4-5.3,0,0-1.2-.1-2.4,0-3.6,8.9-7.1,12.8-19.1,17.7-28.5,3.1-5.9,5.7-12.6,8.9-17.8s1.9-3.6,2.7-3.6l.9,3.6Z"/>
    <path class="st38" d="M520.1,419.2c-.8,7.4-2,14.2-3.5,21.4-3.1,5.3-5.8,11.9-8.9,17.8l12.4-48.2c-.2,2.9.3,6,0,8.9Z"/>
    <path class="st93" d="M461.5,258.7c3,.3,10.6,8.8,12.5,11.5,1.9,2.8,1.3,6.6,3.5,9,5.5,6.2,16.6,2.1,12.3,21.3,7.4,1,5.8,5,9,9.9l-7.9-1.9c-.4,0-2.7,5.2-2.8,5.5-6.4-3.2-7-11.6-12.4-16.1-.7-2.6-6.6-20.3-7.3-21.2s-1.9.4-6.9-3.8c1.6-7.7-4.5-8.9-8.9-14.3,3.2,3,8.4,0,8.9,0Z"/>
    <path class="st6" d="M394.1,212.3c1.8,2.2,19.2,6.8,24.8,8.9,1,3.4,3.7,3.9,6.2,5.4,12.9,7.9,24.4,14.7,36.4,23.1l-3.5,2.8,3.5,6.1c-.5,0-5.7,3-8.9,0-11-13.6-27.2-25.9-42.2-33.9s-15-3.5-18.2-3.6l-1.8-8.9h3.5Z"/>
    <path class="st153" d="M498.8,310.4c4,6.2,8.9,12.1,10.6,19.6-1.9-.1-3.3-.1-4.5,1.8,1,9.3-8.5,21.8-9.7,28.6-1.5.1-4.7-1.9-5.3-1.8-.9-7.7,2-14.8,1.9-22.4,0-4.2-1.8-6.5-1.9-7.9-.4-4.5-2.1-10.3-1.8-14.3,0-.3,2.4-5.4,2.8-5.5l7.9,1.9Z"/>
    <path class="st52" d="M445.6,226.6c6.3,5.4,22.9,19.9,25.8,26.6s2.2,5.9-1,5.4c-.3-6-5.4-6.5-8.9-8.9-12-8.4-23.6-15.3-36.4-23.1-2.5-1.5-5.1-2-6.2-5.4,8.2,3.1,20.4,12.8,26.6,5.4Z"/>
    <path class="st178" d="M353.3,185.6c11.4,2.1,26.2,6.8,37.3,10.7l7.1,7.1-26.6-1.8c-4.9-1.2-19.3-3.2-24.8-3.6-29.2-7.2-61.2-1.5-90.5,3.6l25.8-7,46.9-3.7c.9-5.4-1.3-2.8-4.3-3.6-16-4.1-49.5-2.1-66.7,0,30.2-7.2,65.3-7.4,95.8-1.8Z"/>
    <path class="st147" d="M392.3,208.8c.7,1,1,2.7,1.8,3.6h-3.5s1.8,8.9,1.8,8.9c-.6,0-1.2,0-1.8,0-5.4.7-7.8,4.6-10.6,5.4-2.4.6-6.3-.5-8.9,0l1.8-5.3c-8.1,1.2-15.3-4.1-19.5-10.7,9.9-1.9,20.5-.5,30.2-3.6l8.9,1.8Z"/>
    <path class="st189" d="M353.3,183.8v1.8c-30.5-5.6-65.6-5.5-95.8,1.8-12.6,1.5-27.5,6.8-39,12.5-1.1.1-2.5-.2-3.5,0,5.6-5.1,17.4-9.8,24.8-12.5,34.3-12.4,78.3-9.3,113.6-3.6Z"/>
    <path class="st189" d="M392.3,208.8l-8.9-1.8c-2.9-2-9.2-4.6-12.4-5.4l26.6,1.8-7.1-7.1c9.4,3.4,19.1,6.4,26.6,13.4-6.4,6.6-16.6-2.8-24.8-.9Z"/>
    <path class="st173" d="M257.4,187.4c17.2-2.1,50.6-4.1,66.7,0,3,.8,5.2-1.8,4.3,3.6l-46.9,3.7-25.8,7c-22,3.8-45.4,16-63.9,28.5-6.9,2.6-12.6,9.3-17.7,14.3-10,.5-19.7,14.1-25.7,21.4l-4.5-7.1c5.6-6.9,11.9-15,17.7-21.4,6.8-.7,12.3-8.8,17.4-12.5,11.2-8.1,27.7-19.3,39.4-25s26.5-10.9,39-12.5Z"/>
    <path class="st45" d="M174,244.5c-22.9,22.2-39.4,41.3-51.5,71.3-.4.5-2.4,1.2-3.6,2.6s-8.9,19.3-10.6,8.1c8.8-33.3,14.7-42.4,35.5-67.8l4.5,7.1c6-7.3,15.7-20.9,25.7-21.4Z"/>
    <path class="st145" d="M115.5,337.2c-.1.6.1,1.2,0,1.8-4.4-.9-3.7,2.1-4.9,4.8-5.1,12.4-8.1,24.5-9.4,38-3,.5-1.9-4.3-1.8-6.3.3-5.6,1.2-13,1.8-18.7,1.5-12.9,4.1-18.8,7.1-30.3,1.8,11.2,10-7.4,10.6-8.1,1.2-1.4,3.2-2.1,3.6-2.6-3.4,8.3-4.9,12.8-7.1,21.4Z"/>
    <path class="st72" d="M495.2,360.4c-.8,4.7,2.6,11.2,0,19.6-3,9.8-7.9,13.3-12,20.9-7.9,14.6-4.9,16.4-19.9,29s-23.6,18.1-33.7,25l-.9-1.8c-4.5,6.1-14.1,1.5-20.4,0,1.2-.7,2.3-2.8,3.5-3.6,19.7-11.5,49.8-28.6,59-50.4,2.2-5.3,1.5-10.5,4.8-16.5s8-7.4,10.6-12.5l-3.3-2.7-.2-3.4c3.5.5,5.6-5.1,7.1-5.4s3.8,1.9,5.3,1.8Z"/>
    <path class="st184" d="M495.2,380l4.6,3.6,6.1-1.9c3,9.2,1.5,19,1.8,28.6l-3.1.4c-1.3,9.7-5.3,18.8-11.1,26.4.3-5.2-2.4-9.3-6.2-12.5-5,8.4-14.7,11.1-20.9,16-2.2,1.8-3.2,5.3-5.7,7.3-6.9,5.5-13.4,10.6-22.3,12.4,1.2-3.8,0-5.7,3.5-9.9,6.2-7.5,20.8-5.8,21.3-20.5,15-12.7,12.1-14.4,19.9-29,4.1-7.7,9-11.1,12-20.9Z"/>
    <path class="st184" d="M507.7,410.3h1.8c-.4,1.3.4,3.6-.4,5.7-1.7,4.5-6.5,8.3-6.7,13.9-4.5,6.3-5.5,14-9.1,19.9-9.5,15.8-28.4,36.9-42.4,48.8s-30.7,15.7-28.4,33c-.9.4-2.7,1.3-3.5,1.8-12.7-2.6-3-16.2,2.1-22,13.3-15.3,42.2-22.1,47.6-44,4.9,4.2,4.3-3.5,7.6-6.6s4.7-1.3,6.1-2.7c3-3,5.9-14.2,11.1-21,5.8-7.6,9.8-16.6,11.1-26.4l3.1-.4Z"/>
    <path class="st38" d="M520.1,405l-1.9-1c-1.1,11.2-1.6,12.8-8.8,18.8s-6.8,6.7-7.1,7.1c.2-5.5,5-9.4,6.7-13.9.8-2.1,0-4.5.4-5.7,2.5-8.5,2.4-14.5,4.3-21.6.9-3.4,4.2-3.1,4.5-4.6,2.7-11.9-1.8-25.9-1.7-38l5.3,27.7c1.6,10.4-1.2,21.5-1.8,31.2Z"/>
    <path class="st106" d="M520.1,405c-.1,1.8.1,3.6,0,5.4l-12.4,48.2c-5,9.4-8.9,21.4-17.7,28.5.9-10.4,17.3-24.1,17.8-36.5-7.2-1.9-9,4.3-8.9,10.7l-3.5-2.7c5.7-9.9,10.9-24.6,14.2-35.7,7.2-6,7.7-7.7,8.8-18.8l1.9,1Z"/>
    <path class="st107" d="M129.7,453.1c4.7,3.7,10.3,8.3,16,12.5,22.6,16.7,43.3,23.4,67.3,36.7,3.7,2,5.9,7.4,10.7,8.9s9.9-1.1,14.3-.2c5.5,1.1,12.7,8.9,15.4,9.7s6.9-1.8,10.2-1.5,6.3,4.6,11.6,5.3c-7.4,5.9,1.4,13-4.5,17.9l-17.7-7.2c-3.9,10.7-19-.4-26.8-1.6-5.3-.8-11.3.3-16.8-.1-3.7-1.3-8.9-1-10.6-5.4,2.3.3,11.6,1.5,12.5,1l3.5-11.7c-10.6-.5-21.1-9.4-30.1-15.3-4.9-3.2-12.7-8.4-17-11.5-14.1-10.2-30.2-21.5-38.1-37.5Z"/>
    <path class="st95" d="M275.2,524.5c6.1.9,14.2-1.3,20,.4,2.9.8,9.2,6.8,10.5,7.3,5,2.1,20.3,4.2,23.6,8.3s2.1,3.4-.4,3.5c-6,.9-9.9,7.2-9.3,13.2l-7.2,2.9c-13.6-.2-25.6-.3-39,1.8,1.5-1.8,3.7-2.8,5.3-4.5-4.7-6.2-10.2-3.9-15.6-5.7-17.9-6.1-36.5-12.5-53.6-18.3,5.4.4,11.5-.7,16.8.1,7.7,1.2,22.9,12.3,26.8,1.6l17.7,7.2c5.9-4.9-2.9-11.9,4.5-17.9Z"/>
    <path class="st105" d="M126.1,449.6c1.1.9,1.8,2.2,3.5,3.6,7.9,15.9,24.1,27.3,38.1,37.5,4.3,3.1,12.1,8.2,17,11.5,8.9,5.9,19.5,14.8,30.1,15.3l-3.5,11.7c-.9.5-10.1-.7-12.5-1-6.6-.9-6.8-1.4-12.4-3.6l12.4-.9c-13.1-18.8-36.2-26.9-51.5-41.9-10.3-10.1-17.7-22.4-24.8-33.9,1,.7,2.7,1,3.5,1.8Z"/>
    <path class="st86" d="M147.4,481.7c15.2,15,38.3,23.1,51.5,41.9l-12.4.9c-3.3-1.3-5-2.6-7.1-3.6,6,.4,3-.9,1.1-3.8-9.4-14-22.6-22.2-34.8-33.7l1.8-1.8Z"/>
    <path class="st30" d="M145.6,364c-.4,2.4-1.4,4.7-1.8,7.1s-1.7,1-1.7,2.6c0,4.9,5.4,11,10.6,9.9v1.8c-3.9,0-7,.3-10.6-1.8v5.3s6.9.2,6.9.2c2.3,7.3,7,19.3,11.1,25.5s7.3,3.6,6.9,8.2c-4.4-.7-10.9,1.1-14.9-.2s-2-8.3-6.4-3.3c-3.1-5.4-10.1-12.9-13.1-18-5.7-9.9-8.5-29.3-22.4-26.6,0-1.5-.1-3.1-1.8-3.6.6-1.9,1-3.5,1.8-5.4,1.4-3.4,3.7-4.5,4.6-6,1.5-2.5.4-6,3.2-8.5,1.4-1.3,7.7.3,9.9-3.3.4,7.9,5.5,14.9,10.6,20.6,1.4.9,5.4-3.2,7.1-4.5Z"/>
    <path class="st10" d="M145.6,419.2c1.3,2.2,1,7.5,1.8,8.9-10.5.8-26.6-33.2-31-32.1-10.8,10.3-.6,24.5-2.7,37.5-.4-.6-2.7-1.1-3.5-1.8,1.6-5.5-3.6-27.3-3.6-34.9s3.6-14.6,3.6-22.2c13.9-2.8,16.7,16.7,22.4,26.6,3,5.2,10,12.7,13.1,18Z"/>
    <path class="st31" d="M147.4,428.2c2.4,4.3,8.5,7.2,8.9,12.5-.5-.2-1.2.2-1.8,0-4.4-1.4-11.2-2.5-14.6-4-4.5-2.1-6.5-8.6-12.7-6.5-5.9,1.9-1.5,14.9-1.1,19.5-.9-.7-2.5-1.1-3.5-1.8-2.9-4.6-6-9.9-8.9-14.3,2.1-12.9-8.1-27.2,2.7-37.5,4.4-1.1,20.6,32.9,31,32.1Z"/>
    <path class="st79" d="M149.2,298c-.7,1.1-1.1,2.4-1.8,3.6-5.6,10.1-20.1,35.9-19.5,46.4-2.1,3.7-8.4,2.1-9.9,3.3-2.8,2.5-1.8,6-3.2,8.5s-3.3,2.6-4.6,6c-.3-9.3,3.1-17.9,5.3-26.8s-.1-1.2,0-1.8c11-12.8,14.7-34.5,33.7-39.2Z"/>
    <path class="st62" d="M495.2,458.5l3.5,2.7c0-6.4,1.7-12.6,8.9-10.7-.5,12.4-16.8,26.2-17.8,36.5s0,2.4,0,3.6c-3.2,2.3-6.8,8.4-10.6,11.6-15.2,12.7-25.4,15.2-40.8,24.1l-7.1-2.7c15.8-17.2,37.7-31,52.4-49,2.5-3.1,9.7-13,11.5-16.1Z"/>
    <path class="st87" d="M495.2,458.5c-1.8,3.1-9,13-11.5,16.1-14.7,18-36.6,31.9-52.4,49l7.1,2.7c-.5.3-1.1,1.3-1.8,1.8-5.2-.5-9.6,1.6-14.2,3.6-2.3-17.3,17-23.2,28.4-33s32.9-33,42.4-48.8c3.6-5.9,4.6-13.6,9.1-19.9s5.8-6,7.1-7.1c-3.3,11.1-8.5,25.7-14.2,35.7Z"/>
    <path class="st135" d="M488.1,314c-.4,3.9,1.3,9.8,1.8,14.3-2.5,5.2-.9,11.5-2.2,16.5-.9,3.5-6,8.4-7.4,12.2-4.4,11.4-3.6,13.5-10.6,25-2.6,4.3-.7,11.5-9.9,10.5.5-6.2-3.1-7.2-7.1-10.7,24.2-6.7,17.2-35.4,19.5-55.3s3.6-3.3,3.7-4.6c.2-2.9-4.9-9.3-3.6-11.5l5.2-.9c-1.9-3.4-.8-8.2-1.7-11.6,5.4,4.5,6,12.8,12.4,16.1Z"/>
    <path class="st21" d="M461.5,273c5,4.2,6.6,3.4,6.9,3.8.7.9,6.6,18.6,7.3,21.2s-.2,8.1,1.7,11.6l-5.2.9c-1.3,2.1,3.8,8.6,3.6,11.5s-3.1-.4-3.7,4.6c-6,0-6.8-3.9-10.6-7.1,0-13.9-7.1-26.9-11.9-38.9s.2-10.3-5.8-14.6c.6-.3,1.1-3.9,4.1-3.4,4.8,3.2,9.3,6.8,13.6,10.5Z"/>
    <path class="st46" d="M392.3,221.3c3.1,0,15.9,2.4,18.2,3.6,15,8,31.2,20.3,42.2,33.9,4.4,5.4,10.4,6.6,8.9,14.3-4.4-3.7-8.8-7.4-13.6-10.5-3-.5-3.5,3.1-4.1,3.4s-1.4-.3-1.8,0c-5-2.4-3.7-8.2-7-11.7-2.4-2.6-13.1-7.7-17.8-11.5-3.8-3.1-6.6-8.3-9.7-10.7-4.5-3.5-12.9-5.3-16.9-10.7.6,0,1.2,0,1.8,0Z"/>
    <path class="st157" d="M489.9,358.6c-1.5.3-3.6,5.9-7.1,5.4l.2,3.4,3.3,2.7c-2.6,5.1-8,7.6-10.6,12.5s-2.6,11.2-4.8,16.5c-9.2,21.9-39.3,38.9-59,50.4l-6.2-3.1c-4.1,6.2-7.5,3-8,3.1l3.5-8.9c10.9-1.6,11.3-9.6,17.7-14.3,4.7-3.4,20.9-7.6,24.5-11.1,1.3-1.3,1.1-4.7,2.7-6.2,6.1-5.7,12.7-5.3,13.7-16.6,9.2,1,7.3-6.2,9.9-10.5,7-11.5,6.3-13.6,10.6-25,1.4-3.8,6.5-8.7,7.4-12.2,1.3-5.1-.3-11.3,2.2-16.5.1,1.4,1.9,3.7,1.9,7.9,0,7.6-2.8,14.7-1.9,22.4Z"/>
    <path class="st68" d="M346.2,198.1c-3.6-.3-18.7-1.2-19.5,2.7-.6,3.4,3.4,3.2,4.8,5s.1,3.7.8,4.3c1.4,1.3,7.5-.6,8.6,4-1.3,3.5,1.1,9.4-7.1,10.7-2.6.4-28.6-1.5-30.7-2.1-2.6-.8-8.7-7.9-13.1-10.1-9.4-4.5-24.5-5.8-34.3-2.1-11.6,1.2-31.7,15.1-31.7,27.6,0,2.7,3.1,10.2,5.1,11.6-2.8,6.3-10.8,3.1-16,1.8l-10.5-22.4-2.7-.8c-2.7.8-4.4,2.8-7.1,3.7s-.8-1.8-.9-1.8c18.5-12.5,41.9-24.7,63.9-28.5,29.3-5.1,61.3-10.8,90.5-3.6Z"/>
    <path class="st188" d="M346.2,198.1c5.6.4,19.9,2.3,24.8,3.6s9.5,3.4,12.4,5.4c-9.7,3-20.3,1.7-30.2,3.6s-12.1,2.7-12.4,3.6c-1.1-4.5-7.2-2.7-8.6-4s0-3.3-.8-4.3c-1.4-1.8-5.4-1.6-4.8-5,.8-3.9,15.9-3,19.5-2.7Z"/>
    <path class="st98" d="M379.9,226.6c2.1,1.9,3.9,7.6,5.3,8.9-1.8,11.7-11.6,16.1-17.8,24.1s-1.2,3.9-1.7,4.5c-4.6.6-10.9,6.3-15.1,6.4s-6.6-2.9-10.6-2.9c-8.4,0-5.1,1.8-15.1,0,5-7.1,9.5-11.6,17.7-14.3s11.6-.7,16.9-5.3c6.8-6,.7-19.2,11.5-21.5s6.5.6,8.9,0Z"/>
    <path class="st32" d="M353.3,210.6c4.2,6.6,11.4,11.9,19.5,10.7l-1.8,5.3c-10.8,2.2-4.6,15.5-11.5,21.5-5.3,4.6-10.9,3.4-16.9,5.3l-7.1-6.3c-.9-3.5,7.7-6.8,6.2-9.8-1.8-3.5-9,2.2-11.6,3.6,5.1-5.5,4.7-9,3.5-16.1,8.2-1.3,5.8-7.2,7.1-10.7s10.4-3.2,12.4-3.6Z"/>
    <path class="st185" d="M390.5,221.3c4,5.3,12.4,7.2,16.9,10.7,3.1,2.5,5.9,7.6,9.7,10.7-5.6-4.4-13.1,1.7-16,1.8s-15-8-16-8.9c-1.4-1.3-3.2-7.1-5.3-8.9,2.9-.7,5.2-4.7,10.6-5.4Z"/>
    <path class="st58" d="M213.1,251.6v1.8c-.9-.7-2.5-1.1-3.5-1.8-5.2-3.7-15.7-7.5-21.3-3.6-4.5-2.2-9-3.8-14.2-3.6,5.2-5,10.8-11.7,17.7-14.3s-.1,2.1.9,1.8c2.7-.9,4.4-2.9,7.1-3.7l2.7.8,10.5,22.4Z"/>
    <path class="st134" d="M188.2,248c-.2.1.2,2.1-.6,2.9-4.7,4.3-9.1,8.2-10,15-.7.1-9.5,5.7-12.4,7.1-30.7,14.9-24.3,18.3-42.6,42.8,12.1-30,28.6-49.1,51.5-71.3,5.2-.3,9.7,1.4,14.2,3.6Z"/>
    <path class="st42" d="M165.2,273c-5.3,8.4-11,16.4-16,25-19,4.8-22.7,26.4-33.7,39.2,2.2-8.6,3.7-13.1,7.1-21.4,18.3-24.5,11.9-27.9,42.6-42.8Z"/>
    <path class="st177" d="M438.5,460.3c-.2.8.5,2.2-.3,3.2-2.9,3.6-24.7,8.6-29,14.6l-2.6-3.5c-.8,6.2-14.5,5-20.7,6.8-47.2,13.3-65.7,16.6-113.7,4.3-10.8-2.8-19.8,1.3-34.5-2.7-23.4-6.4-37.8-12.1-59.3-22.5-4.9-2.4-15.3-3.2-18.4-7.3s-2.8-9.9-5.3-12.5c.5.2,1.2-.2,1.8,0,4.1,1.3,8.4,1.6,12.4,3.6,12.1,5.8,24.1,14.8,38.7,19.1,18.7,5.6,34.3,4.1,52.5,6.1,18.5,2,25.8,8.7,48.2,8.7,32.6,0,44.9,3.9,76-7.5,16.2-5.9,30.1-5.2,45.5-15.7,10.1-6.9,24.3-17.1,33.7-25-.5,14.7-15.1,12.9-21.3,20.5s-2.4,6.1-3.5,9.9Z"/>
    <path class="st40" d="M181.1,440.6c1.8.2,4.2,4,6.6,5,39.3,15.8,72,15.6,113.1,19.9,29.2,3.1,50.5,3.6,79.8-1.9,10.3-1.9,18.7-5.5,27.6-10.6,6.3,1.6,15.9,6.1,20.4,0l.9,1.8c-15.5,10.6-29.3,9.8-45.5,15.7-31.1,11.3-43.4,7.5-76,7.5-22.4,0-29.7-6.7-48.2-8.7-18.2-2-33.9-.5-52.5-6.1-14.5-4.3-26.5-13.3-38.7-19.1,1.3-2,10.9-3.8,12.4-3.6Z"/>
    <path class="st78" d="M397.6,449.6c.5-.1,3.9,3.1,8-3.1l6.2,3.1c-1.2.7-2.4,2.9-3.5,3.6-9,5-17.4,8.7-27.6,10.6-29.3,5.4-50.6,4.9-79.8,1.9-41.1-4.3-73.8-4.2-113.1-19.9s-4.7-4.7-6.6-5c.8-1.7,3.2-3.8,3.5-5.4,5.7-1.2,8,5.1,12.3,6.4,4.7,1.5,7.4-.7,9.9-.3s12.8,8.5,21.7,9.6c55,6.7,115.3,13.9,169-1.4Z"/>
    <path class="st49" d="M493.5,437.1c-5.2,6.7-8.1,18-11.1,21s-4.5,1.2-6.1,2.7c-3.3,3.1-2.7,10.8-7.6,6.6-5.4,21.9-34.3,28.8-47.6,44s-14.7,19.4-2.1,22c-7.8,4.6-10,3.4-7.1,12.5.2.6-.2,1.4,0,1.8-11.9-3.4-21.1-7-33.7-3.6-11.7-10.9-18.2,6.2-23.9,12.6-2.2,2.5-8.1,5-9.1,7s2.6,5.1,2.8,8.9c-4.9-3.3-12-7.8-17.7-8.9-1.1-.2-2.4.1-3.5,0s-2.4,0-3.5,0v-1.8c-1.9-3-7.3-1.7-10.6-1.8l7.2-2.9c-.6-6,3.3-12.3,9.3-13.2,2.5,0,1.6-2.1.4-3.5-3.3-4.1-18.6-6.3-23.6-8.3-1.3-.5-7.6-6.5-10.5-7.3-5.9-1.7-13.9.5-20-.4-5.3-.8-8.3-5.1-11.6-5.3s-6.4,2.5-10.2,1.5-10-8.5-15.4-9.7c-4.4-.9-8.2,2.1-14.3.2s-7-6.9-10.7-8.9c-24-13.2-44.7-20-67.3-36.7-.7-9.1,6.2-11.8,14.2-12.5,3.1,4.1,13.5,5,18.4,7.3,21.5,10.3,35.9,16.1,59.3,22.5,14.8,4,23.7,0,34.5,2.7,48,12.3,66.5,9,113.7-4.3,6.3-1.8,20-.6,20.7-6.8l2.6,3.5c4.3-6,26.1-11,29-14.6s0-2.5.3-3.2c8.9-1.8,15.4-6.9,22.3-12.4,2.5-2,3.5-5.5,5.7-7.3,6.2-4.9,15.8-7.6,20.9-16,3.8,3.2,6.5,7.2,6.2,12.5Z"/>
    <path class="st117" d="M154.5,440.6c2.5,2.6,3.9,10.7,5.3,12.5-8,.7-14.9,3.3-14.2,12.5-5.6-4.1-11.3-8.8-16-12.5s-2.5-2.6-3.5-3.6c-.4-4.6-4.8-17.5,1.1-19.5,6.1-2,8.1,4.5,12.7,6.5,3.4,1.6,10.2,2.6,14.6,4Z"/>
    <path class="st11" d="M223.7,371.1c-1.2,3.6-5.5,4.8-8.9,5.4-21.4-17.6-42.7-6.5-62.1,7.1-5.2,1.1-10.6-4.9-10.6-9.9s1.6-2.3,1.7-2.6l5.3,3.6c-3-13.4,1.6-8.4,6.9-11.7,9.2-5.6,13.6-10.5,25.8-11.6,11.2-1,29.8,1.9,37.6,10.7,3.2,3.6-.2,7.4,4.2,9Z"/>
    <path class="st164" d="M152.7,385.4c4.8,0,11.7-.8,16,0,10.6,1.9,13.5,18,17.7,25-9,7.2-3.1,10.3-1.8,17.8-5.9-1.8-11.6-4.4-17.7-5.4.4-4.7-4.3-4.3-6.9-8.2-4.1-6.2-8.7-18.1-11.1-25.5l-6.9-.2v-5.3c3.7,2.1,6.8,1.7,10.7,1.8Z"/>
    <path class="st37" d="M152.7,303.3c-.5,3.1.7,8,0,10.7-2.5,8.9-9.8,19.4-10.6,29.5s0,11.3,1.8,16.9c3.7,1.3,4.2-3,5.3-3.6s2.5.2,3.5,0c-1.4,1-4.1,4.8-7.1,7.1s-5.7,5.4-7.1,4.5c-5.1-5.7-10.2-12.7-10.6-20.6-.6-10.4,13.9-36.3,19.5-46.4l5.3,1.8Z"/>
    <path class="st20" d="M145.6,419.2c4.4-5,3.1,2.2,6.4,3.3s10.5-.4,14.9.2c6.2,1,11.8,3.6,17.7,5.4,0,.6,0,1.2,0,1.8,0,1.5.3,4.1,0,5.4s-2.8,3.6-3.5,5.4c-1.5-.2-11.1,1.6-12.4,3.6-4-1.9-8.3-2.2-12.4-3.6-.4-5.3-6.5-8.2-8.9-12.5s-.5-6.7-1.8-8.9Z"/>
    <path class="st168" d="M152.7,356.8c11.6-8.2,26.9-13.9,41.2-12,11.5,1.5,32.3,12,29.7,26.3-4.4-1.6-1-5.4-4.2-9-7.8-8.7-26.4-11.7-37.6-10.7-12.2,1.1-16.6,6-25.8,11.6s-10-1.7-6.9,11.7l-5.3-3.6c.4-2.4,1.4-4.7,1.8-7.1,3-2.3,5.7-6.2,7.1-7.1Z"/>
    <path class="st90" d="M214.8,376.4c-1.6.3-3.6-.2-5.3,0-2.8-1.9-4.5-4.2-8.4-4.9-12.2-2.4-27.3-1.3-30.6,12.1s-1.4,1.1-1.8,1.8c-4.2-.8-11.2,0-16,0v-1.8c19.5-13.6,40.7-24.7,62.1-7.1Z"/>
    <path class="st133" d="M191.8,269.4l-8.8,9.8c.9,1.4,2.3,1.9,3.5,2.7v3.6c-.7.7-2.9-1.8-3.5-1.8-5,.3-24.5,16.3-30.2,19.6l-5.3-1.8c.6-1.2,1.1-2.4,1.8-3.6,5-8.6,10.6-16.6,16-25,3-1.4,11.7-7,12.4-7.1s10.1.6,10.8.8c1.8.5,2.9,2.6,3.4,2.8Z"/>
    <path class="st4" d="M443.8,372.9h1.8c2.9,8.1,3.2,5.6,7.1,8.9s7.6,4.5,7.1,10.7c-1,11.3-7.6,10.9-13.7,16.6s-1.3,4.9-2.7,6.2c-3.6,3.5-19.8,7.7-24.5,11.1-.9-10.6-3.3-19.7,0-30.3,6.7-8.2,6.7-10.7-2.2-17.1s-8.3-4.4-8.9-4.6c-11.6-4.7-19.7-3.4-31.4.4-1.2,0-2.4,0-3.5,0,6.8-5.7,20.8-6.6,29.2-5.2,13.4,2.2,41.1,33,41.8,3.5Z"/>
    <path class="st67" d="M461.5,319.4c3.8,3.2,4.7,7.2,10.6,7.1-2.3,19.9,4.7,48.6-19.5,55.3-3.9-3.4-4.2-.8-7.1-8.9s.5-4.1,0-5.4c.7-5.2,6.2-11,7-15.2.7-3.8-.8-15.6,0-16.9s3.4,0,5.2-2.8c1.2-1.9,3.7-11,3.7-13.3Z"/>
    <path class="st163" d="M461.5,319.4c0,2.3-2.5,11.4-3.7,13.3-1.8,2.7-5,2.5-5.2,2.8-5.1-1.5-13.4-4.5-17.7-7.1s-3.9-2.5-5.3-4.5l3.6-3.6c-7-8.7,1.4-11.5,0-16.9s.1-1.2,0-1.8l5.3-3.6c-2.2-.8-7.4,2.3-7.1-2.6.6-8.1,7-10.3,7.1-10.9.7-7.3-7.1-9.8,3.5-18.6s1.3.3,1.8,0c6,4.4,4,10.1,5.8,14.6,4.8,12,12,24.9,11.9,38.9Z"/>
    <path class="st160" d="M417.2,242.7c4.7,3.8,15.4,8.9,17.8,11.5,3.3,3.5,2,9.3,7,11.7-10.6,8.8-2.8,11.3-3.5,18.6s-6.5,2.9-7.1,10.9c-.4,4.9,4.8,1.8,7.1,2.6l-5.3,3.6c-6.3-7.4-19.1-1-26.6,1.8-3-1.3-6.3-1.3-5.3-5.4.3-.4,4.8-7.5,4.9-8,0-1.4-2.5-3.6-2.6-5.6-.3-9.1-1.1-10.4-2.2-18.5-.8-6.2,4-15.5,0-21.4,2.9-.1,10.4-6.1,16-1.8Z"/>
    <path class="st139" d="M392.3,440.6c2.5-.6,6.1.4,8.9,0l-3.5,8.9c-53.7,15.2-114.1,8.1-169,1.4-8.8-1.1-19.8-9.3-21.7-9.6s-5.2,1.8-9.9.3c-4.3-1.3-6.6-7.6-12.3-6.4.3-1.2,0-3.8,0-5.4,4.5,2.9,9.9,2.7,14.6,4.1,25.7,7.8,83.5,16.7,111.8,15,4.8-.3,11.7-2.7,19.3-2.1,25.3,2.2,37.4-.9,61.9-6.4Z"/>
    <path class="st88" d="M418.9,426.4c-6.5,4.7-6.8,12.7-17.7,14.3-2.7.4-6.4-.6-8.9,0-4.2-6.9,2-8.1,3.2-12s0-3.2.4-4.1c1.4-4.3,1.9-11.5,5.2-14.8s5.6-3.6,9-6.6c2-1.8,5.8-3.4,8.9-7.1-3.3,10.6-.9,19.8,0,30.3Z"/>
    <path class="st24" d="M333.7,224.8c1.2,7,1.5,10.6-3.5,16.1-2.1,1.1-6.2,1.5-6.9,2s2.7,5.2-5.5,7.9c-25.8,8.4-78.4,24-103,7-1.9-1.3-1.5-4.2-1.7-4.4v-1.8c5.1,1.3,13.2,4.6,16-1.8,2.5,1.8,12.7,3.2,16,2.7,6.6-.9,39.5-15.6,42.1-21s-2.8-17.7-8.4-20.1-18.1-1.5-23-.9c9.8-3.7,25-2.4,34.3,2.1,4.4,2.1,10.4,9.3,13.1,10.1,2.1.6,28.1,2.6,30.7,2.1Z"/>
    <path class="st76" d="M255.7,210.6c5-.5,19-.8,23,.9s11.3,14.1,8.4,20.1-35.5,20-42.1,21c-3.3.5-13.5-.9-16-2.7s-5.1-8.9-5.1-11.6c0-12.6,20.1-26.4,31.7-27.6Z"/>
    <path class="st151" d="M401.2,244.5c4,5.9-.8,15.2,0,21.4-4.1,2.4-3.3,9.4-5.8,12s-9.4,3.8-12.4,5.8c-21.2,14.4-23.9,10-46.2,16.4s-6.3,14.3-21.3,10.4c-2.2-.6-2-6.1-5.6-5.5-9.6,3-18.9,11.9-29,7.8s-2-4-2.9-3.9c-13.5.9-34.6-.3-47.7-4.1s-3.7-4-5.6-4.3c-18-2.5-7.7-2.2-19.9-9.4-5.8-3.4-12.3-5.4-18.4-9.2s-2.7-1.2-3.5-2.7l8.8-9.8c.5.2,1.2-.2,1.8,0,3.9,1.3,11.4,3.3,14.1,4.5,3.9,1.8,7,9,12.4,10.7,5.5,1.7,11.2,0,16.6,1.2,4,.9,5.9,5,10.9,5.1,25.5.6,55.7-4.6,80.4-10.4s25.9-.2,37.7-16.5c.4-.6.4-2.8,1.7-4.5,6.2-8,16-12.4,17.8-24.1,1,.9,15.1,9,16,8.9Z"/>
    <path class="st143" d="M209.5,262.3c.9.2,13.1,9.2,15.7,9.8,3.4.7,11.2,1.8,15.5,2.5,9.8,1.6,23.7,3.6,33.4,1.8s45.5-9.7,50.7-8.8c10,1.8,6.7,0,15.1,0,4.1,0,7.7,2.9,10.6,2.9s10.5-5.8,15.1-6.4c-11.8,16.3-19.6,12.3-37.7,16.5s-54.9,10.9-80.4,10.4c-5.1-.1-6.9-4.2-10.9-5.1-5.4-1.2-11.1.6-16.6-1.2-5.4-1.7-8.5-8.9-12.4-10.7-2.7-1.3-10.2-3.3-14.1-4.5,3.2-3,11.9-8,16-7.1Z"/>
    <path class="st104" d="M330.2,240.9c2.6-1.3,9.7-7.1,11.6-3.6,1.5,3-7.1,6.2-6.2,9.8l7.1,6.3c-8.3,2.7-12.7,7.2-17.7,14.3-5.2-.9-42.9,7.4-50.7,8.8s-23.6-.3-33.4-1.8-12.1-1.8-15.5-2.5c-2.7-.6-14.8-9.6-15.7-9.8v-10.7c1,.7,2.7,1.1,3.5,1.8s-.1,3.1,1.7,4.4c24.6,17,77.2,1.4,103-7,8.2-2.7,5.1-7.6,5.5-7.9.6-.5,4.7-.9,6.9-2Z"/>
    <path class="st150" d="M209.5,251.6v10.7c-4.1-.9-12.8,4.1-16,7.1-.5-.2-1.2.2-1.8,0s-1.7-2.3-3.4-2.8-10.2-.9-10.8-.8c.9-6.8,5.3-10.7,10-15s.5-2.8.6-2.9c5.6-3.9,16-.1,21.3,3.6Z"/>
    <path class="st166" d="M174,342.5c3.1-.8,7.7.2,11.8-1.5s2.5-4,3.3-3.9c3.1.1,4.9,3.7,7.9,4.6,5.1,1.5,11.5.8,16.5,3.1,8.5,3.8,11.2,11.4,15.6,17.4,2,9-6.2,18.5-15.1,17.9s-3.6-3.1-4.4-3.7c1.7-.2,3.7.3,5.3,0,3.4-.6,7.7-1.7,8.9-5.4,2.6-14.3-18.2-24.7-29.7-26.3-14.3-1.9-29.6,3.8-41.2,12-1,.2-2.9-.3-3.5,0,1-3.1.9-3.2,3.5-4.8,6.1-3.8,14.6-7.7,21.4-9.5Z"/>
    <path class="st5" d="M170.5,383.6c3.7,0,9.7,0,12.8,1.8s2.3,4.1,4,5.3c6.8,4.7,20.6,15.4,27.5,17s13.8-.2,20.1,1.2c3.5.8,15.4,8.2,20.8,10.3s9.8,6.1,16.4,4.9c12.1-2.1,10.3,1.8,20.4,3.6,6.4,1.1,36.4-3.3,43.9-5,6.2-1.4,16.2-6.9,21.9-8.3,17.3-4.2,35.2-5,51.8-11.2-3.4,3.1-7.3,5-9,6.6-3.3,3.3-3.8,10.5-5.2,14.8-15.2,10.3-34.3,10.2-51.9,12.9-31.5,4.9-94.7-.8-127.4-8.4-10.2-2.4-24.4-9.7-30.1-18.8-4.3-6.9-7.2-23-17.7-25,.4-.7,1.7-1.4,1.8-1.8Z"/>
    <path class="st161" d="M186.5,410.3c5.6,9.2,19.8,16.5,30.1,18.8,32.7,7.5,95.9,13.3,127.4,8.4s36.7-2.6,51.9-12.9c-.3.9.1,2.6-.4,4.1-1.2,3.9-7.4,5.1-3.2,12-24.6,5.5-36.6,8.5-61.9,6.4-7.7-.7-14.6,1.8-19.3,2.1-28.3,1.6-86.1-7.3-111.8-15s-10.1-1.2-14.6-4.1c0-.6,0-1.2,0-1.8-1.3-7.5-7.3-10.7,1.8-17.8Z"/>
    <path class="st186" d="M168.7,314c3,9.4-.4,20.1,5.3,28.5-6.8,1.8-15.3,5.7-21.4,9.5s-2.5,1.7-3.5,4.8c-1.1.6-1.6,4.8-5.3,3.6-1.8-5.6-2.2-11-1.8-16.9.8-10,8.2-20.5,10.6-29.5,4.1,1,8.2-1.5,11.9-1.7s3.9,1.7,4.1,1.7Z"/>
    <path class="st130" d="M182.9,283.7c0,8.5,5.5,9.7,3.5,17.8s.2,2.4,0,3.6c-4.2,0-7,3.8-8.9,7.1-3.2,0-6.1,1.6-8.9,1.8s-1.6-1.8-4.1-1.7c-3.6.2-7.7,2.7-11.9,1.7.7-2.7-.5-7.6,0-10.7,5.7-3.3,25.1-19.3,30.2-19.6Z"/>
    <path class="st51" d="M229,362.2c4.2,5.7,13.6,4.4,15.6,7.6s.2,4.6,1.3,6.7c1.8,3.5,8.1,2.4,6.2,9-2.1.2-2.2.3-3.5,1.8-8.5,9.6,7,12.4,10.6,14.3s2.4,1.2,3.5,1.8,4.4,2.7,5.8,3.6c6.8,4.2-9.1,13-12.9,12.5-5.4-2.1-17.3-9.5-20.8-10.3-6.3-1.4-13.1.5-20.1-1.2s-20.7-12.4-27.5-17-1.9-4.1-4-5.3c-3.2-1.7-9.1-1.8-12.8-1.8,3.4-13.4,18.5-14.5,30.6-12.1,3.9.8,5.6,3.1,8.4,4.9s.8,3.4,4.4,3.7c8.9.6,17-8.9,15.1-17.9Z"/>
    <path class="st36" d="M401.2,298c-13.4,15.3-26,4-36.1,7.4-2.3.8-2.3,4.3-5.1,5.6-8.6,4.2-26.9,7.9-36.9,11-3.3,1-5,4.7-9.7,4.7-6.8,0-7.2-7.3-14.1-7.4-2,0-17.1.5-18,.7-1.6.3-4.6,10.8-17.4,6.3l-3-8.6c-14.8-.5-29.7-5.1-43.8-8.6s-7.4,0-11.2-1.2c-5.6-1.7-10.5-9.3-19.4-6.3,2-8.1-3.6-9.3-3.5-17.8.7,0,2.9,2.5,3.5,1.8v-3.6c6.1,3.8,12.6,5.8,18.4,9.2,12.2,7.1,1.9,6.8,19.9,9.4,1.9.3,3.2,3.6,5.6,4.3,13.1,3.8,34.2,5,47.7,4.1.9,0,.7,3,2.9,3.9,10.1,4.1,19.4-4.8,29-7.8,3.6-.6,3.4,4.9,5.6,5.5,15,3.9,15.4-8.7,21.3-10.4,22.3-6.4,25-1.9,46.2-16.4,3.1-2.1,10.6-4,12.4-5.8s1.7-9.6,5.8-12c1.1,8.1,1.9,9.5,2.2,18.5,0,1.9,2.7,4.1,2.6,5.6s-4.6,7.7-4.9,8Z"/>
    <path class="st180" d="M376.3,374.7c11.7-3.7,19.8-5,31.4-.4.7.3,8.5,4.3,8.9,4.6,8.9,6.5,9,8.9,2.2,17.1-3.1,3.8-6.8,5.3-8.9,7.1-16.7,6.3-34.5,7-51.8,11.2-5.7,1.4-15.7,6.9-21.9,8.3-7.5,1.7-37.4,6.1-43.9,5-10.1-1.7-8.3-5.6-20.4-3.6-6.6,1.1-11-2.8-16.4-4.9,3.8.5,19.7-8.3,12.9-12.5-1.4-.9-5.1-3.2-5.8-3.6,11.1,1.7,15.1-8,24-10.7,4.4.1,6.5,6.5,9.8,7.9,8.3,3.7,25.8,3.3,31.9-4.4l5.3,5.3c1.2-6.9,14.1-7.5,18.8-12.4,3.9-4,.8-7.4,7.9-9s10.8-3.7,16-5.4Z"/>
    <path class="st43" d="M365.7,355c-1.4,7.4,8.4-1.9,10.6-2.7,19.8-6.8,46.2,3.8,60.3,17.4,1,1,4.7,4.8,5.4,1.4.5.6,1.3,1.1,1.8,1.8-.7,29.6-28.4-1.3-41.8-3.5s-22.3-.5-29.2,5.2c-5.5.4-15.2,4.6-17-3.5-1.8-7.8,4.9-12,9.9-16.1Z"/>
    <path class="st61" d="M422.5,346.1c2.9,1.6,22,18.6,23.1,21.4s-.5,4.1,0,5.4h-1.8c-.4-.7-1.3-1.2-1.8-1.8-19.3-24-49.2-38-76.3-16.1-5.1,4.1-11.8,8.3-9.9,16.1,1.9,8,11.6,3.9,17,3.5s2.4,0,3.5,0c-5.2,1.7-8.2,3.5-16,5.4-8.6-5.4-9.3-15.1-3.5-23.2,1.9-2.7,12.8-10.1,16.2-11.4,11.9-4.7,38.2-5.5,49.5.7Z"/>
    <path class="st158" d="M452.6,335.4c-.8,1.3.6,13.1,0,16.9-.8,4.3-6.4,10-7,15.2-1-2.8-20.2-19.8-23.1-21.4l12.4-17.8c4.4,2.6,12.6,5.7,17.7,7.1Z"/>
    <path class="st54" d="M433.1,301.5c.1.6-.1,1.2,0,1.8-9.1-1.3-6.4,6.7-10.6,9.7-14,10.2-37.5,14.2-48.6,22.6-3.9,3-4.6,7.7-7.1,9.9-3.8,3.2-12.6,2.7-15.4,7.7-.2,0-1.2,1.5-2.4,1.3-4.2-.7-7.9-4-12.5-3l-3.8,5.3-2.6-3.6-.9,5.3c-9.7-6.4-13.3,1.5-19.2,4.1s-9.5-2.2-11.9,4.8c-.4,0-6.6,1.6-7.1,1.8,3.1-15-9.1-9.5-12.5-11.7s-10.8-10-16-12.4-13.8,3.9-12.3-6.2l-2.7,3.7c-5.7-6.8-24.8-4.2-27.2-5.7s-.9-5.6-3.9-7.7c-5.3-3.6-18.1-4.5-22.9-7.3-6.8-4-1.2-9.8-16-9.7,1.9-3.3,4.7-7.1,8.9-7.1s37.5,12.8,44.4,15.2c10.9,3.8,17.2,5.9,27.5,8.9,5.3,1.5,14.8,6.6,20,7.6,11.2,2,54.3-6.3,68.3-8.8s7-3.3,9.2-3.3-.3,4.5,2.7,3.7c-3-11.7,16-10.7,23.1-13.3s16.3-8.6,24.8-11.6c7.5-2.7,20.3-9.2,26.6-1.8Z"/>
    <path class="st29" d="M433.1,303.3c1.4,5.5-6.9,8.2,0,16.9l-3.6,3.6c1.4,2,3.3,3.3,5.3,4.5l-12.4,17.8c-11.3-6.2-37.6-5.4-49.5-.7-3.3,1.3-14.3,8.7-16.2,11.4-.9-3.1-2.6-3.2-5.3-3.6,2.7-5,11.6-4.5,15.4-7.7,2.5-2.1,3.2-6.9,7.1-9.9,11.1-8.4,34.6-12.5,48.6-22.6,4.2-3,1.5-11.1,10.6-9.7Z"/>
    <path class="st36" d="M401.2,298c-1,4,2.3,4.1,5.3,5.4-8.5,3.1-16.5,8.6-24.8,11.6s-26.2,1.6-23.1,13.3c-3,.8-.8-3.7-2.7-3.7s-6.1,2.7-9.2,3.3c-14,2.5-57.1,10.9-68.3,8.8-5.2-.9-14.7-6-20-7.6-10.4-3-16.7-5.1-27.5-8.9-6.9-2.4-40.8-15.2-44.4-15.2.2-1.1-.2-2.6,0-3.6,8.9-3,13.8,4.6,19.4,6.3s7.6.3,11.2,1.2c14.2,3.4,29.1,8,43.8,8.6l3,8.6c12.8,4.4,15.7-6.1,17.4-6.3s15.9-.7,18-.7c6.9.1,7.3,7.5,14.1,7.4s6.4-3.6,9.7-4.7c10-3.1,28.3-6.8,36.9-11,2.8-1.4,2.8-4.9,5.1-5.6,10.2-3.4,22.8,7.9,36.1-7.4Z"/>
    <path class="st183" d="M177.6,312.2c14.9,0,9.2,5.8,16,9.7s17.6,3.7,22.9,7.3c3,2.1,2.9,7,3.9,7.7,2.4,1.6,21.5-1.1,27.2,5.7l2.7-3.7c-1.5,10.2,7.2,3.8,12.3,6.2s12.5,10,16,12.4,15.5-3.2,12.5,11.7c-7.4,2.6-7.7,7-12.4,9.7s-5-.9-7.1.3c-3.1,1.7-6.5,7.8-8.9,8.9s-5.7-3.1-10.6-2.8c1.9-6.6-4.5-5.5-6.2-9s-.3-5.2-1.3-6.7c-2-3.1-11.3-1.8-15.6-7.6s-7.1-13.6-15.6-17.4c-5-2.2-11.4-1.5-16.5-3.1s-4.8-4.5-7.9-4.6-.6,2.9-3.3,3.9c-4.1,1.6-8.7.7-11.8,1.5-5.8-8.4-2.4-19.1-5.3-28.5,2.7-.2,5.7-1.8,8.9-1.8Z"/>
    <path class="st89" d="M330.2,390.7c-.7-.5-1.2-1.4-1.8-1.8-6.7-4.1-6.9.7-11.9,1.4-10.9,1.7-15-8.7-22-11.3s-3.1,1-3.3,1c-15.8.3-11,4.3-21.3,10.7-7.6,1.1-14.2-1.5-21.3-3.6,1.3-1.5,1.4-1.6,3.5-1.8,4.9-.4,9.6,3.3,10.6,2.8,2.3-1.1,5.7-7.2,8.9-8.9,2.1-1.2,5,.9,7.1-.3,4.8-2.6,5-7.1,12.4-9.7s6.7-1.8,7.1-1.8c10.6-.7,34.9,7.3,33.7,20.4-.1,1.5-1.6,2.3-1.8,2.8Z"/>
    <path class="st119" d="M291.2,380c11.6,11.7,21.3,21.1,37.3,8.9.6.4,1.1,1.3,1.8,1.8-.5,1.7-.7,4-1.8,5.4-6.1,7.7-23.6,8.1-31.9,4.4-3.2-1.4-5.4-7.8-9.8-7.9-8.9,2.6-13,12.4-24,10.7-1.2-.6-2.4-1.2-3.5-1.8l-7.1-8.9c8.3.9,10.3,2.8,17.7-1.8,10.3-6.4,5.5-10.4,21.3-10.7Z"/>
    <path class="st115" d="M269.9,390.7c-7.4,4.6-9.5,2.7-17.7,1.8l7.1,8.9c-3.7-1.9-19.1-4.6-10.6-14.3,7.1,2.1,13.7,4.6,21.3,3.6Z"/>
    <path class="st176" d="M351.5,353.2c2.8.4,4.4.5,5.3,3.6-5.8,8.1-5,17.7,3.5,23.2-7.1,1.6-4,5-7.9,9-4.7,4.8-17.6,5.5-18.8,12.4l-5.3-5.3c1.1-1.4,1.3-3.7,1.8-5.4s1.6-1.3,1.8-2.8c1.2-13.1-23.1-21.1-33.7-20.4,2.4-7.1,7.2-2.7,11.9-4.8s9.5-10.5,19.2-4.1l.9-5.3,2.6,3.6,3.8-5.3c4.6-1,8.3,2.2,12.5,3s2.2-1.3,2.4-1.3Z"/>
    <path class="st101" d="M442,371.1c-.7,3.4-4.4-.4-5.4-1.4-14.1-13.6-40.5-24.2-60.3-17.4s-12,10.1-10.6,2.7c27.1-21.9,57-8,76.3,16.1Z"/>
    <path class="st65" d="M328.4,388.9c-15.9,12.1-25.6,2.8-37.3-8.9.2,0,.7-2,3.3-1,7,2.6,11.1,13,22,11.3,5-.8,5.2-5.6,11.9-1.4Z"/>
  </g>
</svg>