<?xml version="1.0" encoding="UTF-8"?>
<svg id="Layer_1" xmlns="http://www.w3.org/2000/svg" version="1.1" viewBox="0 0 595.3 841.9">
  <!-- Generator: Adobe Illustrator 29.1.0, SVG Export Plug-In . SVG Version: 2.1.0 Build 142)  -->
  <defs>
    <style>
      .st0 {
        fill: #a0d4d2;
      }

      .st1 {
        fill: #9593c8;
      }

      .st2 {
        fill: #eededb;
      }

      .st3 {
        fill: #e8f2d7;
      }

      .st4 {
        fill: #99d5c9;
      }

      .st5 {
        fill: #9979b7;
      }

      .st6 {
        fill: #f8ebda;
      }

      .st7 {
        fill: #8bc5cb;
      }

      .st8 {
        fill: #d1b1d3;
      }

      .st9 {
        fill: #98b1d6;
      }

      .st10 {
        fill: #a4554a;
      }

      .st11 {
        fill: #c3c6c1;
      }

      .st12 {
        fill: #8cb5cb;
      }

      .st13 {
        fill: #8b9ace;
      }

      .st14 {
        fill: #f5ddd6;
      }

      .st15 {
        fill: #e3f2ea;
      }

      .st16 {
        fill: #fafdff;
      }

      .st17 {
        fill: #904a4b;
      }

      .st18 {
        fill: #bee1c8;
      }

      .st19 {
        fill: #251c5a;
      }

      .st20 {
        fill: #190b40;
      }

      .st21 {
        fill: #160f36;
      }

      .st22 {
        fill: #652543;
      }

      .st23 {
        fill: #b1acd5;
      }

      .st24 {
        fill: #8cbecf;
      }

      .st25 {
        fill: #e2b4c7;
      }

      .st26 {
        fill: #93a9d7;
      }

      .st27 {
        fill: #1a144c;
      }

      .st28 {
        fill: #cae3f6;
      }

      .st29 {
        fill: #40164b;
      }

      .st30 {
        fill: #f7e0d5;
      }

      .st31 {
        fill: #8dbcd3;
      }

      .st32 {
        fill: #b5c5e6;
      }

      .st33 {
        fill: #8792c9;
      }

      .st34 {
        fill: #95b1cb;
      }

      .st35 {
        fill: #a8cfde;
      }

      .st36 {
        fill: #8586c1;
      }

      .st37 {
        fill: #998dc3;
      }

      .st38 {
        fill: #380f42;
      }

      .st39 {
        fill: #b4b6ce;
      }

      .st40 {
        fill: #b25c55;
      }

      .st41 {
        fill: #b0ded8;
      }

      .st42 {
        fill: #eff4d5;
      }

      .st43 {
        fill: #f7f3f9;
      }

      .st44 {
        fill: #544da0;
      }

      .st45 {
        fill: #4a2e89;
      }

      .st46 {
        fill: #b3dec9;
      }

      .st47 {
        fill: #8a8fc6;
      }

      .st48 {
        fill: #c7e4c7;
      }

      .st49 {
        fill: #9bc6ea;
      }

      .st50 {
        fill: #addccf;
      }

      .st51 {
        fill: #8aa4d4;
      }

      .st52 {
        fill: #a5c9ea;
      }

      .st53 {
        fill: #f9f5e6;
      }

      .st54 {
        fill: #372569;
      }

      .st55 {
        fill: #b4d9cc;
      }

      .st56 {
        fill: #959acd;
      }

      .st57 {
        fill: #512550;
      }

      .st58 {
        fill: #d2c4d4;
      }

      .st59 {
        fill: #acb9de;
      }

      .st60 {
        fill: #dfcdc1;
      }

      .st61 {
        fill: #f5d4c2;
      }

      .st62 {
        fill: #b0dcc6;
      }

      .st63 {
        fill: #89aed4;
      }

      .st64 {
        fill: #bce0c6;
      }

      .st65 {
        fill: #c0c7e5;
      }

      .st66 {
        fill: #b4bcd1;
      }

      .st67 {
        fill: #352972;
      }

      .st68 {
        fill: #a3a0cf;
      }

      .st69 {
        fill: #b593bb;
      }

      .st70 {
        fill: #9fb0db;
      }

      .st71 {
        fill: #fbf7eb;
      }

      .st72 {
        fill: #838bc4;
      }

      .st73 {
        fill: #8c91c8;
      }

      .st74 {
        fill: #9ecacd;
      }

      .st75 {
        fill: #b5b8dd;
      }

      .st76 {
        fill: #2b0d39;
      }

      .st77 {
        fill: #98d0cd;
      }

      .st78 {
        fill: #addbc7;
      }

      .st79 {
        fill: #dfaacb;
      }

      .st80 {
        fill: #2d0e44;
      }

      .st81 {
        fill: #aadac5;
      }

      .st82 {
        fill: #87c1c5;
      }

      .st83 {
        fill: #eff5de;
      }

      .st84 {
        fill: #a489c0;
      }

      .st85 {
        fill: #7b3c59;
      }

      .st86 {
        fill: #bbe0c5;
      }

      .st87 {
        fill: #91c4cc;
      }

      .st88 {
        fill: #e7eac5;
      }

      .st89 {
        fill: #aba6d2;
      }

      .st90 {
        fill: #a8a7d3;
      }

      .st91 {
        fill: #b9b1d8;
      }

      .st92 {
        fill: #a6cece;
      }

      .st93 {
        fill: #b0d4d0;
      }

      .st94 {
        fill: #a7d9c6;
      }

      .st95 {
        fill: #dde6c7;
      }

      .st96 {
        fill: #89c5d3;
      }

      .st97 {
        fill: #7eb6cf;
      }

      .st98 {
        fill: #7667ae;
      }

      .st99 {
        fill: #8ca0cb;
      }

      .st100 {
        fill: #e7bcd9;
      }

      .st101 {
        fill: #89bcd4;
      }

      .st102 {
        fill: #fde0e0;
      }

      .st103 {
        fill: #f5d4e0;
      }

      .st104 {
        fill: #b5b4da;
      }

      .st105 {
        fill: #9d595d;
      }

      .st106 {
        fill: #8a9fcb;
      }

      .st107 {
        fill: #f7afc6;
      }

      .st108 {
        fill: #c4cde9;
      }

      .st109 {
        fill: #a294c7;
      }

      .st110 {
        fill: #b9d0ec;
      }

      .st111 {
        fill: #b7aed6;
      }

      .st112 {
        fill: #3b286f;
      }

      .st113 {
        fill: #96cbc8;
      }

      .st114 {
        fill: #f8ded1;
      }

      .st115 {
        fill: #9094c1;
      }

      .st116 {
        fill: #e8b4cf;
      }

      .st117 {
        fill: #cac1cf;
      }

      .st118 {
        fill: #9cb3d0;
      }

      .st119 {
        fill: #95d5d0;
      }

      .st120 {
        fill: #b6c7c8;
      }

      .st121 {
        fill: #a3759f;
      }

      .st122 {
        fill: #faf7ed;
      }

      .st123 {
        fill: #482a72;
      }

      .st124 {
        fill: #ad99c9;
      }

      .st125 {
        fill: #9ea3d1;
      }

      .st126 {
        fill: #71a1d6;
      }

      .st127 {
        fill: #a2d8cd;
      }

      .st128 {
        fill: #eecbd6;
      }

      .st129 {
        fill: #bfb5d4;
      }

      .st130 {
        fill: #82a1cd;
      }

      .st131 {
        fill: #9498cc;
      }

      .st132 {
        fill: #b7dec3;
      }

      .st133 {
        fill: #615eaa;
      }

      .st134 {
        fill: #c0adad;
      }

      .st135 {
        fill: #34154e;
      }

      .st136 {
        fill: #8e98cc;
      }

      .st137 {
        fill: #c2dacb;
      }

      .st138 {
        fill: #19124a;
      }

      .st139 {
        fill: #e4b8d3;
      }

      .st140 {
        fill: #abdbc9;
      }

      .st141 {
        fill: #35256d;
      }

      .st142 {
        fill: #e4bcd9;
      }

      .st143 {
        fill: #3a256c;
      }

      .st144 {
        fill: #c9dff3;
      }

      .st145 {
        fill: #f3eff7;
      }

      .st146 {
        fill: #dfeed1;
      }

      .st147 {
        fill: #fafbf9;
      }

      .st148 {
        fill: #231049;
      }

      .st149 {
        fill: #bcc8e6;
      }

      .st150 {
        fill: #a9bcd1;
      }

      .st151 {
        fill: #6a3152;
      }

      .st152 {
        fill: #ada8d3;
      }

      .st153 {
        fill: #6757a5;
      }

      .st154 {
        fill: #909ccf;
      }

      .st155 {
        fill: #f8fae7;
      }

      .st156 {
        fill: #a5abd6;
      }

      .st157 {
        fill: #9bb7cd;
      }

      .st158 {
        fill: #e0efd4;
      }

      .st159 {
        fill: #654da0;
      }

      .st160 {
        fill: #d8eac5;
      }

      .st161 {
        fill: #aa99c9;
      }

      .st162 {
        fill: #43286b;
      }

      .st163 {
        fill: #8fa6ce;
      }

      .st164 {
        fill: #949fd0;
      }

      .st165 {
        fill: #b0c1cf;
      }

      .st166 {
        fill: #f7decb;
      }

      .st167 {
        fill: #564289;
      }

      .st168 {
        fill: #edcbcd;
      }

      .st169 {
        fill: #4c1843;
      }

      .st170 {
        fill: #c79dc8;
      }

      .st171 {
        fill: #c46f65;
      }

      .st172 {
        fill: #403971;
      }

      .st173 {
        fill: #4a2f90;
      }

      .st174 {
        fill: #371046;
      }

      .st175 {
        fill: #e3b5d4;
      }

      .st176 {
        fill: #a5d9c5;
      }

      .st177 {
        fill: #bfa9d2;
      }

      .st178 {
        fill: #8382be;
      }

      .st179 {
        fill: #95acd2;
      }

      .st180 {
        fill: #90a4d4;
      }

      .st181 {
        fill: #efcace;
      }

      .st182 {
        fill: #8ea2d3;
      }

      .st183 {
        fill: #7e7fbc;
      }

      .st184 {
        fill: #f6dbdd;
      }

      .st185 {
        fill: #fafbeb;
      }

      .st186 {
        fill: #99cbed;
      }

      .st187 {
        fill: #88a0d0;
      }

      .st188 {
        fill: #8d85bf;
      }

      .st189 {
        fill: #9788c1;
      }

      .st190 {
        fill: #5d4992;
      }

      .st191 {
        fill: #b8ddc8;
      }

      .st192 {
        fill: #b4ddc5;
      }

      .st193 {
        fill: #84d0ce;
      }

      .st194 {
        fill: #a993c5;
      }

      .st195 {
        fill: #d6b5d6;
      }

      .st196 {
        fill: #bce0c3;
      }

      .st197 {
        fill: #a9a0ce;
      }

      .st198 {
        fill: #a79dcc;
      }

      .st199 {
        fill: #8d9fd1;
      }

      .st200 {
        fill: #6e2c69;
      }

      .st201 {
        fill: #621744;
      }

      .st202 {
        fill: #8e8ec5;
      }

      .st203 {
        fill: #fcf3d8;
      }

      .st204 {
        fill: #1d114a;
      }

      .st205 {
        fill: #a0c9d0;
      }

      .st206 {
        fill: #f4dac5;
      }

      .st207 {
        fill: #c3a4ce;
      }

      .st208 {
        fill: #1a0e36;
      }

      .st209 {
        fill: #89b0ce;
      }

      .st210 {
        fill: #734f97;
      }

      .st211 {
        fill: #634c9f;
      }

      .st212 {
        fill: #9ab5de;
      }

      .st213 {
        fill: #bbb0cb;
      }

      .st214 {
        fill: #9bd6c7;
      }

      .st215 {
        fill: #f6e3e2;
      }

      .st216 {
        fill: #613479;
      }

      .st217 {
        fill: #f5dcd0;
      }

      .st218 {
        fill: #d3acd1;
      }

      .st219 {
        fill: #9369ab;
      }

      .st220 {
        fill: #a9dac6;
      }

      .st221 {
        fill: #a8dac5;
      }

      .st222 {
        fill: #c2e1f6;
      }

      .st223 {
        fill: #84bbd1;
      }

      .st224 {
        fill: #f5c2c9;
      }

      .st225 {
        fill: #573a96;
      }

      .st226 {
        fill: #849acf;
      }

      .st227 {
        fill: #fcf7ef;
      }

      .st228 {
        fill: #8cced5;
      }

      .st229 {
        fill: #edaac6;
      }

      .st230 {
        fill: #d7d3cc;
      }

      .st231 {
        fill: #ace0f4;
      }

      .st232 {
        fill: #d0e0c4;
      }

      .st233 {
        fill: #989dce;
      }

      .st234 {
        fill: #c9e9f0;
      }

      .st235 {
        fill: #fcd7d1;
      }

      .st236 {
        fill: #c8e4c4;
      }

      .st237 {
        fill: #f9c1c7;
      }

      .st238 {
        fill: #482e8a;
      }

      .st239 {
        fill: #f8b9ca;
      }

      .st240 {
        fill: #a7a8d4;
      }

      .st241 {
        fill: #190f34;
      }

      .st242 {
        fill: #c8cbc3;
      }

      .st243 {
        fill: #edf4d7;
      }

      .st244 {
        fill: #d2cfd1;
      }

      .st245 {
        fill: #a7c1e5;
      }

      .st246 {
        fill: #919acd;
      }

      .st247 {
        fill: #c8d1cb;
      }

      .st248 {
        fill: #afd9cd;
      }

      .st249 {
        fill: #83a9d2;
      }

      .st250 {
        fill: #d7a2ca;
      }

      .st251 {
        fill: #c1e2c4;
      }

      .st252 {
        fill: #301a57;
      }

      .st253 {
        fill: #844e9e;
      }

      .st254 {
        fill: #a6b3d0;
      }

      .st255 {
        fill: #b8c2cd;
      }

      .st256 {
        fill: #a0d8cb;
      }

      .st257 {
        fill: #a7d9bf;
      }

      .st258 {
        fill: #774380;
      }

      .st259 {
        fill: #bce4f9;
      }

      .st260 {
        fill: #f6e4c6;
      }

      .st261 {
        fill: #a3c2d0;
      }

      .st262 {
        fill: #d6eacd;
      }

      .st263 {
        fill: #400e3d;
      }

      .st264 {
        fill: #b8abc5;
      }

      .st265 {
        fill: #6d374b;
      }

      .st266 {
        fill: #b0d8f3;
      }

      .st267 {
        fill: #8aa5ce;
      }

      .st268 {
        fill: #5c3b8b;
      }

      .st269 {
        fill: #8bc1cb;
      }

      .st270 {
        fill: #bca4cf;
      }

      .st271 {
        fill: #929ac9;
      }

      .st272 {
        fill: #b6ddf5;
      }

      .st273 {
        fill: #8493ca;
      }

      .st274 {
        fill: #abdbc8;
      }

      .st275 {
        fill: #8f95ca;
      }

      .st276 {
        fill: #9b89c0;
      }

      .st277 {
        fill: #aadbde;
      }

      .st278 {
        fill: #86c3cc;
      }

      .st279 {
        fill: #7760aa;
      }

      .st280 {
        fill: #8abad4;
      }

      .st281 {
        fill: #452c83;
      }

      .st282 {
        fill: #e6cacb;
      }

      .st283 {
        fill: #9b93c7;
      }

      .st284 {
        fill: #837dbb;
      }

      .st285 {
        fill: #a2d8cb;
      }

      .st286 {
        fill: #a4c8cd;
      }

      .st287 {
        fill: #7b4361;
      }

      .st288 {
        fill: #f5d1b7;
      }

      .st289 {
        fill: #8fc8d2;
      }

      .st290 {
        fill: #f7b5c8;
      }

      .st291 {
        fill: #d1b9d2;
      }

      .st292 {
        fill: #e3bbd0;
      }

      .st293 {
        fill: #94d4cc;
      }

      .st294 {
        fill: #f8fae6;
      }

      .st295 {
        fill: #88abd6;
      }

      .st296 {
        fill: #9cb7df;
      }

      .st297 {
        fill: #f3f7dd;
      }
    </style>
  </defs>
  <g>
    <path class="st169" d="M452.3,115.7c.5.4,1,1.2,1.6,1.6,1.9,1.3,4.7,2,6.4,3.3,24.5,18.6,36.4,37.2,54.7,60.6,4.4,9.8,9.4,19.3,14,29.1,2,4.2,5,8.7,6.9,13.5,5,12.7,9.7,27.2,9.7,41,0,3.9-1.6,6.2-1.6,6.6-6.1-34.2-19.6-66.4-38.6-95-8.3-12.5-17.1-25.1-29-34.4-5.1-8.7-17.1-16.4-24.7-23.2-2.5-2.3-5.1-3.2.5-3Z"/>
    <path class="st29" d="M544,341.8c-.2,2.2-1.1,5.7-1.6,8.2-5.4,27.6-22.2,48.7-41.8,67.2v-3.3c4.6-4.5,11.9-14.2,16.1-19.7,11.1-14.7,13.8-21.9,19.3-39.3.5-1.7,1-4.4,1.6-6.6.5-1.7,1.3-3.5,1.6-4.9.4-1.8,2.5-4.5,3.2-8.2,2.2,1,1.8,4.5,1.6,6.6Z"/>
    <path class="st265" d="M114.3,232.1c5.1-.6,2.9,1.5,2.1,4.6-4.1,15.1-9.4,30.3-8.5,46.2v47.5c-1.6-7-2.7-14.1-4.4-21.1s.9-6.1-3.7-5.2c0-.5,0-1.1,0-1.6.8-24,5.4-44.5,12.9-67.2.4-1.1,1.2-2.2,1.6-3.3Z"/>
    <path class="st17" d="M135.2,186.2c5-.6,3.3,1.3,2,4.5-3.4,8-11.1,15.6-11.6,25-6.9,14.7-10.4,31.3-12.9,47.5l-4.8,19.7c-.9-15.9,4.4-31.1,8.5-46.2.8-3.1,3-5.2-2.1-4.6,4.7-13.5,9.1-25.1,16.1-37.7,1.6-2.8,3.2-5.5,4.8-8.2Z"/>
    <path class="st10" d="M170.6,143.6c-.2.9.2,2.2,0,3.3-13.6,12.6-21.4,28.6-30.6,44.2-4.6,7.8-10.6,16.4-14.5,24.6.5-9.4,8.2-17,11.6-25,1.3-3.1,3-5.1-2-4.5,1-1.7,2.2-3.3,3.2-4.9s2.1-1.6,3.2-3.3c4-6.1,8.3-12.1,11.3-18.8l14.5-15.6c.9-.2,2.2.2,3.2,0Z"/>
    <path class="st57" d="M544,341.8c.2-2.1.6-5.5-1.6-6.6,4.2-21.7,2.2-42.4,1.6-63.9,0-.3,1.6-2.6,1.6-6.6,6.7,24.4,6,52.8-1.6,77Z"/>
    <path class="st216" d="M544,271.4c.6,21.5,2.6,42.2-1.6,63.9-.7,3.7-2.8,6.4-3.2,8.2l3.2-22.1v-44.2c0-4.7-3.1-12.8-4.8-17.2-3.7-27.2-16.6-56.3-32.2-78.6-.2-1,.1-2.2,0-3.3v-1.6c19,28.7,32.5,60.8,38.6,95Z"/>
    <path class="st85" d="M400.8,89.5c20.4,7,33.6,14.2,51.5,26.2-5.6-.2-3.1.7-.5,3,7.6,6.8,19.5,14.5,24.7,23.2l-20.9-14.7c-.6-1-.9-2.4-1.6-3.3-10.5-14.1-41-26-57.1-32.8l4-1.6Z"/>
    <path class="st258" d="M505.4,176.4v1.6c-10.3-9.4-15.6-23.2-27.4-31.1-1.1-1.5-1-3.9-1.6-4.9,11.9,9.3,20.7,21.9,29,34.4Z"/>
    <path class="st231" d="M511.8,374.6c-2.2,5.3-7.9,11.6-11.8,15.8-14.9,16-31.2,24.9-46.9,38.3s-15.9,18.2,4.4,9.4c7.1-3.1,12.8-9.2,20.5-11.1-8.2,6-13.9,10-23.1,15-2.2,1.2-5.1.7-4.2,4.6-1.1,0-2.2,0-3.2,0-4.1.4-4.9-.7-11.3,1.6l-11.3-1.7c-1.7-2,6.2-10.3,8.1-12,14.4-12.6,35-19.9,50.7-33.8,7.5-6.6,16.4-19.5,23.3-24.6,3.7-2.7,3.9-1.4,4.8-1.6Z"/>
    <path class="st67" d="M516.7,394.3c-4.2,5.5-11.5,15.2-16.1,19.7-7.8,7.6-40.3,31.9-49.9,32.8-.9-4,2-3.4,4.2-4.6,9.2-5,14.9-9,23.1-15,16.3-11.9,25.6-20.4,37-37.7l1.6,4.9Z"/>
    <path class="st104" d="M537.6,259.9c1.7,4.4,4.8,12.5,4.8,17.2v44.2l-3.2,22.1c-.3,1.4-1.1,3.2-1.6,4.9l-1.6-3.3c.2-1-.1-2.2,0-3.3,4.3-7.4,2.7-16.6,3.2-24.6,0-.4,1.6-2.6,1.7-5.5.3-10.3-1-20.3-1.7-30.5-2.4-.4-2,3.1-2.4,4.9-2.2,9.8-3.4,19.6-5.6,29.5-1.7-3.9,1.6-10.1,1.6-12.3v-32.8c0-1.2-4.6-20.3-5.3-22.4-1.1-3.3-4.6-9.1-7.6-11.1,0-.5,0-1.1,0-1.6.4-2.9.3-3.4,3.2-4.9,7.8,12.1,9.2,15.7,14.5,29.5Z"/>
    <path class="st112" d="M516.7,394.3l-1.6-4.9c.7-1,1-2.3,1.6-3.3,4,.3,4.1-2.5,5.7-4.9,5.6-8.3,8.6-17.7,13.6-26.2-5.5,17.4-8.2,24.6-19.3,39.3Z"/>
    <path class="st108" d="M537.6,348.4c-.6,2.1-1.1,4.9-1.6,6.6-5,8.5-8.1,18-13.6,26.2-1.6,2.4-1.7,5.1-5.7,4.9.6-1,1-2.2,1.6-3.3,6.1-10.5,15.3-25.8,17.7-37.7l1.6,3.3Z"/>
    <path class="st263" d="M99.8,304.2c4.6-1,3,2.3,3.7,5.2,1.6,7,2.7,14,4.4,21.1,3.1,13.5,6.5,26.3,11.3,39.3,6.9,18.8,14.4,33,28.3,47.3,13,13.4,29.1,23.4,45.7,31.3-.8-.1-4.6,1.1-6.4,0l1.8,5.5c-.1,1.7-3.2.8-3.4,1,.1-1.7-.4-2.3-1.6-3.3s-3.4-2.3-4.8-3.3c-8-5.4-15.9-9.7-23.4-16.3s-2.8-6.4-8.8-8.3c-4.7-8.4-11.9-14.5-17.4-22.4-12.6-18-20.4-36.6-26-57.9-3.8-14.1-3.5-24.8-3.2-39.3Z"/>
    <path class="st105" d="M362.2,79.7c8.2,1,19.4,2.8,27.4,4.9,2.7.7,8.1,3.8,11.3,4.9l-4,1.6c16.1,6.7,46.7,18.6,57.1,32.8-16.7-8.3-31-22.6-49.9-26.2-10-6.6-23.6-9.4-35.4-11.5-4.6-4-11.8-3.4-17.7-4.1s-7.3-.8-3.2-2.5c4.7.4,10-.6,14.5,0Z"/>
    <path class="st175" d="M109.5,314c.3,6.9.9,17.1,3.2,23.4s2.8.8,3.2,1.1c1.5,1.2,2.7,2.8,4.8,3.3.9,6.5,2,6.1,3.2,9.8s-.5,5.9,1.6,8.2c-.4,0-1.2,1.6-1.6,1.6-.7,0-2.8-2.9-4.8.8,2.8,3.1,2.2,7.4,3.2,10.7l-3.2-3.3c-4.8-13.1-8.1-25.8-11.3-39.3v-47.5l4.8-19.7c-2.5,16.3-4,34.3-3.2,50.8Z"/>
    <path class="st14" d="M141.7,191.1c-15.5,27.7-28.2,61.3-28.2,93.4,7.9-6.8,3.6-20.3,10.5-27.8-3.9,17.9-7.6,36.1-11.3,54.1-.4,1,.3,3.5,0,4.9l-3.2-1.6c-.8-16.5.8-34.5,3.2-50.8,2.5-16.2,5.9-32.8,12.9-47.5s9.9-16.8,14.5-24.6h1.6Z"/>
    <path class="st40" d="M220.5,105.9c-.4,1.5,2,0-3.2,4.9-8.9,8.4-20.5,15.4-30.6,24.6s-7,5.5-9.7,8.2c-2.4.4-4.7,1.7-6.4,3.3.2-1-.2-2.4,0-3.3,1.6-5.7,13.7-12.4,17.7-16.4s3.3-4.6,4.8-6.6c8.8-.9,17.1-11.8,24.1-14.7.7-.3,2.2.2,3.2,0Z"/>
    <path class="st288" d="M177.1,143.6c-13.7,14.1-25.7,30.3-35.4,47.5h-1.6c9.2-15.7,17-31.6,30.6-44.2,1.7-1.6,4.1-2.9,6.4-3.3Z"/>
    <path class="st195" d="M447.5,135.4c16.9,7,30.5,19.4,42.7,32.8,2.4-7.2-7.5-12.6-10.5-17.2s-1.2-3.6-1.5-4.1c11.7,7.9,17.1,21.8,27.4,31.1.1,1-.2,2.3,0,3.3,1.7,7.9,7.1,14.5,10,21.8,1.3,3.1,3.1,5-2,4.4-11.7-29.7-36.5-48.4-61.2-67.2-1.4-1-2.9-3.5-4.8-4.9Z"/>
    <path class="st177" d="M537.6,259.9c-5.3-13.8-6.7-17.4-14.5-29.5s-1.3-6.3-1.8-9.7h-4.6c2.5-9.1-.9-7.4-3.3-13.2,5,.6,3.2-1.3,2-4.4-2.9-7.3-8.3-13.9-10-21.8,15.6,22.4,28.5,51.5,32.2,78.6Z"/>
    <path class="st100" d="M433,125.6c10.4.7,19,12.1,29,10.7-3.5-2.3-4.4-6-6.4-9l20.9,14.7c.6,1,.5,3.4,1.6,4.9s.5,2.5,1.5,4.1c3.1,4.6,12.9,9.9,10.5,17.2-12.2-13.4-25.7-25.8-42.7-32.8-3.7-2.8-10.7-7.9-14.5-9.8Z"/>
    <path class="st184" d="M453.9,123.9c.7.9,1,2.3,1.6,3.3,2,3,3,6.7,6.4,9-10,1.5-18.6-9.9-29-10.7-2.1-1.1-4.2-2.3-6.4-3.3-13.9-8.5-32.2-14.6-48.3-16.4-1.8-1.2-6-2.8-8-3.3,23.6,1.2,45.5,11.8,67.6,19.6-5.4-10.4-24.6-20.2-35.4-24.6h1.6c18.9,3.7,33.1,17.9,49.9,26.2Z"/>
    <path class="st26" d="M151.3,384.4c3.3,1,9.6,7.3,12.9,9.8,10.6,8.4,13.9,13.4,29,18,7,6.6,21.9,7.9,25.8,16.4h3.1c0,0,.8-3.2.8-3.2,1.6,1.7,3.3,3.3,5.6,4.2,9.7,3.6,31.4,8.6,43,9.8,6.7.7,16.9-1.6,21.8-.6,3,.6,6.4,4.2,8.7,4.4s3.5-2.7,5.9-2.7,8.2,3.5,11.3,2.9c1.2-.2.9-3.2,1.9-3.3,17.7-1,34.5,2.3,51.4,1.8s48.4-13.5,65.2-21.4c.6,6.1-8.4,5.4-10.8,7s-1.6,3.9-3.6,5.3c-4.9,3.1-11.7,4.8-17,7.3l2.4,10.8,16.2-.9c2.7,0,5.4,0,8,0-1,.3-2.4,2-4.7,2.6-19.9,5.4-41.2-1.7-59.7,5.6-4.8.7-7.4,2.3-11.3,3.3-6.2,1.5-12.7,2.6-19.7,3.6-42.1,6.5-77.2-7.1-118.3-13-3.9-.6-7.7-.6-11.6-.5-2-.9-4.9-.5-6.4-3.3,2.5.6,6.7-.1,9.7,0,5.7.3,8.2,2.4,15.6-1.3,14.4-7.2.2-9.1-4.3-11.1-4-1.8-6.6-6-9.9-7.9-6.8-3.9-13.7-5.5-20.7-9.2-15.7-8.3-30.5-21.3-43.5-34.4,1,.2,2.4-.3,3.2,0Z"/>
    <path class="st186" d="M507,374.6v1.6c-6.9,5.1-15.8,18-23.3,24.6-15.7,14-36.3,21.3-50.7,33.8-1.9,1.6-9.8,10-8.1,12l11.3,1.7c-.9.3-1.8,1.2-3.2,1.6-2.7,0-5.4,0-8,0s-5.2.4-7.8-.2l-1.5-4.2c11.1-15.2,32.1-24.3,47.9-34.9,13.9-9.3,26.3-20.9,37-34.4l6.4-1.6Z"/>
    <path class="st234" d="M515,373l2.9.2c-1.1,3.4-2.1,6.5.3,9.6-.6,1-1,2.3-1.6,3.3s-1,2.3-1.6,3.3c-11.4,17.3-20.7,25.8-37,37.7-7.7,1.9-13.4,8.1-20.5,11.1-20.3,8.7-17.2,1.5-4.4-9.4s32-22.3,46.9-38.3c3.9-4.2,9.6-10.5,11.8-15.8,1.6-.4,2.1.3,3.2-1.6Z"/>
    <path class="st272" d="M531.1,341.8c-.2,3.4-8.2,22.2-9.9,24.3-.3.4-1.3-2.2-6.2,6.8s-1.6,1.2-3.2,1.6-1.1-1.1-4.8,1.6v-1.6c3.4-5.6,7.6-10.9,11.3-16.4,4.9-7.3,9.2-13.1,12.9-21.3,0,1.6,0,3.3,0,4.9Z"/>
    <path class="st233" d="M468.4,164.9c.9.4,4.1-.5,6.3.9,7.2,4.5,20.6,20.2,25.3,27.5,8.3,12.9,11.5,29.2,19.9,42,0,.5,0,1.1,0,1.6.2,5.6,2,11,3.2,16.4h-3.2c-.8-4.7-7.3-19.8-9.7-24.6-4.3-8.7-9.7-7.2-13.8-13s-1.4-9.8-7.1-9.9c-.6-4.9-10-24.8-13-29.8s-6.7-6.1-7.9-7.9.2-2.3,0-3.3Z"/>
    <path class="st111" d="M452.3,140.3c24.7,18.8,49.4,37.5,61.2,67.2,2.3,5.8,5.7,4.1,3.3,13.1h4.6c.5,3.5-.2,6.8,1.8,9.9-2.9,1.6-2.9,2-3.2,4.9-8.4-12.8-11.6-29.2-19.9-42-4.8-7.3-18.1-23.1-25.3-27.5-2.2-1.4-5.4-.5-6.3-.9s-5.1-6.6-7.2-8.2c-8.1-6.1-17-12-24.9-18-1-.8-2.1-3.7-3.2-4.9,6.1,2.4,13.4,2.7,19.3,6.6Z"/>
    <path class="st240" d="M531.1,315.6c-2,8.7-3.5,16-6.4,24.6-1,1.9-3.9,3.5-4.8,4.9l-1.6-1.6c.2-.5,1.4-4,1.6-4.9,12-22.5,10.7-56.3,5.8-80.8-.4-1.9-2.4-3.4-2.6-4.4-1.2-5.4-3-10.8-3.2-16.4,3,2.1,6.5,7.9,7.6,11.1s5.3,21.3,5.3,22.4v32.8c0,2.2-3.3,8.4-1.6,12.3Z"/>
    <path class="st32" d="M539.2,317.3l-1.7-.9c-1.6,5.9-4,15.2-6.4,20.6-3.7,8.2-8,14-12.9,21.3-1.9-6.6,4.5-8.5,6.1-12.7.7-1.9,0-4.3.3-5.3,2.9-8.6,4.5-15.8,6.4-24.6,2.2-9.9,3.4-19.7,5.6-29.5.4-1.8,0-5.3,2.4-4.9.8,10.2,2.1,20.2,1.7,30.5s-1.7,5.1-1.7,5.5Z"/>
    <path class="st28" d="M536,341.8c-.1,1.1.2,2.3,0,3.3-2.4,11.8-11.6,27.2-17.7,37.7-2.4-3.1-1.4-6.2-.3-9.6l-2.9-.2c4.9-8.9,5.9-6.3,6.2-6.8,1.7-2.2,9.7-21,9.9-24.3l4-6.6c1.4,0,1,5,.8,6.6Z"/>
    <path class="st108" d="M539.2,317.3c-.5,8,1.1,17.2-3.2,24.6.2-1.6.6-6.5-.8-6.6l-4,6.6c0-1.6,0-3.3,0-4.9,2.4-5.3,4.8-14.7,6.4-20.6l1.7.9Z"/>
    <path class="st162" d="M122.4,373c6.6,22.3,32.8,51.7,53.1,62.3,5.6,5.4,18.2,11.4,25.7,13.1,1.5,2.7,4.4,2.4,6.4,3.3s1.1,1.4,1.6,1.6l1.5,3.1c-.9.4-2.8-.1-3.1.1-9.7-4.7-9.8,1.1-15.3,5s-3.7,1.3-4,1.6c3.7-5.1,7.6-10.9,14.5-9.8-1.1-3.4-6.5-4.4-9.7-4.9-16.6-7.9-32.7-17.9-45.7-31.3-13.9-14.4-21.5-28.5-28.3-47.3l3.2,3.3Z"/>
    <path class="st171" d="M315.5,78.1c11.2-.4,21.6.8,32.2,1.6-4.2,1.7,2,2.3,3.2,2.5,5.9.7,13.1.1,17.7,4.1-52.9-9.2-104.4-1.8-151.3,24.6,5.2-4.9,2.9-3.4,3.2-4.9,1-4.2,42.2-18.7,48.3-22.9,14.9-2,31.7-4.3,46.7-4.9Z"/>
    <path class="st166" d="M368.6,86.3c11.8,2,25.4,4.9,35.4,11.5h-1.6c-10.7-4.3-25.6-7.9-37-8.2-1.8-.5-5.8-1.2-8-1.6-10.7-2.1-31.2-3.4-42.6-3.4s-14.9,2-20.1,3.4c-39.1,1.9-76.6,25.7-107.8,47.5,10.1-9.2,21.7-16.2,30.6-24.6,46.9-26.3,98.4-33.7,151.3-24.6Z"/>
    <path class="st222" d="M124,361.5c5,6,8.6,13.1,12.9,19.7,3.9,6.1,8.7,11.2,12,16.5s.3,5,1.2,6.1c2.4,3,20.4,13.4,24.6,16.7,7.5,6.1,17.6,14.2,21.7,22.9-6.6-2.6-14.6-4.9-20.9-8.2-20.3-10.5-46.6-40-53.1-62.3-1-3.3-.4-7.6-3.2-10.7,2-3.7,4.1-.7,4.8-.8Z"/>
    <path class="st229" d="M156.2,291.1c-4.7,3-13.2,2.3-17,4.8s-9.8,16-10.3,19.1c-1.8,13,10.8,23.7,20.8,28.5,1.5.7,2.5,1.8,3.2,3.3-2.5-.6-7.2-1.2-9.7,0-2.8-1.8-6-2.7-8.9-4.9s-9.2-14.6-13.9-7.1c-1.5,2.3-.1,4.8.2,7.1-2.1-.5-3.3-2.1-4.8-3.3-3.5-17,5.4-31.8,8-47.5,4.6,21.7,6.6,6.8,15.5,1.9s10.5-2.4,15.1-5.1c0,.3,1.2,1.8,1.6,3.3Z"/>
    <path class="st207" d="M124,351.7c6.8.3,14.7-1.3,20.8,2.6s1.4,3.9,2.6,4,5.8-1.5,8.7-1.7c2.1-.1,4.3,0,6.5,0l-1.6,3.3c2.4.9,3.7-1.4,4.8-1.6,1.5,1.4,4.5,3,6.4,3.3v3.3c-3.3,0-6.4,1.7-9.7,1.6-10.8-.3-21.1-3.8-32.2-4.9-1.8-.2-4-1.6-4.8-1.6-2.1-2.3-1-6.2-1.6-8.2Z"/>
    <path class="st250" d="M120.8,341.8c-.3-2.3-1.6-4.7-.2-7.1,4.7-7.5,10.8,4.6,13.9,7.1s6,3.1,8.9,4.9,1.1,2.2,2.6,3.1c3.1,1.8,11,1,10.2,6.7-2.9.2-7.7,1.8-8.7,1.7s-1.4-3.2-2.6-4c-6.1-4-14-2.3-20.8-2.6-1.2-3.7-2.4-3.4-3.2-9.8Z"/>
    <path class="st224" d="M125.6,266.5c-.8,7.4-.4,17.6-1.6,24.6-2.6,15.7-11.6,30.5-8,47.5-.4-.3-2.4,1-3.2-1.1-2.3-6.4-2.9-16.5-3.2-23.4l3.2,1.6c.3-1.4-.4-3.9,0-4.9,1.4-3.4,4.6-6.3,6-11.1,3.4-11.6,2.5-24.9,6.9-36.4-.1,1.1.1,2.2,0,3.3Z"/>
    <path class="st75" d="M130.4,361.5c1.6,3.5,4.3,9.6,6.4,12.4s6.4,7.2,8,8.9v3.3h-1.6c-1.2-1.5-4.8-3.4-6.4-4.9-4.2-6.5-7.9-13.7-12.9-19.7.4,0,1.2-1.6,1.6-1.6.8,0,3.1,1.5,4.8,1.6Z"/>
    <path class="st147" d="M294.6,87.9c16.3-.8,38.1-.1,54.4,1.2s5.5.9,8.3-1.2c2.2.4,6.2,1.2,8,1.6,5.4,1.4,11.1,3.1,16,5.9s4.2-.6,3.3,4c-12.6,1.4-25.4-2.7-37.7-3.3-25.5-1.3-50.5,2.8-74.9,9.9-2.2.5-6.8,2.4-9.7,3.3-6.3,2-12.1,4.7-17.7,8.2-16.7,3-33.7,19.7-46.7,29.5-34.6,26.1-64.2,65.1-74,109.8-6.8,7.6-2.6,21-10.5,27.8,0-32.1,12.6-65.7,28.2-93.4,9.7-17.2,21.7-33.5,35.4-47.5,2.6-2.7,6.8-5.6,9.7-8.2,31.2-21.8,68.7-45.6,107.8-47.5Z"/>
    <path class="st217" d="M198,146.9v1.6c-10.3,6.2-23.6,22-31.2,31.3-17.4,21.4-38.1,55.8-41.2,83.4-4.4,11.5-3.5,24.8-6.9,36.4s-4.6,7.8-6,11.1c3.7-18,7.3-36.1,11.3-54.1,9.8-44.7,39.5-83.6,74-109.8Z"/>
    <path class="st291" d="M426.5,122.3c2.2,1,4.3,2.2,6.4,3.3,3.8,1.9,10.8,7,14.5,9.8s3.5,3.9,4.8,4.9c-5.9-3.8-13.3-4.2-19.3-6.6-10.3-4-21.2-8.9-32.2-13.1-7.5-2.9-8.6-5.9-19.3-6.6,1.6-2.6,6.3-1.9,8.9-1.7,9.7.7,27.1,5.9,36.2,9.9Z"/>
    <path class="st53" d="M402.4,97.7c10.8,4.3,30,14.2,35.4,24.6-22.1-7.8-44-18.5-67.6-19.6-15.1-3.4-31.2-3.5-46.7-3.3-14.2-1.5-27.6,3.6-41.2,6.4-3.3.7-7.5-.5-10.3.2,24.4-7.1,49.4-11.2,74.9-9.9,12.3.6,25.1,4.7,37.7,3.3.9-4.5-1.2-2.8-3.3-4-5-2.8-10.6-4.5-16-5.9,11.4.2,26.3,3.9,37,8.2Z"/>
    <path class="st61" d="M370.2,102.6c2,.5,6.2,2.1,8,3.3-9.3-1-22-3.1-25.7,8.2-2.5,0-5.7.8-8,1.6-1.7-2.8-4.4-3-7.2-3.3-4.9-.5-16.2-.5-20.6-1.9s-5.4-6.4-10.8-4.6c0-8.3,13.3-2.4,17.7-6.5,15.4-.2,31.6-.2,46.7,3.3Z"/>
    <path class="st282" d="M378.3,105.9c16.1,1.8,34.4,7.8,48.3,16.4-9.1-4-26.4-9.2-36.2-9.9s-7.3-.8-8.9,1.7c-7.8-.5-13.8,1.3-20.9,1.6s-5.8-1.6-8-1.6c3.7-11.3,16.5-9.2,25.7-8.2Z"/>
    <path class="st13" d="M180.3,386.1c24.8,6,52.2,16.7,78.2,21.2,15.8,2.7,38.4,3.8,54.6,4.6,9.8.5,28.1,1.9,36.2-.4,21.5-6.1,45.3-7.5,66.4-16,4.8-1.9,8.7-7.8,12.4-4.5-3.1,3.4-5.4,11.1-7.9,13.6-3.7,3.7-17.7,4.9-16.2,14.3,12.7,3.5,17.7-4.5,27.3-7.4,15.8-4.8,27.4-9.8,41.9-18.8l-1.6,4.9c-5.9,4.2-12.9,7.5-17.7,13.1-2.5.6-6.9,3.6-9.7,4.9-9.2-2.6-13.8,4.3-20,6.7-1.7.7-13.9,4.7-14.6,4.7-2.7,0-5.1-2.9-6.5-2.8s-2.9,3.7-5.1,4.3c-2.4.6-7.3-1.8-11-1.6-3.1.2-1.7,3.5-4.7,3.7-22.3,1.3-45.8.5-67.4,6.4-1.4.4-1,3.6-1.8,3.3-21.8-7.2-45.4-8-68.6-12.4-16.6-3.2-34.2-10.3-51.3-15.4-15.1-4.6-18.4-9.6-29-18,2.3-4.8,11.2-9.4,16.1-8.2Z"/>
    <path class="st154" d="M193.2,412.3c17.1,5.2,34.7,12.3,51.3,15.4,23.2,4.4,46.8,5.2,68.6,12.4.9.3.4-2.9,1.8-3.3,21.6-5.9,45.1-5.1,67.4-6.4,3-.2,1.6-3.5,4.7-3.7,3.7-.2,8.6,2.2,11,1.6,2.2-.6,3.7-4.2,5.1-4.3s3.8,2.9,6.5,2.8,12.9-4.1,14.6-4.7c6.1-2.4,10.8-9.3,20-6.7-1,.5-3.9,3.7-6.4,4.9-16.8,7.9-47.3,20.8-65.2,21.4s-33.7-2.8-51.4-1.8c-1,0-.7,3.1-1.9,3.3-3.1.6-9.6-2.9-11.3-2.9-2.4,0-3.8,2.8-5.9,2.7s-5.7-3.7-8.7-4.4c-4.9-1-15.1,1.3-21.8.6-11.6-1.2-33.3-6.2-43-9.8-2.2-.8-3.9-2.5-5.6-4.2l-.8,3.2h-3.1c-3.9-8.4-18.8-9.7-25.8-16.3Z"/>
    <path class="st52" d="M183.5,417.2c7.3,4.8,23.1,13.2,28.5,18.5s3.7,8,3.8,8.5l-4.9,4.2c-2.9-.1-7.2.6-9.7,0-7.5-1.7-20.1-7.7-25.7-13.1,6.3,3.3,14.3,5.6,20.9,8.2,1.7.7,4.1,4.8,8,3.3l-1.5-9.1c-20.5-15.5-40-26.9-57.4-46.5-1.7-1.9-1.8-4.4-2.3-5h1.6c11.6,14.6,24.1,21.5,38.6,31.1Z"/>
    <path class="st198" d="M162.6,366.4l9.7,11.5c-7.2-1.1-9.2-1.7-15.5-.6s-9-3-5.4,7.2c-.8-.3-2.2.2-3.2,0-.7-.7-2.6-1-3.2-1.6-1.6-1.7-7.1-7.6-8-8.9-2.1-2.8-4.8-8.9-6.4-12.4,11.1,1.2,21.4,4.6,32.2,4.9Z"/>
    <path class="st212" d="M191.6,418.9c7.1,3.7,13.9,5.3,20.7,9.2,3.3,1.9,5.9,6.1,9.9,7.9,4.4,2,18.6,3.9,4.3,11.1-7.4,3.7-10,1.6-15.6,1.3l4.9-4.2c0-.5-3.4-8.1-3.8-8.5-5.4-5.3-21.2-13.7-28.5-18.5l8,1.6Z"/>
    <path class="st296" d="M463.5,410.7c-15.9,10.6-36.9,19.7-47.9,34.9l1.5,4.2c2.5.6,5.2.2,7.8.2l-16.2.9-2.4-10.8c5.3-2.5,12.1-4.2,17-7.3,2.1-1.3,2.5-4.5,3.6-5.3,2.5-1.6,11.4-.9,10.8-7,2.6-1.2,5.4-4.4,6.4-4.9,2.7-1.3,7.2-4.3,9.7-4.9s6.7.4,9.7,0Z"/>
    <path class="st164" d="M172.3,377.9c4.3.6,8.6,1.3,12.9,1.6-1.2,1.7-1.2,4.3-1.9,6.3l-3,.3c-4.9-1.2-13.8,3.4-16.1,8.2-3.2-2.6-9.6-8.8-12.9-9.8-3.6-10.2.7-6.4,5.4-7.2s8.3-.4,15.5.6Z"/>
    <path class="st212" d="M148.1,384.4c12.9,13.1,27.7,26.1,43.5,34.4l-8-1.6c-14.6-9.7-27-16.6-38.6-31.1v-3.3c.6.7,2.5.9,3.2,1.6Z"/>
    <path class="st26" d="M519.9,345.1c-6.9,9.7-11.1,20.7-19.3,31.1-10.7,13.5-23.1,25.1-37,34.4-2.9.4-7-.6-9.7,0,4.8-5.6,11.8-9,17.7-13.1,10.5-7.4,22.7-14.9,27.4-27.9,3.4-4,17.6-22.3,19.3-26.2l1.6,1.6Z"/>
    <path class="st49" d="M518.3,358.2c-3.7,5.5-7.8,10.8-11.3,16.4l-6.4,1.6c8.2-10.4,12.4-21.4,19.3-31.1s3.8-3,4.8-4.9c-.4,1.1.4,3.5-.3,5.3-1.6,4.2-8,6-6.1,12.7Z"/>
    <path class="st47" d="M510.2,228.8c2.4,4.8,8.9,19.9,9.7,24.6,1.6,9.5,5.4,19.4,6.3,28.9,1.4,14.7-3.2,36.5-6.3,51.4-3.1,5.5-11.8,12.5-14.3,17.4-3.6,7.2,1.1,9.8-9.1,13.7l-.8-8.2c2.1-3.4,8.7-15.6,9.5-19,1.1-4.8.3-23.5-3.1-26.9,3.3-21.6,9.7-45.2,8.1-66.3-.3-3.6-1.6-7.4-2.2-11s-3-5.3,2.2-4.7Z"/>
    <path class="st106" d="M489.3,205.9c5.8.1,4.3,6,7.1,9.9,4.1,5.8,9.5,4.3,13.8,13-5.2-.7-2.7,1.6-2.2,4.7s1.9,7.4,2.2,11c1.6,21.1-4.8,44.7-8.1,66.3-.4-.4-8.1-4.4-9.7-4.9-.3-2.5.5-5.9,0-8.2-1-4.8,4.1-9.1,4.5-12.6,2.2-17.6-.7-36-6.1-52.9-1-8.2-.6-18.3-1.6-26.2Z"/>
    <path class="st34" d="M468.4,168.2c1.2,1.8,6.7,5.7,7.9,7.9,3,5,12.4,25,13,29.8,1,7.9.7,18,1.6,26.2-1.1-3.3-1.5-8.2-2.4-9.8-.6-1.1-9.7-7.9-12.1-8.2-2.5-12.8-4.6-31-12.9-41-.9-3.7,2-3.8,4.8-4.9Z"/>
    <path class="st150" d="M468.4,164.9c.2.9-.3,2.8,0,3.3-2.8,1.1-5.7,1.2-4.8,4.9-3-3.6-7.4-5.8-8-6.6-6.2-7-15.6-21.1-22.5-26.2l3.2-1.6c7.9,6.1,16.9,11.9,24.9,18,2.1,1.6,6.8,8,7.2,8.2Z"/>
    <path class="st56" d="M523.1,253.4c.2,1,2.2,2.5,2.6,4.4,4.9,24.6,6.1,58.4-5.8,80.8.4-1.3-.3-3.5,0-4.9,3.1-14.8,7.8-36.7,6.3-51.4-.9-9.5-4.8-19.4-6.3-28.9h3.2Z"/>
    <path class="st255" d="M433,133.8c1.1,1.2,2.2,4.1,3.2,4.9l-3.2,1.6c-5.4-4-15-5.6-20.9-8.2-3.3-1.4-11.3-7.7-12.9-8.2l1.6-3.3c11,4.2,21.9,9.1,32.2,13.1Z"/>
    <path class="st275" d="M519.9,338.6c-.3.9-1.4,4.4-1.6,4.9-1.7,3.9-15.9,22.2-19.3,26.2-7.5,8.8-16.1,16.9-25.7,22.9-14.5,9-26.1,14.1-41.9,18.8-9.6,2.9-14.7,10.9-27.3,7.4-1.5-9.4,12.5-10.6,16.2-14.3,2.6-2.5,4.8-10.2,7.9-13.6.7-.8,4-1.5,4.8-3.3,1.1.4,3.3-.2,4.8,0,9.3,1.2,23.4-1.6,32-5.9s19.7-15.8,20.4-16.9c2-2.9,4.6-6.8,5.5-8.3l.8,8.2c10.1-4,5.5-6.5,9.1-13.7s11.2-11.9,14.3-17.4c-.3,1.5.4,3.6,0,4.9Z"/>
    <path class="st53" d="M357.3,87.9c-2.8,2.2-5.2,1.5-8.3,1.2-16.3-1.3-38.2-2-54.4-1.2,5.3-1.4,14.9-3.4,20.1-3.4,11.5,0,32,1.4,42.6,3.4Z"/>
    <path class="st266" d="M143.3,386.1c.5.6.6,3,2.3,5,17.3,19.6,36.9,31.1,57.4,46.5l1.5,9.1c-3.9,1.5-6.3-2.6-8-3.3-4.1-8.8-14.2-16.9-21.7-22.9s-22.1-13.7-24.6-16.7-.1-4.4-1.2-6.1c-3.4-5.3-8.1-10.4-12-16.5,1.7,1.5,5.2,3.4,6.4,4.9Z"/>
    <path class="st239" d="M157.8,282.9c0,.3,2.5,3.7,3.2,4.9s-.6,1.7,1.1,3.4,5.2,2.1,7,3.2,3.4,4,5.9,4.5,3.3-1.3,3.7-1.3,1.1,0,1.6,0c2.3.3,4.1,3.1,4.8,3.3.6,1,.9,2.3,1.6,3.3,2.3,3.4,6.2,4.5,6.6,7.3,1.6,13.2-4.3,21.6-6.6,33.6-3.7,1-18.4,6.1-19.8,6.1-3.9,0-10.1-3.6-14-4.5-.7-1.5-1.8-2.6-3.2-3.3-7.4-18.2-3.7-20.3,14.4-21.4v-6.4c-1.3-1.4-13.3,5.8-19.2,0,8.2,1.1,12.7-4.6,20.9-1.6,0-7.3-13.2-7.6-17.7-6.5l14.5-1.6c.8-4.2-4.5-5.5-5.6-8.2s-.1-3.8-.8-6.5-1.6-3-1.6-3.3c-.1-.8,1.4-4.5,0-6.6l3.2,1.6Z"/>
    <path class="st107" d="M156.2,291.1c.6,2.7.3,5.4.8,6.5,1.2,2.7,6.4,4.1,5.6,8.2l-14.5,1.6c-3.6.9-6.2,5.2-3.2,8.2,5.9,5.8,17.9-1.4,19.3,0v6.4c-18.2,1.1-21.9,3.2-14.5,21.4-10.1-4.8-22.6-15.6-20.8-28.5s8-17.6,10.3-19.1c3.8-2.4,12.3-1.8,17-4.8Z"/>
    <path class="st292" d="M194.8,343.5v3.3c-11.9,5.8-14.3,8.8-29,11.5-1.1.2-2.5,2.5-4.8,1.6l1.6-3.3c-2.1,0-4.3-.1-6.5,0,.8-5.7-7.1-4.9-10.2-6.7s-2.1-2.8-2.6-3.1c2.5-1.2,7.1-.6,9.7,0,3.9.9,10.1,4.6,14,4.5,1.5,0,16.1-5.1,19.8-6.1s4.2,1,8-1.6Z"/>
    <path class="st79" d="M154.6,276.3h1.6c.1,1,1.2,5.3,1.6,6.6l-3.2-1.6c1.3,2-.2,5.8,0,6.6-4.6,2.8-10.6,2.6-15.1,5.1-8.9,4.9-10.9,19.8-15.5-1.9,1.2-6.9.8-17.2,1.6-24.6h1.6c-.4,4.3-1.1,25.4,2.4,26.2,8.2-7.6,18.8-6.1,24.9-16.4Z"/>
    <path class="st156" d="M172.3,364.8c1.9,0,5.7,3.2,9.5.2l2.7,4.5c2-.9,5.6-.8,7.1-1.5-.7,3.4.3,5.1,3.2,6.6-.2,0-2.1,1.2-3.2,1.6-1.9.7-5.2,1.6-6.4,3.3-4.3-.4-8.6-1-12.9-1.6l-9.7-11.5c3.2.1,6.3-1.6,9.7-1.6Z"/>
    <path class="st117" d="M206.1,350c-.6.2-7.5,5.7-10.2,6.8-7.7,3.2-15,5.8-23.6,4.6-1.9-.3-4.9-1.9-6.4-3.3,14.6-2.6,17.1-5.6,29-11.5,2.8-1.4,9.6-1.7,12.9-4.9-.9,2.6-1.4,5.4-1.6,8.2Z"/>
    <path class="st66" d="M210.9,351.7c-4.4,5.4-13.1,13.7-19.3,16.4-1.5.7-5.2.6-7.1,1.5l-2.7-4.5c-3.8,3-7.6-.2-9.5-.2v-3.3c8.6,1.2,15.9-1.5,23.6-4.6,2.7-1.1,9.6-6.6,10.2-6.8,1.3-.4,3.6.9,4.8,1.6Z"/>
    <path class="st60" d="M207.7,148.5c-1.9,1.3-2.4,5.6-3.2,6.6-3,3.6-12.9,10.4-17.7,14.7-16.7,15.2-19.7,19-32.2,37.7-1.1,1.7-2.1,3.2-3.2,4.9-10.9,17.3-22.3,32.4-24.1,54.1h-1.6c.1-1.1-.1-2.2,0-3.3,3.1-27.6,23.8-62,41.2-83.4,7.6-9.3,21-25.1,31.2-31.3,7.9-4.8,6.7-.3,9.7,0Z"/>
    <path class="st260" d="M323.5,99.4c-4.5,4.1-17.7-1.7-17.7,6.5,5.4-1.8,7.8,3.6,10.8,4.6,4.4,1.4,15.7,1.4,20.6,1.9s5.5.5,7.2,3.3c-6.5,2.3-2.3,3-5.2,7.1-7.3,10.5-13.7,17.1-25.9,22.8-3,1.4-6.5.9-9.1,2.2s-4.2,6.3-5.3,6.9-31.6,8.5-34.3,8.6c-5.9.2-18.9-1.6-23.3-5,15.3,4.4,43.1-6.8,55.2-16.7,8.6-7,15.1-22.6,2.3-28s-27.3-3.3-35-1.2l-1.6-3.3c2.9-.9,7.4-2.8,9.7-3.3s6.9.5,10.3-.2c13.6-2.8,27-7.8,41.2-6.4Z"/>
    <path class="st206" d="M254.3,119c-12,7.9-25.1,20.6-16.1,36-8.5,3.9-14.2-5.3-20.2-6.5-3.3-.7-7,.3-10.4,0s-1.8-4.8-9.7,0v-1.6c13-9.8,30-26.5,46.7-29.5,2.5-.5,8.3-.7,9.7,1.6Z"/>
    <path class="st6" d="M264,112.5c-.6.2-7.8,5.3-9.7,6.6-1.4-2.4-7.1-2.1-9.7-1.6,5.6-3.5,11.4-6.2,17.7-8.2l1.6,3.3Z"/>
    <path class="st247" d="M381.5,114.1c10.7.6,11.8,3.7,19.3,6.6l-1.6,3.3c-4.6-1.4-17.1-1.4-22.5-1.6-3.5-.1-5.1-2-9.7,0-.8-2.1-4.5-4.8-6.4-4.9v-1.6c7.2-.3,13.2-2.1,20.9-1.6Z"/>
    <path class="st88" d="M352.5,114.1c2.2,0,5.2,1.8,8,1.6v1.6c-10.1-.6-7.1,14.5-8.3,16.2s-4.1.8-5.8,2.3c-2.8,2.6-4.1,6.8-8.7,10-4.9,3.4-26.9,14-33.3,17-6.4,2.9-19.3,4-27.6,5.4-7.1-.7-36.7.3-39.5-4.8l.8-8.3c.1.2,3,3.1,3.2,3.3,4.4,3.4,17.4,5.2,23.3,5s32.8-7.7,34.3-8.6,2-5.3,5.3-6.9,6.2-.8,9.1-2.2c12.2-5.6,18.5-12.3,25.9-22.8s-1.3-4.8,5.2-7.1c2.4-.8,5.6-1.6,8-1.6Z"/>
    <path class="st51" d="M191.6,376.3c1.1,3,3.5,3.5,6.1,4.5,20.3,7.5,41.8,19.8,63.9,20.9,4,.2,9.6-2.1,13.2-1.8,22.1,1.5,44.9,6,67.2,2.6,4.8-.7,11.1-4.7,16.6-6,11.2-2.6,24.1-.2,34.8-3.9s6.4-5.3,9-6.4c6.4-2.8,18.5.9,25.7-1.6.4.5,4.2,3.1,4.8,3.3-.8,1.8-4.1,2.5-4.8,3.3-3.7-3.3-7.6,2.6-12.4,4.5-21.1,8.4-44.9,9.9-66.4,16-8,2.3-26.4.8-36.2.4-16.3-.8-38.9-1.9-54.6-4.6-25.9-4.5-53.3-15.2-78.2-21.2l3-.3c.7-2,.6-4.6,1.9-6.3s4.5-2.6,6.4-3.3Z"/>
    <path class="st154" d="M471.6,397.6l1.6-4.9c9.7-6,18.3-14.2,25.7-22.9-4.6,13-16.8,20.5-27.4,27.9Z"/>
    <path class="st283" d="M502.2,310.7c3.4,3.4,4.2,22.2,3.1,26.9-.8,3.4-7.4,15.6-9.5,19-.9,1.5-3.5,5.4-5.5,8.3-.8,1.1-19,16.2-20.4,16.9-8.6,4.3-22.7,7.1-32,5.9l18.2-8.6c1.5-.1,2.3-2.7,2.7-2.9,2.5-1.2,4.7,0,6.3-.9,11.3-6.6,34.3-30.2,33.5-44-.4-6.9-3.8-13.8-2.8-21-.2-.8-2.6-2.7-3.2-2.8v-1.6c1.6.5,9.2,4.5,9.7,4.9Z"/>
    <path class="st12" d="M490.9,232.1c5.4,16.9,8.3,35.3,6.1,52.9-.4,3.6-5.5,7.8-4.5,12.6-.7-3.2-8.3-9.5-11.3-11.5-4.3-11.1-.4-24.3,0-35.3.4-13.1-2.1-23.4-4.8-36.8,2.4.3,11.5,7.1,12.1,8.2.9,1.6,1.3,6.5,2.4,9.8Z"/>
    <path class="st157" d="M455.5,241.9c5.3,8.9,9,24.1,8,34.4,10.7-3.3,10.6,7.5,13.3,9.5s3.9,0,4.4.3c3,2,10.6,8.2,11.3,11.5s-.3,5.7,0,8.2v1.6c-.8-.3-2.2.2-3.2,0-1.8-5.4-5.5-9.9-10.4-13.1-6-3.9-17.3-4.4-16.9-13.1-2.9-.2-1,3.8-3.1,5.8-1,1-3,.4-3.3.7,13.7-25.2-1.2-43.6-17.7-60.6-.7-.7-1-2.4-1.6-3.3,6.1,3.6,15.5,11.7,19.3,18Z"/>
    <path class="st87" d="M463.5,173.1c8.3,9.9,10.3,28.1,12.9,41,2.7,13.5,5.2,23.7,4.8,36.8-.3,10.9-4.2,24.2,0,35.3-.5-.3-3.1.7-4.4-.3-2.7-2-2.6-12.9-13.3-9.5,1-10.4-2.8-25.5-8-34.4,6.2-.7,8.1-6.8,8.2-12.3.4-19.5-4.6-43.3-8.2-61.5v-1.6c.6.7,5.1,3,8,6.6Z"/>
    <path class="st92" d="M433,140.3c6.9,5.1,16.4,19.2,22.5,26.2v1.6c-3.6-2.7-7.4-1.2-11.3,0-.1-.2-2.5.3-3.2-.7-9.2-13.2-12.5-15.2-24.1-25.5s-3.1-3.8-5.7-4.9l.8-5c5.9,2.5,15.5,4.2,20.9,8.2Z"/>
    <path class="st55" d="M399.2,123.9c1.6.5,9.6,6.8,12.9,8.2l-.8,5c2.6,1,3.9,3.3,5.7,4.9-6.5,2.3-13.2-1-19.3-3.3s-6.2-2.4-8-3.3c-4.3-2.2-5-3.1-8-6.6-1.7-1.9-3.2-4.5-4.8-6.6,5.5.2,17.9.2,22.5,1.6Z"/>
    <path class="st281" d="M165.8,261.6c8.3-14.8,11.3,0,20.2-.8,8.9-.8,13.3-6.9,27.3-5.7,9.6.8,17.7,2.7,18.5,13.1-.6-.5-1.1-1.1-1.6-1.6-12.9-15.2-32.6-2.1-47.5.1-10.4,1.6-16.1-5.2-16.9,8.1s-.3,5.9.4,8.6c.8,3.6,6.4,9,2.9,11-1.8-1-5.4-1.5-7-3.2s-.8-3-1.1-3.4c5.1.8,3.1-2.1,2.8-5.2-.8-8.3-2.6-12.7,2.1-21Z"/>
    <path class="st168" d="M204.4,304.2c1.1,10.3-.7,33.1-9.7,39.3-3.8,2.7-7.1,1.4-8,1.6,2.3-12,8.2-20.4,6.6-33.6-.3-2.8-4.2-3.9-6.6-7.3,6.3,1.1,11.4,1.3,17.7,0Z"/>
    <path class="st241" d="M165.8,256.6c-.4,1.1.3,3.5,0,4.9-4.6,8.2-2.8,12.7-2.1,21s2.3,6-2.8,5.2c-.7-1.2-3.1-4.6-3.2-4.9-.4-1.3-1.5-5.5-1.6-6.6-1.9-15.1,2.4-31.7,12.9-42.6.3-.3,6.2-4,7.2-3.3l2.4,4c-5,6.1-11.4,14.2-12.9,22.2Z"/>
    <path class="st114" d="M222.1,287.8c-2.1.7-4.4.9-6.4,1.6l-29.9,3.2-5.6,5c-.5,0-1.1,0-1.6,0-.5-.5-1-1.2-1.6-1.6,0-1.1,0-2.2,0-3.3,0-2.2,0-4.4,0-6.6,5.6,2.8,23.8-.3,25.7-6.6,5.8,2.2,14.3,4.6,19.3,8.2Z"/>
    <path class="st203" d="M215.7,289.4c-9,3.5-17.6,2.5-20.9,13.1-3.6,0-6.3-.7-9.7-1.6s-2.6-2.9-4.8-3.3l5.6-5,29.9-3.2Z"/>
    <path class="st211" d="M178.7,273c-10.5,4-11.4,6.2-6.4,16.4s.7,3.5,4.8,6.6,1.1,1.1,1.6,1.6c-.4,0-1.9,1.6-3.7,1.3s-4.1-3.5-5.9-4.5c3.6-2-2-7.5-2.9-11-.6-2.7-.5-5.8-.4-8.6,3.6-5.2,8.8-8.2,12.9-1.6Z"/>
    <path class="st235" d="M148.1,307.4c4.5-1.1,17.7-.8,17.7,6.5-8.2-3-12.7,2.7-20.9,1.6-3-3-.3-7.3,3.2-8.2Z"/>
    <path class="st134" d="M218.9,296c-.5.7-1.7,2.9-3.2,4.9-4.2-.2-7.3,2.5-11.3,3.3-6.3,1.3-11.4,1.1-17.7,0-.7-1-1-2.2-1.6-3.3,3.4,1,6.1,1.6,9.7,1.6,9.2,0,15.7-3.8,24.1-6.6Z"/>
    <path class="st230" d="M215.7,300.9c-1.4,1.8-6.4,6.9-6.4,7.4,0,.7,4.3,2.8,4.8,6.6,1.1,9.2-3.5,18.8-6.4,27-3.3,3.2-10,3.5-12.9,4.9v-3.3c8.9-6.3,10.7-29,9.7-39.3,4-.8,7.1-3.5,11.3-3.3Z"/>
    <path class="st254" d="M157.8,220.6c-2.3,4.1-4.8,17.1.8,19.7l10.4-9.8v3.3c-10.5,10.9-14.7,27.5-12.9,42.6h-1.6l-1-3.4c-8-1.7-9.8,7.4-12.7,6.7-2-2.5-5.2-6-5.7-9.1s0-15.1.2-15.9c.9-3.4,4.7-13.8,6.3-18.3,2-5.7,5.7-10.6,7.9-15.7h8Z"/>
    <path class="st213" d="M149.7,220.6c-2.3,5.1-5.9,9.9-7.9,15.7-1.6,4.5-5.4,14.9-6.3,18.3s-.3,15.1-.2,15.9c.5,3.1,3.7,6.7,5.7,9.1,2.8.7,4.6-8.4,12.7-6.7l1,3.4c-6.2,10.3-16.8,8.7-24.9,16.4-3.6-.8-2.8-21.9-2.4-26.2,1.9-21.7,13.2-36.7,24.1-54.1.4,3.1-.4,5.4-1.6,8.2Z"/>
    <path class="st63" d="M202.8,374.6c1,.1,7.7,1.4,8,1.6,29,17.1,114.9,20.8,148.5,14.4,12.1-2.3,23.3-7,36.6-6.2,2,.1,4.3,1.3,6.4,1.6-2.6,1.1-4.4,4.9-9,6.4-10.7,3.6-23.6,1.3-34.8,3.9-5.6,1.3-11.8,5.3-16.6,6-22.3,3.5-45.1-1.1-67.2-2.6-3.6-.2-9.2,2-13.2,1.8-22.1-1.1-43.5-13.5-63.9-20.9-2.6-1-5-1.5-6.1-4.5,1.1-.4,3-1.6,3.2-1.6,2-.3,5.9-.2,8,0Z"/>
    <path class="st261" d="M218.9,350l1.6,6.6c-.3.1-.9,3.3-2.1,4.4-2.6,2.3-5,4.8-7.6,7.1-2.5,2.3-5.8,3.9-8,6.6-2.1-.2-6-.3-8,0-2.9-1.5-3.9-3.2-3.2-6.6,6.2-2.7,14.9-11,19.3-16.4s2.1-1.3,3.2-3.3h3.9c0,.1.9,1.6.9,1.6Z"/>
    <path class="st137" d="M214.1,348.4c-1.2,1.9-2.4,2.3-3.2,3.3-1.2-.7-3.6-2-4.8-1.6.2-2.8.7-5.6,1.6-8.2,2.9-8.2,7.5-17.8,6.4-27-.5-3.8-4.8-5.9-4.8-6.6s5-5.6,6.4-7.4,2.7-4.2,3.2-4.9c1-1.3,4.3-2.2,4.8-4.9.3.5,2.8,1,3.1,2.6-6,10.6-.9,22-5.1,33.8s-3.5,3.7-4.1,5.7c-1.8,6.1,1,7.6-3.5,15.2Z"/>
    <path class="st95" d="M238.2,155.1l-.8,8.3c2.8,5.1,32.4,4.1,39.5,4.8-16.8,2.8-22.4,4.4-40.2,1.6-2.6-.4-5.5.6-8.5-.3-5.2-1.7-17.4-11.8-23.7-14.4.8-.9,1.3-5.3,3.2-6.6,3.3.4,7-.6,10.4,0,6,1.2,11.7,10.4,20.2,6.5Z"/>
    <path class="st232" d="M236.6,169.8v3.3c-11-2.7-19.8-6.7-30.6-3.3-6.1,2-15.6,6.2-20.9,9.8l1.6-9.8c4.8-4.4,14.7-11.2,17.7-14.7,6.3,2.6,18.5,12.7,23.7,14.4,2.9.9,5.9,0,8.5.3Z"/>
    <path class="st242" d="M185.1,179.6c-1.1.7-2.1,2.3-3.2,3.3-4.3,4-6.7,6-9.7,11.5-9.5-.4-9.1,13.8-17.7,13.1,12.5-18.7,15.5-22.5,32.2-37.7l-1.6,9.8Z"/>
    <path class="st120" d="M172.3,194.4c-3.3,6.2-3.9,13.2-6.4,18s-6.7,5.7-8,8.2h-8c1.2-2.8,2-5.1,1.6-8.2,1.1-1.7,2.1-3.3,3.2-4.9,8.6.7,8.2-13.5,17.7-13.1Z"/>
    <path class="st16" d="M241.5,158.3c-.3-.2-3.1-3.1-3.2-3.3-9-15.4,4.1-28.1,16.1-36s9.1-6.4,9.7-6.6c7.7-2.1,27.6-1.9,35,1.2,12.8,5.4,6.3,21-2.3,28-12.2,9.9-39.9,21-55.2,16.7Z"/>
    <path class="st160" d="M360.6,117.4c1.9.1,5.6,2.8,6.4,4.9-9.7,4.3-7.8,23.3-11.6,31.5-1.3,2.8-6.7,11.5-8.6,14.4-2.7,4-10.8,6.2-8.8,14.8-.5-2.2-4.4-8.5-7.2-8.2h-2.4c.3,2.6-.4,5.8,0,8.2l-4.7-1.5c-.5,1-.9,2.4-1.8,3.2-2.2-6.9,4.1-17.1-5.6-19.7-6.3,2.8-13.4,10.7-8.8,18.1-1.3-.4-3.9.5-4.8,0s2.1-3.6-.9-4.8l-4,3.3-2.3-4.5c-16.4-1.5-35.7,1.6-51.7-.4-4-.5-5.5-3-7.2-3.4v-3.3c17.9,2.7,23.4,1.2,40.2-1.6,8.3-1.4,21.2-2.5,27.6-5.4,6.4-2.9,28.4-13.6,33.3-17,4.6-3.2,5.9-7.4,8.7-10s5.2-1.5,5.8-2.3c1.2-1.7-1.8-16.8,8.3-16.2Z"/>
    <path class="st48" d="M376.6,122.3c1.6,2.1,3.1,4.6,4.8,6.6-2.3,2.6-5.4,7.7-6.1,11s-2.1,15.2-2,17.7c.1,5.3,5.9,8.1,4.9,13.8-10.1-1.1-8.9,4.2-13.7,8.3s-8.2,5.6-8.7,5.8c-7.2,2-11.8-2.1-17.9.7.1-.8.2-2.5,0-3.3-2-8.5,6-10.7,8.8-14.8,1.9-2.8,7.3-11.6,8.6-14.4,3.8-8.2,1.9-27.2,11.6-31.5s6.2-.1,9.7,0Z"/>
    <path class="st240" d="M420.1,373c3.2,0,6.4,0,9.7,0,6.4,0,22-1.1,27.4,1.6.5.3,1,1.3,1.6,1.6-.4.2-1.2,2.7-2.7,2.9l-18.2,8.6c-1.5-.2-3.7.4-4.8,0s-4.5-2.8-4.8-3.3.5-2.8,0-3.2c-.9-.8-3.9,2.3-6.3.8s-2.6-4.5-4.8-5.3v-2.2c.3,0,1.7-1.6,3.2-1.6Z"/>
    <path class="st118" d="M399.2,371.3c6.8,1.2,8.9,3.7,17.7,3.3v2.2c2.2.8,4,4.8,4.8,5.3,2.4,1.4,5.4-1.6,6.3-.8s-.2,2.9,0,3.2c-7.2,2.6-19.3-1.2-25.7,1.6-2.1-.3-4.4-1.5-6.4-1.6v-1.6c.2-8.3-7.1-5.5-9.7-11.5,5.7-.6,7.1-1,12.9,0Z"/>
    <path class="st161" d="M492.5,307.4c.6.2,3,2,3.2,2.8-1,7.3,2.4,14.2,2.8,21,.8,13.8-22.3,37.5-33.5,44-1.6.9-3.8-.3-6.3.9-.6-.4-1.1-1.4-1.6-1.6,2.6-7.9,12.8-9.2,18.5-14.8,1-1,13.1-16.6,13.6-17.6,5.7-12.8,2.9-17.9.1-29.9s.4-3.7,0-4.9c1,.2,2.4-.3,3.2,0Z"/>
    <path class="st77" d="M455.5,168.2c3.6,18.1,8.6,42,8.2,61.5-.1,5.5-2,11.6-8.2,12.3-3.8-6.3-13.2-14.4-19.3-18s-17.5-9.4-19.3-9.8c2.8,0,5.4,1,8,1.6s11.4,3.3,13.5,2.9c6.2-1.2,3.6-12.3,4.2-16.8.7-5.2,2.7-11.4,2.9-16.4,0-1.9-.8-16.5-1.3-17.2,3.9-1.2,7.7-2.7,11.3,0Z"/>
    <path class="st208" d="M437.8,227.2c16.5,17,31.4,35.4,17.7,60.6-.3.3-1.5,2.7-1.6,3.3-2.1-2.8-2-6.7,1.6-7.4-4.7-7.3-2.8-14.1-6.4-23.8-2.7-7.2-5.2-10.6-9.7-16.4s-8.9-11-14.5-14.7c4.1-7.5,7-2.2,12.9-1.6Z"/>
    <path class="st27" d="M416.9,214c1.8.4,16.5,8.2,19.3,9.8.6.9,1,2.6,1.6,3.3-5.8-.5-8.8-5.8-12.9,1.6-13.4-9.1-23.9,1.5-37-8.2,7.4-4.3,20.4-8.5,29-6.6Z"/>
    <path class="st39" d="M455.5,287.8c.3-.3,2.3.3,3.3-.7,2.1-2,.2-6.1,3.1-5.8-.4,8.7,11,9.2,16.9,13.1,4.9,3.2,8.7,7.7,10.4,13.1.4,1.2-.3,3.5,0,4.9h-6.4c-1.3-4.9-20.8-16.9-25-21.2-1.3.5-1.9,2.9-2.4,3.2s-1.3-.3-1.6,0c.1-1-.2-2.3,0-3.3s1.3-3,1.6-3.3Z"/>
    <path class="st285" d="M416.9,142c11.6,10.3,15,12.3,24.1,25.5.7,1.1,3.1.6,3.2.7.5.7,1.3,15.3,1.3,17.2-.2,5-2.1,11.2-2.9,16.4-.6,4.5,2,15.6-4.2,16.8s-10.4-2.2-13.5-2.9c-1.4-3.6-12.5-5-16.1-4.9,3.4-2.8,7.1-5.8,8.5-10.3s-.5-6.9.3-9.3c.9-2.4,6.5-6.9,7.9-10.1,2.4-5.2,3.9-18,2.3-23.3-1-3.3-12.7-9-11-15.9Z"/>
    <path class="st64" d="M389.5,135.4c-1,7-3.1,19.1-2.8,25.8s3.1,4.4,2.9,7.7-7.5,12.5-11.2,15.2c-1.9,1.4-5,.8-5.7,2.1-1.7,3-.2,5.9-4.1,9.1s-11.7,1.1-16.7,2.4c-1.8.5-.9,3.2-1,3.3-2.1,1.4-6.3,1.6-8,4.9-.4-.1-1.1,0-1.6,0-1.1-.2-17.3-.3-18.2-.1-1.7.3-1.8,4.6-4.3,5.9s-6.4.3-8.2,1.5c-3.1,2.1,2.7,10.9-13.4,9s-6.5-2.9-9.8-2.9c-3.3,0-6.8,1.8-11.3,1.5-8.2-.7-7-4.8-11.6-7.9-6.4-4.3-28.2-9.3-37-13.1s-8.7-4.7-13.4-6.9c-2-.9-3-3.2-3.2-3.3,4.2-2.9,7.2-7.1,12.9-6.6,20.1,8.6,41.7,13.4,63.5,11.4,7.1-.7,19.4-3.8,24.2-4.5s11,1.4,14.5-3.6l.8,4.9,3.2-4.9c1.4,1.8,3.2,3,5.4,3.4.6,0,2.6-3.1,2.6-3.4,6.1-2.8,10.7,1.3,17.9-.7s8.3-5.4,8.7-5.8c4.8-4,3.6-9.4,13.7-8.3,1-5.8-4.8-8.5-4.9-13.8s1.5-15,2-17.7,3.8-8.4,6.1-11c3.1,3.4,3.8,4.4,8,6.6Z"/>
    <path class="st192" d="M397.6,138.7c2,3.6,7.7,15.5,7.9,18.8.9,14.7-5.5,28.2-12.7,40.2-7.2,11.9-4.9,5.2-10.9,10.2-2.3,2-5.4,9.8-11.7,13.4-6.7,3.8-11,1.1-16,3.4s-12.5,11.9-14.5,13.9c4.1-12.6-6.8-22.3,1.6-32.8.6,0,1.2-.1,1.6,0,1.9.6,4.1,6.2,11.3,1.6l-3.2-6.5c.1,0-.7-2.9,1-3.3,5-1.3,11.2,2.1,16.7-2.4s2.4-6.1,4.1-9.1,3.9-.7,5.7-2.1c3.7-2.7,10.8-10.8,11.2-15.2s-2.7-4.9-2.9-7.7c-.4-6.6,1.8-18.7,2.8-25.8,1.8.9,5.9,2.5,8,3.3Z"/>
    <path class="st140" d="M416.9,142c-1.7,6.9,10,12.6,11,15.9,1.6,5.3.1,18.1-2.3,23.3-1.4,3.1-7,7.6-7.9,10.1-.9,2.3,1,5-.3,9.3s-5,7.5-8.5,10.3c-2.3,0-14.6,2.5-17.7,3.3l1.6-16.4c7.2-12,13.6-25.5,12.7-40.2-.2-3.2-5.8-15.1-7.9-18.8,6.1,2.3,12.9,5.5,19.3,3.3Z"/>
    <path class="st143" d="M181.9,248.5c.4,1.1-.3,3.5,0,4.9,4.3,2.1,5.1-3.3,5.7-3.4,3.5-.4,5.3,3.1,8.1,3.3h36.2c1.3,7,2.3,14.6,3.2,21.3.1,1.1-.1,2.2,0,3.3-.6.4-1,1.3-1.6,1.6-3-2.3-1.3-7.8-1.6-11.5-.8-10.4-8.9-12.2-18.5-13.1-14-1.2-18.4,4.9-27.3,5.7-8.9.8-11.8-13.9-20.2.8.3-1.5-.4-3.8,0-4.9s9.6-14.5,10.5-14.7c3.1-.2,4.7,4.1,5.6,6.6Z"/>
    <path class="st225" d="M230.2,266.5l-15.1-3.4-3.3,4.6c-6.7-2.4-15.3-.7-21.9,2.1-1.8.2-9.2,2.5-11.3,3.3-4.1-6.6-9.3-3.5-12.9,1.6.8-13.2,6.6-6.5,16.9-8.1,14.9-2.3,34.5-15.3,47.5-.1Z"/>
    <path class="st153" d="M230.2,266.5c.5.6,1,1.1,1.6,1.6.3,3.6-1.4,9.2,1.6,11.5-1,.7-3.1,1.5-3.2,1.6.4-5.3.7-9.9-4-13.1l-8,6.6-3.3-5.1c-8,.8-17-.8-24.9.1,6.5-2.7,15.1-4.4,21.9-2.1l3.3-4.6,15.1,3.4Z"/>
    <path class="st138" d="M185.1,217.3c-.2,2.1-1.9,4.2-1.6,6.5,4.8-.5,9.6-1.4,14.5-1.6-1.9,1.5-3.4,3-4.8,4.9-4.8,6.6-5.3,6.8-3.2,14.7s.8,3.3,1.6,4.9l-9.7,1.7c-.9-2.5-2.5-6.7-5.6-6.6-.9.2-10.2,13.9-10.5,14.7,1.5-7.9,7.8-16.1,12.9-22.2l-2.4-4c-1.1-.8-6.9,3-7.2,3.3v-3.3l16.1-13.1Z"/>
    <path class="st58" d="M202.8,271.4c12.5.5,7.4,3.3,11.7,6.1s5.3.4,7.3,1.6,3,5.2,6.8,5.4c-1.5,1.8-2.2,4.1-4.8,4.9-.5-.5-1.1-1.3-1.6-1.6-5-3.6-13.5-6-19.3-8.2.1-.3,0-1.3,0-1.6-.4-1.8-3.7-3.9-3.2-4.9l3.2-1.7Z"/>
    <path class="st71" d="M222.1,287.8c.5.4,1.1,1.1,1.6,1.6s-.2,1.2,0,1.6c-.5,2.7-3.8,3.6-4.8,4.9-8.5,2.8-14.9,6.6-24.1,6.6,3.3-10.6,12-9.6,20.9-13.1,2-.8,4.4-.9,6.4-1.6Z"/>
    <path class="st84" d="M202.8,271.4l-3.2,1.7c-.5,1,2.8,3.1,3.2,4.9-8.6,4.9-38.7-1.9-25.7,14.7,0,1.1,0,2.2,0,3.3-4.2-3-2.9-2.7-4.8-6.6-2.2-16.5,7.9-11.6,18.2-13.5,5.5-1,1.8-5,12.4-4.5Z"/>
    <path class="st25" d="M202.8,277.9c0,.4.1,1.3,0,1.6-1.9,6.3-20.1,9.4-25.7,6.6,0,2.2,0,4.4,0,6.6-12.9-16.6,17.1-9.9,25.7-14.7Z"/>
    <path class="st188" d="M230.2,281.2c-.3.4-.6,2.1-1.6,3.3-3.8-.3-4.5-4.1-6.8-5.4s-5.4-.4-7.3-1.6c-4.3-2.8.8-5.6-11.7-6.1-10.6-.5-6.9,3.5-12.4,4.5-10.3,1.9-20.4-3-18.2,13.5-5-10.2-4-12.3,6.4-16.4s9.4-3.1,11.3-3.3c7.8-.9,16.9.7,24.9-.1l3.3,5.1,8-6.6c4.7,3.2,4.4,7.8,4,13.1Z"/>
    <path class="st74" d="M183.5,214l1.6,1.6c0,.5,0,1.1,0,1.6l-16.1,13.1-10.4,9.8c-5.6-2.6-3.1-15.6-.8-19.7s5.8-3.9,8-8.2c5.9.8,12.1,5.3,17.7,1.6Z"/>
    <path class="st31" d="M384.7,371.3c.5,0,1.1,0,1.6,0,2.6,6,9.9,3.2,9.7,11.5-3.9-3.4-8,.2-11.7-.3-13.4-1.7-8.6.6-19.6,2-8.9,1.1-27.7,1.7-37.1,1.7-31.4,0-59.8-5.8-90.1-8.4-3.9-.3-9.1,1.8-11.1,1.4-3.4-.7-7.9-11.1-15.5-2.9-.4-.2-7.1-1.5-8-1.6,2.3-2.7,5.5-4.3,8-6.6,7.1,5.2,16.1.8,23.2,1.7,15.7,2,33.6,9.1,50.2,9.6,33.1,1.1,67.5-4,100.4-8Z"/>
    <path class="st280" d="M396,382.8v1.6c-13.3-.8-24.5,3.8-36.6,6.2-33.6,6.5-119.5,2.8-148.5-14.4,7.5-8.2,12.1,2.2,15.5,2.9,2,.4,7.2-1.7,11.1-1.4,30.3,2.6,58.7,8.5,90.1,8.4,9.4,0,28.1-.6,37.1-1.7,11-1.4,6.2-3.7,19.6-2s7.8-3.1,11.7.3Z"/>
    <path class="st289" d="M375,359.9l9.7,11.5c-32.9,4.1-67.3,9.2-100.4,8-16.5-.6-34.5-7.6-50.2-9.6-7.1-.9-16.1,3.5-23.2-1.7,2.5-2.3,5-4.8,7.6-7.1,1.2-1.1,1.8-4.2,2.1-4.4.6-.3,12.5-1.6,13.6-1.6,15.3.8,40.1,10,56.4,9.9,7.6,0,17.9-3.1,24.3-3.4,19.9-1,40.2,0,60.2-1.7Z"/>
    <path class="st119" d="M375,346.8c.3,2.3-1.8,9.4,0,13.1-19.9,1.6-40.2.7-60.2,1.7-6.5.3-16.7,3.3-24.3,3.4-16.2,0-41.1-9.1-56.4-9.9-1.1,0-13,1.3-13.6,1.6l-1.6-6.6c3.2-1.4,6.6-5.5,9.7-6.6,13.6-4.9,39.7,2.2,54,3.3,28.4,2.3,65.4-6.4,92.4,0Z"/>
    <path class="st274" d="M235,281.2c1.2,9.4,2.5,18.8,3.6,28.2s4.1,8-.4,17.6c-2.3,4.8-8.2,10.2-9.7,16.4-3,1.1-6.5,5.1-9.7,6.6l-.9-1.5h-3.9c4.6-7.8,1.8-9.2,3.5-15.4s3.3-3.4,4.1-5.7c4.2-11.8-.9-23.2,5.1-33.8-.2-1.7-2.8-2.2-3.1-2.6s.3-1.4,0-1.6c2.7-.9,3.4-3.1,4.8-4.9s1.3-2.9,1.6-3.3,2.2-1,3.2-1.6,1-1.2,1.6-1.6c.1,1-.1,2.2,0,3.3Z"/>
    <path class="st236" d="M236.6,173.1c1.6.4,3.1,2.8,7.2,3.4,16,2,35.3-1.1,51.7.4l2.3,4.5,4-3.3c2.9,1.2.7,4.7.9,4.8.9.6,3.5-.3,4.8,0,4.4,1.3,10.5,5.2,14.5,1.6s1.3-2.1,1.8-3.2l4.7,1.5c.1.6,1.2,2.7,1.6,3.3l-3.2,4.9-.8-4.9c-3.6,5-9.8,2.9-14.5,3.6s-17.1,3.8-24.2,4.5c-21.8,2-43.4-2.8-63.5-11.4-7-3-12.6-7.7-17.7-13.1,10.8-3.4,19.5.6,30.6,3.3Z"/>
    <path class="st196" d="M206.1,169.8c5.1,5.5,10.7,10.1,17.7,13.1-5.7-.5-8.7,3.6-12.9,6.6-8.7-3.4-15.8-3.1-24.1-3.3s-4.1-.8-4.8-3.3c1.1-1,2.2-2.6,3.2-3.3,5.4-3.6,14.8-7.9,20.9-9.8Z"/>
    <path class="st248" d="M186.7,186.2c-.2,8.9-7.2,18.2-3.2,26.2v1.6c-5.6,3.7-11.8-.8-17.7-1.6,2.5-4.8,3.1-11.8,6.4-18,2.9-5.5,5.3-7.5,9.7-11.5.8,2.5,2.4,3.2,4.8,3.3Z"/>
    <path class="st297" d="M321.9,184.6c-4,3.6-10-.3-14.5-1.6-4.6-7.3,2.5-15.3,8.8-18.1,9.8,2.7,3.4,12.8,5.6,19.7Z"/>
    <path class="st83" d="M338,182.9c.2.7.1,2.5,0,3.3s-2,3.3-2.6,3.4c-2.3-.3-4.1-1.6-5.4-3.4s-1.5-2.7-1.6-3.3c-.4-2.4.3-5.6,0-8.2h2.4c2.9-.3,6.8,6,7.2,8.2Z"/>
    <path class="st270" d="M489.3,312.4c2.8,12,5.6,17.1-.1,29.9s-12.5,16.6-13.6,17.6c-5.7,5.6-15.9,6.9-18.5,14.8-5.4-2.8-21-1.7-27.4-1.6,8.5-2.8,18.3-1.1,24.1-9.8,9.8-2,21.5-9,26.4-18.1.7-1.3,6.6-16.2,6.7-17.1.2-2.5-3.8-8.9-5-12.1-.6-1.6.9-3.3.9-3.4h6.4Z"/>
    <path class="st129" d="M412.1,358.2c16.5,5.3,23.2,8.7,41.8,4.9-5.8,8.8-15.6,7.1-24.1,9.8-3.2,0-6.4,0-9.7,0-4.3-10.1-16.4-4.6-17.7-16.4,3.3,1.3,7.2.9,9.7,1.6Z"/>
    <path class="st165" d="M389.5,346.8c1.6,2.9,9.8,8.7,12.9,9.8,1.3,11.7,13.4,6.3,17.7,16.4-1.4,0-2.9,1.6-3.2,1.6-8.9.4-10.9-2.1-17.7-3.3-2.9-5.2-13.6-15.2-12.9-21.3,0-.4,2.6-2.4,3.2-3.3Z"/>
    <path class="st205" d="M386.3,350c-.8,6.1,10,16.1,12.9,21.3-5.7-1-7.2-.6-12.9,0-.5,0-1.1,0-1.6,0l-9.7-11.5c-1.8-3.7.3-10.8,0-13.1,3.2.8,6.8,4.7,11.3,3.3Z"/>
    <path class="st35" d="M424.9,215.7c-2.7-.6-5.3-1.6-8-1.6-8.6-1.9-21.5,2.3-29,6.6-9.5,5.4-9.9,7.4-14.5,16.4-7.2,14.2-8.3,21.7-4.8,37.7,1.1,5.1,2,8.7,4.8,13.1-.2,0-1,1.4-1.6,1.6-1.5-2.5-3.8-2.8-4.8-4.6-9.1-17-3.9-40.5,6.4-56,1.7-2.6,8-5.3,8.5-11,3.2-.3,6.7-3,9.2-3.7s15.4-3.2,17.7-3.3c3.6-.1,14.7,1.3,16.1,4.9Z"/>
    <path class="st19" d="M424.9,228.8c5.5,3.8,10.8,9.9,14.5,14.7-2.1-2.1-4.7-1.4-4.1,1.7s6,8.6,0,13.1c-2.1.4-7-5.1-8.8-6.6,1.2-.3,3.3.7,4.5-.2,5.7-14.2-14.1-19.6-23.8-24.3-5,5.6,15.5,21.6,19.3,24.6-9.5,2.4-19.1,2.2-27.7,3.6-7.3,1.1-10.9,5.9-19.6-.2-4.5,2.7-3.5,7.4-4.2,11.4-1.6,8.9-2.8,8.4,1.6,16.4.8,1.5.2,4.3,3.2,4.9v1.6c-.3-.2-6.1-1.6-6.4-1.6-2.8-4.4-3.7-8-4.8-13.1,5-12.4,8.5-25.4,11.2-38.6l-6.4.9c4.6-9,5-11,14.5-16.4,13.1,9.7,23.7-.9,37,8.2ZM398.2,249.2c23.5-16.2-15.3-29.9-14.9-5.2l13.2,7.8c1.1-.1,1.1-2.2,1.7-2.6Z"/>
    <path class="st141" d="M439.4,243.5c4.5,5.8,7,9.2,9.7,16.4.1,1.1-.2,2.3,0,3.3l-5.6-4.9-4.8,9.8c-3.3-2.1-4.8-6.6-7.3-8.9s-2.6-.6-3.1-.9-1.2-1.5-1.6-1.6c-6.8-2.6-5.2,2-7.6,3.3-7.9,4-12.4,0-19,0s-7.9,2.4-11.7,2.9-9.7-3.3-13.2,3.6c.7-4-.3-8.7,4.2-11.4,8.7,6,12.3,1.3,19.6.2,8.6-1.3,18.3-1.2,27.7-3.6,1.8,1.4,6.7,7,8.8,6.6,5.9-4.4.6-9.5,0-13.1s2-3.8,4.1-1.7Z"/>
    <path class="st135" d="M449.1,259.9c3.6,9.7,1.7,16.5,6.4,23.8-3.6.6-3.7,4.5-1.6,7.4-.2,1,.1,2.2,0,3.3-2,1.4-3.9,2.3-4.8,4.9-1.4-.2-5.4-.3-6.4,0,0-1.1,0-2.2,0-3.3,4.5,1,3.7-3.3,4.8-6.6,1.3-3.7,2.9-7.5,3.2-11.5.4-5.8-.7-9.4-1.6-14.7-.2-1,.1-2.2,0-3.3Z"/>
    <path class="st8" d="M455.5,294.3c.5-.3,1.1-2.8,2.4-3.2,4.1,4.4,23.6,16.4,25,21.2,0,.2-1.4,1.9-.9,3.4,1.2,3.2,5.2,9.6,5,12.1s-6,15.8-6.7,17.1c-4.9,9.1-16.7,16.2-26.4,18.1-18.6,3.8-25.3.4-41.8-4.9v-4.9c4,.5,8.8,4.2,12.2,4.8,5.6,1,12.7-2.7,14.4,3.4,15-5.9,39.7-7.6,36.1-30.1,8.3-3.7.4-4.2,0-5.4-1.1-4.5,1.1-11.6-3.1-16.2-2-2.2-5.1-1.9-6.5-3.2-1.6-1.5-1.1-4.2-2.1-5.3s-6.8-1.5-7.6-7Z"/>
    <path class="st116" d="M455.5,294.3c.8,5.5,6.7,6.1,7.6,7s.5,3.7,2.1,5.3c1.4,1.3,4.5,1.1,6.5,3.2,4.2,4.6,2,11.8,3.1,16.2s8.2,1.7,0,5.4c3.6,22.4-21.1,24.1-36.1,30.1-1.6-6-8.7-2.4-14.4-3.4-3.3-.6-8.1-4.3-12.2-4.8v-1.6c2.2.3,7.1-1.7,9.7-1.6s2.2,0,3.2,0c8.5.4,12.8,3.6,21.3,1.2s19.3-7.7,21.3-11.1c7.8-13.4-3.9-27.7-12.8-36-2.9-2.7-.7-4.3-5.6-4.9.9-2.6,2.9-3.5,4.8-4.9s1.2.2,1.6,0Z"/>
    <path class="st46" d="M214.1,192.7c4.7,2.2,9,5,13.4,6.9,8.8,3.8,30.6,8.8,37,13.1,4.7,3.1,3.4,7.3,11.6,7.9,4.5.4,8-1.5,11.3-1.5,3.3,0,6.4,2.5,9.8,2.9,16.1,1.9,10.3-6.9,13.4-9s5.7-.3,8.2-1.5-65.6-4.6-63.9-4.9,85.2-1,86.4-.8c-8.4,10.5,2.5,20.1-1.6,32.8-2,2.1-.2,6.8-9.6,5l-1.8,10.3c5.7,1.9,1.6,3.6,2.1,6.5s3.5,4.6,2.1,7.6c-2.9,6.1-12.5.1-15.4,6.6-1.4-.2-3.2-2.1-5.5-1.7-2.9,8.5-10.2-2.2-16.2-1.6s-4.6,4.4-8.2,5c-4.8.8-9.3-2.6-14.1-1.5-3.6,1.2-4.6,7.7-4.3,11.3l-1.8-8c-6.3-.3-18.4-10.1-23.7-6.5s-.6,11.8-8.3,9.6c-.1-1.1.1-2.2,0-3.3s.1-2.2,0-3.3c2.6-1.2,1.3-4.5,1.6-6.6,7.3,0,5.2-15.6,4.7-20.3-1.4-12-13.2-35.9-25.6-38.7,4.5-6.3-1.2-10.2-1.6-16.4Z"/>
    <path class="st62" d="M210.9,189.5c.2,0,1.3,2.3,3.2,3.3.4,6.1,6.1,10,1.6,16.4-8.3-1.8-24.1,0-32.2,3.3-4-8,3-17.4,3.2-26.2,8.3.2,15.4-.2,24.1,3.3Z"/>
    <path class="st46" d="M350.9,200.9l3.2,6.5c-7.2,4.6-9.4-1-11.3-1.6,1.8-3.3,5.9-3.6,8-4.9Z"/>
    <path class="st78" d="M391.1,214c-2.6.7-6,3.4-9.2,3.7-.5,5.7-6.7,8.4-8.5,11-2-5.2-6.5-3.2-9.6-.8s-9.1,13.9-9.4,15c-3.7,12.8.7,29.4-2.3,42.8-4.8,1.5-17.1,14.1-20.1,14.9s-6.6-3.4-8.6-2.4-3.1,4.9-4.9,6.6c-4.4,4.2-8.4,0-6.4,12.3-6.1,1.4-1-10.3-7.4-11.4-6.6-1.1-3,10.8-8.7,9.7l1.6-16.4c10,2.4,33.2.6,31.9-13.5-1-11-5.1-9.8-12.6-11.1,2.9-6.4,12.5-.4,15.4-6.6,1.4-3-1.6-5-2.1-7.6s3.6-4.6-2.1-6.5l1.8-10.3c9.3,1.8,7.6-3,9.6-5s13.6-13.5,14.5-13.9c5-2.2,9.3.5,16-3.4,6.3-3.6,9.4-11.5,11.7-13.4,5.9-5,3.7,1.7,10.9-10.2l-1.6,16.4Z"/>
    <path class="st21" d="M236.6,268.1c-.3,2.1,1,5.4-1.6,6.6-.9-6.7-1.9-14.3-3.2-21.3s-.5-3.9-1.6-6.6-7.3-12.2-9.6-15.6c-8.2-12.6-9.1-9.7-22.6-9s-9.7,1.1-14.5,1.6c-.3-2.3,1.4-4.4,1.6-6.5s0-1.1,0-1.6c38-16.5,56.3,17.8,51.5,52.4Z"/>
    <path class="st252" d="M212.5,241.9c-3.3,2,2.4,6.5,2.8,6.6,3.3.5,8.7-.7,8.6-4.8l6.3,3.1c1.1,2.6,1.1,4,1.6,6.6h-36.2c-2.8-.3-4.6-3.7-8.1-3.4s-1.3,5.5-5.7,3.4c-.3-1.5.4-3.8,0-4.9l9.7-1.7c-.8-1.6-1.2-3.2-1.6-4.9,6.2,6.8,15.8,5.1,22.5,0Z"/>
    <path class="st145" d="M212.5,241.9c-6.7,5.1-16.3,6.8-22.5,0-2.1-7.9-1.6-8.1,3.2-14.7,10.2-5.8,31.9,5.1,19.3,14.7Z"/>
    <path class="st148" d="M198,222.2c13.5-.8,14.4-3.6,22.6,9,2.3,3.5,8.5,13,9.6,15.6l-6.3-3.1c0,4.1-5.3,5.3-8.6,4.8-.3,0-6-4.6-2.8-6.6,12.6-9.6-9.1-20.6-19.3-14.7,1.4-1.9,3-3.5,4.8-4.9Z"/>
    <path class="st277" d="M215.7,209.1c12.4,2.8,24.1,26.7,25.6,38.7.6,4.7,2.7,20.4-4.7,20.3,4.8-34.6-13.5-68.9-51.5-52.4l-1.6-1.6v-1.6c8.1-3.3,23.9-5.1,32.2-3.3Z"/>
    <path class="st127" d="M370.2,330.4c-.3,5.2,4.1,10.6,4.8,16.4-27.1-6.4-64,2.3-92.4,0-14.3-1.2-40.4-8.2-54-3.3,1.4-6.2,7.4-11.5,9.7-16.4,7.2.4,14.7,3,21.9,3.1,15.5.3,29.6-.6,44.9-1.4,12.1-.7,24.8,1.1,36.4.7s11.7-3.7,16.7-3.2c3.7.4,7.4,5,12,4.2Z"/>
    <path class="st220" d="M373.4,228.8c-10.3,15.5-15.5,39-6.4,56,1,1.8,3.3,2.1,4.8,4.6s2.6,6.3,5.8,8.9c1.1,7.3-7,24.6-7.4,32-4.6.9-8.3-3.8-12-4.2-5-.5-12.1,3.1-16.7,3.2-11.6.4-24.3-1.4-36.4-.7-15.3.8-29.4,1.8-44.9,1.4-7.2-.2-14.7-2.7-21.9-3.1,4.5-9.6,1.4-9.9.4-17.6s-2.4-18.8-3.6-28.2c7.6,2.2,6.7-8.6,8.3-9.6,5.3-3.6,17.5,6.3,23.7,6.5l1.8,8c2.1,0,1.6-3.3,3.2-4.9-1.2,6.4,4.8,15,10.8,16.1,2.7.5,4.8-1.2,6.9-1.3,1.8,1.2,6.1,2.8,8,3.3l-1.6,16.4c5.7,1,2.1-10.8,8.7-9.7,6.4,1.1,1.3,12.8,7.4,11.4-2-12.3,1.9-8.1,6.4-12.3s3.2-5.8,4.9-6.6,5,3.3,8.6,2.4,15.3-13.4,20.1-14.9c3-13.3-1.4-29.9,2.3-42.8.3-1.1,8.2-14.1,9.4-15,3.1-2.4,7.6-4.4,9.6.8Z"/>
    <path class="st244" d="M387.9,300.9c1.6,1.4,8.2,6,9.7,6.6,2.7,7.4-2.3,15.4-1,23,1,5.4,10,20.6,15.5,21.3v6.6c-2.4-.8-6.3-.4-9.7-1.6s-11.3-6.9-12.9-9.8-4.7-13.8-4.9-15.5c-1.4-12.6,6.2-20.2,6.2-21.3,0-1.9-10.3-10.1-2.9-9Z"/>
    <path class="st50" d="M379.9,289.4c.2.2,2,3.5,3.2,4.9s1.9,4,4.8,6.6c-7.4-1.1,2.9,7.2,2.9,9s-7.6,8.8-6.2,21.3c.2,1.7,4,14,4.9,15.5-.6.9-3.2,2.8-3.2,3.3-4.5,1.4-8.1-2.5-11.3-3.3-.8-5.7-5.1-11.1-4.8-16.4.4-7.4,8.5-24.8,7.4-32-3.2-2.7-4-6.1-5.8-8.9.6-.3,1.5-1.6,1.6-1.6.3,0,6.2,1.5,6.4,1.6Z"/>
    <path class="st20" d="M373.4,237l6.4-.9c-2.7,13.2-6.2,26.2-11.2,38.6-3.5-16-2.4-23.4,4.8-37.7Z"/>
    <path class="st45" d="M426.5,256.6l3.2,16.4-16.1-3.3c-10.5-3.4-23.4-1.1-34.4-1.4l-2.4,2.5-.2,12.1c-4.4-8-3.2-7.5-1.6-16.4,3.5-7,8.1-2.9,13.2-3.6s7.6-2.9,11.7-2.9c6.6,0,11.1,4,19,0,2.4-1.2.7-5.8,7.6-3.3Z"/>
    <path class="st197" d="M379.9,287.8v-8.2c3.6,1.2,11.4.8,15-.3s4-5.3,8.4-6.2c2.8-.6,9.7-.5,12.1.7s2.3,8.3,8,9.1c-4.8,1.3-10.2,4.9-17,5-6.1,0-9.9-2.6-17.3-1.3s-3.8,2-4.4,6.1c-.1.8-.8,1.5-1.6,1.6-1.2-1.4-3-4.8-3.2-4.9v-1.6Z"/>
    <path class="st279" d="M413.7,269.8c5.1,1.6,9.8,6,11.3,11.5v1.6c-.6,0-1.2-.1-1.6,0-5.8-.8-4.8-7.4-8-9.1s-9.3-1.3-12.1-.7c-4.4.9-5.1,5.1-8.4,6.2s-11.3,1.5-14.9.3v8.2c-3.1-.6-2.4-3.4-3.2-4.9l.2-12.1,2.4-2.5c11,.3,23.9-2,34.4,1.4Z"/>
    <path class="st43" d="M398.2,249.2c-.6.4-.6,2.5-1.7,2.6l-13.2-7.8c-.4-24.8,38.3-11.1,14.9,5.2Z"/>
    <path class="st204" d="M426.5,251.7c-3.8-3-24.3-18.9-19.3-24.6,9.7,4.8,29.5,10.1,23.8,24.3-1.2.9-3.4,0-4.5.2Z"/>
    <path class="st159" d="M428.1,258.3c3.5,4.1,8.1,15.6,13.7,14.8s.8-5.2,4.8-3.3l4,8.2c-.3,4-1.9,7.8-3.2,11.5,1.6-10.2-2.8-4.7-8-7.4s-3.6-4.3-5.7-5.7l-8.8,4.9c-1.4-5.4-6.2-9.8-11.3-11.5l16.1,3.3-3.2-16.4c.4.2,1,1.2,1.6,1.6Z"/>
    <path class="st238" d="M428.1,258.3c.5.4,2.2,0,3.1.9,2.6,2.3,4,6.8,7.3,8.9l4.8-9.8,5.6,4.9c.9,5.4,2,8.9,1.6,14.7l-4-8.2c-4-1.9-4.3,3.2-4.8,3.3-5.6.8-10.2-10.6-13.7-14.8Z"/>
    <path class="st290" d="M449.1,299.2c5,.6,2.7,2.2,5.6,4.9,8.9,8.3,20.7,22.6,12.8,36s-17,9.9-21.3,11.1c-8.5,2.4-12.8-.8-21.3-1.2,4.6-8.8,11-7.1,6.4-19.7,17.1,2.1,11.8-8.5,12.6-20.3l-1.3-1.9c-1.7-1.1-7.4,1.1-10.5,1-2.1,0-3.7-1.8-4-1.8,1.1-.5,2.1-1.1,3.2-1.6s2.1-1.1,3.2-1.6c2.4-1.2,7.6-4.8,8-4.9,1-.3,5-.2,6.4,0Z"/>
    <path class="st5" d="M424.9,281.2l8.8-4.9c2,1.4,3.6,4.6,5.7,5.7,5.2,2.7,9.6-2.8,8,7.4-1.1,3.2-.3,7.6-4.8,6.6-.3-3.2-.2-5.3-3.2-7.4l-4.8,2.5v-4.8c-1.1-.6-2.6.2-3.2,0s-1.3.2-1.6,0c-.7-.6,2.2-3.9-4.8-3.3v-1.6Z"/>
    <path class="st170" d="M431.4,286.1c.7.3,2.1-.5,3.1,0v4.8c.1,0,4.9-2.5,4.9-2.5,3,2.1,2.9,4.2,3.2,7.4,0,1.1,0,2.2,0,3.3-.4.1-5.6,3.7-8,4.9,4.4-7.8-3.6-10.6-3.2-18Z"/>
    <path class="st237" d="M426.5,307.4c.5,0,1.1,0,1.6,0s1.8,1.7,4,1.8c3.1,0,8.9-2.1,10.5-1l1.3,1.9c-.8,11.8,4.6,22.4-12.6,20.3,4.6,12.5-1.8,10.9-6.4,19.7-1.1,0-2.1,0-3.2,0-6.2-11.8-21.8-19.7-9.9-33.9l-4.6-7.1c2,.2,5.4.7,6.4-1.6,4.6.7,9.7-.2,12.9,0ZM442.4,325.2c2.3-10-11.4-6.1-10.6-.6l3.8,3.9,6.8-3.3Z"/>
    <path class="st181" d="M407.2,309.1l4.6,7.1c-12,14.1,3.6,22.1,9.9,33.9-2.6,0-7.4,1.9-9.7,1.6-5.5-.7-14.5-15.8-15.5-21.3-1.4-7.6,3.6-15.6,1-23,2.1.8,7.2,1.4,9.7,1.6Z"/>
    <path class="st41" d="M268.8,286.1c-.3-3.5.7-10.1,4.3-11.3,4.8-1.1,9.3,2.3,14.1,1.5,3.6-.6,4.8-4.7,8.2-5,6-.6,13.3,10.1,16.2,1.6,2.3-.4,4.1,1.5,5.5,1.7,7.5,1.2,11.6,0,12.6,11.1,1.3,14.1-21.9,16-31.9,13.5s-6.2-2.1-8-3.3c8.6-.5,9.5,2.3,15.5,2.7,9.6.7,25.1-7.4,19.7-18.9h-6c-5.6,19.2-16,6.2-23.6,6.2-7.3,0-13.3,13.7-17-6.3-3.1-.5-4.3-.5-6.3,1.6-1.6,1.6-1.1,4.9-3.2,4.9Z"/>
    <path class="st172" d="M272,281.2c2-2.1,3.2-2.1,6.3-1.6,3.7,20,9.7,6.3,17,6.3,7.6,0,18,13,23.6-6.1h6c5.4,11.4-10.1,19.5-19.7,18.9-6-.4-6.9-3.3-15.5-2.7s-4.2,1.8-6.9,1.3c-6-1-12-9.7-10.8-16.1Z"/>
    <path class="st121" d="M389.5,296c8.6,8,12.2,9.7,24.1,11.5-1,2.3-4.4,1.8-6.4,1.6-2.5-.2-7.5-.9-9.7-1.6s-8-5.1-9.7-6.6c-3-2.6-4-5.6-4.8-6.6.8-.2,1.5-.9,1.6-1.6,1.5,1.2,3.5,2,4.8,3.3Z"/>
    <path class="st2" d="M424.9,282.9c7-.6,4.2,2.7,4.8,3.3.5,6.5-1.4,13.7,1.6,19.7-1.1.5-2.1,1.1-3.2,1.6-.5,0-1.1,0-1.6,0l.7-6.7c-4.5-.5-11.8-6.9-14.7-7.7-4.8-1.4-11,.7-15.5-.3s-.5-4.3-3.4-3.3l-4,6.5c-1.3-1.2-3.4-2.1-4.8-3.3.6-4.1-1.5-5,4.4-6.1s11.2,1.3,17.3,1.3c6.8,0,12.2-3.7,17-5,.5-.1,1.1,0,1.6,0Z"/>
    <path class="st142" d="M434.6,304.2c-1.1.5-2.1,1.1-3.2,1.6-3-6-1.2-13.2-1.6-19.7.3.2,1.1-.2,1.6,0-.3,7.4,7.6,10.3,3.2,18Z"/>
    <path class="st227" d="M389.5,296l4-6.5c3-1.1,2,2.9,3.4,3.3,4.5,1.1,10.7-1.1,15.5.3,2.8.8,10.2,7.2,14.7,7.7l-.7,6.7c-3.2-.2-8.3.7-12.9,0-12-1.7-15.5-3.5-24.1-11.5Z"/>
    <path class="st102" d="M442.4,325.2l-6.8,3.3-3.8-3.9c-.9-5.5,12.9-9.4,10.6.6Z"/>
  </g>
  <g>
    <path class="st38" d="M500.6,417.2c-8.5,7.9-17.9,16.3-27.4,22.9-1.5,1-3.3,2.3-4.8,3.3-3.6,2.4-21.2,8.6-20.5,13.9,11.2,14.1,21,32.4,26.1,49.9s3.9,25.9,6.5,29.4c1.8,2.4,12.6,7.1,16.8,10.7,6,5.2,7.6,8.9,11.2,15.6,5.9,10.9,1.3,12.1,14.5,18,8.6,3.9,15.9,5,24.1,9.8-3.1-2.3-9,0-9.7,0-9.2-.7-20.7-4.2-30.2-5.3-3.5-4.8-1-11.4-2.3-16.5-.5-1.9-2.8-2.5-2.9-2.7-3-7.8-2.3-9-9.7-14.7-7.2-5.7-19.5-6.9-20.8-15.7-1.4-9.2-.8-13.5-3.3-23.7s-1.6-8.9-3.2-13.1c.1-17.7-17.8-29.4-24.3-41.8-1.7-3.2-1-4.2.1-7.4,2.3-.8,5-.5,6.4-3.3,1.1,0,2.2,0,3.2,0,9.6-.9,42.1-25.2,49.9-32.8v3.3Z"/>
    <path class="st72" d="M447.5,446.7c-1.5,2.8-4.2,2.4-6.4,3.3-4,1.5-8.2,2.2-11.3,5.7,4.6.1,5.6,3.8,8,5.7-2.2-.6-3.5,1.1-4.8,1.6s-3.8-1.2-3.2,1.6c2.5.1,4.2,1.4,5.5,3.4,2.7,4.1,14.6,31,15.3,35.2,1.1,7.1-.3,18.5-5.6,23.6-1.6,1.6-3.7,1.4-3.9,1.7l1.7-8.8c-.3-1.7-3.2-.9-3.3-1-.6-.7-.5-8.5-2.4-9.8-7.6,3.5-13.7,14-19.3,18s-8.2,3.2-12.1,4.9c-19.8-4.5,3.9-14.1,8.8-18,5.3-4.2,9.1-11.4,14.9-15.7l-5.2-23.7c-1.9-2.8-7.6-1.1-10.5-1.6-.5,0-1.1.1-1.6,0l8-1.6c6-5.2-24.6-13.9-27-14.3-7.5-1.3-16.9.1-24.5,1.2,18.6-7.4,39.8-.2,59.7-5.6,2.2-.6,3.6-2.2,4.7-2.6s2.4-1.3,3.2-1.6c6.4-2.3,7.1-1.3,11.3-1.6Z"/>
    <path class="st284" d="M502.2,566.3c0,.2,2.4.8,2.9,2.7,1.4,5.1-1.1,11.7,2.3,16.5,9.5,1.1,21,4.6,30.2,5.3v1.6c-.5-.1-1.1.1-1.6,0-4.5-.9-11.7-2.1-16.1-1.6s-3.8-1.1-3.2,2.4c2.1,3.8,7.1,5.7,9.6,8.3,1.6,1.7,1.3,4.8,1.9,5.3,1.9,1.8,13.8-1.2,14.2,6.8-2.3,3.2-31,.9-37,1.7-6-2.3-17.8-.6-17.7-9.2s5.8-14.5,6.7-15c2.4-1.3,5.4.9,7.7-2s1.6-8.1,1.6-11.5c0-4-.3-7.7-1.6-11.5Z"/>
    <path class="st80" d="M547.2,590.9c5.6,3.3,10.9,7.1,14.5,13.1,2.7,15.4-6,19.1-17.7,24.6l-40.6,5.3c-13.1,4.4-26.4,7.1-39.8,9.4l-1.6-.8,1.6-2.5c11.2-2,19.8-7.2,29-9.8,17.5-5,36.7.2,54.7-9.8,1.3-.7,3.9-2.3,4.8-3.3,10.7-10.9-4.1-21.9-14.5-24.6v-1.6c.6,0,6.5-2.3,9.7,0Z"/>
    <path class="st37" d="M492.5,551.6c-2,3.8-16.8-10.2-14.5-2.5,1.7,5.5,10.6,15.5,13.2,21,2,4.3,3,18.7,8.5,17.5l4-9.8c0,3.4.6,8.7-1.6,11.5-12,3.7-10.8-18.2-14.8-21-1.3-.9-4.4,0-7-1.9s-6.1-9.7-7.5-11.2-8.6-3.7-10.9-7c.3-.9-.3-2.4,0-3.3s2.8-1,3.1-2.7c.2-1.3-2.3-4.6-3.1-7.2.9.6,2.6,1,3.2,1.6,1.9,1.9,2.1,6.3,4.8,6.5l-1.6-31.1c2.5,10.2,1.9,14.4,3.3,23.7,1.3,8.7,13.6,10,20.8,15.7Z"/>
    <path class="st91" d="M492.5,551.6c7.3,5.8,6.6,6.9,9.7,14.7,1.4,3.8,1.6,7.4,1.6,11.5l-4,9.8c-5.5,1.2-6.5-13.2-8.5-17.5-2.6-5.5-11.5-15.5-13.2-21-2.3-7.7,12.5,6.3,14.5,2.5Z"/>
    <path class="st124" d="M465.2,499.1c1.6,4.2,2.2,8.8,3.2,13.1l1.6,31.1c-2.7-.3-2.9-4.6-4.8-6.5-.3-4.7,2.2-9.2,1.8-13.9-.3-3.6-2.8-5.4-3.3-8.3-2.4-13.7-3-22.9-11.4-35.1h1.6c3.9,6.1,8.5,12.5,11.3,19.7Z"/>
    <path class="st54" d="M441,450c-1.1,3.2-1.8,4.2-.1,7.4,6.4,12.4,24.4,24.1,24.3,41.8-2.8-7.1-7.3-13.6-11.3-19.7-6-9.4-7.6-11.2-16.1-18-2.4-1.9-3.4-5.6-8-5.7,3-3.5,7.2-4.3,11.3-5.7Z"/>
    <path class="st226" d="M405.6,531.9c-1.7.8-3.3,2.2-4.8,3.3-14.2,1.9-28.6.5-40.2-9.8-3-2.7-8.4-9.6-11.3-13.1v-3.3c1.1,0,2.1,0,3.2,0,8.3,11.9,35.3,11.6,47.8,6.9,14.3-5.3,22.4-30.1,13.3-43,2.9.5,8.6-1.3,10.5,1.6l5.2,23.7c-5.8,4.3-9.6,11.5-14.9,15.7-4.9,3.9-28.6,13.5-8.8,18Z"/>
    <path class="st136" d="M433,463.1c2.9,1.9,5.2,4.5,8,6.6,4.2,8.2,6.1,17.3,9,26.1,4.2,13,8.1,26,11.9,39.5.7,2.5,3.2,5.8,3.1,7.2-.2,1.6-2.9,2.4-3.1,2.7-10.1-5.1-14.5,4.9-24.1,6.6-.8-.7-8.6-3.3-10.1-3-4.3.6-6.9,8.4-17.3,9.6-.4-6.4,7.5-6,9.2-7.2,9.9-6.8,13.6-15.1,21.3-22.3.3-.3,2.3-.1,3.9-1.7,5.3-5.1,6.7-16.6,5.6-23.6-.7-4.3-12.6-31.1-15.3-35.2-1.4-2.1-3.1-3.3-5.5-3.4-.6-2.8,2-1.1,3.2-1.6Z"/>
    <path class="st249" d="M412.1,472.9c.5.1,1.1,0,1.6,0,9.1,12.8,1,37.7-13.3,43-12.5,4.6-39.5,5-47.8-6.9,5.7.2,8.9,4.6,14.4,5.8,8.5,1.9,29,.4,35-6.3.6-.7,8-11.4,8.2-12.1,1.4-4.7-.9-17.9-3.8-21.7-2.6-3.5-8.6-2.1-10.4-6.6,5.5,1.2,10.6,3.8,16.1,4.9Z"/>
    <path class="st178" d="M368.6,458.2c7.6-1,17-2.5,24.5-1.2s33,9.1,27,14.3l-8,1.6c-5.5-1.1-10.6-3.7-16.1-4.9s-14-1.9-20.9-3.3c4.4-2.6,8.1-.1,9.6-3.3-8.6.2-19-.8-27.4,1.6v-1.6c3.9-.9,6.4-2.6,11.3-3.3Z"/>
    <path class="st182" d="M439.4,518.8c-1.5,1.9-3.8,4.6-4.8,6.6,1.4-4.8-3.9-3.1-5.6-2.4-12.4,5-11.3,10-28.1,12.3,1.5-1.1,3.1-2.5,4.8-3.3,3.8-1.7,8.5-2.3,12.1-4.9,5.6-4,11.7-14.6,19.3-18,1.9,1.3,1.8,9.1,2.4,9.8Z"/>
    <path class="st276" d="M437.8,461.5c8.5,6.8,10,8.6,16.1,18h-1.6c-4.4-6.4-6.3-6.2-11.3-9.8-2.8-2.1-5.1-4.6-8-6.6,1.4-.6,2.6-2.3,4.8-1.6Z"/>
    <path class="st183" d="M439.4,518.8c.2.2,3.1-.7,3.3,1l-1.7,8.8c-7.8,7.2-11.4,15.5-21.3,22.3-1.7,1.2-9.6.8-9.2,7.2-12.9,1.5-25.8-2-38.6-1.6-2.2-.5-3.7-1.4-4.8-1.6-7-1.8-7.5-5.8-11.2-9.1-2.7-2.4-7.6-4.8-9.8-7.3s-3.3-7-4.8-9.8c18.7,19.6,40.7,27.2,67.6,21.3s6.8-2.5,11.3-4.9c4.1-2.2,13.5-7.8,14.1-12.6s-1.2-2-1.2-2.1c.5-2.9.2-2.3,1.6-4.9,1-2,3.4-4.7,4.8-6.6Z"/>
    <path class="st36" d="M461.9,548.3c2.2,3.2,9.1,5.2,10.9,7s4.7,9.1,7.5,11.2,5.8,1,7,1.9c4,2.8,2.8,24.7,14.8,21-2.3,2.9-5.4.7-7.7,2-.9.5-6.7,12.9-6.7,15-.1,8.6,11.7,6.8,17.7,9.2-.2,0-1.5,2.1-3.2,2.5-3.5.8-10.1-.2-9.7,5.7-5,0-17.1,2.2-22.5,3.3-2.7-1.7-12.5,4.4-11.3-.8,2.5-10.7,5.2-7,12.8-11.6,2.2-1.3.3-5.7,5.5-2.4l4.1-3.4c-2.3-4.8-5.6-7.1-3.7-13-2.1-3.5-22.4-1.5-26.6,1.7-1.6,0-3.3-.2-4.8,0l-11.3-3.3c6.8,2.2,6.3-3,8-4.1s6.6-3,9.7-4.8c2.8-1.5,7.1-.9,8.8-4.2,1.9-3.7-1-11.2-2.6-15.1s-3.1-1.3-3.1-2.2,5.5-12.5,6.5-15.5Z"/>
    <path class="st1" d="M519.9,590.9c1.2,9.3,26.3,15.2,29,22.1l-9.7,5.7c-2.5-.1-4.4,0-6.8.4-12.3,1.7-23.9,2.4-36.6,6.2-.4-1.5-1.9-1.6-3.2-1.6-.4-5.9,6.2-4.9,9.7-5.7s2.9-2.4,3.2-2.5c6-.8,34.7,1.6,37-1.7-.4-8.1-12.3-5-14.2-6.8s-.3-3.6-1.9-5.3c-2.5-2.6-7.5-4.5-9.6-8.3-.6-3.5.9-2.2,3.2-2.4Z"/>
    <path class="st89" d="M536,592.5c9.4,6.6,21.7,10.2,16.1,24.6-.9,1-3.5,2.5-4.8,3.3-2.8,1.6-7.1-1.6-8-1.6l9.7-5.7c-2.6-6.9-27.8-12.9-29-22.1,4.4-.4,11.6.7,16.1,1.6Z"/>
    <path class="st109" d="M552.1,617.1c5.6-14.4-6.7-17.9-16.1-24.6.5.1,1.1-.1,1.6,0,10.4,2.7,25.2,13.7,14.5,24.6Z"/>
    <path class="st174" d="M87,605.6c.7,9.2-.7,11.7,9,16.2s21.6,1.7,31.2,3.5c2,.4,4.9,2.7,9.7,3.3,19.5,8.5,44,7.1,65.2,6.6,3.8-.1,6.9-2.6,10.7-2.5,8.3.4,27.1,9.6,38.1,11.8,33.4,6.6,71.2,7.9,103.3-2.8,1.6-.5,3.2-1.1,4.8-1.6,6.5,1,14.4-5,20.2-4.7,2.7.1,5.1,2.5,8.2,2.9,6.6,1,13.2,2.4,19.9,1.8,19.7,3.7,36.5,3.6,56.3,0l-1.6,2.5,1.6.8c-30.3,5.1-45.7,1.9-74.9,0-22.3-1.5-40.2,7.7-61.9,9.8-23.1,2.2-53.1.4-76-3.8-12.7-2.3-24.9-7.4-37.8-8.6-11.1-1.1-24.5,1.7-36.7.9-20-1.2-39-7.6-58.8-9.8-13.7-4.1-41.1-4.6-37-24.6.4-.6,1.1-1.1,1.6-1.6s4.5-3.6,4.8-3.3c0,1.1,0,2.2,0,3.3Z"/>
    <path class="st152" d="M492.5,628.6v1.6c-9.2,2.7-17.8,7.8-29,9.8-19.8,3.6-36.6,3.7-56.3,0-4.9-.9-15.5-2.4-19.3-4.1s-2.7-2.5-.7-2.5c1.4-.3,2.6-1.2,4-1.6l56.9,4.3c14.8-1.7,30.1-3.6,44.5-7.6Z"/>
    <path class="st109" d="M539.2,618.7c1,0,5.2,3.2,8,1.6-18,10-37.2,4.8-54.7,9.8v-1.6c.8-.2,2.4-3,3.2-3.3,12.7-3.7,24.3-4.5,36.6-6.2,2.4-.3,4.4-.5,6.8-.4Z"/>
    <path class="st273" d="M461.9,545c-.3.8.3,2.4,0,3.3-1,3.1-6.5,14.7-6.5,15.5s2.5.6,3.1,2.2c1.7,3.9,4.5,11.4,2.6,15.1-1.7,3.3-6,2.7-8.8,4.2-3.2,1.8-8.1,3.8-9.7,4.8s-1.2,6.2-8,4.1l11.3,3.3c-2.1.2-9,2.1-11.3,3.3-5.1.8-8.4,5.6-11.3,6.6s-2.2-.2-3.2,0c0-.3-2.9-4.3-1.6-6.6,3.2-.8,20.9-10.1,24.1-12.4,9.4-6.6,13.6-18.6,4.9-27.8s-5.5-2.7-7.7-4.5c-1.2-1-1.4-4-2-4.4,9.6-1.7,14-11.6,24.1-6.6Z"/>
    <path class="st90" d="M452.3,479.5c8.4,12.2,8.9,21.5,11.4,35.1.5,2.9,3,4.7,3.3,8.3.4,4.8-2.1,9.2-1.8,13.9-.7-.7-2.3-1-3.2-1.6-3.9-13.4-7.7-26.5-11.9-39.5s-4.7-17.9-9-26.1c4.9,3.6,6.9,3.5,11.3,9.8Z"/>
    <path class="st76" d="M193.2,448.3c3.1.5,8.5,1.5,9.7,4.9-6.9-1.1-10.8,4.8-14.5,9.8-3.1,2.7-3.6,5-4.8,6.6s-2.1,2.9-3.2,4.9-2.8,2.3-3.2,3.3h-1.6c-.5-5.9,6.2-18.2,9.7-22.9.1-.2,3.2.7,3.4-1l-1.8-5.5c1.9,1.1,5.6-.1,6.4,0Z"/>
    <path class="st33" d="M357.3,461.5v1.6c-4.4,1.3-6.5,3.7-9.7,6.6-.9.8-2.5,1.2-3.2,2.4l-12.9,18.9-1.6-1.6-1.6-5.7c-7.6,6.1-19.3-2.3-28-2.3-4.9,0-13.3,2.4-18,4.6l-3.4-4.9-10.2,1.8c1.1,4,1.6,7.3,1.6,11.5s-1.3,5.8-1.6,8.2c4-11.9-10.4-35.7-20.9-39.3-10.4-5.7-22.2-4.8-33.8-8.2s-3.4-1.1-4.8-1.6-1.1-1.4-1.6-1.6c3.9-.2,7.7-.1,11.6.5,41.2,5.9,76.2,19.5,118.3,13,7-1.1,13.5-2.2,19.7-3.6Z"/>
    <path class="st223" d="M396,468c1.8,4.5,7.8,3.1,10.4,6.6,2.9,3.9,5.2,17,3.8,21.7-.2.7-7.6,11.4-8.2,12.1-6,6.7-26.5,8.2-35,6.3-5.5-1.2-8.7-5.7-14.4-5.8-1.1,0-2.1,0-3.2,0v3.3c-5.8-7.2-11.6-13.4-4-22.9l4,3.3c.2,3.1.9,3,1.6,4.9,11.6,29.7,76.9,5.7,44.3-24.7-4.7-4.4-15.5-5.4-21.8-4.8v-1.6c.5-.5,1-1.3,1.6-1.6,7,1.3,14,1.7,20.9,3.3Z"/>
    <path class="st70" d="M373.4,466.4v1.6c-1.4.1-2.8,0-3.2,1.6-4-.2-9.6.8-12.9,3.3-2.4,1.8-3.6,5.6-4.8,8.2-.5,1.1-1.2,1.8-1.6,3.3-1,3.4-1.9,3.6-1.6,8.2l-4-3.3c-7.6,9.5-1.8,15.7,4,22.9,2.9,3.5,8.2,10.4,11.3,13.1h-1.6c-6.8-7-18.1-12.3-17.7-22.9-2.7-.3-1.8,6.7-1.6,8.2-6.7-9.8,3.2-33.1,11.3-39.3,5.9-4.6,15.3-5.4,22.5-4.9Z"/>
    <path class="st245" d="M400.8,535.2c16.9-2.2,15.8-7.2,28.1-12.3s7-2.3,5.6,2.4c-1.4,2.6-1.1,2-1.6,4.9-1,.6-2.2,1-3.2,1.6.5-5.7-1.3-2.8-4.1-1.7-17.9,6.7-30.9,11.3-50.6,6.6-6.6-2.2-7.3-3.3-12.9-6.6-1.2-1.4-2-3.7-3.2-4.9h1.6c11.7,10.4,26,11.7,40.2,9.8Z"/>
    <path class="st130" d="M437.8,551.6c.6.5.8,3.5,2,4.4,2.2,1.8,5.1,1.8,7.7,4.5,8.6,9.2,4.5,21.2-4.9,27.8s-20.9,11.5-24.1,12.4c-15.2,4-27.2,7.9-41.9,12.2-13.1,3.8-6.5,1.2-18.5.9-7.6-.2-28.7,2.4-37.7,3.3l-6.4-3.3c11-1.2,28-7.7,36.1-8,4.5-.2,12.9,2.4,18.1,2.5,11.4,0,45.7-9.1,55.2-14.1,8.9-4.6,17.1-12.4,15.4-23.8-.2-1.6-5.3-6.5-7-7-4.3-1.4-6.2,1.4-6.9,1.4-15.3,0-37.8-4.9-53.1-8.2,12.8-.4,25.7,3.1,38.6,1.6,10.4-1.2,13-8.9,17.3-9.6,1.5-.2,9.3,2.4,10.1,3Z"/>
    <path class="st167" d="M357.3,463.1c8.3-2.4,18.7-1.4,27.4-1.6-1.5,3.1-5.3.6-9.6,3.3-.6.4-1.1,1.1-1.6,1.6-7.2-.5-16.6.3-22.5,4.9l-3.2-1.6c3.2-2.9,5.2-5.3,9.7-6.6Z"/>
    <path class="st133" d="M433,530.3c0,.1,1.4.8,1.2,2.1-.6,4.8-10,10.4-14.1,12.6-.6-2-3.2-1.8-4.8-1.6.4-.6,1-1.4,1.6-1.6,8.7-3.4,6.3-5.5,12.9-9.8,1-.7,2.2-1,3.2-1.6Z"/>
    <path class="st73" d="M450.7,597.4c4.2-3.2,24.5-5.2,26.6-1.7-1.8,5.9,1.4,8.1,3.7,13l-4.1,3.4c-5.2-3.3-3.3,1.1-5.5,2.4-7.6,4.6-10.3.9-12.8,11.6-1.2,5.3,8.6-.9,11.3.8-9,1.7-20.6,6.4-31.4,6.6-15.2.2-32.1-6.9-47.5-1.6-1.3.5-2.6,1.4-4,1.6-1.9,0,0,2.2.7,2.5,3.8,1.6,14.4,3.2,19.3,4.1-6.8.6-13.3-.8-19.9-1.8-3.1-.5-5.5-2.8-8.2-2.9-5.8-.2-13.7,5.7-20.2,4.7,6.4-2.2,13-5.8,19.3-8.2,3.1-1.2,7.3-1.8,11.3-3.3,3.8-1.4,8.6-2,12.2-4.9l-1-6.6-3.3,4.9c-6.8-4.6-12.9-.7-20.1,0-3.7.4-12.1-.4-14.1,0s-8.9,7.2-17.9,6.5c-4.9-.4-12-2.5-17.7-2.5-8.7.1-17.4,3.9-23.4-5.7,6.3.6,9.7-2.7,16.1-3.3,9-.9,30.2-3.6,37.7-3.3,12,.4,5.4,3,18.5-.9,14.7-4.3,26.7-8.2,41.9-12.2-1.3,2.2,1.6,6.2,1.6,6.6-.1,2.4-7.4,7.7.5,14.2,4.2,3.5,29.1.1,34.9-2,5.3-1.9,10.9-7.2,14.4-11.6,7.7-9.8-13.3-10.7-19.2-10.5Z"/>
    <path class="st267" d="M450.7,597.4c5.9-.2,26.9.8,19.2,10.5-3.5,4.4-9.1,9.7-14.4,11.6-5.8,2.1-30.7,5.5-34.9,2-7.8-6.5-.6-11.9-.5-14.2,1-.2,2.4.3,3.2,0l-1.6,4c.3,1.1,4.9,4.2,5.6,4.2h24.1c3.9,0,4.8-11.7.5-14.4-1.3-.8-14.8-.8-17.4-.4,2.2-1.2,9.2-3.1,11.3-3.3s3.2,0,4.8,0Z"/>
    <path class="st125" d="M492.5,623.7c1.4,0,2.8.1,3.2,1.6-.8.2-2.4,3.1-3.2,3.3-14.4,4-29.7,5.8-44.5,7.6l-56.9-4.3c15.3-5.3,32.3,1.8,47.5,1.6,10.8-.1,22.3-4.8,31.4-6.6s17.6-3.3,22.5-3.3Z"/>
    <path class="st65" d="M214.1,630.2l-2.4-3.3c25.1-3.4,45.5,8.9,69.6,12.7,35.3,5.6,60.9-7,94.7-10.9,4.2-.5,4.8-.9,2.2,3.1-6.3,2.4-12.9,6-19.3,8.2-1.6.6-3.2,1.1-4.8,1.6-33.4,6.1-69.6,7.4-103.1.9-13.4-2.6-24.8-9.4-36.9-12.4Z"/>
    <path class="st194" d="M128.8,569.6l1.6,21.3c2.7,3.2,10-12.5,11.3-14.7.9-.7,2.4-1,3.2-1.6.3,1,1.5,2.4,1.6,3.3s0,2.2,0,3.3c-3.6,3.7-7.5,11.3-11.7,14.2-1.4,1-4.1.4-5.8,1.4-7.8,4.8-14.6,9.2-22.6,13l7.4,12.4,18.3-3.4v1.6c-2,0-4.3,1.6-6.4,1.7l1.6,3.3c-9.6-1.7-17.6,2.9-31.2-3.5s-8.3-7-9-16.2c.9-.6,2.5-1,3.2-1.6.4,2-3.9,5.3.8,5,2.8-.2,24.4-8.3,27.1-10.1s7.4-5.7,5.9-7.9l-11.3-1.7c4.8-1.8,8.4-1.5,12.9-3.3,2.2-4.7,1.9-10.5,3.2-16.4Z"/>
    <path class="st202" d="M136.9,628.6c21.1,2.7,42.1,5.9,63.4,5,1.9-.2.6-2.8.9-3.4,1.2-1.9.8-1.7,3.2-1.6,1.7,0,7.8,1.2,9.7,1.6,12.1,3,23.5,9.8,36.9,12.4,33.5,6.5,69.7,5.2,103.1-.9-32.2,10.7-70,9.4-103.3,2.8-11-2.2-29.8-11.4-38.1-11.8-3.7-.2-6.8,2.4-10.7,2.5-21.2.6-45.7,2-65.2-6.6Z"/>
    <path class="st23" d="M132,620.4c7.2-.1,15.5,4.1,21.9,4.8,10.8,1.2,23.6.3,34.5,1.8,3.3.4,8.9,3,12.9,3.3-.4.6,1,3.1-.9,3.4-21.4.9-42.4-2.3-63.4-5-4.7-.6-7.7-2.9-9.7-3.3l-1.6-3.3c2.1,0,4.4-1.6,6.4-1.7Z"/>
    <path class="st201" d="M122.4,581.1c1.1.2,4.2,3.1,3.2,4.9-4.4,1.8-8,1.5-12.9,3.3-11.4,4.1-14.1,6.5-22.5,14.7-.7.7-2.3,1-3.2,1.6,0-1.1,0-2.2,0-3.3-.3-.3-4.2,2.6-4.8,3.3,2.7-10.4,31.6-25.7,40.2-24.6Z"/>
    <path class="st287" d="M167.4,492.6c-.4,5.4.3,11,0,16.4l4.8-14.7c.3,8.7-1.2,17.8,1.6,26.2-1.1-1.1-4.1-3.4-5.4-3.1l-7.5,4.8c.3-4,2.1-6.2,2.5-9,.7-5.8-1.8-15.5,4-20.5Z"/>
    <path class="st200" d="M173.9,520.4c4.3,4.2,6.5,12.2,11.3,16.4,1,1.6,4.7,4.1,6.4,4.9l-3.2,1.6c-3.8-2.2-6.4-2.8-9.7-6.6-1.4-1.6-8.3-14.7-10.5-14.7l-5.6,8.2c-.9-.9-1.5-2-1.6-3.3s-.1-3.5,0-4.9l7.5-4.8c1.3-.3,4.3,2.1,5.4,3.1Z"/>
    <path class="st287" d="M162.6,530.3v1.6c-3.5,2.4-4.4,4.8-6.4,6.6-6.5,5.5-13.3,10.2-19.3,16.4-.7.7-2.7,1-3.2,1.6v-3.3s-3.2,1.6-3.2,1.6c1-1.5.6-3.3,3.1-5.8,7.8-7.7,21.4-11.4,27.5-22.1.2,1.3.7,2.4,1.6,3.3Z"/>
    <path class="st22" d="M133.6,556.5c-2.9,3.7-3.8,8.6-4.8,13.1-1.3,5.9-1.1,11.7-3.2,16.4,1-1.8-2.1-4.8-3.2-4.9,1.7-12,1.6-16.4,8-26.2l3.2-1.6v3.3Z"/>
    <path class="st151" d="M175.5,482.8c-1.4,3.4-1.2,8.1-3.2,11.5l-4.8,14.7c.3-5.4-.5-11,0-16.4.6-7.7,1.5-10.3,8-14.7h1.6c-.6,1.3-.9,3.3-1.6,4.9Z"/>
    <path class="st122" d="M180.3,474.6c12.9,1.7,21.5-7.3,33.8-6.5-6.3,7.3-14.1,12.8-20.9,19.6-2.1,2.1-4.4,5.8-6.4,8.2l-12.9,11.5c-2.3-8.3,5.3-17.3,1.6-24.6.7-1.7,1-3.6,1.6-4.9s2.6-2.2,3.2-3.3Z"/>
    <path class="st30" d="M210.9,466.4c2.1-.2,4.3.1,6.4,0-4,9.6-15.2,17.1-24.1,21.3,6.8-6.8,14.6-12.4,20.9-19.6-12.3-.7-20.9,8.3-33.8,6.5,1.1-2,1.8-3.1,3.2-4.9,3.8-1.7,8.7.5,12,0,1.6-.3,2.4-1.6,2.5-1.6,4.4-.6,8.4-1.2,12.9-1.6Z"/>
    <path class="st253" d="M207.7,456.5c-.2.2.4,2.3-1.1,3.3s-17.6,7.3-8.6,8.2c-.1,0-1,1.4-2.5,1.6-3.3.5-8.1-1.7-12,0,1.2-1.6,1.7-3.8,4.8-6.6s2.6-.6,4-1.6c5.5-3.9,5.6-9.6,15.3-5Z"/>
    <path class="st123" d="M350.9,471.3c-8,6.2-18,29.5-11.3,39.3,1,7.6,2.3,5.7,4.8,9.8,11,17.9,23.7,22.9,43.5,26.2.5,0,1.8,1.5,3.9,1.7,5.4.6,12.9-1.9,17,1.6-26.9,5.9-48.9-1.7-67.6-21.3-2.7-5.1-5.6-10.3-6.7-16.2l-3-.2c-.1-1.1,0-2.2,0-3.3-.4-5.9.3-12.1,0-18l12.9-18.9c.7-1.3,2.3-1.7,3.2-2.4l3.2,1.6Z"/>
    <path class="st268" d="M233.4,461.5c3.8.8,10.8.4,14.5,1.6,10.5,3.6,24.9,27.4,20.9,39.3,0,.5,0,1.1,0,1.6-4.2,10.5-6.6,16.4-14.5,24.6-.4-1.2-2.3-2-3.2-1.6v-1.6c19.6-18.9,15.9-46.4-9.7-57.3-.9-.4-1.8-2.2-4.3-3s-4.9,0-6.9-.3v-3.3s3.2,0,3.2,0Z"/>
    <path class="st163" d="M270.4,494.2c0-4.2-.5-7.5-1.6-11.5l10.2-1.8,3.4,4.9c4.7-2.1,13-4.6,18-4.6,8.7,0,20.5,8.4,28,2.3l1.6,5.7c-7.1.2-13.9-1.2-20.9-1.6-11.3-.7-14.7-1.6-25.7,1.6-4.4,1.3-8.6,3.1-12.9,4.9Z"/>
    <path class="st0" d="M283.3,489.3l-6.3,5.9c-.7,2.7.5,4.7,3.1,5.6-1.5,2.2-6.1,12.6-4.6,14.6,1.9,0,3.1,1.1,4.6,1.8,1.1,1.2,1,4.1,1.6,4.9-2.6,0-6.7-1-8,1.6-2.9-1.2-6.9,2.6-8-4.9,2-4.9,2.3-9.7,3.2-14.7,0-.5,0-1.1,0-1.6.3-2.4,1.6-3.7,1.6-8.2,4.3-1.8,8.4-3.6,12.9-4.9Z"/>
    <path class="st210" d="M214.1,454.9c4.2,4.8,13,5.2,19.3,6.6h-3.2s0,3.3,0,3.3c-6.4-1-12.5-2.7-19.3-1.6v3.3c-4.5.4-8.5,1.1-12.9,1.6-9.1-.8,8-7.7,8.6-8.2,1.5-1,.9-3.1,1.1-3.3.3-.3,2.2.3,3.1-.1l-1.5-3.1c1.4.5,3.4,1.2,4.8,1.6Z"/>
    <path class="st179" d="M330,489.3l1.6,1.6c.3,6-.4,12.1,0,18-7.8.5.7-13.4-1.7-16.3l-20.8-5c7,.5,13.9,1.8,20.9,1.6Z"/>
    <path class="st98" d="M247.9,463.1c-3.7-1.2-10.7-.8-14.5-1.6-6.3-1.3-15.1-1.7-19.3-6.6,11.6,3.4,23.4,2.5,33.8,8.2Z"/>
    <path class="st193" d="M373.4,468c6.3-.6,17.1.4,21.8,4.8,32.6,30.3-32.8,54.4-44.3,24.7,6.8,4.9,14.5,9.1,23.1,9.2,10.5,0,27.3-13,20.5-24.8s-18.3-11.9-24.2-12.2c.4-1.6,1.9-1.5,3.2-1.6Z"/>
    <path class="st4" d="M370.2,469.6c5.9.2,21.2,7,24.2,12.2,6.8,11.9-10,24.9-20.5,24.8-8.6,0-16.3-4.3-23.1-9.2-.7-1.9-1.4-1.8-1.6-4.9-.3-4.6.6-4.8,1.6-8.2-.7,6.6,0,7.9,4.8,11.5,5.6,4.2,9.4,4.1,16.5,2.9,10.3-1.8,15.5-6.2,15.3-17.2-.2-9.6-23.3-8.8-30.2-8.6,3.3-2.5,8.9-3.4,12.9-3.3Z"/>
    <path class="st3" d="M355.7,495.9c-4.8-3.6-5.6-4.9-4.8-11.5.4-1.4,1.1-2.2,1.6-3.3,29-22.4,42.2,19.5,3.2,14.7Z"/>
    <path class="st132" d="M355.7,495.9c39,4.7,25.7-37.1-3.2-14.7,1.2-2.6,2.4-6.4,4.8-8.2,6.9-.2,30-1,30.2,8.6.2,11-4.9,15.4-15.3,17.2-7.1,1.2-10.9,1.3-16.5-2.9Z"/>
    <path class="st110" d="M339.6,510.6c-.2-1.5-1.1-8.5,1.6-8.2-.4,10.6,11,15.9,17.7,22.9,1.2,1.2,2.1,3.5,3.2,4.9-2.4-1.4-9.6-4.7-11.3-6s-6.8-11.8-6.4-3.9c-2.5-4.1-3.8-2.2-4.8-9.8Z"/>
    <path class="st144" d="M362.2,530.3c5.5,3.2,6.3,4.4,12.9,6.6,15.8,5.3,28.2,3.8,44.2,0l-2.4,4.9c-.7.3-1.2,1-1.6,1.6-8.3.8-17.5,5.7-27.4,3.3-19.8-3.3-32.4-8.4-43.5-26.2-.4-8,5.3,3,6.4,3.9,1.7,1.2,8.8,4.6,11.3,6Z"/>
    <path class="st110" d="M375,536.8c19.8,4.7,32.7,0,50.6-6.6,2.8-1.1,4.5-4,4.1,1.7-6.6,4.3-4.1,6.5-12.9,9.8l2.4-4.9c-16,3.8-28.4,5.3-44.2,0Z"/>
    <path class="st246" d="M254.3,608.9c6,.5,6.8,3.7,10.8,4.6,11.9,2.8,36.7,1.6,48.8.3l6.4,3.3c-6.4.6-9.8,3.9-16.1,3.3,6.1,9.6,14.8,5.8,23.4,5.7,5.7,0,12.8,2.1,17.7,2.5,9.1.7,16.5-6.2,17.9-6.5s10.4.3,14.1,0c7.2-.7,13.2-4.6,20.1,0l3.3-4.9,1,6.6c-3.6,2.9-8.4,3.4-12.2,4.9,4.3-6.2-.5-5.4-5.6-4.9-45.9,4.5-68.5,16.8-118.6,7.7-21.9-4-42.7-13.7-65.6-9.3l4.8,6.5c-2.5,0-2.1-.3-3.2,1.6-3.9-.2-9.6-2.8-12.9-3.3l8-.8-4.8-9c8.4,6.6,7.7.4,9.1,0,4.6-1.1,31.7-1.1,36.5,0,1.7.4,0,5,4.2,3.3l1.6-8.2c-3.7,1.1-8.9-1.6-11.8-1.2-1.8.3-3,2.9-6.6,2.8-1.1,0-8.3-2.8-9-4.9,6,0,15.8-3,16.6-3,2.5.2,5.4,3.7,8.5,4.1,2.6.4,11.8-1.3,13.5-1.1Z"/>
    <path class="st278" d="M367,554.8c1.2.3,2.6,1.2,4.8,1.6,15.3,3.3,37.8,8.3,53.1,8.2l8.9,3.2c2.1,14.7-7.7,21.9-20.2,26.3-7.8,1.1-15.4,4.5-22.5,6.6-15.3,3.1-10.6-9.1-16.3-17-6.7-9.2-9.9,1-14.3,3-2.5,1.1-5.2.3-7.6,1.3s-2.3,4.5-6.5,5.6c-4.6,1.3-13,1.8-18.1,2.1,9.2-2.9,43.9-18.4,46.4-27.3.4-1.5.5-3,.3-4.6l-4.7-1.1-.3-4.5c-1.4-.8-3.7.3-4.7-.2-1.5-.6-2.6-1.8-3.2-3.3,1.3.4,3.4-.3,4.8,0ZM416.6,569.9c-9.2.5-31.3,11.2-24.7,22.7,1.5,2.5,13.9-3.1,17.3-2.1,6.3-2.6,20.8-6.4,16.5-15.9-1.8-4-5.2-4.8-9.2-4.6Z"/>
    <path class="st295" d="M413.7,594.2c3-.4,6.5.3,9.7,0-9.6,5-43.8,14.1-55.2,14.1-5.2,0-13.6-2.6-18.1-2.5-8.1.3-25.1,6.8-36.1,8-12,1.3-36.9,2.4-48.8-.3-4-.9-4.8-4-10.8-4.6-4-2.9-9.2-.8-13.4-2-2.1-.6-4.8-4-9.1-5.4-7.7-2.6-16.4-1.6-24.2-4,4.2,0,17.1-2,20.9-1.6,14.2,1.2,28.5,8.9,44.3,9.5,16,.6,62.9-.3,76.9-5s3.4-4.3,8.4-4.7c8.1-.6,9.6,5.7,14.5,6.7,6,1.2,12.9,0,18.5-1.6,7.2-2.1,14.8-5.5,22.5-6.6Z"/>
    <path class="st101" d="M423.3,594.2c-3.1.3-6.7-.4-9.7,0,12.5-4.4,22.3-11.5,20.2-26.3l-8.9-3.2c.6,0,2.6-2.7,6.9-1.4s6.7,5.4,7,7c1.7,11.4-6.5,19.2-15.4,23.8Z"/>
    <path class="st130" d="M346.1,538.5c2.1,2.5,7,4.9,9.8,7.3,3.7,3.2,4.2,7.3,11.2,9.1-1.4-.3-3.5.4-4.8,0-4.4-1.2-4.7,0-9.7-3.3-4.9-3.3-4.3-5.3-6.4-8.2v-4.9Z"/>
    <path class="st179" d="M331.6,512.2l3,.2c1.1,5.8,4,11,6.7,16.2,1.5,2.9,2.7,7.3,4.8,9.8v4.9c-5-6.7-8.3-11.1-11.3-19.7-.7-2.2-3.1-7.7-3.2-8.2-.2-1,.1-2.2,0-3.3Z"/>
    <path class="st44" d="M415.3,543.4c1.7-.2,4.2-.3,4.8,1.6-4.5,2.4-5.7,3.7-11.3,4.9-4.2-3.5-11.6-1-17-1.6-2.1-.2-3.4-1.6-3.9-1.7,9.8,2.4,19.1-2.4,27.4-3.3Z"/>
    <path class="st59" d="M204.4,628.6l-4.8-6.5c22.9-4.4,43.8,5.4,65.6,9.3,50.2,9.1,72.7-3.2,118.6-7.7,5.1-.5,9.9-1.3,5.6,4.9-3.9,1.5-8.1,2.1-11.3,3.3,2.6-4,2-3.6-2.2-3.1-33.8,3.9-59.4,16.4-94.7,10.9-24.1-3.8-44.5-16.1-69.6-12.7l2.4,3.3c-1.9-.5-8-1.6-9.7-1.6Z"/>
    <path class="st24" d="M434.6,600.7c2.5-.4,16-.4,17.4.4,4.4,2.7,3.4,14.4-.5,14.4h-24.1c-.7,0-5.3-3.2-5.6-4.2l1.6-4c2.9-.9,6.1-5.7,11.3-6.6Z"/>
    <path class="st202" d="M146.5,587.6c3.6,3.3,8.9,3.7,12.4,5.4s7.5,4,11.7,6.1,5.1,6.1,10.8,7.7,27.8,2.1,34.3,2.1c.6,2.1,7.8,4.9,9,4.9,3.6.1,4.8-2.5,6.6-2.8,2.9-.5,8.1,2.3,11.8,1.2l-1.6,8.2c-4.2,1.7-2.6-2.9-4.2-3.3-4.8-1.1-31.9-1.1-36.5,0s-.7,6.6-9.1,0l4.8,9-8,.8c-10.8-1.5-23.7-.6-34.5-1.8-6.4-.7-14.7-4.9-21.9-4.8v-1.6c-5-10.5,8.9-14.3,12.6-22.4,1.8-3.9,1.5-4.9,1.9-8.7Z"/>
    <path class="st189" d="M146.5,587.6c-.4,3.9,0,4.8-1.9,8.7-3.7,8.1-17.6,11.9-12.6,22.4l-18.3,3.4-7.4-12.4c8.1-3.8,14.9-8.2,22.6-13s4.4-.4,5.8-1.4c4.3-3,8.1-10.5,11.7-14.2,0,1.1,0,6.2,0,6.6Z"/>
    <path class="st264" d="M175.5,543.4c0,2.9,3.5,7.4,0,12.1l3.2,2.6c-1.8.1-3.5-.3-5.3.3s-2.2,2.5-2.7,3c-5.9,4.6-6,5.7-6.4,13.1-2.7-1,.4-6.7-8.9-6.7-7.8,0-6.3,3.2-10.4,6.7-.8.7-2.3,1-3.2,1.6,6-11,5.9-10.1,16.1-18s11.7-6.4,12.7-9.3c2.3-6.3-3.7-8.3-4.6-13.7,2.7.5,7.7,5.8,9.7,8.2Z"/>
    <path class="st103" d="M112.7,589.3l11.3,1.7c1.5,2.2-4.2,6.9-5.9,7.9-2.7,1.8-24.3,9.9-27.1,10.1-4.8.3-.4-2.9-.8-5,8.4-8.2,11.2-10.6,22.5-14.7Z"/>
    <path class="st131" d="M164.2,581.1c.3.2,1.4,2.6,1.6,3.3.5,1.4-.4,3.8.8,6.5s7.4,4.4,4,8.3c-4.2-2.1-8.4-4.4-11.7-6.1s-8.8-2.1-12.4-5.4c0-.3,0-5.5,0-6.6s0-2.2,0-3.3c4.7-.5,14,.5,17.7,3.3Z"/>
    <path class="st139" d="M136.9,554.8c-6.7,10.5-4.7,20.8-4.8,32.8l9-21.2c3.6-4,9.5-5.5,13.6-8.3h3.2c-10.2,7.9-10.1,7-16.1,18s-8.5,17.9-11.3,14.7l-1.6-21.3c1-4.5,1.9-9.4,4.8-13.1s2.5-.9,3.2-1.6Z"/>
    <path class="st68" d="M164.2,574.5c0,.5,0,1.1,0,1.6,0,1.6,0,3.3,0,4.9-3.7-2.8-13-3.7-17.7-3.3,0-.8-1.3-2.2-1.6-3.3,4.2-3.5,2.7-6.7,10.4-6.7,9.3,0,6.2,5.8,8.9,6.7Z"/>
    <path class="st218" d="M175.5,482.8c3.7,7.3-3.9,16.3-1.6,24.6l12.9-11.5h4.8c-.6.6-.9,2.5-1.6,3.3-2.2,2.7-5.6,6.4-6.4,9.8s.5,5.8,0,8.2-3.5,3.3-3.3,7.2c0,.7,4.5,11.9,4.9,12.4-4.8-4.2-7-12.2-11.3-16.4-2.8-8.4-1.3-17.5-1.6-26.2,2-3.4,1.8-8,3.2-11.5Z"/>
    <path class="st115" d="M188.4,543.4c.6.4,1.3,2.4,3.8,3.4,11.1,4.3,28.5,3.5,39.6-.1l-1.6,4.9c-13.1,5.1-27.7,8.2-41.8,8.2-.5,0-4.6-1.5-8-1.6s-1.1,0-1.6,0l-3.2-2.6c3.5-4.7,0-9.2,0-12.1,0-1.1,2.3-4.5,1.6-6.6h1.6c3.3,3.7,5.8,4.4,9.7,6.6Z"/>
    <path class="st149" d="M183.5,517.2c6.9,7.6,15,13.6,24.1,18-3.7,0-8.7.6-12,0-3.1-.6-4.1-3.7-7.3-3.2,5,13.7,22,11.6,33.8,11.5-11.7,1.9-18.4,4.2-30.6-1.6-1.8-.8-5.5-3.3-6.4-4.9s-4.8-11.8-4.9-12.4c-.2-4,2.9-5.6,3.3-7.2Z"/>
    <path class="st190" d="M222.1,543.4c2.3-.4,6.5-1.7,8-1.6s3.1,2.5,4.8,1.6c-.4.2-1.2,2.6-3.2,3.3-11.2,3.7-28.6,4.4-39.6.1s-3.2-3-3.8-3.4l3.2-1.6c12.2,5.8,18.9,3.5,30.6,1.6Z"/>
    <path class="st219" d="M178.7,536.8h-1.6l-8-7.6c-2.7-1.1-4.4,1.3-6.5,2.7v-1.6l5.6-8.2c2.2,0,9.1,13.1,10.5,14.7Z"/>
    <path class="st215" d="M159.4,538.5c1.4,0,3.6-.6,4.5.3s3.4,8.1,3.3,8.5c-.4,2.9-9.9,8.9-12.7,10.9-4.1,2.8-9.9,4.3-13.6,8.3l-9,21.2c0-12-1.9-22.3,4.8-32.8,6-6.2,12.8-10.9,19.3-16.4,1.1,0,2.1,0,3.2,0Z"/>
    <path class="st69" d="M177.1,536.8c.7,2.1-1.6,5.5-1.6,6.6-1.9-2.4-7-7.7-9.7-8.2-2.7-.5-5.7.4-6.4,3.3-1.1,0-2.1,0-3.2,0,2.1-1.8,3-4.2,6.4-6.6s3.8-3.8,6.5-2.7l8,7.6Z"/>
    <path class="st11" d="M217.3,466.4c2.3-.2,7.1-4.9,6.4,1.6-3.5.9-15.2,18.2-19.3,21.3-2.9,2.2-9.3,3.3-12.9,6.6h-4.8c2-2.4,4.3-6.1,6.4-8.2,8.9-4.2,20.2-11.7,24.1-21.3Z"/>
    <path class="st96" d="M230.2,464.7c2.1.3,4.5-.4,6.9.3s3.5,2.6,4.3,3c14.2,11.7,19.8,19.9,17.7,39.3-3.8.6-6.3,5-9.7,8.2l4-14.7c-6.4,12.7-17.9,10.4-28.7,13.4s-2.3,2.7-2.6,3c-4.1-.5-8.9-6.6-11.3-8.2l4.8-4.9c3.8,2.7,10.5,5.6,15.2,4.9,5.5-.8,16.7-8.9,18.3-14.2,4.1-13.6-12.3-24.9-23.8-26.7h-1.6c.7-6.6-4.1-1.8-6.4-1.6s-4.3-.2-6.4,0v-3.3c6.8-1,12.9.6,19.3,1.6Z"/>
    <path class="st214" d="M309.1,487.7l20.8,5c2.4,2.9-6.1,16.8,1.7,16.3,0,1.1-.1,2.2,0,3.3s-.2,2.3,0,3.3c1.2,5.2-13.6,14-17,14.7s-20,3-22.2,2.8c-8.5-.6-13.3-7.1-18.7-9.3,1.4-2.7,5.5-1.5,8-1.6,5.7,7.9,24.1-1.6,32.7,3.1.7-3.4,11.6-12.5,11.8-13.3,1.5-4.6.1-11,.4-15.9-8.4-1.7-13.4-4.7-22.4-5s-6.6.4-11.3,1.6c-1.1.3-4,1.2-4.8,1.6-4.1,2.1-5.4,2.5-8,6.6-2.6-.8-3.8-2.8-3.1-5.6l6.3-5.9c11-3.3,14.4-2.4,25.7-1.6Z"/>
    <path class="st259" d="M259.2,507.3c-.5,4.5-2.5,2.9-2.7,3.6-.8,1.9-1.2,10.4-5.3,14.4v1.6c-4.4,1.6-14.6,12.8-20.9,14.7-1.6,0-5.7,1.3-8,1.6-11.7,0-28.8,2.3-33.8-11.5,3.2-.4,4.1,2.6,7.3,3.2,3.3.7,8.4,0,12,0,5.9,0,7.5-.3,12.9-1.6,10.5-2.7,17.6-7.9,25.7-14.7s2.1-2.2,3.2-3.3c3.3-3.2,5.8-7.6,9.7-8.2Z"/>
    <path class="st180" d="M251.1,525.4c4.1-4,4.5-12.5,5.3-14.4s2.3.9,2.7-3.6c2.1-19.5-3.5-27.7-17.7-39.3,25.5,10.9,29.2,38.4,9.7,57.3Z"/>
    <path class="st173" d="M254.3,528.6c-2,2-4.2,3.1-4.8,6.6-2.7.9-10.1,6.1-14.5,8.2-1.8.8-4.4-1.6-4.8-1.6,6.3-2,16.6-13.1,20.9-14.7.9-.3,2.8.5,3.2,1.6Z"/>
    <path class="st271" d="M265.6,518.8c-.4.9-2.6,5.5-3.2,6.6-1.9,3.5-5.5,6.8-8,9.8-1.4.3-3.7-.4-4.8,0,.6-3.5,2.9-4.5,4.8-6.6,7.9-8.2,10.3-14,14.5-24.6-.9,5.1-1.3,9.8-3.2,14.7Z"/>
    <path class="st113" d="M334.8,523.7c-4.3,3.5-26,10.4-20.8,17.9.7,1,20.7,2.4,24.5,3.8s7.9,7.4,14.1,6.2v1.6c-.6-.2-9.7-1.5-11.3-1.6-1.8-1.9-5.2-2.6-7.7-2.8-26.1-3-44.3-4.8-71.2-2.1s-7.2.9-11.3,1.6c.8-.6,1.2-3.1,3.2-4,9.2-4.4,14.4.5,16.1-15.6l-8.1-3.3c.6-1.1,2.9-5.7,3.2-6.6,1.2,7.5,5.1,3.7,8,4.9,5.4,2.2,10.2,8.7,18.7,9.3,2.3.1,19.1-2.2,22.2-2.8s18.2-9.5,17-14.7c0,.4,2.5,6,3.2,8.2Z"/>
    <path class="st18" d="M304.2,490.9c9.3,5.7,17.6.9,14.1,15.2-3.9,16.5-25.4,17.5-38.3,11-1.5-.8-2.7-1.8-4.6-1.8-1.6-1.9,3.1-12.4,4.6-14.6,2.7-4,4-4.5,8-6.6-.4,4.7-10.4,11.4-7.3,16.4s7.7,6,8.5,6.2c6.8,2,12.3,0,17.2-4.7,13.2-12.8-1.3-18.1-13.5-19.5,4.6-1.3,5.7-1.8,11.3-1.6Z"/>
    <path class="st221" d="M304.2,490.9c9,.3,14,3.3,22.4,5-.3,4.9,1.1,11.3-.4,15.9-.3.9-11.1,9.9-11.8,13.3-8.7-4.7-27,4.8-32.7-3.1-.6-.8-.5-3.7-1.6-4.9,12.9,6.5,34.3,5.5,38.3-11,3.4-14.4-4.8-9.5-14.1-15.2Z"/>
    <path class="st187" d="M207.7,597.4c7.8,2.4,16.5,1.4,24.2,4,4.3,1.5,7.1,4.8,9.1,5.4,4.2,1.2,9.3-.9,13.4,2-1.7-.2-10.9,1.5-13.5,1.1-3.1-.5-6.1-3.9-8.5-4.1s-10.6,3-16.6,3c-6.5,0-29.1-.7-34.3-2.1s-8.1-6.4-10.8-7.7c3.4-3.9-2.5-5.2-4-8.3s-.4-5.1-.8-6.5c15.6,11.1,22.9,13.1,41.8,13.1Z"/>
    <path class="st101" d="M391.1,600.7c-5.6,1.6-12.4,2.8-18.5,1.6-5-1-6.5-7.3-14.5-6.7s-5.4,3.7-8.4,4.7c-13.9,4.7-60.9,5.5-76.9,5-15.7-.6-30.1-8.3-44.3-9.5-6.9-6.5-16.2-8.4-24.1-13.1,4-.4,8.2-2.3,12-1.7s5.1,4.6,8.5,6.2c5.2,2.4,10.8,1,14.9,2.1,29.1,7.5,56.8,8.4,88.5,6.6,5.1-.3,13.5-.8,18.1-2.1,4.2-1.2,5.9-5.4,6.5-5.6,2.3-1,5.1-.2,7.6-1.3,4.4-2,7.6-12.2,14.3-3,5.7,7.8,1,20.1,16.3,17Z"/>
    <path class="st228" d="M365.4,558.1c1,.4,3.3-.6,4.7.2l.3,4.5,4.7,1.1c.2,1.6.1,3.1-.3,4.6-2.4,8.9-37.1,24.5-46.4,27.3-31.7,1.9-59.4.9-88.5-6.6l-18.7-18.8c1.9-2.3,1.8-7.4,2.6-9s2.2-2.2,3.2-3.3c-4.2,24,19.5,29.5,38.1,31,3.6.3,6.7-1.7,9.4-1.5,32.8,2.5,71.1,9.6,95.1-19.6l-4.2-9.9Z"/>
    <path class="st293" d="M251.1,548.3c-6.4,4.8-12.4,10.3-19.4,14.1,1.8,13.7,2.8,14.5,14.1,19.3.5.2.6,2.3,1.7,2.6,5.9,1.4,16.8-.5,23.8,0,15.4,1.3,34.7,5,50,3.4,5-.5,10.4-3.2,15.2-5,9.6-2,18.8-7.1,25-14.7.9-2.1-6.1-13.9-8.9-14.7v-1.6c5,3.3,5.2,2.1,9.7,3.3.7,1.5,1.7,2.6,3.2,3.3l4.2,9.9c-24,29.2-62.3,22.1-95.1,19.6-2.7-.2-5.8,1.8-9.4,1.5-18.5-1.5-42.2-7.1-38.1-31,4.8-5,5.5-3.5,11.1-5.9s2.6-3,4.5-3.6c2.9-1,5.9,0,8.5-.3Z"/>
    <path class="st94" d="M416.6,569.9c3.9-.2,7.4.6,9.2,4.6,4.3,9.5-10.2,13.3-16.5,15.9-3.4-.9-15.9,4.7-17.3,2.1-6.6-11.4,15.5-22.2,24.7-22.7ZM420.1,574.5c-10-1.7-24.1,3-24.1,14.7,9.6-.5,23.4-2.8,24.1-14.7Z"/>
    <path class="st209" d="M204.4,582.7c7.9,4.7,17.2,6.6,24.1,13.1-3.8-.3-16.7,1.6-20.9,1.6-18.9,0-26.2-2-41.8-13.1-.2-.7-1.3-3.1-1.6-3.3,0-1.6,0-3.3,0-4.9,9.1-3.7,18.3,7.3,23.4,8.2,4,.7,12-1.2,16.8-1.6Z"/>
    <path class="st7" d="M334.8,523.7c3,8.5,6.3,13,11.3,19.7,2.2,2.9,1.6,4.9,6.4,8.2-6.2,1.3-10.2-4.8-14.1-6.2s-23.8-2.7-24.5-3.8c-5.2-7.6,16.5-14.4,20.8-17.9Z"/>
    <path class="st93" d="M178.7,558.1c.5,0,1.1,0,1.6,0,10.4,10.3-8.6,19-16.1,16.4.5-7.4.6-8.5,6.4-13.1-3,3-2.4,12.9,6,8.6s-1.1-13.6-6-8.6c.6-.4.6-2.2,2.7-3s3.6-.2,5.3-.3Z"/>
    <path class="st128" d="M165.8,535.2c.9,5.3,7,7.3,4.6,13.7-1,2.9-9.9,7.2-12.7,9.3h-3.2c2.8-1.9,12.3-8,12.7-10.9s-3-8.2-3.3-8.5c-.9-.8-3.1-.3-4.5-.3.8-2.9,3.7-3.8,6.4-3.3Z"/>
    <path class="st269" d="M188.4,559.8c2.7,1.2,2.4,4.8,5.6,5,1.9.2,16.5.1,17.4,0,1.5-.4,2.2-5,5.9-5.9l6.5,2.6c-.8,1.6-.7,6.7-2.6,9l18.7,18.8c-4.1-1.1-9.7.3-14.9-2.1s-4.7-5.6-8.5-6.2-8,1.3-12,1.7c-4.9.5-12.9,2.4-16.8,1.6-5.1-.9-14.3-11.9-23.4-8.2,0-.5,0-1.1,0-1.6,7.4,2.6,26.5-6.1,16.1-16.4,3.4.1,7.5,1.6,8,1.6Z"/>
    <path class="st199" d="M220.5,518.8v1.6l-3.2,12.3,3.2.8c-5.3,1.4-6.9,1.6-12.9,1.6-9.2-4.4-17.3-10.5-24.1-18,.5-2.4-.6-6,0-8.2,7.2-2.4,9.8,4.2,14.4,5.8,2.7.9,5.7.4,8.5,1.2,4.5,1.4,8.8,6,14.2,2.8Z"/>
    <path class="st9" d="M210.9,509c2.4,1.6,7.1,7.7,11.3,8.2-.5.3-.9,1.2-1.6,1.6-5.4,3.2-9.7-1.3-14.2-2.8-2.7-.9-5.8-.3-8.5-1.2-4.6-1.6-7.2-8.2-14.4-5.8.9-3.4,4.2-7.1,6.4-9.8,8.6,1.8,13.8,5.1,20.9,9.8Z"/>
    <path class="st286" d="M204.4,489.3c1.5.9,3.1,1.4,4.8,1.6-.5,6.5,1.5,9.6,6.4,13.1l-4.8,4.9c-7.1-4.7-12.3-8-20.9-9.8.7-.8,1-2.7,1.6-3.3,3.6-3.2,10-4.4,12.9-6.6Z"/>
    <path class="st82" d="M262.4,525.4l8.1,3.3c-1.7,16.1-6.9,11.2-16.1,15.6-2,1-2.4,3.4-3.2,4-2.5.4-5.6-.6-8.5.3s-3.1,3-4.5,3.6c-5.6,2.4-6.3.9-11.1,5.9-1.1,1.1-2.1,1.1-3.2,3.3l-6.5-2.6c-3.7.9-4.3,5.5-5.9,5.9s-15.5.3-17.4,0c-3.2-.3-2.9-3.8-5.6-5,14.1,0,28.7-3,41.8-8.2,4.1-1.6,16-7,19.2-9.1,3.2-2.1,3.2-5.3,4.9-7.3,2.6-3.1,6.1-6.3,8-9.8Z"/>
    <path class="st99" d="M254.3,535.2c-1.7,2-1.7,5.2-4.9,7.3-3.2,2.1-15.1,7.5-19.2,9.1l1.6-4.9c2-.6,2.8-3.1,3.2-3.3,4.4-2.1,11.8-7.3,14.5-8.2s3.4.3,4.8,0Z"/>
    <path class="st191" d="M225.4,468l.2,3.1c2.7-.1,4.1.5,6.3,1.8-11.7-.3-18.2,13.5-11.3,22.9-3-.7-3.4-3.7-11.3-4.9-1.7-.3-3.3-.7-4.8-1.6,4.2-3.1,15.8-20.4,19.3-21.3h1.6Z"/>
    <path class="st176" d="M225.4,468c11.6,1.8,27.9,13.1,23.8,26.7-1.6,5.4-12.8,13.5-18.3,14.2-4.7.6-11.3-2.2-15.2-4.9-4.9-3.5-7-6.7-6.4-13.1,7.8,1.2,8.3,4.2,11.3,4.9,5.6,1.3,22.1,1.8,25-5,3.4-8.1-8.2-14.8-13.7-18-2.2-1.3-3.6-1.9-6.3-1.8l-.2-3.1Z"/>
    <path class="st97" d="M249.5,515.5c-1.1,1.1-1.7,2-3.2,3.3l-4.5-2.1-21.3,3.8v-1.6c.7-.4,1.1-1.3,1.6-1.6s.6-2.4,2.6-3c10.8-3,22.3-.7,28.7-13.4l-4,14.7Z"/>
    <path class="st146" d="M288.1,494.2c.8-.4,3.7-1.3,4.8-1.6,12.2,1.4,26.7,6.7,13.5,19.5-4.9,4.7-10.4,6.8-17.2,4.7-.7-.2-8.2-5.8-8.5-6.2-3-4.9,6.9-11.7,7.3-16.4ZM294.1,496.1c-19.6,3-2.4,31,10.1,8.8-1.2-3.9-6-9.4-10.1-8.8Z"/>
    <path class="st126" d="M220.5,520.4l21.3-3.8,4.5,2.1c-8.2,6.9-15.3,12.1-25.7,14.7l-3.2-.8,3.2-12.3Z"/>
    <path class="st256" d="M262.4,546.7c-2,1.8-4.3,3.3-6.4,4.9-7.3,5.4-18.2,10.3-10.2,20.9,3.8,5.1,21.6,8.3,27.9,8.6l45.9,3.4c5.1-1.3,12.3-.8,16.9-1.8-4.7,1.8-10.2,4.5-15.2,5-15.4,1.6-34.6-2-50-3.4-7-.6-17.9,1.4-23.8,0-1.1-.3-1.2-2.4-1.7-2.6-11.2-4.8-12.3-5.5-14.1-19.3,7.1-3.8,13.1-9.3,19.4-14.1,4.1-.7,7.1-1.2,11.3-1.6Z"/>
    <path class="st81" d="M341.2,551.6c1.6.2,10.6,1.4,11.3,1.6,2.8.9,9.9,12.7,8.9,14.7-6.3,7.6-15.5,12.7-25,14.7s-11.8.5-16.9,1.8l-45.9-3.4c6.2.3,18.8-.3,24.6-1.7s1-2.7,2.3-3.1c2.7-.8,6.4-.2,9.2-1.8l2.4,5.9c9.7,1.7,42.7-2.3,40.4-16.5-8.6-18.8-29.3.1-38.7-12.3,8.9.4,18.7-.8,27.4,0Z"/>
    <path class="st257" d="M341.2,551.6c-8.6-.8-18.5.4-27.4,0-6.6-.3-14.5-3.3-15.3-3.3h-29c-2.7,0-9.8,4-13.7,3.3,2.2-1.6,4.5-3.1,6.4-4.9,26.9-2.8,45.1-1,71.2,2.1,2.5.3,5.9.9,7.7,2.8Z"/>
    <path class="st251" d="M420.1,574.5c-.8,12-14.5,14.3-24.1,14.7,0-11.7,14.2-16.4,24.1-14.7Z"/>
    <path class="st15" d="M170.6,561.4c5-5,16.4,3.4,6,8.6s-9-5.6-6-8.6Z"/>
    <path class="st158" d="M231.8,472.9c5.5,3.1,17.2,9.9,13.7,18-2.9,6.8-19.4,6.3-25,5-6.9-9.5-.4-23.2,11.3-22.9ZM241.5,490.9c.9-8.8-4.9-14.6-13.4-14.5l-6.8,6.3,3.5,8.3h16.6Z"/>
    <path class="st294" d="M294.1,496.1c4.1-.6,8.9,5,10.1,8.8-12.5,22.2-29.7-5.8-10.1-8.8Z"/>
    <path class="st86" d="M313.9,551.6c9.4,12.4,30.1-6.4,38.7,12.3,2.3,14.2-30.8,18.2-40.4,16.5l-2.4-5.9c-2.8,1.6-6.5,1-9.2,1.8s-1.2,2.8-2.3,3.1c-5.8,1.4-18.4,2-24.6,1.7-6.4-.3-24.1-3.4-27.9-8.6-7.9-10.6,2.9-15.6,10.2-20.9,3.9.7,11-3.3,13.7-3.3h29c.8,0,8.7,3,15.3,3.3ZM303.7,555.3c-16.9-20.4-85.7,14.8-29.1,20.6,14.1,1.5,23.6-1.7,31-14.1.6-2.1-.5-4.9-1.9-6.6ZM313.9,577.8c8,.7,29.1.3,31.9-9.4,6-20.8-29.5-4-31.6,2.4s-.3,4.7-.4,7Z"/>
    <path class="st155" d="M241.5,490.9h-16.6c0,0-3.5-8.2-3.5-8.2l6.8-6.3c8.5-.1,14.2,5.7,13.4,14.5Z"/>
    <path class="st42" d="M303.7,555.3c1.4,1.7,2.4,4.4,1.9,6.6-7.4,12.4-16.9,15.5-31,14.1-56.6-5.8,12.2-41,29.1-20.6ZM259.2,567.9c11.1.3,21.3,5.6,33,3.3,9.5-1.8,2.9-17.3-11.2-16.5-4.1.3-27.7,7.4-21.8,13.2Z"/>
    <path class="st262" d="M313.9,577.8c0-2.3-.4-4.8.4-7,2.1-6.4,37.6-23.2,31.6-2.4-2.8,9.7-23.9,10.1-31.9,9.4ZM317.1,574.5c6.4,1.1,27.5.4,24-10.5-2.2-6.7-15.8,3-20,5.5-2.2,1.3-4.7,1.3-4,5Z"/>
    <path class="st185" d="M259.2,567.9c-5.9-5.7,17.7-12.9,21.8-13.2,14.1-.9,20.7,14.6,11.2,16.5-11.7,2.3-21.9-3-33-3.3Z"/>
    <path class="st243" d="M317.1,574.5c-.8-3.7,1.8-3.7,4-5,4.3-2.5,17.9-12.2,20-5.5,3.5,10.9-17.6,11.6-24,10.5Z"/>
  </g>
</svg>