<?xml version="1.0" encoding="UTF-8"?>
<svg id="Layer_1" xmlns="http://www.w3.org/2000/svg" version="1.1" viewBox="0 0 595.3 841.9">
  <!-- Generator: Adobe Illustrator 29.1.0, SVG Export Plug-In . SVG Version: 2.1.0 Build 142)  -->
  <defs>
    <style>
      .st0 {
        fill: #6bc070;
      }

      .st1 {
        fill: #35291a;
      }

      .st2 {
        fill: #b3d334;
      }

      .st3 {
        fill: #99ca43;
      }

      .st4 {
        fill: #11a86e;
      }

      .st5 {
        fill: #faf3cd;
      }

      .st6 {
        fill: #00a38b;
      }

      .st7 {
        fill: #f0c487;
      }

      .st8 {
        fill: #e1e04f;
      }

      .st9 {
        fill: #eae4bb;
      }

      .st10 {
        fill: #9fbcdb;
      }

      .st11 {
        fill: #7c4121;
      }

      .st12 {
        fill: #49b749;
      }

      .st13 {
        fill: #96ca55;
      }

      .st14 {
        fill: #5ebc5d;
      }

      .st15 {
        fill: #1c1147;
      }

      .st16 {
        fill: #6dbe4c;
      }

      .st17 {
        fill: #daaf90;
      }

      .st18 {
        fill: #4cb85b;
      }

      .st19 {
        fill: #48bb85;
      }

      .st20 {
        fill: #23a149;
      }

      .st21 {
        fill: #72c169;
      }

      .st22 {
        fill: #1a733a;
      }

      .st23 {
        fill: #23ab4b;
      }

      .st24 {
        fill: #f9e5be;
      }

      .st25 {
        fill: #0d572c;
      }

      .st26 {
        fill: #acdeed;
      }

      .st27 {
        fill: #8cc5a5;
      }

      .st28 {
        fill: #f2e49e;
      }

      .st29 {
        fill: #74c272;
      }

      .st30 {
        fill: #5eb946;
      }

      .st31 {
        fill: #66be6c;
      }

      .st32 {
        fill: #61356e;
      }

      .st33 {
        fill: #49b74f;
      }

      .st34 {
        fill: #d8cee7;
      }

      .st35 {
        fill: #6c2552;
      }

      .st36 {
        fill: #98ca4b;
      }

      .st37 {
        fill: #591732;
      }

      .st38 {
        fill: #41b762;
      }

      .st39 {
        fill: #67c07c;
      }

      .st40 {
        fill: #641e21;
      }

      .st41 {
        fill: #85c447;
      }

      .st42 {
        fill: #d1c890;
      }

      .st43 {
        fill: #b6d991;
      }

      .st44 {
        fill: #32b477;
      }

      .st45 {
        fill: #221015;
      }

      .st46 {
        fill: #121814;
      }

      .st47 {
        fill: #0f6561;
      }

      .st48 {
        fill: #66b4c5;
      }

      .st49 {
        fill: #0f111e;
      }

      .st50 {
        fill: #67b19a;
      }

      .st51 {
        fill: #3e0f3b;
      }

      .st52 {
        fill: #4e1c47;
      }

      .st53 {
        fill: #0aae85;
      }

      .st54 {
        fill: #9dcc4e;
      }

      .st55 {
        fill: #d5df3a;
      }

      .st56 {
        fill: #101524;
      }

      .st57 {
        fill: #8acade;
      }

      .st58 {
        fill: #8793b9;
      }

      .st59 {
        fill: #58ba4e;
      }

      .st60 {
        fill: #55bc7b;
      }

      .st61 {
        fill: #52aa47;
      }

      .st62 {
        fill: #85c441;
      }

      .st63 {
        fill: #389e99;
      }

      .st64 {
        fill: #a7c3aa;
      }

      .st65 {
        fill: #39a2b5;
      }

      .st66 {
        fill: #80c56a;
      }

      .st67 {
        fill: #8bc761;
      }

      .st68 {
        fill: #717191;
      }

      .st69 {
        fill: #703625;
      }

      .st70 {
        fill: #541727;
      }

      .st71 {
        fill: #cbdd64;
      }

      .st72 {
        fill: #a2cf5e;
      }

      .st73 {
        fill: #231f5b;
      }

      .st74 {
        fill: #fbf7e0;
      }

      .st75 {
        fill: #281c3b;
      }

      .st76 {
        fill: #a05f7d;
      }

      .st77 {
        fill: #48b970;
      }

      .st78 {
        fill: #22b578;
      }

      .st79 {
        fill: #fbf1d1;
      }

      .st80 {
        fill: #dbdbba;
      }

      .st81 {
        fill: #502261;
      }

      .st82 {
        fill: #63bf76;
      }

      .st83 {
        fill: #eef3f7;
      }

      .st84 {
        fill: #3c1042;
      }

      .st85 {
        fill: #41a95c;
      }

      .st86 {
        fill: #3a9289;
      }

      .st87 {
        fill: #a8cf3c;
      }

      .st88 {
        fill: #c6abc0;
      }

      .st89 {
        fill: #e39980;
      }

      .st90 {
        fill: #1da1a8;
      }

      .st91 {
        fill: #26a687;
      }

      .st92 {
        fill: #69482a;
      }

      .st93 {
        fill: #67301e;
      }

      .st94 {
        fill: #71bf52;
      }

      .st95 {
        fill: #151b13;
      }

      .st96 {
        fill: #a88e8d;
      }

      .st97 {
        fill: #61bbd0;
      }

      .st98 {
        fill: #142113;
      }

      .st99 {
        fill: #65bd51;
      }

      .st100 {
        fill: #20a280;
      }

      .st101 {
        fill: #86b6d0;
      }

      .st102 {
        fill: #a9d595;
      }

      .st103 {
        fill: #fcf2ca;
      }

      .st104 {
        fill: #a0d8e0;
      }

      .st105 {
        fill: #f8edbe;
      }

      .st106 {
        fill: #08998b;
      }

      .st107 {
        fill: #d2cc92;
      }

      .st108 {
        fill: #099d99;
      }

      .st109 {
        fill: #e4e987;
      }

      .st110 {
        fill: #b7bbb2;
      }

      .st111 {
        fill: #d7c997;
      }

      .st112 {
        fill: #341613;
      }

      .st113 {
        fill: #c3c8c2;
      }

      .st114 {
        fill: #96be6c;
      }

      .st115 {
        fill: #452121;
      }

      .st116 {
        fill: #75c043;
      }

      .st117 {
        fill: #a0284e;
      }

      .st118 {
        fill: #6bbaaf;
      }

      .st119 {
        fill: #61c196;
      }

      .st120 {
        fill: #b1bac9;
      }

      .st121 {
        fill: #111541;
      }

      .st122 {
        fill: #0f132b;
      }

      .st123 {
        fill: #faf3cb;
      }

      .st124 {
        fill: #158d78;
      }

      .st125 {
        fill: #a7acae;
      }

      .st126 {
        fill: #556f94;
      }

      .st127 {
        fill: #81b198;
      }

      .st128 {
        fill: #b36059;
      }

      .st129 {
        fill: #41141d;
      }

      .st130 {
        fill: #8c8ea8;
      }

      .st131 {
        fill: #131611;
      }

      .st132 {
        fill: #c9cdb8;
      }

      .st133 {
        fill: #1e1022;
      }

      .st134 {
        fill: #76c157;
      }

      .st135 {
        fill: #b3d457;
      }

      .st136 {
        fill: #9c9eac;
      }

      .st137 {
        fill: #321a10;
      }

      .st138 {
        fill: #101b1b;
      }

      .st139 {
        fill: #50ba6f;
      }

      .st140 {
        fill: #24191a;
      }

      .st141 {
        fill: #28b785;
      }

      .st142 {
        fill: #718fbd;
      }

      .st143 {
        fill: #b36285;
      }

      .st144 {
        fill: #f5f197;
      }
    </style>
  </defs>
  <g>
    <path class="st70" d="M411.3,673.1c-.2.2.9,2.9-1.3,3.8-3.6,1.6-10.8,1.7-14.9,2-29.2,1.8-60.5-.4-90,0v-1.9c9.6,0,19.2,0,28.8,0l64.8-1.9c3.3-3.9-9.5-8.8-10.8-9.6-2.6-1.7-4.6-4.2-7.2-5.8.5-1.3-.3-4.1,0-5.8,9.5,6.9,20.2,14.1,30.6,19.3Z"/>
    <path class="st129" d="M224.1,665.4l-1.8,9.6c9,.2,18-.1,27,0,7.8.1,15.6-.2,23.4,0,10.1.3,21.5,1.9,32.4,1.9v1.9c-18.9.3-38.9-1.1-57.6,0-7.4-.5-15.1.7-22.5,0-4.8-.5-10.7-3.6-13.5-3.8v-1.9c4.3-.9,8.3-5.2,12.6-7.7Z"/>
    <path class="st51" d="M380.7,632.6c-1.6,5.3-1.1,9.9-7.2,12.6v3.7c.2.9,5.6,3.7,7.2,4.9-.3,1.7.5,4.5,0,5.8s-1.4,1.5-1.8,1.9-1.8-.4-2.3.1c-1.9,1.8-.4,4.3-3,3.7l-4.5-9.6c-3.4,1.3-3.5,6.4-4.5,7.7-2.1,2.8-3.7,4.8-7.2,5.8l-1.8-9.6-7.2,11.6c-1.1-3.3,8.9-14.1,0-13.5,1.6-1.5,3.2-2.2,5.4-1.9l-1.8-3.8c3.3-1.2,6.2-5.3,10.8-5.8s1.4,1.9,2.8,1.9c4.3,0,11.8-11.9,15.2-15.4Z"/>
    <path class="st40" d="M384.3,617.1c1.4-22.5-6-40.2-19.8-56-1.1-1.3-4.4-4.9-5.4-5.8l1.8-3.9c18,14.9,30.8,40.8,23.4,65.6Z"/>
    <path class="st88" d="M384.3,617.1c-.1,2.5-1.4,5.2-1.8,7.7-1.1.2-2.8-.4-3.6,0-.8-2.4,1.9-6.6,1.8-7.7,1.5-20.4-8-38.5-16.2-56,13.8,15.8,21.2,33.4,19.8,56Z"/>
    <path class="st140" d="M328.5,511l4.6,25c10.5,5.7,18.2,7.6,27.8,15.5l-1.8,3.9c-2.4-2.1-3.6-4.9-5.9-6.4-6.5-4.2-15.4-4.4-21.1-7.1-.9-.4-3.4-2.3-3.6-3.3.3-6.7-1.1-13.2-1.8-19.8s.6-4.9-1.8-5.8c.4,0,2-1.6,3.6-1.9Z"/>
    <path class="st143" d="M382.5,624.8c-.5,3.1-.9,4.7-1.8,7.7-3.4,3.5-10.9,15.4-15.2,15.4-1.4,0-2.5-1.9-2.8-1.9,3.3-6.5,9.2-14.6,14.4-19.3.6-.6,1.4-1.8,1.8-1.9.8-.4,2.5.2,3.6,0Z"/>
    <path class="st81" d="M348.3,657.6c8.9-.6-1.1,10.2,0,13.5l7.2-11.6,1.8,9.6c3.5-1,5.1-3,7.2-5.8l2.7-1.9c5.6,9.9,4.5,6.6,11.7,5.7.2,0,1.5,1.7,3.6,0-6.7,13.7,12.6,7.8,5.4-1.9,1.3.8,14.1,5.7,10.8,9.6l-64.8,1.9-14.4-5.8c4.3,2.1,6-3.9,6.6-3.9,9.7-.8,10.3,5.4,20.4-5.7.3-.3,0-2.3,1.8-3.9Z"/>
    <path class="st52" d="M346.5,661.5c-10.1,11.2-10.7,4.9-20.4,5.7-.6,0-2.3,6-6.6,3.9l14.4,5.8c-9.6,0-19.2,0-28.8,0-10.9,0-22.3-1.6-32.4-1.9h30.6s0-9.6,0-9.6c-2.4,1.1-3.5.3-5.4,0l15.3-2,6.2,5.8,1-5.8c6,2.7,11.2-2.3,17-3.8l1.8,5.8c1-4.3,4.3-11.5,7.2-3.8Z"/>
    <path class="st84" d="M387.9,665.4c7.2,9.7-12.1,15.6-5.4,1.9-2,1.7-3.4,0-3.6,0v-5.8c.4-.4,1.8-1.8,1.8-1.9,2.6,1.6,4.6,4.1,7.2,5.8Z"/>
    <path class="st35" d="M256.5,651.9c4.2,3.6,13.6,6.7,10.8,13.5,5.7-4.7,11.1,1.9,11.7,1.9,1.8,0,3.4-8.6,7.2-7.7l-2.7,5.8c5.3-1.6,9.2-.9,14.4,0s3,1.1,5.4,0v9.6s-30.6,0-30.6,0c-7.8-.2-15.6.1-23.4,0l10.6-2.2,2-7.4c-2.3-1.9-20.4,7.1-23.4-1.9l5.4-1.5v-2.4s2.7,3.6,2.7,3.6l8.2-3.6c.3.3,2.6-.6,3.3.3l-1.5,3.6h9c-3.8-3.5-7.2-7.9-10.8-11.6h1.8Z"/>
    <path class="st117" d="M233.1,661.5c5.8-2.3,5.5-7,11.9-7.7,9.3-1.1,7.5,3,9.7,5.8l-8.2,3.6-2.6-3.6v2.4s-5.4,1.5-5.4,1.5c3,9,21.1,0,23.4,1.9l-2,7.4-10.6,2.2c-9-.2-18,.1-27,0l1.8-9.6c4.5-2.6,5-2.3,9-3.9Z"/>
    <path class="st47" d="M324.9,512.9c2.4.9,1.6,3.7,1.8,5.8-9.1,6-14.5,11.4-26,9.5-2.9-.5-5.1-3.5-8.2-3.7.7-1.7,1.3-4.9,1.8-5.8,5.7-10.1,20.5-4.7,30.6-5.8Z"/>
    <path class="st133" d="M285.3,655.7c3.7,1.6,6.6,3.5,10.8,3.9,5.4.4,9.5-1.8,14.4-1.9.5,0,2.3,1.8,4.4,1.6,5.5-.4,11.2-2.9,17.2-1.6v-3.9c1.8,0,3.6.2,5.4,0,5.2-.6,8.9,0,14.4-1.9l1.8,3.8c-2.2-.2-3.8.5-5.4,1.9s-1.5,3.5-1.8,3.9c-2.9-7.6-6.2-.5-7.2,3.8l-1.8-5.8c-5.8,1.6-11,6.5-17,3.8l-1,5.8-6.2-5.8-15.3,2c-5.2-.9-9.1-1.6-14.4,0l2.7-5.8c-3.7-.9-5.4,7.7-7.2,7.7s-6-6.6-11.7-1.9c2.8-6.8-6.6-9.9-10.8-13.5l1.8-1.9c7.4,4.7,18.7,9,27,5.8Z"/>
    <path class="st101" d="M368.1,603.6c1.1,3.9,2.7,7.2,1.8,11.6l5.4-1.9,1.8,13.5c-5.2,4.7-11.1,12.8-14.4,19.3-4.6.5-7.5,4.6-10.8,5.8-5.5,1.9-9.2,1.4-14.4,1.9,0-6,9.4-5.4,14.3-8.8,11.7-8.1,17.2-29.4,12.7-43.3.5-1.2.3-3,1.8-3.9.6,1.7,1.3,4,1.8,5.8Z"/>
    <path class="st32" d="M364.5,663.4c1-1.3,1.1-6.3,4.5-7.7l4.5,9.6c2.6.5,1.2-1.9,3-3.7.5-.5,2,.2,2.3-.1v5.8c-7.2.9-6.1,4.1-11.7-5.7l-2.7,1.9Z"/>
    <path class="st130" d="M332.1,541.9c5.7,2.7,14.6,2.9,21.1,7.1,2.3,1.5,3.5,4.3,5.9,6.4s4.3,4.5,5.4,5.8c8.2,17.5,17.7,35.6,16.2,56,0-1.7-2-10.8-2.5-13.7-.9-4.9-5.5-7.6-2.9-13.3h-7.2s0,13.5,0,13.5c-.5-1.8-1.2-4-1.8-5.8-2-5.6-3.1-12.6-9-15.4,3,9,1.1,17.9,1.8,27h-1.8c0-4.5,0-9,0-13.5-4,2.7-6.2,3.7-10.8,1.9,1.6,14.5-8.9,22.1-13.1,34.2l-35.4,23.8,12.6,1.9c-4.9.2-9,2.3-14.4,1.9-2.7-7.8-10.7-6.4-15.7-9.2-2.2-1.3-15.5-10.1-16.7-11.1-2.2-2-1.3-3.7-1.8-4.7,5.2,6.5,9.7,1.4,15.2,1.8s12.3,4.5,18.1,4.1c5.4-.4,7.6-5.1,11.1-5.6s5.5,1.7,8.2,1.2c16.9-3.3,25.8-20.7,26.5-38.2.1-2.4.3-5.5,0-7.7l3.6,11.6c.8-10.9.1-20.5-5.3-30-.7-1.2-1.7-.8-2.8-.9s-.8,1.9-.9,1.9c-1.1,0-14-13.3-12.6-17.4,6.5-4.9,4.1-9.3,9-13.5Z"/>
    <path class="st58" d="M368.1,603.6v-13.5s7.2,0,7.2,0c-2.7,5.8,1.9,8.5,2.9,13.3s2.5,11.9,2.5,13.7-2.6,5.3-1.8,7.7c-.4.2-1.2,1.4-1.8,1.9l-1.8-13.5-5.4,1.9c.9-4.4-.7-7.7-1.8-11.6Z"/>
    <path class="st124" d="M326.7,518.7c.7,6.6,2.1,13.1,1.8,19.8.2,1.1,2.7,2.9,3.6,3.3-4.9,4.2-2.5,8.6-9,13.5-1,.7-2.5,1.4-3.6,1.9-.3-.8-1.7-1.5-1.8-1.9-1.9-6.8-1.7-2.5-5.9-5.8-4.6-3.6-11.3-11.4-17.5-9.6l-3.6-9.7c.5-1.8,1.2-4.1,1.8-5.8,3.1.3,5.2,3.3,8.2,3.7,11.6,1.9,16.9-3.5,26-9.5Z"/>
    <path class="st115" d="M236.7,590.1c.9,6.2-.5,14.6,0,21.2,1.1,14.4,7.8,25.9,18,34.7,1.2,1.1,2.4,3.1,3.6,3.9l-1.8,1.9h-1.8c-1.1-1.2-2.5-2.6-3.6-3.9-9.1-10.2-16.2-14.7-18-30.9s0-21.5,1.8-30.9c0,.4,1.4,1.5,1.8,3.9Z"/>
    <path class="st37" d="M254.7,651.9c3.6,3.6,7,8.1,10.8,11.6h-9s1.5-3.6,1.5-3.6c-.7-.8-3,0-3.3-.3-2.2-2.7-.4-6.8-9.7-5.8-6.4.7-6.1,5.4-11.9,7.7,1.2-9.7,12-9.4,18-13.5,1.1,1.2,2.5,2.7,3.6,3.9Z"/>
    <path class="st92" d="M287.1,538l-1.8,3.9c-1.6-.3-12.5,3.3-14.9,4.3-17,7.4-28.1,26-33.7,43.9-.4-2.4-1.7-3.5-1.8-3.9,2.9-14.6,16.5-32.6,28.7-39.7,6.9-4,15.8-6.6,23.5-8.6Z"/>
    <path class="st138" d="M317.7,555.4c.1.4,1.5,1.1,1.8,1.9-2.9,1.4-4.2,1.5-7.2,1.9s-1.2,0-1.8,0c-1.1-6.9-12.1-11.1-18-13.5-2.6-1.1-6.8-3.8-7.2-3.9l1.8-3.9h1.8l28.8,17.4Z"/>
    <path class="st86" d="M290.7,530.3l3.6,9.7c6.2-1.7,13,6,17.5,9.6,4.1,3.3,4-1,5.9,5.8l-28.8-17.4c.6-2.6,1.1-5.2,1.8-7.7Z"/>
    <path class="st142" d="M364.5,601.7c4.5,13.9-1,35.2-12.7,43.3-4.9,3.4-14.2,2.8-14.3,8.8-1.8.2-3.6,0-5.4,0-3.4.2-6.6.8-9.9,1.5l-15.3-3.5c29.7-2.2,50.5-6.1,50.4-42.5h1.8c.3,3.8-.8,8.4,3.6,9.6-.1-6.9-.8-11.1,1.8-17.4Z"/>
    <path class="st96" d="M254.7,613.3c1.1,8.9,1.8,6.7,3.6,11.6s2.3,7.1,3.6,9.6-.4,2.7,1.8,4.7c1.2,1.1,14.4,9.8,16.7,11.1,4.9,2.9,12.9,1.4,15.7,9.2-4.2-.3-7.1-2.2-10.8-3.9-10.4-4.6-17.2-14.1-28.8-13.5-.4-1.2-1.7-2.8-1.8-3.9-1.1-9.6-7.1-18.2,0-27,0,.6,0,1.3,0,1.9Z"/>
    <path class="st76" d="M285.3,655.7c-8.3,3.2-19.6-1.1-27-5.8-1.2-.7-2.4-2.8-3.6-3.9l1.7-1c-.9-.7-1.1-2.2-1.7-2.9h1.8c11.6-.6,18.4,9,28.8,13.5Z"/>
    <path class="st58" d="M357.3,609.4c.1,36.4-20.6,40.2-50.4,42.5l15.3,3.5c3.3-.7,6.5-1.4,9.9-1.5v3.9c-6-1.2-11.7,1.2-17.2,1.6-2.1.1-3.8-1.6-4.4-1.6l-12.6-1.9,35.4-23.8c4.3-12.1,14.8-19.7,13.1-34.2,4.6,1.8,6.8.7,10.8-1.9,0,4.5,0,9,0,13.5Z"/>
    <path class="st58" d="M366.3,597.8c-1.5.9-1.3,2.7-1.8,3.9-2.6,6.3-1.9,10.5-1.8,17.4-4.4-1.2-3.3-5.9-3.6-9.6-.6-9.1,1.2-18-1.8-27,5.8,2.8,7,9.8,9,15.4Z"/>
    <path class="st136" d="M341.1,597.8c-.7,17.5-9.6,34.9-26.5,38.2-2.8.5-5.5-1.6-8.2-1.2s-5.8,5.3-11.1,5.6c-5.8.4-12.2-3.7-18.1-4.1s-10,4.7-15.2-1.8c-1.3-2.5-2.5-6.8-3.6-9.6,5.7,3.3,12,1.2,18.1,2.7,3.6.9,6.9,4.7,9.8,4.9,4.8.4,10.8-4,17,0l.3-5.3c1.3-1.5,23.5-9.8,26.8-12.8,5.6-5,2.6-15.8,10.6-16.6Z"/>
    <path class="st125" d="M328.5,584.3l1.9,5.8c1.7.8,3.1-1.9,3.5-1.9.6,0,2.2,2.1,3.3,1.5l2.1-3.5c.2.7,1.6,1.9,1.8,3.9s.1,5.3,0,7.7c-8,.8-5,11.5-10.6,16.6-3.3,3-25.6,11.3-26.8,12.8l-.3,5.3c-6.2-4-12.2.4-17,0-2.9-.3-6.2-4-9.8-4.9-6.2-1.6-12.5.6-18.1-2.7-1.8-4.8-2.5-2.6-3.6-11.6,13,4.5,27,15.3,41.6,10.7,3.6-1.1,3.2-4.9,4.5-4.9,9.6,0,4.1-.5,9.8-2.9,3.6-1.5,7.9-.3,10.8-3.8,6.1-7.3,8.1-18.5,7.1-28.1Z"/>
    <path class="st120" d="M323.1,555.4c-1.4,4,11.5,17.4,12.6,17.4,1.7,4.4,2.6,8.9,3.6,13.5l-2.1,3.5c-1.1.6-2.7-1.6-3.3-1.5-1.8-13-5.5-19.5-16.2-25.1s-4.7-.1-5.4-3.9c3-.5,4.3-.5,7.2-1.9s2.6-1.2,3.6-1.9Z"/>
    <path class="st68" d="M335.7,572.7c.1,0-.3-1.9.9-1.9s2-.3,2.8.9c5.5,9.5,6.1,19.1,5.3,30l-3.6-11.6c-.2-1.9-1.6-3.1-1.8-3.9-1-4.7-1.9-9.1-3.6-13.5Z"/>
    <path class="st103" d="M285.3,541.9c.4,0,4.6,2.8,7.2,3.9-1.6,1-3.8,3.3-5.4,3.9-10.4,3.6-15.6,3.9-25.2,11.6s-18.7,20.7-21.6,34.7c-1,4.6.9,11.5-3.6,15.4-.5-6.7.9-15,0-21.2,5.6-18,16.7-36.6,33.7-43.9,2.4-1,13.3-4.6,14.9-4.3Z"/>
    <path class="st89" d="M243.9,611.3c0,.3-1.9,2-1.9,4.7,0,13.3,6,18,12.7,26.2.6.7.9,2.2,1.7,2.9l-1.7,1c-10.2-8.8-16.9-20.4-18-34.7,4.5-3.9,2.6-10.9,3.6-15.4l3.6-3.8c0,6.4,0,12.9,0,19.3Z"/>
    <path class="st80" d="M310.5,559.2c.6,0,1.2,0,1.8,0,.7,3.7,3.6,2.9,5.4,3.9v1.9l-5.4,4.8c3.5,4.1,4.7,11.7,3.5,17s-3.1,1.6-3.6,2.7c-2,4.9-.8,10.1-5.8,12.7-9,4.6-28.3-3.4-39.2-.5,0-3.2,0-6.4,0-9.7,1.6-1.5,3.1-5,4.7-5.4,3.1-.8,11.6,4,16,3.5,4.1-.5,10.3-6.8,17.2-3.8l1.5-21.8-10.5-9.1c5.8,1.5,9.8,3.9,14.4,3.9Z"/>
    <path class="st111" d="M310.5,559.2c-4.6,0-8.6-2.4-14.4-3.9-3-.8-5.9-1.9-9-1.9.3-.8-.2-2.7,0-3.9,1.6-.5,3.8-2.8,5.4-3.9,5.9,2.4,16.9,6.6,18,13.5Z"/>
    <path class="st110" d="M328.5,584.3c1,9.6-1,20.8-7.1,28.1-2.9,3.5-7.2,2.4-10.8,3.8-5.7,2.3-.2,2.8-9.8,2.9-1.3,0-.9,3.8-4.5,4.9-14.6,4.5-28.5-6.2-41.6-10.7,0-.6,0-1.3,0-1.9-.5-4,0-4.6,0-7.7.4-2.8,6.5,1.8,7.6,2.5,8.4,5.2,22.4,9.5,32.5,6.7,2.7-.7,5.8-4.4,9.1-5.7,15.9-6.3,23.8-5.5,22.8-28.6.7,2.1,1.4,2.1,1.8,5.8Z"/>
    <path class="st17" d="M256.5,594c-5.5,4.5-1.8,8.1-1.8,9.6,0,3.1-.5,3.7,0,7.7-7.1,8.8-1.1,17.4,0,27-4.8-4.8-7.1-10.9-9-17.4,5.5,1.1,3.5-3,3.6-6.7.4-10.8-.2-17.3,1.8-28.1,3.6.9,3.9,6.1,5.4,7.7Z"/>
    <path class="st128" d="M245.7,621c1.9,6.5,4.2,12.6,9,17.4.1,1.1,1.4,2.6,1.8,3.9h-1.8c-6.6-8.2-12.7-12.9-12.7-26.2,0-2.7,1.9-4.4,1.9-4.7-.7,3.8.9,6.5,1.8,9.6Z"/>
    <path class="st126" d="M333.9,588.2c-.4,0-1.8,2.7-3.5,1.9l-1.9-5.8c-.4-3.7-1.1-3.7-1.8-5.8-1.6-4.8-4.6-11.2-9-13.5v-1.9c10.7,5.6,14.4,12.1,16.2,25.1Z"/>
    <path class="st7" d="M260.1,566.9c-6.8,9.2-6.7,7.1-9,19.3-2,10.7-1.4,17.3-1.8,28.1s1.9,7.7-3.6,6.7c-.9-3.2-2.5-5.9-1.8-9.6,0-6.4,0-12.9,0-19.3l-3.6,3.8c2.9-14,10.8-26.2,21.6-34.7l1.8,1c-1.6,1.3-2.4,3.2-3.6,4.8Z"/>
    <path class="st28" d="M287.1,549.6c-.2,1.2.3,3.1,0,3.9-1.8,4-9.9,12.9-14.4,13.5.7-1.3,4.1-9,3.6-9.6-8.4.5-9.6,7-16.2,9.6,1.2-1.6,2-3.6,3.6-4.8l-1.8-1c9.6-7.6,14.8-8,25.2-11.6Z"/>
    <path class="st9" d="M296.1,555.4l10.5,9.1-1.5,21.8c-6.9-2.9-13.1,3.3-17.2,3.8-4.4.5-12.9-4.3-16-3.5s-3.1,3.9-4.7,5.4c0-6.4,0-17.9,1.8-23.7.7-2.4,3.5-1.2,3.6-1.4,4.5-.6,12.6-9.5,14.4-13.5,3.1,0,6,1.2,9,1.9Z"/>
    <path class="st132" d="M326.7,578.5c1,23-6.9,22.2-22.8,28.6-3.3,1.3-6.4,4.9-9.1,5.7-10.1,2.8-24.1-1.5-32.5-6.7-1.1-.7-7.2-5.3-7.6-2.5,0-1.6-3.7-5.2,1.8-9.6,1.1,1.2,3.5,2.1,4.5,3.8h2.7c-1.5-7.5,3.1-5.3,3.6-5.8,0,3.2,0,6.5,0,9.7,10.8-2.9,30.2,5.2,39.2.5,5-2.6,3.8-7.8,5.8-12.7.4-1.1,3.2-1,3.6-2.7,1.2-5.3,0-12.9-3.5-17l5.4-4.8c4.4,2.4,7.4,8.7,9,13.5Z"/>
    <path class="st105" d="M272.7,566.9c0,.2-2.8-1-3.6,1.4-1.8,5.8-1.9,17.3-1.8,23.7-.5.5-5.1-1.8-3.6,5.8h-2.7c-1-1.8-3.4-2.7-4.5-3.9s-1.8-6.8-5.4-7.7c2.2-12.2,2.2-10.1,9-19.3,6.5-2.6,7.8-9.2,16.2-9.6.5.6-2.9,8.4-3.6,9.6Z"/>
    <g>
      <path class="st137" d="M245.7,148.2l-3.6,1.9c-6.3-.7-30-1.9-32.3,5.2-1.6,2.8,1.6,5.6,1.7,6.4,2.1,18,7.3,35.1,19.8,48.2-.2.5.2,1.4,0,1.9s-1.5,1.1-1.8,1.9c-4.5-5.1-8.1-10.4-12.6-15.4-4.5-13.6-13.3-32.4-9-46.3,1.6,0,3.3-2.2,3.6-3.9,11.1.7,23.2-1,34.2,0Z"/>
      <path class="st45" d="M411.3,348.9c.4,7.4,4.8,13.9,6.4,21.2,4.9,23.2,3.5,47.4-4.6,69.5-1.4,3.9-2.1,4.7-3.6,7.7,0-1.9-.1-3.9,0-5.8,2.2-34.8,13.3-39.1,0-79.1-8.2-24.8-18.7-39.2-37.8-56-14-12.4-25.5-18.1-43.2-23.2-.4-.1-1.1-1.5-1.8-1.9,0-.6,0-1.3,0-1.9,37.6,8.8,65.9,34,84.6,69.5Z"/>
      <path class="st56" d="M409.5,447.3c-16.6,34-45.6,57.2-81,63.7-1.6.3-3.2,1.9-3.6,1.9-10.1,1.1-24.9-4.3-30.6,5.8-2.4.2-1.4-3-1.8-3.9l1.8-5.8c7.2.7,18.9,1.1,25.2-1.9,22.2-.6,34.9-7.5,52.2-21.2,11.2-8.9,33.1-29.1,36-44.4h1.8c-.1,1.9,0,3.9,0,5.8Z"/>
      <path class="st93" d="M366.3,146.2l16.2,3.9c-21.9-1.2-53.2,3-66.8,24.2-1.4,2.2.3,2.7.2,2.8-.6,1.3-1.4,2.6-1.8,3.9-.6,2-1.3,3.7-1.8,5.8s-1.2,5.2-1.8,7.7c-.6,0-1.4.2-1.8,0-1-.4-2.4-.2-3.6-1s-1.3-2.2-1.8-2.8c7.4-14.2,14.8-27.1,28.8-34.7,9.5-5.2,23.6-8.9,34.2-9.6Z"/>
      <path class="st1" d="M303.3,190.6c.6.7.7,2,1.8,2.8s2.5.6,3.6,1c-.3,1.1-1.9,3.1-1.8,3.9l-2.7,3.9c-1.5,0-1.4-3.1-2.7-3.9,0-3.8-1.6-5.2-3.6-7.7-2.2-8.8-8.4-16.9-14.4-23.2-1.2-1.2-2.4-2.9-3.6-3.9l1.8-1.9c12.5,10.4,13.1,18.8,21.6,28.9Z"/>
      <path class="st69" d="M281.7,161.7l-1.8,1.9c-8.8-6.8-27.1-12.4-37.8-13.5l3.6-1.9c13.6,1.2,25.5,4.8,36,13.5Z"/>
      <path class="st79" d="M242.1,150.1c10.7,1.1,29,6.7,37.8,13.5s2.4,2.6,3.6,3.9l-5.4,1.9c-1.4-.9-2.4-1.3-3.6-1.9-15.9-8.7-42.2-15.3-59.4-7.7-1.2.5-2.4,1.4-3.6,1.9,0-.8-3.2-3.6-1.7-6.4,2.3-7.1,25.9-5.9,32.3-5.2Z"/>
      <path class="st95" d="M296.1,208c1.3,5,1.5,10.3,1.8,15.4s0,2.6,0,3.9c-3,2.1-1.8,7.9-1.8,11.6l-1.8-9.6c-25.8,10.9-46,5.6-64.8-15.4.3-.9,1.6-1.5,1.8-1.9,5,4.4,11.3,10.7,17.3,13.3,4.3,1.9,6.7,1.2,9.7,2.1s2.5-.2,3.6,0,3,2.7,5.2,3.1c10.4,2,15.3-2,23.6-6.9.7-.4,3.3,1.2,3.7-1.1l-1.9-14.3h3.6Z"/>
      <path class="st109" d="M216.9,163.6c2.3,6.4,2.1,14.4,5.4,23.2,2.8,7.6,3.5,7.6,7.2,13.5,1.2,1.9,1.4,5.1,3.6,7.7-.4.8-1.5,1.4-1.8,1.9-12.5-13.1-17.6-30.3-19.8-48.2,1.2-.5,2.4-1.4,3.6-1.9v2.9c.3,1.3,1.8.9,1.8,1Z"/>
      <path class="st27" d="M236.7,209.9c7.4,7.5,10.7,7.7,18,13.5,1.4,1.1,3.1,1.7,3.6,3.9-3-.9-5.4-.3-9.7-2.1-6-2.6-12.2-8.9-17.3-13.3.2-.5-.2-1.4,0-1.9s1.4-1.1,1.8-1.9c.6.8,2.8,1.1,3.6,1.9Z"/>
      <path class="st24" d="M315.9,229.2c.9,1.3,0,6.2,5.4,5.8l-3.3,2.1c-1.2,1.5,3.9,15.8,5.1,19.1,8.9,25.2,7.6,16.1,26.9,24.3,4,1.7,21.4,11.1,25.3,13.4,8.7,5.3,18.1,17.3,23.5,26,3.8,6.1,11.9,17.3,14.1,21.5s-1.7,4.9-1.5,7.5c-18.7-35.4-46.9-60.6-84.6-69.5-2.6-17.2-13.3-36.1-14.4-54,2,0,2.6,2.4,3.6,3.9Z"/>
      <path class="st14" d="M301.5,198.4c1.3.7,1.2,3.8,2.7,3.9l2.7-3.9c.4,3.9,1.3,9,1.8,13.5.1,1.1,1.4,2.6,1.8,3.9-7,18.1,11.2,52.7,14.4,71.4,2.9.6,1.9-3.8,1.8-5.8.7.4,1.4,1.8,1.8,1.9,0,1.9,0,3.9,0,5.8s.3,4.1,0,5.8-1.6,6.4-3.6,5.8l-1.8-13.5c-7.8,3.5-11.9,1.8-16.2-5.8-.9-1.5-1.3-1.1-1.8-3.9,3.5-12.6,0-30.2-3.6-42.5s-.8-8.6-3.6-11.6c-.3-5.1-.5-10.5-1.8-15.4s-8.3-11.2-12.6-13.5c4.4-3.5,13.6,1.4,18,3.9Z"/>
      <path class="st46" d="M315.9,215.7c0,9.5,1.2,8.8,9,11.6,14.1,5,20.8,4.8,34.7-.4,4.6-1.7,9.1-6.1,12.1-7.3.4-.1,1.3,0,1.8,0,1.2.2,2,.5,1.8,1.9-3.1,2.3-11.5,8.4-14.4,9.6s-4.5,1.7-5.4,1.9c-8.6,2.4-21.9,2.2-30.6,0-1.9-.5-5.6-4.5-9-3.9-1-1.4-1.6-3.8-3.6-3.9,1.1,17.9,11.7,36.9,14.4,54,0,.6,0,1.3,0,1.9,0,2,1.1,6.4-1.8,5.8-3.2-18.7-21.4-53.3-14.4-71.4s2.7-2.6,3.6-3.9c1.8-.2,1.8,2.4,1.8,3.9Z"/>
      <path class="st10" d="M404.1,360.5c3-.7,3.9.8,3.6,3.8l1.8-1.9c13.3,40.1,2.2,44.4,0,79.1h-1.8c.3-1.6-.2-3.9,0-5.8.3-3.8-.3-7.8,0-11.6s-.1-5.2,0-7.7c1.2-21.9,4.4-33.7-3.6-56Z"/>
      <path class="st113" d="M409.5,362.4l-1.8,1.9c.2-3-.7-4.6-3.6-3.8-2.1-5.9-5.7-12-9-17.4-2.8-11.6-15.8-29-25.2-34.7l1.8-1.9c19,16.8,29.6,31.1,37.8,56Z"/>
      <path class="st42" d="M371.7,306.4l-1.8,1.9c-.5-.3-1.4.3-1.8,0-8.2-10-20.2-15.1-31.8-19.1-2.9-1-4.6-3.1-7.8-.2,0-1.9,0-3.9,0-5.8,17.6,5.1,29.1,10.8,43.2,23.2Z"/>
      <path class="st131" d="M197.1,385.5c-.4,15.3.7,31.7,5.4,46.3,8.3,26,28.2,48.9,50.4,61.8,13.2,7.7,25.9,13.9,41.4,15.4l-1.8,5.8c-2.4-5-13.6-5.2-19.4-7.2-14.3-5-28.4-11.4-40-21.7-2.5-2.2-6.6-6.9-9-9.6-8.2-9.2-17-21.4-21.6-32.8-2.8-6.8-6.5-17.9-7.2-25.1-1.2-11.6.4-23.8,1.8-34.7v1.9Z"/>
      <path class="st57" d="M407.7,435.7l-36,50.2c-17.3,13.7-29.9,20.7-52.2,21.2-2.3,0-12.6.7-12.6-1,4.8-.4,8.3-1.7,12.6-2.9s10.1-2.2,14.4-3.9c14.1-.5,28.6-11.2,38.7-21.1s21.6-25.7,26.8-35,4-13.4,8.2-19.2c-.3,3.8.3,7.8,0,11.6Z"/>
      <path class="st48" d="M319.5,503.3c-4.3,1.2-7.9,2.5-12.6,2.9,0,1.7,10.3,1,12.6,1-6.3,3-18,2.6-25.2,1.9-15.5-1.5-28.1-7.8-41.4-15.4v-1.9c12.2,2.1,25.2,11.6,37.5,12.4,9.1.6,19.8-2.9,29.1-.8Z"/>
      <path class="st26" d="M407.7,441.5c-2.9,15.3-24.8,35.5-36,44.4l36-50.2c-.2,1.9.3,4.1,0,5.8Z"/>
      <path class="st11" d="M299.7,281.3c-.2,1.2.1,2.6,0,3.9-25.9,4.6-54.8,11.7-72,34.7-6.4,7-15.1,18.1-21.8,33.6-7.3,16.6-9.4,31.5-10.1,41.3-.5-12.3.6-31.2,10-51.1,18.7-39.3,55.8-53.6,65.1-56.6,8.1-2.6,20.2-2.8,28.8-5.8Z"/>
      <path class="st5" d="M227.7,319.9l-19.8,31.9,7.2-1c-.6,1.3-.9,3.8-1.8,5.8-3.5,8.1-9.5,20.4-10.8,28.9s.1,2.6,0,3.9l-1.8,9.6h-1.8s-1.8-13.5-1.8-13.5v-1.9c1.1-8.2,2.5-19.5,5.4-27s2.5-1.1,3.4-3.1c5.6-13.3,9.5-25.3,21.8-33.6Z"/>
      <path class="st67" d="M305.1,277.5c.5,2.7.9,2.3,1.8,3.9-1.8,12.6,5.9,13.7,10.8,20.2,8.5,11.1-1.3,14.4-5.8,22.8-7.7,14.5-.5,18.2-20.8,22.2-5.9,1.2-14.6-.8-21.4,1.8-8.5,3.3-20.7,15.3-25.7,17s-9.6-.1-14.4,1.9c-4.1,1.7-8.3,9.4-10.3,10.6-2.9,1.8-6.8.9-9.1,2.4-1.2.8-1.2,4.2-4.1,5.2.3-6.7,8.2-23.6,13-26.5,2.6-1.6,9.4,0,14.1-1.4s13.3-10.1,18.4-13.1c10.8-6.3,12.8,1.1,19.3-15,18.6-6.6,25.5-17.4,25.2-38.6,1.2-1.9,2.5-3.8,3.6-5.8.1-1.3-.2-2.6,0-3.9s0-1.3,0-1.9c4.7-1.6,3.7-7.4,3.6-11.6.4,2.4,1.2,6.8,1.8,9.6Z"/>
      <path class="st102" d="M301.5,235c.3,10.4.2,22.7,1.8,32.8.1,4.2,1.1,10-3.6,11.6,0-.4,0-4.8,0-5.8-.2-14.8-.9-31.6-1.8-46.3,0-1.3,0-2.6,0-3.9,2.8,3,2.5,7.8,3.6,11.6Z"/>
      <path class="st98" d="M299.7,273.6c-4.8-10.4-3.7-23.4-3.6-34.7,0-3.6-1.2-9.5,1.8-11.6.9,14.8,1.6,31.5,1.8,46.3Z"/>
      <path class="st112" d="M396.9,188.7c0-.2-1.3-1.4-1.8-1.9,4.7-6.8,10.8-26.6,5.4-32.8-3.6-4.1-13-3.6-18-3.9l-16.2-3.9c10-.7,38.9-2.7,41.1,11.1,1,6.2-4.9,27.1-10.5,31.4Z"/>
      <path class="st75" d="M396.9,190.6c-.2,6.4-6.8,16.3-10.8,21.2s-4.5,5-5.4,5.8c-1.5,1.4-3.7,2.6-5.4,3.9.2-1.4-.6-1.8-1.8-1.9l23.4-28.9Z"/>
      <path class="st104" d="M395.1,186.8c.5.5,1.8,1.8,1.8,1.9.1.5,0,1.3,0,1.9l-23.4,28.9c-.5,0-1.4-.1-1.8,0l-1.8-1.9c5.2-3.9,8.7-8.3,12.6-13.5s7.5-11.1,10.8-19.3c.7.6,1.2,1.3,1.8,1.9Z"/>
      <path class="st62" d="M378.9,163.6c-8.5,4.1-8,6.5-14.4,11.6l-9-2c2.3-3.8,2.8-4.3-1.8-3.8l-.9,5.6-8.1-1.8v9.6c-8.2-10.7-20-.3-30.6-1.9.4-1.3,1.2-2.6,1.8-3.9,1.7-1.4,3.7-2.4,5.4-3.9l8.2,3.8c1.8-5.8,8.5-4.2,13.8-6.3,4-1.6,7-5.1,11.8-6.6,8.2-2.6,15.6-1.3,23.8-.5Z"/>
      <path class="st116" d="M314.1,181c10.6,1.6,22.4-8.8,30.6,1.9v-9.6s8.2,1.8,8.2,1.8l.9-5.6c4.6-.4,4.1,0,1.8,3.8l9,2c-3,2.4-.7,3.3-7.2,3.9s-1-2.4-4.8-.6c-6.8,3.3-14.4,15.7-24,16-6.3-2-2-2.3-5.3-8.8l-10.9,1.1c.5-2,1.2-3.8,1.8-5.8Z"/>
      <path class="st123" d="M382.5,150.1c5,.3,14.4-.3,18,3.9v1.9c-1.8,0-3.6,0-5.4,0s-2.5-.2-3.6,0c-18.3-4.8-41.5-1-57.6,9.6-6.9,1.3-8,3.8-12.6,7.7-1.7,1.4-3.7,2.5-5.4,3.9,0-.1-1.6-.6-.2-2.8,13.6-21.2,44.9-25.4,66.8-24.2Z"/>
      <path class="st12" d="M312.3,186.8l10.9-1.1c3.4,6.5-.9,6.8,5.3,8.8s1.1,1.5,1.8,1.9c-6.6,4.3-11.7,8.6-16.2,15.4s-3.2,2.8-3.6,3.9c-.4-1.2-1.7-2.8-1.8-3.9,5.8-4.9,9.6-11.3,9-19.3-4.9,5.1-5,2.2-7.2,1.9.6-2.6,1.1-5.2,1.8-7.7Z"/>
      <path class="st20" d="M308.7,211.9c-.5-4.5-1.4-9.6-1.8-13.5s1.5-2.8,1.8-3.9c.4.2,1.2,0,1.8,0,2.2.3,2.3,3.2,7.2-1.9.6,8-3.1,14.4-9,19.3Z"/>
      <path class="st134" d="M287.1,179.1c3.3,3.7,7.9,7.9,10.8,11.6,2,2.5,3.6,3.9,3.6,7.7-4.4-2.5-13.6-7.4-18-3.9-2.1-1.1-6.1-2.5-9-3.9,10.1-.3,8.1-3.4,12.6-11.6Z"/>
      <path class="st43" d="M297.9,190.6c-2.9-3.7-7.5-7.9-10.8-11.6-3.2-3.5-1.6-3.3-7.2-7.7-.7-.5-1.2-1.5-1.8-1.9l5.4-1.9c6,6.3,12.2,14.3,14.4,23.2Z"/>
      <path class="st87" d="M216.9,163.6l1.4-1.6c2,7.5,8.6,6,13,7.3,11.7,3.6,24.6,7.6,37,5.9s4.3-4.9,6.2-7.9c1.2.7,2.2,1,3.6,1.9s1.1,1.4,1.8,1.9c1.4,3.4,3.3,14.5-.9,15.4l-24.3-7.7c-6.3-2.6-16.5-4.1-23.4-5.8-3.6-.9-7.3-2.7-10.8-3.9l1.8,17.4c-3.3-8.8-3.1-16.7-5.4-23.2Z"/>
      <path class="st55" d="M274.5,167.5c-2.5-1.4-8.2.3-9.6-.2s-.5-3.4-3.8-3.9c-8.2-1.1-24.3-1.6-29.8,6-4.4-1.4-11,.1-13-7.3l-1.4,1.6c0-.1-1.5.3-1.8-1v-2.9c17.2-7.5,43.4-1,59.4,7.7Z"/>
      <path class="st33" d="M276.3,202.2c.1,4.6-1.7,12-3.7,15.9-1.2,2.3-5,.2-3.5,5.3l3.6,1.9-10.8,1.9c-1.1-.2-2.6.3-3.6,0-.5-2.1-2.2-2.7-3.6-3.9-1.4-15.7,12.8-13.3,12.6-28.9,5.1-.2,6.4,5.1,9,7.7Z"/>
      <path class="st23" d="M290.7,223.4c-8.3,5-13.1,8.9-23.6,6.9-2.3-.4-4.4-2.9-5.2-3.1l10.8-1.9-3.6-1.9c-1.5-5.1,2.3-3,3.5-5.3,2-3.9,3.8-11.3,3.7-15.9,6.1,6.2,14,10.8,14.4,21.2Z"/>
      <path class="st22" d="M274.5,190.6c2.9,1.3,6.9,2.7,9,3.9,4.3,2.3,11.4,8.8,12.6,13.5h-3.6s1.9,14.3,1.9,14.3c-.3,2.3-3,.7-3.7,1.1-.4-10.4-8.3-15-14.4-21.2s-3.8-7.9-9-7.7c0-.3-1.4-4.7-1.8-5.8,2.8,1.2,7.1,1,9,1.9Z"/>
      <path class="st41" d="M247.5,181c6.3,2.6,11,5.5,16.2,7.7.5,14.9-18.5,6.5-25.2,12.5l-1.8,8.7c-.8-.8-2.9-1.2-3.6-1.9-2.2-2.6-2.4-5.9-3.6-7.7l8-7.6c-2.2-10.8,2.4-9.4,9.9-11.7Z"/>
      <path class="st54" d="M231.3,173.3c4.6,3.7,10.9,5.5,16.2,7.7-7.6,2.3-12.1.9-9.9,11.7l-8,7.6c-3.7-5.9-4.4-6-7.2-13.5l-1.8-17.4c3.5,1.2,7.2,3,10.8,3.9Z"/>
      <path class="st99" d="M267.3,194.5c.2,15.7-14,13.3-12.6,28.9-7.3-5.8-10.6-6.1-18-13.5l1.8-8.7c6.7-6,25.8,2.3,25.2-12.5.5.2,1.3-.2,1.8,0,.4,1.1,1.8,5.5,1.8,5.8Z"/>
      <path class="st66" d="M306.9,281.3c4.3,7.5,8.4,9.3,16.2,5.8l1.8,13.5c2,.6,3.4-4.6,3.6-5.8,5.4-2.6,12.5,0,18,1.9-2.4,2.6-8.3,5-9.6,8.2-4.5,10.7,4.9,8.9,2.4,13s-2.8-.5-3.2.9c-1.4,4.6.4,4.9-3.5,14.1s.6,12.8-13.1,12.1l1.8,5.8h-7.2c4.8,8-5.1,6.2-5.4,13.5-19.6,0-38-2.2-55.9,6.6-4.4,2.2-19.1,12.8-21.5,12.7-6.7-.4-1,0-5,1.8-7.9,3.5-18.8,3.2-23.8,11.7,0-2.5-.2-5.2,0-7.7s-.2-2.7,0-3.9c1.1-.2,2.7.3,3.6,0,2.8-1,2.8-4.4,4.1-5.2,2.3-1.5,6.2-.6,9.1-2.4s6.2-8.9,10.3-10.6c4.8-2,9.6-.3,14.4-1.9s17.3-13.7,25.7-17c6.8-2.6,15.5-.7,21.4-1.8,20.3-4,13.1-7.8,20.8-22.2s14.3-11.7,5.8-22.8-12.6-7.6-10.8-20.2Z"/>
      <path class="st114" d="M368.1,308.4c-.4-.3-1.4.3-1.8,0-2.4-1.6-6.9-4.8-9-5.8-3.8-1.9-6.3-4.2-10.8-5.8-5.5-1.9-12.6-4.6-18-1.9.3-1.7,0-3.9,0-5.8,3.2-2.9,4.9-.8,7.8.2,11.6,4,23.6,9.1,31.8,19.1Z"/>
      <path class="st61" d="M305.1,277.5c-.6-2.8-1.4-7.2-1.8-9.6-1.6-10.1-1.5-22.4-1.8-32.8,3.5,12.3,7.1,29.9,3.6,42.5Z"/>
      <path class="st4" d="M382.5,204.1c-3.9,5.3-7.4,9.7-12.6,13.5-14.5,10.7-27.8,10.4-45,9.6-7.8-2.8-9-2-9-11.6,2.8-4,5.3-6.6,9-9.6-.1,1.5,1.7,3.2,1.8,3.9.5,3.6-.5,7.8,0,11.5,13,4,22.2,3.9,34.8-2,5.3-2.5,9.6-7.2,13.7-11.4s3.7-3.4,5.4-5.8l1.8,1.9Z"/>
      <path class="st25" d="M350.1,188.7v1.9c-8.3,2.1-18.4,9.8-25.2,15.4s-6.2,5.6-9,9.6c0-1.4,0-4-1.8-3.9,4.5-6.9,9.6-11.1,16.2-15.4,1.6-1,15.1-8.5,16.2-8.9,3.5-1.2,2.7.6,3.6,1.2Z"/>
      <path class="st118" d="M371.7,219.6c-3,1.2-7.5,5.6-12.1,7.3-13.9,5.2-20.6,5.4-34.7.4,17.2.8,30.4,1.1,45-9.6l1.8,1.9Z"/>
      <path class="st24" d="M355.5,233.1l1.4,2.4c-8.9,6-20.5,2-30.2-.5s-2.4.2-3.6,0l1.8-1.9c8.6,2.2,22,2.4,30.6,0Z"/>
      <path class="st24" d="M380.7,217.7l1.8,3.8c-4.7.3-7.4,5.7-10.8,7.8-3.1,1.9-8.6,5.4-10.8,1.9,2.9-1.2,11.3-7.3,14.4-9.6,1.7-1.3,3.9-2.5,5.4-3.9Z"/>
      <path class="st63" d="M395.1,343.1c3.3,5.3,6.9,11.4,9,17.4,8,22.3,4.8,34.1,3.6,56h-1.8c.4-3.5.5-12,0-15.4-.7-4.5-4-13.4-5.4-19.3s-5.4-15.7-7.1-22.4c-1.9-7.6-.1-14.2-5.5-21.9h1.8c1.5,1.9,4.6,4.6,5.4,5.8Z"/>
      <path class="st97" d="M407.7,416.4c-.1,2.6.2,5.2,0,7.7-4.3,5.8-4.4,12.4-8.2,19.2s-19.3,27.6-26.8,35-24.6,20.7-38.7,21.1c23.2-8.8,42.3-27.6,55.8-48.2,6.6-10,14.6-22.2,16.2-34.7h1.8Z"/>
      <path class="st127" d="M369.9,308.4c9.4,5.7,22.4,23.2,25.2,34.7-.8-1.2-3.9-3.9-5.4-5.8-2.7-3.5-2.6-5-7.2-9.6-1-5.7-11.2-16.3-16.2-17.4v-1.9c.4.3,1.4-.3,1.8,0s1.3-.3,1.8,0Z"/>
      <path class="st50" d="M216.9,447.3c0,.6,0,1.3,0,1.9,1.9,13,23.9,36.6,36,40.5v3.9c-22.2-12.8-42-35.7-50.4-61.8l3.6-1.9c.7,2.7,7.7,16,10.8,17.4Z"/>
      <path class="st107" d="M197.1,385.5l1.8,13.5h1.8s1.8-9.6,1.8-9.6c-.2,2.5,0,5.2,0,7.7-.2,7.1-1.3,17.6,1.8,23.2.1.9.9,1.7,1.8,1.9,0,2.3-.4,6,0,7.7l-3.6,1.9c-4.7-14.6-5.8-31-5.4-46.3Z"/>
      <path class="st65" d="M389.7,451.2c-13.5,20.7-32.6,39.4-55.8,48.2-4.3,1.6-9.8,2.6-14.4,3.9-9.4-2.1-20,1.4-29.1.8-12.2-.8-25.3-10.3-37.5-12.4v-1.9c3.1,1,9,.7,12.6,1.9,24.5,8.5,32.7,12.9,59.8,3.7,7.6-2.6,32.4-18.4,40.7-24.3,8.5-6,15-14.5,23.6-20Z"/>
      <path class="st74" d="M299.7,285.2c-1.1,2-2.4,3.9-3.6,5.8s-2.7,2.8-3.6,3.9c-6.1.7-12.4,3.2-18,5.8-6.7,3.1-13.5,8.8-19.3,11.1s-9.9-2.8-11.2,6.2c-9.4,4.7-24.1,23-28.8,32.8l-7.2,1,19.8-31.9c17.2-23.1,46-30.1,72-34.7Z"/>
      <path class="st72" d="M265.5,327.6l9-7.7c-1.1,3.9-2.2,6.1-3.6,9.6-6.5,16.1-8.5,8.8-19.3,15-5.1,3-13.1,11.4-18.4,13.1s-11.5-.2-14.1,1.4c-4.8,2.9-12.8,19.9-13,26.5-.9.3-2.5-.2-3.6,0,1.3-8.5,7.3-20.8,10.8-28.9,6.3-2.7,10.4-12,15.3-17.3,4.4-4.8,12.1-10.6,17.1-15.5,3.4,2,6.2,6.3,10.3,4.5,4.2-1.9,2.9-10.7,7.7-12.2l1.8,11.6Z"/>
      <path class="st71" d="M243.9,318c2.3-1.1,9.5-2.2,12.6-3.8-1,6.2-8.7,4.8-10.4,6.2s-.1,3.2-.3,3.4c-5,4.9-12.7,10.7-17.1,15.5-4.9,5.3-9,14.6-15.3,17.3.9-2,1.2-4.5,1.8-5.8,4.7-9.8,19.4-28.1,28.8-32.8Z"/>
      <path class="st13" d="M270.9,329.6c1.4-3.5,2.5-5.7,3.6-9.6.8-2.9-1.3-6.5,1.7-10.7,2.2-3.1,11.7-9.1,16.3-14.3s3.4-3.5,3.6-3.9c.3,21.2-6.6,32-25.2,38.6Z"/>
      <path class="st64" d="M395.1,186.8c-.6-.7-1.1-1.3-1.8-1.9,2.4-6.2,4.8-12.5,5.4-19.3,1-2.5,1.3-2.7,1.8-5.8s-.1-2.6,0-3.9v-1.9c5.4,6.2-.7,26-5.4,32.8Z"/>
      <path class="st85" d="M393.3,184.8c-3.3,8.2-5.7,12.3-10.8,19.3l-1.8-1.9c1.3-1.8,2.5-3.8,3.6-5.8,4.3-7.6,11.1-22.6,14.4-30.9-.6,6.8-3,13.1-5.4,19.3Z"/>
      <path class="st16" d="M400.5,155.9c-.1,1.2.2,2.7,0,3.9l-16.2,3.9h6.3s.9,3.8.9,3.8c-5.6-1.8-5.5,3.6-8.3,5.5-8.2,5.6-21.9,8.5-25.9,19.6-8.7-.3-4.4-3-5.4-3.9v-2.6s5.4-7.1,5.4-7.1c6.5-.6,4.2-1.5,7.2-3.9,6.4-5.1,5.9-7.5,14.4-11.6,5.6-2.7,13.4-3.3,16.2-7.7,1.8,0,3.6,0,5.4,0Z"/>
      <path class="st3" d="M395.1,155.9c-2.8,4.5-10.6,5.1-16.2,7.7-8.2-.8-15.6-2.1-23.8.5-4.8,1.5-7.8,5-11.8,6.6-5.3,2.1-12,.5-13.8,6.3l-8.2-3.8c4.6-3.9,5.7-6.4,12.6-7.7,17.9-3.4,38.6-6.7,57.6-9.6,1.1-.2,2.4,0,3.6,0Z"/>
      <path class="st94" d="M357.3,179.1l-5.4,7.1v2.6c-.4-.3-1.4.3-1.8,0-.8-.6,0-2.4-3.6-1.2-1.1.4-14.7,7.8-16.2,8.9-.7-.4-1.3-1.8-1.8-1.9,9.7-.4,17.2-12.7,24-16,3.8-1.8,4.5.6,4.8.6Z"/>
      <path class="st135" d="M391.5,155.9c-19,2.9-39.7,6.2-57.6,9.6,16.1-10.6,39.3-14.4,57.6-9.6Z"/>
      <path class="st36" d="M279.9,171.3c5.6,4.5,4,4.2,7.2,7.7-4.5,8.2-2.5,11.3-12.6,11.6-1.9-.9-6.2-.7-9-1.9-1.7-5-5.5-7.4-10.8-9.6l24.3,7.7c4.2-.9,2.3-12.1.9-15.4Z"/>
      <path class="st2" d="M231.3,169.4c5.5-7.6,21.6-7.1,29.8-6s2.3,3.4,3.8,3.9,7.1-1.3,9.6.2c-1.9,3-2.7,7.4-6.2,7.9-12.3,1.6-25.3-2.3-37-5.9Z"/>
      <path class="st30" d="M254.7,179.1c5.3,2.2,9.1,4.6,10.8,9.6-.5-.2-1.3.2-1.8,0-5.2-2.3-9.9-5.1-16.2-7.7-5.3-2.2-11.6-4-16.2-7.7,6.8,1.7,17.1,3.2,23.4,5.8Z"/>
      <path class="st29" d="M308.7,364.3c6,0,12.2-2.3,16.2,0-1.7,1.6-7.2,10.6-7.8,11.2-2.7,2.9-8.6,4.7-10.2,10.1-3.7,1.7-6.2,4.7-9.9,5.9l-1.7-3.7c-4.8.6-20,4.8-19.1-2.1l-4.5,3.3-3.6-3.3-4.5,7.7c-1-.3-2.5.2-3.6,0-2-.4-4.9.2-7.2,0-3.1-.2-6.4-6-10.8,1.9l-2.7-7.7-1.7,3.9c-2.3-2.3-10.6-1.9-6.4-7.7,2.4.1,17.1-10.5,21.5-12.7,17.9-8.8,36.3-6.6,55.9-6.6Z"/>
      <path class="st21" d="M357.3,302.6l-5.4,1,1.8,31.8-3.6-2-4.2,14.8c-6.8,4.1-15,10.4-21,16-4-2.3-10.2,0-16.2,0,.3-7.3,10.2-5.5,5.4-13.5h7.2s-1.8-5.8-1.8-5.8c13.6.7,10-4.7,13.1-12.1s2-9.5,3.5-14.1,3.1-.6,3.2-.9c2.5-4.1-6.9-2.3-2.4-13s7.1-5.5,9.6-8.2c4.5,1.6,7,3.9,10.8,5.8Z"/>
      <path class="st0" d="M231.3,383.6c-4.2,5.8,4,5.4,6.4,7.7l1.7-3.9,2.7,7.7c-1.7,3-1,7.2-3.6,9.6-.2-1.1.2-2.6,0-3.9l-1.8,2c-6.4-9.2-20.9-2.6-30.7-3-2.5,1.8-2.2,16.5-1.7,20.4-3.1-5.6-2-16.1-1.8-23.2,5-8.5,15.9-8.2,23.8-11.7,4-1.8-1.8-2.2,5-1.8Z"/>
      <path class="st31" d="M357.3,302.6c2,1,6.6,4.2,9,5.8v1.9c-2.1-.5-4.9.3-7.2,0,7.4,16.3,4.7,25.9-.1,42.3-1.6-1.7-11.3,3.8-11.9,4.5-2.5,2.9.5,2.6-5.9,7.2-12.6,8.9-21.2,15.2-34.2,21.2,1.7-5.3,7.6-7.2,10.2-10.1s6-9.5,7.8-11.2c6-5.7,14.2-11.9,21-16l4.2-14.8,3.6,2-1.8-31.8,5.4-1Z"/>
      <path class="st38" d="M375.3,208c-4.1,4.2-8.4,8.9-13.7,11.4-12.6,6-21.8,6-34.8,2-.6-3.7.4-7.9,0-11.5,1.9-4.6,10-8.3,14.4-9.6,12.1-3.7,24,.2,34.2,7.7Z"/>
      <path class="st18" d="M351.9,188.7c1,.9-3.3,3.5,5.4,3.9,12.2.5,16.1-7.2,27,3.9-1.1,2-2.3,4-3.6,5.8s-3.5,3.8-5.4,5.8c-10.2-7.6-22.1-11.4-34.2-7.7,2-5.1,9.7-3.1,9-9.6v-1.9c.4.3,1.4-.3,1.8,0Z"/>
      <path class="st39" d="M350.1,190.6c.7,6.5-7,4.6-9,9.6-4.4,1.3-12.5,5-14.4,9.6,0-.6-1.9-2.4-1.8-3.9,6.8-5.7,16.9-13.4,25.2-15.4Z"/>
      <path class="st100" d="M387.9,337.3c5.4,7.7,3.6,14.4,5.5,21.9,1.7,6.8,5.5,15.8,7.1,22.4l-8.9,1.9c-.9-4.2-2.3-10.2-7.3-9.6,1.1,5.1-3.9,7.6-5,11.1s1.4,9.4,1,11.1-5.3,2.7-3.5,8.5l-4.9.4c-.1,5.2-3,17-5.7,21.1-2.6,4-9.1,5.6-12.6,7.7-2.7,1.6-6.3-1.9-7.2-1.9l1.8-3.9c14,2,22.7-15.5,18-28.9,2.9-2.3,2.5-5.6,3.1-8.7,3.5-17.7,5.5-30.9,7-50.5.2-2.2-1.1-4.2-1.1-6.4l12.6,3.8Z"/>
      <path class="st106" d="M366.3,426.1c2.7-4,5.6-15.8,5.7-21.1l4.9-.4c-1.8-5.8,3.4-8,3.5-8.5.4-1.8-2.1-7.9-1-11.1s6.1-5.9,5-11.1c5-.6,6.4,5.4,7.3,9.6l8.9-1.9c1.4,5.9,4.7,14.8,5.4,19.3l-5.4,1,3.6,3.8c-.6,3.7-6.5,9.1-7.2,10.7-7.3-1.2-8.7,9.9-13.5,13.5l-1.8-3.9c-2.2,7.4-6.5,4.6-9.9,6.7s-2.3,4.8-7.3,8.7c-.2-5.6.1-10.6,5.4-12.6v-4.8c0,0-3.6,1.9-3.6,1.9Z"/>
      <path class="st90" d="M405.9,401c.5,3.4.4,11.9,0,15.4-1.6,12.5-9.6,24.7-16.2,34.7-8.7,5.5-15.2,14-23.6,20-8.3,5.9-33.1,21.7-40.7,24.3-27.1,9.2-35.3,4.8-59.8-3.7h1.8c1.8,0,3.6.1,5.4,0,28.7,14.5,55.8-3.4,80.1-19.3s2-4.2,3.3-5.1c4.5-3.1,18.8-8.6,22.2-12.7,1.2-1.5.9-4.5,2.3-6.4,10.5-13.5,9.3-17.1,16.3-31.7s6.6-6.9,7.2-10.7l-3.6-3.8,5.4-1Z"/>
      <path class="st44" d="M382.5,327.6c4.6,4.7,4.5,6.2,7.2,9.6h-1.8l-12.6-3.8c0,2.2,1.3,4.2,1.1,6.4-1.5,19.6-3.6,32.7-7,50.5-.6,3.2-.2,6.5-3.1,8.7-3.9-11.4-6.1-7.2-12.6-9.6s-3.8-4.8-7.2-3.9c1.4-1.8,1.2-6.6,2.1-7.3,1.9-1.6,15-1,10.5-11.9,5.6-4.3,9.2-7.4,10-15.3l-1-32.9c3.2-2.3,11.9,7.1,14.4,9.6Z"/>
      <path class="st139" d="M366.3,310.3c5,1.1,15.2,11.6,16.2,17.4-2.5-2.5-11.2-11.9-14.4-9.6l1,32.9c-.8,8-4.4,11.1-10,15.3s-1.3,3.4-3.1,3.8c-6.5,1.4-9.9-2.2-16.7,3.9h-3.6c-2.2-1.5,10.6-4.7,5.4-9.6,6.4-4.6,3.4-4.3,5.9-7.2s10.3-6.3,11.9-4.5c4.8-16.5,7.6-26,.1-42.3,2.3.3,5.1-.5,7.2,0Z"/>
      <path class="st53" d="M346.5,431.9c.9,0,4.5,3.5,7.2,1.9-5.4,3.3-12.7,6.3-17.2,9.7-13.4,10.2-6.1,10.8-26.4,17.5-1.4.5-1.3,3.4-2.7,3.7-5.8,1.3-39.1,2.1-46.3,1.9-1.2,0-.9-3.4-3.2-4.5-10.3-4.7-22.6-7.1-23,8.3-6.6-7.1-10.7-14.8-18-21.2,0-.6,0-1.3,0-1.9,0-2.6,0-5.1,0-7.7,6.8,1.2,11.5-3.3,18-3.9,8.1-.7,6.2,2.4,7.8,3.1,6.1,2.8,11.5,5.7,18.2,6.5l2.7-5.8c1.9,9,7.7,5.5,13.5,9.7l1.8-4h4.5c0,0-3.6,3.9-3.6,3.9,6.6-2.9,22.5,1.3,27.5,0,1.3-.3.8-2.9,4-4s19,0,20.7-1.7l-1.8-7.7c6.3,2.1,10.7-4.3,16.2-3.9Z"/>
      <path class="st78" d="M238.5,416.4c3.6,10.5,14.8,19.9,25.2,13.5v1.9c-3.6.3-7.2,2.7-13.6,2-6.2-.7-8.2-6.8-15.2,1.8-6.4.6-11.2,5.1-18,3.9,0,2.6,0,5.1,0,7.7-3.1-1.4-10.1-14.7-10.8-17.4s0-5.5,0-7.7c0-3.2,0-6.4,0-9.7,11.3,2.7,21.6-2.5,32.4,3.9Z"/>
      <path class="st91" d="M216.9,449.2c7.3,6.4,11.4,14.1,18,21.2,10,10.8,8.4,5.7,17.9,10.8,4.3,2.3,10.5,7.2,14.5,10.5h-1.8c-3.6-1.3-9.5-.9-12.6-1.9-12.1-3.9-34.1-27.6-36-40.5Z"/>
      <path class="st77" d="M204.3,420.3c-.5-3.8-.8-18.5,1.7-20.4,9.8.4,24.3-6.2,30.7,3-.2,4.6.4,9.2,1.8,13.5-10.8-6.4-21.1-1.1-32.4-3.9,0,3.2,0,6.4,0,9.7-.9-.2-1.7-1-1.8-1.9Z"/>
      <path class="st144" d="M274.5,300.6c-6.3,3.8-3,11.7-3.8,13.1-1.4,2.4-8.3,3.2-5.1,13.9l-1.8-11.6c-4.8,1.5-3.5,10.4-7.7,12.2-4.1,1.8-7-2.5-10.3-4.5.2-.2-.6-2.6.3-3.4,1.7-1.5,9.5,0,10.4-6.2-3.1,1.6-10.3,2.7-12.6,3.8,1.4-9.1,6.4-4.3,11.2-6.2s12.6-8.1,19.3-11.1Z"/>
      <path class="st8" d="M292.5,294.8c-4.6,5.3-14.2,11.2-16.3,14.3-2.9,4.3-.9,7.8-1.7,10.7l-9,7.7c-3.1-10.7,3.8-11.5,5.1-13.9.9-1.5-2.4-9.4,3.8-13.1,5.6-2.6,11.8-5.1,18-5.8Z"/>
      <path class="st59" d="M398.7,165.5c-3.3,8.3-10.1,23.2-14.4,30.9-10.9-11-14.8-3.4-27-3.9,4-11.1,17.7-14,25.9-19.6,2.8-1.9,2.7-7.3,8.3-5.5l-.9-3.8h-6.3s16.2-3.9,16.2-3.9c-.5,3.1-.8,3.3-1.8,5.8Z"/>
      <path class="st82" d="M341.1,364.3c5.2,5-7.6,8.2-5.4,9.6h3.6c-1.2,1.1-5.6,9.8-8.9,12.6s-17.1,13-18.1,13.5c-3.8,1.8-6.4-1.3-9.7-1s-8.3,5.4-11.9,6.6-13.1,1.5-17.8,3c0-3.5-1.3-10.4-3.6-12.6s-1.7,1.1-1.8,1.1c-1.9-1.4-3.4-3.8-3.6-3.9l4.5-7.7,3.6,3.3,4.5-3.3c-.9,6.9,14.3,2.7,19.1,2.1l1.7,3.7c3.7-1.2,6.2-4.1,9.9-5.9,13-6.1,21.6-12.3,34.2-21.2Z"/>
      <path class="st121" d="M263.7,393.3c.2,0,1.7,2.5,3.6,3.9,5.3,10.2.6,28.9-10.8,30.9l-8.7-7.1-.3-12.2h9s-1.8-3.9-1.8-3.9c3.9-3.1,5.6-6.1,5.4-11.6,1.1.2,2.6-.3,3.6,0Z"/>
      <path class="st49" d="M252.9,393.3c-6.2,2.3-2.6,9,1.8,11.6l1.8,3.8h-9s.3,12.2.3,12.2l8.7,7.1c-12.2,2.1-16-13.4-18-23.2,2.6-2.5,1.9-6.6,3.6-9.6,4.4-7.9,7.7-2.2,10.8-1.9Z"/>
      <path class="st83" d="M260.1,393.3c.2,5.5-1.5,8.5-5.4,11.6-4.4-2.6-8-9.2-1.8-11.6,2.3.2,5.2-.4,7.2,0Z"/>
      <path class="st119" d="M272.7,408.7c.2,9.6-4.6,13.7-9,21.2-10.4,6.4-21.6-3-25.2-13.5-1.4-4.3-2-8.9-1.8-13.5l1.8-2c.2,1.3-.2,2.8,0,3.9,2,9.8,5.8,25.2,18,23.2,11.4-1.9,16.1-20.7,10.8-30.9,0,0,1.1-1.8,1.8-1.1,2.3,2.2,3.5,9.1,3.6,12.6Z"/>
      <path class="st141" d="M348.3,428l-1.8,3.9c-5.5-.5-9.9,6-16.2,3.9l1.8,7.7c-1.7,1.7-16.7.3-20.7,1.7s-2.7,3.7-4,4c-5,1.3-20.9-2.9-27.5,0l3.6-3.8h-4.5c0,0-1.8,3.9-1.8,3.9-5.8-4.2-11.6-.8-13.5-9.7l-2.7,5.8c-6.7-.8-12.1-3.7-18.2-6.5s.3-3.8-7.8-3.1c6.9-8.6,8.9-2.5,15.2-1.8,6.4.7,10-1.7,13.6-2,.6,0,1.4-.1,1.8,0,1.1.4,2.5,3.9,6.3,3.8,3.4,0,6.2-3.9,8.9-3.9s2.1,6.2,7.1,6c1.7-5.5,8.6-7,11.3-10.2.4-.5-1.7-6,3.2-5.3,6.1,14.9,11.6,13.6,20.7,2.9l-3.5-4.8,9.8,3.9,8.2-7.7c1.8,5.2,5.2,10.8,10.8,11.6Z"/>
      <path class="st122" d="M353.7,389.4c6.5,2.5,8.7-1.7,12.6,9.6,4.7,13.5-3.9,31-18,28.9-5.5-.8-9-6.4-10.8-11.6-3.6-10.3-.7-20.7,9-25.1-1.9,6.5-1.1,13,6.3,13.5l-2.7-13.5c.8-.2,2.2-2,3.6-1.9Z"/>
      <path class="st6" d="M366.3,426.1l3.6-1.9v4.8c-5.3,2-5.5,7-5.4,12.6-8.4,6.5-14.3,6.1-20.4,9.8-5.3,3.3-9.7,12.5-15.5,14.4-6.8,2.3-11.8-1.6-18.1-.3-5.1,1.1-10.8,7.1-14.3,8-3.9,1-6.6-2.3-12.2.3-6.8,3.1-8.1,11-5.9,17.9-1.8.1-3.6-.1-5.4,0s-3.6,0-5.4,0c-4-3.2-10.3-8.2-14.5-10.5-9.4-5.1-7.8,0-17.9-10.8.3-15.4,12.7-13,23-8.3,2.4,1.1,2.1,4.5,3.2,4.5,7.2.1,40.5-.7,46.3-1.9,1.3-.3,1.2-3.3,2.7-3.7,20.3-6.7,13-7.3,26.4-17.5,4.4-3.4,11.8-6.4,17.2-9.7,3.5-2.2,9.9-3.8,12.6-7.7Z"/>
      <path class="st108" d="M396.9,416.4c-7,14.7-5.7,18.2-16.3,31.7s-1.1,4.9-2.3,6.4c-3.4,4.1-17.7,9.6-22.2,12.7-1.3.9-1.8,4.2-3.3,5.1-24.3,16-51.4,33.9-80.1,19.3,1.8-.1,3.6.1,5.4,0-2.2-6.9-1-14.7,5.9-17.9,5.6-2.6,8.3.7,12.2-.3,3.5-.9,9.2-7,14.3-8,6.3-1.3,11.3,2.6,18.1.3,5.8-2,10.2-11.1,15.5-14.4,6.1-3.8,12-3.3,20.4-9.8,5-3.9,5.4-7.5,7.3-8.7,3.4-2.1,7.7.7,9.9-6.7l1.8,3.9c4.8-3.6,6.3-14.7,13.5-13.5Z"/>
      <path class="st60" d="M359.1,366.2c4.5,10.9-8.6,10.3-10.5,11.9s-.7,5.5-2.1,7.3-7.7,4-10.8,8.7c-2.3,3.4-3.8,10.5-5.3,11.7s-10.1-1.3-12.3-.5-6.7,10.5-9.4,11.9c-7.4,3.7-25.9,3.3-33.9,6-5.3,1.8-5.4,5.6-9.3,8.5-.4-.1-1.2,0-1.8,0v-1.9c4.4-7.6,9.2-11.6,9-21.2,4.7-1.5,13.6-1.6,17.8-3s8.3-6.3,11.9-6.6,6,2.8,9.7,1c1-.5,16.1-11.8,18.1-13.5,3.4-2.8,7.7-11.5,8.9-12.6,6.7-6.1,10.1-2.5,16.7-3.9s2.2-3.1,3.1-3.8Z"/>
      <path class="st19" d="M353.7,389.4c-1.4,0-2.8,1.7-3.6,1.9s-2.8-.4-3.6,0c-9.7,4.4-12.6,14.8-9,25.1l-8.2,7.7-9.8-3.9,3.5,4.8c-9.1,10.7-14.5,12-20.7-2.9-4.9-.7-2.8,4.8-3.2,5.3-2.7,3.2-9.5,4.7-11.3,10.2-5,.2-6.6-6-7.1-6-2.8,0-5.5,3.8-8.9,3.9-3.8,0-5.2-3.4-6.3-3.8,3.9-2.9,4-6.6,9.3-8.5,8-2.7,26.5-2.3,33.9-6,2.7-1.4,8.2-11.4,9.4-11.9,2.2-.9,10.4,1.9,12.3.5s3-8.3,5.3-11.7c3.2-4.7,9.4-6.8,10.8-8.7,3.4-.9,5.8,3.3,7.2,3.9Z"/>
      <path class="st34" d="M350.1,391.3l2.7,13.5c-7.4-.5-8.2-7-6.3-13.5.8-.4,2.6.3,3.6,0Z"/>
    </g>
  </g>
  <g>
    <g>
      <path class="st15" d="M284.9,450.6c0,0,.5,1.3,1,2,1,1.4,1.3,3.5,3,4.6,1.8.9,3.3-.3,5-.6l15,4c-7.7,2.4-9.3-1.3-12.4-1s-6.5,5.2-12.2-1.3c-1.7-2-5.2-8.7.6-7.6Z"/>
      <path class="st73" d="M324.9,453.4c.4.2,1.3-.3,1.9,0,1.4,1.8-2.3,7.8-3.9,8.9s-2.4.8-3,1l-15-4c6.7-1.2,4.8.3,9.6,1s6-4.1,10.4-7Z"/>
    </g>
    <path class="st73" d="M293.1,420.7c12.8-4.7,18.9-.9,23.6,3.7"/>
  </g>
  <path class="st98" d="M266.6,260.6"/>
</svg>