<?xml version="1.0" encoding="UTF-8"?>
<svg id="Layer_1" xmlns="http://www.w3.org/2000/svg" version="1.1" viewBox="0 0 595.3 841.9">
  <!-- Generator: Adobe Illustrator 29.1.0, SVG Export Plug-In . SVG Version: 2.1.0 Build 142)  -->
  <defs>
    <style>
      .st0 {
        fill: #97cb5e;
      }

      .st1 {
        fill: #bb856f;
      }

      .st2, .st3 {
        fill: none;
        stroke: #231f20;
        stroke-miterlimit: 10;
      }

      .st4 {
        fill: #34b05d;
      }

      .st5 {
        fill: #2a120f;
      }

      .st6 {
        fill: #19a576;
      }

      .st7 {
        fill: #79c258;
      }

      .st8 {
        fill: #faefc5;
      }

      .st9 {
        fill: #f6edb0;
      }

      .st10 {
        fill: #a7d058;
      }

      .st11 {
        fill: #9fafb8;
      }

      .st12 {
        fill: #46a0a8;
      }

      .st13 {
        fill: #7dc469;
      }

      .st14 {
        fill: #6bc06d;
      }

      .st15 {
        fill: #8dc862;
      }

      .st16 {
        fill: #5fc092;
      }

      .st17 {
        fill: #64bd55;
      }

      .st18 {
        fill: #07a78a;
      }

      .st19 {
        fill: #019a84;
      }

      .st20 {
        fill: #93d1b3;
      }

      .st21 {
        fill: #6bc073;
      }

      .st22 {
        fill: #d8da6a;
      }

      .st23 {
        fill: #af305a;
      }

      .st24 {
        fill: #675542;
      }

      .st25 {
        fill: #6cc289;
      }

      .st26 {
        fill: #b58fa9;
      }

      .st27 {
        fill: #20a57b;
      }

      .st28 {
        fill: #5abcd0;
      }

      .st29 {
        fill: #eedda3;
      }

      .st30 {
        fill: #c0bbb0;
      }

      .st31 {
        fill: #96cb6a;
      }

      .st32 {
        fill: #977a94;
      }

      .st33 {
        fill: #f4e1b9;
      }

      .st34 {
        fill: #5e1634;
      }

      .st35 {
        fill: #b5b297;
      }

      .st36 {
        fill: #769594;
      }

      .st37 {
        fill: #221021;
      }

      .st38 {
        fill: #f9f5c9;
      }

      .st39 {
        fill: #fbf8e3;
      }

      .st40 {
        fill: #66ba96;
      }

      .st41 {
        fill: #0e121e;
      }

      .st42 {
        fill: #1e876e;
      }

      .st43 {
        fill: #231f5b;
      }

      .st44 {
        fill: #a6d490;
      }

      .st45 {
        fill: #091b3e;
      }

      .st46 {
        fill: #d2c498;
      }

      .st47 {
        fill: #a6718e;
      }

      .st48 {
        fill: #1b1520;
      }

      .st49 {
        fill: #f9e3c5;
      }

      .st50 {
        fill: #a496a2;
      }

      .st51 {
        fill: #5dc099;
      }

      .st52 {
        fill: #b2d7e4;
      }

      .st53 {
        fill: #6b5932;
      }

      .st54 {
        fill: #5dbd70;
      }

      .st55 {
        fill: #796541;
      }

      .st56 {
        fill: #2e291b;
      }

      .st57 {
        fill: #c8c5ba;
      }

      .st58 {
        fill: #2fb77d;
      }

      .st59 {
        fill: #4a141f;
      }

      .st60 {
        fill: #8e9993;
      }

      .st61 {
        fill: #3b1337;
      }

      .st62 {
        fill: #2a2448;
      }

      .st63 {
        fill: #4c2a2e;
      }

      .st64 {
        fill: #202113;
      }

      .st65 {
        fill: #875235;
      }

      .st66 {
        fill: #142118;
      }

      .st67 {
        fill: #c7dbae;
      }

      .st68 {
        fill: #e2c9b1;
      }

      .st69 {
        fill: #4dba77;
      }

      .st70 {
        fill: #add25a;
      }

      .st71 {
        fill: #693828;
      }

      .st72 {
        fill: #26b473;
      }

      .st73 {
        fill: #633c60;
      }

      .st74 {
        fill: #6e2e5f;
      }

      .st75 {
        fill: #87214a;
      }

      .st76 {
        fill: #182922;
      }

      .st77 {
        fill: #63391d;
      }

      .st78 {
        fill: #01928f;
      }

      .st79 {
        fill: #73c15d;
      }

      .st80 {
        fill: #1b9e60;
      }

      .st81 {
        fill: #101340;
      }

      .st82 {
        fill: #e9e5a5;
      }

      .st83 {
        fill: #eeddba;
      }

      .st84 {
        fill: #31a949;
      }

      .st85 {
        fill: #e3c069;
      }

      .st86 {
        fill: #a8cf47;
      }

      .st87 {
        fill: #0b1624;
      }

      .st88 {
        fill: #56ba5b;
      }

      .st89 {
        fill: #b2af82;
      }

      .st90 {
        fill: #ebec8f;
      }

      .st91 {
        fill: #32907a;
      }

      .st92 {
        fill: #a1b6c2;
      }

      .st93 {
        fill: #674720;
      }

      .st94 {
        fill: #7a401b;
      }

      .st3 {
        stroke-width: 3px;
      }

      .st95 {
        fill: #3db771;
      }

      .st96 {
        fill: #dcdd66;
      }

      .st97 {
        fill: #fbf4c5;
      }

      .st98 {
        fill: #99cc68;
      }

      .st99 {
        fill: #27a3ae;
      }

      .st100 {
        fill: #159988;
      }

      .st101 {
        fill: #0a6e64;
      }
    </style>
  </defs>
  <g>
    <path class="st75" d="M204.6,640.8v11c8.1-1,18.9,1.7,26.4,0,2.4-.6,3.7-5.3,5-5.4,2.3-.3,10.6,4.9,14.2,5.5l-8.5,5.5c-5.7.1-11.4-.2-17.1,0h-37.1s0-8.3,0-8.3c4.6-2.1,13.4-6,17.1-8.3Z"/>
    <path class="st1" d="M364.2,657.4h59.8c-.5,0-2.8,2.6-6.8,2.9-17,1.3-35.8-1.2-53-.1-10.4-1.2-23.3.3-34.2,0-23.2-.6-46.6.3-69.9,0-4.8,0-12.7,1.8-15.6-2.8,39.8-.8,79.9,0,119.7,0Z"/>
    <path class="st59" d="M270.2,651.9c28.2,2.2,44.3.9,71.2,0,4.7-.2,13.8,4.7,22.8,2.8v2.8c-39.8,0-79.9-.8-119.7,0-.9,0-1.9,0-2.8,0l8.5-5.5c7.7,1.3,15-.4,19.9,0Z"/>
    <path class="st93" d="M173.3,375.4c-.1.8-2.5,3-3,6.7-.9,7.6,3.1,41-2.7,46.4-.6-6.1-5-40.3-5.7-47.5,1.1-4.9,3.9-14.9,5.7-19.4,2.8-6.8,7.6-13.1,11.4-19.4-1.2,11.2-3.8,22.1-5.7,33.2Z"/>
    <path class="st37" d="M244.5,635.3c5.9,13.1,23.5,16.5,25.6,0,9.2-.6,14.4,5.9,22.8,8.3,9.8,2.8,18-3.8,25.6,2.8-4.6,0-22.8,4.7-25.9,4.3-4.8-.6-8.9-4.5-13.1-6.6l-9.4,7.9c-4.9-.4-12.3,1.3-19.9,0-3.7-.6-12-5.8-14.2-5.5-.6-2.8-1.1-5.9-2.8-8.3l2.8-5.5c2.2.7,8,2.7,8.5,2.8Z"/>
    <path class="st23" d="M216,629.7c3.6,7,8.5,15.9,14.2,5.5,1.9,1.2,1.6,1,2.8,2.8,1.7,2.4,2.2,5.5,2.8,8.3-1.3.1-2.6,4.9-5,5.4-7.5,1.7-18.3-.9-26.4,0v-11c4.1-2.6,9-6.8,11.4-11.1Z"/>
    <path class="st34" d="M372.8,646.3c10,7.1,30.8,7.1,44.3,8.3,5.4.4,11.5,2.5,9.8-5.5,1.6.5,8.1,2.9,8.5,2.8v2.8c-3.9.7-7.8,2.3-11.4,2.8h-59.8v-2.8c1.5-.3,6.8-6.5,8.5-8.3Z"/>
    <path class="st61" d="M355.7,627c-3.6,7-3.2,12-11.5,15.4l7.3,9.6c7.1,0,21-18.8,24.2-25,.2.6,5.2,10.7,5.7,11.1-3.5,2.2-5.8,5.5-8.5,8.3-1.7,1.8-7,8-8.5,8.3-9,1.9-18.1-2.9-22.8-2.8-8.8-4-12.9-5.6-22.8-5.5-7.6-6.6-15.9,0-25.6-2.8,15.9-6.7,30.5,2,45.6-8.3,4.9-3.4,6.5-5.7,8.5-11.1l5.7-24.9,2.9,27.6Z"/>
    <path class="st74" d="M318.6,646.3c9.9,0,14,1.5,22.8,5.5-26.9.9-43.1,2.2-71.2,0l9.4-7.9c4.2,2.1,8.3,6,13.1,6.6,3.1.4,21.3-4.3,25.9-4.3Z"/>
    <path class="st9" d="M261.6,132.1c21.9,8.5,36,19.1,48.4,38.7-.6,1.2,1.4,5.9-.5,7.8-1.3,1.4-4.8.1-5.2.5-1-2.9-3.1-4.1-5.7-5.5s-2.2-2.5-2.8-2.8l-9.9-16.7c-18.6-17.2-39.6-13.1-61.4-16.5-1.7-.3-6.2-4.6-8.5-5.5,20.8-4.2,24.7-4.1,45.6,0Z"/>
    <path class="st56" d="M409.8,129.4c7.1,1.3,11.9,5.1,14.2,5.5,7,22.8-14.8,60.9-35,72.5-10.2,5.8-20.4,5.9-30.5,10.5-7-1.4-16.6-4.8-22.8-5.5v-2.8c.5.2,10.8,2.8,11.4,2.8,38.1,5.1,67.2-26.5,72.9-60.7,1.3-7.9,4-12.3-4.5-16.7-4.3-2.3-12-2.4-17.1-2.8l11.4-2.8Z"/>
    <path class="st49" d="M281.6,134.9c-5.2-5.9-1.6-7.4,4.2-5.6s22.1,21.3,25.7,24.9c8-1.6,27.2-32.8,41.4-22.1-12.6,3.7-24.6,8.4-28.5,22.1-.2.8.2,1.9,0,2.8-3.1,2-4.3,5.1-5.7,8.3h-2.8c-14-6.1-18.9-24.1-34.2-30.4Z"/>
    <path class="st85" d="M224.6,137.6c-7.6,6.9.8,17.7,2.8,24.9s-.4,5.8.6,9c2.1,6.7,10,13.3,5.1,18.7h-2.8c-7.8-18.8-19.8-36.6-17.1-58.1.7-.3,1.9.2,2.8,0,2.4,1,6.9,5.3,8.5,5.5Z"/>
    <path class="st71" d="M409.8,129.4l-11.4,2.8c-16.3-1.1-36.3-.8-51.3,5.5s-14.4,10.8-22.8,16.6c3.9-13.7,15.9-18.4,28.5-22.1,21.6-6.3,35.5-6.7,57-2.8Z"/>
    <path class="st77" d="M213.2,132.1c-2.7,21.5,9.3,39.3,17.1,58.1v2.8c-13.8-16.7-24.4-38.4-22.8-60.8,1.8-.3,4.5.5,5.7,0Z"/>
    <path class="st65" d="M281.6,134.9c15.3,6.3,20.2,24.4,34.2,30.4-1.7,1.8-4.6,3.4-5.7,5.5-12.4-19.6-26.6-30.2-48.4-38.7,6.1,1.2,12.8-.1,19.9,2.8Z"/>
    <path class="st76" d="M310.1,259.3c-2.6,8.3-11.5,4.4-17.1,5.5v-2.8c2.8-1.1,6.5.7,8.1-4.6-.6-7.1,8.7-44.3-1-45.1-.4,0-4.1,2.2-7.1,2.7-4.7,0-9.5,0-14.2,0v-5.5c6.5-.1,13.1.7,19.6-.4,5.5-7.2.7-25,6.1-30,.4-.4,3.9.9,5.2-.5,1.9-1.9-.1-6.6.5-7.8,1.1-2.1,4-3.7,5.7-5.5h2.8c-10.2,24.1-12.6,68.3-8.5,94Z"/>
    <path class="st97" d="M201.8,314.6c-1.5,2.7-7.2,14.7-5.7,16.6,4.1-2.3,7.5-5.6,11.4-8.3-7,13.7-16.5,25.8-23.4,39.6-2,3.9-1.3,8.2-2.2,10.2s-2.2,1.2-2.8,2.8c-1.3,3.1-3.5,11.1-4.3,11.1l-1.4-11.1c1.9-11.1,4.5-22,5.7-33.2,2.1-3.4,3.5-8.1,5.7-11.1,3.1-4.2,12.6-12.6,17.1-16.6Z"/>
    <path class="st94" d="M293,262.1v2.8c-5,1-13.1,2.7-17.1,5.5-22.1,1.8-64.4,26.2-74.1,44.2-4.5,4-28.2,37-31.3,41.2.7-6.4,24.3-43.5,28.6-48,29.5-31.4,52.3-33.7,91.1-45.7.9-.3,2.1.3,2.8,0Z"/>
    <path class="st83" d="M293,262.1c-.8.3-1.9-.3-2.8,0,15.4-7.6,2.2-24.4,5.6-38.6-3.5-3.4-23.3,2.7-25.5-5.6,8.8,2.4,16.5-1.8,22.8-2.8s6.8-2.7,7.1-2.7c9.6.8.4,38,1,45.1-1.6,5.2-5.3,3.4-8.1,4.6Z"/>
    <path class="st64" d="M267.3,209.5c2.8.3,5.7,0,8.5,0s1.9,0,2.8,0v5.5c-25.8-.2-32.5-2.7-48.4-22.1v-2.8h2.8c8.5,13.4,18.6,17.7,34.2,19.4Z"/>
    <path class="st66" d="M176.1,425.2c.4.8,2.2,1.5,2.8,2.8,2.1,3.9,1.6,10.1,2.8,13.8,10.3,30.3,28.7,47.6,57,63.6,15.8,8.9,26.5,14.6,45.6,16.6,1.3,2.4,3,5.6,2.8,8.3-.3,8.6-6.8,18.3-5.7,24.9-3.1.4-6.6,3.1-8.5,5.5-1,.2-2.2-.3-2.8,0v-2.8c1.9-2.2,4.4-5.8,5.7-8.3.6-1.1-.6-4.1,0-5.5,1.7-4.4,9.8-9.9,4.5-16.8-1.1-1.5-26.7-6.9-33-9.5-29.9-12.3-62.7-43.9-74.1-73.3-6-15.4-4-20.8-5.7-33.2,1.3,6,7,11.1,8.5,13.8Z"/>
    <path class="st53" d="M275.9,549.6c-17.4,3.1-59.6,31.1-62.7,47h-2.8c7.3-27.7,41.7-40.5,65.5-52.5-.6,1.5.6,4.4,0,5.5Z"/>
    <path class="st63" d="M224.6,624.2c.8.3,2-.2,2.8,0l-2.8,11c1.7.4,4.9-.5,5.7,0-5.8,10.3-10.7,1.4-14.2-5.5-6.1-12-9.1-20.3-5.7-33.2h2.8c-1.6,8,3.1,24,11.4,27.6Z"/>
    <path class="st67" d="M173.3,375.4l1.4,11.1c.7,0,2.9-8,4.3-11.1-.4,3.5.6,7.7,0,11.1-2.1,12.6-2.8,20-2.8,33.2,0,1.8,0,3.7,0,5.5-1.5-2.7-7.2-7.8-8.5-13.8-.2-1.8.2-3.7,0-5.5,5.9-5.3,1.8-16.1,2.7-23.7.4-3.6,2.8-5.9,3-6.7Z"/>
    <path class="st46" d="M273,560.6c2.6-.4,5.8.2,8.5,0,1.4,1.4-7.7,34.3-9.5,39.2-1.5,4-4.1,12.2-10.5,10.5l-11.3-2.7-3,27.6c-.9-.2-1.9.2-2.8,0s-6.3-2.1-8.5-2.8c-1.5-.4-3.9.4-5.7,0,.2-2.7-.4-5.6,0-8.3,1.5-10.5-.4-11.7-.2-20.7.3-13.4,18.5-22.5,28.7-30.4,3.4-2.6,10.6-12.1,11.4-12.5s1.8.2,2.8,0Z"/>
    <path class="st32" d="M278.7,613.2l22.8-2.7c-4.5,9.1-23.9,1.2-10.2,16.7,10.1,11.5,21.5,12.4,35.8,8.1,1.2-4.5-5.5-2-5.7-5.5l11.4-2.8c-2.2,5.8-4.2,7,5.7,8.3-15.1,10.3-29.7,1.6-45.6,8.3-8.4-2.4-13.5-8.9-22.8-8.3.1-.8.1-1.9,0-2.8-.2-1.4-2.1-3.8-2.8-5.5h5.7s0-16.6,0-16.6c.5-.8,5.2,2.9,5.7,2.8Z"/>
    <path class="st26" d="M270.2,632.5c.1.8.1,1.9,0,2.8-2.2,16.5-19.8,13.1-25.6,0,.9.2,1.9-.2,2.8,0,9.7,1.7,12.8-1.4,22.8-2.8Z"/>
    <path class="st68" d="M230.3,624.2c-.4,2.6.2,5.6,0,8.3,1.8.4,4.2-.4,5.7,0l-2.8,5.5c-1.3-1.8-1-1.5-2.8-2.8-.8-.5-4,.4-5.7,0l2.8-11h2.8Z"/>
    <path class="st73" d="M381.3,638c.8.5,4.7-.9,6.3.2,5.1,3.5,5,9.6,16.6,4l2.7-4.2c6.5,2.9,12.4,8.5,19.9,11.1,1.6,8-4.5,5.9-9.8,5.5-13.5-1.1-34.3-1.1-44.3-8.3,2.8-2.8,5.1-6.1,8.5-8.3Z"/>
    <path class="st36" d="M372.8,577.2l-5.9,4.4c4.1,6,6.1,11.2,8.7,17.7-1,.8-1.8,1.9-2.8,2.8-8.6,7.1-5.6,11.4-5.7,22.1l-8.5-5.5c.5,3.3-1.5,5.6-2.9,8.3l-2.9-27.6-5.7,24.9c-2.1-6.4,5.5-26.9-5.7-24.9.7,10.2-5.2,18.7-8.6,27.7l-11.4,2.8c-.1-2.4,4.3-4.5,5.1-7.5,3.1-12-4.3-17.9-7.9-28.4,18.7-13.3,17.6-15.3,44.1-10.9l1.6-8.5c2.9.9,5.3,2.4,8.5,2.8Z"/>
    <path class="st11" d="M375.6,627c-3.2,6.2-17.1,24.9-24.2,25l-7.3-9.6c8.3-3.4,7.9-8.4,11.5-15.4,1.4-2.7,3.3-5,2.9-8.3l8.5,5.5c0-10.7-2.9-15,5.7-22.1-.4,8.4-.2,16.9,2.8,24.9Z"/>
    <path class="st62" d="M407,638l-2.7,4.2c-11.6,5.7-11.6-.5-16.6-4s-5.5.3-6.3-.2-5.5-10.5-5.7-11.1c-3-8-3.3-16.5-2.8-24.9,1-.8,1.8-1.9,2.8-2.8,4,9.9,12.4,34.4,22,38.2,3.1,1.2,7.9-.1,9.3.5Z"/>
    <path class="st50" d="M332.9,627c3.4-9,9.3-17.5,8.6-27.7,11.2-2,3.6,18.5,5.7,24.9-2.1,5.4-3.6,7.7-8.5,11.1-9.9-1.3-7.9-2.5-5.7-8.3Z"/>
    <path class="st33" d="M335.7,212.3c6.2.8,15.8,4.1,22.8,5.5,3.1.6,9.2-2.2,8.5,2.7-13.5,3.3-21.5,1.5-34.2-2.7v38.7c5,0,9.9-.6,14.9.8,10.7,3,44.1,16.2,53.5,21.3,13.9,7.7,14.5,13.8,22.8,23.5,6.7,7.9,24.4,19.3,17.1,31.8-15.8-27.7-36.7-48-66.5-61.3-15.4-6.9-31.2-9.2-46.1-16.1l-1.4-44.3c2.8.2,5.8-.3,8.5,0Z"/>
    <path class="st86" d="M295.8,170.8c-5-2.1-14.4-4.5-22.8-8.3-9.1-4.1-17.8-10.9-28.5-11,1.3,6.3,14.6,6.4,17.3,10.1s2.7,10.4,2.6,14.8c-11.7-2.9-18.9-7.7-31.3-11-1.3-.3-3.4-2.9-5.7-2.8-2-7.2-10.5-18-2.8-24.9,21.7,3.4,42.8-.7,61.4,16.5l9.9,16.7Z"/>
    <path class="st72" d="M304.4,179.1c-5.4,5-.6,22.8-6.1,30-6.4,1.1-13.1.3-19.6.4s-1.9,0-2.8,0c-4.7-10.2-7.5-13.3-8.5-24.9,5,.3,8.7,3.1,11.5,6.8s1.3,11.9,6.9,9.7c7.4-2.9.6-11,1.7-14.8,1.4-4.7,12.5-5.1,11.1-12.8,2.6,1.4,4.7,2.6,5.7,5.5Z"/>
    <path class="st80" d="M273,162.5c8.4,3.8,17.8,6.2,22.8,8.3.7.3,1.6,2.1,2.8,2.8,1.3,7.7-9.8,8.1-11.1,12.8-1.1,3.8,5.7,11.8-1.7,14.8-5.6,2.2-4.3-6.2-6.9-9.7s-6.5-6.5-11.5-6.8c-.1-1.1-2.8-2.5-1.4-5.5,3-6.4,10.9-4,1.4-16.6h5.7Z"/>
    <path class="st5" d="M341.4,173.6c-3.4,4.2-3.7,7.1-5.7,11.1-4.7,9.2-15.2,18.1,0,24.9v2.8c-2.8-.3-5.8.2-8.5,0l1.4,44.3c14.9,6.9,30.7,9.2,46.1,16.1,29.8,13.2,50.7,33.6,66.5,61.3,8,14,11.7,26.7,17.1,41.5-.7,17,4.1,38.1-5.7,52.5.4-3.6,0-7.4,0-11.1.4-13.8-.9-22.7-2.8-35.9-2.3-15.9-2.3-28.4-14.2-41.5-2.3-10.4-10.7-17.1-17.1-24.9-17.8-21.8-24.5-27.5-51.3-38.7-15.9-6.7-28.4-10.7-45.6-13.8.9-19.7-3-38.3-2.8-58.1,2.9-11,10-20.4,14.2-30.4h8.5Z"/>
    <path class="st4" d="M335.7,184.6c-1.5,5.8,2.1,6.1,7.2,7.5,2.8-.4,5.9-6.1,9.9-7.5l-.3,10.7-16.8,8.6c10.7,1.7,14.1,2.8,22.1-4.8l32-6.2c-11.6,10.4-26.4,19.3-42.7,19.4-.6,0-10.9-2.5-11.4-2.8-15.2-6.8-4.7-15.7,0-24.9Z"/>
    <path class="st20" d="M347.1,212.3c16.3,0,31.1-9,42.7-19.4,1.7-1.5,10.9-10.4,11.4-11.1,6.5-9.1,18.5-32.1,11.4-41.5v-2.8c1.3-.1,2.5-1.5,2.8-2.8,8.5,4.4,5.8,8.9,4.5,16.7-5.7,34.2-34.8,65.7-72.9,60.7Z"/>
    <path class="st8" d="M398.4,132.1c5.1.3,12.8.5,17.1,2.8-.3,1.3-1.5,2.6-2.8,2.8-3.6.4-7.7,0-11.4,0-14.8.2-31.3-1.4-45.6,2.8l-8.5-2.8c15-6.4,35-6.6,51.3-5.5Z"/>
    <path class="st44" d="M324.3,162.5c-.2.9.2,1.9,0,2.8-3.2,15.6-5.5,21.3-5.7,38.7-.2,19.8,3.7,38.3,2.8,58.1l-3,5.3-5.5.2c1.4-3.4-2.7-7-2.9-8.3-4.1-25.7-1.7-69.9,8.5-94,1.4-3.2,2.6-6.3,5.7-8.3-.4,1.7.4,3.9,0,5.5Z"/>
    <path class="st90" d="M355.7,140.4c-13,3.8-20.9,14.6-31.3,22.1.4-1.6-.4-3.9,0-5.5s-.2-1.9,0-2.8c8.4-5.8,12.8-12.3,22.8-16.6l8.5,2.8Z"/>
    <path class="st98" d="M233.1,165.3c-4.8,1.2,1.6,11.3,2.8,12.5,9.6,10,27.3,15.7,31.4,31.7-15.6-1.6-25.7-6-34.2-19.4,5-5.4-3-12-5.1-18.7-1-3.2,0-6.8-.6-9,2.3-.1,4.4,2.4,5.7,2.8Z"/>
    <path class="st38" d="M310.1,259.3c.2,1.3,4.3,4.9,2.9,8.3l5.5-.2,3-5.3c17.2,3.1,29.7,7.2,45.6,13.8l-5.7,5.5c-2.8-.7-7.9.2-11.4,0l-31.3-8.3,2.8,13.8-5.7-8.2c-.9-.7-19.9,2-22.7,2.7l19.9-11c-12.1.6-25-1-37,0,4-2.9,12.1-4.5,17.1-5.5,5.6-1.1,14.5,2.8,17.1-5.5Z"/>
    <path class="st13" d="M184.7,372.6c55-16.2,105.2-21,154.8-48.8,4.9-2.8,11.1-.7,17.7-6.4,6.3-5.3,9.9-21.9,11.6-22.4,12.6-3.5,11.7,8.6,23.9,5.7,2.7,1.9,4.6,4.8,5.7,5.5-18.2-2.3-10.8,6.6-13.2,11.1-5.9,11-15.2,21-26.9,26-8.5,3.6-24.1,4.5-31.7,7.4-3.8,1.5-6.6,9.7-12,11.3-10.8,3.2-27.6,5.1-39.4,8.5l-22.1,7.6c-9.4-5.5-15.9-4.9-25.6-2.8-8.4,1.9-15.6,7.1-21.5,8.2-8.6,1.5-18.6-2.3-26.9,2.9.6-3.4-.4-7.5,0-11.1.7-1.6,2.7-2.3,2.8-2.8h2.8Z"/>
    <path class="st10" d="M350,281.4c3.5.2,8.6-.7,11.4,0s14,8.9,17.1,11.1c-3.4-1.1-18.4-4.9-21.6-5.4-5.1-.7-13.1-.7-18.3-.2-7.2.7-24.2,15.9-30.3,19-38,18.9-95.4,12.8-117.9,55.7-1.9,3.7-3.8,7.4-5.7,11.1h-2.8c.9-2,.2-6.2,2.2-10.2,7-13.8,16.4-25.9,23.4-39.6,2.8-1.9,5.8-3.6,8.5-5.5,1.4,5.6,8.3-.5,10.9-1.8,12.2-6.1,13.1-5.4,26.1-6.5s15.4-.8,28.5-11.1,7.7-10.3,12.8-13.8c3.1,9.5,23,8.8,30.8,4.9,4.1-2.1,4.2-7.1,6.8-7.7,3.8-1,13.2-.2,17.9,0Z"/>
    <path class="st39" d="M275.9,270.3c12-1,24.9.7,37,0l-19.9,11c-3.3.8-17.1,4.3-17,6.9l5.6,9.7c-13.1,10.2-14,9.9-28.5,11.1-4.6-20.1,11-3.7,14.2-12.5,5.5-15.1-19.6-.2-23.6,2-9.8,5.3-18.6,12.5-27.6,18.8-2.8,1.9-5.8,3.6-8.5,5.5s-7.3,6-11.4,8.3c-1.6-1.9,4.2-13.8,5.7-16.6,9.7-18.1,52-42.5,74.1-44.2Z"/>
    <path class="st79" d="M273,162.5h-5.7c9.6,12.5,1.6,10.1-1.4,16.6s1.3,4.4,1.4,5.5c1,11.5,3.9,14.7,8.5,24.9-2.8,0-5.8.3-8.5,0-4.1-16-21.8-21.7-31.4-31.7-1.2-1.3-7.6-11.4-2.8-12.5,12.4,3.3,19.6,8.1,31.3,11,0-4.4,0-11.2-2.6-14.8s-16-3.8-17.3-10.1c10.7.1,19.3,6.9,28.5,11Z"/>
    <path class="st58" d="M179,411.3c10.5-8.4,18.1,12.6,24.6,13.6,3.6.5,11-10.7,21.2,4.4,3.4,5-5.8,11.4,15.3,4l3,5.7,8.5-7.6c1.9,3.6,24.7,2.4,28,1.7,4.6-1,7.7-9.1,12.5-10.2s16.6,4.7,23.7,2.3l-2.8-5.4c9.4-5.1,25.5-2.1,31.3-11.1,2,10.8,16.5,22.5,28.5,19.4-2.4,1.4-2.8,3.5-7.7,4.9-17.6,4.9-57.4,15-74.3,16.5-14.7,1.3-36.8,3.8-41.8-4.6-2.1.9-5.2,2.7-7.3,2.6-11.6-.7-29.7-4.3-39.6-9.9-6-3.3-17.7-22.2-23.1-9.4-.7-1.2-2.4-2-2.8-2.8,0-1.8,0-3.7,0-5.5,4-1.3,2.4-5.5,2.8-8.3Z"/>
    <path class="st6" d="M241.7,447.3c-2.4,7-12.3,5.4-17.2,9.7s-1.9,5.6-2.8,6.9c-2.2,3.5-7.4,5.9-5.5,12,6.9,7.6,20.8,11.2,19.7,23.9-8.4-5.2-15.4-14-24.3-19.2l-29.8-38.8c-1.3-3.7-.8-9.9-2.8-13.8,5.4-12.7,17.1,6.1,23.1,9.4,9.9,5.6,28.1,9.2,39.6,9.9Z"/>
    <path class="st35" d="M293,568.9c6.6,8.6,14.5,15.8,19.9,24.9-3.3,2.1-2.7,7.7-7.6,10.6-1.2.7-24.7,8.2-26.6,8.7-.5.1-5.2-3.6-5.7-2.8v16.6s-5.7,0-5.7,0c-2.1-5.3-10.8-15.5-5.7-16.6,6.3,1.7,9-6.5,10.5-10.5,1.8-4.9,10.9-37.8,9.5-39.2-2.8.2-5.9-.4-8.5,0,1.9-2.4,5.5-5.1,8.5-5.5.8,4.8,8.8,10.5,11.4,13.8Z"/>
    <path class="st101" d="M344.3,538.5c.6,6.5,1.6,15.1-4.3,19.3l-25.9-11c-8.3-.9-14.2,7.3-21.8,9.2-4.9,1.2-8.6-1.2-10.8-.9-1.1-6.6,5.4-16.3,5.7-24.9,19.8.4,35.1,7.3,54.1-2.8-1.2,3.9,2.6,8.6,2.8,11.1Z"/>
    <path class="st29" d="M275.9,549.6c-1.3,2.5-3.8,6.1-5.7,8.3-8.3,9.5-40.8,26.1-44.1,33.2-4.1,8.7-.2,23.4-1.5,33.1-8.3-3.6-13-19.6-11.4-27.6,3.1-15.9,45.3-43.9,62.7-47Z"/>
    <path class="st45" d="M350,519.2v11.1c-.3-.4-7.4.7-5.8-5.5-2.5-.7-2.4,2.5-2.8,2.7-19.1,10.1-34.3,3.2-54.1,2.8.1-2.7-1.6-5.9-2.8-8.3,1.9.2,3.8-.1,5.7,0,15.2,1,45.5.7,59.8-2.8Z"/>
    <path class="st55" d="M270.2,560.6c-.8.4-8,9.9-11.4,12.5-10.2,7.9-28.5,17-28.7,30.4-.2,9,1.7,10.2.2,20.7h-2.8c-.9-.2-2.1.3-2.8,0,1.3-9.7-2.6-24.4,1.5-33.1,3.3-7.1,35.9-23.7,44.1-33.2v2.8Z"/>
    <path class="st40" d="M181.8,441.7l29.8,38.8c8.9,5.2,15.9,14.1,24.3,19.2,1.8,1.1,3.8,1.8,5.7,2.8l-2.8,2.8c-28.3-16-46.7-33.2-57-63.6Z"/>
    <path class="st12" d="M264.5,510.9c.9.2,2-.2,2.8,0,4.7,1.1,15.9,5.2,19.9,5.5h-5.7s0,2.7,0,2.7l8.5,2.8c-1.9-.1-3.8.2-5.7,0-19.1-1.9-29.8-7.7-45.6-16.6l2.8-2.8c7.9,4.1,14.3,6.1,22.8,8.3Z"/>
    <path class="st21" d="M227.4,375.4c-6.9,8.1-10.1,11.3-11.4,22.1s-.1,3.8,0,5.5c-13.3,7.3-20.7-6.6-34-5.4-1.8,4.4-2.2,9.1-3,13.7s1.1,7-2.8,8.3c0-13.2.7-20.6,2.8-33.2,8.3-5.2,18.3-1.4,26.9-2.9,5.9-1,13.1-6.3,21.5-8.2Z"/>
    <path class="st47" d="M261.6,610.4c-5.1,1,3.6,11.3,5.7,16.6.7,1.8,2.7,4.1,2.8,5.5-10,1.4-13.1,4.4-22.8,2.8l3-27.6,11.3,2.7Z"/>
    <path class="st50" d="M318.6,593.8c3.7,10.5,11.1,16.4,7.9,28.4-.8,3.1-5.2,5.1-5.1,7.5.2,3.5,6.9,1,5.7,5.5-14.3,4.4-25.6,3.4-35.8-8.1-13.7-15.5,5.7-7.6,10.2-16.7l-22.8,2.7c1.9-.5,25.4-8,26.6-8.7,4.8-2.9,4.2-8.6,7.6-10.6,1-.6,4.8.7,5.7,0Z"/>
    <path class="st60" d="M392.7,582.7c-.8,7.4,4.7,11.4,5.1,15.7.3,3.4-14.2,32.4,6.3,23,.5,5.6-.8,11.3,2.8,16.6-1.4-.6-6.2.7-9.3-.5-9.6-3.8-18-28.3-22-38.2-2.6-6.5-4.6-11.7-8.7-17.7l5.9-4.4c.9.1,1.9-.2,2.8,0,6.1,1.1,11.7-.4,17.1,5.5Z"/>
    <path class="st24" d="M407,591c1.3,6.4,1.3,22.7-2.8,27.6-1.2-12.1-2.5-28.8-8.5-38.7-6.3-10.3-24.7-27.7-37-30.4-2.8-4.6-3.7-7.4-5.7-11.1,17.7,9.6,50.2,32.4,54.1,52.5Z"/>
    <path class="st30" d="M404.1,618.7c0,.9,0,1.9,0,2.8-20.5,9.4-6-19.7-6.3-23-.4-4.3-5.9-8.2-5.1-15.7.2-1.4,1.3-2.6,2.8-2.8,6.1,9.9,7.4,26.6,8.5,38.7Z"/>
    <path class="st91" d="M341.4,527.5c.4-.2.3-3.4,2.8-2.7-1.6,6.2,5.5,5.1,5.8,5.5,2.1,2.9,1.8,6.4,2.8,8.3,2,3.6,2.9,6.4,5.7,11.1,5.7,9.3,13.5,17,17.1,27.6-.9-.2-1.9.1-2.8,0-3.2-.4-5.6-1.9-8.5-2.8l-1.6,8.5c-26.5-4.4-25.4-2.4-44.1,10.9-.9.7-4.7-.6-5.7,0-5.5-9.1-13.3-16.3-19.9-24.9l57,5.5c2.5-14.4,5.4-24.1-5.7-35.9-.2-2.5-4-7.2-2.8-11.1Z"/>
    <path class="st88" d="M369.9,157c5.8-1.2,18.9-3,24.3-2.2,1.8.3.8,9.4,9.9,2.2-.8,2.9-2.4,6.1-2.8,8.3l-37.1,18.1c-3.2,2.1-8.9.5-11.4,1.3-4,1.4-7.2,7.1-9.9,7.5-5.1-1.4-8.7-1.7-7.2-7.5,2-3.9,2.3-6.8,5.7-11.1,6.6-8.2,18.9-14.6,28.5-16.6Z"/>
    <path class="st52" d="M452.6,416.9c-7.7,20.6-14.2,39.2-28.6,56.6-16.3,19.7-28.2,25-51.2,34.6l43.9-36.2c9.2-12.3,17.3-26.4,21.6-41.2,12.5-14.7,4.9-33.8,11.4-49.8,1.9,13.3,3.2,22.1,2.8,35.9Z"/>
    <path class="st48" d="M452.6,427.9c-4.5,43.9-58.2,87.9-102.6,94v-2.8c5.2-1.3,16.8-8.6,22.8-11.1,23-9.6,34.9-14.9,51.2-34.6,14.4-17.4,20.9-36,28.6-56.6,0,3.6.4,7.5,0,11.1Z"/>
    <path class="st31" d="M395.6,143.2l2.8,1.3-3.1,6.7-23.4.2-1.9,5.6c-9.6,2-21.9,8.3-28.5,16.6h-8.5c1.2-2.9,2-6.2,2.2-9.4l-2.2-1.7c13-6.4,29.1-21.8,44-19.4,9.6,1.6,5.7,9.5,18.7,0Z"/>
    <path class="st82" d="M418.4,314.6l-1.4,2.7c-2.2-4.1-7.4-3.9-10-5.5-2.5-1.5-6-3.8-8.5-5.5s-3-3.6-5.7-5.5c-6.3-4.5-4.3-5.1-14.2-8.3-3.1-2.1-15.1-10.6-17.1-11.1l5.7-5.5c26.8,11.2,33.5,16.9,51.3,38.7Z"/>
    <path class="st92" d="M435.5,339.5c12,13.1,11.9,25.5,14.2,41.5-6.5,15.9,1.1,35.1-11.4,49.8.4-1.5-.4-3.9,0-5.5,6.4-26.5,8.4-33.8,0-60.8-3.3-10.6-4.7-22.3-17.1-27.6v-2.8c7.2-6.2,6.7,3,11.4,6.8,1.1.9,2.7-1.4,2.8-1.3Z"/>
    <path class="st17" d="M332.9,173.6c-4.3,10-11.3,19.4-14.2,30.4.2-17.4,2.5-23.1,5.7-38.7,3.2-.2,5.8-1.4,8.5-2.8l2.2,1.7c-.3,3.1-1,6.5-2.2,9.4Z"/>
    <path class="st57" d="M418.4,314.6c6.4,7.8,14.8,14.5,17.1,24.9-.1-.1-1.8,2.1-2.8,1.3-4.7-3.8-4.2-13-11.4-6.8-1.9-2.2-1.7-6.5-2.8-8.3-2.8-4.6-6.3-8.8-11.4-11.1v-2.8c2.6,1.5,7.8,1.4,10,5.5l1.4-2.7Z"/>
    <path class="st84" d="M401.3,181.9c-.5.6-9.7,9.6-11.4,11.1l-32,6.2c-8,7.6-11.4,6.5-22.1,4.8l16.8-8.6.3-10.7c2.4-.8,8.1.8,11.4-1.3l37.1-18.1c0,.2,2.3,1.7,2,3.8-.7,4.3-5.8,8.1-2,12.8Z"/>
    <path class="st7" d="M412.7,137.6v2.8c-5.5,4.3-6.8,10.4-8.5,16.6-9.1,7.3-8.1-1.9-9.9-2.2-5.4-.9-18.5.9-24.3,2.2l1.9-5.6,23.4-.2,3.1-6.7-2.8-1.3c2.1-1.5,3.8-3.7,5.7-5.5,3.7,0,7.8.4,11.4,0Z"/>
    <path class="st4" d="M401.3,181.9c-3.8-4.7,1.3-8.5,2-12.8.3-2-2-3.6-2-3.8.5-2.2,2-5.4,2.8-8.3,1.7-6.2,3-12.3,8.5-16.6,7.1,9.4-4.9,32.4-11.4,41.5Z"/>
    <path class="st70" d="M401.3,137.6c-1.9,1.8-3.6,4-5.7,5.5-13,9.5-9.1,1.6-18.7,0-14.9-2.5-30.9,13-44,19.4-2.8,1.3-5.4,2.6-8.5,2.8.2-.9-.2-1.9,0-2.8,10.4-7.5,18.4-18.3,31.3-22.1,14.3-4.2,30.8-2.6,45.6-2.8Z"/>
    <path class="st96" d="M350,281.4c-4.8-.3-14.1-1-17.9,0-2.6.7-2.7,5.7-6.8,7.7-7.8,3.9-27.7,4.6-30.8-4.9-2.5,4.2-10.8,17.1-27.2,22.8-8,2.8-15.1,2.9-19.8,2.5,3.1-5.8,6.2-11.7,9.2-17.5,11.4-3.2,20.4-5.9,26.5-7.8,4.2-1.3,6.4-2,9.8-2.8,2.9-.7,21.9-3.4,22.7-2.7l5.7,8.2-2.8-13.8,31.3,8.3Z"/>
    <path class="st15" d="M378.5,292.5c10,3.2,7.9,3.8,14.2,8.3-12.2,3-11.3-9.2-23.9-5.7s-5.3,17-11.6,22.4c-6.6,5.6-12.8,3.6-17.7,6.4-49.6,27.9-99.7,32.7-154.8,48.8,1.9-3.7,3.8-7.4,5.7-11.1,22.3-10,43.6-21.5,67.7-26.9,14.4-3.3,57-8.2,68.3-15.3,3.5-2.2,10.4-16.7,20.7-15.9l-8.5-16.5c5.2-.5,13.2-.6,18.3.2,3.2.5,18.2,4.3,21.6,5.4Z"/>
    <path class="st14" d="M398.4,306.3c2.6,1.7,6,4,8.5,5.5v2.8c-2.5-1.1-13.4-3.7-14.2-2.8,3.6,26.3-25,38.9-31.6,60.7-12.5-3.6-23.5,1.6-35.3,5.8l-4.3-5.7c-6.8,10.7-22.8,18.6-36.9,18.4-6.1,0-19.5-5.5-20.1-4.6-1,1.4,2.1,8.3-2.9,8.3-1-9.5,1.1-10.9-8.5-16.6l22.1-7.6c11.7-3.4,28.5-5.3,39.4-8.5s8.2-9.9,12-11.3c7.6-2.9,23.2-3.8,31.7-7.4,11.8-5,21-15,26.9-26,2.4-4.5-5-13.4,13.2-11.1Z"/>
    <path class="st25" d="M253.1,378.2c9.7,5.7,7.6,7.1,8.5,16.6l-7.4-11-18.2,2.7-4.3-8.3c-5.9,5.1-12.4,11.1-12.9,19.3h-2.8c1.3-10.8,4.5-14,11.4-22.1,9.8-2.2,16.3-2.7,25.6,2.8Z"/>
    <path class="st0" d="M338.6,286.9l8.5,16.5c-10.3-.8-17.2,13.7-20.7,15.9-11.4,7.1-53.9,12-68.3,15.3-24.1,5.4-45.4,17-67.7,26.9,22.5-42.8,79.8-36.8,117.9-55.7,6.1-3,23.2-18.2,30.3-19Z"/>
    <path class="st22" d="M216,317.3c9.1-6.3,17.8-13.5,27.6-18.8,4-2.2,29.2-17,23.6-2-3.2,8.7-18.8-7.6-14.2,12.5-13.1,1.1-14,.4-26.1,6.5-2.7,1.3-9.5,7.5-10.9,1.8Z"/>
    <path class="st18" d="M384.2,416.9h8.6s0,5.5,0,5.5c-.3.2-.3,4.9-2.7,7-14.9,12.9-13.9,18.7-36.4,25.5-23,7-45.5,11.6-69.1,17.2-21.7-2.8-39.7-11.7-62.7-8.3.8-1.3,0-4.5,2.8-6.9,4.9-4.3,14.7-2.7,17.2-9.7,2.1.1,5.2-1.7,7.3-2.6,5,8.4,27.1,5.9,41.8,4.6,17-1.5,56.7-11.6,74.3-16.5,4.9-1.4,5.3-3.5,7.7-4.9s1.8-2,2.8-2.8c4-3.2,5.3-3.5,8.5-8.3Z"/>
    <path class="st69" d="M344.3,394.8c-.6,2.3-.5,11.3,0,13.8-5.8,9.1-21.9,6-31.3,11.1l2.8,5.4c-7.1,2.4-18.3-3.6-23.7-2.3s-7.9,9.3-12.5,10.2c-3.3.7-26.1,1.8-28-1.7l-8.5,7.6-3-5.7c-21.1,7.3-11.8,1-15.3-4-10.3-15.1-17.6-3.8-21.2-4.4-6.5-1-14.1-21.9-24.6-13.6.8-4.7,1.2-9.3,3-13.7,13.3-1.2,20.8,12.7,34,5.4,2,29.3,40.6,36.6,45.6,11.1.2-.9-.1-1.9,0-2.8l36-5,6.7-6,2.8,5.5c4.4-16.4,18.9-13.7,31.4-8.3l-1.5-5.5,7.2,2.8Z"/>
    <path class="st51" d="M350,392c-8.6,17.3,6.8,34.5,25.6,33.2-1,.8-1.8,2.2-2.8,2.8-12,3.1-26.5-8.6-28.5-19.4-.5-2.5-.6-11.5,0-13.8s3.1-4.3,5.7-5.5v2.8Z"/>
    <path class="st19" d="M284.4,472.2c-2.5.6-19.6,6.4-20.2,7.2-4.6,5.9.5,16.1.4,23l11.3.2-11.4,8.3c-8.5-2.2-14.9-4.2-22.8-8.3-1.9-1-3.9-1.7-5.7-2.8,1.1-12.7-12.9-16.4-19.7-23.9-1.9-6.1,3.2-8.5,5.5-12,23-3.4,41,5.5,62.7,8.3Z"/>
    <path class="st42" d="M344.3,538.5c11.1,11.9,8.1,21.6,5.7,35.9l-57-5.5c-2.6-3.4-10.6-9-11.4-13.8,2.2-.3,5.9,2.1,10.8.9,7.6-1.9,13.5-10.1,21.8-9.2l25.9,11c5.8-4.2,4.8-12.8,4.3-19.3Z"/>
    <path class="st28" d="M438.3,430.7c-4.3,14.8-12.4,28.9-21.6,41.2l-43.9,36.2c-6,2.5-17.6,9.8-22.8,11.1-14.4,3.5-44.6,3.7-59.8,2.8l-8.5-2.8v-2.7s5.7,0,5.7,0c50.7,4.2,97.9-14.3,128.2-54,9.7-12.7,12.7-26.1,22.9-37.3-.4,1.6.4,4,0,5.5Z"/>
    <path class="st78" d="M392.7,422.4c1.7-1.1,13.3.8,17.1,0-2.7,4.3.5,11.2,0,13.8-1.6,9.3-10.1,14.8-15.4,22.4-1.9,2.7-.8,7.5-2.4,10-2.1,3.3-16.8,7.7-20.7,11.7-3.6,3.6-3.8,8.7-7.2,12.4-4.4,4.8-42.5,17.3-49.6,18.3-14.2,1.9-32.4-1.6-47.2-.1-.9-.2-2,.2-2.8,0l11.4-8.3-11.3-.2c0-6.9-5-17.1-.4-23s17.7-6.6,20.2-7.2c23.7-5.6,46.2-10.3,69.1-17.2,22.5-6.8,21.5-12.6,36.4-25.5s2.4-6.8,2.7-7Z"/>
    <path class="st99" d="M438.3,425.2c-10.2,11.2-13.2,24.5-22.9,37.3-30.2,39.7-77.5,58.1-128.2,54-4-.3-15.2-4.4-19.9-5.5,14.8-1.5,32.9,2,47.2.1,7.1-.9,45.2-13.5,49.6-18.3,3.4-3.7,3.6-8.8,7.2-12.4,4-4,18.6-8.4,20.7-11.7,1.6-2.4.5-7.3,2.4-10,5.3-7.6,13.8-13.2,15.4-22.4,15.9-6.3,21.4-8.9,26.8-25.2,6.1-18.6,2-24,1.7-41.1,0-1.8,0-3.7,0-5.5,8.4,27.1,6.4,34.3,0,60.8Z"/>
    <path class="st16" d="M261.6,414.1c-5,25.5-43.6,18.2-45.6-11.1-.1-1.7-.2-3.8,0-5.5h2.8c-1.5,24.8,25.4,37.6,42.7,16.6Z"/>
    <path class="st89" d="M395.6,580c-1.5.1-2.7,1.3-2.8,2.8-5.4-6-11-4.4-17.1-5.5-3.6-10.6-11.4-18.4-17.1-27.6,12.3,2.7,30.7,20.1,37,30.4Z"/>
    <path class="st27" d="M421.2,336.7c12.4,5.4,13.8,17,17.1,27.6,0,1.8,0,3.7,0,5.5-13.4-2.4-17.7,12-28.5,17.7-2.1,1.1-5.4-1.3-7.8-.4s-7.7,10.7-9.3,13.1c-3.4-9.4,4.4-10.1,6-15,5.4-16.8.9-35,12.4-48.9,2.6-2.4,7.3-.9,10.1.3Z"/>
    <path class="st95" d="M418.4,325.6c1.1,1.8.9,6.1,2.8,8.3v2.8c-2.8-1.2-7.5-2.7-10.1-.3-11.5,13.9-7.1,32.1-12.4,48.9s-9.4,5.6-6,15c-.8,1.1-1.9,1.9-2.8,2.8.4-3,.4-8.1,0-11.1-.6-4.3.3-8.1-4-11.3l-15.9-2.5,5.5-3-2.7-8c12.1.8,27.6-25.7,28.6-34.8.8-7.7-9.7-9.8-1.4-15l18.5,8.3Z"/>
    <path class="st54" d="M407,314.6c5.1,2.3,8.6,6.5,11.4,11.1l-18.5-8.3c-8.3,5.2,2.3,7.3,1.4,15-1,9.1-16.5,35.6-28.6,34.8l2.7,8-5.5,3,15.9,2.5c4.3,3.2,3.4,7.1,4,11.3-2.8-4.9-6.3-6.4-11.4-8.3-15.5-5.9-8.7,1-13.5,2.6-4.4,1.5-8.9,0-15,2.9-2.6,1.2-5,2.6-5.7,5.5l-7.2-2.8,1.5,5.5c-12.5-5.4-27-8.1-31.4,8.3l-2.8-5.5-6.7,6-36,5c.5-4.6.5-12,0-16.6,5,0,1.9-6.9,2.9-8.3.6-.8,14,4.5,20.1,4.6,14.1.2,30.1-7.7,36.9-18.4l4.3,5.7c11.8-4.2,22.8-9.4,35.3-5.8,6.6-21.8,35.2-34.3,31.6-60.7.9-.9,11.8,1.7,14.2,2.8Z"/>
    <path class="st41" d="M218.9,397.5c.5-8.2,6.9-14.2,12.9-19.3l4.3,8.3,18.2-2.7,7.4,11c.5,4.6.5,12,0,16.6s.2,1.9,0,2.8c-17.4,21-44.2,8.2-42.7-16.6Z"/>
    <path class="st100" d="M438.3,369.9c.2,17.2,4.4,22.5-1.7,41.1-5.4,16.3-10.9,18.9-26.8,25.2.5-2.6-2.7-9.5,0-13.8-3.8.8-15.4-1.1-17.1,0v-5.5s-8.5,0-8.5,0c4-5.9,4.8-6.4,5.7-13.8,1-.9,2.1-1.7,2.8-2.8,1.7-2.4,7.6-12.4,9.3-13.1s5.6,1.5,7.8.4c10.8-5.7,15.1-20.1,28.5-17.7Z"/>
    <path class="st87" d="M378.5,383.7c5.1,1.9,8.6,3.4,11.4,8.3.4,2.9.4,8.1,0,11.1-.9,7.5-1.7,8-5.7,13.8-3.2,4.8-4.5,5.1-8.5,8.3-18.8,1.3-34.2-15.8-25.6-33.2,12.7-1.5,9.6,23.2,11.4,24.9l16.5-3.4c.6-11.1,16.2-26-5.1-21.5l5.7-8.3Z"/>
    <path class="st81" d="M378.5,383.7l-5.7,8.3c21.3-4.5,5.7,10.4,5.1,21.5l-16.5,3.4c-1.8-1.7,1.3-26.4-11.4-24.9v-2.8c6.1-2.9,10.6-1.5,15-2.9,4.8-1.6-2-8.5,13.5-2.6Z"/>
  </g>
  <g>
    <path class="st43" d="M293.1,420.7c12.8-4.7,18.9-.9,23.6,3.7"/>
    <path class="st2" d="M542.7,411.3"/>
  </g>
  <path class="st65" d="M207.5,132.1s1.2-5.3,3.2-5.3,6-5.1,8.1-3.1,58.4.1,60.6,5.6l2.2,5.5-19.9-2.8s-40.1-5.5-42.8-2.8-5.6,2.8-5.6,2.8h-5.7Z"/>
  <path class="st3" d="M286.5,467.6c15.4,9,34.2,0,34.2,0"/>
</svg>