<?xml version="1.0" encoding="UTF-8"?>
<svg id="Layer_1" xmlns="http://www.w3.org/2000/svg" version="1.1" viewBox="0 0 595.3 841.9">
  <!-- Generator: Adobe Illustrator 29.1.0, SVG Export Plug-In . SVG Version: 2.1.0 Build 142)  -->
  <defs>
    <style>
      .st0 {
        fill: #23b17f;
      }

      .st1 {
        fill: #3a5936;
      }

      .st2 {
        fill: #74c48d;
      }

      .st3 {
        fill: #06a37e;
      }

      .st4 {
        fill: #51b956;
      }

      .st5 {
        fill: #75ad7f;
      }

      .st6 {
        fill: #69a083;
      }

      .st7 {
        fill: #3aa7ae;
      }

      .st8 {
        fill: #0c696a;
      }

      .st9 {
        fill: #343b1d;
      }

      .st10 {
        fill: #20a585;
      }

      .st11 {
        fill: #3b2314;
      }

      .st12 {
        fill: #1e351a;
      }

      .st13 {
        fill: #262c17;
      }

      .st14 {
        fill: #71c16b;
      }

      .st15 {
        fill: #6b6f3e;
      }

      .st16 {
        fill: #a2ce5b;
      }

      .st17 {
        fill: #0b0f13;
      }

      .st18 {
        fill: #27a7a0;
      }

      .st19 {
        fill: #bbc468;
      }

      .st20 {
        fill: #0d1429;
      }

      .st21 {
        fill: #d2d5b6;
      }

      .st22 {
        fill: #0b1525;
      }

      .st23 {
        fill: #a7ad8f;
      }

      .st24 {
        fill: #f7eebd;
      }

      .st25 {
        fill: #92ca60;
      }

      .st26 {
        fill: #58bc70;
      }

      .st27 {
        fill: #9ac474;
      }

      .st28 {
        fill: #cbdd5d;
      }

      .st29 {
        fill: #faf5e1;
      }

      .st30 {
        fill: #ced05b;
      }

      .st31 {
        fill: #60c196;
      }

      .st32, .st33 {
        fill: #f3eaaa;
      }

      .st34 {
        fill: #231f5b;
      }

      .st33, .st35 {
        stroke: #231f20;
        stroke-miterlimit: 10;
      }

      .st36 {
        fill: #81bdd0;
      }

      .st37 {
        fill: #77c266;
      }

      .st38 {
        fill: #36211d;
      }

      .st39 {
        fill: #2fad96;
      }

      .st40 {
        fill: #228779;
      }

      .st41 {
        fill: #4b4431;
      }

      .st42 {
        fill: #72c15f;
      }

      .st43 {
        fill: #191725;
      }

      .st44 {
        fill: #0b867c;
      }

      .st45 {
        fill: #e7dcb5;
      }

      .st46 {
        fill: #d8db8f;
      }

      .st47 {
        fill: #1a793d;
      }

      .st48 {
        fill: #a7c1c8;
      }

      .st49 {
        fill: #e0de67;
      }

      .st50 {
        fill: #54bb6e;
      }

      .st51 {
        fill: #1b1917;
      }

      .st52 {
        fill: #111a11;
      }

      .st53 {
        fill: #81c568;
      }

      .st54 {
        fill: #5ea06c;
      }

      .st55 {
        fill: #4e481e;
      }

      .st56 {
        fill: #251a1a;
      }

      .st57 {
        fill: #a9be59;
      }

      .st58 {
        fill: #2e5629;
      }

      .st59 {
        fill: #182616;
      }

      .st60 {
        fill: #873048;
      }

      .st35 {
        fill: none;
        stroke-width: 3px;
      }

      .st61 {
        fill: #31b072;
      }

      .st62 {
        fill: #08968c;
      }

      .st63 {
        fill: #4f351a;
      }

      .st64 {
        fill: #40a98a;
      }
    </style>
  </defs>
  <path class="st38" d="M398.1,379.1s24,19.4,22.8,21.6-12.1-4.1-12.1-4.1l-9.2-12.4-1.5-5.1Z"/>
  <g>
    <path class="st56" d="M287.5,693.9c10.2.6,12.1.4,21.4,0,9.6-.4,7,2.5,10.7,10.5-15.3.2-29.4,3.8-46.4,3.5-1.2,0-2.4,0-3.6,0-7.4-.1-16.9.7-23.2.3-5.9-.4-52.5-4.6-48.1-10.8,4,.1,7.2-2.2,10.7-3.5,18.4,14.7,35.6,4.2,53.5,0,2.8-.7,10.1-3.5,10.7-3.5,2.5.2,4.6,2.9,14.3,3.5Z"/>
    <path class="st24" d="M237.6,400.1c-5,10.2-19.3,10.2-27,17.4-4.5,4.2-4,9.4-5.1,10.6-8.2,9.5-12.1,13.4-17.8,24.5-3.6,7-3.8,16-10.7,21,0-.6-3.8-4.1-3.6-10.5s3.7-21.7,7.1-28,9.7-12.8,10.7-14c1.8-2,16.2-13.6,17.8-14,5.2-1.4,20.2-3.6,28.5-7Z"/>
    <path class="st63" d="M294.7,354.7c7.6,9.5,21.5,1.2,28.5,0,1.1-.2,2.4,0,3.6,0,2.1,0,4,1.2,3.6,3.5-1.7.3-3.1,1.8-3.6,3.5-43.1-2.6-91.1,10.5-117.7,45.5-1.6.4-16.1,12-17.8,14,10.7-21.3,35.1-41.1,57.1-50.7,16.6-7.2,33.5-6.7,46.3-19.3v3.5Z"/>
    <path class="st9" d="M259,260.2v3.5c0,2.3,0,4.7,0,7-.4,26,15.1,34.2,39.2,28,.6.7-.6,2.8,0,3.5-22.4,16.8-54.9-13.7-49.9-35,.2-.9,5.5-4.9,7.1-7h3.6Z"/>
    <path class="st58" d="M287.5,274.2c7.7,1.3,19.8,21.7,25,28,0,1.2,0,2.3,0,3.5-1.7.3-3.4,1.9-3.6,3.5-.9-5.9-10.3-6.5-10.7-7-.6-.7.6-2.8,0-3.5-1.3-1.6-.2-7.2-5-10.7-5.9-4.4-15-2.1-19.9-8.5,1.9-2.6,12-5.6,14.3-5.2Z"/>
    <path class="st12" d="M294.7,354.7v-3.5c16.3-15.9,12.6-22.2,14.3-42,.1-1.6,1.9-3.2,3.6-3.5,0,18.3,11.5,39.5-17.8,49Z"/>
    <path class="st15" d="M316.1,274.2c-.6,2.4,2.4,7.8,3.6,10.5-3.3,4-2.4,4.6-3.6,7-14.5-18.8-29-53.6-57.1-31.5h-3.6c1.4-1.8,2.4-6.1,3.6-7,28.3-21,50.4,24.5,57.1,21Z"/>
    <path class="st59" d="M173.4,463.1c-.2,6.4,3.6,9.9,3.6,10.5,0,2.3,0,4.7,0,7s-4.4,9.7-3.4,18.8c2.9,27.1,14.6,46.2,32,65.1,21.3,23.2,40.6,36.2,71.3,45.5-22.9,3.3-43.6-9.1-60.7-22.7-36.5-28.9-51.6-66.7-49.9-112.1.3-6.7-3.7-14,7.1-12.1Z"/>
    <path class="st5" d="M276.8,634.5c6.3,17.3,6.5,40.3-3.6,56-.6,0-7.9,2.8-10.7,3.5l-10.7-10.5c.8-2.7-.6-7.3,0-10.5,1-5.9,1.4-11.8,3.6-17.5,4.1-1.1,5.3-3.7,7.1-7,3-5.5,2.2-11.2,3.6-14,3.5-3.3,10.2.2,10.7,0Z"/>
    <path class="st7" d="M423.1,543.5c-1.9,3.3-2.6,9.2-3.6,10.5-16.8,22.4-64.8,45.3-92.7,49-.9,5.8,10.7,3.7,14.3,3.5v3.5c-21,1.3-44.3-3.7-64.2,3.5v-3.5c-30.7-9.3-50.1-22.3-71.3-45.5.6.6,10.2,3.6,14.3,7,30,24.9,60.4,37.5,101.4,31.2,2.6-.4,43.1-18.3,48.4-20.8,25-11.7,32.2-25.2,53.5-38.5Z"/>
    <path class="st22" d="M341,610c2.4-.1,4.8.2,7.1,0v3.5c-1.1.9-2.5,3.3-3.6,3.5-2,.4-4.8-.2-7.1,0-19.9,1.9-36.3,1.2-53.5,10.5-1.9,1-4,5.4-7.1,7-.5.2-7.2-3.3-10.7,0,3.3-6.9,9.9-13.8,10.7-21,19.9-7.2,43.2-2.2,64.2-3.5Z"/>
    <path class="st41" d="M262.6,648.5c-1.8,3.3-3.1,5.9-7.1,7-3.4.9-9.5-1.7-13.4.7-3.2,2-14.3,24.8-15.1,30.7-1.6,0-5-2.9-7.1-3.5,6.3-16.3,20.3-45.9,42.8-35Z"/>
    <path class="st23" d="M262.6,693.9c-17.9,4.2-35.1,14.7-53.5,0,1.3-.5,2.5-3.9,7.1-3.5,8.8.7,29.5,13.7,35.7-7l10.7,10.5Z"/>
    <path class="st51" d="M251.9,672.9c-.6,3.2.8,7.8,0,10.5-6.2,20.7-26.8,7.7-35.7,7-.2-3,2.9-5.2,3.6-7,2.1.6,5.6,3.5,7.1,3.5,17.5-.4,11.1-11.9,25-14Z"/>
    <path class="st6" d="M358.9,662.4c-.3,22.4-10.8,41.8-35.7,42-1.2,0-2.4,0-3.6,0-3.7-7.9-1.1-10.9-10.7-10.5v-3.5h7.1c.7-3.2-.8-7.9,0-10.5.7-2.4,8.4-24.7,14.3-17.5-1.7,3.4,3,37.1,10.7,28,.4-12.9,6.1-31.8,14.3-42-1.6,4.5,3.6,11.7,3.6,14Z"/>
    <path class="st52" d="M358.9,662.4l32.1,29.7-26.7-12.2-5.4,21c19.1-2.4,38.3-2.3,57.1-7,2-.5,4.9.3,7.1,0,.7,1.4,2.4,2.5,3.6,3.5-40.9,7.5-63.7,6.1-103.5,7,24.8-.1,35.4-19.5,35.7-42Z"/>
    <path class="st44" d="M284,627.5c7.3,8.6,33.6-5.8,35.6-3.5,2.8,18.9-14.8,33.4-14.2,52.5-1.5-6.9-6.5-14.5-3.6-24.5l-10.4.3-3.9,41.7c-9.7-.6-11.7-3.3-14.3-3.5,10-15.6,9.9-38.7,3.6-56,3.2-1.5,5.2-6,7.1-7Z"/>
    <path class="st39" d="M287.5,693.9l3.9-41.7,10.4-.3c-2.9,10,2.1,17.6,3.6,24.5,1,4.7,2.7,9.3,3.6,14v3.5c-9.3.4-11.2.6-21.4,0Z"/>
    <path class="st16" d="M355.3,386.1c-20.7,17.7-46.8,33.5-74.8,36.9-6.7.8-13.2-2.9-19-1.4-7.6,2-13.6,16.3-26.1,20.5-12.4,4.2-28.9-5-37.2,3.5-2,2-3.2,7.4-3.6,10.5l-7.1-3.5c5.8-11,9.7-15,17.8-24.5,20.6-5.3,36.8-19.5,56.3-27,16.7-6.3,44-5.7,57.8-22,7.5.5,14.6-.5,22.4.8,6.4,1,10.5,5.5,13.2,6.2Z"/>
    <path class="st29" d="M326.8,361.7c4.3.3,9.6,2.7,14.3,3.5-8.4,8.4-23.3,7.7-35.7,10.5-30.8,6.9-40.8,13.4-67.8,24.5-8.3,3.4-23.3,5.6-28.5,7,26.6-34.9,74.6-48.1,117.7-45.5Z"/>
    <path class="st28" d="M305.4,375.6c.4,5.7,8.9,3.2,14.3,3.5-13.8,16.3-41.2,15.7-57.8,22-19.6,7.4-35.8,21.7-56.3,27,1.1-1.2.6-6.4,5.1-10.6,7.7-7.2,22-7.2,27-17.4,27-11.1,37-17.5,67.8-24.5Z"/>
    <path class="st42" d="M230.5,466.6c7,11.2,2.9,3.6,17.8,10.5l-1.8,7.1c-7-2.1-12.1-5.2-19.6-7.1-11.6-2.8-22.8-3.4-34-9.7l-12.3,16.7c-.3-1.7-1.9-3.1-3.6-3.5,0-2.3,0-4.7,0-7,6.9-5,7.1-14,10.7-21l7.1,3.5c.5-3.1,1.6-8.5,3.6-10.5,10.7-.3,26.6,12.1,32.1,21Z"/>
    <path class="st27" d="M323.2,309.2c1.9,14-1.3,31,0,45.5-7,1.2-21,9.5-28.5,0,29.4-9.5,17.8-30.6,17.8-49,0-1.2,0-2.3,0-3.5s2.7-4.2,3.6-7c1.3,3.6,6.8,11.2,7.1,14Z"/>
    <path class="st13" d="M373.1,284.7c-2.2,3.4-.3,7.2-7.1,12.2-7.9,5.8-32.7,10.3-36,14.6l-3.2,43.2c-1.2,0-2.4-.2-3.6,0-1.3-14.5,1.9-31.5,0-45.5-.3-2.7,3.3-5.7,3.6-7,3.2,4.3,18.7-2.6,22.4-4.3,8.5-3.9,15.5-9.4,24-13.2Z"/>
    <path class="st11" d="M398.1,379.1c1.4,1.3,2.1,5.2,3.6,7-22-10.8-36-16.9-60.6-21-4.7-.8-10-3.2-14.3-3.5.4-1.7,1.9-3.2,3.6-3.5,16.7-2.6,55.6,9.8,67.8,21Z"/>
    <path class="st19" d="M259,270.7c8.3-3.1,6.1,7,8.9,7l4.2-7.1h15.4v3.6c-2.3-.4-12.3,2.6-14.3,5.2,4.9,6.4,14,4.2,19.9,8.5,4.8,3.5,3.8,9.2,5,10.7-24.2,6.3-39.7-2-39.2-28Z"/>
    <path class="st46" d="M316.1,291.7c-.4.9.4,2.4,0,3.5-.9,2.8-3.6,6.6-3.6,7-5.2-6.2-17.2-26.6-25-28v-3.5l2-3.3-11.7-10.3-18.9,6.6v-3.5c28.1-22.1,42.6,12.7,57.1,31.5Z"/>
    <path class="st49" d="M287.5,270.7h-15.4c0,0-4.2,7-4.2,7-2.8,0-.6-10.1-8.9-7,0-2.3,0-4.7,0-7l18.9-6.6,11.7,10.3-2,3.3Z"/>
    <path class="st55" d="M373.1,256.7h-3.6c-4.4-10.2-19.6-8.2-28.7-5.4s-23.7,18.9-24.8,22.9c-1-11.5,10.4-19,17.8-28,9.1-5.8,27.3-4.1,35.6,1.9,3.6,2.6,2.9,7.7,3.6,8.5Z"/>
    <path class="st30" d="M369.6,256.7v3.5c-15.7-3-40.6,13.2-49.9,24.5-1.2-2.7-4.2-8.1-3.6-10.5,1-4,19-21.1,24.8-22.9,9.1-2.8,24.3-4.8,28.7,5.4Z"/>
    <path class="st47" d="M369.6,260.2c-14,7.5-36.1,15.7-42.8,31.5s.6,7.4,0,10.5-3.8,4.3-3.6,7c-.4-2.8-5.8-10.3-7.1-14,.4-1.1-.4-2.6,0-3.5,1.2-2.4.2-3,3.6-7,9.3-11.3,34.2-27.5,49.9-24.5Z"/>
    <path class="st2" d="M180.5,484.1c.5,3.1-.3,7.1,0,10.5,1.4,16.9,13.3,58.1,25,70-17.4-19-29.1-38-32-65.1s3.5-15.9,3.4-18.8c1.7.4,3.3,1.8,3.6,3.5Z"/>
    <path class="st45" d="M255.4,655.4c-2.2,5.7-2.5,11.6-3.6,17.5-13.9,2-7.5,13.6-25,14,.8-6,11.9-28.8,15.1-30.7,4-2.5,10.1.2,13.4-.7Z"/>
    <path class="st62" d="M398.1,529.5c.9,5.1,3.7,13.2,1.9,17.4l-30.4,35.1c-5.3,2.5-45.8,20.3-48.4,20.8-41,6.3-71.4-6.3-101.4-31.2.8-8.8,13.4-20.5,21.2-22.9,13.2-4.1,20.5,1.5,30,.8,9-.7,40.9-5,48.9-7.2s30.1-22.2,35.5-23.1c3.5-.6,11.9,4,17.8,3.5,13.2-1,11.6-12.2,21.4-17.5-4.4,9.9,2.1,15.5,3.6,24.5Z"/>
    <path class="st3" d="M216.2,508.6c4.1,2.5,7.6,12.9,17.7,16.1,10.5,3.3,12.9-1.7,17.9-2.1,4.3-.3,11.2-.9,14.5,1.6l5.5,12.7,26.3,3.3v-28c20-3,11.4,4.4,15,9.5,10.3,14.2,28.3-17.2,42.1-6v3.5c-5.4.9-30.8,21.7-35.5,23.1-8,2.3-39.9,6.5-48.9,7.2-9.5.8-16.8-4.9-30-.8-7.8,2.4-20.4,14.1-21.2,22.9-4.1-3.4-13.7-6.4-14.3-7-11.7-11.8-23.6-53-25-70,10.3,1.2,26.7,8.5,35.7,14Z"/>
    <path class="st36" d="M423.1,561c-18.3,23.2-51.8,43.3-82,45.5s-15.2,2.4-14.3-3.5c28-3.7,76-26.6,92.7-49l3.6,7Z"/>
    <path class="st43" d="M448.1,522.5c-10,33.1-20.5,41.5-42.8,66.5-20,9.3-34.1,18.7-57.1,21-2.3.2-4.8-.1-7.1,0v-3.5c30.3-2.2,63.8-22.2,82-45.5,10.5-13.3,17.5-25.2,21.4-42l3.6,3.5Z"/>
    <path class="st40" d="M344.6,617c4.4,10.2,10.4,19.7,17.8,28-3.5-.1-5.1.9-7.1,3.5-8.2,10.2-13.9,29-14.3,42-7.7,9.1-12.4-24.6-10.7-28-5.8-7.2-13.5,15.1-14.3,17.5-8.3-3.5-.8-10.4,1.3-14.5,8.9-17.1,10.7-32.3,20.1-48.5,2.3-.2,5.1.4,7.1,0Z"/>
    <path class="st8" d="M337.5,617c-9.4,16.2-11.2,31.4-20.1,48.5-2.1,4.1-9.6,11-1.3,14.5-.8,2.6.7,7.3,0,10.5h-7.1c-.9-4.7-2.6-9.3-3.6-14-.6-19.1,17-33.5,14.2-52.5-2-2.3-28.4,12-35.6,3.5,17.2-9.3,33.6-8.6,53.5-10.5Z"/>
    <path class="st1" d="M401.7,676.4c-1.5,7-9.1-3.6-10.7-5.3-8.5-8.3-21.4-18.3-28.5-26.2-7.4-8.3-13.4-17.8-17.8-28,1.1-.2,2.5-2.5,3.6-3.5,13.8,26.2,35.1,39.9,53.5,63Z"/>
    <path class="st32" d="M399.6,384.2c2.7,3.2,6.6,9.1,9.2,12.4s2.1,4.9,3.6,7c-1.5,4-10.8.7-14.3,0-4.9-6.4-8.8-10.1-17.8-10.5v-3.5c-20.8-18.6-49.2-13.5-74.9-14,12.4-2.8,27.3-2.1,35.7-10.5,24.6,4.1,36.6,8.2,58.6,19.1Z"/>
    <path class="st38" d="M408.8,396.6c2.4-.7,4.5-.5,6.5.3s3.8,2.1,5.5,3.8c.9.9,1.7,1.9,2.5,2.9,3,3.8,5.5,8.3,7.6,11.5,23.1,34.4,28.8,68.5,17,107.5l-3.6-3.5c5-21.4,3.1-25.5,0-45.5-6-38.2-11.6-40.6-32.1-70-1.4-2.1-2.1-5.1-3.6-7Z"/>
    <path class="st54" d="M362.4,645c7.1,7.9,20,17.9,28.5,26.2,1.6,1.6,9.2,12.2,10.7,5.3,4.7,5.9,10.4,11,14.3,17.5-18.7,4.7-38,4.6-57.1,7l5.4-21,26.7,12.2-32.1-29.7c0-2.3-5.2-9.4-3.6-14,2.1-2.6,3.7-3.6,7.1-3.5Z"/>
    <path class="st25" d="M380.3,389.6v3.5c-17.5-.7-16.2,12-25.2,19-28.4,22.1-65.8,27.9-95,40.4-10.2,4.4-20.8,6.1-29.6,14-5.5-8.9-21.5-21.2-32.1-21,8.3-8.4,24.8.7,37.2-3.5,12.4-4.2,18.5-18.5,26.1-20.5,5.8-1.5,12.3,2.2,19,1.4,28-3.4,54-19.2,74.8-36.9,7,1.7,17.4,1.4,25,3.5Z"/>
    <path class="st57" d="M380.3,389.6c-7.6-2.1-18-1.8-25-3.5-2.8-.7-6.9-5.2-13.2-6.2-7.9-1.3-15-.3-22.4-.8-5.4-.3-13.9,2.2-14.3-3.5,25.7.5,54.1-4.6,74.9,14Z"/>
    <path class="st53" d="M380.3,393.1c9,.4,12.9,4.1,17.8,10.5-7.1-1.3-13.8-4.5-21.4-3.5,1.1,7.6-.4,12.8-3.3,19.7s-20.5,23-21.9,23.9c-9.9,6.6-20.9.6-29.2,2.5-9.5,2.1-30.9,15-41.5,18.5s-22.6-5.1-25.4,15.9c-.6-.8-5.3-2.7-7.1-3.5-14.9-6.9-10.9.8-17.8-10.5,8.8-7.9,19.4-9.7,29.6-14,29.3-12.5,66.6-18.3,95-40.4,9-7,7.7-19.7,25.2-19Z"/>
    <path class="st17" d="M226.9,477.1c7.4,1.8,12.5,4.9,19.6,7.1l1.8-7.1c1.8.8,6.6,2.7,7.1,3.5s3.5,9.8,3.6,10.5c4.2,35.8-35.2,36.5-39.2,3.5,2.1-6,3.2-12.2,7.1-17.5Z"/>
    <path class="st50" d="M226.9,477.1c-3.9,5.3-5,11.5-7.1,17.5-1.4,4-5.9,7.5-3.6,14-9-5.5-25.4-12.8-35.7-14-.3-3.4.5-7.4,0-10.5l12.3-16.7c11.2,6.3,22.4,6.9,34,9.7Z"/>
    <path class="st4" d="M373.1,256.7c1.5,1.6,11.6-2.4,7.1,14-20,9.3-26.7,27-53.5,21,6.7-15.8,28.8-24,42.8-31.5v-3.5h3.6Z"/>
    <path class="st37" d="M380.3,270.7c-1.7,6.4-3.7,8.8-7.1,14-8.5,3.8-15.4,9.4-24,13.2-3.7,1.7-19.2,8.6-22.4,4.3.6-3.1-.9-8.4,0-10.5,26.8,6,33.5-11.7,53.5-21Z"/>
    <path class="st10" d="M391,484.1l39.1-3.4c2.3,7.9,4.8,15.9,3.7,24.4-1.6,12-14.2,23.9-17.9,35l-17.8-10.5c-1.5-8.9-8-14.6-3.6-24.5-9.8,5.2-8.2,16.5-21.4,17.5,8.9-9,11.2-16.4,14.3-28,.6-2.4,4.7-4.4,3.6-10.5Z"/>
    <path class="st20" d="M387.4,494.6c-3.1,11.6-5.4,19-14.3,28-6,.5-14.3-4.1-17.8-3.5v-3.5c-2.1-4.3-2.3-8-7.1-10.5-2.9-28.9,34.6-46.8,39.2-10.5Z"/>
    <path class="st18" d="M437.4,505.1c-4.4,17.3-5,22.3-14.3,38.5-21.3,13.3-28.5,26.8-53.5,38.5l30.4-35.1c1.8-4.2-1-12.3-1.9-17.4l17.8,10.5c3.7-11.1,16.4-23,17.9-35h3.6Z"/>
    <path class="st0" d="M341,501.6c1.5.5,2.9,5.3,4.3,6s2.6-2.6,2.8-2.5c4.9,2.5,5,6.2,7.1,10.5-13.8-11.3-31.8,20.1-42.1,6-3.7-5,5-12.5-15-9.5v28c0,0-26.4-3.3-26.4-3.3l-5.5-12.7c-3.3-2.5-10.2-1.9-14.5-1.6,9.2-6.4,15.8-16.6,14.3-28,22,9.3,54.3.6,74.9,7Z"/>
    <path class="st64" d="M266.1,494.6c1.6,11.4-5.1,21.6-14.3,28-5.1.3-7.4,5.3-17.9,2.1-10.2-3.2-13.7-13.6-17.7-16.1-2.4-6.4,2.1-10,3.6-14,4,33,43.5,32.3,39.2-3.5h3.6c1.3.9,2.4,3,3.6,3.5Z"/>
    <path class="st48" d="M444.5,519c-3.9,16.8-10.9,28.7-21.4,42l-3.6-7c.9-1.3,1.6-7.2,3.6-10.5,9.3-16.2,9.8-21.2,14.3-38.5s1.8-14.6,3.6-21c.6-2.2,5.3-5.9,3.6-10.5,3.1,20,5,24.1,0,45.5Z"/>
    <path class="st21" d="M412.4,403.6c20.6,29.3,26.1,31.8,32.1,70,1.7,4.6-3,8.3-3.6,10.5-5.5-15.3-5.6-33-17.8-45.5-1.8-9.7-10.7-27.1-21.4-28-1.4-2.1-2.1-5.1-3.6-7,3.5.7,12.8,4,14.3,0Z"/>
    <path class="st14" d="M398.1,403.6c1.5,1.9,2.2,4.9,3.6,7-3.6-.3-15.9,1.9-17.3,4.1,3.9,21.1-23.1,33.7-14.8,51.9-2.2-.4-5,.4-7.1,0-29.3-6-63.8-.4-94.6,10.4-9.8,3.4-4.4,5.9-5.3,14.1h-3.6c0-.7-3.2-10-3.6-10.5,2.8-21,17.7-13.3,25.4-15.9s32-16.4,41.5-18.5c8.4-1.9,19.4,4,29.2-2.5,1.4-.9,21.1-22.2,21.9-23.9,2.9-6.9,4.4-12.1,3.3-19.7,7.6-1,14.3,2.2,21.4,3.5Z"/>
    <path class="st61" d="M423.1,438.6c12.3,12.5,12.4,30.1,17.8,45.5-1.8,6.4-1.9,14.5-3.6,21h-3.6c1.1-8.5-1.4-16.5-3.7-24.4l-39.1,3.4c-.2-1.4-5.7-9.1-7.1-10.5,10.7-14.1,5.8-30.9,21.4-43.9,3.1-1.8,15.5,6.5,17.9,8.9Z"/>
    <path class="st31" d="M369.6,466.6c5.3,1,10.4,3.3,14.3,7,1.4,1.4,6.9,9.1,7.1,10.5,1.1,6.1-2.9,8.1-3.6,10.5-4.7-36.3-42.1-18.4-39.2,10.5-.2,0-1.6,3.1-2.8,2.5s-2.9-5.6-4.3-6c.8-16.3,12.6-23.2,21.4-35,2.2.4,4.9-.4,7.1,0Z"/>
    <path class="st26" d="M362.4,466.6c-8.8,11.8-20.6,18.7-21.4,35-20.6-6.4-52.9,2.3-74.9-7-1.2-.5-2.3-2.6-3.6-3.5.9-8.2-4.5-10.7,5.3-14.1,30.7-10.8,65.3-16.4,94.6-10.4Z"/>
    <path class="st26" d="M401.7,410.6c10.7.9,19.6,18.3,21.4,28-2.4-2.4-14.8-10.7-17.9-8.9-15.6,13-10.7,29.8-21.4,43.9-3.9-3.6-8.9-6-14.3-7-8.3-18.2,18.7-30.8,14.8-51.9,1.4-2.2,13.7-4.4,17.3-4.1Z"/>
  </g>
  <path class="st34" d="M288.8,518.5c12.8-4.7,18.9-.9,23.6,3.7"/>
  <path class="st60" d="M280.2,568.2"/>
  <path class="st35" d="M284,562.6s7.7-3.8,13.7-3.2,22.5,2.4,18.9,3.2"/>
  <path class="st63" d="M195.8,413.3s-17.9,14.5-22.4,23.5-7.6,29.6-7.6,29.6l7.6-3.4,7.1-28,10.7-14,4.6-7.8Z"/>
  <path class="st38" d="M425,379.1"/>
  <path class="st32" d="M408.8,396.6s-9.2-5.6-9.2-5.6"/>
  <path class="st38" d="M401.7,386.1"/>
  <path class="st33" d="M297.6,559.4"/>
</svg>