<?xml version="1.0" encoding="UTF-8"?>
<svg id="Layer_1" xmlns="http://www.w3.org/2000/svg" version="1.1" viewBox="0 0 595.3 841.9">
  <!-- Generator: Adobe Illustrator 29.1.0, SVG Export Plug-In . SVG Version: 2.1.0 Build 142)  -->
  <defs>
    <style>
      .st0 {
        fill: #0f0f0f;
      }

      .st1 {
        fill: #fcf9ea;
      }

      .st2 {
        fill: #ddbdc7;
      }

      .st3 {
        fill: #78c369;
      }

      .st4 {
        fill: #603260;
      }

      .st5 {
        fill: #0aa54a;
      }

      .st6 {
        fill: #d9ba4f;
      }

      .st7 {
        fill: #10351d;
      }

      .st8 {
        fill: #b5d35c;
      }

      .st9 {
        fill: #7b391a;
      }

      .st10 {
        fill: #b4b7a4;
      }

      .st11 {
        fill: #24b787;
      }

      .st12 {
        fill: #e7c4a2;
      }

      .st13 {
        fill: #45a547;
      }

      .st14 {
        fill: #858f9a;
      }

      .st15 {
        fill: #a0a6ad;
      }

      .st16 {
        fill: #d1ccba;
      }

      .st17 {
        fill: #137b69;
      }

      .st18 {
        fill: #1c1147;
      }

      .st19 {
        fill: #44b35c;
      }

      .st20 {
        fill: #251e31;
      }

      .st21 {
        fill: #342e24;
      }

      .st22 {
        fill: #434c63;
      }

      .st23 {
        fill: #6e9893;
      }

      .st24 {
        fill: #a88547;
      }

      .st25 {
        fill: #8bb681;
      }

      .st26 {
        fill: #e5e982;
      }

      .st27 {
        fill: #2ea881;
      }

      .st28 {
        fill: #228b81;
      }

      .st29 {
        fill: #208d6f;
      }

      .st30 {
        fill: #3bb54a;
      }

      .st31 {
        fill: #211c34;
      }

      .st32 {
        fill: #572e13;
      }

      .st33 {
        fill: #262653;
      }

      .st34 {
        fill: #614319;
      }

      .st35 {
        fill: #1d945e;
      }

      .st36 {
        fill: #278f44;
      }

      .st37 {
        fill: #0b3c2f;
      }

      .st38 {
        fill: #b7c696;
      }

      .st39 {
        fill: #40ba85;
      }

      .st40 {
        fill: #c8d0b7;
      }

      .st41 {
        fill: #101240;
      }

      .st42 {
        fill: #4e5353;
      }

      .st43 {
        fill: #1ba17e;
      }

      .st44 {
        fill: #4c9295;
      }

      .st45 {
        fill: #0a6349;
      }

      .st46 {
        fill: #e7df91;
      }

      .st47 {
        fill: #eddbb0;
      }

      .st48 {
        fill: #2cb677;
      }

      .st49 {
        fill: #448144;
      }

      .st50 {
        fill: #191c13;
      }

      .st51 {
        fill: #59bb9c;
      }

      .st52 {
        fill: #78c68e;
      }

      .st53 {
        fill: #69b6cd;
      }

      .st54 {
        fill: #2a6943;
      }

      .st55 {
        fill: #75c489;
      }

      .st56 {
        fill: #e7d8c6;
      }

      .st57 {
        fill: #604b3d;
      }

      .st58 {
        fill: #354a7d;
      }

      .st59 {
        fill: #307037;
      }

      .st60 {
        fill: #0a565d;
      }

      .st61 {
        fill: #fbf5cc;
      }

      .st62 {
        fill: #736452;
      }

      .st63 {
        fill: #78c145;
      }

      .st64 {
        fill: #097772;
      }

      .st65 {
        fill: #23a08f;
      }

      .st66 {
        fill: #44a0b9;
      }

      .st67 {
        fill: #47a747;
      }

      .st68 {
        fill: #07505d;
      }

      .st69 {
        fill: #2ab56f;
      }

      .st70 {
        fill: #fcf7bd;
      }

      .st71 {
        fill: #371630;
      }

      .st72 {
        fill: #6aabb9;
      }

      .st73 {
        fill: #1c9aa3;
      }

      .st74 {
        fill: #c66761;
      }

      .st75 {
        fill: #89cc9f;
      }

      .st76 {
        fill: #1d3a2a;
      }

      .st77 {
        fill: #95a5c9;
      }

      .st78 {
        fill: #1b1b3d;
      }

      .st79 {
        fill: #999863;
      }

      .st80 {
        fill: #3e332c;
      }

      .st81 {
        fill: #ddc8a5;
      }

      .st82 {
        fill: #5cbd6e;
      }

      .st83 {
        fill: #4a1f3d;
      }

      .st84 {
        fill: #82c55a;
      }

      .st85 {
        fill: #f2e8a6;
      }

      .st86 {
        fill: #b6bf5c;
      }

      .st87 {
        fill: #4f9db3;
      }

      .st88 {
        fill: #68a272;
      }

      .st89 {
        fill: #231f5b;
      }

      .st90 {
        fill: #057670;
      }

      .st91 {
        fill: #a8d04f;
      }

      .st92 {
        fill: #9ccc4c;
      }

      .st93 {
        fill: #c5da4a;
      }

      .st94 {
        fill: #81c569;
      }

      .st95 {
        fill: #108668;
      }

      .st96 {
        fill: #6e4d26;
      }

      .st97 {
        fill: #a6d16e;
      }

      .st98 {
        fill: #8ec860;
      }

      .st99 {
        fill: #713133;
      }

      .st100 {
        fill: #039d97;
      }

      .st101 {
        fill: #78bc99;
      }

      .st102 {
        fill: #5f82b9;
      }

      .st103 {
        fill: #855175;
      }

      .st104 {
        fill: #774b23;
      }

      .st105 {
        fill: #f2e581;
      }

      .st106 {
        fill: #109c76;
      }

      .st107 {
        fill: #745e66;
      }

      .st108 {
        fill: #121528;
      }

      .st109 {
        fill: #7e9e61;
      }

      .st110 {
        fill: #d1d65c;
      }

      .st111 {
        fill: #2c8182;
      }

      .st112 {
        fill: #56b45c;
      }

      .st113 {
        fill: #29917b;
      }

      .st114 {
        fill: #09182f;
      }

      .st115 {
        fill: #644575;
      }

      .st116 {
        fill: #62be75;
      }

      .st117 {
        fill: #e5d08c;
      }

      .st118 {
        fill: #4ebb81;
      }

      .st119 {
        fill: #46b974;
      }

      .st120 {
        fill: #562d64;
      }

      .st121 {
        fill: #39a14c;
      }

      .st122 {
        fill: #9cbbb6;
      }

      .st123 {
        fill: #1aa775;
      }

      .st124 {
        fill: #261221;
      }

      .st125 {
        fill: #f4dfb9;
      }

      .st126 {
        fill: #201424;
      }

      .st127 {
        fill: #9acc5b;
      }

      .st128 {
        fill: #50a6c0;
      }

      .st129 {
        fill: #f8eab1;
      }

      .st130 {
        fill: #67b29d;
      }

      .st131 {
        fill: #191d14;
      }

      .st132 {
        fill: #a5adbb;
      }

      .st133 {
        fill: #424836;
      }

      .st134 {
        fill: #099b65;
      }

      .st135 {
        fill: #2e7d79;
      }

      .st136 {
        fill: #2e4640;
      }

      .st137 {
        fill: #2c9297;
      }

      .st138 {
        fill: #46b39a;
      }

      .st139 {
        fill: #17967b;
      }

      .st140 {
        fill: #66807b;
      }

      .st141 {
        fill: #383a1f;
      }

      .st142 {
        fill: #5fbd6f;
      }

      .st143 {
        fill: #05a28d;
      }

      .st144 {
        fill: #683357;
      }

      .st145 {
        fill: #9fb8c6;
      }

      .st146 {
        fill: #70b746;
      }

      .st147 {
        fill: #c4bc7f;
      }

      .st148 {
        fill: #47b08c;
      }

      .st149 {
        fill: #3a845c;
      }

      .st150 {
        fill: #c5da44;
      }

      .st151 {
        fill: #2b8d80;
      }

      .st152 {
        fill: #763b61;
      }

      .st153 {
        fill: #26654e;
      }

      .st154 {
        fill: #cba9a6;
      }

      .st155 {
        fill: #4b9789;
      }

      .st156 {
        fill: #cebb9a;
      }

      .st157 {
        fill: #402733;
      }

      .st158 {
        fill: #1d3a1f;
      }

      .st159 {
        fill: #8ea38a;
      }

      .st160 {
        fill: #91a298;
      }

      .st161 {
        fill: #19101a;
      }

      .st162 {
        fill: #bec6ca;
      }

      .st163 {
        fill: #6e242f;
      }

      .st164 {
        fill: #62c4b2;
      }

      .st165 {
        fill: #603e18;
      }

      .st166 {
        fill: #71507b;
      }

      .st167 {
        fill: #beb4af;
      }

      .st168 {
        fill: #99adb0;
      }

      .st169 {
        fill: #3fa481;
      }

      .st170 {
        fill: #2f1811;
      }

      .st171 {
        fill: #1d3d67;
      }

      .st172 {
        fill: #dfcaa3;
      }

      .st173 {
        fill: #8cc174;
      }

      .st174 {
        fill: #5d9287;
      }

      .st175 {
        fill: #ddd3c6;
      }

      .st176 {
        fill: #17111e;
      }

      .st177 {
        fill: #3c372c;
      }

      .st178 {
        fill: #91c83e;
      }

      .st179 {
        fill: #166a3e;
      }

      .st180 {
        fill: #a3b9c2;
      }

      .st181 {
        fill: #1a181a;
      }

      .st182 {
        fill: #6dbf53;
      }

      .st183 {
        fill: #2eb678;
      }

      .st184 {
        fill: #b2c1b6;
      }

      .st185 {
        fill: #0d9587;
      }

      .st186 {
        fill: #064938;
      }

      .st187 {
        fill: #f9f4c2;
      }

      .st188 {
        fill: #0e1421;
      }

      .st189 {
        fill: #c3d350;
      }

      .st190 {
        fill: #5f2315;
      }

      .st191 {
        fill: #652a36;
      }

      .st192 {
        fill: #f5f2a4;
      }

      .st193 {
        fill: #4c5759;
      }

      .st194 {
        fill: #06a783;
      }

      .st195 {
        fill: #f3f1f8;
      }

      .st196 {
        fill: #579361;
      }

      .st197 {
        fill: #3ea44c;
      }

      .st198 {
        fill: #743a18;
      }

      .st199 {
        fill: #5cbd70;
      }

      .st200 {
        fill: #9fa98c;
      }

      .st201 {
        fill: #87d2e3;
      }

      .st202 {
        fill: #00b58c;
      }

      .st203 {
        fill: #9fcc3b;
      }

      .st204 {
        fill: #379dac;
      }

      .st205 {
        fill: #17ad7c;
      }

      .st206 {
        fill: #88c8ae;
      }

      .st207 {
        fill: #1b1015;
      }

      .st208 {
        fill: #3ea3a2;
      }

      .st209 {
        fill: #502128;
      }

      .st210 {
        fill: #0b2222;
      }

      .st211 {
        fill: #d4c574;
      }

      .st212 {
        fill: #78ab8e;
      }

      .st213 {
        fill: #a8b4a4;
      }

      .st214 {
        fill: #71c172;
      }

      .st215 {
        fill: #47b973;
      }

      .st216 {
        fill: #141644;
      }

      .st217 {
        fill: #0f1220;
      }

      .st218 {
        fill: #0b897b;
      }

      .st219 {
        fill: #897078;
      }

      .st220 {
        fill: #1fb67d;
      }

      .st221 {
        fill: #94d4cc;
      }

      .st222 {
        fill: #68bf6c;
      }

      .st223 {
        fill: #1f1f59;
      }

      .st224 {
        fill: #77c268;
      }
    </style>
  </defs>
  <path class="st34" d="M187.6,594.9s18.1-38.9,21.1-38.6-19.2,38.6-19.2,38.6h-1.9Z"/>
  <g>
    <path class="st32" d="M178,350.4c.2,3-.1,6.1,0,9.2-5.2,8.3-4.2,20-3.8,29.4,0,.6,0,1.2,0,1.8-4.1-1.7-.7-11.3-1.9-12.9h-3.8c.3-3.3,1.6-5.2,1.9-7.3,1.3-7.5,3.5-16.6,5.8-23.9,1.9.5,1.8,2.1,1.9,3.7Z"/>
    <g>
      <g>
        <path class="st161" d="M344.9,720c.3,4.5.1,7.6-2.2,11.7s-22.1,17.6-15.9,21.4c.9.2,2.2-.4,2.7,0,2.3,1.4,4.2,5.3,5.2,5.5,3.4.7,8.3,0,12.1,0l-1.9,1.8h-17.3l-9.6-7.4c7.1-16,15.9-17.1,23-31.3.3-.5,3-1.2,3.8-1.8Z"/>
        <path class="st191" d="M318.1,753l9.6,7.4c-33.3,1-67-.5-99.8-1.8,2.3.9,4.9-1.7,5.8-1.8,21.8-3,51.9,3.8,76,1.9,3.3-.3,3.7.4,6.5-1.9,1.9-1.5,1.3-2.3,1.9-3.7Z"/>
        <path class="st163" d="M225.9,740.2l-13.4,7.4,3.9,9.1c3,.7,1-2.4,3.2-3.6s2.1.2,2.6,0c.6.7,1.2,1.3,1.9,1.8,3.3,2.5,5.5,2.2,9.6,1.8-.8.1-3.4,2.8-5.8,1.8-8-.3-16.1-1.5-23-1.8,0-.9-2.5-3.6-1.9-5.5,4.2-1.9,7-6.7,11.5-9.2s6.5-2.1,9.6-3.7c.2.9,1,1.7,1.9,1.8Z"/>
        <path class="st209" d="M402.5,758.6v1.8c-19.1.3-39.2,0-57.6,0l1.9-1.8c9.3.3,17.4-1.2,25.9-1.5,7.6-.2,15.9,4.6,24-2.2,1.8,1.3,4.2,2,5.8,3.7Z"/>
        <path class="st189" d="M245.1,549c-.5,6.2,9,8.3,0,12.9-1.1.1-2.6,1.5-3.8,1.8-5.6,0-14.2,1.3-19.2,3.7-.6,0-1.3,0-1.9,0-5.7-.8-11.5-1.8-17.3-1.8,2.2-6.3,2.9-3.7,5.8-7.4-.3,9.8,13.7-3.8,16.7-5.3,1-.5,11.4-3.8,12.1-3.9,2.2-.3,5.4-.1,7.7,0Z"/>
        <path class="st34" d="M187.6,598.6c-5.8,14.7-9.3,27.9-7.7,44.1.4.6,2.6-1.5,3.8-1.8,13.6-4.2,27.3-4.1,40.3-9.2.6,0,1.3,0,1.9,0v3.7c-11.7,2.2-23,4.4-34.5,7.4-7.8,2-13.7,7.7-15.4-4.5-2.2-15.4,4.7-30.8,11.6-43.3-.2,1.1.3,2.8,0,3.7Z"/>
        <path class="st70" d="M243.2,537.9c3.3,1.3,6.8,1.4,5.8,5.5-3.4.6-9,3-11.5,5.5-.6,0-11.1,3.4-12.1,3.9-3,1.5-17,15.1-16.7,5.3.3-.4-.3-1.5,0-1.8,12.6-7.7,19.3-14.8,34.5-18.4Z"/>
        <path class="st46" d="M220.2,567.4c1.2,4.1-2.8,3.6-5.8,5.5-1.8,1.2-4.2,2.4-5.8,3.7-7.6,6.2-16.9,16.4-19.2,25.7-.3-.9-2-2.2-1.9-3.7.3-.9-.2-2.6,0-3.7,6-10.8,11.2-17.5,15.4-29.4,5.8,0,11.6,1.1,17.3,1.8Z"/>
        <path class="st24" d="M227.9,539.8c13.6-8.3,21.2-7.9,37.5-7.4,3.7.1,7.7-1.9,6.6,3.7-6.5-.9-15.6-4.3-21.1,0-4.5.3-5,1.2-7.7,1.8-15.3,3.6-22,10.7-34.5,18.4,5.8-6.7,11.5-11.9,19.2-16.5Z"/>
        <path class="st99" d="M202.9,751.2c-.6,1.9,2,4.6,1.9,5.5-10.8-.5-9.2,1.8-23-1.8l1-9.2c12-1.9,11,9.5,20.1,5.5Z"/>
        <path class="st4" d="M341.1,721.8c-7.1,14.1-15.9,15.2-23,31.3-.6,1.4,0,2.1-1.9,3.7-4.7-1.9-10.2-4-15.3-4.7-1.4-.2-14.2-.9-15.4-.9,2.8-4.8,11.7-8,14.7-11.7,4.9-5.9,9.1-20.9,14.1-27,6.3-7.8,20.5,6.5,26.9,9.2Z"/>
        <path class="st120" d="M341.1,749.4c1.9,4.5,3.8,1.7,6.2-.2,7.3-5.8,11.3-15.3,17.8-21.8,1.9,0,10.1,9.4,12.5,11-6.4,10.1,8.4,9.4,10.9,10.6,3.2,1.5,5.5,3.9,8.3,5.9-8.1,6.8-16.4,2-24,2.2-8.5.3-16.6,1.7-25.9,1.5-3.8-.1-8.7.7-12.1,0s-3-4.1-5.2-5.5c7.5.9,7.4.4,11.5-3.7Z"/>
        <path class="st184" d="M325.7,679.5l5.7-11c.3,6.9,5.4,19.5,12.5,22,4.1,1.5,2.4-4.2,4.8-5.5-.2,1.8.2,3.7,0,5.5-.5,5.1,1.2,13.1,0,17.2-.5,1.7-3.7,1.1-3.8,1.2-.3.4,3.6,4.4,4,8.2.5,4.4-.7,8.7-2,12.9l7.6,2.8c-3.7,6.2-8.3,11.5-13.4,16.5-4.2,4.1-4,4.6-11.5,3.7-.5-.3-1.8.2-2.7,0-6.2-3.8,13.5-17.1,15.9-21.4s2.4-7.2,2.2-11.7-1.4-5.3-3.8-9.2c-8.2-13.2-11.7-14.4-15.4-31.3Z"/>
        <path class="st31" d="M316.1,697.9c4.3,7.3,14.8,14,22.1,18.4,1.9,0,.6-2.5.9-3.7s1.1-1.5,1.9-1.8c2.4,3.9,3.5,3.2,3.8,9.2-.9.7-3.6,1.3-3.8,1.8-6.4-2.7-20.6-17-26.9-9.2l1.9-14.7Z"/>
        <path class="st152" d="M224,754.9c9.2-.4,10.5-7.6,12.5-14.7l1.9,5.6,9.6-3.6c7,8.8,13.5,14.7,25.9,12.8,3.2-.5,5.6-3.3,11.5-3.7s14,.7,15.4.9c5,.7,10.5,2.8,15.3,4.7-2.8,2.3-3.2,1.7-6.5,1.9-24.1,1.8-54.2-5-76-1.9-4.1.4-6.3.6-9.6-1.8Z"/>
        <path class="st78" d="M356.4,686.9c-3.2,9.4,7.1,8.1,9.7,12.3,1,1.6,2.6,7,3.7,9.8,5.6,14.3,9.2,30.2,28.8,33.1,1.2,1.6,6.4,4,7.7,5.5.4.5.2,7,5.8,9.2-1,0-5.5,0-5.8,0-8.6-7.4-19.5-11.9-28.8-18.4-2.3-1.6-10.6-11-12.5-11-6.5,6.5-10.6,16.1-17.8,21.8s-4.2,4.6-6.2.2c5.1-5,9.7-10.4,13.4-16.5,7.2-11.8,9.6-28.7-1.9-38.6l3.8-7.4Z"/>
        <path class="st126" d="M412.1,742c1.9,1.3,4.4,1.1,5.8,1.8,5.3,2.7,3.4,2.6,9.6,3.7,7.1,1.3,14,2.3,21.1,3.7-4.6,8.3-11.2-1.2-19.2,3.7-7.6-1.2-15.9-1.2-21.1-7.4v-5.5s3.8,0,3.8,0Z"/>
        <path class="st166" d="M406.3,756.7c-.6,0-2.4,2-3.8,1.8-1.6-1.7-3.9-2.3-5.8-3.7-2.8-2-5-4.4-8.3-5.9-2.6-1.2-17.3-.5-10.9-10.6,9.2,6.5,20.2,11,28.8,18.4Z"/>
        <path class="st115" d="M429.4,754.9c-9,5.5-7.4,2.1-17.3,1.8-5.6-2.1-5.4-8.7-5.8-9.2h1.9c5.2,6.1,13.5,6.1,21.1,7.4Z"/>
        <path class="st71" d="M285.4,727.3c-3.9,2.2-5.1,6.3-8.6,9.2-5.6,4.6-19.3,7.6-15.3,14.7,3.2-.5,7.7.7,10.5,0l1.9,3.7c-12.4,1.9-18.8-4-25.9-12.8l-9.6,3.6-1.9-5.6c-1.9,7.1-3.3,14.3-12.5,14.7-.7-.5-1.3-1.2-1.9-1.8,5.3-3.1,12.7-6.1,11.5-12.9-2.5-.3-5.2.3-7.7,0s-1.7-1-1.9-1.8c5.6-2.8,8.5-2.4,11.5-3.7,4.8,6.3,11,2.9,15.4-1.8l-1.9,5.5h5.8s.9,5.5.9,5.5l15.4-9.2-7.7-1.8,1-3.7v-1.8c6.6,1.2,15.6-4.8,16.9-10.6,1.1-4.8-1.6-3.9-1.6-4.1.3-1.2,1.6-2.5,1.9-3.7.5-1.9,2.7-5.4,3.8-7.4,5.5,13.4,3.8,12.5,0,25.7Z"/>
        <path class="st125" d="M250.9,705.2c-2.4,6.8-8.3,26.5-15.4,29.4s-6,.9-11.5,3.7c-3.1,1.6-7.6,2.6-9.6,3.7,1.9-3.1.7-8.2,1.9-11,3-7,15.2-18.1,21.1-23.9,5.5.8,8.7-5.8,13.4-1.8Z"/>
        <path class="st74" d="M225.9,740.2c2.4.3,5.2-.2,7.7,0,1.2,6.7-6.2,9.8-11.5,12.9-.5.3-1.8-.4-2.6,0-2.2,1.2-.1,4.3-3.2,3.6l-3.9-9.1,13.4-7.4Z"/>
        <path class="st210" d="M291.2,521.4c.1,4.2,1.7,5.9,1.9,7.4,1.8,13.6-1.9,18.9,13.4,25.7,9.8,4.4,22.7,3.3,29.9-5.4,6.6-7.9,1-14.7-1.1-22.2-.3-1.1.3-2.8,0-3.7,2-.5,1.7-2.1,1.9-3.7l3.8,13.4,2.4,1.9,39.8-2.4c-1,0-11.6,2.6-13.4,3.7-4.3.3-10,.9-13.4,3.7-4.3.7-9.6.5-11.5,5.5,11.8.4,23.7-.4,35.5,0,2.3,0,7.1-1.4,6.7,1.8l-41.3,1.8c-2.5,0-4.5.8-6.6,1.9s-3.5,4.2-5.8,5.5c-3.1,1.7-9.8,3.5-13.4,5.5-.8,2.9,2.7,1.6,3.7,2.8,3,3.4,2.2,6.1,2,10.1-.3,1,.2,2.5,0,3.7s0,3.7,0,5.5-2.3,1.1-1.2,5.4c3.4,12.5,29,29,41.5,33.2.2,1.2-.2,2.6,0,3.7-3.6.4-6.4-.3-9.6-1.8s-4.3-2.8-5.8-3.7c-9.5-5.8-22.7-16.8-28.8-25.7-8.1,8.7-18,18.1-28.8,23.9s-10.8,3.4-17.3,7.4-3-.1-4.8,1.8-.6,3.1-1,3.7c-.8,1.3-1.3,2.5-1.9,3.7-2-.5-1.6-2.2-1.9-3.7s.3-2.5,0-3.6c-2.4.1-5.5-.5-7.7,0l-1.9-1.8c1.7-.4,3-1.6,3.8-1.8,12.8-3.7,19.9-3.5,32.6-11,10.1-5.9,15.1-10.6,21.1-20.2,3.5-5.6,3.6-7.2,5.8-12.9s5.1-6.3,3.8-11l-5.7,5.5c-.4-12.5-8.4-14.9-18.3-19.9l-10.5,8.9,3.8-6.4-3.8-.9v-1.8c7.6-5.2.9-12.8,0-18.4-.8-4.9-.6-11.7-1.9-16.5,1.9-.5,1.8-2.1,1.9-3.7h1.9c0,1.8,0,3.7,0,5.5Z"/>
        <path class="st47" d="M243.2,685c3.6-.5,11.3-.9,13.4,1.8-4,1.2-7.5,1.9-11.5,3.7-.8.3-2-.4-2.7,0l-1.1,3.7h5.8c1.2,6.8-5.5,8.8-9.6,12.9-5.9,5.8-18.2,16.9-21.1,23.9h-1.9c2-5.8-.5-16.4,5.8-22-4.9-1.8-6.5,3.1-7.7,3.7s-4.1.7-5.7,1.8v-3.7c2.1-5.3,3.6-10.3,7.7-14.7,10.3-2.5,20.6-9.9,28.8-11Z"/>
        <path class="st129" d="M256.6,670.3c-.1,1.2,0,2.5,0,3.7-1.6.4-3.9,1.3-5.8,1.8-8.2,2.6-13.4,4.8-21.1,9.2l-9.6,1.8v-3.7c8.9-7.4,18.8-13.6,26.9-22.1l9.6-3.7c-.1.9.4,8.9,0,12.9Z"/>
        <path class="st57" d="M212.5,712.6c1.1-.6,2.8-5.5,7.7-3.7-6.3,5.7-3.7,16.2-5.8,22-1.6,4.6-10.2,8.5-15.3,7.4-1.3-7.2.7-13.7,1.9-20.2l1.9,3.7c-5.7,26.4,14,5.5,9.6-9.2Z"/>
        <path class="st141" d="M268.2,635.4c-.7,1.2-1.2,2.5-1.9,3.7-2,3.6-9.2,15.7-9.6,18.4l-9.6,3.7c8.9-9.4,13.7-17.9,19.2-29.4.3,1.5,0,3.2,1.9,3.7Z"/>
        <path class="st133" d="M258.6,628c-10.6,2.2-20.8,5.1-32.6,7.4v-3.7c.2,0,1.8-1.7,3.8-1.8s1.3,0,1.9,0c11.5-.7,12.8-.6,25-3.7l1.9,1.8Z"/>
        <path class="st81" d="M220.2,683.2v3.7s9.6-1.8,9.6-1.8c-5.7,3.2-11.6,7.6-17.3,11-1.6.3-3.7,1.9-5.8,1.8,4.3-9.8,5.3-8,13.4-14.7Z"/>
        <path class="st177" d="M214.4,696.1c-4.1,4.4-5.6,9.4-7.7,14.7s-2.9,6.5-3.8,11l-1.9-3.7c1.4-7.7,2.6-13,5.8-20.2,2.1,0,4.1-1.5,5.8-1.8s1.3.1,1.9,0Z"/>
        <path class="st49" d="M273.9,536.1c5.6.7,9.3.6,14.4,3.7l1-3.7c.9,5.6,7.6,13.2,0,18.4-5.4,4.3-10.9,6.6-17.3,9.2-8-3.2,1.4-4.5-.1-9.9l-1.8-2.1-19.2-4.6,11.5-3.7c3.1-.1,6.3.5,9.3-.3l2.2-7.1Z"/>
        <path class="st6" d="M272,536.1c.6,0,1.3,0,1.9,0l-2.2,7.1c-3,.8-6.2.1-9.3.3s-5.2-.2-7.7,0l7.7-7.3c-3.8.2-7.7-.3-11.5,0,5.6-4.3,14.6-.9,21.1,0Z"/>
        <path class="st146" d="M254.7,543.5c2.5-.2,5.1,0,7.7,0l-11.5,3.7,19.2,4.6,1.8,2.1c1.5,5.3-7.9,6.7.1,9.9-2.2.9-5.3,1-7.7,1.8-6.1-.2-12.3.4-18.4,0-2.5-.1-4.4-1.9-4.6-1.9,1.2-.4,2.8-1.7,3.8-1.8,3.2-.4,16.5,1.1,15.4-4.6s-10.2-7.9-15.4-8.2c-2.3-.1-5.5-.3-7.7,0,2.5-2.5,8.2-5,11.5-5.5s3.9.2,5.8,0Z"/>
        <path class="st67" d="M222.1,567.4c10,1.1,20.3,3,30.7,1.9-2.3,4.4-5.4,1.7-5.8,7.3s0,1.2,0,1.8h-1.9c-4.9-.7-8,2.9-11.5,5.5-.8-12-11-8.3-19.2-11,3-1.9,6.9-1.4,5.8-5.5.6,0,1.3,0,1.9,0Z"/>
        <path class="st59" d="M241.3,563.7c.3,0,2.1,1.8,4.6,1.9,6.1.3,12.3-.3,18.4,0-3.3,1.1-7.1,2.4-9.6,4.6l1.9.9c-2.1.7-6.2,5.1-9.6,5.5.3-5.7,3.4-3,5.8-7.3-10.5,1.2-20.7-.8-30.7-1.9,5-2.4,13.6-3.7,19.2-3.7Z"/>
        <path class="st92" d="M245.1,549c5.2.3,14.3,2,15.4,8.2s-12.2,4.3-15.4,4.6c9-4.6-.5-6.6,0-12.9Z"/>
        <path class="st63" d="M222.1,593.1l9.6,3.7c-1,2.9-1.7,11.2-1.9,14.7-.4,6.1.3,12.3,0,18.4-2.1.1-3.6,1.8-3.8,1.8-.6,0-1.3,0-1.9,0-2.9,0-5.8-1.5-8.6-1.5-7.7,0-17.9,6.1-20.2-5.9l-7.7,5.5c4.8-6.8,12.2-18,17.3-23.9,5.6-6.5,10.5-9.3,17.3-12.9Z"/>
        <path class="st110" d="M189.5,602.3c.3,1-.2,2.5,0,3.7l2.9-3.7,12.4,3.7c-5.1,5.9-12.5,17.1-17.3,23.9-2.6,3.7-7,5.3-3.8,11-1.2.4-3.4,2.4-3.8,1.8-1.6-16.3,1.8-29.4,7.7-44.1,0,1.5,1.6,2.8,1.9,3.7Z"/>
        <path class="st86" d="M224,631.7c-13,5.1-26.7,5-40.3,9.2-3.1-5.8,1.2-7.3,3.8-11l7.7-5.5c2.3,12,12.5,5.9,20.2,5.9s5.6,1.5,8.6,1.5Z"/>
        <path class="st105" d="M250.9,536.1c3.8-.3,7.7.2,11.5,0l-7.7,7.3c-1.9.2-4-.3-5.8,0,1-4.1-2.5-4.2-5.8-5.5,2.7-.6,3.2-1.5,7.7-1.8Z"/>
        <path class="st150" d="M208.7,576.6h11.5s-3.8,3.7-3.8,3.7c2.7-.2,5.2.4,7.7,1,2.8.7,9,.5,7.6,4.5-4.5,3.4-4.4,4.6-9.6,7.4-6.8,3.6-11.7,6.4-17.3,12.9l-12.4-3.7-2.9,3.7c-.2-1.2.3-2.7,0-3.7,2.3-9.4,11.6-19.6,19.2-25.7Z"/>
        <path class="st178" d="M214.4,572.9c8.2,2.7,18.4-1,19.2,11-.7.5-1.2,1.3-1.9,1.8,1.4-4-4.8-3.8-7.6-4.5-2.6-.7-5-1.3-7.7-1l3.8-3.6h-11.5c1.6-1.3,3.9-2.5,5.8-3.7Z"/>
        <path class="st176" d="M316.1,697.9l-1.9,14.7c-4.9,6.1-9.2,21.1-14.1,27-3,3.6-12,6.9-14.7,11.7-5.9.4-8.4,3.2-11.5,3.7l-1.9-3.7c2.4-.6,7.6-5.9,9.6-7.4,12.5-8.8,29.6-22.9,28.6-39.2-.7-11.3-8.8-19.2-1.8-30.6s2.7-2.2,3.8-3.7h1.9c-4.4,8.9-3.1,19.1,1.9,27.6Z"/>
        <path class="st213" d="M350.7,677.7c-.4,2.6-1.8,6-1.9,7.4-2.3,1.3-.7,7-4.8,5.5-7.1-2.6-12.2-15.1-12.5-22l-5.7,11c-1.3-6.1-3.1-11.6-1.9-18.4.2-.2-.6-2.6,3.4-4.9,2.3-1.3,10.1-4.4,12-3.4l13.1,18.8c.9,2.9-1.4,4.6-1.7,6Z"/>
        <path class="st122" d="M352.6,694.2c11.6,9.9,9.1,26.8,1.9,38.6l-7.6-2.8c1.3-4.2,2.5-8.4,2-12.9-.4-3.8-4.3-7.8-4-8.2s3.3.5,3.8-1.2c1.1-4.1-.5-12.1,0-17.2,1.4,1.1,2.5,2.5,3.8,3.7Z"/>
        <path class="st114" d="M343,624.4c.9,1.2,2.6,3.8,3.8,5.5,4.6,6.5,7.9,15.2,15.4,20.2.2,2.7.7,6.9,1.9,9.2-.5,1.2-1.6,2.5-1.9,3.7-1.9,7.4-4.4,14.6-5.8,22.1,2.3.4,5.7-.5,7.7,0l-1.9,1.8c-1.4-.4-4,.3-5.8,0l-3.8,7.4c-1.3-1.1-2.5-2.5-3.8-3.7.2-1.8-.2-3.7,0-5.5.1-1.4,1.5-4.7,1.9-7.4,5.1,1,3.8-2.4,4.7-5.5,3.1-10.3,4.9-14.1-.9-23.9-2.7-4.5-8.2-9.7-11.5-14.7-2-3-3.8-6.2-5.8-9.2s.3-1.4,0-1.8l1-3.7c1.6,1.8,3.4,3.6,4.8,5.5Z"/>
        <path class="st136" d="M323.8,661.1c-1.1,6.8.6,12.3,1.9,18.4,3.6,16.9,7.2,18.1,15.4,31.3-.9.3-1.7,1-1.9,1.8-13.6-9.3-16.4-29.2-18.2-44.2l-6.7,1.9h-1.9c1.7-2.1,3.9-5.7,5.8-7.4s4.9-1.2,5.8-1.8Z"/>
        <path class="st159" d="M339.2,712.6c-.3,1.1.9,3.7-.9,3.7-7.3-4.3-17.8-11.1-22.1-18.4s-6.3-18.7-1.9-27.6l6.7-1.9c1.8,14.9,4.6,34.8,18.2,44.2Z"/>
        <path class="st80" d="M387.2,628c5.9,1.5,12.8,4.3,19.2,5.5v1.8c-1.2-.2-2.7.2-3.8,0-4.8-.9-31.2-8.7-32.6-7.3.7,13.1,13,21.3,19.5,31.8,3.6,5.7,5.3,14.2,9.2,18.8,5.5,6.5,21,8.4,26.9,14.7s1.4,5.3,1.9,6.4h-1.9c-1.2-7.5-19.6-11.8-26.3-16.2-2.5-1.7-4.5-3.6-6.3-5.9-4.1-5.3-9.5-17.1-13.4-23.9-3.6-6.2-9-11.5-11.5-18.4-1.5-4-1.2-5.7-1.9-9.2s.2-2.5,0-3.7c6.8,2.3,14.2,3.8,21.1,5.5Z"/>
        <path class="st15" d="M429.4,701.6v36.8c-3.6,1.2-5.4-1-7.7-1.8,2.1-10.4-4-21.8,0-31.3,5,.5,3.3-.8,3.8-3.7s0-1.3,0-1.8h1.9c.4.6,1.7,1.2,1.9,1.8Z"/>
        <path class="st42" d="M427.5,747.5c-6.2-1.1-4.3-1-9.6-3.7l3.8-.9c-1.7-2.3-5.6-4.3-6.8-6.6s1.2-3.3,1.1-3.5h1.9c.2.9-.6,2.3.3,3.4.9.9,2.8,0,3.5.3,2.3.8,4.1,3,7.7,1.8v-36.8c3.8,9.5,5.2,20.2,3.9,30.4-1,8.2-7.9,9.4-5.8,15.6Z"/>
        <path class="st162" d="M369.9,708.9v-7.3s1.9,0,1.9,0v3.7s3.9-1.8,3.9-1.8c4.1,7.9,6.4,14.2,11.5,22.1,3,4.5,8.3,12.5,11.5,16.5-19.6-2.9-23.2-18.8-28.8-33.1Z"/>
        <path class="st33" d="M389.1,720c6.4,6.4,15.8,17.1,23,22.1h-3.8s0,5.5,0,5.5h-1.9c-1.2-1.5-6.4-3.9-7.7-5.5-3.2-4.1-8.6-12-11.5-16.5-1-2.3,1.7-4.5,1.9-5.5Z"/>
        <path class="st132" d="M362.2,686.9c7,2.3,10.7,11.2,13.4,16.5l-3.8,1.8v-3.7s-1.9,0-1.9,0v7.3c-1.1-2.8-2.7-8.1-3.7-9.8-2.6-4.2-12.9-2.9-9.7-12.3,1.7.3,4.4-.4,5.8,0Z"/>
        <path class="st167" d="M389.1,714.4c4.6,3.8,9.9,7.1,14.5,10.9,4.4,3.6,3.6,10.3,10.5,5.6,0,.1.8-.6,1.9,1.8s-2.3,1.3-1.1,3.5,5.1,4.3,6.8,6.6l-3.8.9c-1.4-.7-3.9-.6-5.8-1.8-7.2-5-16.6-15.7-23-22.1.1-.6,0-1.2,0-1.8,0-1.2,0-2.5,0-3.7Z"/>
        <path class="st16" d="M308.5,674c-7,11.4,1.1,19.3,1.8,30.6,1,16.4-16.1,30.5-28.6,39.2-3.6-3,2.2-11,3.8-16.5,3.8-13.2,5.5-12.4,0-25.7-1-2.4-3.5-4.5-3.8-5.5-6.2-16-6.3-19-1.9-34.9,11.3-6.3,21,6.6,28.8,12.9Z"/>
        <path class="st156" d="M254.7,694.2c1.3-1,14.7-7.2,16.4-7.4l2.6.2c.7,1.8,1,3.7,2.1,5.4-1,1.2-3.2,2.4-3.8,3.7-5.3,10.3-13.4,28.4-21.1,36.8-4.4,4.7-10.6,8.2-15.4,1.8,7-2.9,13-22.6,15.4-29.4s1-8.8,3.8-11Z"/>
        <path class="st124" d="M268.2,712.6c-3.9,7.5-3.6,11.7-5.8,16.5-.5,1-7.2,6.1-7.7,9.2h-5.8s1.9-5.5,1.9-5.5c7.7-8.4,15.8-26.5,21.1-36.8,6,5.7-1.4,11.9-3.8,16.5Z"/>
        <path class="st154" d="M281.6,743.9c-2,1.4-7.2,6.8-9.6,7.4s-7.4-.5-10.5,0c-3.9-7.1,9.8-10.2,15.3-14.7,3.5-2.9,4.7-7,8.6-9.2-1.6,5.5-7.4,13.6-3.8,16.5Z"/>
        <path class="st83" d="M281.6,708.9c-.3,1.2-1.6,2.5-1.9,3.7-6.5,1.6-10.5,10-15.4,14.7v1.8h-1.9c2.1-4.9,1.8-9,5.8-16.5-.5,5.9,1.3,3.9,3.6.6,2.7-3.9,4-8.2,7-11.7l2.9,7.3Z"/>
        <path class="st219" d="M275.8,692.4c1.3,2.1,4.2,3.9,3.9,7.3l1.9-3.7c.4,1,2.8,3.1,3.8,5.5-1.2,1.9-3.3,5.5-3.8,7.4l-2.9-7.3c-3,3.5-4.3,7.7-7,11.7-2.2,3.2-4.1,5.3-3.6-.6,2.5-4.7,9.9-10.8,3.8-16.5.6-1.2,2.8-2.5,3.8-3.7Z"/>
        <path class="st103" d="M279.7,712.6c0,.2,2.7-.7,1.6,4.1-1.3,5.8-10.3,11.8-16.9,10.6,4.8-4.7,8.9-13.1,15.4-14.7Z"/>
        <path class="st144" d="M264.3,729.1l-1,3.7,7.7,1.8-15.4,9.2-.9-5.5c.5-3.1,7.2-8.2,7.7-9.2h1.9Z"/>
        <path class="st157" d="M245.1,690.5l9.6,3.7c-2.9,2.2-2.8,7.9-3.8,11-4.7-4-8,2.6-13.4,1.8,4.1-4.1,10.8-6.1,9.6-12.9h-5.8s1.1-3.7,1.1-3.7c.7-.3,2,.4,2.7,0Z"/>
        <path class="st113" d="M391,543.5c2.4,1,7.9,5,9.6,7.4-1.9-.6-3.9-1-5.7-1.8-3.5,5,3.6,13.7-3.8,12.9l5.7,3.6c-.4,0-1.2,1.5-1.9,1.8-.7,0-2.8,1.8-4.9,1.7l-2.8-1.7c-3.9-2.3-8.7-2.3-13.4-3.7l9.6-7.3c-13.9,0-26.1-5.7-40.3-3.7-1.1-.5-3.4.3-3.8-1.8,2.1-1,4.1-1.9,6.6-1.9l41.3-1.8c.4-3.2-4.4-1.7-6.7-1.8-11.8-.5-23.7.4-35.5,0,1.9-5,7.3-4.8,11.5-5.5,10.7-1.9,24.5-.3,34.5,3.7Z"/>
        <path class="st218" d="M306.5,554.5c-.2-5.2-6.6-5.7-8.5-11.1-1.6-4.6-.5-7.4-1.1-11,14.7,7.3,31.5,13.6,38.4-5.5,2.1,7.5,7.7,14.3,1.1,22.2-7.2,8.7-20.1,9.7-29.9,5.4Z"/>
        <path class="st45" d="M366,567.4l-5.7,2.8c3.2,3.6,5.9,9.5,7.6,13.8,5.3,13.4,8.5,21,15.7,33.7.8,1.4,3.8,6-.4,4.1-13.1-12.6-14.8-30.8-23-45.1-.8-1.4.4-4.2-3.2-5.3-10.8-.1-18.8,5.1-16,16.3l-6.7-11c-2.6,3-5.2,4.6-8.6,1.8.2-1.2-.3-2.7,0-3.7s3.9-8.6,4.3-8.9c3.3-2.4,7.9,3.9,3.4-9.5,12.2-1,22.4,6.3,32.6,11Z"/>
        <path class="st68" d="M333.4,517.7c-11.8,3.2-3.8,13.8-18.5,14.6-12.7.7-12.7-10.4-23.7-11,0-1.8,0-3.7,0-5.5l40.4-.9c1.2.6,1.3,1.9,1.8,2.8Z"/>
        <path class="st79" d="M270.1,631.7c4,2.3,3.7,7,3.9,11,1.9.3,3.8.1,5.7,0-1.8,10.4-4.6,21.2-7.7,31.3l-2-3.7c-4.4,3.7-9,2.7-13.4,3.7,0-1.2-.1-2.5,0-3.7,5.3-4.8,8.2-15.6,10.2-22.4.8-2.7,3.1-7-.6-8.8.7-1.2,1.2-2.5,1.9-3.7s1.1-2.3,1.9-3.7Z"/>
        <path class="st60" d="M293.1,618.8c10.7-5.8,20.6-15.2,28.8-23.9,6.1,8.9,19.3,20,28.8,25.7h-7.7s0,3.7,0,3.7c-1.4-1.9-3.2-3.7-4.8-5.5l-1,3.7c-.8-1.3-1.4-3-1.9-3.7-9-12-20.6,4.4-23,1.8l-1-12.9c-6.2,7.1-16.6,12.4-18.2,22.1-.8-.3-2.7.2-3.8,0,1.2-2.4,1.8-8.1,3.8-11Z"/>
        <path class="st179" d="M289.3,556.3l3.8.9-3.8,6.4,10.5-8.9c9.9,5,17.8,7.4,18.3,19.9l5.7-5.5c1.2,4.7-2.7,7.9-3.8,11l-5.7,3.7v-9.2c-8.4,1.2-8.3-9.6-21.1-9.2-2.1,0-3.1,1.6-3.8,1.8-2,.6-3.9.9-5.7,1.8v-5.5c.4-.3,2.5-6.1,5.7-7.4Z"/>
        <path class="st95" d="M341.1,587.6c2.7,6.2,1.7,7.1,5.8,12.9,6.1,8.6,17.6,11.6,19.2,18.4-16.7-5.1-33-20.1-40.3-34.9,0-1.8-.3-3.9,0-5.5,3.4,2.8,6.1,1.2,8.6-1.8l6.7,11Z"/>
        <path class="st90" d="M333.4,517.7c.5.7,1.4,4,1.9,5.5s-.3,2.6,0,3.7c-6.8,19.2-23.7,12.8-38.4,5.5-.5-2.9-.5-6.9-3.8-7.4v3.7c-.2-1.5-1.8-3.2-1.9-7.4,11.1.6,11,11.7,23.7,11,14.7-.9,6.7-11.5,18.5-14.6Z"/>
        <path class="st37" d="M343,552.6c9.8,4.5,20.3,8.1,30.7,11,4.8,1.3,9.5,1.3,13.4,3.7l-4.8,3.7c0,.5,19.2,9,8.7,9.2-7.8-4.9-16.6-9-25-12.9-10.2-4.8-20.4-12-32.6-11,2.3-1.3,4.6-4.9,5.8-5.5.5,2.1,2.8,1.4,3.8,1.8Z"/>
        <path class="st44" d="M366,626.2c.7,3.5.4,5.1,1.9,9.2-3.2,1.1-1.3,6.4-1.9,7.4s-4.6-1.9-3.8,7.4c-7.4-5.1-10.7-13.7-15.4-20.2l9.4-2,.2-3.5c3.2,1.6,6,2.2,9.6,1.8Z"/>
        <path class="st36" d="M293.1,565.5c12.9-.4,12.7,10.3,21.1,9.2v9.2s5.8-3.7,5.8-3.7c-2.1,5.7-2.3,7.3-5.8,12.9-.5-.7-1.5-1.2-1.9-1.8-3.4-5.2-3.8-11.3-8.8-16.4-4.2-4.4-10.4-4-10.4-9.3Z"/>
        <path class="st138" d="M366,618.8c.2,1.1-.2,2.5,0,3.7-12.4-4.2-38-20.7-41.5-33.2-1.2-4.3,1.2-5,1.2-5.4,7.3,14.8,23.6,29.8,40.3,34.9Z"/>
        <path class="st111" d="M293.1,618.8c-2,3-2.7,8.6-3.8,11-1.6,3.4-5.6,6.9-5.8,7.4-1-5.7-7.2-5.9-7.7-11,6.5-3.9,12.1-4.6,17.3-7.4Z"/>
        <path class="st174" d="M275.8,626.2c.5,5.1,6.7,5.4,7.7,11-.4,1.2.2,3.8,0,5.5-1.3,0-2.6,0-3.8,0-1.9,0-3.8.2-5.7,0-.3-3.9,0-8.6-3.9-11,.4-.6,0-2.6,1-3.7,1.8-1.9,3.9-1.3,4.8-1.8Z"/>
        <path class="st104" d="M417.9,549c-3.7,3.1-4.4-.4-6.7-1.7-10.5-6.2-16.9-10.1-29.7-11.1-3.4-.3-8.1-.3-11.5,0,1.8-1.1,12.4-3.7,13.4-3.7,11.5,0,25.8,10.1,34.5,16.5Z"/>
        <path class="st7" d="M289.3,556.3c-3.2,1.3-5.3,7.1-5.8,7.4-3.3,2.2-11.9,2.4-15.4,5.5-4,.2-7.7.5-11.5,1.8l-1.9-.9c2.5-2.2,6.3-3.5,9.6-4.6,2.4-.8,5.5-.9,7.7-1.8,6.4-2.6,11.9-4.9,17.3-9.2v1.8Z"/>
        <path class="st186" d="M333.4,556.3c4.5,13.4,0,7.1-3.4,9.5-.4.3-4.1,8.2-4.3,8.9.2-4,.9-6.7-2-10.1s-4.5,0-3.7-2.8c3.6-2.1,10.3-3.8,13.4-5.5Z"/>
        <path class="st28" d="M296.9,532.4c.6,3.5-.5,6.4,1.1,11,1.9,5.4,8.3,5.9,8.5,11.1-15.4-6.8-11.7-12.2-13.4-25.7v-3.7c3.4.5,3.3,4.4,3.8,7.4Z"/>
        <path class="st221" d="M293.1,613.3c-12.8,7.5-19.8,7.4-32.6,11l-1.9-1.8c5.8-1.7,11.5-3.5,17.3-5.5,5.4-1.9,9.6-2,15.4-5.5l1.9,1.8Z"/>
        <path class="st164" d="M314.2,593.1c-6,9.7-11.1,14.3-21.1,20.2l-1.9-1.8c5.1-3.1,7.7-7.6,11.5-11,.3-.2,2.3.3,3.2-.6,2.3-2.2,4-6.2,6.4-8.6.4.6,1.4,1.1,1.9,1.8Z"/>
        <path class="st135" d="M350.7,620.7c1.4.9,5.4,3.5,5.8,3.7l-.2,3.5-9.4,2c-1.2-1.7-2.9-4.3-3.8-5.5v-3.7s7.7,0,7.7,0Z"/>
        <path class="st25" d="M369.9,536.1c3.4-.3,8.1-.3,11.5,0l9.6,7.4c-10.1-4-23.8-5.5-34.5-3.7,3.4-2.8,9.1-3.3,13.4-3.7Z"/>
        <path class="st101" d="M258.6,622.5l1.9,1.8c-.9.3-2.1,1.4-3.8,1.8-12.2,3.1-13.5,3-25,3.7,2.7.9,4.3-1.4,5.8-1.8,3.7-1.2,7.8-2.6,11.5-3.7,2.8-.8,6.4-.9,9.6-1.8Z"/>
        <path class="st181" d="M283.5,642.7c-.4,2.9.6,6.6,0,9.2s-2.9,5.8-3.8,9.2c-4.4,15.9-4.3,18.9,1.9,34.9l-1.9,3.7c.4-3.5-2.5-5.2-3.9-7.3s-1.4-3.6-2.1-5.4l-2.6-.2c-1.7.2-15.1,6.3-16.4,7.4l-9.6-3.7c4-1.8,7.5-2.4,11.5-3.7,4.3-1.3,9-2,13.1-4.1.3-3.1,1.4-5.9,2.3-8.8,3.1-10.1,5.9-20.8,7.7-31.3,1.3,0,2.6,0,3.8,0Z"/>
        <path class="st147" d="M272,674c-.9,2.9-2,5.7-2.3,8.8-4.1,2.1-8.7,2.7-13.1,4.1-2.2-2.8-9.9-2.3-13.4-1.8,3.1-3,7.8-4.4,7.7-9.2,1.8-.6,4.2-1.5,5.8-1.8,4.4-1,9,0,13.4-3.7l2,3.7Z"/>
        <path class="st172" d="M206.7,710.8v3.7c1.6-1.2,4.2-1.1,5.8-1.8,4.4,14.6-15.3,35.6-9.6,9.2s2.3-7,3.8-11Z"/>
        <path class="st62" d="M250.9,675.8c0,4.8-4.6,6.2-7.7,9.2-8.2,1.1-18.5,8.5-28.8,11-.6.1-1.3-.1-1.9,0,5.7-3.5,11.5-7.8,17.3-11,7.7-4.3,12.9-6.6,21.1-9.2Z"/>
        <path class="st211" d="M256.6,670.3c.4-3.9-.1-12,0-12.9.4-2.7,7.6-14.7,9.6-18.4,3.7,1.8,1.4,6.1.6,8.8-2,6.8-4.9,17.7-10.2,22.4Z"/>
        <path class="st182" d="M268.2,569.2c3.8-.2,7.7.1,11.5,0-2.9,7.2-3.4,14.7-5.7,22.1l-15.3,17.5-21.2,19.3c-1.4.5-3.1,2.7-5.8,1.8-.6,0-1.3,0-1.9,0,.3-6.1-.4-12.3,0-18.4l3.8,9.2c-1.5-13.1,1-20.8,7.8-31.7,1.2-2,5.4-3.3,6.7-7.1s-1-3.3-1-3.5c0-.6,0-1.2,0-1.8,3.4-.4,7.5-4.8,9.6-5.5,3.8-1.3,7.5-1.6,11.5-1.8Z"/>
        <path class="st173" d="M247,578.4c0,.2,2,.4,1,3.5s-5.5,5.2-6.7,7.1c-6.8,10.8-9.3,18.6-7.8,31.7l-3.8-9.2c.2-3.6.9-11.8,1.9-14.7,2.2-6.4,9.9-12.4,13.4-18.4h1.9Z"/>
        <path class="st97" d="M245.1,578.4c-3.6,5.9-11.2,11.9-13.4,18.4l-9.6-3.7c5.2-2.7,5.1-4,9.6-7.4s1.2-1.3,1.9-1.8c3.5-2.6,6.6-6.2,11.5-5.5Z"/>
        <path class="st10" d="M289.3,650.1c2.6,0,5.6,2.1,8.4,2l2.2-3.9,3.5.4,14.7,14.4c-1.8,1.6-4,5.2-5.8,7.4-1.2,1.4-3.7,3.5-3.8,3.7-7.8-6.2-17.5-19.2-28.8-12.9.9-3.4,3.4-7,3.8-9.2,1.8.2,4.7-1.9,5.8-1.8Z"/>
        <path class="st160" d="M308.5,644.6c4.2.7,7.4,3.4,10.7,3.7,5.1.4,9.1-2.7,14.7-1.5,4.8,1.1,9.8,6.8,12.2,10.7l8.5-1.9v-7.3c5.8,9.8,4,13.7.9,23.9s.4,6.5-4.7,5.5c.2-1.5,2.5-3.1,1.7-6l-13.1-18.8c-2-1.1-9.7,2-12,3.4-4.1,2.4-3.2,4.8-3.4,4.9-.8.6-4.3.5-5.8,1.8l-14.7-14.4-3.5-.4-2.2,3.9c-2.8.1-5.9-1.9-8.4-2-1-4.7,7-7,11-6.9s7.1,1.2,8.2,1.4Z"/>
        <path class="st155" d="M343,633.5l1.9,14.7c-3.1,3.1-36-19.7-36.5-5.5h-1.9c-1-4.7,2.1-6.4,3.8-9.2,9.4-9.9,18.5.6,26.9-9.2,2,3,3.8,6.2,5.8,9.2Z"/>
        <path class="st23" d="M354.5,648.3v7.3s-8.5,1.9-8.5,1.9c-2.4-3.9-7.4-9.7-12.2-10.7-5.6-1.3-9.6,1.9-14.7,1.5-3.3-.3-6.6-3-10.7-3.7v-1.8c.5-14.2,33.4,8.6,36.5,5.5l-1.9-14.7c3.3,5,8.8,10.2,11.5,14.7Z"/>
        <path class="st171" d="M375.6,672.2c1.7,2.5,7.3,15.7,8,16.2,1.9,1.2,5.8-.3,7.3.3s6.3,2.9,7.7,3.7c1.7,1,3.5,3.9,5.8,4.6l-5.8.9c-4.6-1.5-7.6-2.3-11.5-5.5-1.5,2.8,1.9,6.5,1.9,7.4.1,3.4-1.9,5.2-1.9,5.5-3.5-2.6-2.8-6.6-3.8-9.2-2.5-6.2-6.4-10.9-9.6-16.5s-6.1-16.7-11.5-16.5c.3-1.2,1.5-2.4,1.9-3.7,1.3,2.6,9.5,9.9,11.5,12.9Z"/>
        <path class="st14" d="M362.2,663c5.4-.1,8.6,11.3,11.5,16.5.8,3.8-.3,5.7-3.8,7.4-.3-.2-4.7-1.6-5.8-1.8-2-.5-5.3.4-7.7,0,1.4-7.5,3.9-14.7,5.8-22.1Z"/>
        <path class="st58" d="M369.9,686.9c.5.3,7.2,8.4,7.7,9.2,3.1,5.6,3.9,18.1,11.5,22.1,0,.6.1,1.3,0,1.8-.2,1-2.9,3.2-1.9,5.5-5.1-7.9-7.4-14.1-11.5-22.1-2.7-5.3-6.5-14.3-13.4-16.5l1.9-1.8c1,.3,5.5,1.7,5.8,1.8Z"/>
        <path class="st87" d="M366,642.7c5.3,9.2,7,19.3,9.6,29.4-2-3-10.2-10.3-11.5-12.9-1.2-2.3-1.7-6.5-1.9-9.2-.8-9.3,3.6-6.9,3.8-7.4Z"/>
        <path class="st151" d="M337.3,622.5c.3.4-.3,1.4,0,1.8-8.4,9.8-17.5-.7-26.9,9.2,6.4-10.4,13-11.8,25-14.7.5.7,1.1,2.4,1.9,3.7Z"/>
        <path class="st117" d="M417.9,549c4.9,3.7,12.2,7.2,14.5,12.8,1.4,3.4,2.5,6.5-3,5.6-1.2-2.8-4.8-1.3-5.8-1.8-2.3-1.3-10-7.2-13.4-5.5,1.7-6.2-4.4-7.5-9.6-9.2-1.7-2.4-7.2-6.4-9.6-7.4l-9.6-7.4c12.9,1,19.3,4.9,29.7,11.1,2.3,1.4,3,4.8,6.7,1.7Z"/>
        <path class="st96" d="M429.4,567.4c4.5,10.6,10,13.4,15.7,22.6,9.9,15.8,14.7,36.1,9.3,53.8-1.2.8-2.5.8-3.9.8v-1.8c7.7-10.4,1.2-33.8-4.1-44.8-1.3-2.7-1-5.7-5.5-4.8-.6-1.2-1.2-2.5-1.9-3.7-4.6-7.5-14.3-12.5-17.3-22.1l1.9-1.8c.9.5,4.6-1,5.8,1.8Z"/>
        <path class="st21" d="M423.6,635.4c9.5,1.7,18.3,1.2,26.9,7.4v1.8c-3,0-6.5-2.1-9.6-2.8-5.3-1.3-6.6-2.6-7-2.7-4.2-.9-6.9,1.5-9.4,1.7-1,0-11.5-4-18.1-5.3v-1.8c4.7.9,11.2.8,17.3,1.8Z"/>
        <path class="st43" d="M360.3,576.6c8.2,14.3,10,32.5,23,45.1,4.2,1.9,1.2-2.7.4-4.1-7.3-12.7-10.4-20.3-15.7-33.7,7-7.3,27.3-2.6,26.9,7.3l5.7-3.7c.7.6,1.2,1.3,1.9,1.8-.7,12.2.5,24.6,0,36.8l-15.4,1.8c-6.9-1.7-14.4-3.2-21.1-5.5-.2-1.2.2-2.6,0-3.7-1.6-6.8-13.1-9.8-19.2-18.4l9.7-1c.9,6.1.2,8,7.5,10.2,5-12.2-3.8-20.9-3.8-33.1Z"/>
        <path class="st212" d="M444.7,604.1c3.9,11.6,7.7,22.4,5.7,34.9-1,1.1-22.3-10.2-26.9-3.7-6-1.1-12.6-.9-17.3-1.8-6.4-1.2-13.3-4-19.2-5.5l15.4-1.8c1.1,2.8,2.9,3.4,5.8,3.7,8.9,1,28.4,5.7,31-3.4l3.5,1.6c1.5-3.5-3.3-5.7-3.8-7.4s0-1.2,0-1.8c0-6.8,5.7-7.5,5.8-8.6.2-1.8-2.8-5.4,0-6.1Z"/>
        <path class="st72" d="M379.5,653.8l5.2,23.5,6.3,11.4c-1.6-.6-5.5.9-7.3-.3-.8-.5-6.3-13.8-8-16.2-2.6-10.1-4.3-20.2-9.6-29.4.6-.9-1.2-6.3,1.9-7.4,2.5,6.9,7.9,12.2,11.5,18.4Z"/>
        <path class="st180" d="M392.9,677.7c-5.4,8,11.1,13,15.4,16.5-3.1-.7-6.6-.6-9.6-1.8-1.4-.8-6.4-3.2-7.7-3.7l-6.3-11.4-5.2-23.5c3.9,6.8,9.4,18.6,13.4,23.9Z"/>
        <path class="st40" d="M392.9,677.7c1.8,2.3,3.8,4.3,6.3,5.9,6.7,4.4,25.1,8.7,26.3,16.2s0,1.3,0,1.8c-5.9-3.4-10.4-5.8-17.3-7.4-4.2-3.5-20.8-8.5-15.4-16.5Z"/>
        <path class="st193" d="M408.3,694.2c6.9,1.6,11.3,3.9,17.3,7.4-.5,2.8,1.1,4.2-3.8,3.7-.7,0-1.4.2-1.9,0-6.4-2.2-13.8-5-21.1-7.4l5.8-.9c-2.3-.7-4.1-3.6-5.8-4.6,3,1.2,6.5,1.1,9.6,1.8Z"/>
        <path class="st12" d="M421.7,705.2c-4,9.5,2.1,20.9,0,31.3-.8-.3-2.6.6-3.5-.3-.8-1.1,0-2.5-.3-3.4-1.5-6.2-3.1-16-1.9-22.1s3-4.1,3.8-5.5c.5.2,1.2,0,1.9,0Z"/>
        <path class="st107" d="M406.3,707.1c4.6-.2,7.5-.9,9.6,3.7-1.2,6.1.4,15.9,1.9,22.1h-1.9c-1.2-2.4-1.9-1.7-1.9-1.8-.5-1.3-1.4-2.4-1.9-3.7-2.4-6.4-4.6-13.4-5.8-20.2Z"/>
        <path class="st22" d="M402.5,707.1c-.3,0-1.4,1.7-3,1.8-3,.2-6.5-3.3-8.5-.9l21.1,19.3c.5,1.3,1.4,2.4,1.9,3.7-6.9,4.7-6-2-10.5-5.6-4.6-3.8-9.9-7.1-14.5-10.9,0-3.3-1.8-6.4-1.9-9.2s2-2.2,1.9-5.5c3.1,5.5,7.9,5.5,13.4,7.4Z"/>
        <path class="st77" d="M383.3,696.1c1,2.6.3,6.6,3.8,9.2.1,2.8,1.9,5.9,1.9,9.2s0,2.5,0,3.7c-7.6-4-8.5-16.5-11.5-22.1v-3.7s5.8,3.7,5.8,3.7Z"/>
        <path class="st149" d="M394.8,567.4c6,.1,12.5,0,19.2,0l-3.9,18.4-6.7-3.7c-2.6.3,1.1,3,.9,3.7s-1.8,1.9-1.9,3.7c-.7-.6-1.3-1.2-1.9-1.8-2.5-2.3-6.7-5.6-9.6-7.4,10.6-.2-8.6-8.7-8.7-9.2l4.8-3.7,2.8,1.7c2.1,0,4.2-1.8,4.9-1.7Z"/>
        <path class="st51" d="M400.6,550.8c5.2,1.7,11.3,3,9.6,9.2-.7.3-1,4.6-2.2,5.2-2.5,1.3-8-.2-11.2.3l-5.7-3.6c7.4.8.3-7.9,3.8-12.9,1.8.8,3.8,1.2,5.7,1.8Z"/>
        <path class="st17" d="M343,552.6c14.2-2,26.4,3.6,40.3,3.7l-9.6,7.3c-10.4-3-20.9-6.6-30.7-11Z"/>
        <path class="st158" d="M423.6,565.5l-1.9,1.8c-1.3-.1-2.6.2-3.8,0s-2.6,0-3.8,0c-6.7,0-13.2.1-19.2,0,.7-.3,1.5-1.8,1.9-1.8,3.2-.5,8.7,1,11.2-.3s1.5-4.9,2.2-5.2c3.5-1.7,11.1,4.2,13.4,5.5Z"/>
        <path class="st123" d="M360.3,576.6c0,12.2,8.8,20.9,3.8,33.1-7.3-2.2-6.6-4.1-7.5-10.2l-9.7,1c-4.1-5.8-3.1-6.7-5.8-12.9-2.8-11.2,5.3-16.4,16-16.3,3.6,1.1,2.4,3.8,3.2,5.3Z"/>
        <path class="st29" d="M366,567.4c8.4,3.9,17.2,8,25,12.9,2.9,1.8,7.1,5,9.6,7.4l-5.7,3.7c.4-10-19.9-14.6-26.9-7.3-1.7-4.3-4.5-10.2-7.6-13.8l5.7-2.8Z"/>
        <path class="st64" d="M293.1,629.9c1.7-9.7,12.1-15,18.2-22.1l1,12.9c2.5,2.6,14.1-13.8,23-1.8-12,2.9-18.6,4.3-25,14.7-1.7,2.8-4.9,4.5-3.8,9.2-2.9-2.5-10.8-11.8-13.4-12.9Z"/>
        <path class="st197" d="M293.1,565.5c0,5.4,6.2,4.9,10.4,9.3,5,5.2,5.4,11.2,8.8,16.4-2.4,2.4-4.1,6.5-6.4,8.6s-2.9.3-3.2.6c-4.7.2-7.8,3.4-11.5,5.5-3.2-2-1.9-7.6-1.9-11-.1-9.2.5-18.5,0-27.6.8-.2,1.7-1.8,3.8-1.8Z"/>
        <path class="st112" d="M283.5,563.7v5.5c1.9-1,3.8-1.3,5.8-1.8.5,9.1-.1,18.4,0,27.6-5.3,3.8-10.8,6.5-17.3,3.7.7-2.4,1.2-4.9,1.9-7.4,2.3-7.4,2.9-14.8,5.7-22.1-3.8.1-7.7-.2-11.5,0,3.4-3.1,12-3.3,15.4-5.5Z"/>
        <path class="st140" d="M293.1,629.9c2.6,1.1,10.5,10.4,13.4,12.9h1.9v1.8c-1.2-.2-7.6-1.4-8.2-1.4-4-.1-11.9,2.2-11,6.9-1,0-4,2-5.8,1.8.6-2.6-.4-6.3,0-9.2s-.4-4.3,0-5.5,4.1-3.9,5.8-7.4c1.2.2,3-.3,3.8,0Z"/>
        <path class="st19" d="M291.2,606c-.3.2-.6,1.8-2.1,2.6-4.1,2.3-10,2.1-14.3,6.6s-1,1.9,1,1.9c-5.7,2-11.4,3.9-17.3,5.5-3.2.9-6.8,1-9.6,1.8l23-25.7c6.5,2.8,12,.1,17.3-3.7,0,3.5-1.3,9,1.9,11Z"/>
        <path class="st35" d="M302.7,600.5c-3.8,3.5-6.5,7.9-11.5,11s-9.9,3.6-15.4,5.5c-2,0-2.5-.3-1-1.9,4.3-4.5,10.3-4.3,14.3-6.6,1.4-.8,1.7-2.4,2.1-2.6,3.7-2.1,6.8-5.3,11.5-5.5Z"/>
        <path class="st121" d="M273.9,591.3c-.8,2.4-1.3,4.9-1.9,7.4l-23,25.7c-3.7,1.1-7.8,2.4-11.5,3.7l21.2-19.3,15.3-17.5Z"/>
        <path class="st56" d="M398.7,697.9c7.3,2.4,14.8,5.1,21.1,7.4-.9,1.5-3.6,4.3-3.8,5.5-2.1-4.6-5-3.9-9.6-3.7s-2.6,0-3.8,0c-5.5-1.9-10.4-1.9-13.4-7.4,0-.8-3.4-4.5-1.9-7.4,3.9,3.2,6.9,4,11.5,5.5Z"/>
        <path class="st102" d="M383.3,696.1l-5.7-3.7v3.7c-.5-.8-7.2-8.9-7.7-9.2,3.5-1.7,4.6-3.6,3.8-7.4,3.2,5.7,7.1,10.3,9.6,16.5Z"/>
        <path class="st88" d="M439,589.4c.7,1.2,1.3,2.5,1.9,3.7,1.1,2.1,2.9,8.1,3.8,11-2.7.7.3,4.3,0,6.1s-5.9,1.8-5.8,8.6c-8-7.1-16.6-17.4-25-23.9v-3.7c6.1,2.7,9.7-2.4,11.5-7.4,2.9,2.8,9.7,8.6,13.4,5.5Z"/>
        <path class="st200" d="M440.9,593.1c4.4-.9,4.1,2.1,5.5,4.8,5.4,11.1,11.9,34.5,4.1,44.8-8.6-6.1-17.4-5.7-26.9-7.4,4.5-6.5,25.8,4.8,26.9,3.7,2-12.5-1.9-23.4-5.7-34.9-1-2.9-2.7-8.9-3.8-11Z"/>
        <path class="st109" d="M421.7,567.4c3,9.6,12.7,14.6,17.3,22.1-3.7,3.1-10.5-2.7-13.4-5.5-5.8-5.6-4.8-9.5-7.7-16.5,1.2.2,2.6-.1,3.8,0Z"/>
        <path class="st153" d="M408.3,593.1c0,.6,0,1.2,0,1.8s-2,2.8-2.1,6.2c0,9.2-1.1,20.1,2.1,28.7-2.9-.3-4.7-.9-5.8-3.7.5-12.2-.7-24.6,0-36.8.1-1.8,1.8-3.2,1.9-3.7,1.7,2.3,3.7,4.4,3.8,7.4Z"/>
        <path class="st169" d="M408.3,594.9c9.7,6.8,16.9,15.9,24.9,24.4,1,1,5.2,4.9,5.8,1.4.6,1.7,5.3,3.8,3.8,7.4l-3.5-1.6c-2.6,9.1-22.1,4.4-31,3.4-3.1-8.6-2.2-19.5-2.1-28.7,0-3.5,2-5.8,2.1-6.2Z"/>
        <path class="st54" d="M414,594.9c8.4,6.5,16.9,16.8,25,23.9,0,.6-.1,1.4,0,1.8-.7,3.5-4.8-.4-5.8-1.4-8-8.4-15.2-17.5-24.9-24.4,0-.6,0-1.2,0-1.8,1.9.3,4.3.7,5.8,1.8Z"/>
        <path class="st175" d="M402.5,707.1c1.3,0,2.6,0,3.8,0,1.1,6.8,3.3,13.8,5.8,20.2l-21.1-19.3c1.9-2.4,5.5,1.1,8.5.9,1.6-.1,2.8-1.8,3-1.8Z"/>
        <path class="st196" d="M417.9,567.4c2.9,7.1,1.9,10.9,7.7,16.5-1.8,5-5.4,10.1-11.5,7.4v3.7c-1.5-1.2-3.9-1.5-5.8-1.8-.2-3-2.1-5.1-3.8-7.4.1-.7-3.5-3.4-.9-3.7l6.7,3.7,3.9-18.4c1.2,0,2.6-.1,3.8,0Z"/>
      </g>
      <g>
        <path class="st0" d="M168.4,378h3.8c1.2,1.5-2.2,11.1,1.9,12.9.8,11.4,3.6,24.3,7.7,34.9,10.4,27.2,30.8,48.7,55.7,64.3,15.5,9.8,32.9,18.5,51.8,20.2-.1,1.8.2,3.7,0,5.5s0,3.2-1.9,3.7c-.6-2.2-2-4.5-2.2-7.1-15.7-1.9-34.2-7-47.7-15-11-6.5-30.4-23.3-38.4-33.1-8.9-10.9-18.5-27.3-23-40.4-4.5-13-8.9-32.5-7.7-46Z"/>
        <path class="st108" d="M385.2,497.5c-14.4,7.7-30.7,13.3-46.9,16.3-2.2,1.3-.8,3.9-1.1,5.7s0,3.2-1.9,3.7c-.6-1.5-1.5-4.8-1.9-5.5s-.7-2.2-1.8-2.8l-40.4.9h-1.9c.2-1.8-.1-3.7,0-5.5,18.8,1.7,35.7-.2,53.7-3.7,31.3-6.1,59.6-20.5,80.6-44.1.6,4.2-1.4,5.6-3.8,8.3-7.6,9-24,20.9-34.6,26.6Z"/>
        <path class="st53" d="M270.1,501.2c18.4,5.8,36.4,8.6,56.2,5.1,8.7-1.5,20.7-8.5,30.2-10.6,1.6-.4,3.9.2,5.8,0-.2.1-.9,2.1-3.3,3.2-6.6,2.8-16.3,4.7-23.5,6l7.7,1.8c-18,3.5-35,5.4-53.7,3.7-19-1.7-36.3-10.5-51.8-20.2l1.9-1.8c9,6.5,20.3,9.5,30.7,12.9Z"/>
        <path class="st130" d="M183.7,407.4c.2,4.5.2,9.6,3.8,12.9,0,.6,0,1.2,0,1.8.7,11.7,14.5,34.2,23.7,41.6,3.5,2.9,9.2,3.6,10.5,4.6s4,7.4,11.9,12.6c-.3,2.6,3.5,5.7,5.8,7.4l-1.9,1.8c-24.8-15.7-45.2-37.1-55.7-64.3,3-7.1-1.3-16.9-1.9-25.7l3.8,7.4Z"/>
        <path class="st38" d="M179.9,390.9c-.2,3-.2,6.2,0,9.2.6,8.9,4.9,18.6,1.9,25.7-4.1-10.6-6.9-23.6-7.7-34.9s0-1.2,0-1.8l1.9,9.2h1.9c-1.5-5.8,1-10.2,1.9-14.7,0,2.4.1,4.9,0,7.4Z"/>
        <path class="st201" d="M442.8,424c-4.1,10.7-9.3,21.4-15.4,31.3-.3.5.3,1.4,0,1.8-.7,1.1-1.1,2.6-1.9,3.7s-1.3,1.2-1.9,1.8c-21,23.6-49.3,38.1-80.6,44.1l-7.7-1.8c7.2-1.3,17-3.2,23.5-6s3.1-3.1,3.3-3.2c29.6-14.1,47.2-32.1,63.3-58.8,3-5,7-8.4,9.6-14.7,5.6,4.5,3.8-3.5,7.7-3.7v5.5Z"/>
        <path class="st66" d="M433.2,343.1c5-1.5,4.9,6,5.2,8.8,2.8,22.4,5.3,49.1-3.3,70.3-2.5,6.3-6.6,9.7-9.6,14.7-5.6,3.6-13.5,7.2-11.5,14.7l-1.9-5.5c-5.5-.5-6.4,6.6-8.9,10.6s-4.7,1-4.5,8.7c-9.8-1.5-11.4,11.7-20.9,6.6l-4.1,12.6-3.8-3.7c-.2,8.9-15.6,5.2-13.5,14.7-9.5,2.1-21.5,9.1-30.2,10.6-19.7,3.5-37.8.8-56.2-5.1,15.7,1.3,26.8,4.7,42.2,0,4.8-1.5,10.6-5.9,15.4-5.5.3,0-.3,2.9,4.8,1.9l1.8-3.6c10.1,5.2,4.9-2.3,8.1-3.9s12.6-3,16-1.8l-1.9-7.3c7.4,2.4,8.4-4,10-4.9,9.1-5.1,7.5-6.3,13.7-11,2.8-2.2,10-2.7,10.4-3.1,3.9-2.9,12.1-15.7,16.4-19s16.4-6.8,18-8.4c4.6-4.5-3.4-13.2,5.4-14.2l-1.2-6.4,3.9-1.1-3.6-2c2.7-4,.9-9.2,1.7-12.7,5.7-24.9,6-29.3,1.9-55.2Z"/>
        <path class="st128" d="M425.5,436.8c-16.1,26.8-33.7,44.8-63.3,58.8-1.8.2-4.1-.4-5.8,0-2.1-9.5,13.2-5.8,13.5-14.7l3.8,3.7,4.1-12.6c9.6,5.2,11.1-8.1,20.9-6.6-.2-7.7,2.4-5.4,4.5-8.7s3.4-11.2,8.9-10.6l1.9,5.5c-1.9-7.5,5.9-11.1,11.5-14.7Z"/>
        <path class="st208" d="M243.2,486.5c12.3,6,26.6,10.6,40.3,12.9,9.5,1.6,19.1,2.3,28.8,1.8-15.4,4.7-26.6,1.3-42.2,0-10.5-3.3-21.7-6.3-30.7-12.9-2.2-1.6-6-4.7-5.8-7.4,1.9,1.2,7.6,4.5,9.6,5.5Z"/>
        <path class="st119" d="M179.9,390.9c4.1,2,8.4-.4,12.3,0,8,1,28.4,7.1,33.8,12.8,4.8,5.1,7.8,13.1,15.5,15.6,5.3,1.8,7-.4,11.4-.9s5.9-.2,9.6-1.8c-2.6,7.6-10.2,3.7-15.4,7.4-8.4-2-5.9.4-13.4-5.5s-12.1-10.9-20.9-10.7l-2.1,3.4c-.3-7.9-7.4-4.3-12-6s-8.2-6.8-14.9-5.1c0,2.4,0,4.9,0,7.4l-3.8-7.4c-.2-3-.2-6.2,0-9.2Z"/>
        <path class="st106" d="M191.4,414.8c2.5,8.5,7.5,6,11.5,8.3s3.5,4.3,3.9,4.5c-6.1,10.4,5.4,18,10.8,24.6,1.6,1.9,1.6,4.9,4.4,7.7,6.3,6.5,17.4,9,19.3,21-3-1.3-30-23.8-32.7-26.6-7.8-8.4-13.6-23.2-21.1-32.2,0-.6,0-1.2,0-1.8.1-1.8-.2-3.7,0-5.5,1.3-.1,2.6,0,3.8,0Z"/>
        <path class="st48" d="M183.7,407.4c0-2.4,0-4.9,0-7.4,6.7-1.7,10.1,3.3,14.9,5.1s11.7-2,12,6l2.1-3.4c8.8-.2,15.1,6.1,20.9,10.7-1.3,0-2.6,0-3.8,0-3.9,0-10.5,1.8-12.3,1.4s-3.7-4-6.4-4.8-17.2-.4-19.7-.3-2.6-.1-3.8,0c-.2,1.8.1,3.7,0,5.5-3.6-3.3-3.7-8.4-3.8-12.9Z"/>
        <path class="st27" d="M187.6,422.1c7.5,9,13.3,23.9,21.1,32.2,2.6,2.8,29.7,25.3,32.7,26.6s1.4-.2,1.9,0v5.5c-2-1-7.7-4.3-9.6-5.5-7.9-5.1-10.3-11.2-11.9-12.6s-6.9-1.7-10.5-4.6c-9.2-7.5-23-29.9-23.7-41.6Z"/>
        <path class="st61" d="M250.9,278.7c-9.5,10.4-23.8,13.2-35,22-6.1,4.8-18.9,17.9-17.8,25.8,6.2-8.7,12.8-13.1,22.1-18.4-1.4,1.6-2.4,4.1-3.8,5.5-18.8,18.6-22.1,23.1-32.6,46-1.7,3.7-3.8,7-4.8,11-1.8,0-.8-8.7-1-11s.2-6.2,0-9.2c5.2-11.1,9.8-23.2,17.3-33.1,15.7-21,32.2-28.4,55.7-38.6Z"/>
        <path class="st85" d="M178,359.6c.1,2.3-.9,11,1,11,1-4.1,3.1-7.4,4.8-11,0,1.8,0,3.7,0,5.5s.2,2.6,0,3.7-1.4,4.9-1.9,7.4-1.3,4.7-1.9,7.4c-1,4.5-3.4,8.9-1.9,14.7h-1.9s-1.9-9.2-1.9-9.2c-.4-9.5-1.4-21.1,3.8-29.4Z"/>
        <path class="st198" d="M195.2,317.3c-7.5,9.9-12.1,22-17.3,33.1-.1-1.6,0-3.2-1.9-3.7,3.8-12,9.3-24.1,19.2-33.1,0,1.2,0,2.5,0,3.7Z"/>
        <path class="st142" d="M179.9,383.5c.7-.9,20.5-1.7,23.6-2.2,6-1.1,16.2-10.6,18.9.3l3.6-1.7c-3.8,8.3-.7,15.5,0,23.9-5.4-5.8-25.8-11.9-33.8-12.8s-8.2,2-12.3,0c.1-2.4,0-4.9,0-7.4Z"/>
        <path class="st50" d="M287.4,168.4v1.8c-9.4,3.3-15.4,10.5-15.4,20.2s3.8,16.5,13.4,16.5,5.3,0,7.7-3.7c1.7-2.6,2.5-4.1,1.9-7.4,8.7,5.8,5.8,17.4-4.8,18.5-15.4,1.6-21.1-7.6-24-20.3.6-4.7-.9-7.8,1.9-12.9,2.7-4.8,13.1-12,19.2-12.9Z"/>
        <path class="st9" d="M260.5,273.2c-3.2,1.3-7,4.4-9.6,5.5-23.5,10.2-39.9,17.7-55.7,38.6,0-1.2,0-2.5,0-3.7s0-1.2,0-1.8c18.8-20.1,38-29.8,63.3-40.4l1.9,1.8Z"/>
        <path class="st145" d="M448.6,411.1c-.6,2.6-4.5,9.6-5.8,12.9v-5.5c-3.9.2-2.1,8.2-7.7,3.7,8.6-21.2,6.1-47.9,3.3-70.3-.3-2.8-.2-10.2-5.2-8.8-2.4-15.1-6.2-26.6-15.4-40.4l1.9-3.7c20.5,32.1,38,73.7,28.8,112.2Z"/>
        <path class="st20" d="M450.5,416.6c-.5,2.4-1.2,4.9-1.9,7.4-6.2,20.6-17.9,36-28.7,46.9h0c2.5-5.2,5.1-10.5,7.6-15.7,2.2-3.4,5.2-8.7,8.4-15.3,7.7-16.2,10.3-29.2,12.7-28.8.6,0,1.4,1.1,1.9,5.5Z"/>
        <path class="st73" d="M427.5,389c-.9,5.2-4.8,14-1.9,18.4-5.5,5.4-2.4,13.9-7.8,15.7l2,6.3-5.7-1.8c1.8,9.3-5.2,9.3-9.7,13.7-14.1,13.7-37.1,32.5-54.1,42-7.2,4-18.2,4.2-22.5,12.3-4.8-.4-10.5,4-15.4,5.5-9.7.5-19.3-.2-28.8-1.8v-3.7c18.9,3.6,33,1.7,48.1-10,2.3-1.8,3.4-5.8,4-6.2s10.6-.8,17.5-4.5c29.2-15.8,53.7-37.3,64.7-67.6s2.3-1.7,2.9-3.6c1.6-4.7,1.5-9.9,3.1-14.6l3.6-.2Z"/>
        <path class="st137" d="M417.9,302.6c9.2,13.9,13,25.3,15.4,40.4,4.1,25.8,3.8,30.2-1.9,55.2l-3.8-3.7,2,11.8c0,2-3.6.6-3.9,1-2.9-4.3,1-13.2,1.9-18.4,1.4-7.6,4-9.3,1.7-19.1s-11.3-28.1-11.3-32.3,3.1-3.3,3.1-4.9c.6-13-4.2-21.8-7-33.7,1.2,1.2,3,2.3,3.8,3.7Z"/>
        <path class="st204" d="M431.3,398.2c-.8,3.5,1,8.7-1.7,12.7l3.6,2-3.9,1.1,1.2,6.4c-8.8,1-.9,9.7-5.4,14.2-1.6,1.6-15.2,6.2-18,8.4-4.3,3.3-12.5,16.1-16.4,19s-7.6.9-10.4,3.1c-6.2,4.8-4.6,6-13.7,11-1.7.9-2.6,7.3-10,4.9l1.9,7.3c-3.5-1.2-13.1.3-16,1.8s2.1,9.1-8.1,3.9l-1.8,3.6c-5.1,1-4.5-1.9-4.8-1.9,4.4-8.1,15.3-8.3,22.5-12.3,17.1-9.5,40-28.3,54.1-42,4.6-4.4,11.6-4.4,9.7-13.7l5.7,1.8-2-6.3c5.4-1.9,2.2-10.3,7.8-15.7s4,1,3.9-1l-2-11.8,3.8,3.7Z"/>
        <path class="st65" d="M254.7,484.6c5.4,2.2,12.1,5.7,17.3,7.4s6.6,2.7,11.5,3.7v3.7c-13.7-2.3-28-6.8-40.3-12.9v-5.5c3.3,1.4,8.1,2.3,11.5,3.7Z"/>
        <path class="st116" d="M346.8,370.6c-.4,2.2.3,5,0,7.4l4.8-3.6,1,1.8c-6.2,8.8-9.3,14.5-7.7,25.7-.1,0-1,1.7-1.9,1.9l-2.9-14.7c-3.6,10.4-17.6,13.5-27.8,12.8v7.4c-10.6-2-22.3.2-33.1,2.2-6.7,1.2-11.9,3-16.8,5.1s-6.2,1.4-9.6,1.8c6-3.1,6.8-6.8,9.6-11s5.2-4.3,5.8-11c5.7-6.4,21.1-6.8,27.8-1.8l2.9-3.7-3.8-1.8c12.1,3.7,9.3-2.2,13.4-4.6,7.4-4.4,8.9,4.2,17.3-10.1,6,2.2,15.6-.2,21.1-3.7Z"/>
        <path class="st118" d="M262.4,416.6c4.9-2.1,10.1-3.9,16.8-5.1,10.8-2,22.5-4.2,33.1-2.2v-7.4c10.2.7,24.3-2.5,27.8-12.8l2.9,14.7c.9-.2,1.7-1.9,1.9-1.9,1,.1,10.6,12.7,11.5,14.7-1.7-.5-4.4-2.7-7.7-3.7-6.1-1.8-10.3-2.7-17.3-1.8l1.9,7.3c-1.9,1.5-21.8,1.1-25.6,1.9-11.4,2.5-25,5.1-38.6,7.4-4.4.8-8.5,5.5-14.5,3.5,2.9-6.8-2.9-6.2-7.7-7.3,5.2-3.7,12.7.3,15.4-7.4Z"/>
        <path class="st39" d="M348.8,412.9h-3.8s0,7.4,0,7.4c-.7,0-6.6,8.4-11.3,5.2l-2.1-3.3c-4.8,16.8-13.8,10.7-25.6,11.6-7.3.6-14.2,2.6-21.3,3.3-6,.6-26,2.3-30.7,1.5-9.4-1.6-12.4-10.1-22.3-9.1,2.3-10-8.1-1.2-13.4-3.7l11.5-7.3c1.3,0,2.6,0,3.8,0,7.6,5.9,5,3.5,13.4,5.5,4.8,1.1,10.5.5,7.7,7.3,6,2,10.1-2.8,14.5-3.5,13.6-2.3,27.2-5,38.6-7.4,3.8-.8,23.7-.4,25.6-1.9l-1.9-7.3c6.9-.8,11.1,0,17.3,1.8Z"/>
        <path class="st52" d="M262.4,405.6v1.8c-2.8,4.3-3.6,7.9-9.6,11-4.3.6-6.1,2.7-11.4.9-7.7-2.6-10.7-10.5-15.5-15.6-.7-8.4-3.8-15.6,0-23.9h1.9c-5.7,23.5,14,53.3,34.5,25.7Z"/>
        <path class="st194" d="M220.2,431.3c.2.1,3.7,3.5,3.8,3.7,1.8,2.9,3.6,11,8.2,14.2,1.3.8,25.7,10.8,28.2,11.6-2.5,7.8-6.5,15.4-5.8,23.9-3.4-1.4-8.2-2.3-11.5-3.7s-1.4.2-1.9,0c-1.9-12.1-13.1-14.5-19.3-21s-2.8-5.8-4.4-7.7c-5.4-6.5-16.9-14.2-10.8-24.6,3.4,1.8,11.4,2.7,13.4,3.7Z"/>
        <path class="st220" d="M229.8,418.4l-11.5,7.3c5.3,2.5,15.8-6.3,13.4,3.7-3.9.4-7.6,1.5-11.5,1.8-2-1-10.1-1.9-13.4-3.7-.4-.2-1.6-3.1-3.9-4.5-3.9-2.4-8.9.2-11.5-8.3,2.5-.1,18.6,0,19.7.3,2.8.8,4.2,4.4,6.4,4.8s8.4-1.4,12.3-1.4Z"/>
        <path class="st1" d="M312.3,253l3.8.9c-3.2,2-5.3,6-7.7,8.3-2,1.9-7.2,5.8-9.6,7.4-22.6,14.2-55.1,25.2-78.7,38.6-9.3,5.3-15.9,9.6-22.1,18.4-1.1-7.8,11.7-20.9,17.8-25.8,11.2-8.8,25.5-11.6,35-22,2.6-1.1,6.4-4.2,9.6-5.5,15.8-6.7,37-10,51.8-20.2Z"/>
        <path class="st93" d="M300.8,273.2c-6,1.8-5.1,9.3-9.6,11.9s-16.8,1.3-24.4,4.3c-8.4,3.3-13.3,11.6-19.9,15.9-6.8,4.4-21.4,6.2-28.6,12l-1.9-3.7c1.4-1.4,2.4-3.9,3.8-5.5,23.6-13.4,56.1-24.4,78.7-38.6.4,1.2,1.8,2.7,1.9,3.7Z"/>
        <path class="st8" d="M218.3,317.3c-2.9,2.4-5.7,7.9-8.3,10.4s-3.6-.4-9,8c-4.5,7-7.8,12.8-11.5,20.2s-3.1,6.7-5.8,9.2c0-1.8,0-3.7,0-5.5,10.5-22.9,13.9-27.4,32.6-46l1.9,3.7Z"/>
        <path class="st98" d="M329.6,289.7c-4.3,4.6-7.2,17.4-11,23.4-1.7,2.6-10.8,13.1-13.1,15.1s-7.6,5.3-8.1,5.4c-8.3,3.1-32.7,7.9-41.8,9.3s-13.6-1.1-18.7.4-4.1,5.8-5.6,6.6c-11.2,6.2-16.1,3.6-26.9,4.5-10.8.9-11.4,11.4-20.6,14.3.2-1.1,0-2.5,0-3.7,2.6-2.5,4.2-6.1,5.8-9.2l14.8-14.8c16.5.3,35.7-3.7,50.9-9.7,5.4-2.1,8.7-8.7,16.8-6.9l-3.8-3.6c15.3-1.1,25.9-7.7,33-20.8,3.6-6.7,8.6-19.8,11.1-27l14.5,3.5,1.2,11.8,1.5,1.2Z"/>
        <path class="st94" d="M341.1,282.4c-2.7,10.7-1.5,25.3-3.8,33.6-.5,1.9-4,2-4.6,3.1-1.7,3.3-2.4,12.2-4.9,15.4s-13,1.7-7.8,10.4c-8.3-2.3-7.7,5.7-15.4,5.5l1.9,5.5c-4.8,2.5-6.3-3.8-6.8-3.8-2.9,0-11.9,3.8-16.2,3.8-7.2-3.5-17.9-5.4-22-11-3.9,3.4-10.5,4.9-15.8,6.6-11.3,3.7-27.1,6-38.3,11.4-8.8,4.2-14.5,13-25.5,13.2.5-2.4,1.7-6,1.9-7.4,9.2-2.9,9.8-13.4,20.6-14.3,10.8-.9,15.7,1.7,26.9-4.5,1.5-.8,1.5-5.4,5.6-6.6s12.9.4,18.7-.4c9.1-1.3,33.4-6.2,41.8-9.3s7.7-5.1,8.1-5.4c2.3-2,11.5-12.5,13.1-15.1,3.8-6,6.8-18.9,11-23.4,1.5-1.6,9.3-4.6,11.5-7.4Z"/>
        <path class="st224" d="M181.8,376.1c11-.2,16.7-9,25.5-13.2,11.2-5.4,27-7.7,38.3-11.4s11.9-3.2,15.8-6.6c4.1,5.7,14.8,7.5,22,11s5,8.6,13.4,5.5c-.9.2-2.9,2.3-5.6,2.8-7.3,1.4-14.4,1.6-21.2,4.6,2,4,3.4,7.9-1,11l-7-10.7c-3.6-2.1-6.4,1.4-7.3,1.5s-1.3,0-1.9,0c-8,.5-22.3-1.7-25,9.2h-1.9l-3.6,1.7c-2.7-10.9-12.8-1.4-18.9-.3-3.1.6-22.9,1.3-23.6,2.2.6-2.7,1.4-5.1,1.9-7.4Z"/>
        <path class="st165" d="M306.5,164.7c12,1,17.8,5.1,26.9,11l-1.9,3.7c-3.5-2.4-7-5-11.5-5.5-8.3-6.9-22.8-7.1-32.6-3.7v-1.8c0-.6,0-1.2,0-1.8,6.2-1.9,12.8-2.4,19.2-1.8Z"/>
        <path class="st131" d="M310.4,183.1c8.1,4,12.4,6.3,19.2,12.9,1.3,2.6,3.1,7.5,5.8,9.2.1,3.7-.2,7.4,0,11s0,4.9,0,7.4l-3.6.2c-.3,7.5-4.1,10.9-7.9,16.3l-1.9-1.8c12.7-19.7,6.4-43.4-15.4-53.3.2,0,1.8-2.5,3.8-1.8Z"/>
        <path class="st76" d="M298.9,177.6c4,1.6,7.7,3.6,11.5,5.5-2-.7-3.6,1.8-3.8,1.8-.9,0-2.8-2.1-6.2-1.5-8.4,1.5-13.4,13.7-7.2,19.9-2.3,3.6-3.1,3.7-7.7,3.7-6.1-7.3-6.6-9.7-3.8-18.4,2.7-8.5,9.2-8.9,17.3-11Z"/>
        <path class="st190" d="M323.8,240.1c-3.3,4.6-6.7,9.5-11.5,12.9-14.8,10.2-36,13.5-51.8,20.2l-1.9-1.8c19.3-8.1,51.6-14.8,63.3-33.1l1.9,1.8Z"/>
        <path class="st192" d="M320,173.9c-.6,0-8.8,1.5-11.5,1.8-4.3.6-5.3.7-9.6,1.8-8.1,2.2-14.6,2.5-17.3,11l-2.9-5.5-3.2,7-3.5.3c0-9.7,6-16.9,15.4-20.2,9.8-3.5,24.3-3.3,32.6,3.7Z"/>
        <path class="st26" d="M281.6,188.6c-2.8,8.7-2.3,11.1,3.8,18.4-9.6,0-13.4-8-13.4-16.5l3.5-.3,3.2-7,2.9,5.5Z"/>
        <path class="st207" d="M354.5,196c18.4,22.8,29.6,44.1,45.3,67.9,18.6,28.3,41.4,53.1,50.7,86.6.2,6.3,3.8,15.2,3.8,19.3v34.9c0,1.9-3.3,9-3.8,12l-1.9-5.5c9.2-38.4-8.3-80.1-28.8-112.2s-15.9-20.6-23-31.3c-13-19.6-22-43-40.3-58.8-1-2.4-3.6-6.7-3.8-7.4s.1-1.2,0-1.8c-.3-1.5.2-3.2,1.9-3.7Z"/>
        <path class="st168" d="M419.8,298.9l-1.9,3.7c-.9-1.3-2.7-2.5-3.8-3.7l-17.3-29.4v-1.8c7.1,10.7,16,20.2,23,31.3Z"/>
        <path class="st100" d="M417.9,407.4c-11,30.2-35.5,51.8-64.7,67.6-6.9,3.7-16.7,4-17.5,4.5s-1.7,4.4-4,6.2c-15.1,11.7-29.2,13.6-48.1,10s-7.2-2.3-11.5-3.7c7.4-3.7,4.9-9.3,7.5-13.5s38.5-12,45.3-12.2c4.7-.1,9.8,3.4,15.1,1.6,2.4-.8,2.2-4.1,4.6-5.2,6-2.8,17.5-3.1,25.2-6.7,3-1.4,31.6-25.8,32.6-27.6,3.4-5.8,2.8-19.3,6-26.5l5.7-3.7,3.9,9.2Z"/>
        <path class="st185" d="M417.9,337.5c0,4.2,9.9,26,11.3,32.3,2.2,9.8-.4,11.6-1.7,19.1l-3.6.2c-1.6,4.7-1.6,9.9-3.1,14.6-.6,1.9-2.7,3-2.9,3.6l-3.9-9.2-5.7,3.7c-6.2-2.3-1.7-6.8-3.9-11.4-2.5-5.1-3.8-1.5-3.8-12.5s6.1-29.6,3.8-38.6l13.4-1.8Z"/>
        <path class="st139" d="M396.7,269.5l17.3,29.4c2.7,11.8,7.5,20.7,7,33.7s-3.1,4.1-3.1,4.9l-13.4,1.8c-4.8-19.2-2.7-29.9-4.9-48-.6-4.5-7.9-26-12.3-27.4v-5.5c2,2.9,7.4,7.5,9.6,11Z"/>
        <path class="st143" d="M400.6,378c0,11,1.3,7.4,3.8,12.5,2.2,4.6-2.3,9.1,3.9,11.4-3.1,7.2-2.5,20.6-6,26.5-1.1,1.8-29.6,26.2-32.6,27.6-7.7,3.6-19.2,3.9-25.2,6.7s-2.2,4.4-4.6,5.2c-5.3,1.8-10.4-1.7-15.1-1.6-6.8.2-42.5,7.9-45.3,12.2s-.1,9.8-7.5,13.5c-5.1-1.7-11.9-5.2-17.3-7.4-.8-8.5,3.3-16.1,5.8-23.9,20.8,6.1,56-4.9,76.8-6.3,4.6-4.9,16.9-4.1,20.5-9s1.6-6.3,2.9-9.2c2-4.4,7.6-5.3,3.4-12.4,5.6-2.9,13.3-3.2,16.5-5.4.4-.2,5.9-5.5,6.1-5.9.5-1.2-1.6-7.2-1.4-8.9s0-1.2,0-1.8c5,1,3.9-2.4,5.2-5,3-6.2,5.8-13.4,10.2-18.9Z"/>
        <path class="st215" d="M356.4,245.6c2.7,12.3,16.3,20.1,22.7,30.6s5.4,16.8,9.9,24.5c-.1.6.1,1.3,0,1.8-2.6,11.6,1.7,11.4,1.2,18.4-1.1,14.4-7.3,27.6-13.9,40.2s-3.7,4-.6,7.6c-2.6-.9-14.2,0-17.4.8-5.5,1.5-3,3.8-3.7,4.7s-1.5,1.2-1.9,1.8l-1-1.8-4.8,3.6c.2-2.3-.4-5.2,0-7.4,1.9-9.8,10.8-9.6,11.5-18.4l5.7,1.9c1.3-.9,4.9-14.7,6-16.9,2.2-4.5,11.5-6.3,3.7-15.3,8-1.7.6-2.5.6-5.4s2.6-2.7,2.6-4c.2-9.4-1.6-17.9-3.6-27.1l-9.2-4.9,5.7-1.8c-3.6-6.1-5.5-10.9-13.4-7.3,0-8.6,0-17.2,0-25.7Z"/>
        <path class="st214" d="M327.7,354.1l3.8,12.9c-7.3,3-2.7,2.2-5.8,7.4-8.4,14.3-9.8,5.7-17.3,10.1s-1.4,8.4-13.4,4.6l3.8,1.8-2.9,3.7c-6.6-5-22.1-4.6-27.8,1.8.7-8.1-1.5-11.9-5.8-18.4s-4.8-5.8-7.7-7.4c.9,0,3.7-3.6,7.3-1.5l7,10.7c4.4-3.1,3-7,1-11,6.9-3,14-3.2,21.2-4.6s4.7-2.6,5.6-2.8c6-1.3,11.9,1.4,17.9-.4s4.5-4.6,7.2-6,5-.6,5.7-.9Z"/>
        <path class="st199" d="M356.4,245.6c0,8.6,0,17.2,0,25.7,7.9-3.6,9.8,1.3,13.4,7.3l-5.7,1.8,9.2,4.9c2,9.2,3.8,17.7,3.6,27.1s-2.6,2.9-2.6,4c0,2.9,7.4,3.7-.6,5.4,7.9,9-1.5,10.9-3.7,15.3-1.1,2.2-4.7,16.1-6,16.9l-5.7-1.9c-.8,8.8-9.7,8.7-11.5,18.4-5.5,3.5-15.1,5.8-21.1,3.7,3-5.2-1.5-4.4,5.8-7.4,9-3.7,12-4.3,11.5-14.7l7.6,1.8c-3.8-7.5,2.6-8.2,3.4-9.7s-1.1-3.4.2-6c2.7-5.5,8.7-7.4,9.4-8.5s2.6-16.4,2.5-17.3c-.2-3.5-3.9-2.5-3.9-3.5,1-10.8-.2-8.3-1.5-16.7-.4-2.3,1.7-7.9,1.3-8.3s-3.8.6-5.2-.4c-5-3.3-1.2-35.9-2.4-43.8h1.9c0,1.8,0,3.7,0,5.5Z"/>
        <path class="st217" d="M379.5,403.7c-1.9-5.8,3.5-15.1-5.1-18.1s-4.9,3.4-8.2,6.3c-5.3,4.7-12.1,5.5-9.4,14.2,2.4,7.7,10.4,6.9,16.9,5-2.5,2.3-4.5,4.1-7.7,5.5-2.9,0-4.9,1.3-9.6,0-.9-2-10.5-14.6-11.5-14.7-1.7-11.3,1.5-17,7.7-25.7.4-.6,1.4-1.1,1.9-1.8h1.9l.9,11.1c12.9,6.1,11.8-4.9,6.8-13,.3,0,1.2-1.6,2.8-1.6,13.6-.1,17.5,14.1,16.4,24.7-.6,5.5-2.3,5.2-3.9,8.2Z"/>
        <path class="st75" d="M268.2,396.4c-.5,6.7-3.2,7.2-5.8,11v-1.8c1.1-5.7,2-10.6,1.9-16.5s-1.8-7.3-1.9-11c4.3,6.4,6.4,10.3,5.8,18.4Z"/>
        <path class="st205" d="M385.2,403.7c-.1,1.7,1.9,7.7,1.4,8.9s-5.7,5.7-6.1,5.9c-3.2,2.2-10.8,2.6-16.5,5.4s-4.9,3.9-7.7,5.5l-7.7-2.7c6.7-1.8,6.7-2,7.7-8.3-6-3.3-8.3,3.7-8.8,3.7-1.2,0-2.3-1.9-2.7-1.9v-7.4s3.8,0,3.8,0c3.3,1,6,3.2,7.7,3.7,4.7,1.3,6.7,0,9.6,0s2.8,1.8,4.8,1.6c9.8-.9,8.8-9.1,14.4-14.5Z"/>
        <path class="st11" d="M344.9,420.3c.4,0,1.5,1.9,2.7,1.9s2.8-7,8.8-3.7c-1,6.2-1,6.5-7.7,8.3l7.7,2.7c-3.4,2-18.5,8.7-20.5,9.1-3.9.9-8.7-.6-12.8,0l-1.2,3.7-2.8-3.7h-3.9s1,3.7,1,3.7c-10.3-5-17.8,1.3-28.3,3.2-6.4,1.2-14.6,2.5-20.6.4l1,3.7c-.9.7-11.7-3.2-13.8-3.9-8.4-2.7-8.1-.4-13.6-1.6-1.5-.3-1.5-3-2.8-3.5-4.6-1.8-9.9-1.8-13.9-5.6-.1-.2-3.6-3.6-3.8-3.7,3.9-.3,7.6-1.4,11.5-1.8,9.8-1.1,12.8,7.4,22.3,9.1,4.7.8,24.7-.9,30.7-1.5,7.1-.7,14-2.8,21.3-3.3,11.8-.9,20.8,5.2,25.6-11.6l2.1,3.3c4.7,3.2,10.6-5.2,11.3-5.2Z"/>
        <path class="st188" d="M252.8,370.6c-.2.9-1,1.8-1.9,1.8-16.2,1.4-7.8.9-11.5,9.2-1.1,2.4-4,3.8-4.8,5.6s.4,20.3,1.3,21.8,4.2,1.7,5.4,2.1c6.3,2,10.5-.2,15.4-5.5,5.2-5.8,3.9-10.7,7.7-16.5.1,5.9-.8,10.8-1.9,16.5-20.6,27.6-40.2-2.3-34.5-25.7,2.6-10.9,17-8.7,25-9.2Z"/>
        <path class="st202" d="M364.1,424c4.2,7-1.4,8-3.4,12.4-1.3,2.9-1.4,7.2-2.9,9.2-3.7,4.9-15.9,4.1-20.5,9-20.8,1.4-56,12.4-76.8,6.3-2.5-.8-27-10.7-28.2-11.6-4.7-3.2-6.5-11.3-8.2-14.2,4,3.8,9.2,3.9,13.9,5.6,1.4.5,1.3,3.2,2.8,3.5,5.5,1.2,5.2-1.1,13.6,1.6,2.2.7,12.9,4.5,13.8,3.9l-1-3.7c6,2.1,14.2.7,20.6-.4,10.5-1.9,18.1-8.2,28.3-3.2l-1-3.7h3.9s2.8,3.7,2.8,3.7l1.2-3.7c4.1-.6,8.9.9,12.8,0s17.2-7.2,20.5-9.1c2.8-1.6,4.9-4.1,7.7-5.5Z"/>
        <path class="st187" d="M335.3,223.6c.3,9.6-.6,10.5-1.9,18.4-1.5,2.3-3.7,3.8-5.8,5.5-6.2,5.1-12,12.2-19.2,14.7,2.4-2.2,4.5-6.3,7.7-8.3l-3.8-.9c4.8-3.3,8.2-8.2,11.5-12.9,3.8-5.4,7.6-8.8,7.9-16.3l3.6-.2Z"/>
        <path class="st203" d="M316.1,264c-3.9,3.8-10.3,9.7-15.4,11,0-.6,0-1.3,0-1.8-.1-1-1.5-2.5-1.9-3.7,2.4-1.5,7.5-5.4,9.6-7.4,7.2-2.5,13-9.6,19.2-14.7.2,6-7.1,12.2-11.5,16.5Z"/>
        <path class="st91" d="M300.8,275c-1.8,18.1-7.6,22.6-23.1,29.9-7.9,3.7-15,9.5-20.6,11.9-9.4,4-24.1,4.1-33.2,6.8s-17.4,9-22.9,12c5.3-8.3,5.6-4.7,9-8s5.4-8.1,8.3-10.4c7.2-5.9,21.8-7.6,28.6-12,6.7-4.3,11.5-12.6,19.9-15.9,7.5-3,18.5-1,24.4-4.3s3.6-10.1,9.6-11.9c0,.6,0,1.3,0,1.8Z"/>
        <path class="st127" d="M312.3,273.2c-2.5,7.2-7.6,20.3-11.1,27-7,13.1-17.7,19.7-33,20.8l3.8,3.6c-8.1-1.9-11.4,4.8-16.8,6.9-15.2,5.9-34.4,9.9-50.9,9.7l-14.8,14.8c3.7-7.4,7.1-13.3,11.5-20.2,5.5-3.1,17.6-10.4,22.9-12,9.1-2.7,23.8-2.8,33.2-6.8,5.6-2.4,12.7-8.2,20.6-11.9,15.5-7.3,21.3-11.8,23.1-29.9,5.1-1.4,11.4-7.2,15.4-11-.9,3.2-2.7,6-3.8,9.2Z"/>
        <path class="st84" d="M335.3,253c2.7,7.6,7.7,15.2,9.2,23.4s-3.1,4.4-3.5,6c-2.2,2.8-10,5.7-11.5,7.4l-1.5-1.2-1.2-11.8-14.5-3.5c1.1-3.2,2.9-6,3.8-9.2,4.4-4.3,11.7-10.6,11.5-16.5,2.1-1.7,4.2-3.2,5.8-5.5-.9,5.3.4,6.9,1.9,11Z"/>
        <path class="st3" d="M335.3,253c14.3,1.5,14.6,6.9,15.5,19.3s-.5,19.9,0,29.5c.2,3.8,3.2,15.7,2.9,17.7-.5,3.5-5.4,4.1-7.3,7.6-1.4,2.6.2,6.5-2.6,10.4s-15.1,16.1-16.1,16.7-3.5-.2-5.7.9-4.1,5.1-7.2,6c-5.9,1.7-11.9-.9-17.9.4-8.5,3.1-11.1-4.4-13.4-5.5,4.4,0,13.4-3.8,16.2-3.8.5,0,2,6.3,6.8,3.8l-1.9-5.5c7.7.1,7.1-7.9,15.4-5.5-5.2-8.7,5.5-7.5,7.8-10.4s3.2-12.1,4.9-15.4,4.1-1.2,4.6-3.1c2.2-8.3,1.1-23,3.8-33.6s4-3.4,3.5-6c-1.6-8.1-6.5-15.8-9.2-23.4Z"/>
        <path class="st41" d="M262.4,378c.1,3.7,1.8,7.3,1.9,11-3.8,5.8-2.5,10.8-7.7,16.5v-8.3c-5.8-3.1-12.4-5.2-19.2-4.6l3.8,18.4c-1.2-.4-5.2-1.7-5.4-2.1-.9-1.5-2.3-19.5-1.3-21.8s3.7-3.1,4.8-5.6l2,5.4c9.7,1,10.3-7.3,9.5-14.6.9,0,1.8-1,1.9-1.8.6,0,1.3,0,1.9,0,2.9,1.5,5.9,4.7,7.7,7.4Z"/>
        <path class="st13" d="M320,173.9c4.5.5,8,3.1,11.5,5.5s5.5,5.3,7.7,7.4c-3.4,4.2-9.4,1.2-13.4,0-6.7-2.1-12.8-6-17.3-11,2.7-.4,10.9-1.9,11.5-1.8Z"/>
        <path class="st170" d="M354.5,196c-1.8.5-2.2,2.1-1.9,3.7-4.8-4.1-8.8-8.6-13.4-12.9-2.2-2-5.4-5.8-7.7-7.4l1.9-3.7c11.4,7.4,13,10.2,21.1,20.2Z"/>
        <path class="st222" d="M335.3,216.2c10-2.7,5.8,11.8,8,14.4,1.6,1.8,9.7.2,11.2,9.5,1.3,7.9-2.6,40.5,2.4,43.8,1.5,1,4.9,0,5.2.4s-1.6,5.9-1.3,8.3c1.3,8.4,2.5,5.9,1.5,16.7s3.7,0,3.9,3.5c0,.9-2,16.5-2.5,17.3-.7,1-6.7,3-9.4,8.5s.4,4.8-.2,6-7.2,2.2-3.4,9.7l-7.6-1.8c.5,10.5-2.5,11-11.5,14.7l-3.8-12.9c1-.6,15.2-15.3,16.1-16.7,2.7-3.9,1.2-7.8,2.6-10.4,1.9-3.5,6.8-4.2,7.3-7.6.3-2-2.8-13.8-2.9-17.7-.4-9.6.7-20.5,0-29.5s-1.2-17.8-15.5-19.3c-1.5-4.1-2.8-5.7-1.9-11,1.3-7.9,2.2-8.8,1.9-18.4s.1-4.9,0-7.4Z"/>
        <path class="st30" d="M339.2,186.8c4.7,4.3,8.6,8.8,13.4,12.9.1.6-.2,1.3,0,1.8-2.6,2.2-5.9,3.6-5.8,7.4-1.3-1.5-10.6-3.1-11.5-3.7-2.6-1.6-4.4-6.6-5.8-9.2-1.5-2.9-2.7-6.2-3.8-9.2,4.1,1.2,10,4.2,13.4,0Z"/>
        <path class="st82" d="M346.8,208.8c.8.8,4.2,10.7,5.8,12.9,1.6,4.6,2.1,10.3,3.8,14.7v3.7h-1.9c-1.5-9.4-9.6-7.7-11.2-9.5-2.3-2.5,2-17.1-8-14.4-.2-3.7.1-7.4,0-11,.9.6,10.2,2.2,11.5,3.7Z"/>
        <path class="st55" d="M308.5,175.7c4.5,5,10.6,9,17.3,11,1.2,3,2.4,6.3,3.8,9.2-6.8-6.6-11.1-8.9-19.2-12.9-3.8-1.9-7.5-3.9-11.5-5.5,4.3-1.1,5.3-1.2,9.6-1.8Z"/>
        <path class="st5" d="M356.4,208.8c3.9,9.2,8,13.5,13.4,22.1,0,2.7-1.1,4.7-3.8,5.5-2.6-3.9-10-10-13.4-14.7-1.6-2.1-5-12-5.8-12.9-.2-3.7,3.1-5.2,5.8-7.4.2.7,2.8,4.9,3.8,7.4Z"/>
        <path class="st206" d="M396.7,267.7v1.8c-2.2-3.5-7.6-8.1-9.6-11-5.7-8.4-11.6-18.7-17.3-27.6s-9.5-12.9-13.4-22.1c18.3,15.8,27.3,39.3,40.3,58.8Z"/>
        <path class="st205" d="M387.2,264c4.4,1.4,11.8,22.9,12.3,27.4,2.2,18.1.1,28.8,4.9,48,2.3,9-3.8,28-3.8,38.6-4.4,5.5-7.1,12.6-10.2,18.9s-.2,6-5.2,5c.2-7.3,3.7-13.8,0-22.1,11.1-2.8,2.4-4,2.3-4.5-1.3-11.8,3.7-17.9,5.2-27.8,2-13.5,2.3-32.3-3.7-44.9.1-.6-.1-1.3,0-1.8.5-2.1,3.5-6,3.7-8.4s-3.1-.7-4.3-3.1c-2.8-6-5.2-21.6-10.9-27.1l1.9-1.8c6.2,7.4,5.8,3.1,7.7,3.7Z"/>
        <path class="st134" d="M387.2,258.5v5.5c-1.9-.6-1.5,3.7-7.7-3.7s-8.2-16.3-13.4-23.9c2.8-.8,3.8-2.8,3.8-5.5,5.7,8.9,11.6,19.2,17.3,27.6Z"/>
        <path class="st148" d="M375.6,368.8c.7.2,9.3,10.4,9.6,11,3.7,8.3.2,14.7,0,22.1,0,.6,0,1.2,0,1.8-5.6,5.4-4.6,13.6-14.4,14.5s-4-1.6-4.8-1.6c3.2-1.5,5.1-3.3,7.7-5.5s2.7-1.3,3.9-2.7c1.4-1.7,1.2-3.5,1.8-4.7,1.7-3.1,3.3-2.7,3.9-8.2,1.1-10.6-2.9-24.8-16.4-24.7-1.6,0-2.5,1.6-2.8,1.6-2.7.3-5.3.3-7.7,1.8h-1.9c.7-.8-1.8-3.2,3.7-4.7s14.9-1.7,17.4-.8Z"/>
        <path class="st183" d="M389.1,302.6c5.9,12.6,5.7,31.4,3.7,44.9-1.5,9.9-6.5,16-5.2,27.8,0,.5,8.8,1.7-2.3,4.5-.3-.7-8.9-10.8-9.6-11-3.1-3.5-.9-4.7.6-7.6,6.6-12.6,12.8-25.8,13.9-40.2.5-7-3.8-6.9-1.2-18.4Z"/>
        <path class="st183" d="M356.4,236.4c5.7,14.6,11.4,16.4,21.1,25.7,5.7,5.5,8.1,21.2,10.9,27.1,1.2,2.4,4.3,2.3,4.3,3.1-.2,2.4-3.2,6.3-3.7,8.4-4.4-7.7-5-16.6-9.9-24.5s-20-18.3-22.7-30.6c0-1.8,0-3.7,0-5.5v-3.7Z"/>
        <path class="st216" d="M379.5,403.7c-.6,1.2-.4,3-1.8,4.7-1.2,1.4-2.9,1.8-3.9,2.7-6.5,1.9-14.5,2.7-16.9-5-2.7-8.7,4-9.5,9.4-14.2s2.7-8.2,8.2-6.3c8.6,3.1,3.3,12.3,5.1,18.1Z"/>
        <path class="st2" d="M364.1,372.5c5,8.1,6.1,19.1-6.8,13l-.9-11.1c2.4-1.5,5-1.5,7.7-1.8Z"/>
        <path class="st223" d="M256.6,405.6c-4.8,5.3-9.1,7.5-15.4,5.5l-3.8-18.4c6.8-.6,13.4,1.5,19.3,4.6v8.3Z"/>
        <path class="st195" d="M250.9,372.5c.8,7.3.2,15.6-9.5,14.6l-2-5.4c3.7-8.3-4.7-7.8,11.5-9.2Z"/>
        <path class="st69" d="M352.6,221.7c3.5,4.7,10.8,10.9,13.4,14.7,5.2,7.6,7.6,16.9,13.4,23.9l-1.9,1.8c-9.7-9.4-15.4-11.2-21.1-25.7s-2.3-10.1-3.8-14.7Z"/>
      </g>
    </g>
  </g>
  <g>
    <g>
      <path class="st18" d="M284.9,450.6c0,0,.5,1.3,1,2,1,1.4,1.3,3.5,3,4.6,1.8.9,3.3-.3,5-.6l15,4c-7.7,2.4-9.3-1.3-12.4-1s-6.5,5.2-12.2-1.3c-1.7-2-5.2-8.7.6-7.6Z"/>
      <path class="st89" d="M324.9,453.4c.4.2,1.3-.3,1.9,0,1.4,1.8-2.3,7.8-3.9,8.9s-2.4.8-3,1l-15-4c6.7-1.2,4.8.3,9.6,1s6-4.1,10.4-7Z"/>
    </g>
    <path class="st89" d="M293.1,420.7c12.8-4.7,18.9-.9,23.6,3.7"/>
  </g>
  <line class="st117" x1="513.4" y1="532.4" x2="490.9" y2="526.9"/>
</svg>