<?xml version="1.0" encoding="UTF-8"?>
<svg id="Layer_1" xmlns="http://www.w3.org/2000/svg" version="1.1" viewBox="0 0 595.3 841.9">
  <!-- Generator: Adobe Illustrator 29.1.0, SVG Export Plug-In . SVG Version: 2.1.0 Build 142)  -->
  <defs>
    <style>
      .st0 {
        fill: #5c674f;
      }

      .st1 {
        fill: #8cc96d;
      }

      .st2 {
        fill: #35a84b;
      }

      .st3 {
        fill: #109265;
      }

      .st4 {
        fill: #edc372;
      }

      .st5 {
        fill: #ecdcb2;
      }

      .st6 {
        fill: #131221;
      }

      .st7 {
        fill: #3db984;
      }

      .st8 {
        fill: #189f63;
      }

      .st9 {
        fill: #8dcb84;
      }

      .st10 {
        fill: #72c48a;
      }

      .st11 {
        fill: #0e192a;
      }

      .st12 {
        fill: #0c111b;
      }

      .st13 {
        fill: #763d19;
      }

      .st14 {
        fill: #7fcbde;
      }

      .st15 {
        fill: #6f182f;
      }

      .st16 {
        fill: #68c07c;
      }

      .st17 {
        fill: #192615;
      }

      .st18 {
        fill: #87b758;
      }

      .st19 {
        fill: #291017;
      }

      .st20 {
        fill: #6c3669;
      }

      .st21 {
        fill: #0d8783;
      }

      .st22 {
        fill: #4ebb82;
      }

      .st23 {
        fill: #605786;
      }

      .st24 {
        fill: #442511;
      }

      .st25 {
        fill: #25a56d;
      }

      .st26 {
        fill: #f9f3dd;
      }

      .st27 {
        fill: #1c1147;
      }

      .st28 {
        fill: #074a3b;
      }

      .st29 {
        fill: #90c4de;
      }

      .st30 {
        fill: #b2c0d5;
      }

      .st31 {
        fill: #8d9939;
      }

      .st32 {
        fill: #4ebcc4;
      }

      .st33 {
        fill: #fbdb95;
      }

      .st34 {
        fill: #5d5070;
      }

      .st35 {
        fill: #7ca23f;
      }

      .st36 {
        fill: #281120;
      }

      .st37 {
        fill: #e3a175;
      }

      .st38 {
        fill: #0a9693;
      }

      .st39 {
        fill: #66bc4f;
      }

      .st40 {
        fill: #3ab774;
      }

      .st41 {
        fill: #4b3115;
      }

      .st42 {
        fill: #acc1af;
      }

      .st43 {
        fill: #cac93f;
      }

      .st44 {
        fill: #5f3554;
      }

      .st45 {
        fill: #74c053;
      }

      .st46 {
        fill: #8dc969;
      }

      .st47 {
        fill: #2aad5d;
      }

      .st48 {
        fill: #1d1029;
      }

      .st49 {
        fill: #06706b;
      }

      .st50 {
        fill: #a0a843;
      }

      .st51 {
        fill: #d88c59;
      }

      .st52 {
        fill: #534e35;
      }

      .st53 {
        fill: #065641;
      }

      .st54 {
        fill: #1a1127;
      }

      .st55 {
        fill: #d4c4ab;
      }

      .st56 {
        fill: #8090be;
      }

      .st57 {
        fill: #9d515a;
      }

      .st58 {
        fill: #3c161c;
      }

      .st59 {
        fill: #5da0b0;
      }

      .st60 {
        fill: #632628;
      }

      .st61 {
        fill: #9d6b6f;
      }

      .st62 {
        fill: #c3ba5a;
      }

      .st63 {
        fill: #89c654;
      }

      .st64 {
        fill: #6bc073;
      }

      .st65 {
        fill: #08a994;
      }

      .st66 {
        fill: #31ab75;
      }

      .st67 {
        fill: #3db878;
      }

      .st68 {
        fill: #9f3c3e;
      }

      .st69 {
        fill: #a7b538;
      }

      .st70 {
        fill: #d6a134;
      }

      .st71 {
        fill: #5bbd7c;
      }

      .st72 {
        fill: #976566;
      }

      .st73 {
        fill: #f8f4ae;
      }

      .st74 {
        fill: #c1d55d;
      }

      .st75 {
        fill: #658e5f;
      }

      .st76 {
        fill: #f6e06d;
      }

      .st77 {
        fill: #a76c65;
      }

      .st78 {
        fill: #734230;
      }

      .st79 {
        fill: #09745e;
      }

      .st80 {
        fill: #19a593;
      }

      .st81 {
        fill: #975d2f;
      }

      .st82 {
        fill: #15815e;
      }

      .st83 {
        fill: #073d31;
      }

      .st84 {
        fill: #71c16c;
      }

      .st85 {
        fill: #1b978b;
      }

      .st86 {
        fill: #606795;
      }

      .st87 {
        fill: #6a3b61;
      }

      .st88 {
        fill: #092e2d;
      }

      .st89 {
        fill: #8ec857;
      }

      .st90 {
        fill: #aec171;
      }

      .st91 {
        fill: #2eb88a;
      }

      .st92 {
        fill: #9acd66;
      }

      .st93 {
        fill: #179a5c;
      }

      .st94 {
        fill: #473e69;
      }

      .st95 {
        fill: #411a34;
      }

      .st96 {
        fill: #47b976;
      }

      .st97 {
        fill: #76cbc2;
      }

      .st98 {
        fill: #291221;
      }

      .st99 {
        fill: #151b48;
      }

      .st100 {
        fill: #100e0f;
      }

      .st101 {
        fill: #043136;
      }

      .st102 {
        fill: #5cb275;
      }

      .st103 {
        fill: #603f66;
      }

      .st104 {
        fill: #181127;
      }

      .st105 {
        fill: #e9d6e9;
      }

      .st106 {
        fill: #b47e7a;
      }

      .st107 {
        fill: #351810;
      }

      .st108 {
        fill: #0f1235;
      }

      .st109 {
        fill: #eac981;
      }

      .st110 {
        fill: #177d56;
      }

      .st111 {
        fill: #037773;
      }

      .st112 {
        fill: #9f4244;
      }

      .st113 {
        fill: #232637;
      }

      .st114 {
        fill: #1a9748;
      }

      .st115 {
        fill: #6a3a6d;
      }

      .st116 {
        fill: #04b38f;
      }

      .st117 {
        fill: #0c5f40;
      }

      .st118 {
        fill: #1a9a94;
      }

      .st119 {
        fill: #365e36;
      }

      .st120 {
        fill: #0e1323;
      }

      .st121 {
        fill: #442312;
      }

      .st122 {
        fill: #311d42;
      }

      .st123 {
        fill: #049f9c;
      }

      .st124 {
        fill: #a7d060;
      }

      .st125 {
        fill: #289083;
      }

      .st126 {
        fill: #75c373;
      }

      .st127 {
        fill: #665f80;
      }

      .st128 {
        fill: #2f9dae;
      }

      .st129 {
        fill: #d2c390;
      }

      .st130 {
        fill: #b4b448;
      }

      .st131 {
        fill: #3a183a;
      }

      .st132 {
        fill: #4c4c38;
      }

      .st133 {
        fill: #1f451f;
      }

      .st134 {
        fill: #9bcb49;
      }

      .st135 {
        fill: #61be72;
      }

      .st136 {
        fill: #2c4f25;
      }

      .st137 {
        fill: #65ab8b;
      }

      .st138 {
        fill: #754d26;
      }

      .st139 {
        fill: #79698b;
      }

      .st140 {
        fill: #7ec687;
      }

      .st141 {
        fill: #6fb949;
      }

      .st142 {
        fill: #3d203f;
      }

      .st143 {
        fill: #65c5b9;
      }

      .st144 {
        fill: #13b686;
      }

      .st145 {
        fill: #4d3326;
      }

      .st146 {
        fill: #d2ac92;
      }

      .st147 {
        fill: #add25f;
      }

      .st148 {
        fill: #935561;
      }

      .st149 {
        fill: #16a678;
      }

      .st150 {
        fill: #07504a;
      }

      .st151 {
        fill: #584c82;
      }

      .st152 {
        fill: #4b1a20;
      }

      .st153 {
        fill: #503970;
      }

      .st154 {
        fill: #1e9ea8;
      }

      .st155 {
        fill: #4e1a2b;
      }

      .st156 {
        fill: #231f5b;
      }

      .st157 {
        fill: #3ab879;
      }

      .st158 {
        fill: #857ba0;
      }

      .st159 {
        fill: #1a1129;
      }

      .st160 {
        fill: #ecc1a5;
      }

      .st161 {
        fill: #662b13;
      }

      .st162 {
        fill: #28133a;
      }

      .st163 {
        fill: #200f1c;
      }

      .st164 {
        fill: #498b59;
      }

      .st165 {
        fill: #2e9e5f;
      }

      .st166 {
        fill: #78343d;
      }

      .st167 {
        fill: #431a30;
      }

      .st168 {
        fill: #179e97;
      }

      .st169 {
        fill: #d5d678;
      }

      .st170 {
        fill: #c59a64;
      }

      .st171 {
        fill: #022835;
      }

      .st172 {
        fill: #09171a;
      }

      .st173 {
        fill: #e1a36c;
      }

      .st174 {
        fill: #51bb75;
      }

      .st175 {
        fill: #0c121d;
      }

      .st176 {
        fill: #cfd997;
      }

      .st177 {
        fill: #60b0a1;
      }

      .st178 {
        fill: #5c3b5b;
      }

      .st179 {
        fill: #312634;
      }

      .st180 {
        fill: #0d977a;
      }

      .st181 {
        fill: #cfdf64;
      }

      .st182 {
        fill: #d3be74;
      }

      .st183 {
        fill: #7cb464;
      }

      .st184 {
        fill: #48a5b8;
      }

      .st185 {
        fill: #e4d760;
      }

      .st186 {
        fill: #324735;
      }

      .st187 {
        fill: #bb9b33;
      }

      .st188 {
        fill: #482753;
      }

      .st189 {
        fill: #d8b77f;
      }

      .st190 {
        fill: #5d3f6a;
      }

      .st191 {
        fill: #6cc17d;
      }

      .st192 {
        fill: #59abbe;
      }

      .st193 {
        fill: #fcf3ae;
      }

      .st194 {
        fill: #46b756;
      }

      .st195 {
        fill: #9bcc5e;
      }

      .st196 {
        fill: #8ab58d;
      }

      .st197 {
        fill: #f6e776;
      }

      .st198 {
        fill: #ab6e65;
      }

      .st199 {
        fill: #0c6a4a;
      }

      .st200 {
        fill: #c47f73;
      }

      .st201 {
        fill: #6d3638;
      }

      .st202 {
        fill: #7b6f7d;
      }

      .st203 {
        fill: #81c56d;
      }

      .st204 {
        fill: #faf5b0;
      }

      .st205 {
        fill: #311428;
      }

      .st206 {
        fill: #3ebca1;
      }

      .st207 {
        fill: #369d99;
      }

      .st208 {
        fill: #763555;
      }

      .st209 {
        fill: #12a87a;
      }

      .st210 {
        fill: #f7ecaa;
      }

      .st211 {
        fill: #7d5421;
      }

      .st212 {
        fill: #1eab7b;
      }

      .st213 {
        fill: #9dce74;
      }

      .st214 {
        fill: #0b6456;
      }

      .st215 {
        fill: #69446a;
      }

      .st216 {
        fill: #5db4c8;
      }

      .st217 {
        fill: #739a43;
      }

      .st218 {
        fill: #039e85;
      }

      .st219 {
        fill: #534339;
      }

      .st220 {
        fill: #90c967;
      }

      .st221 {
        fill: #83cbaa;
      }

      .st222 {
        fill: #10143f;
      }

      .st223 {
        fill: #7f85ae;
      }

      .st224 {
        fill: #264923;
      }

      .st225 {
        fill: #34979a;
      }

      .st226 {
        fill: #479ba9;
      }

      .st227 {
        fill: #121829;
      }

      .st228 {
        fill: #aaccb1;
      }

      .st229 {
        fill: #5a2d53;
      }

      .st230 {
        fill: #c17b64;
      }

      .st231 {
        fill: #fdf9e9;
      }

      .st232 {
        fill: #f9f3ce;
      }

      .st233 {
        fill: #52bfa8;
      }

      .st234 {
        fill: #fbf6bf;
      }

      .st235 {
        fill: #a38677;
      }

      .st236 {
        fill: #229c7e;
      }

      .st237 {
        fill: #97d9e9;
      }

      .st238 {
        fill: #066561;
      }

      .st239 {
        fill: #21a474;
      }

      .st240 {
        fill: #2d5529;
      }

      .st241 {
        fill: #67c079;
      }

      .st242 {
        fill: #faf0c7;
      }

      .st243 {
        fill: #6fc062;
      }

      .st244 {
        fill: #6c3b6d;
      }

      .st245 {
        fill: #8983a9;
      }

      .st246 {
        fill: #58bb5e;
      }

      .st247 {
        fill: #5dc19a;
      }

      .st248 {
        fill: #703853;
      }

      .st249 {
        fill: #2d1e48;
      }

      .st250 {
        fill: #4ab587;
      }

      .st251 {
        fill: #307d4a;
      }

      .st252 {
        fill: #f8f39c;
      }

      .st253 {
        fill: #043232;
      }

      .st254 {
        fill: #52c2bb;
      }

      .st255 {
        fill: #806377;
      }

      .st256 {
        fill: #22ac6f;
      }

      .st257 {
        fill: #f9f18a;
      }

      .st258 {
        fill: #bfc950;
      }

      .st259 {
        fill: #06a19d;
      }

      .st260 {
        fill: #2dab80;
      }

      .st261 {
        fill: #b8d656;
      }

      .st262 {
        fill: #0b9079;
      }

      .st263 {
        fill: #342b1e;
      }

      .st264 {
        fill: #a9cd8f;
      }

      .st265 {
        fill: #9ac84d;
      }

      .st266 {
        fill: #220f1b;
      }

      .st267 {
        fill: #18112b;
      }

      .st268 {
        fill: #b5d54f;
      }

      .st269 {
        fill: #e8d8e6;
      }

      .st270 {
        fill: #2e1313;
      }

      .st271 {
        fill: #44955b;
      }

      .st272 {
        fill: #663354;
      }

      .st273 {
        fill: #d6d19b;
      }

      .st274 {
        fill: #60401c;
      }

      .st275 {
        fill: #2bae72;
      }

      .st276 {
        fill: #ba7474;
      }

      .st277 {
        fill: #269487;
      }

      .st278 {
        fill: #d5e15a;
      }

      .st279 {
        fill: #3b141e;
      }

      .st280 {
        fill: #86c091;
      }

      .st281 {
        fill: #106232;
      }

      .st282 {
        fill: #695d77;
      }

      .st283 {
        fill: #77c36f;
      }

      .st284 {
        fill: #096d67;
      }

      .st285 {
        fill: #241033;
      }

      .st286 {
        fill: #281114;
      }

      .st287 {
        fill: #6f4d65;
      }

      .st288 {
        fill: #2e6c35;
      }

      .st289 {
        fill: #bc7663;
      }

      .st290 {
        fill: #5ebd70;
      }

      .st291 {
        fill: #84c667;
      }

      .st292 {
        fill: #47803c;
      }

      .st293 {
        fill: #9ed6c1;
      }

      .st294 {
        fill: #7b2426;
      }

      .st295 {
        fill: #089189;
      }

      .st296 {
        fill: #5c2045;
      }

      .st297 {
        fill: #5e5262;
      }

      .st298 {
        fill: #064133;
      }

      .st299 {
        fill: #0a8f86;
      }

      .st300 {
        fill: #9fcd4d;
      }

      .st301 {
        fill: #faf9dd;
      }

      .st302 {
        fill: #6c2f25;
      }

      .st303 {
        fill: none;
        stroke: #231f20;
        stroke-miterlimit: 10;
        stroke-width: 3px;
      }

      .st304 {
        fill: #b6d8b3;
      }

      .st305 {
        fill: #2db888;
      }

      .st306 {
        fill: #78bf78;
      }

      .st307 {
        fill: #97bd65;
      }

      .st308 {
        fill: #441b1a;
      }

      .st309 {
        fill: #b5b390;
      }

      .st310 {
        fill: #3f2355;
      }

      .st311 {
        fill: #d28485;
      }

      .st312 {
        fill: #c99099;
      }

      .st313 {
        fill: #6c552d;
      }

      .st314 {
        fill: #442c64;
      }

      .st315 {
        fill: #38b198;
      }

      .st316 {
        fill: #c9d950;
      }

      .st317 {
        fill: #47b1b4;
      }

      .st318 {
        fill: #cd9884;
      }

      .st319 {
        fill: #34182a;
      }

      .st320 {
        fill: #1a252d;
      }

      .st321 {
        fill: #faf7ea;
      }

      .st322 {
        fill: #73405f;
      }

      .st323 {
        fill: #241510;
      }

      .st324 {
        fill: #ecd55f;
      }

      .st325 {
        fill: #441d15;
      }

      .st326 {
        fill: #34204d;
      }

      .st327 {
        fill: #64bd69;
      }

      .st328 {
        fill: #6a5478;
      }

      .st329 {
        fill: #82636a;
      }

      .st330 {
        fill: #adc541;
      }

      .st331 {
        fill: #56b947;
      }

      .st332 {
        fill: #e69b6a;
      }

      .st333 {
        fill: #949591;
      }

      .st334 {
        fill: #3d2126;
      }

      .st335 {
        fill: #398591;
      }

      .st336 {
        fill: #84768f;
      }

      .st337 {
        fill: #3a6531;
      }

      .st338 {
        fill: #84cde0;
      }

      .st339 {
        fill: #f0db93;
      }

      .st340 {
        fill: #068a5b;
      }

      .st341 {
        fill: #abb259;
      }
    </style>
  </defs>
  <path class="st100" d="M160.4,297.3s5-58.3,37.4-77l-1.5,7.7-31,70.7-4.9-1.4Z"/>
  <g>
    <path class="st47" d="M236.7,563.7c1.6,1,4.9,2.1,4.2,4.4-2.4,3.1-7.1,12.2-12.4,9.2-10.2-5.9-1-10.4,1.7-16.4.2.3,4.5,1.7,6.5,2.9Z"/>
    <path class="st327" d="M382.9,559.4c6.7,4.1,7.2,17-2.5,18.8-2.5.2-5.5-1.5-7.2-3-6.9-6.1-1.1-12.8,4.9-17.3,1.2,1,4,.9,4.9,1.4Z"/>
    <g>
      <path class="st301" d="M373.1,552.2c2.3,1,4.8,1.6,6.4,3.6l-1.5,2.2c-6,4.5-11.8,11.1-4.9,17.3-.4,5.5.6,14.3,3.6,19.2s6.6,2,7.6,4.8.9,8.1,1.1,10.6c.3,4.5,1.1,2.9-4.1,2.9,0-.2-1.2-1.7-1.6-2.9s1.1-3.3-.9-4.5c-2.5-1.5-6.7-2-8.8.1-6.2,4.4-.2-5.2-3.3-7.2l-6.5,1.5c1.2-5.6-2.2-3.7-3.3-4.3-6.5-3.9-6.9-2.8-14.6-1.4v-2.9c7.4-13,10.9-30.2,9.7-44.6,4.6-1.1,16,3.5,21.1,5.8Z"/>
      <path class="st161" d="M160.4,523.4c-3.4,10.2-11.1,34.3-4,43.2s1.8.7,3.5.3c12.2-3.5,18-5.9,31.4-7.5-3.7,3.8-10,2.8-15,4.4-2.9.9-7.5,3.3-12.6,4.9-4.9,1.5-10.5,7.4-13-3.6s4.2-36.6,9.7-49h1.6c-1,2.4-.9,5.1-1.6,7.2Z"/>
      <g>
        <path class="st296" d="M301.7,702c.1.4-.1,1,0,1.4.8,3.5.8,5.1,4.9,6.5-4.3,6.7-7.8,9.6-14.6,13.7-2,1.2-3.9,2.1-4.9,4.3-1.1,0-2.2,0-3.2,0,.6-1.1,2.6-2.5,2.7-3.6s-1-.6-1-.8c-1.6-5-7.3-8.7-12.9-9.4s-4.5,1.6-6.6,2.2c3.4-5.1,10.8-7.8,11.4-14.4,7.3,1.6,16.3-1,24.4,0Z"/>
        <path class="st208" d="M285.4,723.6c-5.8,3.5-11.9-2.4-15.7-2.6s-12,6-18.4,1.2c-.9,3.3,1.6,3.5,4.4,3.9,8.7,1.4,18.4-1.4,26.4,1.8-17.3-.4-34.7.5-52,0,.9-2.3,2.9-3.1,4.9-4.3,4.5,3.2,11.1-2.6,15.9-3.9s8.8-1.4,15-3.3,5.1-2.4,6.6-2.2c5.6.7,11.4,4.4,12.9,9.4Z"/>
        <path class="st15" d="M218.8,714.9c-1.9,6,4,3.6,5.7,5.7l-.9,2.9,6.5-1.4c-.9.9-1.3,3.5-3.2,4.3-7.7-.3-16,.5-23.6,0-3-.2-6.1.3-7.2-3,3-1.8,5.9-3,0-2.9,2.5-.6,5.6-2.1,8.1-2.9,4.4-1.3,9.4-5.1,14.6-2.9Z"/>
        <path class="st319" d="M423.5,722.1c1.3.2,11.3.9,12.2.8,3.1-.4,5.4-4.5,12.1-5.1,1.1,1.2,1.5,2.7,3.2,4.3-3,4.1-8.6,2.4-13,2.9s-10.7,1.1-16.2,1.4c-3.9-3.1-8.9-.7-13-4.3s-.5-2.3-1.6-2.9v-1.4c6.6,1.2,10.7,3.3,16.2,4.3Z"/>
        <path class="st72" d="M392.6,725c-1.4.1-5,2.7-8.1,1.5l1.6,1.4c-21.4.8-43.1,1.6-65,1.4v-1.4c5.4,0,10.9,0,16.2,0,8.1-.1,22.5.3,29.2-1.4,5.6-1.5,3.9-3.3,9.7-1.4s.8,1.8,3.7,1.3c4.6-.8,7.6-7.4,12.6-1.3Z"/>
        <path class="st311" d="M261.1,707.7c-4.9,3.1-9.6,7.1-14.6,10.1s-7.6,3.4-11.4,5.8c-2,1.3-4,2.1-4.9,4.3-1.5,0-2.9-1.4-3.2-1.4,2-.8,2.3-3.4,3.2-4.3,5.6-5.5,15.5-8.8,22.7-13,2.5-1.4,6-2.5,8.1-4.3v2.9Z"/>
        <path class="st155" d="M285.4,723.6c0,.2,1.1.3,1,.8,0,1.1-2.1,2.4-2.7,3.6-.5,0-1.1,0-1.6,0-8.1-3.3-17.7-.4-26.4-1.8s-5.4-.6-4.4-3.9c6.3,4.9,15.4-1.3,18.4-1.2s9.9,6.1,15.7,2.6Z"/>
        <path class="st302" d="M421.9,726.5c-12,.8-23.6,1-35.7,1.4l-1.6-1.4c3.1,1.3,6.7-1.3,8.1-1.5,5.1-.5,11.5-.4,16.2,1.4v-4.3c4.1,3.6,9.1,1.2,13,4.3Z"/>
        <path class="st308" d="M304.9,725c0,.4-2.2,2.5-1.6,2.9,5.9,0,11.9,0,17.9,0v1.4c-11.7,0-22.8-1.2-34.1-1.4.9-2.3,2.8-3.1,4.9-4.3,5.9,3.1,6.7.7,9.7-1.4.6.8,3.2,2.5,3.2,2.9Z"/>
        <path class="st152" d="M196.1,720.7c5.9-.1,3,1.1,0,2.9-.5.3-2.2,0-3.2.7-.9.4-1.6,1.2-1.6,2.1-5,0-11.3,1.2-14.6-2.9,7-.8,12.5-1.2,19.5-2.9Z"/>
        <path class="st270" d="M196.1,716.4c-5.1-.1-22.2,2.7-22.7,8.6-7.6.5-12.9-.9-19.5-1.4-1.2-3.3,10.1-6.7,13-7.2s3.4,1.7,6.9,1.2c4.3-.7,13.2-3.8,17.5-5.5.9.1,2.2,0,3.2,0,12.2-.2,19-8.3,27.6-14.4-.2,11.4-16,15-26,18.7Z"/>
        <path class="st198" d="M196.1,716.4c.9,0,5.3,2.8,8.1,1.4-2.5.7-5.6,2.3-8.1,2.9-6.9,1.7-12.5,2.1-19.5,2.9-.9.1-2.4,1.4-3.2,1.4.5-5.9,17.6-8.7,22.7-8.6Z"/>
        <path class="st54" d="M324.4,671.7l-13,17.3c0-.3.2-8.7-2.4-4.3-4.3,5.6-5.1,9.3-5.7,15.8s0,2.5-1.6,2.9c-.1-.5.1-1,0-1.4-1-3.4-.7-7.8-3.4-11.4-2.4,1.7-3.9,0-4.7-.2,7.7-5.6,14.1-12.9,19.5-20.2s2.2-1,3-2.3c4.4-7.5,3.7-11.4,1.9-19.3,9.7,2.7,10.2,16.3,6.5,23Z"/>
        <path class="st87" d="M293.5,690.5c.8,0,2.3,1.9,4.7.2,2.7,3.6,2.4,7.9,3.4,11.4-8.1-1-17.1,1.6-24.4,0h-1.6c1.6-1.5,2.1-5.4,6.5-6.5-1.2-1-3.1-1.2-4.9-2.2,1.3,0,2.5-1.3,3.2-1.4,6-1.5,7.3-2.1,13-1.4Z"/>
        <path class="st131" d="M306.5,704.9c.6.9-.7,2.7,3.3,3.6l-3.2,5.1c15,3.9,26.4,4.6,29.2-11.5h2.4c.5.1.5,1.3.8,1.4-.5,3.1-6,12.8-8.5,14.1-3.7,1.9-13.6-1.9-17.5,1.8-2.2-.2-3.8-1.5-6.6-.8-3.1.7-3.5,2.8-4.8,3.7-3.1,2.1-3.9,4.5-9.7,1.4,6.8-4.1,10.3-7,14.6-13.7-4.1-1.4-4-3-4.9-6.5,1.6-.4,1.5-1.7,1.6-2.9,1.3,1.3,2.2,2.9,3.2,4.3Z"/>
        <path class="st205" d="M265.9,716.4c-6.2,1.9-9.2,1.7-15,3.3s-11.4,7.1-15.9,3.9c3.7-2.4,8-3.7,11.4-5.8,11.8-1.7,21.4-8.3,29.2-15.8h1.6c-.6,6.6-8,9.3-11.4,14.4Z"/>
        <path class="st173" d="M239.9,680.4c5.2-.4,3.2.8.8,2.9s-5.8,4.4-8.9,6.5c-.3.5,2.3,1.4,3.2,2.2-1.5.9-5.8,2.7-6.1,3.2-1,1.4,0,3.3-.4,4-2.1,4-5,6.9-4.9,11.5-.7.3-2.4,4.2-4.9,4.3-5.2-2.2-10.2,1.6-14.6,2.9-2.8,1.4-7.3-1.4-8.1-1.4,9.9-3.7,25.8-7.3,26-18.7-8.6,6.1-15.4,14.2-27.6,14.4-.2-.8.3-2.5,0-2.9.4-1.6,2.4-2.1,3.2-2.9,1,3,4.9,0,6.4-.8,9.6-5.7,16.7-13.9,24.5-19.3,2.6-1.8,8.3-4.4,11.4-5.8Z"/>
        <path class="st95" d="M252.9,709.2c-7.3,4.2-17.2,7.4-22.7,13l-6.5,1.4.9-2.9c-1.7-2.1-7.6.4-5.7-5.7,2.5-.2,4.1-4,4.9-4.3s1,0,1.6,0,2.5-.1,3.2,0c3.6.7,5.3,4.4,5.6,4.3.9-.2,15.6-6.4,17.1-7.2l1.6,1.4Z"/>
        <path class="st335" d="M434.9,694.8l1.4.9c-.9,9.4,5.5,15.4,11.6,22.2-6.7.6-9,4.7-12.1,5.1s-10.9-.5-12.2-.8l-.2-4.1-7.9-1.7,1.6-2.9c5.4-.6,9.1-2.6,13-5.8,6.4-5.2,6.3-5.7,1.6-13,1.1,0,2.2,0,3.2,0Z"/>
        <path class="st34" d="M399.1,703.4c5.9,4.5,7.1,3.1,14.6,1.4.2.9-.2,2,0,2.9.6,2.6-.9,3.8,3.2,5.8l-1.6,2.9,7.9,1.7.2,4.1c-5.5-1-9.7-3.1-16.2-4.3s-2.1-1.2-4.9-1.4l-3.2-5,4.9-3.6c-3-.2-5.4.6-8.1,1.4-1.2-1-4-1.9-4.9-2.9-3.3-3.5-4.9-11.5-8.1-15.8,8.6,3.7,10,8.1,16.2,13Z"/>
        <path class="st267" d="M407.2,719.3c1.2.6,1.2,2.5,1.6,2.9v4.3c-4.7-1.9-11.1-1.9-16.2-1.4-5-6.2-8,.5-12.6,1.3-2.8.5-3-1.1-3.7-1.3,2.8-1.1,4.8-2.9,4.9-5.8h26Z"/>
        <path class="st245" d="M379.6,714.9c5.7.1,16.6.9,22.7,1.4,2.8.3,3.8,1.3,4.9,1.4v1.4h-26c-3.1.7-4.2-.3-6.5-1.4.8-2.1,2.4-2.9,4.9-2.9Z"/>
        <path class="st159" d="M339,686.1c4.7,8.6,15.5,12.1,26,11.5.2.3-.2,1,0,1.4,1.9,6,3.1,15.4,9.7,18.7,2.3,1.1,3.4,2.1,6.5,1.4-.1,2.8-2.1,4.7-4.9,5.8-5.9-1.8-4.1,0-9.7,1.4-3.1-4.1-6.9-2.3-11.4-1.5l1.6-2.9,13-1.4c.6-2.1-1-2.9-1.6-4.3-2.3-5.1-4-10.2-6.4-15.2l-19.6-3.5c-1.7-1.9-5.1-6.7-6.8-9.1s-2.6-4.5-2.9-6.8c-7.6,7.9-17.7,12.3-23.5,21.6-2.2-1.1.5-4.1.8-5.8s0-1,0-1.4c9.3-6.4,24.1-15.3,22.7-27.4h1.6c1,6.3,1.7,11.4,4.9,17.3Z"/>
        <path class="st122" d="M342.3,723.6l.8,1.4c9.7-.2,5.3-.5,8.1-4.3s3.1-1.1,4-1.5l-1.4,2.7,3,.2-1.6,2.9c4.4-.9,8.3-2.6,11.4,1.5-6.7,1.7-21.1,1.3-29.2,1.4-.8-1.9-3.1-1.3-4.9-1.4,0-.9-.1-1.9,0-2.9.5-4.3,2.8-4.1,6.5-5.8.4-.2,4.5,0,6.5-2.9-1.2,2.1-3.6,6.5-3.2,8.6Z"/>
        <path class="st312" d="M332.5,726.5c1.7.1,4.1-.5,4.9,1.4-5.4,0-10.9,0-16.2,0-5.9,0-11.9,0-17.9,0-.6-.3,1.7-2.5,1.6-2.9,9.3-.7,18.4.7,27.6,1.4Z"/>
        <path class="st148" d="M277.3,693.3c1.8.9,3.7,1.1,4.9,2.2-4.4,1.1-4.9,5-6.5,6.5-7.9,7.5-17.5,14.2-29.2,15.8,5-3,9.7-7,14.6-10.1s4.6-.3,7.3-2.9c2.2-2.2,6.1-8.5,7.3-11.5.4.2,1.2-.2,1.6,0Z"/>
        <path class="st266" d="M274.1,690.5c.1.5-.2,1.1,0,1.4-6.2,2.6-8.6,9.3-13,13-2.2,1.8-5.7,2.9-8.1,4.3l-1.6-1.4c4.8-2.6,7.7-6.5,11.4-10.1s7.3-6.8,9.7-10.1c1.7.5,1.3,1.8,1.6,2.9Z"/>
        <path class="st276" d="M275.7,693.3c-1.3,3-5.1,9.3-7.3,11.5-2.6,2.6-5.8,2-7.3,2.9v-2.9c4.4-3.7,6.8-10.4,13-13,.5.8.8,1,1.6,1.4Z"/>
        <path class="st98" d="M313,719.3c3.8.4,10.6.9,13.5,1.5s1.7,4.5,6,2.9c-.1.9,0,1.9,0,2.9-9.2-.7-18.3-2.1-27.6-1.4,0-.3-2.7-2.1-3.2-2.9,1.3-.9,1.7-3,4.8-3.7,2.7-.6,4.3.6,6.6.8Z"/>
        <path class="st37" d="M264.3,617c5-.3,9.7-.4,14.6-1.4-5,5-13.4,1.7-19.5,4.3.4,1.4,1.6,2.9,1.6,4.3-8.4-.6-13.6,2.1-21.1,4.3-2.9-.3-6.9.6-9.7,1.4-3.6,1.1-9.8,2.8-6.8,5.5-3.3,1.9-15.1,7.5-16,10.3h-1.6c1.6-4.4,3-7.3,6.5-10.8s22.9-16.2,24.4-16.5,4.5.3,6.5,0,7.4-1.2,9.7-1.4c4.2-.4,8.1.2,11.4,0Z"/>
        <path class="st186" d="M204.2,654.5c1.3,4,7.7,14.4,13,10.1s-1.5-2.2-1.6-2.9.6-1.7,1.6-1.4c.8.7,3.1.7,4.9,2.5s5.1,7.1,4.8,10.5l-9.7-7.2-.2,7.1h-4.7c6.3,15.5-18.8,16.5-14.6-.3s6.4-4.7,7.4-8.1-2.5-3.9-2.6-4.4,1.5-3.8,1.6-5.8Z"/>
        <path class="st263" d="M277.3,539.3c-.4.2-1.2,1.9-2.6,2.6-12.9,6.1-26.6,11.2-41.2,13.2l3.2,8.6c-2-1.2-6.3-2.6-6.5-2.9-.5-.8.4-4.3,0-5.8l-29.2,4.3v-1.4l3.2-2.9c11.6,1.6,17.8-3.9,24.4-4.3,1.2,0,6.6,3.5,8.1,0,9.9-.1,17.3-3.9,26-7.2,5.3-2,8-3.3,13-5.8l1.6,1.4Z"/>
        <path class="st130" d="M278.9,581c-1.1,1.4-1.9,3-3.2,4.3-5.3,5.1-9.9,10.4-14.6,15.8-1.1,0-2.2,0-3.2,0,.2-1.4-.3-3,0-4.3,1-4.6,4.2-11.5,6.5-15.8l1.6,3.6c1.9-4.2,5.8-6.8,9.8-9.3s3.3-.6,4.9-1.4c.4,2.3-1.7,5.4-1.6,7.2Z"/>
        <path class="st187" d="M191.2,712.1c-4.3,1.7-13.2,4.9-17.5,5.5-3.5.5-6.5-1.2-6.9-1.2.2-2.4-.6-5.5.2-7.7s4.1-1.9,4.6-2.3l5.7-1.4c3.1,3.1,9.3,6.5,13.8,7.2Z"/>
        <path class="st9" d="M199.3,645.8v1.4l-4.2,4.3c-1.4.8-8.4,2.6-8.8,2.9-.7.6,3.1,5,0,5.7-4.8-4.1-8.1-8.6-4.9-14.4,9.1-.2,8.6-2.9,9.1-3,3-.4,6.1,2,8.8,3Z"/>
        <path class="st320" d="M291.9,529.2l-1.6,2.9h3.2c-.7.7-2.7,1.3-2.9,1.7-.5,1,1.3,2.1,1.3,2.6-.1,2.3.3,5,0,7.2-.8,5.4-2.1,11.8-3.2,17.3-1.7.7-3.7.9-4.9,1.4l3.2-25.9c-.7-.6-8.1,2.1-9.7,2.9l-1.6-1.4c2.8-1.4,5.5-2.7,8.1-4.3s7.4-3.8,8.1-4.3Z"/>
        <path class="st160" d="M257.8,596.9c-.3,1.3.2,2.9,0,4.3-2.5.2-5.8,2.1-8.1,2.9s-2.8-.1-4.8.8-1.3,1.9-1.7,2.1c-9.1,5.2-6.6,4,0,11.5-2,.3-4.7-.4-6.5,0,.2-3.5-3.9-2.7-4.1-7-.2-6.5,7.6-7.9,12.6-10.3s1-2.1,2.5-2.7c2.7-1,7.1-.9,10.1-1.6Z"/>
        <path class="st78" d="M238.3,635.7c-1.5,4.3,4.6,12.3,8.1,15.8,0,1.6,0,3.3,1.6,4.3v1.4c-3.8,3.8-2.2,5.5-3.2,8.6s-1.5,1-1.6,1.4h-1.6c2-7.5-3.4-24.8-8.1-31.7.9,0,3.2,0,4.9,0Z"/>
        <path class="st224" d="M181.5,645.8c-3.2,5.8.1,10.3,4.9,14.4,9.3,8,22.7-5.9,13-13v-1.4c1.4.5,3.5.5,4.9,1.4-.5,1.9.2,5,0,7.2s-1.7,5.5-1.6,5.8c-11.8,13.6-27.1-2.1-26-14.4,1.6,0,3.2,0,4.9,0Z"/>
        <path class="st201" d="M239.9,628.5c1.1.1,10.9,2.5,11.4,2.9.8,1.3,1.7,2.8,1.6,4.3-1.4-.2-4-.5-4.9-1.4s.9-2.9-.8-2.9c-3.7,5.6-3.2,4.5-8.9,4.3s-4,0-4.9,0c-2.3-.2-4.9-1.9-8.1,0,2.2-1.8,5.5-3.4,4.9-5.8,2.8-.9,6.9-1.7,9.7-1.4Z"/>
        <path class="st313" d="M230.2,630c.6,2.4-2.7,4-4.9,5.8-10.6,8.4-22.3,12.3-8.1,24.5-1-.2-1.8.7-1.6,1.4-7.5-1.4-9.9-10.1-8.1-15.8s12.7-8.4,16-10.3c-3-2.7,3.2-4.4,6.8-5.5Z"/>
        <path class="st325" d="M228.6,686.1c-7.8,5.4-14.9,13.6-24.5,19.3s-5.3,3.8-6.4.8c7.1-6.8,18.7-13,27.6-20.2h3.2Z"/>
        <path class="st324" d="M194.5,709.2c.3.4-.2,2.1,0,2.9-1,0-2.3.1-3.2,0-4.6-.7-10.7-4.1-13.8-7.2l-5.7,1.4c.2-.1-.7-1.9,1.2-2.9,4.5-2.4,18.7,2.4,21.5,5.8Z"/>
        <path class="st33" d="M275.7,575.3c-3.9,2.6-7.8,5.1-9.8,9.3l-1.6-3.6c4-7.4,8.8-10.8,16.2-15.8,2.9,3.4-3.4,6.7-4.9,10.1Z"/>
        <path class="st129" d="M207.5,645.8c-1.8,5.7.6,14.4,8.1,15.8.2.7,2,2.6,1.6,2.9-5.3,4.4-11.7-6.1-13-10.1.2-2.2-.5-5.3,0-7.2s1.5-1,1.6-1.4h1.6Z"/>
        <path class="st60" d="M254.6,674.6v1.4c-6.1,1.4-8.6,1.8-14.6,4.3s-8.8,4-11.4,5.8h-3.2c1.7-1.4,2-2.6,4.9-4.3,1.6-1,6.9-2.9,9.7-4.3s8.2-2.1,11.4-4.3l3.2,1.4Z"/>
        <path class="st230" d="M243.2,667.4c-.9,2.9,0,7-3.2,10.1-2.8,1.4-8.1,3.4-9.7,4.3,1.3-4.6,10.3-10.5,11.4-14.4h1.6Z"/>
        <path class="st182" d="M285.4,569.5c-2.5,1.4-3.3,3.4-4.9,4.3s-4.2,1-4.9,1.4c1.5-3.4,7.7-6.6,4.9-10.1.9-.6,1.1-1.9,3.2-2.9s3.2-.8,4.9-1.4c-.6,3-1.8,5.9-3.2,8.6Z"/>
        <path class="st287" d="M311.4,641.5c.9,1.3,1.4,2.4,3.2,2.9l-1.6,25.9c-5.4,7.2-11.8,14.5-19.5,20.2-5.7-.6-7,0-13,1.4l-1.6-.7c1.6-1.7,3.3-3.3,4.8-5.1.4,2.5,5.9-2,6.3-2.3,9.5-8.7,14-12.8,19-23.5,1.9-4,.2-3.3-2.6-1.6.7-3.7-1-6.7-1.6-10.1-1.5-4.5,4.5-4.1,3.3-8.6l3.2,1.4Z"/>
        <path class="st103" d="M317.9,634.3c1.4,1.1,3.7,6.1,6.5,8.6,3.1,2.4,4.6,13.7,5,14.3s2.7-.1,3.1.1c.4,3.7,1.1,7.8,1.6,11.5h-1.6c-.2-1.9-.7-3.9-3.2-4.3,1.3.2-4.2,15.4-4.9,7.2,3.7-6.7,3.2-20.4-6.5-23-.4-1.7-1.3-3.1-1.6-4.3-.7-2.6-2.5-9.5-3.2-11.5,1.1,1,4.3,1,4.9,1.4Z"/>
        <path class="st282" d="M332.5,668.9c1.4,12-13.4,20.9-22.7,27.4.4-2.5,1.4-5.1,1.6-7.2l13-17.3c.7,8.2,6.2-7,4.9-7.2,2.5.4,3,2.4,3.2,4.3Z"/>
        <path class="st178" d="M317.9,648.7c1.8,7.9,2.6,11.8-1.9,19.3-.8,1.4-2.6,1.8-3,2.3l1.6-25.9h1.6c.3,1.3,1.2,2.7,1.6,4.3Z"/>
        <path class="st202" d="M311.4,689c-.2,2.1-1.2,4.7-1.6,7.2s0,1,0,1.4c-3.6,1-3.5,4.4-3.2,7.2-1-1.5-2-3-3.2-4.3.6-6.5,1.5-10.2,5.7-15.8,2.6-4.4,2.4,4,2.4,4.3Z"/>
        <path class="st163" d="M300,627.1c.2-.8,1.8-5.3,4-4.3s8.3,8.4,8.9,10.1,2.6,8.9,3.2,11.5h-1.6c-1.9-.4-2.4-1.6-3.2-2.9-1.6-2.5-2.5-8.7-6.5-10.1,1.4,4.7-1.7,9.8-1.7,13.8,0,2.2,1.7,3.2,1.7,3.5.6,3.4,2.3,6.3,1.6,10.1-1.5,8.3-16.6,20.6-22.7,27.4-1.6,1.7-3.3,3.3-4.8,5.1l1.6.7c-.7.2-2,1.5-3.2,1.4-.4-.2-1.3.2-1.6,0-.8-.5-1.2-.6-1.6-1.4s.1-.9,0-1.4c.4-.5,1.4-1,1.6-1.4,7.6-5.6,31.3-26.5,28.9-34.9s-3.8-5-5.4-6.8c-1.4,0-15.7,14.7-17.1,17.3-2.4,2.4-5.3,1.3-6.5,1.4,8.5-10.9,19.3-19.9,24-32.8.8-2.1,0-4.6.4-6.1Z"/>
        <path class="st310" d="M342.3,697.7c1.7,2,2,2.9,4.9,4.3,2.9,3.1.9,3.8,0,5.8,1.1-4.4-4.3-3-8.1-4.3-.4-.1-.4-1.3-.8-1.4h-2.4c-2.8,16-14.3,15.4-29.2,11.5l3.2-5.1c-3.9-.9-2.6-2.7-3.3-3.6-.3-2.8-.4-6.2,3.2-7.2-.3,1.7-3,4.6-.8,5.8,5.9-9.3,15.9-13.6,23.5-21.6.4,2.3,1.5,4.9,2.9,6.8s5.2,7.2,6.8,9.1Z"/>
        <path class="st215" d="M339,703.4c3.8,1.3,9.3,0,8.1,4.3-2,4.3-5.3,6.5-8.1,10.1-3.7,1.7-6,1.5-6.5,5.8-4.3,1.7-4.9-2.6-6-2.9-2.9-.6-9.7-1.1-13.5-1.5,3.9-3.6,13.9.2,17.5-1.8s8-11,8.5-14.1Z"/>
        <path class="st321" d="M405.6,673.2c.2,3.6.7,5.7,4.9,7.2l-1.6,2.9c14.3-.9,27.5,5.6,6.5,11.5-1.1.3-4.6,2.2-6.5,2.9s-6.8,2.3-8.1,2.9c0-2.4-2-3.9-3.2-5.8-4.1-6.2-5.2-8-13-11.5v-1.4c8.1-1,12.7-8.8,21.1-8.6Z"/>
        <path class="st113" d="M381.3,621.3c-.5.6-1,1-1.6,1.4-2.1,1.6-9.3,1-1.6,5.8-.5,1.3-3,1.2-3.2,1.4-4.1,3.7.9,6,1.6,8.6,2.8,10.9-2.5,24.9.3,32.2,2.7,7,11.9,2.2,16,1s1.6,1.3,3.2.7c2.9-1.2,7.1-7.1,11.4-9.3-.3,3.4-1.8,6.6-1.6,10.1-8.5-.2-13,7.6-21.1,8.6-3.9-4.6,1-1.3,1.6-4.3-5.5.5-9.1-.2-12.1-4.5s-.5-3.7-.9-4.2c0-1.4,0-2.9,0-4.3,0-6.8,5.5-27.7-6.5-28.8-.7,0-3.4,1.6-4.9,1.4-.6-1.9-1.2-3.8-1.6-5.8,3.2.4,3.6-1.9,4.9-2.9,5.6-4.2,12.7-8.8,16.2-14.4.5,2.2,3.3,2.8,0,7.2Z"/>
        <path class="st339" d="M373.1,450c17,2.1,29,11.6,42.4,19.4s4.2.5,4.7.8c5.8,3.4,6.8,4,11.4,8.6v2.9c-5.1-2.7-11-.8-16.2-1.4-2.7-2.3,1.7-4.2.9-5.8s-15.7-11.5-18.8-13c-2.6-1.2-5.1-2.7-8.1-2.9s-2.2,0-3.2,0c-5.1-.5-9.4-2.1-14.6-2.9-3.9-2.7-9.8-2.8-14.6-2.9l1.6-2.9c3.5-.4,11.2-.4,14.6,0Z"/>
        <path class="st306" d="M428.4,663.1l-11.4-1.4c2.3-3.9.9-9-4.9-8.6v-1.4c.5-.4,1.4-.9,1.6-1.4l22.7-7.2c7.1.4-1.2,17.2-8.1,20.2Z"/>
        <path class="st75" d="M434.9,694.8c-1.1,0-2.2,0-3.2,0-1.6,0-3.3,0-4.9,0l3.2,13c-3.9,3.2-7.6,5.2-13,5.8-4.1-1.9-2.6-3.2-3.2-5.8,3.4-2,3.4-4.8,1.8-7.8l-6.7-2.3c1.9-.7,5.4-2.6,6.5-2.9,4.7-1.2,15.5-2.7,19.5,0Z"/>
        <path class="st52" d="M431.6,478.8c1.6,1.6,5.8,2.3,4.9,5.7l-11.4,1.5c-.8.6,4,7.7,4.9,8.6h-1.6c-.5.1-1.1-.1-1.6,0-2.1-4.1-6.2-5.4-10.6-7.1l-2.4,4.3c-1-1.6-3.1-3.3-4.9-4.3,2-.6,3.6-2.2,6.5-1.5l-3.2-2.9,1.6-2.9c.5,0,1.1,0,1.6,0,5.3.6,11.1-1.2,16.2,1.4v-2.9Z"/>
        <path class="st145" d="M412.1,651.6v1.4c-.3,0-2.3,1.2-4.9,1.4-1-5.7.3-3.8-3.2-10.1-.5-.9.3-2.9-1.5-5.1-4-4.8-19.6-8.9-22.9-16.5.6-.5,1.2-.8,1.6-1.4,11.1,9.2,30.5,14.5,30.9,30.2Z"/>
        <path class="st55" d="M382.9,547.9c.9,0,3.2-1.8,5.5-1.5s.7,2.4,2.2,2.9c2.3.8,6.1-.3,8.6,1.5.1,1.3-.4,2.7,1.6,2.9h19.5c.1,1.7,0,3.1,1.6,4.3v1.4c-5.4-1-10.8-2-16.2-2.9-4.7-.8-11,.2-16.2-1.4-.4-.1-3.2-3.7-6.2-3.1-.8-.8-.4-2.9-.3-4.1Z"/>
        <path class="st50" d="M412.1,661.7c0,7.1,15.4,19.2-1.6,18.7-4.1-1.5-4.7-3.6-4.9-7.2s1.3-6.6,1.6-10.1c.8-.4,2.6-1.4,3.2-1.4s1.2,0,1.6,0Z"/>
        <path class="st333" d="M379.6,609.8c.5,1.2,1.6,2.7,1.6,2.9.1.5-.1,1,0,1.4-3.6,5.6-10.6,10.2-16.2,14.4-2.1-7.9,6.6-11.3,8.1-17.3l-4.9,1.4c4.2-3.8,3.7-5.7,11.4-2.9Z"/>
        <path class="st81" d="M454.3,539.3c-1.6.4-1.5,1.7-1.6,2.9-5-17.2-9.9-34.5-24.4-47.5h1.6c14.4,15.9,20.6,23.1,24.4,44.6Z"/>
        <path class="st138" d="M421.9,559.4c9.7,1.8,20.5,3.3,28.4,8.6l.8-2.9c.5,0,1.1,0,1.6,0s.7,1.3,1.6,1.4c-3.5,8.4-10.9.3-19.6-2.1s-16-3.3-23.8-4.9c-2.9-.6-6.4,1.4-5.4-3.1,5.4.9,10.8,1.9,16.2,2.9Z"/>
        <path class="st24" d="M376.4,448.5l-3.2,1.4c-3.4-.4-11.1-.4-14.6,0-5.6.6-22.8,6.4-24.4,11.5-.4.1-1.1,0-1.6,0-.4-.6-.9-1.2-1.6-1.4-.2-1.5.2-2.1,1.6-2.9,6.4-3.6,20.3-9.5,27.6-10.1,2.6-.2,13.2.9,16.2,1.4Z"/>
        <path class="st119" d="M412.1,653c5.7-.4,7.2,4.7,4.9,8.6l11.4,1.4c-9.1,3.8-10.2-.4-16.2-1.4s-1.2,0-1.6,0c1.6-3.5-3.1-5.4-3.2-5.8s0-.9,0-1.4c2.6-.2,4.6-1.4,4.9-1.4Z"/>
        <path class="st107" d="M382.9,547.9c-.1,1.2-.5,3.3.3,4.1,3-.6,5.8,3,6.2,3.1h-8.1s1.6,4.3,1.6,4.3c-.9-.5-3.7-.4-4.9-1.4l1.5-2.2c-1.6-2-4.1-2.6-6.4-3.6.4-1.5,2-1.2,3.2-1.4,2.4-.4,3.9,1.1,3.2-2.9.2,0,1.9,0,3.2,0Z"/>
        <path class="st337" d="M436.5,642.9l-22.7,7.2c4.1-9.2,12.9-7,22.7-7.2Z"/>
        <path class="st322" d="M244.8,691.9l2.4,5.7,9.8-5.8,5.7,5.8c-3.7,3.5-6.6,7.5-11.4,10.1s-16.2,7-17.1,7.2-2-3.6-5.6-4.3v-1.4c4.8-1.9,13.6-5.5,14.7-10.8.5-2.7-2.2-3.1-3.3-2.2-3.2,2.7-.9,6.9-11.4,2.9.3-.7-.7-2.6.4-4s4.7-2.4,6.1-3.2c.7.5,1.1,2.6,2.6,2.8,2.4-.9,4.8-1.9,7.2-2.8Z"/>
        <path class="st51" d="M254.6,681.8c-4.9,3.5-13.8,6.8-19.5,10.1-1-.7-3.5-1.6-3.2-2.2,3.1-2.1,6.1-4,8.9-6.5s4.4-3.3-.8-2.9c6-2.5,8.5-2.9,14.6-4.3,2.7-.6,4.4-2.4,6.5-2.1-.8,2.1-4.8,6.7-6.5,7.9Z"/>
        <path class="st48" d="M228.6,699.1c10.5,4,8.2-.2,11.4-2.9s3.8-.5,3.3,2.2c-1,5.2-9.9,8.9-14.7,10.8s-2.5.2-3.2,1.4c-.6,0-1.3-.2-1.6,0-.1-4.6,2.8-7.5,4.9-11.5Z"/>
        <path class="st198" d="M228.6,709.2v1.4c-.7-.1-2.5-.1-3.2,0,.7-1.2,2.2-1,3.2-1.4Z"/>
        <path class="st250" d="M431.6,694.8c4.7,7.2,4.8,7.8-1.6,13l-3.2-13c1.6,0,3.2,0,4.9,0Z"/>
        <path class="st104" d="M355.3,667.4c12.5,8.5,15.6,9.7,29.2,15.8s8.9,5.3,13,11.5c-12.6-5.2-23.7-14.5-37.4-17.3-3.4-3.1-11.2-12.8-15.5-14.4-5-1.8-.8,4-.8,4.3,1.1,13.4,3.5,19.9,21.1,20.2,2.2,0,4.3,0,6.5,0,2.2,1,7.5,1.2,11.4,2.9,3.2,4.4,4.8,12.3,8.1,15.8-1.4,8.6-5.3-3.1-6.8-4.8-2.1-2.4-5.4-6.3-7.9-8.2-4.8-3.7-3.8-1.3-6.5-1.4-1.1,0-2.2,0-3.2,0-4.3-.3-5.5-.2-9.7-1.4s-6.6-3.3-9.7-4.3c-9.9-5.9-7.1-24.2-14.6-28.8-.2-1.4,0-2.9,0-4.3,2.4-2,19.1,11.9,22.7,14.4Z"/>
        <path class="st249" d="M376.4,693.3c-1.5,2.5,1.1,11.1,2.1,13.3s4,4,4.7,6.7c2.7,1.4,10.7-3.5,12.7-4.2s5.1-1.6,8.1-1.4l-4.9,3.6,3.2,5c-6.1-.6-17-1.3-22.7-1.4-5.4-6.8-6.5-15.4-9.7-23,2.7.1,1.7-2.3,6.5,1.4Z"/>
        <path class="st158" d="M397.5,694.8c1.2,1.9,3.1,3.4,3.2,5.8-.5.2-1,2.2-1.6,2.9-6.3-4.9-7.7-9.2-16.2-13-3.9-1.7-9.1-1.9-11.4-2.9-2.8-1.2-8.5-7.5-11.4-10.1,13.7,2.8,24.7,12.1,37.4,17.3Z"/>
        <path class="st153" d="M376.4,693.3c2.4,1.9,5.8,5.8,7.9,8.2,1.4,1.7,5.3,13.4,6.8,4.8.9,1,3.6,1.8,4.9,2.9-2,.6-10,5.5-12.7,4.2-.7-2.7-3.7-4.4-4.7-6.7s-3.6-10.8-2.1-13.3Z"/>
        <path class="st235" d="M408.9,697.7l6.7,2.3c1.6,3,1.6,5.8-1.8,7.8-.2-.8.1-1.9,0-2.9-7.5,1.6-8.7,3.1-14.6-1.4.6-.7,1.2-2.7,1.6-2.9,1.3-.6,5.8-2,8.1-2.9Z"/>
        <path class="st139" d="M369.9,691.9c3.3,7.6,4.3,16.3,9.7,23-2.5,0-4.1.7-4.9,2.9-6.6-3.3-7.9-12.7-9.7-18.7l3.2,1.4-1.6-8.6c1.1,0,2.2,0,3.2,0Z"/>
        <path class="st326" d="M368.3,716.4c-1.6.2-3.4-.2-4.9,0-2.3-3.7-6.2-6-9.7-8.6s-.7-1.3-1.6-1.4c.6-.9,1.3-1.8,1.6-2.8-1.9-.5-4.9-.7-6.5-1.5-2.9-1.4-3.1-2.3-4.9-4.3l19.6,3.5c2.4,5,4.1,10.1,6.4,15.2Z"/>
        <path class="st86" d="M347.1,686.1c3.1,1.1,7.1,3.5,9.7,4.3l-3.2.7c2,6.5,9.9,4.1,11.4,6.5-10.5.6-21.3-2.9-26-11.5v-2.9c2.5,1.6,5.4,1.9,8.1,2.9Z"/>
        <path class="st151" d="M347.1,686.1c-2.7-.9-5.6-1.3-8.1-2.9v2.9c-3.2-5.9-3.9-11-4.9-17.3s-1.2-7.8-1.6-11.5c7.5,4.6,4.7,22.9,14.6,28.8Z"/>
        <path class="st223" d="M356.9,690.5c4.3,1.3,5.5,1.2,9.7,1.4l1.6,8.6-3.2-1.4c-.2-.5.2-1.1,0-1.4-1.5-2.4-9.4,0-11.4-6.5l3.2-.7Z"/>
        <path class="st127" d="M368.3,716.4c.6,1.4,2.2,2.3,1.6,4.3l-13,1.4-3-.2,1.4-2.7c2.4-1.1,5.5-2.4,8.1-2.9s3.3.2,4.9,0Z"/>
        <path class="st94" d="M363.4,716.4c-2.6.5-5.7,1.7-8.1,2.9s-2.7-.3-4,1.5c-2.8,3.8,1.6,4.1-8.1,4.3l-.8-1.4,11.2-5.9.2-9.9c3.6,2.6,7.4,4.9,9.7,8.6Z"/>
        <path class="st328" d="M353.6,707.7l-.2,9.9-11.2,5.9c-.4-2.1,2.1-6.5,3.2-8.6,1.2-2.2,4.8-5.8,6.5-8.6.9.1,1.2,1.1,1.6,1.4Z"/>
        <path class="st159" d="M347.1,702c1.6.7,4.6,1,6.5,1.5-.3,1-1.1,1.9-1.6,2.8-1.7,2.8-5.3,6.5-6.5,8.6-2,2.9-6.1,2.7-6.5,2.9,2.8-3.6,6.2-5.8,8.1-10.1s2.9-2.7,0-5.8Z"/>
        <path class="st229" d="M272.4,687.6c-2.4,3.3-6.6,7.1-9.7,10.1l-5.7-5.8-9.8,5.8-2.4-5.7c12.3-5,22.7-14.5,31.7-23,2.8,7.5.3,12.6-4.1,18.7Z"/>
        <path class="st167" d="M282.2,664.5c-4.7,8.7-.6,12.3-1.6,17.8s-3.1,2.2-4.9,6.7c-.2.4-1.2.9-1.6,1.4-.3-1.1,0-2.4-1.6-2.9,4.4-6.1,6.8-11.2,4.1-18.7-9,8.5-19.4,18.1-31.7,23-2.4,1-4.8,1.9-7.2,2.8-1.5-.2-1.9-2.3-2.6-2.8,5.7-3.3,14.6-6.5,19.5-10.1,9.1-2.1,13.4-8.4,17.9-14.4,1-.3,2.3-1.3,3.2-1.4,1.2-.2,4.1,1,6.5-1.4Z"/>
        <path class="st109" d="M162,529.2c-4.7,12.9-5.5,17.7-4.9,31.7,0,1,0,1.9,0,2.9,8.8-1.7,17.6-4.1,26.4-6.1,1.9-.4,2.6-2.5,2.8-2.5,3.6-.8,11.2-.7,16.2-1.4.2.7.9,1.3,1.6,1.4l-3.2,2.9c-3.3.3-6.5,1.1-9.7,1.4-13.4,1.5-19.2,4-31.4,7.5s-1.6,2.1-3.5-.3c-7.1-8.9.6-33,4-43.2l4.9-2.9c-.8,1.5-2.5,6.5-3.2,8.6Z"/>
        <path class="st68" d="M261.1,601.2c2.5,0,6.3,1.2,9.7,1.4s5.8-.2,8.1,0l4.9,3.6-4.9,5c5.7-.9,9.8.5,14.6,1.5h-6.5s0,2.9,0,2.9c-.5-.1-1.1.1-1.6,0-2.4-.6-4.1-.9-5.7-2.9l-.8,2.9c-4.9,1.1-9.6,1.2-14.6,1.4,2.2-6.1-5.7-4.8-6.5-5.8-2.9-3.4,4-2.1,3.2-4.3-5.2,0-7.1-.7-11.4-2.9,2.4-.8,5.6-2.6,8.1-2.9s2.2,0,3.2,0Z"/>
        <path class="st294" d="M249.7,604.1c4.3,2.2,6.1,2.8,11.4,2.9.7,2.2-6.1.9-3.2,4.3s8.7-.4,6.5,5.8c-3.3.2-7.2-.4-11.4,0-3.5-3.2-9.2-5.2-9.7-10.1.4-.2.7-1.6,1.7-2.1,2-.9,3.7-.4,4.8-.8Z"/>
        <path class="st112" d="M285.4,615.6c-.7,3.9,2.2,2.4,3.2,2.9l-14.6,1.4.9,4.4c-4.4,4.7-9.6.2-13.9,0,0-1.4-1.2-2.9-1.6-4.3,6.1-2.6,14.5.6,19.5-4.3l.8-2.9c1.6,2,3.3,2.3,5.7,2.9Z"/>
        <path class="st332" d="M252.9,617c-2.3.2-7.1,1-9.7,1.4-6.6-7.5-9.1-6.3,0-11.5.6,4.9,6.3,6.9,9.7,10.1Z"/>
        <path class="st279" d="M261.1,624.2c.3,9.1-3.7,3.4-6.5,3.6s-3.9,1.4-3.2,3.6c-.5-.4-10.3-2.8-11.4-2.9,7.6-2.2,12.7-4.9,21.1-4.3Z"/>
        <path class="st191" d="M257.8,491.7l-14.6,44.6c-2.7,3-15.3,12.2-9.7,14.4.5.2,2.3,0,3.2,0-1.6,3.5-7,0-8.1,0v-2.9c1.1-.7,6.9-7.1,8.1-8.6,10.2-13.4,13.7-33.6,19.5-49,1.8-.2,1.5,1.3,1.6,1.4Z"/>
        <path class="st304" d="M262.7,543.6c-8.7,3.3-16.1,7.1-26,7.2-.9,0-2.7.2-3.2,0,1.2-8,6.4-3.6,11.7-4.6s8.9-2.7,12.6-4.1l4.9,1.4Z"/>
        <path class="st293" d="M283.8,533.5c-2.6,1.7-5.3,2.9-8.1,4.3-5,2.5-7.7,3.7-13,5.8l-4.9-1.4c5.8-2.1,19.7-8.3,24.4-11.5l1.6,2.9Z"/>
        <path class="st176" d="M228.6,547.9v2.9c-6.6.4-12.8,5.9-24.4,4.3-.8-.1-1.4-.7-1.6-1.4,2.8-.4,5.3-1,8.2-.8l1.5-2.1c.1-.9-.2-2.1,0-2.9,4.2,2,12.2,2.4,16.2,0Z"/>
        <path class="st3" d="M288.7,576.7c-1.5,3.7-1.9,7.6-1.6,11.5l3-1.1,1.9,2.6c-.6.9-1,2-1.6,2.9-1.8,2.5-3.4,4.2-4.9,7.2-7.6-.1-4.7-11.2-4.9-16.6s-1.6-2-1.6-2.1c0-1.8,2.1-4.9,1.6-7.2,1.5-.9,2.4-2.9,4.9-4.3s3,1.3,8.1-4.3l1.6.8c.1,4.4-4.7,6.3-6.4,10.7Z"/>
        <path class="st117" d="M285.4,599.7c-.9,1.9,1.8,3.7-4.9,2.9-.5,0-1.1,0-1.6,0-2.3-.2-5.1.2-8.1,0l4.9-17.3c1.3-1.3,2.1-2.9,3.2-4.3,0,.1,1.5-.1,1.6,2.1.2,5.3-2.6,16.4,4.9,16.6Z"/>
        <path class="st217" d="M270.8,602.6c-3.5-.2-7.2-1.4-9.7-1.4,4.7-5.5,9.3-10.7,14.6-15.8l-4.9,17.3Z"/>
        <path class="st16" d="M186.3,660.2c3.1-.8-.7-5.1,0-5.7s7.4-2.1,8.8-2.9l4.2-4.3c9.8,7.1-3.7,21-13,13Z"/>
        <path class="st172" d="M290.3,471.6c2.4,1.5,4.1,1.1,4.9,1.4,3.8,1.9,7.5,5.2,12.3,5.7s8.6-1.9,13.7-2.8c2.6-.5,5.7-1.2,8.1,0h1.6c-1,0-8.2,2.2-9.7,2.9s-4.4,2.9-4.9,5c-1.1,5,.6,14.2,0,20.9s-2.4,1.4-.9,5.7,4.8,5.9,7.4,8.7c8.2,8.8,16.4,15.9,27.6,21.6-.5,1.4-1.8,1.5-3.2,1.4s-1.1,0-1.6,0-1.6-1.2-3.2-1.4c-3.4-4.1-9.9-5.6-14-9.2-4.8-4.2-8-11.7-14.4-15.3h-2.3c-4.1,6.1-12.2,10.2-18,15.8h-3.2s1.6-2.9,1.6-2.9c1-.8,4.9-5.4,6.5-7.2,7-7.5,5.1-6.3,8.1-14.4,3.6-9.6,8.5-13.8-.6-22.5s-15.1-10.8-23.8-7.7c-.6-.4-1.1-1-1.6-1.4,1.2-.6,2.7-.8,2.9-2.3l-1.3-9.3c2,2.8,5,5.3,8.1,7.2Z"/>
        <path class="st150" d="M293.5,532.1c5.8-5.6,13.9-9.7,18-15.7h2.3c6.4,3.5,9.7,11.1,14.4,15.2,4.1,3.6,10.6,5.1,14,9.2-1.8-.2-4.1,1-6.5.5-5.4-1.1-15.4-10.6-20.9-7.5-.4,2.5-2.1,3.7-3.5,5.5v-2.9s-3.2,1.4-3.2,1.4c.7-1.6,4.1-9.2,3.2-10.1-8.2.3-13.1,5-19.5,8.6,0-.5-1.8-1.7-1.3-2.6s2.2-1,2.9-1.7Z"/>
        <path class="st284" d="M291.9,536.4c6.4-3.6,11.3-8.3,19.5-8.6.9.8-2.5,8.4-3.2,10.1-2.2,4.9-5,8.6-8.1,13l-1.6-8.6h-3.1c0,.1-.9,2.9-.9,2.9l-2.5-1.4c.3-2.2-.1-4.9,0-7.2Z"/>
        <path class="st277" d="M291.9,543.6l2.5,1.4.9-2.8h3.1c0-.1,1.6,8.5,1.6,8.5-1.8,2.5-3,7-5.6,8.8s-4.6.8-5.8,1.3c1.1-5.5,2.5-11.8,3.2-17.3Z"/>
        <path class="st97" d="M298.4,522c-1.6,1.8-5.5,6.4-6.5,7.2s-6.1,3-8.1,4.3l-1.6-2.9c1.4-.9,1.9-3.8,8.1-7.2s5.6-1.2,7.3-4.3l.8,2.9Z"/>
        <path class="st57" d="M278.9,640.1c-6.7,7.6-21,28.5-27.6,33.1-3.2,2.2-8.5,2.9-11.4,4.3,3.3-3,2.3-7.2,3.2-10.1s1.5-1,1.6-1.4c-.5,4.6,1.2,3.1,3,.5,3.6-5.3,10.4-15,12.9-20.3s1.3-4.5-1.3-2.6c-3.9,2.6-5.2,9.8-7.4,12.3s-3.8,1.2-4,1.4v-1.4c2.4-4.1,2.6-8.5,3.2-13l3.3-10.1c1.3-1.2,20.4,6.4,24.4,7.2Z"/>
        <path class="st77" d="M248.1,634.3c1.3,5.9-1.4,11.9-1.6,17.3-3.6-3.6-9.6-11.5-8.1-15.8,5.7.2,5.3,1.3,8.9-4.3,1.7,0,.4,2.4.8,2.9Z"/>
        <path class="st166" d="M248.1,657.3c.2-.2,2.6,0,4-1.4,2.2-2.4,3.4-9.6,7.4-12.3,2.6-1.9,1.8,1.3,1.3,2.6-2.5,5.3-9.2,15-12.9,20.3s-3.5,4-3-.5c1.1-3.1-.5-4.9,3.2-8.6Z"/>
        <path class="st279" d="M252.9,635.7c0,.9-1.3,5-1.6,7.2-.6,4.5-.9,8.8-3.2,13-1.7-1-1.7-2.7-1.6-4.3.2-5.4,2.9-11.4,1.6-17.3.9.9,3.5,1.2,4.9,1.4Z"/>
        <path class="st248" d="M288.7,618.5c1.5.7,3.1,1.4,4.9,1.5l-.2,1.9c-3.4,6.2-6.8,12.4-11.7,17.8s-2.6.3-2.7.4c-3.9-.8-23-8.4-24.4-7.2l-3.3,10.1c.3-2.2,1.6-6.3,1.6-7.2,0-1.5-.8-3-1.6-4.3-.7-2.3.6-3.5,3.2-3.6s6.9,5.5,6.5-3.6c4.2.3,9.4,4.8,13.9,0l-.9-4.4,14.6-1.4Z"/>
        <path class="st19" d="M287,615.6c2.5.8,5.1.8,8.1,2.9s.9,2.3,1.6,2.9c-4.9,13.6-16.7,23.2-26,34.6-5.2,6.4-9,14-16.2,18.7l-3.2-1.4c6.6-4.6,20.9-25.5,27.6-33.1.1-.2,2.1.2,2.7-.4,4.9-5.4,8.3-11.6,11.7-17.8l.2-1.9c-1.8,0-3.3-.7-4.9-1.5s-3.9,1-3.2-2.9c.5.1,1.2-.1,1.6,0Z"/>
        <path class="st289" d="M272.4,667.4c-4.5,6-8.8,12.3-17.9,14.4,1.7-1.2,5.7-5.8,6.5-7.9-2.1-.2-3.8,1.5-6.5,2.1v-1.4c7.3-4.7,11-12.4,16.2-18.7l2.4,5.8,5.7-12.9c2.1-.6,2.5,3.3,2.4,4.2-.2,2.1-7,11.9-8.9,14.5Z"/>
        <path class="st298" d="M311.4,539.3c-2.9,3.8-4.2,8.3-6.5,11.5s-2.2,2.9-3.2,4.3c-2,2.8-5.9,7.6-8.1,10.1-5.1,5.6-6.9,3.6-8.1,4.3,1.5-2.8,2.6-5.6,3.2-8.6,1.2-.5,3.4.3,5.8-1.3s3.8-6.2,5.6-8.8c3.2-4.3,5.9-8.1,8.1-13l3.2-1.4v2.9Z"/>
        <path class="st255" d="M306.5,658.8c2.8-1.7,4.5-2.5,2.6,1.6-5,10.7-9.5,14.8-19,23.5-.4.4-5.9,4.9-6.3,2.3,6.2-6.8,21.2-19,22.7-27.4Z"/>
        <path class="st142" d="M311.4,641.5l-3.2-1.4c1.3,4.5-4.8,4.2-3.3,8.6,0-.3-1.7-1.2-1.7-3.5,0-4,3.1-9.1,1.7-13.8,4,1.4,4.9,7.6,6.5,10.1Z"/>
        <path class="st329" d="M324.4,642.9c.2.2,1.9-.3,2.8.4,1.6,1.2,1.8,4.5,4.8,5.2h3.6c0-.1.2-2.7.2-2.7h3.2l27.6,18.7c-2.3,6-7.8-1.1-11.4,2.9-3.7-2.5-20.3-16.4-22.7-14.4,0,1.4-.2,2.9,0,4.3-.4-.2-2.6.5-3.1-.1s-1.9-11.9-5-14.3Z"/>
        <path class="st106" d="M311.4,619.9c7.6,5,6.2,4.6,11.4,11.5v2.9s-4.9,0-4.9,0c-.5-.4-3.8-.5-4.9-1.4-.6-1.6-8-9.6-8.9-10.1-2.3-1-3.8,3.5-4,4.3,1.8-7.1-2.6-5.2-3.2-5.8s-1-2.5-1.6-2.9l16.2,1.4Z"/>
        <path class="st61" d="M335.8,645.8l-.2,2.6h-3.6c-2.9-.6-3.2-3.9-4.8-5.1s-2.6-.2-2.8-.4c-2.8-2.6-5.1-7.5-6.5-8.6h4.9s0-2.9,0-2.9c3.8,5,6.9,13.2,13,14.4Z"/>
        <path class="st44" d="M282.2,664.5c1.4-2.5,15.7-17.3,17.1-17.3,1.6,1.8,4.8,4.8,5.4,6.8,2.3,8.4-21.3,29.3-28.9,34.9,1.8-4.6,4.9-6.3,4.9-6.7,1-5.5-3.1-9,1.6-17.8Z"/>
        <path class="st200" d="M296.8,621.3c.7.6,5-1.4,3.2,5.8-.4,1.5.4,3.9-.4,6.1-4.7,12.9-15.5,21.9-24,32.8-.9.1-2.2,1.1-3.2,1.4,1.9-2.5,8.7-12.4,8.9-14.5s-.3-4.8-2.4-4.2l-5.7,12.9-2.4-5.8c9.3-11.3,21.1-21,26-34.6Z"/>
        <path class="st219" d="M327.7,444.2c1.6,3.8,2.2,9.1,4.9,13-1.4.8-1.8,1.4-1.6,2.9-.5-.2-1.3.2-1.6,0-.4-7.6-5.1-14.7-8.1-21.6l1.6-2.9c.8,2.3,3.9,6.2,4.9,8.6Z"/>
        <path class="st20" d="M342.3,591.1v2.9c7.8-1.3,8.1-2.4,14.6,1.4v6.4s9.7,8.1,9.7,8.1c-1.5,1.4-2.3,4.6-5.4,4.1l-22.2-14.2c-3.2-8.5.5-3.8,3.2-8.6Z"/>
        <path class="st227" d="M352,546.5c1.2,14.5-2.3,31.6-9.7,44.6-2.7,4.8-6.5.1-3.2,8.6.2.4-.2,1,0,1.4-3-.6-6.6-1.9-9.7-1.4-1.2.2-3.4,2.3-4.9,2.9v-2.9c5.6-3,11-6.6,14.6-11.5,8.3-11.3,10.4-27.2,9.7-40.3s0-1,0-1.4c1-.1,2.4.2,3.2,0Z"/>
        <path class="st285" d="M339,599.7l22.2,14.2c3.1.4,3.9-2.8,5.4-4.1,2.6-2.4,2.8-3.9,3.2-4.3,2.1-2.2,6.3-1.6,8.8-.1,2,1.2.5,3.4.9,4.5-7.7-2.9-7.2-.9-11.4,2.9-2.8,2.5-7.5,5.1-8.1,5.8.1-3.1-13-9.4-16.2-10.1-.8-2.7-3.8-4.9-4.9-7.2s.2-1,0-1.4Z"/>
        <path class="st272" d="M356.9,595.4c1,.6,4.5-1.3,3.3,4.3l6.5-1.5c3.1,2-3,11.6,3.3,7.2-.4.4-.7,2-3.2,4.3l-9.7-8.1v-6.4Z"/>
        <path class="st132" d="M355.3,542.1c7,3.1,13.8,6.1,21.1,8.6-1.3.2-2.8,0-3.2,1.4-5.1-2.2-16.5-6.9-21.1-5.8s-2.2-.1-3.2,0c-.2-1.5-.8-3-1.6-4.3,1.4,0,2.8,0,3.2-1.4,1.7.9,3.6.9,4.9,1.4Z"/>
        <path class="st336" d="M368.3,664.5c.8,2.7,4.3,3.5,4.9,4.3s-.2,2.7.9,4.2c3,4.3,6.6,5,12.1,4.5-.6,3.1-5.5-.3-1.6,4.3v1.4c-13.6-6.1-16.7-7.3-29.2-15.8,3.5-4,9.1,3.1,11.4-2.9h1.6Z"/>
        <path class="st188" d="M334.2,609.8c3.6,6.8,17.8,12.8,26,10.1-.3.3.4,1.4,0,2-.8,1.2-3.4.7-3.3,1.7s2.5,4.7,3.3,7.9,1.1,3.9,1.6,5.8-.3,3.4,1.6,7.2l-4.9,1.4c.9,3.9,1.6,5.5-1.6,8.6l9.7,5.8c.7,1.9.9,1.8,1.6,4.3h-1.6l-27.6-18.7c1.7-5.1-5.2-7.9-7.2-10.2s-4.3-6.7-7.4-10c9.3-2.7,8.3-9.2,19.5-2.9.9-2.6-7.1-7-8.5-7.6-3.1-1.1-6-1.3-9.3-1.1l4.9-4.3c1.1,0,2.2,0,3.2,0Z"/>
        <path class="st242" d="M387.8,638.6c2.5,1.2,8.2,2.3,9.7,2.9,2,.8,3.8,2.9,6.5,2.9,3.6,6.3,2.3,4.4,3.2,10.1-.5,0-1.7-1.6-4.7-.7s-4.6,3.5-6.6,5.1-2.9-.8-3.3.9v12.1c-4,1.2-13.2,6-15.9-1-2.8-7.3,2.6-21.3-.3-32.2,3.7.6,7.8,1.9,11.4,0Z"/>
        <path class="st23" d="M373.1,664.5c0,1.4,0,2.9,0,4.3-.6-.8-4.1-1.6-4.9-4.3s-.9-2.4-1.6-4.3c-1.1-3.1,1.9-5.4-3.2-15.8-1.9-3.8-.9-4.7-1.6-7.2,1.4.2,4.2-1.5,4.9-1.4-1.4,5.3,6.1,11.8,6.5,15.2s-4.5,10,0,13.6Z"/>
        <path class="st146" d="M379.6,622.8c3.2,7.6,18.8,11.7,22.9,16.5,1.8,2.2,1,4.2,1.5,5.1-2.7,0-4.5-2.1-6.5-2.9-4.7-6-13.1-9-19.5-13-7.7-4.8-.5-4.2,1.6-5.8Z"/>
        <path class="st309" d="M410.5,661.7c-.6,0-2.4,1-3.2,1.4-4.3,2.2-8.5,8.2-11.4,9.3s-3.1-.7-3.2-.7v-12.1c.3-1.7,2.9-.7,3.2-.9.1,13.5,8.1,3.8,11.4-2.9.2.3,4.9,2.3,3.2,5.8Z"/>
        <path class="st297" d="M365,628.5c-1.3,1-1.6,3.3-4.9,2.9-.8-3.2-3.3-6.8-3.3-7.9s2.5-.5,3.3-1.7-.3-1.7,0-2-.3-1.2,0-1.4c.7-.6,5.3-3.2,8.1-5.8l4.9-1.4c-1.6,6-10.2,9.4-8.1,17.3Z"/>
        <path class="st56" d="M366.6,635.7c12,1.1,6.6,22,6.5,28.8-4.5-3.6.4-9.9,0-13.6s-7.9-9.9-6.5-15.2Z"/>
        <path class="st334" d="M397.5,641.5c-1.5-.6-7.2-1.7-9.7-2.9-4.1-1.9-9.9-5.5-13-8.6.3-.2,2.7-.1,3.2-1.4,6.4,4,14.8,6.9,19.5,13Z"/>
        <path class="st5" d="M387.8,638.6c-3.5,1.9-7.6.6-11.4,0-.7-2.7-5.7-5-1.6-8.6,3.1,3.2,8.9,6.7,13,8.6Z"/>
        <path class="st4" d="M415.4,480.2c-.5,0-1.1,0-1.6,0-5.2-.9-11.4-6.5-16.2-8.6,1.6-.7,2.9-1.8,4.9-1.5,1.2-1.2-9-5.7-4.9-8.6,3.1,1.4,17.9,11.2,18.8,13s-3.7,3.5-.9,5.8Z"/>
        <path class="st62" d="M397.5,461.5c-4.1,2.9,6.1,7.5,4.9,8.6-2-.3-3.3.7-4.9,1.5-2.2-.9-4.3-2-6.5-2.9s-2.4-1.2-3.2-1.4l-4.9-2.9v-2.8s8.1,0,8.1,0l-1.6-2.9c3,.2,5.6,1.7,8.1,2.9Z"/>
        <path class="st341" d="M358.5,450l-1.6,2.9c4.8,0,10.7.2,14.6,2.9-1.5-.2-3.3.1-4.9,0-18.2-1.6-17,1.1-32.5,5.8,1.6-5.1,18.7-10.9,24.4-11.5Z"/>
        <path class="st271" d="M371.5,455.7c5.2.7,9.5,2.4,14.6,2.9-2.3,0-8.7,3-13,1.4-.8,3.1.9,2.8,3.2,4.3-.3,0-4.1,1.7-5.7,1.1s.4-2.1-4.1-2.6c-.5,0-1.1,0-1.6,0,3.6-2.2,6.4-.4,8.1-5-1-1.4-4.6-.6-6.5-.7v-1.4c1.6.1,3.4-.2,4.9,0Z"/>
        <path class="st18" d="M389.4,458.6l1.6,2.9h-8.1s0,2.9,0,2.9l4.9,2.9c-1.4-.5-3.5-1.1-4.9-1.4-2.2-.5-4.3-1.1-6.5-1.4-2.4-1.5-4.1-1.2-3.2-4.3,4.3,1.6,10.7-1.4,13-1.4s2.2,0,3.2,0Z"/>
        <path class="st88" d="M339,477.3c4.8,1.2,12.5,4.1,17.9,5.8,6.7,2,12.8,7.8,20.7,4.7,3.8-1.5,1.7-2.3.4-4.7.4.2,1.2-.2,1.6,0,1.6.7,3.1,1.1,4.9,1.4,8.8,1.6,19.1,3.1,27.6-1.4l3.2,2.9c-2.9-.8-4.5.8-6.5,1.5-6.7,2.1-15.7,3.8-22.7,4.3-4.1.3-8.8,0-13,0h-4.9c-.9-.5-9.4-3.2-9.7-2.9l3.3,16.5c.2,1,1.6.7,1.6.7,1.2,4.9,1.6,11,3.2,15.8-7.1-7.6-7.9-18.1-13-27.4-.5-1-1-2-1.6-2.9-1.1-1.6-3.5-4.6-4.9-5.8-6.9-5.9-16.6-7.2-26-7.2,1.5-.7,8.8-2.9,9.7-2.9s6.6,1.1,8.1,1.4Z"/>
        <path class="st251" d="M413.7,491.7c.9,1.3.5,3.9,2.5,5.8s3.5,1.1,4,1.4c3.1,2.1,6.7,3.6,9.7,5.8-3.8,1.9-8.8-1.2-13.7-1.5-6.3-.4-14.4-.6-20.4,1.5-1-.7-3.1-1.8-4.9-2.9l-4.9-10.1c7-.5,16.1-2.2,22.7-4.3,1.8,1,3.9,2.8,4.9,4.3Z"/>
        <path class="st189" d="M428.4,494.6c14.5,13,19.4,30.4,24.4,47.5-.5,7.6.3,15.4,0,23-.5,0-1.1,0-1.6,0-.3-4.6.5-9.2,0-13.8s-1.6-3.2-1.7-3.5c-1.1-8.7-1.6-15.9-4.9-24.5-1.7-4.3-2.4-5-4.9-8.6s-4.2-6.2-9.7-10.1c-3-2.1-6.6-3.7-9.7-5.8,1.2-2.4,3.9-3.5,6.5-4.3s1.1.1,1.6,0Z"/>
        <path class="st1" d="M413.7,480.2l-1.6,2.9c-8.5,4.6-18.8,3.1-27.6,1.4l16.2-5.8-8.1-4.3c-.3-1.8,3-2,4.9-2.9,4.8,2.1,11.1,7.7,16.2,8.6Z"/>
        <path class="st170" d="M426.7,494.6c-2.6.8-5.3,2-6.5,4.3-.5-.4-2.6,0-4-1.4s-1.6-4.4-2.5-5.8l2.4-4.3c4.4,1.7,8.5,3,10.6,7.1Z"/>
        <path class="st83" d="M373.1,491.7c4.2,4.6,12.3,6.5,17.9,10.1,1.7,1.1,3.9,2.2,4.9,2.9s.4,2.2,3.2,4.3c-1.3,2.3,1.5,4.9,1.6,5.8,1.1,8.9,0,20.9,0,30.2v8.6c-2.1-.1-1.5-1.6-1.6-2.9-1.7-15.7,3.6-26.7-4.9-41.8-.3-.5.2-2,0-2.9l-2.4,2.9c-1.5-1.9-3.8-2.9-5.7-4.3-4.3-3.2-13.6-10.7-17.9-13h4.9Z"/>
        <path class="st137" d="M399.1,550.8c-2.4-1.9-6.3-.8-8.6-1.5s-1.2-2.7-2.2-2.9c-2.2-.3-4.6,1.5-5.5,1.5.7-7.6,12.5-2.4,13-2.9l-1.6-36c8.5,15.1,3.2,26,4.9,41.8Z"/>
        <path class="st280" d="M420.2,553.7h-19.5v-8.6l2.5,5.8,13.6-3,.2-18.6c4.9,9.4,2.5,15,3.2,24.5Z"/>
        <path class="st240" d="M421.9,532.1c1.3,7.3.5,18.1,1.6,25.9h-1.6c-1.7-1.2-1.5-2.6-1.6-4.3-.7-9.5,1.6-15-3.2-24.5s-6.4-7.9-11.4-12.2c-.8-.7-4.2-5-4.9-2.2-.1-.9-2.9-3.5-1.6-5.8,7.9,6,20.9,12.8,22.7,23Z"/>
        <path class="st273" d="M451.1,565.2l-.8,2.9c-8-5.4-18.7-6.9-28.4-8.6v-1.4h1.6c6.8-1.3,15.4,5,20.3,0,2.7,2.7-.5,4.6,5.7,5.7-2-6.7-4.8-9.2,0-15.8,0,.3,1.5,1.6,1.7,3.5.4,4.6-.4,9.2,0,13.8Z"/>
        <path class="st299" d="M329.3,460.1c.3.2,1.1-.2,1.6,0s1.2.9,1.6,1.4c-1,.1-2.2-.1-3.2,0,1.4,7.6-1.7,10.3-8.1,14.4-5.1,1-7.7,3.5-13.7,2.8s-8.5-3.9-12.3-5.7c9.7,2.1,24.3-12.3,17.4-19.8s-12.6-5.6-14.2-6.1c19,3.5,18.3-1.9,16.2-15.8,5.5,6.8,7.1,24.4,14.6,28.8Z"/>
        <path class="st28" d="M332.5,461.5c.6,0,1.2.1,1.6,0-.5,1.5.3,4,0,5.8,4.5,1.2,8.3-.9,11.4-1.4,6.5-1.1,12.8-2.9,19.5-2.9s1.1,0,1.6,0c-8.2,3.9-18.6,6.2-27.6,8.6-4.2,1.2-11.1.3-9.7,4.3-2.4-1.2-5.6-.5-8.1,0,6.4-4.1,9.6-6.8,8.1-14.4,1.1-.1,2.2.1,3.2,0Z"/>
        <path class="st0" d="M407.2,654.5c0,.5-.2,1.1,0,1.4-3.3,6.7-11.3,16.4-11.4,2.9,2-1.6,3.8-4.2,6.6-5.1s4.2.8,4.7.7Z"/>
        <path class="st66" d="M363.4,506.1l4.1,7.2c8.8,6.5,6.7-10.1,13-10.1,2.6,2.9,2.5,6.9,5.7,1.4,1.9,1.4,4.2,2.4,5.7,4.3l2.4-2.9c.2.9-.3,2.3,0,2.9l1.6,36c-.5.5-12.3-4.7-13,2.9-1.3,0-3,0-3.2,0-1.7-.4-7.6-2.2-9.7-2.9,10-5.6-.5-15-3.2-23-1.7-4.9-2-10.9-3.2-15.8Z"/>
        <path class="st42" d="M358.5,540.7c2.9,1.4,8.2,3.4,11.4,4.3,2.2.7,8.1,2.5,9.7,2.9.6,4-.9,2.4-3.2,2.9-7.3-2.5-14.1-5.6-21.1-8.6l3.2-1.4Z"/>
        <path class="st314" d="M343.9,667.4l16,13.9,5.1,6.2c-17.6-.2-20-6.7-21.1-20.2Z"/>
        <path class="st162" d="M343.9,667.4c0-.3-4.2-6.1.8-4.3,4.3,1.5,12.1,11.3,15.5,14.4s8.5,8.9,11.4,10.1c-2.2,0-4.3,0-6.5,0l-5.1-6.2-16-13.9Z"/>
        <path class="st73" d="M249.7,447.1c5.3.5,19.6,4.2,21.1,10.1-2.5-.4-6-1.3-8.1-1.4-5.3-4.6-13.4-.4-19.5,0-2.1.2-4.4-.1-6.5,0-4.3.3-8.8-.8-13.1.7v6.5c-4.9,3.1-10.9,7.1-14.5,11.5-4.7,3-8.4,7-13,10.1-.3-.1-1.2,0-1.6,0,.9-4.3-2.5-2.8-5.6-2.9-5.2-.2-13,2-15.5-2.9,4.2-4.2,18.4-13.3,24.4-17.3,12.2-2.1,23.9-10.2,35.7-13,5.5-1.3,10.5-2,16.2-1.4Z"/>
        <path class="st26" d="M265.9,424.1c.6.6,1,2,1.6,2.9s2.7,4.7,3.2,5.8c3.5,7.5,5,17,8.1,24.5.2.4-.2,1,0,1.4-2.6-.9-5.4-1-8.1-1.4-1.5-5.9-15.8-9.6-21.1-10.1l15.5-5.7c3-6.6-2-12.4-2.5-18.8,1.5,0,2.3.5,3.2,1.4Z"/>
        <path class="st211" d="M233.5,448.5c-11.8,2.8-23.5,10.9-35.7,13,10.3-6.9,15.9-9.5,28.4-13,2.1-.6,5.9-2.7,7.3,0Z"/>
        <path class="st274" d="M184.7,488.9c-.6.4-1,2.4-1.6,2.9-8.9,6.8-16.6,13.6-21.1,24.5h-1.6c6.3-14.1,10.8-18.5,22.7-28.8l1.6,1.4Z"/>
        <path class="st41" d="M173.4,478.8c2.5,4.8,10.3,2.7,15.5,2.9s6.5-1.5,5.6,2.9c-.8,0-5.2,2.2-6.5,2.9s-2.3.9-3.2,1.4l-1.6-1.4c1.5-1.3,4.1-1.2,3.2-4.3-5.5,3-10.5.6-16.2,0-.3-.3,2.6-3.7,3.2-4.3Z"/>
        <path class="st234" d="M183.1,491.7c5.6,0,4.8,3.7,3.2,7.2-6.9,3-14.3,9.9-17.9,15.8s-2.1,3.4-3.2,5.8l-4.9,2.9c.7-2.1.6-4.8,1.6-7.2,4.5-10.9,12.2-17.7,21.1-24.5Z"/>
        <path class="st265" d="M212.3,514.8c-2.6,10.8-2.8,25.2,0,36l-1.5,2.1c-2.9-.2-5.4.3-8.2.8-5,.8-12.6.7-16.2,1.4v-1.4c-4.6-6.5-.2-17.7-6.5-21.6v-1.4c.5-.1,1.2.2,1.6,0,9-2.9,22.6-15.1,31.7-20.2,2.6,1.1-.6,3.3-.8,4.3Z"/>
        <path class="st181" d="M196.1,500.4l1.6,1.4-12.6,4.9c-11.1,7.5-10.9,6-13.5,17.3-.4,1.8-6,9,.9,9.2.4,0,5.1-1.9,7.3-2.5v1.4c-2.3,1.8-4.4,3.8-6.5,5.8-7.7-1.4-10.2.9-11.4-8.6.8-2.1,2.5-7.1,3.2-8.6,1.1-2.3,2-3.6,3.2-5.8,8.3-6,15.6-14.7,27.6-14.4Z"/>
        <path class="st169" d="M162,529.2c1.2,9.6,3.7,7.2,11.4,8.6-4.8,4.5-6.2,6-9.7,11.5-2.5,3.9-4.8,7.1-6.5,11.5-.7-14,.2-18.8,4.9-31.7Z"/>
        <path class="st258" d="M163.6,549.3c4.3.1,3.7,3.4,6.9,4.7s10.6,2.5,11.7,2.5.9-4,4.2-2.9v1.4c-.2,0-.9,2.1-2.8,2.5-8.8,2-17.6,4.4-26.4,6.1,0-.9,0-1.9,0-2.9,1.7-4.4,4-7.6,6.5-11.5Z"/>
        <path class="st36" d="M298.4,605.5c-2.3.6-7.9.6-8.1,2.9,13.5,2.1,25.3,8.2,34.1,17.3s4.8,6.8,7.4,10,8.9,5.1,7.2,10.2h-3.2c-6.1-1.2-9.2-9.4-13-14.4s-3.7-6.5-11.4-11.5c-7.6-5-8.6-5.4-17.9-7.2-4.8-.9-8.9-2.4-14.6-1.5l4.9-5-4.9-3.6c.5,0,1.1,0,1.6,0s1.8,1.4,3.9,1.5c4.5.3,10.8-1.5,14,1.4Z"/>
        <path class="st318" d="M293.5,612.7c9.3,1.8,10.3,2.2,17.9,7.2l-16.2-1.4c-3-2.1-5.6-2.1-8.1-2.9v-2.9s6.5,0,6.5,0Z"/>
        <path class="st194" d="M295.2,517.7c-1.7,1.6-3.3,4-4.9,5.8-6.2,3.4-6.8,6.3-8.1,7.2-4.7,3.2-18.6,9.5-24.4,11.5-3.8,1.4-8.8,3.4-12.6,4.1s-10.5-3.4-11.7,4.6c-5.6-2.2,7.1-11.4,9.7-14.4.5-.6,3-1,3.2-1.4l5.7-7.2c2.3,4.7,19.7,7.3,23.2,2.6s-2-13.2-2.1-15.6c-.1-4.5,1-10.4.1-15.9-.9-5.6-2.8-11.4-10.7-10,4.2-3.1,6.2,0,9.8-.9s4.8-3.7,6.4-3.5,11.7,5.5,13.1,6.4c12.4,8.1,11,16.6,3.2,26.7Z"/>
        <path class="st141" d="M215.6,530.6c0,1.6-1.1,4.7,1.6,4.3,1.5-5.1,13.9-5.8,19.5-7.2-1,4.3-.2,7.3,0,11.5-1.2,1.6-7,8-8.1,8.6-4,2.4-12,2-16.2,0,2.5-9.3.2-17.3,3.2-25.9-.2,2.8-.2,5.9,0,8.6Z"/>
        <path class="st243" d="M256.2,490.3c-5.8,15.4-9.3,35.5-19.5,49-.2-4.2-1-7.2,0-11.5,2.6-11.8,14.6-21.9,14.6-34.6-2.6.2-5.6-.3-8.1,0v-1.4c3.2-.4,10.6-.6,13-1.4Z"/>
        <path class="st281" d="M259.4,493.2c-4.8,11-7,31.8-13,41.8s-2.7.9-3.2,1.4l14.6-44.6c.5.5,1.2.9,1.6,1.4Z"/>
        <path class="st165" d="M278.9,483.1v1.4c-1.6-.2-4.9,3.1-6.4,3.5-3.6.8-5.6-2.2-9.8.9-.9.6-2.8,3.3-3.2,4.3-.4-.6-1.1-.9-1.6-1.4s.2-1.7-1.6-1.4c5.5-1.9,14.2-11.2,22.7-7.2Z"/>
        <path class="st288" d="M215.6,514.8c-.4,2,.2,4.9,0,7.2-3.1,8.7-.8,16.6-3.2,25.9s.1,2,0,2.9c-2.8-10.8-2.6-25.2,0-36h3.2Z"/>
        <path class="st149" d="M301.7,555.1l.8,4.3c6.1-.5,15.2-1.4,19.5,2.9,1-4.7,7.9-2.4,12.2-1.4-.6,1.2-.5,3.1-1.6,4.3-.3-.1-1,0-1.6,0-3.6-.4-6-.3-9.4,1s-2.9,2.1-5.2,3.3c-3.7-2.3-8.3-1.1-12.1,0-6.7,2.1-8.3,8.4-15.5,7.2,1.8-4.4,6.6-6.3,6.4-10.7l-1.6-.8c2.2-2.5,6.1-7.3,8.1-10.1Z"/>
        <path class="st91" d="M316.3,569.5c-9.7,4.8-12.1,6.4-17.9,13-2.1,2.4-4.6,4.6-6.5,7.2l-1.9-2.6-3,1.1c-.3-3.9.1-7.8,1.6-11.5,7.2,1.2,8.8-5.1,15.5-7.2,3.9-1.2,8.4-2.3,12.1,0Z"/>
        <path class="st11" d="M291.9,595.4c-.2,2.3-2,4.7-1.6,7.2,7.6,1.4,17.8-4.5,23.6-4.2,2.9.2,6.3,4.1,10.5,2.7v1.4c-10.1,3.8-8.8.6-17.9,1.4-2.8.3-5.4.8-8.1,1.4-3.1-2.8-9.5-1.1-14-1.4-2.1-.1-3.7-1.5-3.9-1.5,6.7.9,4-1,4.9-2.9,1.5-3,3.1-4.7,4.9-7.2,1.6.1,1.7,1.8,1.6,2.9Z"/>
        <path class="st101" d="M334.2,566.6c-15.1,11.5-24.9,10.2-39,25.9-.8.9-2.5,1.7-3.2,2.9.1-1.1,0-2.8-1.6-2.9.6-.9,1-2,1.6-2.9,1.8-2.6,4.4-4.8,6.5-7.2l32.5-17.3c.6,0,1.3-.1,1.6,0,.6.3,1.1,1,1.6,1.4Z"/>
        <path class="st79" d="M282.2,477.3c8.7-3.1,17.9,2.1,23.8,7.7,9.1,8.8,4.2,12.9.6,22.5-3.8,3.2-7.7,6.7-11.4,10.1,7.8-10.1,9.2-18.6-3.2-26.7s-12.3-6.3-13.1-6.4v-1.4c1.1-2.9-1-4.2,3.2-5.8Z"/>
        <path class="st49" d="M342.3,540.7c1.6.2,3,1.4,3.2,1.4-2.5,6.8-5.9,14.9-8.1,21.6-1.1.9-2.1,2-3.2,2.9-.5-.5-1-1.2-1.6-1.4,1.1-1.2,1-3.2,1.6-4.3s2.4-1.3,2.6-3.5c.3-3.1-2.2-7.6-2.6-10.9-2.7,1.2-9.8.2-11.4.8-1.5.6-2.6,3.1-4.2,3.4s-7.4-5.2-13.6.1c2.3-3.2,3.6-7.7,6.5-11.5,1.4-1.8,3-3,3.5-5.5,5.5-3.1,15.5,6.4,20.9,7.5s4.7-.8,6.5-.5Z"/>
        <path class="st53" d="M347.1,486c-13.8-5.5-10.3,9.6-15.4,15.8l-3.2-10-8.9,4.3c.6,3.9,3.3,7,4.9,10.1s5,6.3,1.6,7.2c-3.3-3.5-6.4-5.5-9.7-8.6.6-6.7-1.1-15.8,0-20.9s2.9-4.1,4.9-5c9.4,0,19.1,1.3,26,7.2Z"/>
        <path class="st40" d="M282.2,448.5c8.3-.6,16.4.1,22.8,5.3.8,4.7,0,11.5-6,13.1-6.1,1.6-8.9-2.8-8.6,4.6-3.1-1.9-6.1-4.4-8.1-7.2s-2.9-4.9-3.2-5.8.2-1,0-1.4h3.2c-.2-2.8.3-5.8,0-8.6Z"/>
        <path class="st32" d="M347.1,542.1c.8,1.3,1.5,2.8,1.6,4.3s0,1,0,1.4c-4.8,2.6-4.1,25.7-6.5,27.4l-3.2-1.5v14.4c-3.6,5-9,8.5-14.6,11.5h-3.1c1.1-7.4,7.9-12.4,11.2-18.7,3.4-6.6,2.9-11.4,4.9-17.3s5.7-14.8,8.1-21.6c.5,0,1.1,0,1.6,0Z"/>
        <path class="st212" d="M298.4,447.1c1.6.5,13.7,5.6,14.2,6.1,6.8,7.5-7.7,21.9-17.4,19.8-.8-.4-2.4,0-4.9-1.4-.3-7.4,2.5-3,8.6-4.6,6-1.6,6.9-8.4,6-13.1-6.3-5.2-14.5-5.9-22.8-5.3-.2-1.6-1-4.1-1.6-5.8,5.5,2.3,12.3,2.5,17.9,4.3Z"/>
        <path class="st199" d="M262.7,455.7c2.2.1,5.6,1,8.1,1.4,2.7.4,5.5.6,8.1,1.4.4.8,2.7,5,3.2,5.8l1.3,9.3c-.3,1.5-1.8,1.7-2.9,2.3-5.3-4.4-15.8-9.4-22.7-11.5h9.7s-8.1-8.6-8.1-8.6c1.1,0,2.2,0,3.2,0Z"/>
        <path class="st253" d="M282.2,477.3c-4.3,1.5-2.1,2.9-3.2,5.8-8.5-4-17.2,5.3-22.7,7.2-2.4.8-9.8,1-13,1.4-2.1.3-4.4-.2-6.5,0s-1.1,0-1.6,0c-.8-1.5-2.6-2.9-3.2-4.3,1.8,0,4.2,1.5,4.9,1.4,7.6-.4,19.8-4.6,26-8.6,5.2-1.3,13.8-2.3,17.9-4.3.6.5,1,1,1.6,1.4Z"/>
        <path class="st143" d="M334.2,524.9c7.4,4.7,13.1,8.7,21.1,13s2.2,2.4,3.2,2.9l-3.2,1.4c-1.3-.6-3.2-.6-4.9-1.4-11.3-5.7-19.4-12.8-27.6-21.6l.8-1.4c2.6,4,7.5,5.2,10.6,7.2Z"/>
        <path class="st80" d="M316.3,504.7c3.4,3.2,6.4,5.1,9.7,8.6s6.8,7.1,8.1,11.5c-3-1.9-8-3.2-10.6-7.2l-.8,1.4c-2.6-2.8-5.9-3.8-7.4-8.7s.9-4.8.9-5.7Z"/>
        <path class="st214" d="M368.3,471.6v1.4c-2.4-.5-6.1.2-8.8.1l-20.5,4.2c-1.6-.4-7-1.5-8.1-1.4h-1.6c-1.4-4.1,5.5-3.2,9.7-4.3,10.2,5.5,19.1-4.6,29.2,0Z"/>
        <path class="st254" d="M298.4,522l-.8-2.9c-1.7,3.1-5.2,3.2-7.3,4.3,1.6-1.8,3.2-4.2,4.9-5.8,3.6-3.4,7.5-6.9,11.4-10.1-3,8.1-1.2,6.9-8.1,14.4Z"/>
        <path class="st262" d="M304.9,550.8c6.2-5.3,12.1.2,13.6-.1s2.7-2.8,4.2-3.4c1.5-.6,8.6.4,11.4-.8.5,3.3,2.9,7.8,2.6,10.9s-2.1,2.6-2.6,3.5c-4.3-.9-11.2-3.3-12.2,1.4-4.3-4.3-13.4-3.4-19.5-2.9l-.8-4.3c1.1-1.4,2.2-2.9,3.2-4.3Z"/>
        <path class="st59" d="M316.3,425.5c2.5,4,3.1,8.9,4.9,13,3,6.9,7.8,14,8.1,21.6-7.5-4.4-9.1-22-14.6-28.8-.3-2.1-.4-3.8-1.6-5.7h3.2Z"/>
        <path class="st295" d="M295.2,592.5c5.5,2.3,8-5.2,10.3-6.7,6.9-4.5,18.3-7.4,24.7-13.4l2.4.7-19.5,15.1,19.5-7.2c-3.3,6.4-10.2,11.3-11.2,18.6h3.1v1.6c-4.2,1.3-7.6-2.6-10.5-2.7-5.8-.3-16,5.6-23.6,4.2-.4-2.5,1.4-4.9,1.6-7.2.8-1.2,2.4-2,3.2-2.9Z"/>
        <path class="st285" d="M342.3,608.4c.8,6-5.7,1.5-8.1,1.4s-2.2,0-3.2,0c-9.7.3-18.5,4.9-24.4-5.8,9-.9,7.8,2.4,17.9-1.4,1.5-.6,3.6-2.7,4.9-2.9,2.1,1.7,4.7,6.9,6.6,7.9,2.5,1.4,4.8.3,6.4.7Z"/>
        <path class="st29" d="M339,588.2v-14.4s3.2,1.5,3.2,1.5c2.5-1.6,1.8-24.8,6.5-27.4.7,13.1-1.5,29-9.7,40.3Z"/>
        <path class="st188" d="M339,601.2c1.1,2.3,4.1,4.5,4.9,7.2-.5-.1-1.1.1-1.6,0-1.6-.4-3.9.6-6.4-.7-1.9-1-4.5-6.2-6.6-7.9,3.1-.5,6.7.8,9.7,1.4Z"/>
        <path class="st115" d="M360.1,618.5c-.3.3.3,1.2,0,1.4-8.2,2.7-22.4-3.3-26-10.1,2.4,0,8.9,4.6,8.1-1.4.5.1,1.1-.1,1.6,0,3.2.7,16.4,6.9,16.2,10.1Z"/>
        <path class="st244" d="M306.5,604.1c5.9,10.7,14.7,6.1,24.4,5.8l-4.9,4.3c3.3-.2,6.2,0,9.3,1.1s9.5,5,8.5,7.6c-11.2-6.3-10.2.2-19.5,2.9-8.8-9.1-20.6-15.2-34.1-17.3.2-2.3,5.8-2.3,8.1-2.9s5.3-1.2,8.1-1.4Z"/>
        <path class="st190" d="M366.6,660.2l-9.7-5.8c3.2-3.1,2.5-4.7,1.6-8.6l4.9-1.4c5.2,10.4,2.1,12.7,3.2,15.8Z"/>
        <path class="st39" d="M391,468.7c2.2.9,4.3,1.9,6.5,2.9-1.9.9-5.1,1-4.9,2.9l8.1,4.3-16.2,5.8c-1.8-.3-3.2-.8-4.9-1.4-.6-.8-1-2.3-1.6-2.9l4.7-3.5c-2.5-3-2.8-4.6-1.5-8.1h9.7Z"/>
        <path class="st2" d="M387.8,467.3c.8.3,2.2,1,3.2,1.4h-9.7c-1.3,3.5-1.1,5.1,1.5,8.1l-4.7,3.5c-1.4-1.3-8.7-7-9.7-7.2v-1.4l-1.6-4.3c1.9-1.2,13.8,2,16.2-1.5,1.4.3,3.5,1,4.9,1.4Z"/>
        <path class="st110" d="M366.6,455.7v1.4c-8-.3-13-1.1-19.5,3.6s-5.2,4.1-1.6,5.1c-3.1.5-6.8,2.7-11.4,1.4.3-1.7-.5-4.3,0-5.8,15.5-4.7,14.3-7.4,32.5-5.8Z"/>
        <path class="st82" d="M366.6,462.9c4.5.5,2.8,2.2,4.1,2.6s5.4-1.2,5.7-1.1c2.2.3,4.3.9,6.5,1.4-2.4,3.4-14.3.2-16.2,1.5l1.6,4.3c-10.1-4.6-19,5.5-29.2,0,9-2.5,19.4-4.8,27.6-8.6Z"/>
        <path class="st180" d="M366.6,457.2c1.9,0,5.5-.7,6.5.7-1.7,4.6-4.5,2.8-8.1,5-6.7,0-13,1.8-19.5,2.9-3.7-1,.2-4.1,1.6-5.1,6.6-4.6,11.5-3.8,19.5-3.6Z"/>
        <path class="st8" d="M352,491.7c.6.9,1.1,1.9,1.6,2.9-10,10.7,2.4,21.9,3.2,32.7.4,4.8-3.3,2.9-3.2,4.1,0,2.3,5.5,5,1.7,6.5-8-4.2-13.7-8.2-21.1-13-1.3-4.5-4.9-8.1-8.1-11.5,3.4-.9-.6-5.2-1.6-7.2l4.9,1.4,1.6-4.3,3.3,8.6-1.5-9.9,14.4-6-1.5-4.2h6.5Z"/>
        <path class="st260" d="M366.6,522c2.8,8,13.3,17.5,3.2,23-3.1-1-8.5-3-11.4-4.3s-2.1-2.3-3.2-2.9c3.8-1.5-1.6-4.1-1.7-6.5s3.6.7,3.2-4.1c-.8-10.8-13.2-22-3.2-32.7,5.1,9.2,5.8,19.7,13,27.4Z"/>
        <path class="st239" d="M368.3,491.7c4.2,2.3,13.6,9.7,17.9,13-3.2,5.5-3.1,1.4-5.7-1.4-6.2,0-4.2,16.6-13,10.1l-4.1-7.2c0,0-1.3.3-1.6-.7l-3.3-16.5c.4-.3,8.8,2.4,9.7,2.9Z"/>
        <path class="st21" d="M368.3,473c1,.2,8.3,5.9,9.7,7.2s1,2.1,1.6,2.9c-.5-.2-1.2.2-1.6,0-4.9-2.5-7.7-7.8-13.8-8.7l2.4,4.3c-1.3.9-11-1-9.7,4.3-5.4-1.7-13.1-4.6-17.9-5.8l20.5-4.2c2.6,0,6.3-.6,8.8-.1Z"/>
        <path class="st38" d="M378,483.1c1.3,2.4,3.4,3.2-.4,4.7-7.9,3.1-14-2.6-20.7-4.7-1.3-5.4,8.4-3.5,9.7-4.3l-2.4-4.3c6.1.8,8.9,6.2,13.8,8.7Z"/>
        <path class="st340" d="M347.1,486c1.4,1.2,3.8,4.2,4.9,5.8h-6.5s1.5,4.2,1.5,4.2l-14.4,6,1.5,9.9-3.3-8.6-1.6,4.3-4.9-1.4c-1.6-3.1-4.3-6.2-4.9-10.1l8.9-4.3,3.2,10c5.2-6.2,1.7-21.4,15.4-15.8Z"/>
        <path class="st125" d="M386.1,491.7l4.9,10.1c-5.5-3.6-13.7-5.4-17.9-10.1,4.2,0,8.9.3,13,0Z"/>
        <path class="st183" d="M430,504.7c5.5,3.8,6.2,4.9,9.7,10.1l-9.2-5.5c-8.7-.3-4.8,9.3-11.9,9.9,5.9,3.8,3.6,8.1,4.9,11.5l-1.6,1.4c-1.9-10.2-14.8-17.1-22.7-23-2.8-2.1-3-4.2-3.2-4.3,5.9-2.1,14.1-1.8,20.4-1.5,5,.3,9.9,3.4,13.7,1.5Z"/>
        <path class="st90" d="M444.6,523.4c3.3,8.6,3.7,15.8,4.9,24.5-4.8,6.6-2,9.1,0,15.8-6.1-1.2-3-3-5.7-5.7-4.9,5-13.5-1.4-20.3,0-1.2-7.8-.3-18.6-1.6-25.9l1.6-1.4c1.9,5,10.7,7.1,16.2,5.7.8-4.3.6-8.6.8-12.8s2.2-.7,4.1-.1Z"/>
        <path class="st307" d="M439.7,514.8c2.5,3.6,3.2,4.3,4.9,8.6-1.9-.6-3.9-3.8-4.1.1s0,8.6-.8,12.8c-5.5,1.4-14.4-.7-16.2-5.7-1.3-3.4,1-7.7-4.9-11.5,7.2-.6,3.3-10.1,11.9-9.9l9.2,5.5Z"/>
        <path class="st102" d="M417,529.2l-.2,18.6-13.6,3-2.5-5.8c0-9.3,1.1-21.3,0-30.2.7-2.9,4.1,1.5,4.9,2.2,4.9,4.4,8.4,6.5,11.4,12.2Z"/>
        <path class="st111" d="M316.3,425.5h-3.2c1.2,2,1.3,3.6,1.6,5.8,2.1,13.9,2.7,19.4-16.2,15.8-5.6-1.8-12.4-2-17.9-4.3-.9-2.6-1.5-3.6-3.2-5.8,9.6,3.2,12.6-7,23.3-.2,5.3-3.5,3.2-7,9.2-11.3s1.1-.9,1.6-1.4c1.5.3,3.9-.7,4.9,1.4Z"/>
        <path class="st69" d="M243.2,455.7l3.3,2.9v2.9c-4.4-.5-1.8,2-3.1,3.6-6,7.2-16.5,13.4-19.4,21.6l-9.9.7c-2.7-.4-7.6-1.4-9.7-1.4l18.6-11.5c1.9-2.9,15.2-10.2,15.4-12.2.4-3.4-4.1-.8-5.3-.5-4.4,1.3-19.4,9.9-23.9,12.7,3.6-4.4,9.6-8.4,14.6-11.5,3.3-2.1,9.6-4.3,13-7.2,2.1-.1,4.4.2,6.5,0Z"/>
        <path class="st43" d="M209.1,474.5c4.5-2.8,19.5-11.4,23.9-12.7s5.7-3,5.3.5-13.5,9.3-15.4,12.2l-18.6,11.5c-1.1,0-2.4.8-3.2,1.4-3.7-1-4.6-2.8-4.9-2.9,4.6-3.1,8.3-7.1,13-10.1Z"/>
        <path class="st35" d="M262.7,455.7c-1.1,0-2.2,0-3.2,0-2.6,0-5.3-.3-7.9.2-1.1,3.8-2.6,6.7-5.1,9.9s-8.2,5.3-8.1,10.1c-5,3.3-9.2,5.5-6.5,11.5-9.9.4-5.9,1.7-17.9,0l9.9-.7c2.9-8.2,13.5-14.4,19.4-21.6,1.3-1.6-1.2-4.2,3.1-3.6v-2.9s-3.2-2.9-3.2-2.9c6.1-.4,14.1-4.6,19.5,0Z"/>
        <path class="st76" d="M201,487.4c.6.2,1.7,1,3.2,1.4-2.2,4.2-7.1,5.4-11.4,7.2l1.6-2.2c-4.2-1.1-3.5-2.9-3.3-6.4h-3.2c1.3-.7,5.7-2.8,6.5-2.9s1.3-.1,1.6,0,1.1,1.9,4.9,2.9Z"/>
        <path class="st185" d="M236.7,455.7c-3.4,2.9-9.7,5.1-13,7.2v-6.5c4.1-1.4,8.7-.4,13-.7Z"/>
        <path class="st238" d="M309.8,425.5c-5.9,4.3-3.8,7.8-9.2,11.3-10.7-6.9-13.7,3.4-23.3.2-1.6-2-3.4-4.4-6.5-4.3-.5-1.1-2.6-4.8-3.2-5.8,13.9-2.3,28.1-1.3,42.2-1.4Z"/>
        <path class="st164" d="M277.3,437c1.7,2.2,2.3,3.2,3.2,5.8s1.5,4.1,1.6,5.8c.3,2.8-.2,5.8,0,8.7h-3.2c-3.1-7.5-4.6-17-8.1-24.5,3.1,0,4.9,2.3,6.5,4.3Z"/>
        <path class="st252" d="M188,487.4h3.2c-.2,3.6-.9,5.3,3.3,6.5l-1.6,2.2c-.5.2-1,1.1-1.6,1.4-.3,0-4.4,1.2-4.9,1.4,1.6-3.5,2.3-7.3-3.2-7.2.7-.5,1-2.5,1.6-2.9.9-.6,2.2-.9,3.2-1.4Z"/>
        <path class="st31" d="M196.1,498.9v1.4c-12-.3-19.3,8.4-27.6,14.4,3.6-5.9,10.9-12.9,17.9-15.8s4.6-1.4,4.9-1.4,2.2,1.7,4.9,1.4Z"/>
        <path class="st268" d="M220.5,496.1c-10.1,16.5-26,21.1-39,34.6-.5.2-1.1-.1-1.6,0-2.3.6-6.9,2.5-7.3,2.5-6.9-.2-1.3-7.4-.9-9.2,2.6-11.3,2.4-9.7,13.5-17.3l12.6-4.9-1.6-1.4v-1.4c8.1-.7,16.2-2.2,24.4-2.9Z"/>
        <path class="st330" d="M179.9,532.1c6.3,3.9,1.9,15.1,6.5,21.6-3.3-1.1-3.2,2.9-4.2,2.9s-10.4-2-11.7-2.5c-3.2-1.3-2.5-4.6-6.9-4.7,3.5-5.5,4.9-7.1,9.7-11.5s4.2-4,6.5-5.8Z"/>
        <path class="st136" d="M243.2,491.7v1.4c-4.2.5-4.3,1.9-6.5,2.9-7.7,3.4-19.3,10.8-21.1,18.7h-3.2c.2-1,3.4-3.2.8-4.3-9,5-22.6,17.2-31.7,20.2,13-13.5,28.8-18.1,39-34.6.5-.8,1.7-1.6,1.6-2.9,1.1.4,2.1,1,3.2,1.4-1.9,1.4-6.9,7.7-8.9,10.1s-4.4,2.8-1.7,4.3l21.9-17.3c2.1-.2,4.4.3,6.5,0Z"/>
        <path class="st246" d="M262.7,488.9c7.9-1.4,9.8,4.4,10.7,10,.9,5.5-.3,11.5-.1,15.9s2.6,14.9,2.1,15.6c-3.5,4.6-20.9,2-23.2-2.6l-5.7,7.2c6-9.9,8.2-30.8,13-41.8s2.4-3.7,3.2-4.3Z"/>
        <path class="st134" d="M236.7,496.1c8.2.8,3.8,13.9,4.9,18.7l-4.8-1.5c-.8,8.2-15.4,11.3-21.1,17.3-.2-2.8-.2-5.9,0-8.6s-.4-5.2,0-7.2c1.8-7.9,13.4-15.3,21.1-18.7Z"/>
        <path class="st63" d="M243.2,493.2c2.6-.3,5.5.2,8.1,0,0,12.6-12,22.7-14.6,34.6-5.6,1.4-18,2.1-19.5,7.2-2.7.4-1.5-2.7-1.6-4.3,5.7-6,20.3-9.1,21.1-17.3l4.8,1.5c-1.1-4.8,3.4-17.9-4.9-18.7,2.2-1,2.3-2.4,6.5-2.9Z"/>
        <path class="st206" d="M330.9,565.2l-32.5,17.3c5.7-6.6,8.2-8.1,17.9-13,2.4-1.2,4.3-2.9,5.2-3.3,3.4-1.4,5.7-1.4,9.4-1Z"/>
        <path class="st168" d="M332.5,581l-19.5,7.2,19.5-15.1-2.4-.7c-6.4,6-17.8,8.9-24.7,13.4-2.3,1.5-4.8,9.1-10.3,6.7,14.1-15.7,23.9-14.4,39-25.9,1.2-.9,2.1-2,3.2-2.9-1.9,5.9-1.4,10.7-4.9,17.3Z"/>
        <path class="st114" d="M259.4,455.7l8.1,8.6h-9.7c6.9,2.1,17.4,7.1,22.7,11.5-4,2.1-12.7,3.1-17.9,4.3-.5.1-1.1-.1-1.6,0-2.4-6.2-10.6-9.4-14.6-14.4,2.5-3.2,4-6.1,5.1-9.9,2.6-.5,5.3-.2,7.9-.2Z"/>
        <path class="st45" d="M251.3,481.7c-3.9,1.1-12.2,4.6-14.6,7.2-.7,0-3.1-1.5-4.9-1.4-2.7-6,1.5-8.3,6.5-11.5,1-.6,4.5-3.2,4.9-2.9l-3.2,6.4,11.4,2.2Z"/>
        <path class="st17" d="M204.2,486c2.1,0,7,1.1,9.7,1.4,11.9,1.7,8,.4,17.9,0,.6,1.4,2.5,2.9,3.2,4.3-4.1.5-6.3.4-9.7,2.9-1.1-.4-2.1-1.1-3.2-1.4-6.3-2-12.1-2.8-17.9-4.3-1.6-.4-2.7-1.3-3.2-1.4.8-.7,2.2-1.5,3.2-1.4Z"/>
        <path class="st124" d="M235.1,491.7c.5,0,1.1,0,1.6,0l-21.9,17.3c-2.7-1.5.7-3.2,1.7-4.3,2.1-2.4,7-8.7,8.9-10.1,3.4-2.5,5.7-2.4,9.7-2.9Z"/>
        <path class="st140" d="M261.1,480.2c.5-.1,1.1.1,1.6,0-6.2,4-18.4,8.2-26,8.6,2.5-2.6,10.7-6.1,14.6-7.2s6.9-.7,9.7-1.4Z"/>
        <path class="st331" d="M246.4,465.8c4,5,12.2,8.2,14.6,14.4-2.8.7-7,.7-9.7,1.4l-11.4-2.2,3.2-6.4c-.3-.3-3.9,2.2-4.9,2.9,0-4.8,6.2-7.7,8.1-10.1Z"/>
        <path class="st292" d="M222.1,493.2c.1,1.3-1.1,2-1.6,2.9-8.1.7-16.2,2.1-24.4,2.9-2.7.2-4.6-1.4-4.9-1.4.6-.3,1.1-1.2,1.6-1.4,4.2-1.8,9.2-3,11.4-7.2,5.8,1.5,11.5,2.3,17.9,4.3Z"/>
      </g>
      <g>
        <path class="st121" d="M311.4,138.9c9.8,8,18.2,17.5,27.6,25.9l-1.6,1.4c-6.5-5.8-12.9-11.5-19.5-17.3s-4.1-3.8-6.5-5.8c-8.1-6.6-17.2-18.4-29.2-17.3,7.4,6.9,11.6,11.3,9.7,21.6-3.9,8.7-4.2,8.4-9.7,15.8h-4.9c6.3-6.9,14.2-15.1,11-24.9-.5-1.7-3.3-3.5-4.5-5.3-2.3-3.4-6.2-5.2-4.9-10.1,13.5-1.3,23.5,8.5,32.5,15.8Z"/>
        <path class="st70" d="M282.2,163.4c-2.7,3.6-4.8,8.2-8.1,11.5-7.5,7.6-19.1,12.3-27.6,18.7l-16.2,7.9c9.6-9.6,30.2-16.5,38.1-26.8s.5-3.8.9-4.2c2.8-3.7,6.9-5.9,8.1-7.2h4.9Z"/>
        <path class="st204" d="M301.7,143.3v1.4c-4.2,3.8-4.3,9.3-6.5,14.4l-19.5,17.3-1.6-1.4c3.3-3.3,5.4-7.9,8.1-11.5,5.6-7.5,5.9-7.2,9.7-15.8s4.8-4.4,3.3-8.6c3.4-1.4,5.8,4.1,6.5,4.3Z"/>
        <path class="st264" d="M337.4,166.3c10.4,9.4,20.8,19.1,30.9,28.8l-1.6,1.4c-3.1-2.9-12.7-11.1-16.2-11.5-3-6.4-10.7-11.7-16.2-16.7s-4.6-1.8-4.9-2.1c-3.6-3.2-7.4-8.8-9.7-13s-1.1-1.9-1.6-2.9v-1.4c6.6,5.7,13,11.5,19.5,17.3Z"/>
        <path class="st197" d="M311.4,143.3l-.9,1.4c-2.9-2.7-8.4-1.3-8.9-1.4-.7-.2-3.1-5.7-6.5-4.3,1.6,4.2-2.3,6.6-3.3,8.6,1.9-10.3-2.4-14.7-9.7-21.6,12-1.2,21.2,10.7,29.2,17.3Z"/>
        <path class="st323" d="M381.3,203.7l-1.6,1.4c-3.2-3.3-8.1-6.9-11.4-10.1-10.1-9.7-20.4-19.4-30.9-28.8l1.6-1.4c14.9,13.3,28.1,24.8,42.2,38.9Z"/>
        <path class="st316" d="M311.4,143.3c2.4,2,4.3,3.8,6.5,5.8v1.4h-9.7c-.3-.7-2.4-2.1-3.2-2.9s-2.3-1.8-3.2-2.9v-1.4c.4.2,5.9-1.3,8.9,1.4l.9-1.4Z"/>
        <path class="st100" d="M165.2,326.1c2.4,10.7,4.2,18.8,9.7,28.8,7.6,13.9,21,27.4,34.1,37.4,16.1,12.3,34.4,21.5,55.2,25.9l3.3,2.3-1.7,3.4c-.9-1-1.8-1.4-3.2-1.4-8.2-1.1-19.1-7.3-26-8.6-17.5-9.5-31.9-17.8-45.5-31.7-15.2-15.6-24.7-29.9-29.2-50.4-1.4-6.1-1-12.3-3.2-17.3.7-5.8.7-11.1,1.6-17.3h1.6c-1.3,11.7.8,18.2,3.2,28.8Z"/>
        <path class="st193" d="M269.2,170.6c-.3.4.2,2.8-.9,4.2-7.9,10.3-28.5,17.1-38.1,26.8l16.2-7.9,3.2,1.4c-6.6,4.2-14.6,8.6-21.1,13,1.9-4.1-6.2-2.1-6.5-2-2.7,1.3-5.2,5-8.2,6.9s-6.7,2.9-8,3.7c6.2-5.7,13-13.6,19.5-18.7,10.5-8.4,22.5-14.6,34.1-21.6,2.6-1.6,5.3-5.2,9.7-5.8Z"/>
        <path class="st13" d="M225.3,198c-6.5,5.2-13.2,13.1-19.5,18.7-2.6,1.8-11.4,9.9-13,11.5l4.9-7.9c9.4-6.9,14.9-17.2,25.9-22.4h1.6Z"/>
        <path class="st257" d="M275.7,176.4c-2.7,4.6-7.4,7.9-11.4,11.5-4.4,1.7-10.9,4.8-14.6,7.2l-3.2-1.4c8.6-6.4,20.1-11.2,27.6-18.7l1.6,1.4Z"/>
        <path class="st286" d="M420.2,246.9c15.3,25.1,21.3,52.2,16.2,80.6-1.5,8.2-5.6,20-9.7,27.4-2.6-1-1.3-4-1.6-5.8s0-1,0-1.4c17.5-36.4,8.2-78.8-16.2-110.9l1.6-1.4c1,2.4,8,8.6,9.7,11.5Z"/>
        <path class="st58" d="M410.5,234c.1.5-.2,1,0,1.4l-1.6,1.4c-5.6-7.4-17.3-18.5-24.4-25.9-1.7-1.8-3.1-4-4.9-5.8l1.6-1.4c2.3,2.2,6.3,4.4,9,7.2,7.1,7.4,13,15.8,20.3,23.1Z"/>
        <path class="st300" d="M304.9,147.6c-1.7,1.7-.3,2.9,0,4.3-3.4,12.8.4,21.9-5.4,34.9s-18.8,18.8-28.8,29.9c-5.7.7-2.4-2-2.4-4.4,0-5,1.2-11.2-.9-15.8.3-.5-.4-3.4.8-5.7,5.2-9.6,19-14,26.8-31.8,2.2-5.1,2.3-10.6,6.5-14.4,1,1,2.2,1.9,3.2,2.9Z"/>
        <path class="st261" d="M295.2,159.1c-7.8,17.7-21.6,22.2-26.8,31.8-1.2,2.3-.5,5.1-.8,5.7-1,1.7-5.6,8.6-6.5,9.3-3.3,2.4-8.1,1.6-9.4,2.5s-.6,3.3-1.9,4.7c-5.8,6.4-17.8,15.5-26.2,18.6-7.7,2.9-16.2-.6-14.7,10.8-10.6,0-7.6,5.6-11.4,10.8s-2.7,1.9-3,2.3c-4.8-9.7,5.1-9.8,8.8-14.5,2.6-3.2,1.5-7.8,4.8-11.5,1.5-1.6,9.1-6.5,11.7-8.4,15-10.5,30.4-20.7,44.4-33.3,4-3.6,8.6-7,11.4-11.5l19.5-17.3Z"/>
        <path class="st275" d="M350.4,185c3.6.4,13.1,8.6,16.2,11.5,4.9,4.5,9.9,10.9,14.6,15.8-5.6,8,5.1,16.5,7.4,23.8s1.3,14.4,1.7,19c.7,6.7-.5,16.5.6,23.5-.7.5-3,1-3.2,1.4l-1.6-2.9c1.3-1.1,2.1-2.4,3.3-3.6l-3.2-.7c-1.7-3.7,2.9-2.5,3-3.5.2-4.3-2.9-8.4-3.1-11.6-.4-5.5,1.6-11.7-.3-18.4-1.3-4.4-6-5.4-7.3-7.8-2.7-5.3-2.1-15.3-11.7-17.7-3.3-6.4-3.7-2.6-5.7-4.2-10.3-8-4.1-9.9-7.7-17.9s-2.7-.8-2.9-.9c-1.5-1.3-2.2-2.8-3.2-4.3-.1-.5.2-1,0-1.4,1.1,0,2.2-.1,3.2,0Z"/>
        <path class="st89" d="M317.9,150.5c.5,1,1.1,1.9,1.6,2.9-3.5,6.6,5.3,16.7,9.7,21.6.9,2,2.7,3.3,3.2,4.3l-1.6,5.8c-4.4-1.7-4.9-.9-8.1,0s-2.2-.2-3.2,0c-1.3-2.3-3.9-3.5-6.5-4.3,1.1-5.9-.8-14,0-20.2l-3.2,17.3c-.9-7.9,1.8-20.2-1.6-27.4h9.7Z"/>
        <path class="st93" d="M350.4,185c-1.1-.1-2.2,0-3.2,0-.7-1.9-10.3-11.8-13-8.6-1.6-2.7-2.1-5.9-6.5-5.8,0-.7,1.8-3,1.6-4.3.3.3,3.2.5,4.9,2.1,5.5,5,13.2,10.3,16.2,16.7Z"/>
        <path class="st291" d="M329.3,166.3c.2,1.3-1.7,3.6-1.6,4.3s1.3,3.6,1.6,4.3c-4.4-4.9-13.2-15-9.7-21.6,2.4,4.1,6.1,9.7,9.7,13Z"/>
        <path class="st228" d="M379.6,205.2c1.7,1.8,3.2,4,4.9,5.8l-1.6,2.9c-.5-.5-1.1-.9-1.6-1.4-4.7-5-9.7-11.4-14.6-15.8l1.6-1.4c3.2,3.1,8.1,6.8,11.4,10.1Z"/>
        <path class="st133" d="M308.2,150.5c3.4,7.2.8,19.4,1.6,27.4-1,8.6-6.1,16.1-11.4,23-7.4,9.6-16,15.8-26,23,8.3-12.7,24.7-23,30.5-37,4.7-11.4,4.4-23.2,2-35s-1.7-2.6,0-4.3c.9.8,2.9,2.2,3.2,2.9Z"/>
        <path class="st6" d="M418.6,365c-11.7,17.7-23.9,32.2-43.9,43.2-4.7,2.6-17.3,7-22.7,8.6-7.9,2.4-16.3,3.9-24.4,5.8-2.5.6-5.5.7-8.1,1.5,2.4,3.5,2.1,8,3.3,11.5l-1.6,2.9c-1.8-4-2.4-9-4.9-13-1-2.2-3.4-1.1-4.9-1.4-1.3-.3-5.8-1.4-6.5-1.4,1.2.1,2.7-1.4,3.2-1.4,16.1-2,23.1-2.1,39-7.2,28.5-9.1,52.8-26.9,68.2-50.4.6.1,1.3-.2,1.6,0,.6.3,1.1,1,1.6,1.4Z"/>
        <path class="st216" d="M209.1,390.9c6.1-1.6,10.8,6.7,12.5,7.2,1.3.4,3-.2,3.8,0l11.5,7.8c10.5,4.4,21.8,10.2,33.9,9.5,5.4,1.6,10.3,3.4,16.2,2.9l-9.7,1.4c-3.9-.6-9.3-.6-13-1.4-20.8-4.4-39.1-13.6-55.2-25.9v-1.4Z"/>
        <path class="st210" d="M171.7,288.7c-2.2,11.9-1.5,22.9-3.2,33.1s-1.8,3.3-3.2,4.3c-2.4-10.6-4.5-17.1-3.2-28.8.2-2.2,2.1-6.5,3.2-8.6,0,2.9-1.8,10,3.2,8.6-1.4-5,1.9-8,3.3-11.5-.1.9.2,2,0,2.9Z"/>
        <path class="st171" d="M277.3,419.7c4.1.6,7.4.9,11.4,1.4,6,.8,10.8.8,16.2,1.4s5.2,1.1,6.5,1.4c-.5.5-1,1-1.6,1.4-14.1.2-28.3-.8-42.2,1.4-.6-.9-1-2.3-1.6-2.9l1.7-3.4-3.3-2.3c3.7.8,9.1.8,13,1.4Z"/>
        <path class="st177" d="M178.2,349.2c7,18.9,17,26.5,30.9,41.8v1.4c-13.1-10-26.5-23.5-34.1-37.4l1.2-.8c-1.4-3.5-.7-7.4-1.2-10.7,1.2,1.6,2.6,4,3.2,5.8Z"/>
        <path class="st196" d="M171.7,327.6c.8,5.5,2.3,10.5,3.2,15.8s-.2,7.2,1.2,10.7l-1.2.8c-5.5-10-7.3-18.1-9.7-28.8,1.4-1,3-2.8,3.2-4.3h1.6c.2,3.1,1.4,4.6,1.6,5.8Z"/>
        <path class="st232" d="M186.3,236.9c-1.6,7-5.9,18.4-9.8,24.7s-12.1,8.7,0,8.3c2-5.4,4-12.8,9.9-15.7-1.6,2.7-3.3,7.1-4.9,10.1-4.1,7.8-6.5,13.5-9.7,21.6-1.4,3.5-4.7,6.6-3.3,11.5-5.1,1.4-3.3-5.8-3.2-8.6.3-7.6,3.1-16.7,4.9-24.5s2.8-6.5,3.2-10.1c5.3-5,8.5-11.5,13-17.3Z"/>
        <path class="st231" d="M205.8,216.7c1.3-.8,5.4-2.1,8-3.7s5.5-5.6,8.2-6.9,8.5-2.1,6.5,2c-9.1,6-16.8,13.6-24.3,21-3.5,3.5-7.2.3-3.3,9.2-7.1.2-11.2,10.2-14.6,15.9-5.9,2.9-7.9,10.3-9.9,15.7-12,.5-1.3-6,0-8.3,3.9-6.3,8.2-17.7,9.8-24.7,2.2-2.8,3.8-5.8,6.5-8.6s10.4-9.8,13-11.5Z"/>
        <path class="st278" d="M264.3,187.9c-14,12.6-29.4,22.8-44.4,33.3-2.7,1.9-10.3,6.7-11.7,8.4-3.4,3.7-2.3,8.3-4.8,11.5-3.7,4.7-13.7,4.8-8.8,14.5-1.1,1.3-2.2,3-3.2,4.3l-9.7,4.3c1.5-3,3.3-7.4,4.9-10.1,3.4-5.7,7.6-15.7,14.6-15.9-3.9-8.9-.2-5.8,3.3-9.2,7.5-7.4,15.2-15,24.3-21s14.5-8.8,21.1-13,10.2-5.5,14.6-7.2Z"/>
        <path class="st30" d="M408.9,236.9c24.5,32.1,33.8,74.5,16.2,110.9-.2-7.9,2.6-12.8,3.3-20.8,1.1-12.1.5-29.5-1.7-41.1-3.3-17.4-10.7-30-21.1-44.6-4.4-6.1-8.2-10.2-13-15.8s-6.8-8.3-9.7-11.5l1.6-2.9c7.1,7.4,18.7,18.5,24.4,25.9Z"/>
        <path class="st14" d="M425.1,347.7c0,.5,0,1,0,1.4l-8.1,14.4c-.3-.2-1.1.1-1.6,0s-.2-1-.8-1.3c-2,.2-4.3,8.3-9,7.1-.9-.7,9.5-7.1,2.5-7.2-9.6,10.7-19.9,23.3-33.3,30.2,3.8-3.8,7.7-7.6,11.4-11.5,16.9-18.1,34.4-36.2,39-60.5,2.1-11.4,1.6-23,1.6-34.6,2.2,11.6,2.8,28.9,1.7,41.1-.7,8-3.5,12.9-3.3,20.8Z"/>
        <path class="st179" d="M426.7,354.9c-2.1,3.7-6.3,7.3-8.1,10.1-.5-.5-1-1.1-1.6-1.4l8.1-14.4c.3,1.8-1,4.7,1.6,5.8Z"/>
        <path class="st147" d="M267.6,196.5c2.1,4.6.9,10.8.9,15.8s-3.3,5.1,2.4,4.4c-1.7,1.9-4.9,7.5-6.5,10.1s-6,7-6.2,7.5c-.6,1.3,1.3,3.1,1,4.6-.9,5.1-40.1,14.3-47.9,17.8-5.7,2.5-25.7,14-28.8,17.8-1.8,2.2-2.8,4.8-4.2,7.1-.9,0-2.2,1.2-3.2,1.4,3.8-9.1,10.2-15.3,16.2-23,1-1.3,2.2-3,3.2-4.3s2-.9,3-2.3c3.8-5.2.9-10.9,11.4-10.8-1.5-11.3,6.9-7.9,14.7-10.8,8.3-3.1,20.3-12.2,26.2-18.6,1.3-1.4,1.2-4.2,1.9-4.7,1.3-.9,6.1-.1,9.4-2.5s5.5-7.6,6.5-9.3Z"/>
        <path class="st195" d="M272.4,223.9c-2.8,2-3.3,6.3-8.1,2.9,1.6-2.6,4.8-8.2,6.5-10.1,10-11.2,22-14.7,28.8-29.9s1.9-22.1,5.4-34.9c2.4,11.8,2.7,23.6-2,35-5.8,14.1-22.2,24.3-30.5,37Z"/>
        <path class="st236" d="M382.9,213.8c3,3.2,6.8,8,9.7,11.5-2.4,4.7,7.3,9.9,9.3,13.7,4.9,9.7,4.6,22.2,7,32.4-7-1.4-12.5,6.6-14.6,11.5-.3-1.1-3.1-3.5-3.2-4.3-1.1-7,0-16.8-.6-23.5-.5-4.6-.7-15.5-1.7-19-2.3-7.2-13-15.8-7.4-23.8.5.5,1.1.9,1.6,1.4Z"/>
        <path class="st174" d="M350.4,190.8c.1.1,1.5-2.2,2.9.9,3.5,8-2.6,9.9,7.7,17.9,2,1.6,2.4-2.2,5.7,4.2s12.9,24.6,14,31.7c.9,6.2-2.1,14,2.3,20.9l-4.1.6c-3.3,7.9-2.9,14.1-12.2,18.9-.6-.6-2.7-.7-3.1-2.4-.8-3.4,4.2-5.7-1.8-7.7.5-.6.4-3.4,1.8-4.9,4.5-4.7,10.4-7.4,9.1-14.1s-.3-15.6-1.4-21.7c-1.2-6.2-10.3-16.8-11.3-24l-8,1.3c.6-7.3-.5-14.4-1.6-21.6Z"/>
        <path class="st157" d="M366.6,213.8c9.7,2.4,9,12.4,11.7,17.7,1.3,2.4,6,3.4,7.3,7.8,1.9,6.7-.1,12.9.3,18.4.3,3.1,3.3,7.3,3.1,11.6,0,1.1-4.7-.2-3,3.5l3.2.7c-1.1,1.2-2,2.5-3.3,3.6-4.1,3.6-12.5,7.5-17.9,11.5.2-1.5-.7-2-1.6-2.9,9.3-4.7,8.9-10.9,12.2-18.9l4.1-.6c-4.4-6.9-1.3-14.7-2.3-20.9-1.1-7.1-10.2-24.4-14-31.7Z"/>
        <path class="st144" d="M394.2,282.9c.1.4,0,1,0,1.4.8,9.3-4.1,10.1-5.7,15.1-2.3,7.1.6,9.8-5.6,19.4-2,3.1-6,6-8.1,8.6,1.4-6,1.1-14.5-1.6-20.2,2.7-4.9,9.5-11.8,11.8-16.2s1.2-8.2,2.9-11.1,2.5-.9,3.2-1.4c.1.8,3,3.2,3.2,4.3Z"/>
        <path class="st67" d="M387.8,280.1c-1.6,3-1.2,7.8-2.9,11.1s-9.1,11.3-11.8,16.2c-.9-1.9-6.6-5.5-8.7-6.1-3-1-3.6.4-4.3.3s-1.1,0-1.6,0c-2-7.3,3.8-8.5,9.7-13,5.3-4,13.8-7.9,17.9-11.5l1.6,2.9Z"/>
        <path class="st256" d="M347.1,185c.2.4-.1,1,0,1.4,2.7,8.7,4.8,20.1,1.6,28.8-3.1-12.9-7.6-27.3-14.6-38.9,2.7-3.2,12.3,6.7,13,8.6Z"/>
        <path class="st93" d="M350.4,190.8c1.1,7.2,2.3,14.3,1.6,21.6-.2,1.8-1.3,3.9-1.6,5.8l-1.6,2.9c-.3-1.8.4-4.1,0-5.8,3.2-8.7,1-20.1-1.6-28.8,1.1,1.5,1.8,3,3.2,4.3Z"/>
        <path class="st92" d="M319.5,185c3.9,6.9,1.8,10.6,1.8,16.7,0,2.9,1.7,5.1,1.2,8.1s-4.2,5.6-4.3,7.8c-.3,3.7,7.2,4.8-2.5,12.9s-12.3,10.8-18.7,18.7c-1.6,1.9-1.4,5.6-3.5,7-13,3.2-26.2,5.7-39.3,8.3s-10.1,4-13.5,4.6c-19.9,3.4-16.3-2.4-36.5,10.8-8.6-.2-17.5.5-26,1.4,1.4-2.3,2.4-4.9,4.2-7.1,3.1-3.8,23-15.3,28.8-17.8,7.9-3.5,47-12.7,47.9-17.8.3-1.4-1.6-3.2-1-4.6s4.3-4.3,6.2-7.5c4.9,3.4,5.3-.9,8.1-2.9,10-7.2,18.6-13.4,26-23,.9,3,4.1-1.7,4.6-2.4,2.8-3.7,9.3-13.9,10-17.8,2.6.8,5.2,2.1,6.5,4.3Z"/>
        <path class="st46" d="M322.8,185c3.6,4.1,7.8,6.4,1.7,10.8l4.8,2.2c-6,7.4.7,8.2,1.3,14,.7,6.7-2.2,16.6,1.8,24.3l-16.1,29.4c-19.1,8.4-21.2,7-39.5,11.8-9.5,2.5-2.9,3-16.8,2.7-13.8-.2-24.9-3.2-38.4,1.7s-11.4,8.9-21,11.6-18.9,4.6-24.1,2.4c8.1-4.5,17.5-7.1,26.5-12.9,1.5-1,1-2.9,1.1-2.9,20.3-13.2,16.7-7.4,36.5-10.8,3.4-.6,8.7-3.7,13.5-4.6,13.1-2.6,26.3-5.1,39.3-8.3,2.1-1.4,1.9-5.1,3.5-7,6.4-7.8,11.4-12.4,18.7-18.7s2.2-9.2,2.5-12.9,3.9-5.2,4.3-7.8-1.2-5.3-1.2-8.1c0-6.1,2.1-9.8-1.8-16.7,1-.2,2.4.2,3.2,0Z"/>
        <path class="st283" d="M334.2,176.4c7,11.6,11.5,26,14.6,38.9s-.3,3.9,0,5.8l1.6-2.9,6.5-2.9,1.4,5.1-4.7,2.8c7.3,1.6.5,8.6,1.5,12.7.4,1.8,1.3-1.9,1.9,6.1,1,14.4,1.9,17.4-9.1,29.4s-6.8,4.4-8.5,6.2c-1.6,1.7,2,5.3-6.9,3.8l3.2,5.7c-2.9,1-4.3-2.6-5.7-2.5s-3.5,3.2-5.7,4c-11.5,4.5-21.6,9.3-34.1,5.8,3.5-6,11.9-2.1,16.7-2.9s13.2-13.6,18.4-12.9l-1-4.4c4.7,2.4,9.8-4.8,11-8.3s-3-5,4.7-8.9c2.5-1.2,5.3.2,7-2.3.7-3.2-2.8-4.8-3.2-6.4s0-5.4-1.7-7.8c5.9-1.3-.8-6.9,4.9-10.2l-3.1-1.3c3.5-16.8-3.8-34.9-11.5-49.8-.5-1.1-2.3-2.3-3.2-4.3s-1.6-4-1.6-4.3c4.4-.1,4.9,3.1,6.5,5.8Z"/>
        <path class="st291" d="M332.5,179.3c7.7,14.9,15,33,11.5,49.8l3.1,1.3c-5.7,3.3,1,8.8-4.9,10.2,1.7,2.4,1.1,5.6,1.7,7.8-5,3.5-8.7,9.9-13.8,13-4.7,2.8-10.4,2.8-13.8,4.3l16.1-29.4c-4-7.7-1.1-17.6-1.8-24.3-.6-5.8-7.3-6.6-1.3-14l-4.8-2.2c6.1-4.4,1.9-6.7-1.7-10.8,3.3-.9,3.7-1.6,8.1,0l1.6-5.8Z"/>
        <path class="st213" d="M313,180.7c-.7,3.8-7.2,14.1-10,17.8s-3.7,5.4-4.6,2.4c5.3-6.9,10.4-14.4,11.4-23l3.2-17.3c-.8,6.2,1.1,14.3,0,20.2Z"/>
        <path class="st237" d="M374.8,392.4c13.4-7,23.8-19.5,33.3-30.2,7.1,0-3.4,6.4-2.5,7.2,4.7,1.2,6.9-6.9,9-7.1.5.3.6,1.3.8,1.3-15.4,23.5-39.7,41.3-68.2,50.4l-1.2-1.8c4.5-2.8,16.2-5.6,19.6-8.2s2.2-5,4.4-7.3c1.1-1.1,3.2-2.7,4.9-4.3Z"/>
        <path class="st338" d="M369.9,396.7c-2.2,2.3-2.7,6-4.4,7.3-3.4,2.6-15.1,5.4-19.6,8.2l1.2,1.8c-15.9,5.1-22.8,5.2-39,7.2l-.9-1.5c13-1.7,19.9-2.1,29.2-8.6,3.5-2.4,11.4-.5,10.7-5.7,1-.3,3.1,0,4.9-.6,5.5-1.8,11.1-7.5,17.9-8Z"/>
        <path class="st216" d="M345.5,405.3c.5-.2,1.2.2,1.6,0,.7,5.1-7.2,3.2-10.7,5.7-9.3,6.5-16.2,7-29.2,8.6l.9,1.5c-.5,0-2,1.6-3.2,1.4-5.4-.7-10.3-.6-16.2-1.4,7-1.3,13.8-3.7,20.7-5.4,12-3,23.3-6.2,36.1-10.4Z"/>
        <path class="st184" d="M425.1,320.4c-4.6,24.3-22.1,42.4-39,60.5-5.3,2.3.1-5.3-4-2.9s-6.5,3.2-10.4,5.2c-8.6,4.5-15.8,10.5-22.1,16.4l-1.6-4.3-5.5,5.9,3,4.2c-12.8,4.2-24.2,7.4-36.1,10.4-6.9,1.7-13.7,4.1-20.7,5.4-3.9-.5-7.3-.8-11.4-1.4l9.7-1.4c-5.9.5-10.8-1.3-16.2-2.9-4.8-1.4-10-4-14.6-5.8,6.9-1.7,11.6,2.5,16.2,3.7s4.9.3,6.5.7c4.4,1.1,10.9,4.4,15.5,4.2,3.7-.2,11.7-6.2,17-7.8,15.2-4.5,9.5-4.6,20.7-10.8,15.5-8.6,27.1-14,42.7-24.4,7.4-5,21.1-13.6,25-18.9s10.5-17.1,10.7-21.4h1.6c-.1,1,1.4,8.3,4.1,4.3,1.5-7.1,5.1-12.5,8.9-18.7Z"/>
        <path class="st315" d="M183.1,353.5c6.5,9.5,18.1,19.4,27.6,27.4s1,1,1.6,1.4c1.2.9,1.1,3.1,6.5,5.8.3,5.8,11.2,4.3,11.4,11.5-2.4-.9-3.7-1.1-4.9-1.4s-2.5.3-3.8,0c-1.6-.4-6.4-8.8-12.5-7.2-13.9-15.2-23.9-22.9-30.9-41.8h1.6c1,2.1,2.3,2.9,3.2,4.3Z"/>
        <path class="st317" d="M230.2,399.6c9.4,3.3,17.8,7,26,10.1s9.8,4.3,14.6,5.8c-12.2.7-23.5-5.1-33.9-9.5l-11.5-7.8c1.2.3,2.4.6,4.9,1.4Z"/>
        <path class="st220" d="M204.2,280.1c-.1,0,.4,2-1.1,2.9-9,5.8-18.4,8.4-26.5,12.9s-2.3,1.1-3.2,2.9c-3.3,6.5-3.8,16-3.2,23h-1.6c1.8-10.2,1-21.2,3.2-33.1,2.8-1.3,2.4-3.7,3.2-5.8,1-.3,2.4-1.3,3.2-1.4,8.5-.9,17.4-1.6,26-1.4Z"/>
        <path class="st74" d="M191.2,259.9c-6.1,7.8-12.5,13.9-16.2,23-.8,2-.5,4.4-3.2,5.8.2-.9-.1-1.9,0-2.9,3.2-8.1,5.7-13.8,9.7-21.6l9.7-4.3Z"/>
        <path class="st96" d="M214,327.6c1.3,4.6,3.6,11,9.7,11.5.3.3-.3,1.2,0,1.4,6.8,7.3,10.4,2.7,17.9,1.4,0,.1,1,1.2.7,2.2-.9,3.7-2.2,3,.9,7.9-7.1-2.2-21.4-7.6-26.1-12.5-1.1-1.2-1.3-4.6-1.5-4.8s-4,1.7-7.1,1.4-16.7-2.4-18.9-2.9-1.3-2.3-3-2.7c-2.8-.7-12.8-3.8-13.3-.8s5.5,17.3,6.5,19.4h-1.6c-.7-1.8-2.1-4.2-3.2-5.8-.9-5.4-2.4-10.4-3.2-15.8.2-2.4-.4-4.9,0-7.2,5.9-3.1,12.7.7,18.8,1.3s5.7-1.6,9.2-1.1c5.2.8,7.9,7.3,14.2,7Z"/>
        <path class="st84" d="M210.7,300.2l4.9,7.9c.1,1.5-2.8.3-3.2.7l-31.3,2.9c-4.3,5.8-7.9-.3-9.3,8.6-.4,2.3.2,4.8,0,7.2-.2-1.2-1.4-2.7-1.6-5.8-.5-7.1,0-16.6,3.2-23l31.8,3.6c2.1-.1,3.8-1.4,5.6-2.2Z"/>
        <path class="st226" d="M426.7,285.8c0,11.5.5,23.2-1.6,34.6-3.8,6.3-7.4,11.7-8.9,18.7-2.7,3.9-4.2-3.4-4.1-4.3.7-6.3,6.9-9.4,5-15.7l5.6-1.5v-26.5c-3.7-12.3-4.7-23.3-10.4-35.1s-7.9-8.7-6.8-14.8c10.4,14.6,17.8,27.2,21.1,44.6Z"/>
        <path class="st225" d="M405.6,241.2c-1.1,6.2,4.4,9.8,6.8,14.8,5.6,11.8,6.7,22.9,10.4,35.1v26.5s-5.7,1.5-5.7,1.5c1.9,6.3-4.3,9.4-5,15.7h-1.6c0-.4-1.7-3.5-1.6-4.3,1.3-9.2,8.9-26.4,7.4-34.6-1.3-7.6-5.7-17-7.4-24.5-2.4-10.1-2-22.6-7-32.4-2-3.9-11.7-9-9.3-13.7,4.8,5.6,8.6,9.7,13,15.8Z"/>
        <path class="st192" d="M345.5,405.3l-3-4.2,5.5-5.9,1.6,4.3c6.3-5.8,13.5-11.9,22.1-16.4,3.9-2,6-2.6,10.4-5.2s-1.2,5.2,4,2.9c-3.7,3.9-7.5,7.7-11.4,11.5-1.7,1.6-3.8,3.2-4.9,4.3-6.7.5-12.4,6.2-17.9,8s-3.9.3-4.9.6-1.1-.2-1.6,0Z"/>
        <path class="st85" d="M408.9,271.4c1.7,7.4,6.1,16.9,7.4,24.5,1.5,8.2-6.1,25.4-7.4,34.6l-3.2,1.4c.1-2.4,0-4.8,0-7.2,1.3-2.1,2.8-4.1,3.1-6.6s.3-11.4-3.1-9.3l3.4-2.3c1.4-5.9-4.4-8.9-4.6-9.4-.4-1.1,2.1-3.2.5-5.5s-8.7-7-10.7-7.2c0-.5.1-1,0-1.4,2.1-4.9,7.6-13,14.6-11.5Z"/>
        <path class="st64" d="M352,212.4l8-1.3c1,7.2,10.1,17.8,11.3,24,1.2,6.1-.3,12.7,1.4,21.7s-4.6,9.4-9.1,14.1-1.3,4.3-1.8,4.9c-1,1.2-10.8,5.6-12.5,7.6s-1.4,5.5-2.4,6.5-5.2.6-6.8,1.6c-3.5,2.2-4.1,7.1-14,10.2-6.3,2-14.1,12.3-15.9,12.9-4.9,1.6-10.3-.2-14,.2-5.5.6-13.2,1.9-18.8,2.7,3-.9,7.2-5,9.3-5.5,2.3-.6,4.8.8,6.1.5,2.1-.4,11.3-2.2,11.9-2.4,1.2-.7,4.2-9.5,5.6-10.8,2.8-2.7,14.1-3.5,14.2-10.5,2.2-.8,4.6-4,5.7-4s2.8,3.5,5.7,2.5l-3.2-5.7c8.9,1.5,5.3-2.1,6.9-3.8,1.7-1.8,5.9-3.4,8.5-6.2,11-12,10.1-15,9.1-29.4-.6-8-1.4-4.3-1.9-6.1-1-4.2,5.8-11.1-1.5-12.7l4.7-2.8-1.4-5.1-6.5,2.9c.3-1.9,1.5-3.9,1.6-5.8Z"/>
        <path class="st290" d="M361.8,275.7c6,2,1,4.4,1.8,7.7s2.5,1.8,3.1,2.4c.9.9,1.9,1.3,1.6,2.9-5.9,4.4-11.7,5.6-9.7,13-3.1.2-7.9-1.1-9.7,1.4h-1.6c1-3.6-2.1-3.8-4.6-2.5s-9.5,9.7-10.8,11.3-1.3,4.3-2.6,6c-4,5.2-5.7,2.2-9.3,3.4-5.2,1.8-10.1,4-15,6.3.4-.9-.6-2.9.1-4.2,8.4,1.6,8.3-5.5,11.9-9.6,3-3.5,9.7-6.7,9.1-12.1,9.8-3.1,10.4-8,14-10.2s5.6-.6,6.8-1.6.6-4.4,2.4-6.5,11.5-6.4,12.5-7.6Z"/>
        <path class="st65" d="M382.9,318.9c6.9,6.1.6,10.6,0,17.2l13,4.4c-3.9,7.2-5.7,5.7-10.6,10.1-6.7,6.1-12.6,14-21.9,17.5l1.5,4c-.4.5-6.9,2.3-8,3-7.9-1.2-11.1,3.4-16.2,5.1-20.4,6.6-45.7,11.6-67.5,10.8-9-.3-18-4.3-26.7,0-4.9-1.6-14.5-2.1-19.6-3.5-5.4-1.5-9.1-4.7-14.5-5.1-.6-.5-1.1-1-1.6-1.4l1.6-2.9c6-.8,12.5-4.5,18.7-4.4,10.3.3,28.4,7.9,40.5,8.7,22.9,1.6,41.4-.9,62.1-8.4,11.3-4.1,19.1-14.7,24.9-24.1,1.7-2.7,2.2-3.8,0-6.5,13.1-5.5,9.2-6.9,16.2-15.8,2.1-2.6,6.1-5.6,8.1-8.6Z"/>
        <path class="st218" d="M394.2,284.4c2,.2,10.3,6.7,10.7,7.2,1.6,2.3-1,4.4-.5,5.5s6,3.5,4.6,9.4l-3.4,2.3c3.4-2.2,3.4,7.2,3.1,9.3s-1.9,4.4-3.1,6.6c-3.4,5.8-6.4,9.5-9.7,15.8l-13-4.4c.6-6.6,6.9-11.2,0-17.2,6.3-9.6,3.4-12.3,5.6-19.4,1.6-5,6.5-5.8,5.7-15.1Z"/>
        <path class="st233" d="M360.1,301.7c.7,0,1.3-1.3,4.3-.3s7.8,4.2,8.7,6.1c2.7,5.7,3,14.2,1.6,20.2-7.1,8.9-3.1,10.4-16.2,15.8-2.5,1-5.4,1-6.5,1.4-.7-1.3-2.1-1.1-3.2-1.4.1-.7.9-1.4,1.6-1.4,8.7-.8,8.6.6,14.6-5.8.7-.7,3.1-1.1,3.2-2.9.7-1.8.8-4.2,1.6-5.8s3-1.9,3.3-5.1c.8-8.2-3.8-18-13-20.8Z"/>
        <path class="st120" d="M358.5,301.7c.5,0,1.1,0,1.6,0,9.2,2.8,13.8,12.6,13,20.8s-2.5,3.8-3.3,5.1c-1.7-5.1-5.5-18.7-13-17.3v-5.7c0,0-8.1-1.5-8.1-1.5,1.8-2.5,6.7-1.3,9.7-1.4Z"/>
        <path class="st203" d="M343.9,248.4c.5,1.7,4,3.2,3.2,6.4-1.7,2.5-4.5,1.1-7,2.3-7.7,3.9-3.5,5.7-4.7,8.9s-6.3,10.7-11,8.3l1,4.4c-5.2-.7-17.3,12.7-18.4,12.9-4.8.8-13.2-3.1-16.7,2.9h-52.8c-2.8,0-16.6,0-17.5.2-1.4.3-6.1,4.2-9.3,5.6s-3.5,2.1-5.6,2.2l-31.8-3.6c.9-1.8,1.6-1.9,3.2-2.9,5.2,2.1,18.5-.9,24.1-2.4,9.7-2.7,12.5-8.5,21-11.6,13.4-4.8,24.6-1.9,38.4-1.7,13.8.2,7.2-.2,16.8-2.7,18.3-4.8,20.4-3.4,39.5-11.8s9.1-1.5,13.8-4.3c5.1-3.1,8.8-9.5,13.8-13Z"/>
        <path class="st126" d="M324.4,288.7c0,7-11.4,7.8-14.2,10.5-1.4,1.4-4.4,10.2-5.6,10.8s-9.7,2-11.9,2.4-3.8-1.1-6.1-.5c-2.2.5-6.4,4.6-9.3,5.5-3.9.6-18.1,3-20.5,4.1-2.9,1.3-2.3,2.5-3.9,4.6,1-7.5-1.7-13.1-3.3-20.2l-3.2,1.4c-8.8-11.1-20.9-5.1-29.2,2.9-1,.9-2.2.8-3.2,2.9h-3.2c1.1-1.1,1.4-4.2,1.6-4.3.4-.4,3.4.8,3.2-.7l-4.9-7.9c3.2-1.4,7.9-5.2,9.3-5.6s14.6-.2,17.5-.2h52.8c12.5,3.5,22.6-1.3,34.1-5.8Z"/>
        <path class="st128" d="M374.8,375.1c-15.6,10.4-27.2,15.8-42.7,24.4-11.2,6.2-5.5,6.3-20.7,10.8-5.3,1.6-13.3,7.6-17,7.8-4.6.2-11.1-3.1-15.5-4.2l1.6-2.9c14.1,2.3,40.3-8,52.9-14.3,7.3-3.7,13.2-9.4,19.4-13.1,5.4-3.2,11.3-3.1,17.1-8.6.5-.5,1.2-.9,1.6-1.4l3.2,1.4Z"/>
        <path class="st207" d="M278.9,409.7c.5.2,1.1,1.4,1.6,1.4l-1.6,2.9c-1.6-.4-4,0-6.5-.7-4.7-1.2-9.3-5.4-16.2-3.7-8.2-3.1-16.6-6.8-26-10.1-.2-7.2-11-5.7-11.4-11.5,15.6,7.8,42.7,16,60.1,21.6Z"/>
        <path class="st154" d="M410.5,334.8c-.3,4.4-7.7,17.4-10.7,21.4s-17.6,13.9-25,18.9l-3.2-1.4c2.3-2.5,10.2-8.3,15.2-12.5,1-.8,3.7-.5,5.1-1.9,2.7-2.7.5-7.6,1.5-8.7s4.5-.6,5.8-2.4c2.3-3.1,6.3-12.5,6.5-16.2l3.2-1.4c-.1.8,1.6,3.9,1.6,4.3Z"/>
        <path class="st209" d="M189.6,340.5c1.6.5,3.3,2.3,4.9,2.9.1,6.3,5.9,6.2,7.7,7.6s.3,2.4.5,2.5c-12.4,5-3.5,9.1,0,13.7s3.9,8.6,9.7,10.8l-1.6,2.9c-9.5-8-21.1-17.9-27.6-27.4-1.2-5.8-4-16.4,6.5-13Z"/>
        <path class="st118" d="M246.4,390.9c1.4.5,4.3,3.6,7,4.6,12.3,4.4,24.4,9.5,36.9,12.7-3.5.8-6.6,2.5-11.4,1.4-17.4-5.6-44.5-13.8-60.1-21.6s-5.3-4.8-6.5-5.8c5.5.4,9.1,3.6,14.5,5.1,5,1.4,14.7,1.9,19.6,3.5Z"/>
        <path class="st25" d="M179.9,349.2c-1-2.1-6.7-18.4-6.5-19.4.5-3,10.5.1,13.3.8s2.5,2.6,3,2.7c.9,2.5,2,4.9,0,7.2-10.5-3.5-7.7,7.2-6.5,13-1-1.5-2.3-2.2-3.2-4.3Z"/>
        <path class="st71" d="M304.9,327.6c4.9-2.3,9.9-4.4,15-6.3s5.3,1.8,9.3-3.4,1.2-4.4,2.6-6,9.9-10.8,10.8-11.3c2.4-1.3,5.5-1.1,4.6,2.5l-1.6,1.4c-1.1.6-1.2,2.5-1.6,2.9-1.9,1.8-4.7,3.5-6.5,5.8l-1.6-1.5c-.2,2.4-.8,4.9-1.7,7.2s-3.2,10.8-3.6,11.2c-.7.7-3.5.1-5.3,1.8s-5.9,8.7-7.6,9.7-2.9-1.1-4.6-.5c-15.8,5.3-16.9,2.4-31.3,3.9-5.5.6-9.6,5.7-15.8,2.6-.3,1.4.3,3.1,0,4.3-5.3-4.2-11.7,2.8-15.2,2.6-.9,0-5.6-2-7.6-2.6-3.1-4.9-1.8-4.3-.9-7.9.3-1-.8-2.1-.7-2.2,17.9-3,35.9-8.5,52.7-9.4s5.2-.5,7.9-.6c.9-.3,2.4-3.4,2.8-4.3Z"/>
        <path class="st7" d="M189.6,333.3c2.2.5,16.4,2.7,18.9,2.9s6.8-1.6,7.1-1.4.4,3.6,1.5,4.8c4.7,5,19,10.4,26.1,12.5s6.7,2.5,7.6,2.6c3.5.2,9.8-6.8,15.2-2.6-.3,1.2-2.2,2.5-1.6,4.3,3.9-.6,8.6,0,12.2-.2,8.3-.7,4.3-.3,11.2.1s22.5-3.9,24.1-4.6c3.8-1.5,4.2-4.5,6.9-6.8l1.6,2.9,4.9-1.5.9-8.6,9.7,2.9c0-2.4.1-4.8,0-7.2,1.5,2.4,4.7,1.3,4.9,1.4,2.7,1.6,5.9,5.7,9.7,7.2-.7,0-1.5.7-1.6,1.4-10.4-3.2-6.8.7-9.3,1.4s-4.9-.4-7,.7c-5,2.8,1.3,9.9-13.8,9.7l-.8,4.1c-3.1.2,0-3.2-3.9-2.9-2.8.2-5.8,2.2-8.7,2.6s-4.6-.7-6.9-.2c-5.1,1.1-14.3,7.9-15.4,1.9h-2.4c-.2,7-14-.5-14.6,0s1.3,3.4-1.6,2.9v-4.3c-15.3,9.9-28.3-3.8-42.1-7.4l-.2-5.6-16.1,2.8c-1.3-7.6-7.9-4.4-11.5-5.6-1.6-.5-3.3-2.3-4.9-2.9,2-2.3.9-4.7,0-7.2Z"/>
        <path class="st12" d="M246.4,307.4c9.8,16.3,1.4,39.6-22.7,33.1-.3-.3.3-1.1,0-1.4-8.2-9.7-10.2-16.7-6.5-28.8,8.3-7.9,20.4-14,29.2-2.9ZM238.3,311.7c-3.3-17.8-21.6,3.3-3.2,2.9,0,.3,2.5,1.4.9,4.2s-22.3,13.4-8.7,19.2c15.1,6.4,25.3-14.2,18.3-24.9-.6-1.1-7-1.5-7.4-1.4Z"/>
        <path class="st135" d="M212.3,308.9c-.2.2-.6,3.3-1.6,4.3h3.2c-2.6,5.1-1.5,9.3,0,14.4-6.3.3-9-6.2-14.2-7-3.5-.5-6.3,1.4-9.2,1.1-6.1-.6-13-4.4-18.8-1.3,1.3-8.9,5-2.8,9.3-8.6l31.3-2.9Z"/>
        <path class="st10" d="M252.9,326.1c-1.3,9.9-9.8,12.4-11.4,15.8-7.5,1.2-11.1,5.9-17.9-1.4,24.1,6.5,32.5-16.8,22.7-33.1l3.2-1.4c1.6,7.1,4.3,12.6,3.3,20.2Z"/>
        <path class="st221" d="M223.7,339.1c-6.1-.5-8.4-6.9-9.7-11.5s-2.6-9.3,0-14.4,2.3-2,3.2-2.9c-3.7,12.1-1.7,19.1,6.5,28.8Z"/>
        <path class="st259" d="M405.6,331.9c-.2,3.7-4.1,13.2-6.5,16.2s-4.4,1-5.8,2.4,1.1,6-1.5,8.7-4.2,1.1-5.1,1.9c-4.9,4.2-12.9,10-15.2,12.5s-1.1,1-1.6,1.4c-8.3-1.3-12.4,5.3-19.5,5.8,1.8-1.2,4.6-4.6,6.5-5.8s7.7-2.5,8-3l-1.5-4c9.2-3.4,15.2-11.4,21.9-17.5,4.8-4.4,6.7-2.8,10.6-10.1s6.3-10.1,9.7-15.8c0,2.4.1,4.8,0,7.2Z"/>
        <path class="st241" d="M326,301.7c.6,5.4-6.1,8.6-9.1,12.1-3.6,4.2-3.5,11.2-11.9,9.6-.7,1.3.3,3.3-.1,4.2s-1.9,4.1-2.8,4.3c-2.6.1-5.3.5-7.9.6-16.8.9-34.7,6.5-52.7,9.4,1.5-3.4,10-5.9,11.4-15.8,1.6-2.1.9-3.2,3.9-4.6,2.4-1.1,16.6-3.5,20.5-4.1,5.6-.9,13.4-2.1,18.8-2.7,3.7-.4,9.1,1.4,14-.2s9.5-10.9,15.9-12.9Z"/>
        <path class="st105" d="M348.8,303.1l8,1.5v5.7c-1.1.2-2.8,2.4-4.3,2.6-5.6.9-7.7-4.2-7-8.4l1.6-1.4h1.6Z"/>
        <path class="st116" d="M212.3,378c-5.8-2.2-6.8-7-9.7-10.8s-12.4-8.7,0-13.7c4.4,3.2,21.1,5.5,22.7,6.5s1.8,3.9,4.4,4.8c6.9,2.4,32.9,6.8,40.4,7.4,4.2.4,8.1-3,11.4-2.8s4.2,2.7,6.4,2.8,8.7-4.2,12.2-5c5.5-1.2,12.7,1.5,17-5,2.7,7.4,4.5-.3,6.8-1.5,3.1-1.6,7.7-.7,11.2-2.7s3.2-5.9,4.4-6.9,11-5.5,12.6-6.1,4-.4,6.5-1.4c2.2,2.7,1.8,3.8,0,6.5-5.8,9.3-13.6,19.9-24.9,24.1-20.7,7.5-39.2,10-62.1,8.4s-30.2-8.5-40.5-8.7c-6.3-.2-12.7,3.6-18.7,4.4Z"/>
        <path class="st123" d="M356.9,375.1c-1.8,1.2-4.7,4.5-6.5,5.8-19.3,13.1-36.3,21.8-60.1,27.4-12.5-3.2-24.6-8.3-36.9-12.7-2.7-1-5.6-4.1-7-4.6,8.7-4.2,17.7-.2,26.7,0,21.8.7,47.1-4.3,67.5-10.8,5.1-1.7,8.4-6.2,16.2-5.1Z"/>
        <path class="st305" d="M348.8,343.4c1.2.4,2.5.2,3.2,1.4-1.6.7-12.1,5.7-12.6,6.1-1.2,1-.8,4.9-4.4,6.9s-8.1,1-11.2,2.7c-2.2,1.2-4,8.9-6.8,1.5-4.3,6.5-11.6,3.8-17,5s-10.2,5.1-12.2,5-4-2.6-6.4-2.8-7.1,3.1-11.4,2.8c-7.4-.6-33.4-5-40.4-7.4s-2.7-3.7-4.4-4.8-18.2-3.3-22.7-6.5c-.2-.1.5-1.7-.5-2.5-1.7-1.4-7.6-1.2-7.7-7.6,3.7,1.2,10.2-2,11.5,5.6l16.1-2.8.2,5.6c13.8,3.6,26.8,17.3,42,7.4v4.3c3,.6,1.1-2.4,1.7-2.9s14.4,7,14.6,0h2.4c1.2,5.9,10.3-.9,15.4-2s4.5.6,6.9.2,5.9-2.4,8.7-2.6c3.9-.3.8,3.1,3.9,2.9l.8-4.1c15.1.3,8.8-6.9,13.8-9.7s4.9-.2,7-.7-1.1-4.5,9.3-1.4Z"/>
        <path class="st108" d="M356.9,310.3c7.5-1.5,11.3,12.2,13,17.3-.8,1.6-.9,4-1.6,5.8,0-.1-1.4-1-1.3-2.1.2-3.1,3.1-5.6-1.1-8-7.5,2.5-15.9,5.1-20.3,11.5-.5-.5-1.6-.2-1.5-2v-25.4c.3-.4.4-2.3,1.5-2.9-.7,4.2,1.4,9.3,7,8.4s3.2-2.4,4.4-2.6Z"/>
        <path class="st175" d="M345.5,334.8c2.1,2,6.4,2.7,9.2,3.9l10.3-2.5c-6,6.3-5.9,5-14.6,5.8-3.9-1.5-7-5.6-9.7-7.2-5.1-6.4-2.9-14.3-3.2-21.6,1.8-2.3,4.6-4,6.5-5.8v25.4c0,1.8,1.1,1.5,1.6,2Z"/>
        <path class="st99" d="M368.3,333.3c-.2,1.8-2.6,2.2-3.2,2.9l-10.3,2.5c-2.8-1.2-7.1-1.9-9.2-3.9,4.4-6.5,12.8-9,20.3-11.5,4.3,2.4,1.3,4.8,1.1,8s1.4,2,1.3,2.1Z"/>
        <path class="st154" d="M369.9,375.1c-5.8,5.5-11.6,5.4-17.1,8.6-6.2,3.7-12.1,9.4-19.4,13.1-12.6,6.3-38.8,16.6-52.9,14.3-.5,0-1.1-1.3-1.6-1.4,4.7,1,7.8-.6,11.4-1.4,23.8-5.5,40.8-14.3,60.1-27.4,7-.5,11.2-7.1,19.5-5.8Z"/>
        <path class="st22" d="M335.8,333.3c.1,2.4,0,4.8,0,7.2l-9.7-2.9-.9,8.6-4.9,1.5-1.6-2.9c-2.7,2.3-3.1,5.3-6.9,6.8-1.5.6-22.7,4.6-24.1,4.6-6.9-.4-3-.8-11.2-.1-3.6.3-8.4-.4-12.2.2-.5-1.8,1.3-3.1,1.6-4.3s-.3-3,0-4.3c6.3,3,10.4-2.1,15.8-2.6,14.4-1.5,15.4,1.4,31.3-3.9s4.2.8,4.6.5c1.7-1,6.5-8.7,7.6-9.7,1.7-1.7,4.6-1.1,5.3-1.8s2.8-8.8,3.6-11.2c-.6,5,1.4,9.5,1.6,14.4Z"/>
        <path class="st247" d="M337.4,313.2c.4,7.3-1.8,15.2,3.2,21.6-.2-.1-3.4,1-4.9-1.4-.3-4.9-2.2-9.5-1.6-14.4.8-2.3,1.4-4.8,1.7-7.2l1.6,1.5Z"/>
        <path class="st222" d="M235.1,314.6c0-1.3,1.8-2.5,3.2-2.9s6.7.2,7.4,1.4c7,10.7-3.3,31.3-18.3,24.9-13.7-5.8,7-16.3,8.7-19.2s-.9-3.9-.9-4.2Z"/>
        <path class="st269" d="M238.3,311.7c-1.4.4-3.2,1.5-3.2,2.9-18.3.4,0-20.6,3.2-2.9Z"/>
      </g>
    </g>
  </g>
  <path class="st156" d="M281.8,337.9c12.8-4.7,18.9-.9,23.6,3.7"/>
  <path class="st100" d="M332.4,153.3"/>
  <path class="st13" d="M277.3,163.4s-55.2,34.6-53.6,34.6h1.6l52-34.6Z"/>
  <path class="st27" d="M300.1,375.8"/>
  <path class="st156" d="M274.1,373.3"/>
  <path class="st303" d="M270.1,372.2c5.8,3.1,40.9-2,43,1.1"/>
</svg>